<svg width="75" height="75" viewBox="0 0 75 75" fill="none" xmlns="http://www.w3.org/2000/svg">
<g clip-path="url(#clip0_323_1599)">
<mask id="mask0_323_1599" style="mask-type:luminance" maskUnits="userSpaceOnUse" x="0" y="0" width="75" height="75">
<path d="M37.5225 75C58.2155 74.9876 74.9876 58.2146 75 37.5225V37.4775C74.9876 16.7845 58.2146 0.0123604 37.5225 0H37.4775C16.7845 0.0123604 0.0123604 16.7854 0 37.4775V37.5225C0.0123604 58.2155 16.7854 74.9876 37.4775 75H37.5225Z" fill="white"/>
</mask>
<g mask="url(#mask0_323_1599)">
<path d="M0 0H75V75H0V0Z" fill="#E9E9E9"/>
</g>
<mask id="mask1_323_1599" style="mask-type:luminance" maskUnits="userSpaceOnUse" x="0" y="0" width="75" height="75">
<path d="M37.5225 75C58.2155 74.9876 74.9876 58.2146 75 37.5225V37.4775C74.9876 16.7845 58.2146 0.0123604 37.5225 0H37.4775C16.7845 0.0123604 0.0123604 16.7854 0 37.4775V37.5225C0.0123604 58.2155 16.7854 74.9876 37.4775 75H37.5225Z" fill="white"/>
</mask>
<g mask="url(#mask1_323_1599)">
<path fill-rule="evenodd" clip-rule="evenodd" d="M48.8187 37.9748L34.7271 39.1861L39.2571 57.9756C39.2571 57.9756 43.0182 62.805 46.2566 61.8338C50.0354 60.7028 53.378 53.7492 53.378 53.7492L48.8187 37.9739V37.9748Z" fill="#DEA87F"/>
<path fill-rule="evenodd" clip-rule="evenodd" d="M37.3194 54.0591C38.083 56.7987 40.0528 58.5468 45.1461 58.319C49.007 58.146 51.8454 56.1869 53.3295 53.1851C66.2435 54.1677 76.7454 60.5483 77.8401 74.8678H15.3373C15.2808 74.7989 15.2234 74.73 15.1775 74.6594C14.9551 60.9995 24.7692 55.9882 37.3202 54.0591H37.3194Z" fill="#CDE1DE"/>
<path fill-rule="evenodd" clip-rule="evenodd" d="M37.23 13.714C28.0948 14.2075 25.0462 18.4798 27.2207 32.3349C27.3178 32.9635 26.6504 33.9099 26.7263 34.5845C27.0768 37.679 27.558 39.0978 28.1954 41.6846C29.7661 48.0678 30.5174 53.5382 40.1929 52.002C48.801 50.6344 53.5624 42.7741 53.7143 31.9879C53.8952 18.9018 45.9299 13.2443 37.23 13.7131V13.714Z" fill="#DEA87F"/>
<path fill-rule="evenodd" clip-rule="evenodd" d="M54.218 34.8219L51.3512 30.9884C51.3512 30.9884 47.8391 34.1465 48.3282 31.6391C49.3665 26.3241 44.3641 24.2555 44.335 23.0142C44.3094 21.7773 44.8709 21.727 44.1116 19.7255C43.3514 17.7249 41.4647 18.0374 39.6963 19.2275C38.696 19.8985 34.9932 21.026 32.8442 21.3641C31.1853 21.6254 31.1138 20.0177 31.1138 20.0177C31.1138 20.0177 28.9357 20.4018 28.1085 21.7526C27.2812 23.1034 25.8165 20.9544 25.014 21.5327C24.0684 22.2205 24.8365 14.0821 29.6615 11.7177C34.4873 9.35337 41.4312 8.43782 45.45 9.77627C46.5095 10.072 52.1034 12.3004 55.2015 19.5233C58.8911 28.1226 54.8589 41.1283 54.2391 42.7493C53.6149 44.387 51.8156 46.6922 51.6055 44.1893C51.428 42.0695 54.2188 34.8219 54.2188 34.8219H54.218Z" fill="#66462A"/>
<path fill-rule="evenodd" clip-rule="evenodd" d="M28.8384 42.0448C28.8384 42.0448 32.3637 40.5881 35.0654 40.4027C37.767 40.2173 39.6325 41.9936 40.8191 42.8765C42.0048 43.755 43.7273 41.2432 44.9095 40.0354C46.0917 38.8276 49.7133 34.4971 49.7133 34.4971C49.7133 34.4971 50.9758 39.5542 50.9422 40.4327C50.9131 41.3112 48.8948 47.162 46.6867 48.3733C44.4786 49.5847 42.9636 52.1432 38.151 52.3375C33.4232 52.5273 31.7007 50.8772 30.5273 49.2518C29.3584 47.622 28.8384 42.0457 28.8384 42.0457V42.0448Z" fill="#D49C7E"/>
<path fill-rule="evenodd" clip-rule="evenodd" d="M52.7664 31.4192C51.5374 30.9336 50.0815 32.3436 49.5076 34.5728C48.9373 36.7977 49.4697 38.997 50.6978 39.4825C51.9267 39.9681 53.3826 38.5582 53.9565 36.3333C54.5268 34.104 53.9945 31.9048 52.7664 31.4201V31.4192Z" fill="#DEA87F"/>
<path fill-rule="evenodd" clip-rule="evenodd" d="M12.09 47.9645C11.0332 47.9751 10.8027 51.0069 11.9832 50.4843C12.5023 50.2547 13.7913 48.9922 12.9623 48.262C12.5968 47.9416 12.2418 47.9628 12.09 47.9645Z" fill="#3B6B74"/>
<path fill-rule="evenodd" clip-rule="evenodd" d="M17.6496 48.7018C16.5927 48.7124 16.3623 51.7442 17.5427 51.2216C18.0619 50.992 19.3509 49.7295 18.5218 48.9994C18.1563 48.6789 17.8014 48.7001 17.6496 48.7018Z" fill="#3B6B74"/>
<path fill-rule="evenodd" clip-rule="evenodd" d="M21.6391 49.4487C20.6008 49.6465 20.9116 52.6712 21.9808 51.9473C22.4505 51.6294 23.4958 50.1577 22.5502 49.5873C22.1344 49.3366 21.7883 49.4205 21.6391 49.4487Z" fill="#3B6B74"/>
<path fill-rule="evenodd" clip-rule="evenodd" d="M26.3485 49.462C25.41 49.9493 26.5754 52.7578 27.3921 51.7584C27.7514 51.3187 28.3315 49.6103 27.2614 49.334C26.7908 49.2121 26.4836 49.3922 26.3485 49.462Z" fill="#3B6B74"/>
<path fill-rule="evenodd" clip-rule="evenodd" d="M32.4706 46.8707C31.5321 47.358 32.6975 50.1665 33.5142 49.1671C33.8735 48.7274 34.4535 47.019 33.3835 46.7427C32.9129 46.6208 32.6057 46.8009 32.4706 46.8707Z" fill="#3B6B74"/>
<path fill-rule="evenodd" clip-rule="evenodd" d="M57.4897 20.0584L47.2307 21.2724C47.1794 21.3783 47.1406 21.3969 47.1733 21.5346C46.1597 21.6812 45.1082 21.796 44.1061 21.9513C39.0463 22.7371 34.6019 23.6094 32.83 24.3616C28.8932 25.4829 29.5615 25.648 25.8075 29.2122C20.0467 34.6807 13.8118 38.7694 12.287 45.2082C12.069 46.1282 11.3777 46.6906 12.6305 48.0043C13.8577 49.2916 14.0908 47.8101 16.9743 48.3566C18.4036 48.723 19.4419 48.8634 20.4149 48.9084C21.4778 48.957 22.6821 51.1006 24.4479 49.4814C24.7357 49.1927 24.7966 48.7539 25.2451 48.7089C26.467 48.587 25.8684 49.6756 26.656 49.9325C26.9632 50.0332 27.4823 50.0067 28.4041 49.7321C29.158 49.507 30.4338 48.2621 32.0362 46.9431C33.4506 47.1259 34.8067 47.7598 35.973 46.6147C37.1623 45.4475 37.6311 43.1087 38.913 41.757C40.2117 40.3868 41.4239 40.3312 44.0064 40.0133C45.2212 39.865 47.4487 39.3132 47.5255 39.3097C50.3199 39.1746 53.1451 41.1673 55.7196 43.3065C57.4527 44.7465 58.8785 46.7948 60.5913 49.0876C61.2473 49.9661 61.8326 51.1209 62.8488 51.7442C66.3133 53.8702 69.4025 53.3281 69.0732 54.8008C77.4473 53.6874 82.4903 45.2506 83.5807 34.1325C84.4971 24.7933 81.7496 11.0504 71.9522 16.1208C63.828 20.326 64.7735 17.2067 57.4897 20.0602V20.0584Z" fill="#8DBAB1"/>
<path fill-rule="evenodd" clip-rule="evenodd" d="M47.673 39.4307C48.261 39.3512 49.2639 39.8783 49.8731 39.9374C50.2183 40.1537 50.1256 40.1034 50.3711 40.2553C50.4708 40.3674 50.5715 40.4769 50.673 40.5863L51.4279 40.8627C51.3934 40.8177 51.3617 40.7744 51.3343 40.7347C51.4694 40.7629 51.6936 40.8795 51.9514 41.0349C51.992 41.0543 52.0256 41.0755 52.0547 41.0984C52.5809 41.4277 53.2069 41.8904 53.4815 42.104C54.2425 42.6973 54.7872 43.069 55.5527 43.6023C56.1363 44.0075 57.0024 44.5275 57.4739 44.464C58.5739 44.3748 61.9916 45.7936 62.7941 46.1423C62.0746 45.368 60.2258 44.6909 59.1301 44.3059C59.0975 44.2998 59.056 44.2856 59.0339 44.2794L58.4344 44.0781C55.5139 43.0381 55.181 42.2885 54.4191 41.9274C55.0583 41.9486 57.4262 42.0952 58.0098 42.3751C58.3832 42.3556 58.6666 42.4298 59.0657 42.4801C59.5045 42.5366 59.659 42.5234 59.9857 42.8033C60.7096 42.7388 61.4901 43.1838 62.1593 43.4027C61.7488 43.1052 60.4006 42.4616 59.7437 42.391C57.9383 42.0254 55.9844 41.7023 54.4774 41.2918C54.7793 41.2538 59.116 41.3606 59.7102 41.5505L60.1825 41.4781L59.1293 41.2123L57.1075 41.0437C56.033 41.0967 54.9479 40.9748 54.0386 40.853C53.477 40.7779 51.5683 40.2738 51.4111 40.2941C53.5088 40.6102 55.5748 40.3559 57.1136 40.0496L56.5971 40.0416C56.4056 40.039 56.2731 39.9904 56.1884 39.918C55.7116 39.9357 55.2428 39.9392 54.7908 39.9374C53.5512 39.933 51.4623 39.8845 50.5476 39.677L54.5718 38.2803L55.3761 37.8927C55.1104 37.7903 55.3841 37.8282 55.0486 37.8476L54.3811 38.064C53.2122 38.5487 50.5061 39.1746 49.2842 38.8418L49.7866 38.554C49.9905 38.267 50.6783 38.3783 51.0262 37.7761C48.0261 38.7888 41.68 38.2644 38.3321 41.6361C37.3309 42.6452 36.5275 44.0119 35.6216 45.9737C34.7396 47.8843 32.6357 45.7177 31.4067 46.7727C29.241 48.6329 28.1401 50.4155 26.3549 48.6153C25.3007 47.5523 23.8201 50.7324 22.6265 49.2342C21.3834 47.0552 20.3195 48.8899 19.3113 48.813C17.9931 48.8095 18.0408 47.9063 16.9619 47.4525C16.3086 47.2636 15.921 47.6971 15.0981 47.6423C13.7411 47.5523 12.7726 47.2768 12.3709 46.7603C11.6937 45.8898 12.4442 44.3015 14.9463 40.6623C16.5425 38.8241 18.0478 36.6416 19.0985 35.6078C21.4372 33.3079 24.4223 30.4844 26.814 28.4811C27.6792 27.7607 28.1983 27.1233 28.7016 26.7586C31.6495 24.6229 31.2522 24.7554 38.4548 23.0638C41.8159 22.2736 45.8207 21.5938 47.4999 21.5894C48.1877 21.4349 49.8881 21.1515 50.424 21.3324C50.8152 21.1991 51.1003 21.2018 51.5144 21.155L52.5491 21.0985L55.5192 20.6632C57.4226 20.303 59.6978 24.0932 59.8885 24.0994C59.9327 24.1012 59.9389 24.1435 59.9662 24.163C59.6493 23.3807 58.9244 22.391 58.3885 21.803C57.5683 20.9034 57.216 20.9343 56.5089 20.3825C57.5383 20.2562 58.8529 22.0105 59.6899 22.595C59.2767 21.6662 58.5086 21.3051 57.9868 20.7224C58.5527 20.8213 59.8497 21.7571 60.3829 22.105C60.0881 21.6697 59.4294 21.1965 59.033 20.9254C58.423 20.5087 57.9073 20.3507 57.4924 20.0584C58.4918 19.8898 59.2017 19.6894 60.0616 20.0214C62.2997 20.8857 63.9498 22.6276 65.2176 24.826C65.3871 25.0458 65.5249 25.2101 65.5893 25.5473C65.6626 25.3398 65.7774 25.6038 65.5116 25.0511L63.5331 22.1191C62.3703 20.7833 61.2217 20.5202 60.6099 20.0373C61.9589 20.0629 65.2918 22.9826 66.3221 23.9449C65.6034 22.9181 64.6146 21.999 63.6779 21.2804C62.1196 20.0823 62.2626 20.2068 60.6019 19.5755C62.8241 19.2665 65.079 20.574 66.602 22.0405L67.273 22.6144C67.3136 22.6126 67.3251 22.6462 67.3515 22.6603C66.707 21.1515 64.9201 20.1768 63.933 19.685C62.6837 19.0626 61.0239 18.9257 59.2864 19.3822C56.9168 19.9905 54.005 20.5961 51.6521 20.8124C50.1786 20.9652 48.7059 21.1188 47.2333 21.2706C47.1238 21.2759 47.0152 21.2812 46.9058 21.2865C45.5761 21.3792 43.6735 21.8375 42.3262 22.0847C41.9952 22.0811 40.835 22.3186 40.2877 22.3637C39.9257 22.3875 39.3606 22.4608 39.0198 22.4334C37.3574 23.0302 35.5501 23.2024 33.7323 23.582C31.797 23.9864 29.8493 24.6256 28.0456 26.2616C24.7322 29.2678 21.0602 32.2193 18.0337 35.6307C17.9454 35.9362 16.1514 37.7073 15.8848 38.0693C13.9371 39.6814 11.6143 42.5834 10.8506 46.9987C11.7379 49.53 13.5063 48.9843 14.82 48.6453C15.6164 48.4396 16.4339 48.0308 17.0043 48.783C17.9481 50.0305 18.5696 49.6385 20.4131 49.5732C20.934 49.5547 21.5652 50.1038 22.3881 50.2813C22.8516 50.3802 23.5862 50.5188 23.9579 50.0773C25.8887 47.7836 25.7236 50.645 27.5856 49.929C29.4653 49.4364 30.2775 48.286 31.8994 47.4614C33.4462 47.2592 34.5622 47.962 35.3479 47.5435C36.3685 47.0014 37.2664 46.054 38.8415 42.24C39.3977 41.2918 41.4469 40.4778 42.7792 40.31C45.6265 39.9524 45.9072 39.6637 47.6756 39.4271L47.673 39.4307Z" fill="#102B30"/>
<path fill-rule="evenodd" clip-rule="evenodd" d="M23.994 44.4931C24.522 43.906 24.6147 42.9807 25.0305 42.2285C26.3098 40.0699 28.6459 38.1487 30.1583 36.4695L27.4408 37.8644C24.7568 39.6426 23.1632 42.1314 22.9681 42.5296C22.3624 43.4496 22.9725 44.4039 23.9949 44.4931H23.994Z" fill="#77A5A1"/>
<path fill-rule="evenodd" clip-rule="evenodd" d="M37.4183 39.7935C36.7288 40.1025 35.6331 40.9942 34.9798 41.4886C34.3282 41.9812 32.8247 42.9418 33.1213 43.8644C33.3164 44.4719 34.013 44.3403 34.3882 43.9315C34.7449 43.5422 35.1131 42.8659 35.4 42.4041C36.1302 41.229 37.1508 40.3285 37.3071 40.091C37.6249 39.6072 37.4121 39.9541 37.4192 39.7943L37.4183 39.7935Z" fill="#77A5A1"/>
<path fill-rule="evenodd" clip-rule="evenodd" d="M18.9353 44.5073C17.3107 44.6371 17.4979 43.7286 17.5827 43.0859C17.8625 40.6589 24.9256 34.1935 28.2682 34.0178C28.3936 33.9666 28.4457 34.0646 28.6752 33.9763L28.4051 34.2324C28.3009 34.3286 28.3344 34.3118 28.1861 34.3922C28.0696 34.4566 28.089 34.431 27.9733 34.4734C24.0939 35.9222 20.181 43.8284 18.9335 44.5073H18.9353Z" fill="#77A5A1"/>
<path fill-rule="evenodd" clip-rule="evenodd" d="M29.4124 44.9187C29.9403 44.3316 30.033 43.4064 30.4489 42.6541C31.413 40.9131 33.3765 39.4837 34.6055 38.1797L33.4569 38.9054C32.6826 39.4687 28.6213 42.5976 28.3856 42.9552C27.7799 43.8752 28.39 44.8296 29.4124 44.9187Z" fill="#77A5A1"/>
</g>
</g>
<defs>
<clipPath id="clip0_323_1599">
<rect width="75" height="75" fill="white"/>
</clipPath>
</defs>
</svg>
