<svg width="110" height="65" viewBox="0 0 110 65" fill="none" xmlns="http://www.w3.org/2000/svg">
<g clip-path="url(#clip0_323_1632)">
<path fill-rule="evenodd" clip-rule="evenodd" d="M68.5995 0.480989C78.3214 5.00629 85.5328 5.13474 99.9493 15.6694C100.233 15.8765 109.258 23.3065 109.921 27.4262C111.86 39.4791 77.3262 43.7795 67.7349 47.8291C59.1173 51.4678 35.6142 53.3002 20.6045 53.1491C16.8765 53.1115 14.1187 49.9709 11.8456 47.6932C9.7742 45.6175 7.78759 46.6078 4.81912 43.2609C3.5753 41.8589 4.94491 37.7006 1.59427 35.4359C1.36875 35.2837 4.27845 31.5467 4.60344 26.9657C4.7138 25.4089 1.08632 23.9768 0.271732 22.2715C-0.676094 20.288 1.15866 18.0188 1.17568 16.0838C1.22089 10.8928 14.0822 8.95223 6.89747 5.06465C2.05489 2.44397 6.5576 2.79467 13.5333 3.62559C15.4885 3.85824 32.6542 6.6556 29.29 2.36935C32.2625 2.22971 47.5029 5.09156 48.6196 4.58123C51.9979 3.03744 46.0799 0.099373 45.9153 0.00690032C48.7571 -0.244401 62.553 6.24734 61.2254 1.59279C60.9744 0.712571 72.3459 9.87589 68.5995 0.480723V0.480989Z" fill="#DDF4FB"/>
<path opacity="0.3" d="M59.8612 64.9999C84.9544 64.9999 105.297 63.0321 105.297 60.6047C105.297 58.1774 84.9544 56.2102 59.8612 56.2102C34.7672 56.2102 14.4248 58.1774 14.4248 60.6047C14.4248 63.0321 34.7669 64.9999 59.8612 64.9999Z" fill="#EAE8E5"/>
<path fill-rule="evenodd" clip-rule="evenodd" d="M33.0366 9.07166L84.5139 14.0068L84.5628 13.4901L33.0856 8.55493L33.0366 9.07166Z" fill="white"/>
<path fill-rule="evenodd" clip-rule="evenodd" d="M22.7866 26.9334H36.0206V26.3909H22.7866V26.9334Z" fill="#CCCCCC"/>
<path fill-rule="evenodd" clip-rule="evenodd" d="M12.6792 21.8133H41.7129V21.2942H12.6792V21.8133Z" fill="white"/>
<path fill-rule="evenodd" clip-rule="evenodd" d="M15.2417 37.4302H46.7083V36.9121H15.2417V37.4302Z" fill="white"/>
<path fill-rule="evenodd" clip-rule="evenodd" d="M32.1885 52.1246L65.3087 46.2274V45.6851L32.1885 51.582V52.1246Z" fill="white"/>
<path fill-rule="evenodd" clip-rule="evenodd" d="M34.6607 45.2866L75.7568 40.9207L75.7001 40.4285L34.604 44.7944L34.6607 45.2866Z" fill="white"/>
<path fill-rule="evenodd" clip-rule="evenodd" d="M82.3936 17.061L35.6132 18.6773L36.6341 14.9938L22.4481 16.6903L23.3858 13.4516L4.28516 14.5453L26.3075 11.0447L25.3512 13.926L40.7914 12.3068L39.2731 15.8834L82.3936 17.061Z" fill="#56B7D1"/>
<path fill-rule="evenodd" clip-rule="evenodd" d="M63.1702 39.1116L24.7064 40.8571L25.8377 43.6369L10.7422 44.0795L30.5684 45.7003L29.0495 43.049L63.1702 39.1116Z" fill="#56B7D1"/>
<path fill-rule="evenodd" clip-rule="evenodd" d="M102.472 29.682L102.457 29.6911C102.417 29.7372 102.484 29.693 102.371 29.7644C102.327 29.7924 102.312 29.794 102.261 29.8241C102.091 29.9235 102.152 29.9139 101.975 29.9179C101.864 30.0215 101.663 30.0842 101.521 30.1079C101.374 30.1838 100.496 30.5383 100.331 30.5207C100.321 30.5281 100.309 30.5263 100.3 30.5415L99.9962 30.6539C99.6954 30.7325 99.1526 30.8887 98.8686 30.8948C98.4543 31.3012 86.4243 29.6668 79.3283 33.5941C78.2188 34.2081 77.0029 34.6742 75.6783 35.018C74.8158 35.7485 73.6996 36.99 72.384 37.1646C71.8824 37.2309 71.362 37.4889 70.7524 37.5555C67.5712 37.902 62.9778 37.7938 58.7456 37.0388C57.8172 36.8733 54.933 35.9291 56.3648 35.2008C53.2416 34.6534 49.4843 35.2232 46.2954 34.1151C42.4461 32.7776 38.5152 32.3064 34.3382 32.0541C31.0959 32.5537 28.2436 33.5819 24.5483 33.7559C24.1036 33.8422 22.783 33.8601 22.2375 33.8937L22.2037 33.8963L22.2021 33.8969L21.9827 33.9347C21.108 34.1815 19.7632 34.0789 18.7249 34.2822C17.7651 34.3584 14.0347 35.1536 13.4991 35.2864C12.8906 35.4372 12.2784 35.1917 11.9901 34.9127C11.9409 34.8656 11.9117 34.8077 11.8978 34.7446C11.7226 34.6129 11.6923 34.4845 11.7471 34.3363C11.7529 34.2787 11.7702 34.2265 11.7984 34.1847C12.0537 33.8031 11.1702 33.7138 11.5399 33.3492C11.7388 33.1528 11.6088 33.1272 11.6878 33.0153L11.688 33.0095C11.6681 32.9793 11.2875 32.9554 11.1822 32.9164C11.1593 32.9095 11.1548 32.8997 11.1535 32.8767C10.9782 32.8114 10.8833 32.6875 11.0093 32.5705L11.058 32.5316C11.5128 32.2822 11.2894 32.2715 10.8795 32.0407C10.5163 31.8358 11.3936 31.7255 11.0862 31.5083C11.0335 31.3711 10.7944 31.3631 10.6679 31.2956C10.4423 31.1755 10.6591 31.217 10.2344 31.112C10.0993 31.0465 9.78093 30.974 9.6211 30.926C9.44664 30.8738 9.18973 30.7856 9.02618 30.7592C8.62247 30.6646 8.23712 30.4876 8.23154 30.3043C8.22436 30.078 8.21983 29.9632 8.75678 29.7772C8.87698 29.783 9.75354 29.6383 9.95831 29.6127C10.1886 29.5842 10.3434 29.5784 10.5583 29.557L11.1652 29.4992C11.2817 29.5245 14.4296 29.5962 14.9706 29.6119C16.7742 29.666 20.8995 29.6746 22.5455 29.5451L23.03 29.1355C21.803 29.4342 20.7658 29.605 20.2879 29.5104C20.2458 29.3049 16.5577 29.0017 15.0724 28.9364C14.7086 28.9199 12.6092 28.809 12.5135 28.8226L12.1657 28.7456C12.0433 28.7176 11.9476 28.7048 11.821 28.6702C11.7085 28.6395 11.2553 28.4802 11.1726 28.4783C10.9729 28.3045 11.0676 28.2153 11.2529 28.0391C11.4035 27.8965 11.7944 27.7787 12.1319 27.7263C12.2611 27.7257 12.5026 27.6924 12.66 27.6748C12.8045 27.6588 13.0736 27.6426 13.2161 27.6122C13.5818 27.585 13.4052 27.5909 13.6518 27.5325C13.7906 27.5 13.9541 27.5181 14.1012 27.432C14.4815 27.3169 13.9983 27.1733 14.4049 27.0723C14.8642 26.958 15.0171 26.9628 14.927 26.773L14.9275 26.744C14.9413 26.6584 15.1051 26.5825 15.274 26.5564C15.2934 26.5414 15.3046 26.5353 15.3256 26.5329C15.4267 26.5174 15.6971 26.5412 15.7346 26.523L15.7394 26.519C15.7796 26.4394 15.8854 26.4311 15.9171 26.288C15.9761 26.0223 16.6266 26.0322 16.7734 25.7619C16.7894 25.7324 16.821 25.6964 16.8646 25.6583C16.9505 25.5565 17.0758 25.4733 17.2989 25.4024C17.3595 25.3619 17.4263 25.3262 17.4976 25.2993C17.9156 25.1413 18.4999 25.0435 18.798 25.2095C19.0188 25.3321 20.7878 25.9645 21.3407 26.0282C21.8428 26.1939 22.7843 26.1164 23.1468 26.3146L23.2571 26.3456L23.2577 26.3458L23.2771 26.3482C23.5991 26.3762 24.4286 26.3933 24.6443 26.4633C25.3943 26.6051 25.6408 26.6752 25.9328 26.6805L25.9445 26.6704L26.0402 26.6795C26.3317 26.6699 26.7205 26.6038 27.6593 26.4863C27.9588 26.4796 28.1931 26.4956 28.4667 26.5031C28.8093 26.4767 29.3888 26.457 29.7866 26.5462C30.5682 26.4527 31.3262 26.4498 31.8131 26.4359C38.7801 25.5658 47.4049 21.3848 58.561 20.0665C63.1523 19.5242 82.6888 18.4486 92.8761 20.4236C94.5148 20.4486 96.1214 20.8697 97.6953 21.5324C99.6337 22.3492 99.9643 23.0235 101.368 24.3855C102.041 25.0376 102.844 25.1783 103.794 25.5389C103.995 25.5074 104.245 25.6404 104.409 25.7787C104.571 25.916 104.685 26.0631 104.708 26.2653C104.847 26.4106 104.824 26.519 104.824 26.627C104.825 26.7072 104.825 26.777 104.824 26.8396C104.833 26.8228 104.843 26.8053 104.854 26.7869C104.872 27.3878 104.791 27.673 104.465 28.1737L104.423 28.2901L104.402 28.2688C104.371 28.3144 104.339 28.3621 104.304 28.4117C104.197 28.5457 103.922 28.7626 103.696 28.922C103.643 28.974 103.586 29.0022 103.513 29.0446C103.491 29.0584 103.471 29.071 103.452 29.0816L103.421 29.0947L103.41 29.0984L103.4 29.1021C103.3 29.14 103.236 29.1709 103.179 29.2154C103.117 29.2839 103.067 29.3212 102.994 29.4083L102.926 29.4795C102.856 29.5272 102.77 29.56 102.627 29.6127L102.623 29.6143L102.623 29.6146L102.62 29.6159L102.616 29.6173L102.47 29.6815L102.472 29.682Z" fill="#8DBAB1"/>
<path fill-rule="evenodd" clip-rule="evenodd" d="M59.8106 34.5565C58.1984 34.7444 58.9223 34.6285 57.9261 34.6336C55.8863 34.6439 53.35 34.689 48.9771 34.127C51.2051 34.7958 55.8629 34.8062 56.4512 35.2204C57.1753 35.1636 57.9242 35.0495 58.7 34.8635C59.0646 34.7761 59.4784 34.5954 59.8106 34.5565Z" fill="#3B6B74"/>
<path fill-rule="evenodd" clip-rule="evenodd" d="M75.5083 35.1292C79.335 33.8786 81.792 32.5019 82.9473 32.1328C81.95 32.2413 77.417 34.1621 76.1732 34.4063L75.5083 35.1292Z" fill="#3B6B74"/>
<path fill-rule="evenodd" clip-rule="evenodd" d="M75.6013 35.2291C75.3409 35.4982 75.0071 36.0182 74.0383 36.7265C72.7825 37.4479 71.8017 37.478 71.6182 37.5883L71.2238 37.656C70.2143 37.7418 69.8457 37.8652 68.675 37.8596C68.5407 37.8591 68.4152 37.8516 68.2931 37.8961C68.1615 37.8657 68.1389 37.8679 67.9963 37.8668C67.9429 37.8663 67.8814 37.8665 67.8288 37.8735C67.6617 37.8951 67.7607 37.8801 67.6734 37.9108C67.4689 37.8631 66.6083 37.8847 66.2802 37.8748C64.826 37.8319 63.3175 37.8026 61.882 37.6352C60.4403 37.4671 58.7712 37.2597 57.4657 36.8435C57.137 36.7388 56.5695 36.4539 56.3168 36.4091C56.2679 36.3054 56.2477 36.3206 56.1437 36.2529C56.0666 36.2028 56.04 36.1844 55.9796 36.1306C55.8331 36.0003 55.87 35.9249 55.7251 35.8159C55.7918 35.6597 55.777 35.5771 55.8894 35.3591C55.9924 35.3266 55.8969 35.3586 56.0073 35.317C56.7107 35.0511 56.9593 35.155 57.2732 35.0583C57.4492 35.1054 58.2005 35.1243 58.4412 35.0998C58.8577 35.0572 58.8311 34.7899 59.4246 34.7731C59.9544 34.7584 61.1809 34.796 61.7322 34.6185C59.5539 34.687 61.2397 34.3393 62.3333 34.0104C63.225 33.7423 63.976 33.3636 64.2143 33.1331C64.9433 32.5599 65.6728 31.9869 66.4017 31.4137L67.6245 30.5276C68.0756 30.2249 68.4657 29.976 68.9125 29.7095C69.3893 29.4249 69.8358 29.2253 70.2824 29.0355C70.539 28.9265 71.4265 28.6283 71.7679 28.5993C71.4948 28.6979 71.1637 28.7794 70.9491 28.9348C69.8066 29.4742 68.8151 29.9648 67.6873 30.926C67.5854 31.0222 67.4418 31.099 67.3626 31.2344C67.0804 31.5142 66.2892 32.1074 65.9467 32.3805C67.0224 31.8377 66.9466 32.5303 69.3236 30.5652C69.6635 30.4663 70.0079 30.3347 70.3281 30.2865C70.1794 30.4088 70.1715 30.397 69.9776 30.4719C68.7463 30.9484 69.1255 31.4494 68.0952 32.0733C67.6455 32.3454 66.3568 32.7225 65.7507 32.877L65.418 32.9913C65.0066 33.1472 64.613 33.4257 64.2005 33.7535C63.188 34.2356 62.8702 34.2212 62.6862 34.3038C62.5022 34.5546 62.125 34.61 61.8958 34.8451C62.1641 34.8853 62.9266 34.933 63.15 34.8376C63.4593 34.8928 63.8002 34.7563 64.0659 34.7872C64.1867 34.8123 64.33 34.7971 64.3449 34.8168C64.3752 34.8571 64.3558 34.8173 64.2906 34.8658C64.2901 34.8664 64.2484 34.8818 64.1819 34.9431L64.0909 34.9447C63.6643 35.1315 63.8082 35.0702 63.5127 35.1203C63.5026 35.1219 63.4707 35.1374 63.4694 35.1283C63.4681 35.1193 63.4399 35.1337 63.425 35.1366L62.5189 35.1289L62.3125 35.1148L61.5676 35.0673C61.1384 35.0332 60.7443 35.0156 60.3153 34.994C60.1049 34.9836 59.906 34.9756 59.7105 34.9682C59.4552 34.9586 59.3236 34.9133 59.1619 35.0265C59.3435 35.1539 61.3793 35.3064 61.7926 35.3357C61.9806 35.3653 62.2434 35.4007 62.4131 35.3698L62.8013 35.4313C62.9322 35.4119 63.3 35.4495 63.3484 35.4217C63.5311 35.4636 63.8441 35.4407 63.9452 35.5089L62.9572 35.5435L62.1455 35.5654C60.802 35.5318 59.1374 35.2256 57.8691 35.2776C57.921 35.3485 57.8503 35.2941 57.9566 35.3447L58.8335 35.4913C59.5558 35.5803 61.2948 35.729 61.7381 35.8204C61.9213 35.8577 62.1713 35.8822 62.2851 35.9502C62.2064 35.9537 62.1046 35.9518 62.003 35.9537C61.9458 35.9547 61.8886 35.9561 61.8304 35.9638C61.708 35.98 61.7932 35.9601 61.7081 35.992L61.6474 35.971C60.5094 35.9379 58.6058 35.6624 57.4849 35.4503C56.9894 35.3567 56.5336 35.2152 56.1482 35.3996C55.4956 36.52 61.0075 37.3546 62.4152 37.3773L62.8556 37.4031C63.5327 37.5404 65.293 37.5873 66.0374 37.5987C67.0628 37.6139 68.0474 37.627 69.0489 37.5841C70.7616 37.5108 72.8349 37.3962 74.2925 36.2092C76.0294 34.7955 78.5671 31.3759 78.6373 30.5969C78.9224 30.2411 79.292 29.8473 79.5146 29.4838C79.9314 28.8026 79.3907 28.0229 79.0213 27.7097L78.9309 27.6002C78.8378 27.516 78.7527 27.4464 78.6048 27.4254C78.4883 27.2269 78.1022 27.2007 77.9594 27.0225C78.7343 27.1469 79.4309 27.6828 79.6729 28.0319C80.3699 29.0382 79.8072 29.4158 79.8907 29.653L79.65 30.1063C79.6242 30.1676 79.6362 30.1204 79.6221 30.1788C79.6205 30.1852 79.6197 30.2134 79.6245 30.2086C79.629 30.2038 79.6324 30.2257 79.6431 30.2422L79.78 30.1561C80.7991 29.6112 81.2332 28.6283 81.1201 27.8294C81.1015 27.6983 81.0627 27.6636 81.0919 27.5522C81.1515 27.4502 81.1661 27.4603 81.1345 27.3518C81.1329 27.3462 81.1316 27.3412 81.13 27.3364C81.106 27.2508 81.1289 27.2993 81.0643 27.2905C81.1459 27.3465 81.0576 27.3252 81.13 27.3364C81.1497 27.3396 81.1813 27.3452 81.2313 27.355C81.4377 27.5309 81.4571 28.186 81.3776 28.5713C81.3252 28.825 81.1999 29.1126 81.0502 29.3812C80.8925 29.6634 80.6446 29.9022 80.5287 30.1143C80.4662 30.1399 80.4845 30.1274 80.4093 30.1737C80.4042 30.1769 80.4 30.1796 80.3962 30.1815C80.3388 30.2134 80.4425 30.1215 80.3962 30.1815C80.3888 30.1913 80.3771 30.2052 80.3603 30.2244C80.2111 30.2822 79.8944 30.5114 79.737 30.6073C78.9468 31.1829 78.878 30.7022 78.416 31.6658C77.369 33.2858 75.8895 34.7803 75.6005 35.2291H75.6013Z" fill="#1A1214"/>
<path fill-rule="evenodd" clip-rule="evenodd" d="M68.9963 33.9309L68.3695 34.0642C68.3307 34.0759 68.29 34.0914 68.2522 34.1074C68.2419 34.1119 68.2126 34.1375 68.2115 34.1297C68.2105 34.1217 68.1844 34.1463 68.1706 34.1543C68.3916 34.1732 68.7235 34.1575 68.9325 34.0607C69.2615 34.0418 69.8077 33.9555 70.1503 33.8942C70.5316 33.8257 71.0327 33.6628 71.3574 33.6239C70.917 33.9658 69.7543 34.3235 69.0775 34.3962L68.0464 34.5876C68.0445 34.5785 68.0153 34.6052 67.9993 34.6137C68.2456 34.6201 68.5863 34.6204 68.7926 34.5111C69.165 34.5148 69.9436 34.3411 70.4029 34.3211C70.6614 34.3312 70.9524 34.3139 71.2021 34.2102L71.5364 34.1756C70.9042 34.5351 69.1306 34.8157 68.1685 34.9617C67.5416 35.0566 64.9965 35.2551 64.4678 35.026C64.4389 35.0329 64.466 35.0518 64.3194 35.0595C64.3 35.0606 64.2341 35.0633 64.2168 35.0598C64.0378 35.0233 64.1109 35.0758 64.0918 34.9449L64.1827 34.9433L64.4713 34.9178L65.8872 34.5596C66.2098 34.5329 67.0754 34.2843 67.4334 34.1969C67.9241 34.0772 68.4786 33.8878 68.8857 33.7353C70.5386 33.1165 70.9146 32.5489 71.4297 32.2131C70.9072 33.3252 69.6734 33.6247 68.9963 33.9312V33.9309Z" fill="#3B6B74"/>
<path fill-rule="evenodd" clip-rule="evenodd" d="M72.1005 35.8481C71.9295 35.9302 70.3006 36.0522 70.081 36.0671C68.6332 36.1655 64.9501 36.2982 63.7267 36.1391L62.8656 36.0565L62.7082 36.0232C62.6382 35.9112 62.5744 35.9472 62.5752 35.7871C63.2111 35.7689 64.0629 35.8913 64.7227 35.9152C65.0594 35.9278 65.3902 35.9315 65.7171 35.924C65.9083 35.9198 66.542 35.9089 66.696 35.9288C67.0322 35.9669 67.9409 35.8974 68.2693 35.8425C68.5012 35.8039 68.3808 35.8153 68.477 35.7641C68.6723 35.7623 69.1209 35.6717 69.3696 35.6317C72.117 35.1891 71.3695 35.8294 72.1005 35.8478V35.8481Z" fill="#3B6B74"/>
<path fill-rule="evenodd" clip-rule="evenodd" d="M96.0159 24.1973C97.173 23.9575 96.2361 25.9037 99.4378 25.372C95.7372 26.7482 95.3263 25.0112 96.0159 24.1973Z" fill="#3B6B74"/>
<path fill-rule="evenodd" clip-rule="evenodd" d="M98.5865 30.3863C99.0841 30.2049 99.3564 29.3566 100.814 29.1829C101.252 29.1919 101.523 29.1823 101.956 29.201C102.018 29.2753 103.067 29.3212 102.449 29.6964L102.461 29.6863C102.413 29.7396 102.487 29.6908 102.371 29.7641C102.327 29.7921 102.312 29.7937 102.261 29.8238C101.747 30.0415 101.549 29.213 98.5859 30.3861L98.5865 30.3863Z" fill="#3B6B74"/>
<path fill-rule="evenodd" clip-rule="evenodd" d="M102.897 29.1344C102.643 29.104 101.201 29.4472 100.51 29.0731C100.624 28.9281 100.7 28.9374 100.851 28.7781C101.765 28.938 102.172 28.8159 103.072 28.8319C103.206 28.8324 103.359 28.9031 103.425 29.0291L103.422 29.0955C103.205 29.1754 103.154 29.2199 102.996 29.4091C102.966 29.3028 102.981 29.3009 102.997 29.1887L102.897 29.1344Z" fill="#1C313E"/>
<path fill-rule="evenodd" clip-rule="evenodd" d="M104.285 27.7803C104.228 27.9575 104.48 27.561 104.571 27.3926C104.729 27.1389 104.697 27.0512 104.856 26.7874C104.876 27.477 104.767 27.7507 104.306 28.4122C104.153 28.6022 103.665 28.9595 103.454 29.0821L103.422 29.0952L103.424 29.0288C103.371 28.9265 103.342 28.9118 103.22 28.8657C103.172 28.8479 103.122 28.8319 103.072 28.8319C102.928 28.8308 103.045 28.8359 102.969 28.8631C102.764 28.8015 102.491 28.943 102.298 28.8521C102.124 28.9486 102.057 28.8772 101.864 28.9148L99.6016 28.8503C99.914 28.6445 99.8465 28.7357 100.02 28.6171C101.439 28.7591 103.012 28.6331 104.285 27.7803Z" fill="#3B6B74"/>
<path fill-rule="evenodd" clip-rule="evenodd" d="M92.6217 22.7715C92.8946 22.9357 92.9696 22.8659 92.6675 22.9298C92.2319 23.0932 91.229 23.22 90.9306 23.4945L91.4191 23.6829L91.4011 23.736C91.0814 23.6038 90.5748 23.5894 90.382 23.8724C90.2974 22.7308 91.9938 22.565 92.6217 22.7713V22.7715Z" fill="#799E96"/>
<path fill-rule="evenodd" clip-rule="evenodd" d="M92.6671 22.9299C92.7075 22.9312 92.7264 22.9251 92.7565 22.9395C92.8559 22.9861 92.7974 22.9278 92.8285 23.0109L92.7498 23.3011L92.1012 23.5111C91.9967 23.5481 92.06 23.5396 91.9288 23.5767C91.8081 23.6108 91.9198 23.5916 91.7735 23.5998C91.44 23.6185 91.5842 23.647 91.4182 23.6833L90.9297 23.4948C91.2281 23.2204 92.231 23.0935 92.6666 22.9302L92.6671 22.9299Z" fill="#272324"/>
<path fill-rule="evenodd" clip-rule="evenodd" d="M95.1883 29.9053C94.8303 29.9487 93.6296 30.8463 93.3881 31.1256L93.3929 31.1202C93.1963 31.3206 92.8897 31.8872 92.6001 31.9008L92.6637 31.7329C92.8546 31.6508 93.2378 31.0965 93.536 30.8423L93.5894 30.862C93.7867 30.4799 95.7404 29.4118 96.1177 29.2154C97.2943 28.603 98.0073 28.2603 99.3141 27.8597C100.032 27.5418 100.794 26.5992 101.488 26.8476C101.353 26.8396 101.285 26.8918 101.171 27.0128C100.875 27.1679 100.77 27.2052 100.561 27.3987C99.6226 28.264 96.6167 29.121 95.188 29.9045L95.1883 29.9053ZM101.586 26.9105C101.608 26.6794 101.765 26.8076 101.848 26.9294C101.355 27.5863 98.2732 29.2905 98.245 29.3457C98.0639 29.3638 97.5757 29.6719 97.2879 29.8238C97.1632 29.8896 97.24 29.8334 97.1435 29.9325C96.2204 30.292 95.326 30.6813 94.4125 31.0672C94.3271 30.9958 94.3072 31.1064 94.3439 30.9929C94.4258 31.0232 95.0718 30.701 95.2234 30.6398C95.3364 30.5939 95.3529 30.5625 95.4744 30.5188C95.846 30.3847 96.2108 30.2315 96.573 30.0628L98.9333 28.7871C98.9362 28.7357 100.084 28.0902 100.264 27.9647C100.591 27.7366 101.03 27.4453 101.252 27.1964C101.336 27.1018 101.456 27.0005 101.586 26.9102L101.586 26.9105Z" fill="#BFE6D8"/>
<path fill-rule="evenodd" clip-rule="evenodd" d="M96.8953 27.0701L96.8563 27.0802C95.5494 27.415 92.716 29.1522 92.6745 29.1597C95.2164 26.7916 100.288 25.8368 100.305 26.4193L100.361 26.4081L100.332 26.6248C99.6638 26.7317 97.7676 27.2471 96.4946 27.9064C95.7869 28.3645 94.4598 29.1831 94.313 29.2569C94.313 29.2569 94.3484 29.1783 94.4175 29.2375C94.4763 29.0787 95.3074 28.7746 95.4202 28.6174L96.9637 27.8829C97.8607 27.5645 99.3412 26.9971 99.9968 27.008C100.103 27.0096 100.173 27.036 100.197 27.0944C98.4447 27.7443 98.023 27.4206 95.3803 28.7991L94.3657 29.3286C92.8421 30.4218 93.4378 29.7132 91.6334 31.6458C90.8268 31.2714 95.9145 28.0356 96.4079 27.8331C97.3286 27.1661 99.033 26.777 99.4428 26.5355L97.7567 26.9025C97.5988 26.866 97.0927 27.0099 96.8953 27.0698V27.0701Z" fill="#BFE6D8"/>
<path fill-rule="evenodd" clip-rule="evenodd" d="M61.7934 35.3356C61.3798 35.3063 59.3443 35.1536 59.1626 35.0265C59.3243 34.9135 59.4557 34.9585 59.7113 34.9681C59.9068 34.9756 60.1057 34.9836 60.3161 34.994C60.745 35.0155 61.1392 35.0329 61.5684 35.0672L62.3133 35.1147L62.5197 35.1288C62.505 35.1384 62.4899 35.1392 62.4753 35.1562L62.3162 35.2434L63.3494 35.4222C63.301 35.4496 62.9332 35.4121 62.8024 35.4318L62.4141 35.3702C62.2444 35.4011 61.9817 35.3657 61.7936 35.3361L61.7934 35.3356ZM61.7386 35.8209C61.2955 35.7295 59.5562 35.5808 58.8339 35.4918L57.9571 35.3452C57.8505 35.2946 57.9212 35.3489 57.8696 35.278C59.1379 35.2261 60.8022 35.5323 62.146 35.5658C61.6793 35.6335 61.7107 35.6642 61.7389 35.8211L61.7386 35.8209Z" fill="#8DBAB1"/>
<path fill-rule="evenodd" clip-rule="evenodd" d="M101.886 31.958L101.871 31.9518C101.913 31.8157 102.534 30.921 102.693 30.6231C102.937 30.1661 103.273 29.5619 103.454 29.0825C103.593 28.9932 103.444 29.0108 103.689 28.9719C103.464 29.543 102.265 31.708 101.886 31.958ZM103.773 29.9987C103.608 30.4176 103.244 30.823 103.003 31.1532C102.716 31.546 102.431 31.8143 102.155 32.1429L102.134 32.0851C102.324 31.841 102.531 31.6177 102.733 31.3264C103.075 30.8326 103.167 30.6215 103.289 30.3931L103.28 30.4808L103.396 30.3542L103.239 30.7076C103.461 30.541 103.624 30.0648 103.809 29.8231L103.773 29.9982L103.773 29.9987ZM100.728 32.4931C100.784 32.382 101.123 32.0523 101.248 31.8988C101.424 31.6813 101.581 31.4559 101.759 31.2142C102.093 30.7609 102.418 30.1738 102.691 29.6565C102.735 29.6198 102.773 29.5617 102.824 29.4529L102.928 29.4804C102.644 30.0845 102.248 30.6831 101.902 31.2195C101.664 31.5883 100.943 32.366 100.728 32.4931H100.728Z" fill="#3B6B74"/>
<path fill-rule="evenodd" clip-rule="evenodd" d="M91.5219 23.8014L91.4009 23.7364L91.419 23.6833C91.5849 23.6474 91.4405 23.6186 91.7743 23.5999C91.9205 23.5917 91.8088 23.6109 91.9296 23.5767C92.0604 23.5397 91.9971 23.5482 92.1019 23.5112L92.7505 23.3012L92.8293 23.011C92.9564 23.1266 92.7442 23.4467 92.6686 23.5381C92.3748 23.6812 92.0008 23.8728 91.6652 23.9269L91.5224 23.8017L91.5219 23.8014Z" fill="#313C4F"/>
<path fill-rule="evenodd" clip-rule="evenodd" d="M103.985 25.9305C103.949 25.8874 103.882 25.8119 103.853 25.772C103.754 25.6345 103.758 25.7147 103.796 25.5393C103.997 25.5079 104.247 25.6411 104.41 25.7792C104.573 25.9164 104.687 26.0635 104.71 26.2655C104.848 26.4107 104.825 26.5192 104.825 26.6271L104.716 26.5208C104.52 26.8158 104.585 26.6269 104.283 26.2032C104.174 26.0502 104.211 26.0731 104.14 26.1179L103.985 25.9303V25.9305Z" fill="#3B6B74"/>
<path fill-rule="evenodd" clip-rule="evenodd" d="M104.129 27.5309C104.219 27.1087 104.355 26.6826 104.162 26.2629L104.14 26.1179C104.211 26.0731 104.174 26.0502 104.283 26.2032C104.585 26.6269 104.519 26.8159 104.715 26.5208L104.825 26.6272L104.856 26.7873C104.937 27.9492 104.135 28.2562 104.129 27.5309Z" fill="#282629"/>
<path fill-rule="evenodd" clip-rule="evenodd" d="M102.996 29.4088L102.928 29.4799C102.857 29.529 102.767 29.562 102.618 29.6174L102.461 29.6862C102.435 29.6156 102.424 29.5364 102.384 29.4743C102.168 29.1444 100.691 29.4511 100.986 29.1599C101.032 29.1503 101.099 29.1375 101.159 29.1401C101.238 29.129 101.283 29.1567 101.357 29.1529C101.664 29.113 102.42 29.0573 102.897 29.134C103.073 29.2302 103.037 29.2598 102.996 29.4085V29.4088Z" fill="#BFE6D8"/>
<path fill-rule="evenodd" clip-rule="evenodd" d="M81.2324 27.3553C80.9984 27.3081 81.1691 27.3619 81.0654 27.2905C81.1338 27.2998 81.1048 27.2455 81.1356 27.3518C81.1673 27.4603 81.1526 27.4501 81.0933 27.5522C80.9808 27.4427 80.9308 27.2796 80.8795 27.1405C80.8636 26.9307 80.4966 26.6589 80.4971 26.5998C80.4987 26.4812 80.3875 26.5888 80.5846 26.531C80.7141 26.6629 80.862 26.7479 80.9816 26.8942C81.1194 27.0629 81.2463 27.1578 81.2327 27.355L81.2324 27.3553Z" fill="#361B17"/>
<path fill-rule="evenodd" clip-rule="evenodd" d="M100.63 28.6929C100.519 28.747 99.9715 29.2699 99.8063 29.4052L99.3505 29.7634C99.0492 29.9984 98.5774 30.3225 98.2439 30.497C98.0684 30.589 97.9224 30.6119 97.7705 30.7345L98.4088 30.5117C98.7375 30.2926 99.047 30.1605 99.363 29.8631C99.756 29.5707 101.016 28.6678 101.304 28.3142C101.746 27.6938 100.631 28.6924 100.63 28.6934L100.63 28.6929Z" fill="#BFE6D8"/>
<path fill-rule="evenodd" clip-rule="evenodd" d="M100.812 28.2038L99.4148 29.2293C99.4095 29.2288 98.2069 30.0474 98.0255 30.1319L97.4348 30.4197C97.3431 30.4309 97.2362 30.4669 97.1482 30.5018C97.0117 30.5562 96.975 30.5551 96.8721 30.6028C96.8069 30.6452 96.9165 30.6753 96.6812 30.6433C96.7452 30.5884 96.6939 30.6087 96.7708 30.5777C96.8397 30.5506 96.8178 30.5655 96.8761 30.5562L98.0681 29.9984C98.1449 29.9478 98.2117 29.9155 98.297 29.859L99.5701 28.962C99.7903 28.8106 100.276 28.3661 100.271 28.3733C100.267 28.3803 100.693 28.0522 100.935 27.9517L101.144 27.8014L101.188 27.7684C101.518 27.6429 101.666 27.5587 101.907 27.2938C102.027 27.2109 102.085 27.1762 102.186 27.2743C102.16 27.3425 102.143 27.293 102.089 27.3785C101.907 27.5834 101.771 27.6743 101.617 27.75L101.481 27.8089C101.482 27.8097 100.88 28.1282 100.812 28.2038H100.812ZM102.397 27.1928L102.53 27.1794C102.592 27.3945 102.364 27.4582 102.041 27.9051C101.952 28.0282 101.783 28.2385 101.732 28.3373L101.329 28.8029C101.229 28.9649 101.162 28.9561 101.09 29.1035C100.841 29.1677 100.408 29.9526 99.4616 30.4301L99.4664 30.3779L99.7693 30.1551C99.8648 30.0778 99.9608 29.9797 100.062 29.8947C100.271 29.7191 100.462 29.5382 100.667 29.3452C100.806 29.1699 101.268 28.72 101.308 28.6028C101.334 28.5852 102.386 27.208 102.397 27.1925V27.1928Z" fill="#BFE6D8"/>
<path fill-rule="evenodd" clip-rule="evenodd" d="M104.424 28.2907C104.286 28.9428 104.067 29.4289 103.772 29.9984L103.809 29.8233C103.87 29.5805 103.996 29.3506 104.081 29.1182C104.172 28.8693 104.236 28.5959 104.302 28.3573L104.362 28.2273L104.425 28.291L104.424 28.2907Z" fill="#3B6B74"/>
<path fill-rule="evenodd" clip-rule="evenodd" d="M98.7327 22.7437C98.9766 22.8876 99.3577 23.2866 99.3457 23.5645C99.2425 23.6229 99.3021 23.6165 99.1494 23.5968L99.1135 23.5147C99.1082 23.5032 99.1023 23.4896 99.0968 23.4774L98.9813 23.278C99.0837 23.3854 99.1585 23.4528 99.2627 23.5413C99.2654 23.1904 99.1773 23.3295 98.9561 23.1163C98.7984 22.9638 98.7295 22.8802 98.5433 22.7288C98.5346 22.7139 98.4939 22.615 98.4883 22.6062L98.7327 22.7437Z" fill="#3B6B74"/>
<path fill-rule="evenodd" clip-rule="evenodd" d="M103.961 28.907L103.396 30.354L103.28 30.4806L103.289 30.3929L103.781 29.1444L103.993 28.7529L103.961 28.907Z" fill="#3B6B74"/>
<path fill-rule="evenodd" clip-rule="evenodd" d="M99.1492 23.5967L99.1468 23.6138L99.009 23.5448C98.9308 23.1533 98.7984 23.0432 98.5029 22.7442L98.5431 22.7285C98.729 22.8799 98.7979 22.9638 98.9558 23.116C99.1771 23.3292 99.2651 23.1901 99.2625 23.541C99.1582 23.4526 99.0835 23.3852 98.9811 23.2778L99.0965 23.4771C99.1024 23.4893 99.1082 23.5029 99.1133 23.5144L99.1492 23.5965V23.5967Z" fill="#19232E"/>
<path fill-rule="evenodd" clip-rule="evenodd" d="M100.903 26.7564C101.009 26.7753 101.041 26.6972 101.215 26.6935C101.337 26.6908 101.466 26.7319 101.584 26.7497C101.609 26.8369 101.595 26.8139 101.587 26.9104C101.438 27.0135 101.367 27.0381 101.171 27.0135C101.285 26.8923 101.353 26.8401 101.488 26.8483C101.184 26.7396 101.036 26.8377 101.001 26.8409C100.76 26.8635 100.928 26.883 100.902 26.7566L100.903 26.7564Z" fill="#3B6B74"/>
<path fill-rule="evenodd" clip-rule="evenodd" d="M99.1686 23.0186C99.28 23.1372 99.4079 23.2531 99.4454 23.4066C99.5023 23.6409 99.3664 23.7776 99.1468 23.6137L99.1492 23.5966C99.3018 23.6163 99.2422 23.6227 99.3454 23.5644C99.3574 23.2864 98.9763 22.8875 98.7324 22.7436C98.7683 22.7404 98.7478 22.7185 98.8173 22.7497C98.8316 22.7564 98.9048 22.8105 98.9271 22.8283C99.0032 22.8891 99.0811 22.953 99.1683 23.0186H99.1686Z" fill="#799E96"/>
<path fill-rule="evenodd" clip-rule="evenodd" d="M101.543 27.222C101.641 27.1533 101.77 26.9987 101.848 26.9297L101.989 26.9665C102.094 26.9755 102.087 27.0096 102.041 27.1189C101.985 27.2521 102.034 27.1719 101.869 27.2199C101.385 27.3611 101.52 27.3249 101.543 27.2223L101.543 27.222Z" fill="#3B6B74"/>
<path fill-rule="evenodd" clip-rule="evenodd" d="M101.887 31.9578C101.769 32.1691 101.493 32.4191 101.375 32.4865C101.276 32.6688 101.036 32.8031 100.862 32.9027L101.201 32.5672C101.393 32.4009 101.221 32.5139 101.375 32.4865L101.773 32.0007C101.83 31.9591 101.818 31.9735 101.871 31.9519L101.886 31.958L101.887 31.9578ZM100.728 32.4929C100.636 32.6424 100.389 32.8028 100.337 32.8364C100.287 32.8681 100.28 32.8678 100.248 32.8854L100.553 32.5723C100.741 32.4151 100.577 32.5166 100.728 32.4926V32.4929ZM102.156 32.1427C102.059 32.3135 101.913 32.4143 101.792 32.4633C101.879 32.3074 101.988 32.1528 102.134 32.0852L102.156 32.143V32.1427Z" fill="#799E96"/>
<path fill-rule="evenodd" clip-rule="evenodd" d="M102.811 26.9378L103.032 26.6753C103.047 26.6955 103.184 26.6481 103.021 26.8746C102.938 26.9887 102.933 26.9495 102.811 26.9381L102.811 26.9378Z" fill="#3B6B74"/>
<path fill-rule="evenodd" clip-rule="evenodd" d="M103.134 27.6349L103.043 27.5936C103.097 27.4433 103.145 27.2909 103.271 27.3178L103.261 27.3794L103.134 27.6349Z" fill="#3B6B74"/>
<path fill-rule="evenodd" clip-rule="evenodd" d="M101.941 26.5517C102.036 26.431 102.15 26.31 102.303 26.3446C102.218 26.4827 102.08 26.5184 101.941 26.5517Z" fill="#3B6B74"/>
<path fill-rule="evenodd" clip-rule="evenodd" d="M102.45 26.7028C102.549 26.5698 102.568 26.5112 102.752 26.4939C102.65 26.6642 102.627 26.633 102.489 26.7471C102.427 26.7838 102.523 26.8038 102.336 26.7945L102.45 26.7026V26.7028Z" fill="#3B6B74"/>
<path fill-rule="evenodd" clip-rule="evenodd" d="M102.524 27.308C102.655 27.3258 102.59 27.3442 102.713 27.2685L102.817 27.2659L102.726 27.4322C102.618 27.4111 102.719 27.4841 102.591 27.3946C102.5 27.3304 102.57 27.3885 102.524 27.308Z" fill="#3B6B74"/>
<path fill-rule="evenodd" clip-rule="evenodd" d="M102.39 27.1925L102.397 27.1927C102.295 27.3356 102.283 27.3673 102.089 27.3785C102.193 27.2322 102.243 27.1834 102.39 27.1925Z" fill="#3B6B74"/>
<path fill-rule="evenodd" clip-rule="evenodd" d="M101.609 26.0797C101.696 26.0072 101.643 26.0056 101.837 26.021C101.743 26.214 101.723 26.1761 101.609 26.0797Z" fill="#3B6B74"/>
<path fill-rule="evenodd" clip-rule="evenodd" d="M103.345 27.0081L103.333 27.0107C103.259 26.9918 103.272 27.0158 103.294 26.9377C103.36 26.858 103.338 26.8423 103.465 26.8607C103.417 26.9433 103.4 26.9641 103.345 27.0081H103.345Z" fill="#3B6B74"/>
<path fill-rule="evenodd" clip-rule="evenodd" d="M94.3144 29.2178L94.3125 29.2571L94.3144 29.2178Z" fill="#B4896E"/>
<path fill-rule="evenodd" clip-rule="evenodd" d="M99.3976 24.6942C99.2335 24.6908 98.954 24.9618 98.6793 25.0127C98.5748 24.9511 98.4415 25.0207 98.3136 24.9477C97.9341 24.917 98.0764 24.852 97.9575 24.804C97.9833 24.8072 98.0083 24.8099 98.0333 24.8118C98.7593 24.8701 99.1354 24.4571 99.3976 24.6942Z" fill="#799E96"/>
<path fill-rule="evenodd" clip-rule="evenodd" d="M97.4749 24.8499C97.1576 24.6735 97.0696 24.0233 96.3247 23.8037C96.8042 23.8074 97.0521 23.6281 97.2619 23.5265C97.6946 23.3176 97.9164 23.2488 98.6687 23.7192C98.899 23.9068 98.7044 23.7509 98.6695 23.8181C98.4539 23.7474 98.4589 23.5862 98.0196 23.4873C97.7443 23.4253 97.3922 23.5724 97.3587 23.8181C97.6438 23.595 98.1959 23.5084 98.552 23.8943C98.5781 23.9228 98.5898 23.9657 98.6062 24.0062C98.5797 24.1656 98.5041 24.2815 98.4134 24.3129C98.3329 24.37 98.16 24.3673 98.0728 24.3484C98.1935 24.4174 98.3347 24.391 98.4467 24.4398C98.2416 24.4758 97.9432 24.4062 97.8042 24.3289C97.5068 24.1605 97.6579 23.8945 97.3922 23.8754C97.4167 24.0896 97.4212 24.3265 97.4941 24.4097C97.5095 24.4241 97.5249 24.4385 97.5406 24.4526C97.5318 24.4635 97.4765 24.4459 97.5749 24.5941C97.8568 24.9997 98.0954 25.0178 98.5669 24.9976C98.5605 25.0037 98.5539 25.0098 98.5475 25.0157C98.1645 25.178 97.8018 25.1263 97.4747 24.8505L97.4749 24.8499Z" fill="#1C313E"/>
<path fill-rule="evenodd" clip-rule="evenodd" d="M98.4126 24.6746C98.5655 24.6559 99.0508 24.4499 99.1734 24.4918L98.754 24.1344C98.7008 24.225 98.7466 24.2749 98.683 24.3532C98.5426 24.5046 98.1825 24.431 98.0618 24.3676C98.1323 24.3388 98.312 24.3612 98.4325 24.3359C98.6248 24.2413 98.5149 24.1227 98.6064 24.006C98.3735 23.6798 98.1134 23.598 97.7961 23.6377C97.6216 23.6595 97.4565 23.7525 97.3589 23.8178C97.3924 23.5721 97.7445 23.425 98.0198 23.4871C98.4588 23.586 98.454 23.7472 98.6697 23.8178C98.7043 23.7507 98.737 23.8868 98.6689 23.719C99.0636 23.99 99.0787 24.3399 99.6388 24.6775C99.5646 24.698 99.3495 24.6437 99.1365 24.6226C99.0998 24.6189 98.8016 24.7127 98.6288 24.7601C98.5266 24.7884 98.4604 24.7012 98.4126 24.6746Z" fill="#3B6B74"/>
<path fill-rule="evenodd" clip-rule="evenodd" d="M97.5409 24.452L97.4943 24.4091C97.4167 24.3257 97.3539 24.0752 97.3683 23.8732C97.6964 23.8242 97.5148 24.1272 97.8132 24.3025C97.9499 24.3862 98.2446 24.4672 98.4469 24.4392C98.5315 24.4145 98.6302 24.4182 98.6831 24.3529C98.7464 24.2746 98.7007 24.2247 98.7541 24.1341L99.1735 24.4915C98.6783 24.5016 98.2515 24.9888 97.5411 24.452H97.5409Z" fill="#19232E"/>
<path fill-rule="evenodd" clip-rule="evenodd" d="M97.5409 24.4519C97.9366 24.7509 98.1893 24.7102 98.7813 24.6257C98.6674 24.8597 98.2284 24.8093 98.0254 24.812C97.955 24.813 98.1156 24.9111 98.3135 24.9473C98.4414 25.0204 98.5746 24.9511 98.6791 25.0124L98.5627 25.0454L98.5339 25.0374L98.5533 25.0188C98.0805 25.0249 97.8411 25.0014 97.5569 24.5817C97.4765 24.445 97.5311 24.461 97.5406 24.4517L97.5409 24.4519Z" fill="#3B6B74"/>
<path fill-rule="evenodd" clip-rule="evenodd" d="M98.2108 24.3785C98.0871 24.3627 97.96 24.3244 97.8938 24.2846C97.822 24.2415 97.9411 24.2695 97.9669 24.2769C98.1089 24.3185 98.2797 24.33 98.4177 24.2844C98.4837 24.2625 98.5451 24.1386 98.577 24.0038C98.5898 23.9494 98.6384 24.0088 98.6581 24.0957C98.6674 24.1367 98.6382 24.1823 98.6254 24.2146C98.6103 24.2527 98.5127 24.4174 98.2111 24.3787L98.2108 24.3785Z" fill="#FEFEFE"/>
<path fill-rule="evenodd" clip-rule="evenodd" d="M70.1138 32.3124C70.0375 32.3886 69.0646 32.7758 68.9327 32.8272C68.0644 33.1665 65.8113 33.9692 64.9877 34.132L64.4188 34.2615L64.3079 34.2759C64.2228 34.2327 64.196 34.2639 64.1372 34.1818C64.5279 34.0459 65.1058 33.9382 65.527 33.8189C65.7422 33.7581 65.9502 33.6939 66.1517 33.6248C66.2698 33.5846 66.6618 33.4527 66.7655 33.4322C66.9897 33.3847 67.532 33.1675 67.7168 33.074C67.8474 33.0079 67.7764 33.038 67.8176 32.9927C67.9389 32.9528 68.1857 32.8171 68.3264 32.747C69.8795 31.9729 69.6497 32.4488 70.1135 32.3121L70.1138 32.3124Z" fill="#3B6B74"/>
<path fill-rule="evenodd" clip-rule="evenodd" d="M25.2379 26.8716C24.9201 26.627 24.0731 26.6504 23.4899 26.591C22.9726 26.5382 22.9466 26.4564 22.6357 26.433C22.4227 26.4167 21.9525 26.3434 21.8088 26.2467C21.7144 26.243 21.7089 26.2211 21.6386 26.1995C21.5993 26.1873 21.5501 26.1806 21.5094 26.1649C21.2895 26.0791 21.2078 26.0959 20.9296 25.9911C20.0778 25.8003 19.2236 25.29 18.4994 25.1282C18.2686 25.0768 17.5737 25.221 17.3881 25.3598C16.9538 25.6847 17.0958 25.5202 16.8836 25.7763C16.6817 26.0199 16.1881 26.0908 16.1551 26.1918C16.1429 26.2291 16.1144 26.3581 16.1168 26.3709C16.0639 26.4905 16.1674 26.4412 15.9075 26.5572C15.844 26.5857 15.8323 26.6041 15.7589 26.5971C15.6868 26.5902 15.6004 26.6153 15.6767 26.5486C15.6969 26.5143 15.8065 26.5212 15.8059 26.4777C15.8041 26.365 15.9605 26.4055 15.932 26.2741C15.8583 25.9344 16.633 25.8947 16.7333 25.629C16.779 25.5077 17.1163 25.3148 17.4232 25.1882C17.8465 25.0139 18.454 24.8953 18.7401 25.0507C18.9656 25.173 20.7379 25.8336 21.2927 25.9037C21.7966 26.0764 22.741 26.0079 23.1053 26.2123L23.216 26.2446L23.2165 26.2451L23.2359 26.2475C23.559 26.2792 24.3917 26.3053 24.6079 26.3786C26.1866 26.809 25.5861 26.7466 27.691 26.6635C27.9923 26.6576 28.2285 26.6744 28.5037 26.6827C28.9261 26.6518 29.7066 26.6312 30.0707 26.8087C29.9731 26.821 30.0236 26.8133 29.9811 26.8127C29.9811 26.8127 29.9162 26.809 29.9018 26.8082C29.8406 26.8047 29.8132 26.8045 29.7582 26.8023C29.5332 26.8191 29.38 26.8175 29.1572 26.8258C26.8839 26.9095 25.7797 27.1272 25.2377 26.8716H25.2379Z" fill="#3B6B74"/>
<path fill-rule="evenodd" clip-rule="evenodd" d="M21.8055 27.2437C21.7143 27.2136 21.4992 27.2027 21.4242 27.1661C21.25 27.1859 20.9808 27.0851 20.8356 27.0462C20.7359 27.0196 20.6593 27.0025 20.5569 26.9703C20.4575 26.9388 20.3809 26.9178 20.2931 26.9098C20.066 26.7837 17.8978 25.8473 17.7371 25.7279C18.7953 25.6365 19.6174 26.2963 19.9647 26.4346L20.6083 26.6947C20.9734 26.8645 21.522 26.8887 21.6986 26.9711L21.7486 26.9631C21.8678 26.9732 21.9359 26.9831 22.0454 26.9823C22.0755 27.0033 22.1571 27.0094 22.2215 27.0201L24.6075 27.3026C24.3288 27.3524 24.1929 27.3724 23.7411 27.3972C23.2613 27.3402 22.3555 27.2706 21.8055 27.2437ZM15.5277 27.9336L14.7708 27.7793L14.7437 27.7612C15.7824 27.8958 17.2183 28.1932 17.8807 28.3702C18.1658 28.3734 18.4025 28.3819 18.7068 28.3859C19.1514 28.4951 19.9671 28.5756 20.2389 28.6327C19.6849 28.756 19.7618 28.7139 19.3506 28.6478L17.7049 28.5258L15.5277 27.9336ZM16.5231 27.2682C16.5356 27.2602 16.4757 27.2368 16.7305 27.2469C16.8215 27.2506 16.8656 27.2557 16.9497 27.265C17.2959 27.3029 17.7217 27.4606 18.0836 27.5256C18.2092 27.5651 18.1866 27.5483 18.3227 27.6064L19.0754 27.8497C19.2421 27.9043 19.4078 27.9659 19.5684 28.0179C19.9027 28.0693 20.0381 28.1039 20.4452 28.1487C20.8253 28.1903 21.0457 28.1993 21.3604 28.2942L20.941 28.3262C20.7314 28.3267 18.9575 28.0365 18.4642 27.9757L16.5231 27.2682ZM21.7571 27.8926L21.371 27.8206C21.2069 27.7058 19.6147 27.5206 19.1094 27.3362L17.4502 26.7414C17.3007 26.6915 17.0212 26.6174 16.9148 26.5663C16.9409 26.5119 16.8898 26.5564 16.9986 26.5215C17.2151 26.4517 17.7228 26.5175 17.7861 26.5159C17.844 26.5487 17.9775 26.5623 18.0823 26.5841C18.4347 26.6577 18.7456 26.8623 18.9145 26.9223C19.3892 27.188 19.7588 27.3663 20.8686 27.5286C21.0497 27.5526 21.2952 27.6192 21.4707 27.6301C21.5095 27.6442 21.484 27.6381 21.5417 27.6506C21.7109 27.6874 21.7768 27.7101 21.8609 27.8897C21.8103 27.8883 21.8058 27.8921 21.7577 27.8926H21.7571Z" fill="#3B6B74"/>
<path fill-rule="evenodd" clip-rule="evenodd" d="M15.0735 28.9358C14.7097 28.9195 12.6101 28.8086 12.5143 28.822L12.1665 28.7449C12.0441 28.717 11.9484 28.7042 11.8218 28.6695C11.7093 28.6389 11.2562 28.4795 11.1734 28.4777C10.9737 28.3039 11.0684 28.2146 11.2538 28.0385C11.4043 27.8959 11.7952 27.7781 12.1327 27.7256C12.2529 27.7126 12.4816 27.6563 12.6303 27.6238C12.7675 27.6078 13.0218 27.5905 13.159 27.5604C13.5499 27.5425 13.363 27.5441 13.6342 27.4943C13.751 27.4586 13.8874 27.4714 14.0116 27.3837C14.3549 27.2523 13.9656 27.1412 14.3302 27.0215C14.752 26.9024 14.8788 26.9011 14.8541 26.7359C14.9722 26.4678 15.4278 26.4608 15.665 26.5008C15.6695 26.5184 15.6892 26.5472 15.6764 26.5485C15.3517 26.5821 15.2424 26.6327 15.1714 26.6778C14.9209 26.9448 15.0895 26.9469 14.9491 27.0453C14.819 27.1359 14.4297 27.1897 14.3648 27.275C14.3079 27.3493 14.4132 27.5716 13.7148 27.6393C13.4385 27.687 13.038 27.7432 12.6 27.7222C12.3596 27.7869 11.5032 27.8847 11.2665 28.1811C11.1508 28.3511 11.362 28.4406 11.5285 28.4798C14.2783 28.896 15.7293 28.677 18.0444 29.0221C18.2404 29.0871 18.5351 29.0653 18.7816 29.0615C19.3558 29.1306 20.289 29.3208 20.3009 29.3259C20.3557 29.3435 20.4326 29.3531 20.527 29.3557C20.6278 29.3696 20.7251 29.3736 20.8038 29.3736C21.2753 29.3736 21.6019 29.312 21.9556 29.312L22.6838 29.2825C21.9649 29.4591 21.1238 29.594 20.3544 29.5084C19.4776 29.4106 18.8768 29.2388 17.3559 29.1745C16.878 29.1468 15.9448 28.9763 15.0738 28.935L15.0735 28.9358Z" fill="#1C2635"/>
<path fill-rule="evenodd" clip-rule="evenodd" d="M42.8821 33.1451C31.8762 30.0924 31.2395 33.2263 22.7878 33.6719C21.9434 33.7047 21.7836 33.8009 21.2882 33.811C20.9486 33.818 20.1446 33.8774 19.7872 33.9858C19.6422 33.9848 19.6007 34.0109 19.4651 34.0325C19.3891 34.0447 19.3061 34.0498 19.2218 34.0663C18.7689 34.1567 18.6729 34.1314 18.1051 34.2411C16.5602 34.42 14.5252 34.9977 13.2226 35.1352C12.8279 35.1768 12.1078 34.8935 12.0665 34.6982C11.9697 34.2411 11.9115 34.4629 12.0149 34.1186C12.1133 33.7913 11.5437 33.641 11.6554 33.511C11.6963 33.463 11.8583 33.2986 11.8817 33.2828C11.9942 33.1275 12.0604 33.2016 11.8828 33.0246C11.8394 32.9814 11.8514 32.9575 11.7416 32.9553C11.6341 32.9532 11.5466 32.9159 11.5671 32.9964C11.5495 33.0369 11.7197 33.0363 11.6599 33.0848C11.5041 33.2109 11.7849 33.1789 11.5658 33.3231C10.9998 33.6967 11.9397 33.9008 11.6631 34.2537C11.5365 34.4152 11.7019 34.7043 11.9269 34.9079C12.2373 35.1885 12.891 35.4372 13.4992 35.2866C14.0348 35.1541 17.7652 34.3589 18.725 34.2825C19.7632 34.0791 21.1081 34.1815 21.9825 33.9349L22.2019 33.8971L22.2035 33.8966L22.2371 33.8939C22.7825 33.8603 24.1035 33.8422 24.5481 33.7559C25.7172 33.989 29.421 33.1379 33.6985 32.4237C36.6895 31.9243 40.0213 32.4922 42.8815 33.1453L42.8821 33.1451Z" fill="#1C2635"/>
<path fill-rule="evenodd" clip-rule="evenodd" d="M22.0822 32.2639C21.9088 32.2908 21.5868 32.2828 21.4267 32.3188C21.2075 32.2785 20.678 32.3718 20.4145 32.4038C20.2342 32.4256 20.1004 32.4382 19.9079 32.4667C19.7209 32.4941 19.581 32.5117 19.4443 32.5128C18.9374 32.6402 14.4898 33.5385 14.0874 33.664C15.4597 33.8745 17.5896 33.1734 18.2851 33.0434L19.5792 32.7979C20.3456 32.6324 21.1613 32.6569 21.5325 32.5762L21.5924 32.5903C21.7761 32.5901 21.8876 32.5847 22.0423 32.5962C22.1155 32.5743 22.2405 32.5751 22.3479 32.5685L26.1533 32.4651C25.8297 32.379 25.6653 32.3425 25.0589 32.2692C24.2936 32.2903 22.9032 32.2852 22.0822 32.2639ZM14.1579 30.8408L12.8566 30.9503L12.792 30.969C14.4653 30.9101 16.9407 30.6972 18.1407 30.5517C18.5513 30.5754 18.8999 30.5884 19.3385 30.613C20.1299 30.5269 21.4078 30.5104 21.8769 30.4693C21.2687 30.2697 21.3171 30.3267 20.6352 30.3656L18.1167 30.351L14.1576 30.8411L14.1579 30.8408ZM14.6047 31.7242C14.6105 31.7349 14.4914 31.7567 14.8688 31.7695C15.0036 31.7741 15.0738 31.7722 15.2065 31.7695C15.7546 31.7581 16.5899 31.6123 17.1992 31.5707C17.4354 31.5363 17.3787 31.5539 17.6572 31.4982L19.0818 31.2829C19.3983 31.2341 19.7241 31.1774 20.0281 31.1315C20.5786 31.1033 20.8214 31.075 21.4655 31.0617C22.0668 31.0492 22.3934 31.0599 22.9787 30.978L22.429 30.8997C22.1317 30.8786 19.1861 31.0508 18.3957 31.0748L14.6044 31.7242H14.6047ZM22.9591 31.491L22.3048 31.539C21.904 31.6589 19.3696 31.7245 18.3824 31.8937L15.156 32.4371C14.8706 32.4816 14.3656 32.5421 14.1395 32.5925C14.0978 32.6593 14.0901 32.6018 14.1935 32.6537C14.3996 32.7571 15.2177 32.7281 15.3052 32.7364C15.4355 32.7033 15.645 32.6998 15.8262 32.6844C16.4338 32.6316 17.1748 32.4192 17.5019 32.3646C18.5643 32.0962 19.3497 31.9212 21.1642 31.8361C21.4567 31.8252 21.903 31.7703 22.1687 31.7741C22.2445 31.761 22.199 31.7661 22.2995 31.7567C22.5939 31.7293 22.7205 31.7093 23.1013 31.5049C23.0274 31.5017 23.0266 31.4969 22.9591 31.4913V31.491Z" fill="#3B6B74"/>
<path fill-rule="evenodd" clip-rule="evenodd" d="M14.9716 29.6113C14.4304 29.5956 11.2824 29.5239 11.1659 29.4986L10.5588 29.5564C10.3439 29.5777 10.1894 29.5836 9.9588 29.6121C9.75402 29.6374 8.87774 29.7824 8.75753 29.7766C8.22032 29.9628 8.22484 30.0774 8.23202 30.3037C8.23814 30.487 8.62296 30.664 9.02667 30.7586C9.17879 30.7855 9.42186 30.8745 9.58568 30.927C9.73621 30.9752 10.0341 31.0493 10.1633 31.1149C10.6338 31.2183 10.3981 31.1772 10.6683 31.295C10.7625 31.3638 10.9582 31.3742 10.9792 31.5111C11.2143 31.7462 10.5157 31.8275 10.7968 32.0521C11.1526 32.2872 11.325 32.3058 11.0098 32.5289L10.9811 32.5667C10.8979 32.6954 10.9207 32.8345 11.1314 32.9164C11.2622 32.9625 11.45 32.9974 11.6694 32.9992C11.6975 32.9811 11.7619 32.9534 11.7449 32.9513C11.3263 32.9025 11.2446 32.8393 11.2082 32.7852C11.2994 32.409 11.5337 32.4281 11.5021 32.2829C11.4726 32.1486 11.0364 32.022 11.0896 31.9032C11.1425 31.7843 11.6483 31.505 10.9074 31.2247C10.6471 31.0869 10.2479 30.9049 9.68701 30.8076C9.43915 30.7079 8.36367 30.5094 8.45834 30.1363C8.54105 29.9242 8.97188 29.8384 9.26602 29.808C13.7836 29.5812 15.5287 29.9807 19.3238 29.796C19.6974 29.7382 20.0846 29.7923 20.4298 29.8205C21.5213 29.8437 21.8976 29.5825 22.9704 29.6297C23.0544 29.6436 23.7653 29.6329 24.3578 29.6806C24.4719 29.6897 24.4844 29.6873 24.6057 29.7163C24.7754 29.7568 24.9575 29.7979 25.1105 29.8346C25.2136 29.8224 25.1277 29.8456 25.2094 29.8056C25.1575 29.7003 24.7344 29.5708 24.4937 29.5327C24.4153 29.5202 24.3493 29.5239 24.2826 29.5106C23.9273 29.4389 23.6783 29.4712 23.3768 29.4285C24.0015 29.2817 23.9541 29.1335 25.3865 29.0677C24.5017 28.879 24.1052 29.0925 23.2632 29.3201C23.3746 29.2313 24.4568 28.7628 24.7131 28.6394C24.8238 28.5859 25.3924 28.4148 25.2894 28.3111C25.2386 28.317 25.0469 28.3785 24.9623 28.4052C24.8557 28.4388 24.7076 28.4681 24.6352 28.5078C24.6145 28.5086 24.602 28.4993 24.507 28.5352C24.4137 28.5709 24.2935 28.624 24.1773 28.6368C24.5275 28.415 23.8257 28.7418 23.7906 28.7692C23.7323 28.7937 23.7031 28.8068 23.6496 28.8342C23.5834 28.8683 23.326 29.025 23.1036 29.125C23.4393 28.883 23.6674 28.6056 24.0145 28.4076C24.0198 28.3943 24.0118 28.4036 24.0339 28.3812L24.2179 28.2509C24.4536 28.0851 24.7262 27.9828 24.8419 27.9071C24.8876 27.8773 24.903 27.8621 24.899 27.8357C24.5408 27.926 23.9081 28.2714 23.6294 28.4374C23.5087 28.5094 22.7029 29.0701 22.6244 29.1884C22.4789 29.2521 22.5914 29.1751 22.3372 29.2484C21.167 29.5855 20.4769 29.8706 18.5661 29.5484C17.8459 29.5351 16.2702 29.6468 14.9716 29.6113Z" fill="#3B6B74"/>
</g>
<defs>
<clipPath id="clip0_323_1632">
<rect width="110" height="65" fill="white"/>
</clipPath>
</defs>
</svg>
