<svg width="76" height="76" viewBox="0 0 76 76" fill="none" xmlns="http://www.w3.org/2000/svg">
<g clip-path="url(#clip0_323_1701)">
<mask id="mask0_323_1701" style="mask-type:luminance" maskUnits="userSpaceOnUse" x="0" y="0" width="76" height="76">
<path d="M38.0227 76C58.9913 75.9876 75.9876 58.9913 76 38.0227V37.9773C75.9876 17.0087 58.9913 0.0123529 38.0227 0H37.9773C17.0087 0.0123529 0.0123529 17.0087 0 37.9773V38.0227C0.0123529 58.9913 17.0087 75.9876 37.9773 76H38.0227Z" fill="white"/>
</mask>
<g mask="url(#mask0_323_1701)">
<path d="M0 0H76V76H0V0Z" fill="#EDEDED"/>
</g>
<mask id="mask1_323_1701" style="mask-type:luminance" maskUnits="userSpaceOnUse" x="0" y="0" width="76" height="76">
<path d="M38.0227 76C58.9913 75.9876 75.9876 58.9913 76 38.0227V37.9773C75.9876 17.0087 58.9913 0.0123529 38.0227 0H37.9773C17.0087 0.0123529 0.0123529 17.0087 0 37.9773V38.0227C0.0123529 58.9913 17.0087 75.9876 37.9773 76H38.0227Z" fill="white"/>
</mask>
<g mask="url(#mask1_323_1701)">
<path fill-rule="evenodd" clip-rule="evenodd" d="M45.9563 52.7207C46.2846 52.7966 46.3986 52.3507 46.7919 52.3617C48.2335 49.9367 48.3375 48.3724 48.7629 45.545C48.904 44.6098 49.145 43.9957 48.8948 43.1916C48.7204 43.3048 46.4644 42.0145 46.4558 40.3427C45.7928 41.8401 41.0435 41.571 41.2089 41.3194C39.8224 42.2305 38.4692 42.9955 37.9004 43.5694C37.5141 43.9595 37.2289 44.4386 36.9571 44.9797C36.6854 45.5206 36.4634 45.961 36.1865 46.5745L35.9667 47.1094C35.7501 47.6066 35.5594 47.7927 35.7892 48.2765C36.2557 49.2565 37.0732 50.4141 37.7769 50.9883C38.7789 51.8061 39.4243 52.1529 40.4782 52.7311C41.7677 53.438 44.6389 53.4911 45.9563 52.7207ZM7.57422 79.5592L8.59251 76.3331C9.32126 74.801 8.90445 74.7464 10.0885 73.0146L10.8477 71.3836C10.9135 71.1196 10.9554 70.9952 11.0335 70.8025C11.2541 70.259 11.0579 69.9244 11.2418 69.4045C11.3972 68.965 11.6419 68.6967 11.7341 68.2891C11.8413 67.8175 11.9277 67.5437 12.1076 67.1301C12.4436 66.358 12.327 66.283 12.429 65.8386C12.5298 65.3995 12.7461 65.0682 12.7984 64.6009C12.9676 63.0811 13.3243 62.5813 13.3482 61.9562C13.3111 61.6084 13.9399 60.4048 14.018 59.9139C14.1835 59.5057 14.3541 58.8692 14.6017 58.2603L14.8568 57.4505C15.0283 57.3169 14.8818 57.4614 14.9829 57.3143C15.0185 57.2624 15.0375 57.215 15.0582 57.1641L15.3718 56.2188C15.5054 55.835 15.6453 55.442 15.7834 55.0284C16.698 52.2933 17.2168 51.6065 18.2848 49.2746C18.4318 48.9532 18.7053 48.5025 18.8004 48.1724L19.6805 46.3301C20.103 44.7941 21.1199 42.7372 21.909 41.3886C22.6124 40.1867 23.0844 39.7383 23.8056 38.837C23.9668 38.6353 24.0679 38.5684 24.2405 38.3716C24.4221 38.1654 24.4597 38.1171 24.6814 37.9109C24.8406 37.7627 24.9201 37.6188 25.0741 37.4705L26.5485 36.2469C28.3183 34.8951 29.606 34.3459 31.6566 33.5063C32.0806 33.3328 32.4727 33.1851 32.88 33.0154C33.3962 32.8002 33.7932 32.8048 34.2392 32.6672C33.5292 32.2102 32.3052 32.288 31.6885 32.205C32.2621 31.6426 34.8134 32.4977 35.3859 32.7841C35.7318 32.9571 35.7114 32.6319 35.7114 32.6319C35.2345 32.0744 34.5644 31.5791 33.9422 31.2873C33.7558 31.2003 33.5711 31.1308 33.3861 31.0851C33.3617 31.079 33.1207 31.0294 33.1115 31.0259C32.7329 30.8722 32.9958 31.05 32.8059 30.803C34.1401 30.8314 35.4281 31.6159 36.1509 32.6161C37.297 32.662 38.5795 32.5876 39.7544 32.6017C41.3667 32.6213 41.3885 32.3053 42.6418 31.8701C42.7759 32.0473 43.3263 33.9026 43.5015 34.2597C43.6853 34.5027 44.3342 35.1148 44.8119 35.6299C45.0457 35.7011 45.133 35.8485 45.2993 35.9838C45.7294 36.3325 45.646 36.5215 45.8072 37.0592C45.9051 37.3864 46.8358 38.2613 46.5736 39.4071C46.4193 40.0805 46.4575 39.9322 46.6571 40.1074C46.9613 38.2889 47.0561 38.8416 47.4456 38.5919C47.6545 38.4578 47.7636 37.9956 48.0296 37.6621C47.9609 37.0431 48.3427 36.8989 48.4286 36.7645C48.7526 36.2561 48.6773 36.3793 48.7897 35.9079L49.5451 35.4394C49.7818 35.4802 49.5569 35.5388 49.7528 35.7677L50.2265 35.334C51.4765 35.7982 51.4384 35.7847 52.1257 37.2982C52.4377 37.511 52.3926 37.5354 52.4288 37.9881C52.6508 38.3216 52.8396 38.502 53.0556 39.6929C53.1288 40.0959 53.0357 41.7269 52.8453 41.9673C52.1907 43.852 50.6976 46.5038 50.6355 46.6626C50.5155 46.9732 47.3397 55.5885 48.7391 68.9253C48.9482 70.9226 49.2435 71.6096 49.4664 73.7901C49.7724 76.7781 50.1107 76.8381 50.5482 79.0611C50.5847 79.1722 50.6393 79.3449 50.7071 79.5592H7.57427L7.57422 79.5592Z" fill="#8DBAB1"/>
<path fill-rule="evenodd" clip-rule="evenodd" d="M50.6688 36.6424C49.5063 37.218 48.2786 37.8933 47.8529 39.0305C47.5978 39.7124 47.5182 39.4849 47.4393 40.7253C47.4028 41.2986 47.7239 41.6332 48.76 42.5062C49.269 42.9347 49.7803 43.1002 50.4473 43.0979C50.7716 43.0968 51.0491 42.5105 51.0744 42.1934L51.9459 40.6965C51.7819 40.2576 52.4164 39.5228 52.0751 39.2089C52.0984 39.1839 52.0119 39.1342 51.9976 39.0555C51.9275 38.6697 51.9312 38.3196 51.8094 37.918C51.7356 37.6733 51.4639 37.4624 51.4662 37.1499C51.4685 36.8365 50.8963 36.6053 50.6688 36.6423V36.6424Z" fill="#ABCEC1"/>
<path fill-rule="evenodd" clip-rule="evenodd" d="M44.9297 51.5701C45.2893 51.5267 45.239 51.0748 45.2336 51.0674C44.6085 50.1801 43.974 49.2416 42.5832 48.9725C41.1688 48.6988 39.1362 48.6235 38.0082 49.4749C37.962 50.4047 39.7346 51.1582 40.8528 51.3334L44.9297 51.5701H44.9297ZM37.777 50.9884C37.0729 50.4139 36.2557 49.2566 35.7892 48.2765C34.7818 46.1583 38.8814 42.0114 41.2089 41.3194C42.2301 41.8066 46.2889 41.326 46.4558 40.3428C46.6566 41.5222 48.6331 43.1529 49.0137 43.1426C49.344 43.9173 48.9037 44.6098 48.7629 45.5451C48.3375 48.3724 48.6205 49.5404 47.1788 51.9656C43.8266 56.2751 38.9747 52.7075 37.7769 50.9884H37.777Z" fill="#19232E"/>
<path fill-rule="evenodd" clip-rule="evenodd" d="M45.8224 36.6478C46.396 36.1362 46.4589 34.1402 46.2616 33.3839C46.0697 32.6474 44.9759 31.426 43.9886 32.0812C42.9292 32.7841 43.56 33.7475 44.2308 34.4312C44.5487 34.7552 44.8142 35.12 45.1741 35.4316C45.8609 36.0257 45.7778 36.0239 45.8224 36.6478L45.8224 36.6478ZM51.6925 37.8442C51.6184 37.8118 51.5501 37.7753 51.484 37.7216C51.4536 37.6969 50.7458 37.3326 50.7656 37.2174C50.7685 37.1999 50.7762 37.1807 50.7892 37.1594C50.8124 37.1215 51.4688 37.5182 51.5966 37.6067C51.536 37.4561 51.4785 37.3085 51.4306 37.1631C51.2944 36.9517 50.971 37.0123 50.78 36.9345L50.7825 36.7489C51.0514 36.8966 51.1631 36.9107 51.4998 36.9454C51.4673 36.5378 51.3869 36.508 51.2031 36.335C50.7906 36.2437 50.2308 36.5714 49.9182 36.7622C49.9059 36.7444 49.8953 36.6904 49.8889 36.7033C49.8829 36.7151 49.8671 36.6593 49.8591 36.6476C49.7206 36.4416 49.7738 36.5229 49.598 36.4201L49.4925 36.3583C49.687 36.0725 50.1104 35.7264 50.2265 35.334C50.0691 35.4779 49.9065 35.6258 49.7528 35.7678C49.5086 35.9568 49.3038 36.2408 48.9896 36.4764C48.7707 36.6401 48.75 36.6703 48.6383 36.8102L48.6006 36.8903C48.4872 37.1322 48.2215 37.3045 48.0296 37.6621C47.7636 37.9956 47.6544 38.4578 47.4456 38.592C47.0561 38.8416 47.2937 39.0823 46.6571 40.1075C46.4319 40.0417 46.5224 40.1204 46.367 39.2716C46.0579 37.5866 45.621 37.3706 45.0644 36.5315C44.7156 35.9102 44.1035 35.5876 43.8522 35.1243C43.716 34.8739 43.6678 34.7061 43.477 34.5737C43.3656 34.0592 42.7963 33.3905 43.0453 32.6615C43.2967 31.9259 44.2041 31.6602 44.4313 31.5251C44.946 31.5941 45.2936 31.5312 45.8221 31.6817C46.2071 31.7908 46.5213 31.9557 46.9407 32.0502C47.7927 32.2427 48.5748 31.9135 49.4756 32.4558C50.7883 33.2458 50.6513 34.8417 50.9205 35.4121C51.0759 35.7419 51.3059 36.0464 51.4375 36.3454L52.446 36.3245C52.4294 36.3382 52.4052 36.35 52.3891 36.3569L51.5036 36.4747C51.7153 37.0354 51.7305 36.9598 52.3495 37.1623C52.7683 37.2994 53.1409 37.4163 53.2977 37.7242C52.7887 37.5958 52.4101 37.2936 51.8474 37.2669C51.9229 37.8914 52.4963 38.0057 53.0007 38.3013C53.3951 38.5322 54.0609 39.0085 54.1945 39.3813C53.9291 39.2765 54.1224 39.367 53.9112 39.1975C53.4735 38.8459 52.6718 38.2306 52.1568 38.137C52.1898 39.1257 53.1173 39.5413 53.568 40.0681C53.8099 40.3505 54.0572 40.6601 54.3128 40.9862C54.4243 41.1281 54.5285 41.2861 54.6409 41.4888C54.9655 42.0737 54.719 42.0162 54.6954 42.0478C54.4475 41.3102 54.0701 40.9554 53.6461 40.4711C53.506 40.3109 53.4235 40.2729 53.2865 40.1333C53.163 40.0069 52.7743 39.4267 52.3636 39.3049C52.322 39.2926 52.3263 39.3658 52.307 39.4037C52.336 39.606 53.8607 40.956 54.6613 43.0874C54.5587 43.021 52.6733 39.9383 52.2105 39.7323C52.2045 40.1514 52.1918 40.3878 52.1332 40.6064C52.2398 40.8302 52.3771 41.0379 52.5796 41.2846L53.4856 42.3221C53.8507 42.7671 54.7633 44.0554 54.8638 44.704L53.238 42.4163C52.9728 42.0383 52.4093 41.4394 52.0893 40.9706C52.0881 41.0643 52.0841 41.1548 52.0775 41.2424C52.1634 41.5664 54.8905 45.1136 55.1772 47.1036L54.7931 46.3531C54.2695 45.0401 52.7433 42.2035 51.8181 41.5945C51.8712 42.8145 54.2344 45.6924 54.3557 47.6192C54.181 47.3351 53.973 46.6015 53.7717 46.1787C53.5451 45.7013 53.3609 45.3204 53.0984 44.8286C52.7399 44.1556 51.9773 42.732 51.5303 42.3758C51.5079 42.4738 51.5231 42.6292 51.3749 42.8093C52.0585 44.2398 53.9084 48.1164 53.7553 48.6866C53.6663 49.019 53.7901 48.9727 53.564 49.5659C53.4931 49.6156 53.448 49.5656 53.4465 49.5386C53.3417 47.558 52.2993 45.3822 52.1939 45.0176C52.0528 44.7752 51.4186 43.3442 51.2063 43.0776C51.0199 43.146 51.0802 43.4774 50.8329 43.628C52.8315 46.7006 53.0797 51.0475 53.0794 51.0604C52.9125 51.4654 52.7253 50.2917 52.7393 50.097C52.6486 49.9353 52.5785 46.4703 50.6413 44.0367C50.4555 44.5219 50.4721 44.5986 50.3615 44.8039C51.2842 46.0414 52.4346 53.6077 51.8871 54.7237C51.805 54.6783 51.6389 54.6453 51.6527 54.5395C51.8739 52.8261 51.3925 47.2329 50.1639 45.4379C50.1091 45.5192 49.7575 46.3809 49.6788 46.6139L49.3108 49.2195C49.2433 49.3734 49.2442 49.3413 49.1609 49.4314C48.8616 49.0322 49.3522 47.2972 49.4332 46.9327C49.5259 46.5125 49.5535 46.1126 49.7135 45.6995C49.8646 45.3083 50.1565 44.3512 49.968 43.7377C49.6291 42.6369 49.2999 41.6408 49.0799 40.9028C49.0247 40.7176 49 40.5527 49.0371 40.4343C49.3688 40.7 50.7525 43.9743 50.8194 42.7679C50.8424 42.3514 49.4441 40.2493 49.1631 40.0239C49.1772 39.8331 49.17 39.5976 49.1244 39.3003C49.4702 39.7432 50.8835 41.7318 51.0745 42.1934C51.09 42.2313 51.2195 42.0843 51.3023 41.984C51.2546 41.7721 49.2956 39.0314 49.3309 38.986C49.3972 38.9013 49.4573 38.814 49.5081 38.7379C50.0479 39.4554 51.2583 41.5477 51.5366 41.7474C51.5481 41.6853 51.6039 41.4035 51.6559 41.1361C51.3879 40.6722 49.5687 38.4966 49.6049 38.496C49.6354 38.4403 49.6724 38.3682 49.7152 38.2464C50.0237 38.9002 51.6343 40.3982 51.8888 40.904C51.9155 40.8457 52.0146 40.7762 51.8773 40.4872C51.8293 40.3772 51.5119 40.2141 51.4344 39.9133C51.4171 39.89 49.8985 38.0749 49.8976 38.0732C50.0027 38.0026 49.9257 38.0336 50.0619 38.0462C50.5129 38.6348 51.5108 39.7427 51.935 40.3106C52.018 39.9182 51.987 39.6169 51.9121 39.3862C51.505 39.0128 50.5792 38.1453 50.5606 38.133C50.3661 37.9641 50.481 38.1353 50.3687 37.8552C50.8194 38.1149 51.7268 38.9881 51.9905 39.1044C51.9951 39.059 52.0361 39.0007 52.004 38.9726C51.6952 38.706 50.9926 37.9537 50.7272 37.7572C50.6757 37.6363 50.626 37.5223 50.5761 37.4117C50.6849 37.4433 51.7974 38.6601 51.9818 38.7072C51.9098 38.4013 51.8017 38.116 51.6926 37.8443L51.6925 37.8442ZM49.548 35.4397L49.5451 35.4394C49.7051 35.0858 50.5014 34.6934 50.1098 33.485C49.9375 32.9527 49.1309 32.3865 48.4507 32.7651C47.5016 33.2928 47.5473 35.4431 47.6438 36.497L47.7648 37.0316C48.1597 36.7633 48.3008 36.096 48.7897 35.9079C49.0028 35.7761 49.3575 35.5066 49.548 35.4397V35.4397Z" fill="#3B6B74"/>
<path fill-rule="evenodd" clip-rule="evenodd" d="M36.4187 35.8686C36.2332 35.9119 35.9907 36.271 35.8394 36.4612C35.6363 36.7165 35.3674 36.9796 35.2683 37.1675C35.0434 37.2813 34.6071 37.752 34.1874 38.0651C33.8378 38.3257 33.4506 38.6652 33.0387 38.8364C32.1528 39.2058 31.6162 39.358 30.7327 39.0133C30.5865 39.0016 29.3473 38.2369 29.3091 38.197C30.1542 37.53 30.0608 37.5406 30.6629 37.0078C31.4393 36.3201 32.0612 33.1389 36.1593 35.0893C36.4612 35.2329 36.4629 35.1639 36.5399 35.4558L36.419 35.5049C36.1596 35.587 36.1599 35.5299 36.0125 35.6514L35.0686 36.788C34.8417 37.0683 34.2563 37.5141 33.9303 37.7233L33.637 37.9246C33.5359 38.014 33.6005 37.9442 33.5178 38.0487C34.0064 37.9011 34.7972 37.2395 35.048 36.9779C35.2651 36.7515 35.4943 36.5433 35.706 36.3207C35.9243 36.0909 36.1553 35.9119 36.3406 35.6422C36.5385 35.7772 36.3937 35.5821 36.4187 35.8685L36.4187 35.8686Z" fill="#1C313E"/>
<path fill-rule="evenodd" clip-rule="evenodd" d="M43.477 34.5738C43.8022 35.5312 44.1483 35.3097 44.5407 36.1143C44.9385 36.9318 45.8095 37.5867 45.9284 39.4711C45.9195 41.0357 42.3333 41.1049 40.9958 40.78C39.3249 39.6064 39.1014 37.637 41.4712 34.0637C42.125 33.5219 41.5767 33.312 42.5969 32.173C42.8322 31.9105 42.7756 32.0478 42.6417 31.8703C43.0913 31.6307 43.8769 31.5173 44.4313 31.5253C44.2041 31.6603 43.2967 31.926 43.0453 32.6617C42.7963 33.3907 43.3656 34.0594 43.477 34.5738V34.5738Z" fill="#ABCEC1"/>
<path fill-rule="evenodd" clip-rule="evenodd" d="M45.5477 51.2594C45.9269 50.8234 46.0176 49.6859 46.3985 49.5322C46.6829 49.926 46.2943 51.4214 46.1518 51.8221C46.0458 51.9976 45.5333 52.3277 45.2949 52.2679C45.3363 52.1628 45.5534 51.3628 45.5477 51.2594Z" fill="#FEFEFE"/>
<path fill-rule="evenodd" clip-rule="evenodd" d="M42.6424 52.4166C42.283 51.9673 42.6452 51.9259 42.1698 51.2871C42.5507 52.3609 40.9577 52.0762 40.804 52.0498C39.6855 51.8748 37.962 50.4047 38.0082 49.4749C39.1363 48.6235 41.1688 48.6988 42.5832 48.9725C43.9683 49.2408 44.6037 50.1723 45.2261 51.0565C45.256 51.3173 45.2836 51.4023 45.2913 51.5583C45.4634 52.3867 44.3167 53.0833 42.6423 52.4166H42.6424Z" fill="#CB4B50"/>
<path fill-rule="evenodd" clip-rule="evenodd" d="M42.6424 52.4166C42.283 51.9673 42.6452 51.9259 42.1698 51.2871C42.5507 52.3609 40.9577 52.0762 40.804 52.0498C39.6855 51.8748 37.962 50.4047 38.0082 49.4749C39.1363 48.6235 41.1688 48.6988 42.5832 48.9725C43.9683 49.2408 44.6037 50.1723 45.2261 51.0565C45.256 51.3173 45.2836 51.4023 45.2913 51.5583C45.4634 52.3867 44.3167 53.0833 42.6423 52.4166H42.6424Z" stroke="black" stroke-width="0.288007" stroke-miterlimit="22.9256"/>
<path fill-rule="evenodd" clip-rule="evenodd" d="M34.9003 38.7515C34.0403 42.4213 25.2882 46.3339 29.7482 39.5715C30.7869 41.0779 33.7524 39.5371 34.9003 38.7515Z" fill="#3B6B74"/>
<path fill-rule="evenodd" clip-rule="evenodd" d="M45.8223 36.648C45.7778 36.0241 45.8608 36.0258 45.174 35.4318C44.8141 35.1201 44.5487 34.7553 44.2307 34.4313C43.56 33.7477 42.9292 32.7842 43.9885 32.0814C44.9758 31.4261 46.0696 32.6475 46.2615 33.384C46.4589 34.1403 46.396 36.1364 45.8223 36.648L45.8223 36.648Z" fill="#19232E"/>
<path fill-rule="evenodd" clip-rule="evenodd" d="M49.545 35.4393L48.7895 35.9078C48.3006 36.096 48.1596 36.7633 47.7646 37.0315L47.6437 36.497C47.5472 35.4431 47.5015 33.2928 48.4506 32.7651C49.1308 32.3865 49.9374 32.9526 50.1097 33.4849C50.5012 34.6934 49.705 35.0857 49.545 35.4393V35.4393Z" fill="#19232E"/>
<path fill-rule="evenodd" clip-rule="evenodd" d="M40.6797 48.9873C41.0206 49.3332 40.8638 50.8702 40.7837 51.2882C40.7722 51.4482 40.7971 51.7592 40.6099 51.9126C40.445 52.0479 40.1167 51.8463 39.9492 51.7377C40.115 51.2135 40.3821 49.1639 40.6797 48.9873L40.6797 48.9873Z" fill="#FEFEFE"/>
<path fill-rule="evenodd" clip-rule="evenodd" d="M35.2392 35.426C33.9164 35.0285 33.3689 34.9288 32.3931 35.9385C32.1211 36.22 32.0499 36.2053 32.6577 35.9238C33.8429 35.3749 34.9459 36.0766 35.566 35.5607C35.6083 35.5257 35.3012 35.4444 35.2392 35.426Z" fill="#FEFEFE"/>
<path fill-rule="evenodd" clip-rule="evenodd" d="M41.0952 40.3784C41.0671 40.4933 41.034 40.6263 40.9958 40.7797C40.0482 41.4602 39.7552 42.5336 39.1106 43.4393C38.9977 43.803 38.5657 45.5394 38.059 45.9211C38.0237 45.8289 38.0079 45.8605 38.0225 45.7054L39.0359 43.1133C39.8672 41.7911 39.6156 41.5087 41.0952 40.3784V40.3784Z" fill="#DFF0EA"/>
<path fill-rule="evenodd" clip-rule="evenodd" d="M43.3803 38.1659L43.4145 38.1516L43.4182 38.1309L43.8562 37.8391C43.9025 37.6909 43.9459 37.5584 43.9884 37.4392L43.6673 37.5303C41.9176 38.4196 35.5508 44.8277 35.3047 45.9285C35.4153 45.9061 35.5649 45.9043 35.6588 45.8173C37.2243 44.3613 40.9683 39.4666 43.4018 38.1398C43.4018 38.1418 43.4021 38.1436 43.4018 38.1461C43.3972 38.1504 43.3901 38.1571 43.3803 38.166L43.3803 38.1659Z" fill="#DFF0EA"/>
<path fill-rule="evenodd" clip-rule="evenodd" d="M41.1419 38.9197L40.6429 39.2264C37.0431 42.179 31.8242 49.4495 31.8176 49.4625C31.7685 49.8698 32.5739 48.7176 32.6627 48.5246C32.835 48.3709 37.6217 42.2158 40.4229 39.7823C40.6173 39.6271 40.8179 39.5005 41.116 39.2555C41.3599 39.0547 41.7313 38.7034 42.259 38.2438C42.3423 38.1404 42.3477 38.0186 42.3988 37.8899C42.0495 38.1507 41.3599 38.8536 41.1418 38.9197H41.1419Z" fill="#DFF0EA"/>
<path fill-rule="evenodd" clip-rule="evenodd" d="M41.1002 36.5918L40.5303 37.0577C39.1748 37.6313 36.1274 39.9988 34.8621 41.1354L34.0308 41.7972C35.5164 39.9543 40.3415 36.9368 40.6216 36.6412L41.0117 36.3442C41.5681 35.8981 42.0846 35.7921 42.7837 35.2122C42.7521 35.3328 42.8975 35.4207 42.8934 35.477C42.9291 35.4816 41.6436 36.1865 41.1002 36.5918L41.1002 36.5918Z" fill="#DFF0EA"/>
<path fill-rule="evenodd" clip-rule="evenodd" d="M34.4426 42.6985C36.7201 40.2745 37.2429 39.7215 40.847 37.1829C41.2408 37.0286 42.0325 36.2835 42.9971 35.6714C43.0005 35.7495 43.0074 35.8394 43.0206 35.9267C43.0278 35.9739 41.1095 37.2403 40.9335 37.4351L40.473 37.7769C39.8181 38.0587 38.3411 39.43 37.5816 40.0217C37.0261 40.4543 36.6156 40.7913 36.1034 41.2147C35.7085 41.541 34.8982 42.2867 34.6313 42.6641C34.488 42.8666 34.4259 42.7264 34.4426 42.6986V42.6985Z" fill="#DFF0EA"/>
<path fill-rule="evenodd" clip-rule="evenodd" d="M40.899 36.3109C40.1763 36.7874 39.2603 37.2843 38.7711 37.6084L35.79 39.5708C36.2815 38.9708 37.957 37.8657 38.5847 37.4897L40.1027 36.6202C40.4506 36.4117 40.7111 36.2327 40.9516 36.0345C41.0262 35.8211 41.1566 35.5965 41.4045 35.2001C40.8254 35.3385 37.1079 38.0194 36.9672 38.0694C39.0431 36.1555 41.3572 35.0656 41.5082 34.8778C41.5125 34.8399 41.5605 34.7718 41.5125 34.7781C41.0354 34.843 40.3026 35.3437 40.1047 35.4482C39.8856 35.5637 39.7819 35.5896 39.5478 35.7234C38.8374 36.1296 38.2523 36.4186 37.5626 37.0844C37.5583 37.0519 37.282 37.0763 37.9544 36.5639C38.1874 36.3861 38.3856 36.2496 38.5809 36.129C39.029 35.8521 39.4593 35.5901 39.8678 35.3529C40.6293 34.9099 41.7915 34.6302 42.4228 33.7006C41.8604 33.727 40.7002 34.211 40.0577 34.4894C39.7474 34.6238 39.9924 34.5618 39.6682 34.6287C40.0249 34.2932 40.9677 33.9244 41.4939 33.7538C41.8857 33.6274 42.2631 33.5616 42.5998 33.4146L42.6874 33.4192L42.8491 33.6116C42.827 33.628 42.8141 33.6429 42.8086 33.6564C42.6274 33.8483 42.447 34.0439 42.2491 34.2602C42.4588 34.2384 42.5897 34.112 42.7161 34.0953L42.7658 34.2585C42.3855 34.4116 42.5309 34.2941 42.067 34.5078C42.019 34.5305 42.0233 34.5908 42.0003 34.6339C42.3301 34.5558 42.2379 34.596 42.8379 34.4056C42.7716 34.4653 42.7262 34.5164 42.6848 34.5466C42.5334 34.6564 42.8959 34.4303 41.907 34.9091C41.6935 35.118 41.4813 35.3989 41.3247 35.7789C42.0856 35.294 42.0227 35.3253 42.8213 34.8244C42.9626 34.8293 42.7454 34.9568 42.8063 35.0361L42.0575 35.4641C41.7987 35.7393 41.3888 35.8548 41.2747 35.9527C41.1055 36.0926 41.0455 36.1793 40.899 36.3109L40.899 36.3109Z" fill="#DFF0EA"/>
<path fill-rule="evenodd" clip-rule="evenodd" d="M40.8961 38.6922C40.5456 38.9464 39.1623 40.3341 38.8948 40.5673C38.5978 40.9238 36.4171 43.0305 35.2669 44.9832C35.2511 45.0104 35.1802 45.0578 35.1362 45.0056C35.2264 44.4092 35.3247 44.4604 35.412 44.1283C35.5619 43.5578 39.4395 39.8044 40.8711 38.4196C41.6533 37.6328 42.5136 36.9357 43.4595 36.2253C43.3506 36.383 43.2616 36.5235 43.19 36.6487C42.4975 37.2606 41.8693 37.8198 41.2965 38.332C41.2974 38.3334 41.1164 38.5092 40.8961 38.6922Z" fill="#DFF0EA"/>
<path fill-rule="evenodd" clip-rule="evenodd" d="M44.686 39.023C44.6627 39.0822 44.6351 39.1514 44.6038 39.2307C43.6915 39.5193 43.4448 40.0729 42.8422 40.508C42.7451 40.6945 42.3869 41.5938 41.9 41.7581C41.8615 41.7053 41.8471 41.7208 41.8552 41.6386L42.7548 40.3262C43.5258 39.6825 43.2647 39.5098 44.686 39.0229V39.023Z" fill="#DFF0EA"/>
<path fill-rule="evenodd" clip-rule="evenodd" d="M44.9825 37.8677C44.9305 37.9742 45.3085 37.9168 45.2399 38.0587C44.7849 38.2583 43.704 38.8615 43.2938 39.2286C42.7408 39.7241 42.2833 40.3104 41.8133 40.7421C41.6272 41.0748 40.8447 42.6836 40.2697 42.9519C40.2548 42.854 40.2323 42.8818 40.2789 42.7336L41.8082 40.4081C42.5473 39.6463 42.6975 39.2502 43.2461 38.8242C43.5047 38.6237 44.4439 38.123 44.9825 37.8677H44.9825Z" fill="#DFF0EA"/>
<path fill-rule="evenodd" clip-rule="evenodd" d="M23.8265 41.6507C23.9313 41.021 23.8805 40.8246 23.1006 40.5755C22.0329 40.234 21.056 41.1259 20.4789 41.8957C19.8964 42.673 20.6254 41.7541 21.6827 41.9373C22.1174 42.0132 23.7236 42.2677 23.8265 41.6506L23.8265 41.6507Z" fill="#3B6B74"/>
<path fill-rule="evenodd" clip-rule="evenodd" d="M46.0553 55.2171C42.3581 56.1552 39.723 55.5844 36.2102 51.806C35.7231 51.2818 35.8365 53.431 36.5833 54.3907C38.534 56.8978 37.6375 57.7558 38.5234 58.9369C38.8172 59.3293 41.3283 56.8843 43.4945 56.8469C43.6927 56.5861 45.0203 56.4557 46.0553 55.2171V55.2171Z" fill="#3B6B74"/>
<path fill-rule="evenodd" clip-rule="evenodd" d="M7.42473 35.9938L0.759766 34.7839L1.45432 52.2735L8.11928 53.4833L7.42473 35.9938Z" fill="#C3C3C3"/>
<path fill-rule="evenodd" clip-rule="evenodd" d="M25.5368 23.1865L3.70898 41.7641L3.79487 45.0143L7.08814 45.716L31.1783 23.3442L28.4434 22.8501L25.5368 23.1865Z" fill="#A6A6A6"/>
<path fill-rule="evenodd" clip-rule="evenodd" d="M28.5078 23.3799L3.76645 44.7496L3.70898 41.7714L25.2719 23.2225L28.7082 22.8215L28.5078 23.3799Z" fill="#B5B5B5"/>
<path d="M61.0767 46.6223C61.0767 46.6223 62.5991 47.2726 62.7645 49.0524C62.93 50.794 62.5603 51.4613 62.5603 51.4613" stroke="#C1272D" stroke-width="0.70638" stroke-miterlimit="22.9256"/>
<path d="M62.7882 51.5721C62.7882 51.5721 62.7468 49.9127 64.3002 49.0292C65.8198 48.1585 66.5706 48.2108 66.5706 48.2108" stroke="#C1272D" stroke-width="0.70638" stroke-miterlimit="22.9256"/>
<path d="M62.6621 51.3675C62.6621 51.3675 63.1452 50.1261 63.8852 48.4991C64.6849 46.7495 65.4266 45.9524 65.4266 45.9524" stroke="#B3B3B3" stroke-width="0.70638" stroke-miterlimit="22.9256"/>
<path d="M20.6112 15.5498C20.6112 15.5498 8.36589 24.8462 13.3622 29.0595C27.4723 40.9587 11.0551 41.7532 34.5213 46.5014C38.3055 47.2669 43.4337 47.4723 47.1259 49.7027C49.477 51.1232 50.8093 54.3245 52.2607 55.919C53.0469 56.7825 59.6412 62.9675 62.724 51.1039" stroke="#333333" stroke-width="1.88409" stroke-miterlimit="22.9256"/>
</g>
<path fill-rule="evenodd" clip-rule="evenodd" d="M64.0457 21.7671L63.8739 23.1415C63.8739 23.1415 30.8421 27.5298 30.205 27.6803C29.5751 27.8306 21.0775 24.3155 20.1324 23.8646C19.1874 23.4136 18.5287 22.991 18.5216 22.1394C18.5144 21.2874 18.5787 17.2496 18.5787 17.2496L52.7202 11.9519L64.0457 21.7671V21.7671Z" fill="#B5B5B5"/>
<path fill-rule="evenodd" clip-rule="evenodd" d="M18.6007 17.9012L18.0566 15.6247L52.8564 10.4773L51.6681 12.9545L18.6007 17.9012Z" fill="#B5B5B5"/>
<path fill-rule="evenodd" clip-rule="evenodd" d="M56.1567 8.63745L52.5986 10.7996L18.3716 15.8824L19.653 14.2715L56.1567 8.63745Z" fill="#B5B5B5"/>
<path fill-rule="evenodd" clip-rule="evenodd" d="M59.4642 4.16309C59.4642 4.16309 58.5335 6.93358 57.7962 7.57067C57.0588 8.20807 56.1566 8.63751 56.1566 8.63751L19.6528 14.2716C19.6528 14.2716 20.4333 11.4152 20.7412 10.9283C21.0632 10.4486 59.4642 4.16311 59.4642 4.16311V4.16309Z" fill="#B5B5B5"/>
<path fill-rule="evenodd" clip-rule="evenodd" d="M65.6853 18.0729C65.6853 18.0729 67.3677 16.6697 67.4823 15.818C67.5966 14.9732 67.8686 14.021 67.8686 14.021L69.0857 11.8374C69.0857 11.8374 68.7708 7.84261 68.6063 7.50627C68.4414 7.1699 61.2539 4.08431 60.0368 4.09868C58.827 4.11304 59.0703 4.57838 58.9485 4.80731C58.8198 5.03653 58.0537 7.2486 58.0537 7.2486L64.4395 9.43914C64.4395 9.43914 64.862 12.1094 64.7905 12.6178C64.7259 13.119 64.9979 14.1784 65.3345 14.8942C65.6709 15.6103 65.6852 18.0729 65.6852 18.0729L65.6853 18.0729Z" fill="#A67C52"/>
<path fill-rule="evenodd" clip-rule="evenodd" d="M51.4747 18.0085L19.0444 23.1988C19.0444 23.1988 22.6669 25.325 25.0795 26.22C26.9695 26.9143 29.9549 28.0027 29.9549 28.0027C29.9549 28.0027 63.3371 23.2991 63.874 23.1416C64.4111 22.9842 60.5667 22.0105 58.4333 21.2372C55.9635 20.3424 52.9495 19.2328 52.9495 19.2328C52.9495 19.2328 51.5104 18.839 51.4747 18.0085Z" fill="#8B8B8B"/>
<path fill-rule="evenodd" clip-rule="evenodd" d="M65.6853 18.0729C65.6853 18.0729 67.3677 16.6697 67.4823 15.818C67.5966 14.9732 67.8686 14.021 67.8686 14.021L69.0857 11.8374C69.0857 11.8374 68.7708 7.84261 68.6063 7.50627C68.4414 7.1699 61.2539 4.08431 60.0368 4.09868C58.827 4.11304 59.0703 4.57838 58.9485 4.80731C58.8198 5.03653 58.0537 7.2486 58.0537 7.2486L64.4395 9.43914C64.4395 9.43914 64.862 12.1094 64.7905 12.6178C64.7259 13.119 64.9979 14.1784 65.3345 14.8942C65.6709 15.6103 65.6852 18.0729 65.6852 18.0729L65.6853 18.0729Z" fill="#696969"/>
<path fill-rule="evenodd" clip-rule="evenodd" d="M65.1411 21.0583C65.1411 21.4593 64.6183 23.1845 63.7666 23.156C62.9218 23.1273 53.6222 19.7125 52.4482 19.0751C51.274 18.438 51.4242 17.8584 51.4745 16.269C51.5245 14.6797 52.0257 8.23648 52.0257 8.23648L57.0942 6.48975L65.0193 9.38203L65.9143 17.4645C65.9071 17.4574 65.1411 20.6573 65.1411 21.0583Z" fill="#D7D7D7"/>
<path fill-rule="evenodd" clip-rule="evenodd" d="M63.2438 11.9165L62.1845 18.1733C62.1845 18.1733 62.3275 19.1255 61.7048 19.1039C61.0746 19.0896 55.6123 16.8775 55.6123 16.8775C55.6123 16.8775 54.5529 16.534 54.6532 16.1114C54.7534 15.6892 55.7126 9.85464 55.7126 9.85464C55.7126 9.85464 55.8774 8.65913 56.4499 8.60167C57.0227 8.53733 62.5424 10.8281 62.5424 10.8281C62.5424 10.8281 63.1723 11.1932 63.2438 11.9165H63.2438Z" fill="black"/>
<path fill-rule="evenodd" clip-rule="evenodd" d="M61.22 13.466C61.054 12.0548 60.0116 11.1284 58.8818 11.399C57.7578 11.6699 56.9786 13.0251 57.1391 14.4352C57.3057 15.8459 58.3479 16.7722 59.4776 16.5019C60.3201 16.3023 60.9652 15.4914 61.1689 14.5087C61.2462 14.1729 61.266 13.8211 61.22 13.466Z" fill="#CCCCCC"/>
<path fill-rule="evenodd" clip-rule="evenodd" d="M60.3865 13.5364C60.2886 12.7525 59.6741 12.2349 59.0141 12.3837C58.3537 12.5327 57.9027 13.2945 58.0007 14.0784C58.0983 14.8623 58.7127 15.3805 59.3731 15.2311C60.0332 15.0823 60.4842 14.3202 60.3865 13.5364Z" fill="black"/>
<path fill-rule="evenodd" clip-rule="evenodd" d="M59.4642 4.16309C59.4642 4.16309 58.5335 6.93358 57.7962 7.57067C57.0588 8.20807 56.1566 8.63751 56.1566 8.63751L19.6528 14.2716C19.6528 14.2716 20.4333 11.4152 20.7412 10.9283C21.0632 10.4486 59.4642 4.16311 59.4642 4.16311V4.16309Z" fill="#B5B5B5"/>
<path fill-rule="evenodd" clip-rule="evenodd" d="M56.1566 8.63745L52.8562 10.4773L17.9849 15.6175L19.6529 14.2715L56.1566 8.63745Z" fill="#B5B5B5"/>
<path fill-rule="evenodd" clip-rule="evenodd" d="M18.6076 17.9799L17.9849 15.6175L52.8562 10.4773L51.6678 12.9545L18.6076 17.9799Z" fill="#999999"/>
</g>
<defs>
<clipPath id="clip0_323_1701">
<rect width="76" height="76" fill="white"/>
</clipPath>
</defs>
</svg>
