<svg width="114" height="87" viewBox="0 0 114 87" fill="none" xmlns="http://www.w3.org/2000/svg">
<g clip-path="url(#clip0_320_2112)">
<mask id="mask0_320_2112" style="mask-type:luminance" maskUnits="userSpaceOnUse" x="13" y="0" width="88" height="87">
<path d="M57.4599 87C33.4579 86.9856 14.0022 67.5291 13.9878 43.5261V43.4739C14.0022 19.4709 33.4579 0.0143763 57.4599 0H57.512C81.5141 0.0143763 100.97 19.4709 100.984 43.4739V43.5261C100.97 67.5291 81.5141 86.9856 57.512 87H57.4599Z" fill="white"/>
</mask>
<g mask="url(#mask0_320_2112)">
<path d="M13.9878 0H100.984V87H13.9878V0Z" fill="#EDEDED"/>
</g>
<mask id="mask1_320_2112" style="mask-type:luminance" maskUnits="userSpaceOnUse" x="13" y="0" width="88" height="87">
<path d="M57.4599 87C33.4579 86.9856 14.0022 67.5291 13.9878 43.5261V43.4739C14.0022 19.4709 33.4579 0.0143763 57.4599 0H57.512C81.5141 0.0143763 100.97 19.4709 100.984 43.4739V43.5261C100.97 67.5291 81.5141 86.9856 57.512 87H57.4599Z" fill="white"/>
</mask>
<g mask="url(#mask1_320_2112)">
<path fill-rule="evenodd" clip-rule="evenodd" d="M25.0031 29.5054H60.3638V29.0166H25.0031V29.5054ZM23.3571 43.3785H46.608V42.8682H23.3535L23.3553 43.3785H23.3571ZM33.7651 35.2074H62.5435V34.7168H33.7651V35.2074ZM20.5736 50.7608H55.954V50.272H20.5736V50.7608ZM30.4461 64.6123H53.7402V64.1002H30.4461V64.6123ZM38.7571 56.3729H74.0944V55.9075H38.7571V56.3729Z" fill="#CCCCCC"/>
<path fill-rule="evenodd" clip-rule="evenodd" d="M85.4044 58.7037L60.9549 63.6258L61.7833 60.8404L47.6358 62.6697L48.4032 60.2186L30.6869 60.5313L52.6009 57.0432L51.7958 59.2284L67.203 57.4062L65.8714 60.1323L85.4026 58.7037H85.4044ZM67.185 66.2602L46.0168 70.512L46.6817 68.3268L31.6429 69.8525L51.0321 66.2261L49.9611 68.3646L67.0718 66.2297" fill="white"/>
<path fill-rule="evenodd" clip-rule="evenodd" d="M22.6437 33.3207C22.6024 33.3171 22.5628 33.3297 22.5323 33.3566C22.5017 33.3836 22.482 33.4195 22.4784 33.4608C22.4748 33.5022 22.4874 33.5417 22.5143 33.5723C22.5413 33.6028 22.5772 33.6226 22.6185 33.6262C22.6599 33.6298 22.6994 33.6172 22.73 33.5902C22.7623 33.5633 22.7821 33.5273 22.7857 33.486C22.7875 33.4662 22.7857 33.4447 22.7785 33.4267C22.7731 33.4069 22.7623 33.389 22.7497 33.3746C22.7371 33.3584 22.721 33.3458 22.703 33.3368C22.685 33.3279 22.6653 33.3225 22.6455 33.3207H22.6437Z" fill="#D4D4D4"/>
<path fill-rule="evenodd" clip-rule="evenodd" d="M90.2797 32.2209L65.8302 27.2988L66.6586 30.0843L52.5111 28.2549L53.2784 30.706L35.5621 30.3933L57.4761 33.8814L56.6711 31.6962L72.0782 33.5184L70.7467 30.7923L90.2779 32.2209H90.2797ZM72.0603 24.6644L50.892 20.4126L51.5569 22.5978L36.5181 21.0721L55.9074 24.6985L54.8364 22.5601L71.9471 24.6949" fill="white"/>
<path d="M32.7732 27.0741C33.3518 27.0741 33.8208 26.605 33.8208 26.0264C33.8208 25.4478 33.3518 24.9788 32.7732 24.9788C32.1946 24.9788 31.7256 25.4478 31.7256 26.0264C31.7256 26.605 32.1946 27.0741 32.7732 27.0741Z" fill="#FEFEFE"/>
<path d="M78.6874 28.8675C79.1171 28.8675 79.4655 28.5191 79.4655 28.0894C79.4655 27.6597 79.1171 27.3113 78.6874 27.3113C78.2577 27.3113 77.9093 27.6597 77.9093 28.0894C77.9093 28.5191 78.2577 28.8675 78.6874 28.8675Z" fill="#FEFEFE"/>
<path d="M43.8479 20.3388C44.4265 20.3388 44.8956 19.8697 44.8956 19.2911C44.8956 18.7125 44.4265 18.2434 43.8479 18.2434C43.2693 18.2434 42.8003 18.7125 42.8003 19.2911C42.8003 19.8697 43.2693 20.3388 43.8479 20.3388Z" fill="#FEFEFE"/>
<path d="M31.2763 15.5497C31.8549 15.5497 32.3239 15.0806 32.3239 14.502C32.3239 13.9234 31.8549 13.4543 31.2763 13.4543C30.6977 13.4543 30.2286 13.9234 30.2286 14.502C30.2286 15.0806 30.6977 15.5497 31.2763 15.5497Z" fill="#FEFEFE"/>
<path d="M33.6698 58.2042C34.2484 58.2042 34.7175 57.7352 34.7175 57.1566C34.7175 56.5779 34.2484 56.1089 33.6698 56.1089C33.0912 56.1089 32.6222 56.5779 32.6222 57.1566C32.6222 57.7352 33.0912 58.2042 33.6698 58.2042Z" fill="#FEFEFE"/>
<path d="M92.6049 51.9163C93.0346 51.9163 93.3829 51.568 93.3829 51.1382C93.3829 50.7085 93.0346 50.3601 92.6049 50.3601C92.1751 50.3601 91.8268 50.7085 91.8268 51.1382C91.8268 51.568 92.1751 51.9163 92.6049 51.9163Z" fill="#FEFEFE"/>
<path d="M81.8609 56.2579C82.4394 56.2579 82.9085 55.7889 82.9085 55.2103C82.9085 54.6317 82.4394 54.1626 81.8609 54.1626C81.2823 54.1626 80.8132 54.6317 80.8132 55.2103C80.8132 55.7889 81.2823 56.2579 81.8609 56.2579Z" fill="#FEFEFE"/>
</g>
<path fill-rule="evenodd" clip-rule="evenodd" d="M111.18 45.8695L111.164 45.8803C111.117 45.9342 111.195 45.8821 111.062 45.9665C111.009 45.9989 110.992 46.0007 110.932 46.0366C110.733 46.1534 110.805 46.1427 110.594 46.1463C110.463 46.2684 110.228 46.3421 110.059 46.3709C109.885 46.4607 108.85 46.8776 108.655 46.8561C108.643 46.8651 108.63 46.8633 108.62 46.8812L108.26 47.0142C107.906 47.1077 107.265 47.291 106.93 47.2982C106.442 47.7762 92.2492 45.8515 83.8772 50.4753C82.569 51.1977 81.1332 51.7476 79.5716 52.1519C78.5546 53.0109 77.2374 54.4737 75.6848 54.6786C75.0936 54.7577 74.479 55.0614 73.7602 55.1386C70.0064 55.5466 64.5885 55.419 59.5948 54.5312C58.5004 54.3354 55.097 53.2248 56.7861 52.3676C53.1024 51.7225 48.6692 52.3945 44.9064 51.0899C40.3655 49.5157 35.7275 48.9604 30.8002 48.6639C26.9745 49.2515 23.6106 50.4627 19.2512 50.6676C18.7264 50.77 17.1685 50.7898 16.5252 50.8293L16.4856 50.8329H16.4838L16.2251 50.8778C15.1936 51.169 13.6069 51.0486 12.3814 51.2876C11.2493 51.3774 6.84851 52.3137 6.21598 52.47C5.49899 52.6479 4.77661 52.3586 4.43519 52.0298C4.37769 51.974 4.34175 51.9058 4.32737 51.8321C4.12072 51.6775 4.08478 51.5248 4.14947 51.3505C4.15666 51.2822 4.17642 51.2211 4.21057 51.1726C4.51066 50.7233 3.47022 50.6191 3.90508 50.1896C4.14049 49.9578 3.98595 49.929 4.07939 49.796V49.7888C4.05603 49.7529 3.60679 49.7242 3.4828 49.6792C3.45584 49.6702 3.45045 49.6595 3.44865 49.6325C3.242 49.5552 3.13059 49.4097 3.27794 49.2713L3.33545 49.2246C3.87094 48.9317 3.60858 48.9191 3.1252 48.6459C2.69573 48.4051 3.73078 48.2757 3.36959 48.0188C3.30669 47.857 3.02637 47.848 2.87542 47.769C2.60947 47.627 2.86464 47.6773 2.36329 47.5533C2.20336 47.4761 1.82779 47.3916 1.64091 47.3341C1.43426 47.273 1.13237 47.1688 0.938296 47.1382C0.462101 47.0268 0.00746921 46.8183 0.000281358 46.6027C-0.00870346 46.3367 -0.0140943 46.202 0.620234 45.9827C0.762194 45.9899 1.79545 45.8192 2.03804 45.7886C2.30938 45.7545 2.49267 45.7473 2.74604 45.7221L3.46303 45.6539C3.6014 45.6844 7.31392 45.7671 7.95185 45.7868C10.0795 45.8497 14.9456 45.8605 16.8881 45.7078L17.4596 45.2262C16.013 45.5784 14.7893 45.7797 14.225 45.6682C14.1765 45.4256 9.82428 45.0698 8.07224 44.9926C7.64277 44.9728 5.16655 44.8434 5.05334 44.8596L4.64364 44.7679C4.49988 44.7356 4.38667 44.7194 4.23752 44.6799C4.10455 44.6439 3.57085 44.457 3.47202 44.4534C3.23661 44.2486 3.34802 44.1444 3.56725 43.9359C3.74515 43.767 4.20697 43.6286 4.6041 43.5675C4.75684 43.5675 5.04076 43.528 5.22765 43.5082C5.39836 43.4884 5.71642 43.4705 5.88354 43.4345C6.31481 43.4022 6.10636 43.4094 6.39747 43.3411C6.561 43.3015 6.75507 43.3231 6.92758 43.2225C7.37682 43.0859 6.80538 42.9188 7.28697 42.7984C7.82786 42.6636 8.00935 42.669 7.90333 42.4461V42.412C7.9195 42.3114 8.11357 42.2215 8.31124 42.191C8.3346 42.173 8.34718 42.1658 8.37234 42.164C8.49094 42.146 8.81079 42.173 8.85572 42.1532L8.86111 42.1478C8.90783 42.0544 9.03362 42.0436 9.07135 41.8765C9.14144 41.5638 9.90874 41.5746 10.0812 41.2565C10.101 41.2224 10.137 41.1792 10.1891 41.1343C10.2897 41.0139 10.4388 40.9169 10.7012 40.8324C10.7731 40.7839 10.8521 40.7426 10.9348 40.7102C11.4272 40.5233 12.1172 40.4101 12.4694 40.6042C12.73 40.7497 14.8162 41.4937 15.4685 41.5674C16.0615 41.7633 17.1721 41.6716 17.5997 41.9052L17.7291 41.9412L17.7525 41.943C18.1316 41.9753 19.111 41.9951 19.3662 42.0778C20.2503 42.2449 20.5414 42.3275 20.8864 42.3329L20.9008 42.3222L21.014 42.3329C21.3572 42.3222 21.8172 42.2431 22.9241 42.1047C23.2781 42.0975 23.5531 42.1155 23.8765 42.1245C24.2809 42.0939 24.9637 42.0706 25.4345 42.1748C26.3563 42.0652 27.2512 42.0616 27.8245 42.0454C36.0438 41.0211 47.5479 38.0758 60.7107 36.5231C66.1267 35.8834 94.5403 33.948 99.8629 34.9669C101.796 34.9956 103.692 35.4916 105.549 36.2715C107.836 37.2329 108.226 38.0272 109.881 39.6302C110.675 40.3975 111.622 40.5646 112.744 40.9887C112.981 40.951 113.275 41.1092 113.468 41.2709C113.66 41.4326 113.793 41.6051 113.822 41.8441C113.985 42.0149 113.958 42.1424 113.958 42.27C113.96 42.3653 113.96 42.4461 113.958 42.5198C113.969 42.5001 113.982 42.4803 113.994 42.4587C114.014 43.1668 113.921 43.501 113.536 44.0904L113.486 44.227L113.461 44.2019C113.425 44.2558 113.385 44.3115 113.346 44.3708C113.22 44.5289 112.895 44.7841 112.629 44.971C112.567 45.0321 112.499 45.0662 112.413 45.1148C112.386 45.1309 112.363 45.1453 112.341 45.1579L112.303 45.1723L112.291 45.1776L112.278 45.1812C112.16 45.2262 112.084 45.2621 112.018 45.3142C111.944 45.3951 111.885 45.4382 111.8 45.5406L111.719 45.6251C111.637 45.6808 111.536 45.7204 111.367 45.7815L111.362 45.7832L111.358 45.785L111.355 45.7868L111.182 45.8623L111.18 45.8695Z" fill="#8DBAB1"/>
<path fill-rule="evenodd" clip-rule="evenodd" d="M60.8508 51.6092C58.9478 51.8303 59.8032 51.6937 58.628 51.7009C56.2218 51.7134 53.2299 51.7656 48.0708 51.1042C50.6998 51.8914 56.1949 51.9039 56.8885 52.3909C57.7421 52.3244 58.6262 52.1897 59.5408 51.9704C59.9721 51.868 60.4591 51.6541 60.8508 51.6092Z" fill="#3B6B74"/>
<path fill-rule="evenodd" clip-rule="evenodd" d="M79.3704 52.2832C83.8843 50.8114 86.7828 49.1905 88.1467 48.7556C86.9697 48.8832 81.622 51.1457 80.1556 51.4314L79.3704 52.2832Z" fill="#3B6B74"/>
<path fill-rule="evenodd" clip-rule="evenodd" d="M79.4799 52.4016C79.1727 52.7179 78.7791 53.3307 77.6363 54.1645C76.1556 55.0145 74.9983 55.0487 74.7809 55.1798L74.3155 55.2589C73.1241 55.3595 72.6892 55.5051 71.3092 55.4979C71.151 55.4979 71.0019 55.4889 70.8581 55.541C70.7036 55.5051 70.6766 55.5087 70.5077 55.5069C70.4448 55.5069 70.3729 55.5069 70.31 55.5141C70.1124 55.5392 70.2292 55.5213 70.1268 55.559C69.886 55.5033 68.8707 55.5285 68.4825 55.5159C66.7664 55.4656 64.9874 55.4314 63.2947 55.2337C61.593 55.0361 59.6253 54.7917 58.0853 54.3011C57.6972 54.1771 57.0287 53.8428 56.7304 53.7889C56.6729 53.6667 56.6495 53.6847 56.5255 53.6056C56.4339 53.5463 56.4033 53.5248 56.3315 53.4619C56.159 53.3073 56.2021 53.2193 56.0314 53.0917C56.1104 52.9084 56.0925 52.8113 56.2254 52.5544C56.3476 52.5166 56.2344 52.5544 56.3638 52.5041C57.194 52.1914 57.4869 52.3136 57.8571 52.2004C58.0655 52.2561 58.9514 52.2776 59.2354 52.2489C59.7259 52.1986 59.6954 51.8841 60.3962 51.8643C61.0215 51.8463 62.4681 51.8913 63.1186 51.6828C60.5489 51.7637 62.5382 51.3539 63.8266 50.9676C64.8778 50.6513 65.7637 50.2056 66.0459 49.9343C66.9066 49.2604 67.7655 48.5847 68.6263 47.9108L70.0693 46.8667C70.6012 46.5109 71.0612 46.218 71.5895 45.9035C72.1519 45.5693 72.6784 45.3339 73.205 45.1092C73.5086 44.9817 74.5545 44.6294 74.957 44.5953C74.6353 44.7121 74.2436 44.8073 73.9902 44.9906C72.6425 45.6268 71.4727 46.2036 70.1429 47.3358C70.0225 47.449 69.8536 47.5388 69.7602 47.6988C69.4277 48.0294 68.4933 48.7267 68.0908 49.0483C69.3595 48.4086 69.2696 49.2245 72.0747 46.9117C72.4754 46.7949 72.8815 46.6403 73.2589 46.5828C73.0828 46.7266 73.0738 46.7122 72.8456 46.8003C71.3918 47.3609 71.8393 47.9504 70.6245 48.6853C70.0944 49.0052 68.5742 49.4491 67.859 49.6324L67.4673 49.7672C66.9821 49.9505 66.5184 50.2793 66.0315 50.6639C64.8365 51.2317 64.4627 51.2138 64.2453 51.3126C64.0279 51.6073 63.584 51.6738 63.3127 51.9506C63.6289 51.9973 64.5292 52.053 64.7916 51.9416C65.1564 52.0063 65.5589 51.8463 65.8715 51.8823C66.0135 51.911 66.1824 51.8931 66.2004 51.9164C66.2363 51.9631 66.213 51.9164 66.1357 51.9739C66.1357 51.9739 66.0854 51.9919 66.0081 52.0656L65.9003 52.0674C65.3971 52.2866 65.5661 52.2147 65.2192 52.274C65.2067 52.2758 65.1689 52.2938 65.1671 52.283C65.1653 52.2722 65.133 52.2884 65.115 52.292L64.0458 52.283L63.8032 52.2668L62.9245 52.2111C62.4178 52.1698 61.9524 52.15 61.4474 52.1249C61.1994 52.1123 60.964 52.1033 60.734 52.0943C60.4321 52.0835 60.2776 52.0296 60.0871 52.1626C60.301 52.3118 62.7035 52.4915 63.1905 52.5274C63.4115 52.5616 63.7224 52.6029 63.9218 52.5669L64.3801 52.6388C64.5346 52.6155 64.9677 52.6604 65.0252 52.628C65.2408 52.6766 65.611 52.6496 65.7296 52.7305L64.5634 52.7718L63.6056 52.797C62.0207 52.7574 60.0566 52.3962 58.5597 52.4573C58.6208 52.54 58.5381 52.4771 58.6639 52.5364L59.699 52.7089C60.5507 52.8131 62.6029 52.9893 63.1258 53.0971C63.3414 53.142 63.6361 53.1708 63.7709 53.2498C63.6775 53.2534 63.5571 53.2516 63.4385 53.2534C63.3702 53.2552 63.3037 53.257 63.2354 53.266C63.0916 53.284 63.1905 53.2624 63.0916 53.2983L63.0198 53.2732C61.6774 53.2336 59.4312 52.9102 58.1087 52.6604C57.5246 52.5508 56.9856 52.3836 56.5327 52.6011C55.7618 53.9201 62.265 54.9031 63.9254 54.9283L64.4448 54.9588C65.2426 55.1205 67.3199 55.1762 68.1986 55.1888C69.408 55.2068 70.5706 55.223 71.7512 55.1709C73.771 55.0846 76.2185 54.9498 77.9382 53.5517C79.9867 51.8877 82.9804 47.8605 83.0631 46.944C83.3991 46.5253 83.8358 46.0617 84.0981 45.634C84.5905 44.8325 83.9526 43.9142 83.5159 43.5458L83.4099 43.4164C83.3003 43.3176 83.1997 43.2349 83.0254 43.2098C82.8888 42.9762 82.4324 42.9456 82.2634 42.7354C83.1781 42.8827 83.9993 43.5135 84.285 43.9232C85.108 45.1074 84.4432 45.5531 84.542 45.8316L84.2581 46.3654C84.2275 46.4373 84.2419 46.3815 84.2257 46.4516C84.2239 46.4588 84.2221 46.493 84.2293 46.4858C84.2347 46.4804 84.2383 46.5055 84.2509 46.5253L84.4126 46.4247C85.6148 45.7831 86.1269 44.6258 85.9939 43.686C85.9724 43.5314 85.9257 43.4901 85.9616 43.3589C86.0317 43.2385 86.0496 43.2511 86.0119 43.1235C86.0101 43.1181 86.0083 43.1109 86.0065 43.1055C85.9778 43.0049 86.0047 43.0624 85.9293 43.0516C86.0263 43.1181 85.9221 43.093 86.0065 43.1055C86.0299 43.1091 86.0676 43.1163 86.1251 43.1271C86.3695 43.3338 86.3911 44.1047 86.2976 44.5593C86.2365 44.8577 86.0874 45.1973 85.9113 45.5136C85.7262 45.846 85.4333 46.1264 85.2967 46.3762C85.223 46.4067 85.2446 46.3923 85.1566 46.4462C85.1512 46.4498 85.1458 46.4534 85.1404 46.4552C85.0721 46.493 85.1943 46.3851 85.1404 46.4552C85.1314 46.466 85.117 46.484 85.0973 46.5055C84.9212 46.5738 84.5474 46.8434 84.3623 46.9566C83.4297 47.6341 83.3488 47.068 82.8043 48.2019C81.5698 50.1086 79.8232 51.8697 79.4835 52.398L79.4799 52.4016Z" fill="#1A1214"/>
<path fill-rule="evenodd" clip-rule="evenodd" d="M71.6884 50.8723L70.9481 51.0287C70.9013 51.0431 70.8546 51.061 70.8097 51.079C70.7971 51.0844 70.763 51.1149 70.7612 51.106C70.7594 51.097 70.7288 51.1257 70.7127 51.1347C70.9732 51.1563 71.365 51.1383 71.6111 51.0251C71.9993 51.0035 72.6444 50.9011 73.0487 50.8292C73.498 50.7483 74.0892 50.5561 74.4719 50.5111C73.9526 50.9137 72.5815 51.3342 71.7818 51.4204L70.5653 51.6451C70.5635 51.6343 70.5294 51.6666 70.5096 51.6756C70.8007 51.6828 71.2014 51.6828 71.4458 51.5552C71.8843 51.5588 72.8043 51.3558 73.3452 51.3306C73.6507 51.3432 73.9939 51.3216 74.2886 51.2012L74.6822 51.1599C73.9364 51.5822 71.8447 51.9128 70.7091 52.0853C69.9687 52.1968 66.9678 52.4304 66.3442 52.1608C66.3101 52.1698 66.3424 52.1914 66.1681 52.2004C66.1448 52.2022 66.0675 52.204 66.0477 52.2004C65.8375 52.1572 65.922 52.2183 65.9004 52.0656L66.0082 52.0638L66.3478 52.0332L68.019 51.6109C68.4 51.5786 69.4206 51.2875 69.8429 51.1832C70.4216 51.0431 71.0756 50.8184 71.5554 50.6405C73.5051 49.9127 73.949 49.2442 74.5564 48.8489C73.94 50.1589 72.4845 50.5111 71.6866 50.8723H71.6884Z" fill="#3B6B74"/>
<path fill-rule="evenodd" clip-rule="evenodd" d="M75.3506 53.1294C75.1493 53.2265 73.2266 53.3702 72.9678 53.3882C71.2589 53.5032 66.9156 53.6596 65.4709 53.4727L64.4556 53.3756L64.2705 53.3361C64.1878 53.2049 64.1124 53.2462 64.1142 53.0576C64.8635 53.036 65.8698 53.1797 66.6479 53.2085C67.045 53.2229 67.435 53.2283 67.8213 53.2193C68.0477 53.2139 68.7953 53.2013 68.9768 53.2247C69.3721 53.2696 70.4449 53.1869 70.833 53.1222C71.1062 53.0773 70.9642 53.0899 71.0792 53.0306C71.3092 53.0288 71.8393 52.921 72.1322 52.8743C75.3739 52.3531 74.4916 53.1079 75.3542 53.1294H75.3506Z" fill="#3B6B74"/>
<path fill-rule="evenodd" clip-rule="evenodd" d="M103.563 39.4129C104.929 39.1307 103.823 41.422 107.601 40.7966C103.234 42.4157 102.751 40.3725 103.563 39.4129Z" fill="#3B6B74"/>
<path fill-rule="evenodd" clip-rule="evenodd" d="M106.596 46.6998C107.184 46.4859 107.504 45.4868 109.225 45.2837C109.741 45.2945 110.061 45.2837 110.573 45.3053C110.647 45.3933 111.883 45.4472 111.153 45.8893L111.168 45.8767C111.11 45.9396 111.198 45.8821 111.062 45.9684C111.01 46.0007 110.992 46.0025 110.932 46.0384C110.325 46.2954 110.093 45.3196 106.598 46.6998H106.596Z" fill="#3B6B74"/>
<path fill-rule="evenodd" clip-rule="evenodd" d="M111.682 45.2244C111.381 45.1884 109.68 45.5928 108.864 45.1525C108.999 44.9818 109.089 44.9926 109.266 44.8057C110.345 44.9944 110.824 44.8506 111.886 44.8686C112.045 44.8686 112.224 44.9512 112.302 45.1004L112.3 45.1776C112.043 45.2711 111.983 45.325 111.797 45.546C111.761 45.4203 111.779 45.4185 111.797 45.2873L111.68 45.2226L111.682 45.2244Z" fill="#1C313E"/>
<path fill-rule="evenodd" clip-rule="evenodd" d="M113.319 43.6303C113.252 43.8388 113.549 43.3715 113.656 43.1739C113.842 42.8756 113.804 42.7713 113.992 42.4604C114.016 43.2727 113.888 43.5944 113.344 44.3743C113.164 44.5971 112.587 45.0194 112.339 45.1632L112.302 45.1776L112.303 45.1003C112.24 44.9799 112.206 44.9619 112.063 44.908C112.007 44.8864 111.948 44.8685 111.888 44.8685C111.719 44.8667 111.856 44.8739 111.768 44.9044C111.525 44.8325 111.204 44.9979 110.975 44.8918C110.769 45.0051 110.691 44.9206 110.463 44.9655L107.795 44.89C108.163 44.6474 108.084 44.7553 108.287 44.6151C109.962 44.7822 111.816 44.6331 113.32 43.6303H113.319Z" fill="#3B6B74"/>
<path fill-rule="evenodd" clip-rule="evenodd" d="M99.5593 37.7344C99.8809 37.9284 99.969 37.8458 99.6132 37.9213C99.0993 38.1135 97.9151 38.2627 97.5629 38.5862L98.1397 38.809L98.1181 38.8719C97.7408 38.7156 97.1424 38.6994 96.916 39.0318C96.8171 37.6876 98.8171 37.4918 99.5593 37.7362V37.7344Z" fill="#799E96"/>
<path fill-rule="evenodd" clip-rule="evenodd" d="M99.6131 37.9212C99.6599 37.923 99.6832 37.9158 99.7192 37.932C99.836 37.9877 99.7677 37.9176 99.8036 38.0165L99.7102 38.3579L98.9447 38.6059C98.8207 38.649 98.8962 38.6401 98.7416 38.6832C98.5997 38.7227 98.7308 38.7012 98.5583 38.7101C98.1648 38.7317 98.3355 38.7658 98.1396 38.809L97.5628 38.5861C97.915 38.2627 99.0992 38.1135 99.6131 37.9212Z" fill="#272324"/>
<path fill-rule="evenodd" clip-rule="evenodd" d="M102.587 46.1336C102.165 46.1858 100.749 47.2424 100.463 47.5713L100.469 47.5659C100.237 47.8013 99.8755 48.468 99.5341 48.4842L99.6096 48.2865C99.8342 48.1895 100.287 47.5371 100.639 47.237L100.702 47.2604C100.936 46.8111 103.239 45.5532 103.685 45.3214C105.074 44.6008 105.915 44.1964 107.457 43.7256C108.305 43.3518 109.202 42.2413 110.021 42.5342C109.861 42.5252 109.782 42.5863 109.647 42.7283C109.299 42.9116 109.175 42.9547 108.929 43.1829C107.822 44.2018 104.276 45.2118 102.591 46.1336H102.587ZM110.134 42.6079C110.16 42.3347 110.345 42.4875 110.442 42.6294C109.861 43.4021 106.224 45.4094 106.192 45.4741C105.978 45.4957 105.401 45.8587 105.062 46.0366C104.914 46.1139 105.006 46.0474 104.891 46.1642C103.802 46.5883 102.747 47.0465 101.669 47.4994C101.568 47.4149 101.545 47.5461 101.588 47.4113C101.685 47.4473 102.447 47.0681 102.625 46.9962C102.758 46.9423 102.778 46.9046 102.921 46.8543C103.36 46.6961 103.789 46.5164 104.217 46.3169L107.002 44.8146C107.006 44.7535 108.361 43.9934 108.573 43.846C108.957 43.5783 109.477 43.235 109.737 42.9421C109.836 42.8307 109.978 42.7121 110.133 42.6043L110.134 42.6079Z" fill="#BFE6D8"/>
<path fill-rule="evenodd" clip-rule="evenodd" d="M104.602 42.7947L104.555 42.8072C103.013 43.2008 99.6707 45.2458 99.6221 45.2548C102.621 42.4676 108.603 41.3427 108.623 42.0273L108.69 42.0147L108.655 42.2699C107.867 42.3957 105.631 43.0031 104.129 43.7794C103.293 44.3185 101.728 45.2836 101.556 45.3698C101.556 45.3698 101.597 45.2782 101.68 45.3465C101.75 45.1596 102.729 44.802 102.862 44.6169L104.682 43.7525C105.741 43.3769 107.487 42.7102 108.26 42.7228C108.384 42.7246 108.469 42.7551 108.496 42.8252C106.429 43.5907 105.931 43.2098 102.814 44.8325L101.617 45.4561C99.8198 46.7428 100.522 45.9089 98.393 48.184C97.4406 47.7437 103.444 43.934 104.027 43.695C105.112 42.9097 107.123 42.4514 107.606 42.1675L105.617 42.5988C105.43 42.5557 104.833 42.7246 104.602 42.7965V42.7947Z" fill="#BFE6D8"/>
<path fill-rule="evenodd" clip-rule="evenodd" d="M63.1905 52.5257C62.7017 52.4916 60.301 52.3119 60.0871 52.1609C60.2776 52.028 60.4321 52.0819 60.734 52.0927C60.964 52.1016 61.1994 52.1106 61.4474 52.1232C61.9542 52.1484 62.4178 52.1681 62.9245 52.2095L63.8032 52.2652L64.0458 52.2813C64.0279 52.2921 64.0117 52.2939 63.9937 52.3137L63.8068 52.4161L65.0252 52.6264C64.9677 52.6587 64.5346 52.6138 64.3801 52.6372L63.9218 52.5653C63.7224 52.6012 63.4115 52.5599 63.1905 52.5257ZM63.1258 53.0972C62.6029 52.9894 60.5507 52.8151 59.699 52.709L58.6639 52.5365C58.5381 52.4772 58.6208 52.5401 58.5597 52.4575C60.0566 52.3964 62.0188 52.7576 63.6056 52.7971C63.0557 52.8762 63.0916 52.9121 63.1258 53.0972Z" fill="#8DBAB1"/>
<path fill-rule="evenodd" clip-rule="evenodd" d="M110.488 48.5489L110.47 48.5418C110.521 48.3818 111.252 47.3288 111.441 46.9765C111.728 46.4374 112.124 45.7276 112.339 45.1633C112.503 45.0573 112.327 45.0789 112.616 45.0339C112.35 45.706 110.936 48.256 110.488 48.5489ZM112.713 46.2415C112.519 46.7339 112.089 47.2119 111.806 47.6001C111.468 48.0619 111.13 48.3782 110.806 48.7646L110.781 48.6963C111.006 48.4088 111.25 48.1464 111.487 47.8032C111.892 47.2209 112 46.9729 112.143 46.7034L112.134 46.8058L112.271 46.6567L112.084 47.0736C112.346 46.8777 112.539 46.317 112.756 46.0331L112.713 46.2397V46.2415ZM109.121 49.1779C109.186 49.0467 109.586 48.6586 109.734 48.4789C109.942 48.2219 110.127 47.9577 110.336 47.672C110.729 47.1383 111.112 46.4464 111.435 45.839C111.487 45.7959 111.532 45.7276 111.592 45.6L111.714 45.6323C111.378 46.344 110.912 47.0484 110.505 47.6792C110.224 48.1141 109.372 49.0288 109.119 49.1797L109.121 49.1779Z" fill="#3B6B74"/>
<path fill-rule="evenodd" clip-rule="evenodd" d="M98.2618 38.9456L98.1199 38.8683L98.1414 38.8054C98.3373 38.7623 98.1666 38.73 98.5601 38.7066C98.7326 38.6976 98.6015 38.7192 98.7434 38.6796C98.898 38.6365 98.8225 38.6455 98.9465 38.6024L99.712 38.3544L99.8054 38.0129C99.9546 38.1495 99.7048 38.5269 99.6149 38.6329C99.2681 38.8018 98.8279 39.0265 98.4307 39.0912L98.2618 38.9438V38.9456Z" fill="#313C4F"/>
<path fill-rule="evenodd" clip-rule="evenodd" d="M112.965 41.4525C112.921 41.4022 112.842 41.3123 112.808 41.2656C112.691 41.1039 112.697 41.1973 112.74 40.9925C112.977 40.9547 113.272 41.1129 113.464 41.2746C113.656 41.4363 113.789 41.6088 113.818 41.8478C113.982 42.0186 113.955 42.1462 113.955 42.2737L113.825 42.1479C113.594 42.4948 113.673 42.2719 113.315 41.7742C113.186 41.5945 113.231 41.6214 113.146 41.6735L112.963 41.4525H112.965Z" fill="#3B6B74"/>
<path fill-rule="evenodd" clip-rule="evenodd" d="M113.135 43.3375C113.241 42.8415 113.401 42.3383 113.173 41.8442L113.148 41.6734C113.231 41.6213 113.187 41.5944 113.317 41.7741C113.674 42.2718 113.595 42.4947 113.827 42.1478L113.957 42.2736L113.992 42.4623C114.088 43.8299 113.141 44.1911 113.135 43.3375Z" fill="#282629"/>
<path fill-rule="evenodd" clip-rule="evenodd" d="M111.798 45.5477L111.718 45.6322C111.633 45.6897 111.529 45.7292 111.351 45.7939L111.166 45.8748C111.135 45.7921 111.123 45.6987 111.074 45.625C110.819 45.2368 109.078 45.5981 109.426 45.2548C109.48 45.244 109.559 45.2279 109.631 45.2315C109.723 45.2189 109.777 45.2512 109.865 45.2458C110.226 45.1991 111.119 45.1326 111.683 45.2243C111.892 45.3375 111.847 45.3734 111.8 45.5477H111.798Z" fill="#BFE6D8"/>
<path fill-rule="evenodd" clip-rule="evenodd" d="M86.1234 43.1308C85.8467 43.0751 86.0479 43.138 85.9257 43.0553C86.0066 43.0661 85.9724 43.0032 86.0084 43.1272C86.0461 43.2548 86.0282 43.2422 85.9581 43.3626C85.8251 43.2332 85.7658 43.041 85.7065 42.8774C85.6867 42.6312 85.2537 42.3114 85.2555 42.2413C85.2573 42.1011 85.1261 42.2287 85.3579 42.1604C85.5106 42.3167 85.6849 42.4156 85.8269 42.5881C85.9886 42.7876 86.1396 42.899 86.1234 43.1308Z" fill="#361B17"/>
<path fill-rule="evenodd" clip-rule="evenodd" d="M109.008 44.705C108.876 44.7678 108.231 45.3842 108.036 45.5442L107.498 45.9665C107.142 46.2432 106.585 46.6242 106.194 46.829C105.987 46.9369 105.814 46.9638 105.635 47.1094L106.388 46.847C106.776 46.59 107.141 46.4337 107.514 46.0833C107.978 45.74 109.464 44.6762 109.804 44.2593C110.325 43.5279 109.009 44.705 109.009 44.705H109.008Z" fill="#BFE6D8"/>
<path fill-rule="evenodd" clip-rule="evenodd" d="M109.222 44.1299L107.574 45.3375C107.568 45.3375 106.149 46.3007 105.935 46.3995L105.238 46.7374C105.13 46.75 105.004 46.7931 104.9 46.8344C104.738 46.8991 104.695 46.8973 104.575 46.953C104.497 47.0033 104.627 47.0393 104.35 47.0015C104.425 46.9369 104.364 46.9602 104.456 46.9243C104.537 46.8919 104.512 46.9099 104.58 46.8991L105.985 46.2432C106.077 46.1839 106.154 46.1462 106.255 46.0797L107.757 45.023C108.018 44.8451 108.589 44.3222 108.584 44.3294C108.578 44.3383 109.081 43.952 109.367 43.8334L109.613 43.6573L109.664 43.6177C110.054 43.4704 110.228 43.3715 110.512 43.0589C110.654 42.9618 110.722 42.9205 110.842 43.0355C110.812 43.1164 110.792 43.0571 110.727 43.1577C110.514 43.3985 110.352 43.5063 110.17 43.5962L110.01 43.6662C110.012 43.6662 109.301 44.0418 109.222 44.1317V44.1299ZM111.09 42.9402L111.247 42.9241C111.32 43.1775 111.051 43.2529 110.67 43.7777C110.564 43.9232 110.366 44.1694 110.305 44.2862L109.831 44.8343C109.712 45.0248 109.633 45.014 109.549 45.1883C109.254 45.2638 108.744 46.1875 107.628 46.75L107.633 46.6889L107.991 46.4265C108.104 46.3349 108.217 46.2198 108.336 46.1192C108.582 45.9125 108.808 45.7005 109.049 45.4723C109.213 45.2656 109.757 44.7355 109.806 44.5989C109.836 44.5773 111.078 42.9564 111.09 42.9384V42.9402Z" fill="#BFE6D8"/>
<path fill-rule="evenodd" clip-rule="evenodd" d="M113.484 44.2324C113.32 44.9997 113.062 45.573 112.715 46.2433L112.758 46.0366C112.83 45.7509 112.979 45.4795 113.08 45.2064C113.187 44.9134 113.263 44.5918 113.34 44.3114L113.412 44.1587L113.486 44.2342L113.484 44.2324Z" fill="#3B6B74"/>
<path fill-rule="evenodd" clip-rule="evenodd" d="M106.769 37.7001C107.056 37.869 107.505 38.3398 107.493 38.6669C107.371 38.7352 107.441 38.728 107.261 38.7046L107.218 38.6076C107.212 38.5932 107.205 38.5788 107.198 38.5626L107.062 38.3272C107.182 38.453 107.27 38.5339 107.394 38.6381C107.398 38.2248 107.293 38.3883 107.033 38.1385C106.846 37.9588 106.765 37.86 106.546 37.6821C106.535 37.6641 106.487 37.5491 106.481 37.5383L106.769 37.7001Z" fill="#3B6B74"/>
<path fill-rule="evenodd" clip-rule="evenodd" d="M112.936 44.9584L112.271 46.6619L112.134 46.8111L112.143 46.7069L112.724 45.2369L112.974 44.7769L112.936 44.9584Z" fill="#3B6B74"/>
<path fill-rule="evenodd" clip-rule="evenodd" d="M107.259 38.7048L107.256 38.7246L107.094 38.6437C107.002 38.1819 106.846 38.0525 106.497 37.7021L106.544 37.6841C106.763 37.862 106.844 37.9608 107.031 38.1405C107.292 38.3921 107.396 38.2286 107.392 38.6401C107.27 38.5359 107.182 38.4568 107.06 38.3292L107.196 38.5646C107.204 38.579 107.211 38.5952 107.216 38.6096L107.259 38.7066V38.7048Z" fill="#19232E"/>
<path fill-rule="evenodd" clip-rule="evenodd" d="M109.328 42.4264C109.453 42.448 109.491 42.3563 109.696 42.3527C109.84 42.3491 109.992 42.3977 110.131 42.4192C110.16 42.5217 110.145 42.4947 110.134 42.6079C109.958 42.7301 109.876 42.7589 109.644 42.7301C109.779 42.5881 109.859 42.5252 110.018 42.536C109.658 42.4084 109.484 42.5234 109.443 42.527C109.159 42.554 109.356 42.5756 109.326 42.4282L109.328 42.4264Z" fill="#3B6B74"/>
<path fill-rule="evenodd" clip-rule="evenodd" d="M107.283 38.0256C107.414 38.1657 107.565 38.3023 107.61 38.482C107.676 38.7587 107.516 38.9187 107.257 38.7264L107.261 38.7066C107.441 38.73 107.371 38.7372 107.493 38.6689C107.507 38.3418 107.058 37.871 106.769 37.7021C106.812 37.6985 106.787 37.6733 106.869 37.7093C106.887 37.7165 106.972 37.7812 106.999 37.8009C107.089 37.8728 107.18 37.9483 107.283 38.0256Z" fill="#799E96"/>
<path fill-rule="evenodd" clip-rule="evenodd" d="M110.084 42.9744C110.199 42.8936 110.352 42.7121 110.443 42.6294L110.611 42.6725C110.735 42.6833 110.726 42.7228 110.672 42.8522C110.605 43.0086 110.663 42.9151 110.469 42.9708C109.897 43.138 110.055 43.0948 110.084 42.9744Z" fill="#3B6B74"/>
<path fill-rule="evenodd" clip-rule="evenodd" d="M110.488 48.5488C110.35 48.7986 110.025 49.0916 109.885 49.1724C109.77 49.3863 109.484 49.5444 109.281 49.663L109.682 49.2677C109.908 49.0718 109.705 49.2048 109.886 49.1724L110.357 48.601C110.425 48.5524 110.409 48.5686 110.472 48.5435L110.49 48.5506L110.488 48.5488ZM109.123 49.1796C109.015 49.3557 108.722 49.5444 108.661 49.5839C108.603 49.6217 108.594 49.6199 108.557 49.6414L108.916 49.2731C109.139 49.088 108.945 49.2084 109.123 49.1796ZM110.806 48.7681C110.693 48.9694 110.521 49.088 110.379 49.1455C110.481 48.9622 110.611 48.7807 110.783 48.6998L110.808 48.7681H110.806Z" fill="#799E96"/>
<path fill-rule="evenodd" clip-rule="evenodd" d="M111.579 42.6384L111.84 42.3293C111.858 42.3527 112.019 42.297 111.827 42.5648C111.73 42.6995 111.723 42.6528 111.579 42.6402V42.6384Z" fill="#3B6B74"/>
<path fill-rule="evenodd" clip-rule="evenodd" d="M111.96 43.4596L111.854 43.4111C111.917 43.2332 111.974 43.0535 112.122 43.0858L112.111 43.1577L111.96 43.4578V43.4596Z" fill="#3B6B74"/>
<path fill-rule="evenodd" clip-rule="evenodd" d="M110.553 42.1837C110.665 42.0418 110.799 41.8998 110.981 41.9393C110.88 42.1011 110.717 42.1442 110.553 42.1837Z" fill="#3B6B74"/>
<path fill-rule="evenodd" clip-rule="evenodd" d="M111.153 42.3617C111.27 42.2053 111.293 42.1352 111.511 42.1155C111.39 42.3167 111.362 42.279 111.2 42.4138C111.126 42.4569 111.239 42.4803 111.02 42.4695L111.153 42.3617Z" fill="#3B6B74"/>
<path fill-rule="evenodd" clip-rule="evenodd" d="M111.241 43.0752C111.396 43.0968 111.319 43.1183 111.464 43.0285L111.586 43.0249L111.479 43.2208C111.351 43.1956 111.471 43.2819 111.32 43.1759C111.213 43.1004 111.295 43.1687 111.241 43.0734V43.0752Z" fill="#3B6B74"/>
<path fill-rule="evenodd" clip-rule="evenodd" d="M111.083 42.9385H111.09C110.97 43.1074 110.957 43.1434 110.727 43.1577C110.85 42.9852 110.909 42.9277 111.081 42.9385H111.083Z" fill="#3B6B74"/>
<path fill-rule="evenodd" clip-rule="evenodd" d="M110.161 41.6285C110.264 41.5422 110.201 41.5404 110.431 41.5584C110.319 41.7866 110.296 41.7417 110.161 41.6285Z" fill="#3B6B74"/>
<path fill-rule="evenodd" clip-rule="evenodd" d="M112.21 42.7211L112.195 42.7247C112.107 42.7031 112.124 42.7301 112.151 42.6384C112.228 42.545 112.203 42.5252 112.352 42.5468C112.296 42.6438 112.276 42.669 112.212 42.7211H112.21Z" fill="#3B6B74"/>
<path fill-rule="evenodd" clip-rule="evenodd" d="M101.556 45.3232L101.554 45.37L101.556 45.3232Z" fill="#B4896E"/>
<path fill-rule="evenodd" clip-rule="evenodd" d="M107.552 39.9967C107.358 39.9931 107.029 40.3112 106.704 40.3723C106.58 40.3004 106.424 40.3813 106.273 40.295C105.825 40.2591 105.992 40.1818 105.852 40.1261C105.883 40.1297 105.912 40.1333 105.942 40.1351C106.799 40.2034 107.241 39.7182 107.552 39.9967Z" fill="#799E96"/>
<path fill-rule="evenodd" clip-rule="evenodd" d="M105.284 40.1801C104.911 39.9716 104.806 39.2061 103.928 38.9491C104.494 38.9527 104.785 38.7425 105.033 38.6221C105.543 38.3759 105.806 38.295 106.693 38.8485C106.965 39.0695 106.735 38.8862 106.695 38.9653C106.442 38.8826 106.447 38.6921 105.928 38.5753C105.602 38.5017 105.187 38.676 105.148 38.9653C105.484 38.7029 106.136 38.6005 106.557 39.0551C106.587 39.0893 106.602 39.1396 106.62 39.1863C106.589 39.3732 106.499 39.5098 106.393 39.5475C106.298 39.614 106.093 39.6122 105.991 39.5889C106.133 39.6697 106.3 39.6392 106.433 39.6967C106.19 39.738 105.838 39.6572 105.674 39.5655C105.324 39.3678 105.502 39.0533 105.189 39.0318C105.218 39.2834 105.223 39.5619 105.31 39.6607C105.328 39.6769 105.345 39.6949 105.365 39.7111C105.354 39.7236 105.29 39.7039 105.407 39.8782C105.739 40.3562 106.021 40.3778 106.576 40.3526C106.569 40.3598 106.562 40.367 106.553 40.3742C106.1 40.5647 105.673 40.5054 105.288 40.1801H105.284Z" fill="#1C313E"/>
<path fill-rule="evenodd" clip-rule="evenodd" d="M106.391 39.9733C106.571 39.9517 107.144 39.7091 107.29 39.7577L106.796 39.3372C106.733 39.4432 106.787 39.5025 106.713 39.5941C106.548 39.772 106.122 39.6858 105.98 39.6103C106.062 39.5762 106.274 39.6031 106.416 39.5726C106.643 39.4612 106.513 39.321 106.621 39.1844C106.346 38.7998 106.039 38.7046 105.665 38.7513C105.46 38.7765 105.265 38.8861 105.15 38.9634C105.189 38.6741 105.604 38.5015 105.929 38.5734C106.447 38.6902 106.442 38.8807 106.697 38.9634C106.738 38.8843 106.776 39.0442 106.695 38.8466C107.16 39.1646 107.178 39.578 107.84 39.9751C107.752 40.0003 107.498 39.9356 107.247 39.9104C107.204 39.9068 106.851 40.0164 106.648 40.0721C106.528 40.1045 106.449 40.0021 106.393 39.9715L106.391 39.9733Z" fill="#3B6B74"/>
<path fill-rule="evenodd" clip-rule="evenodd" d="M105.363 39.7129L105.308 39.6626C105.216 39.5638 105.142 39.269 105.159 39.0318C105.547 38.9743 105.331 39.3301 105.683 39.5368C105.845 39.6356 106.192 39.7309 106.431 39.6985C106.53 39.6698 106.646 39.6734 106.709 39.5961C106.785 39.5045 106.731 39.4452 106.792 39.3391L107.286 39.7596C106.702 39.7722 106.199 40.3455 105.36 39.7129H105.363Z" fill="#19232E"/>
<path fill-rule="evenodd" clip-rule="evenodd" d="M105.363 39.7129C105.831 40.0651 106.129 40.0166 106.826 39.9178C106.691 40.1927 106.174 40.1334 105.935 40.137C105.852 40.1388 106.041 40.2538 106.274 40.2969C106.425 40.3832 106.582 40.3005 106.706 40.3742L106.569 40.4137L106.535 40.4047L106.558 40.3832C106 40.3904 105.717 40.3634 105.383 39.8692C105.288 39.7075 105.353 39.7273 105.363 39.7165V39.7129Z" fill="#3B6B74"/>
<path fill-rule="evenodd" clip-rule="evenodd" d="M106.152 39.6266C106.007 39.6086 105.856 39.5637 105.779 39.517C105.694 39.4667 105.834 39.499 105.865 39.508C106.032 39.5565 106.233 39.5709 106.397 39.517C106.474 39.4918 106.548 39.3445 106.585 39.1863C106.6 39.1216 106.657 39.1917 106.681 39.2941C106.691 39.3427 106.657 39.3966 106.641 39.4343C106.623 39.4792 106.508 39.6733 106.152 39.6284V39.6266Z" fill="#FEFEFE"/>
<path fill-rule="evenodd" clip-rule="evenodd" d="M73.0055 48.9659C72.9157 49.0557 71.7674 49.5122 71.6129 49.5715C70.5886 49.9704 67.9309 50.9157 66.9588 51.108L66.2885 51.2607L66.1573 51.2769C66.0567 51.2266 66.0261 51.2625 65.9561 51.1673C66.4179 51.0073 67.0989 50.8797 67.5967 50.7396C67.8501 50.6677 68.0962 50.5922 68.3334 50.5113C68.4718 50.4646 68.9354 50.3083 69.0576 50.2849C69.3218 50.2292 69.9615 49.974 70.1807 49.8626C70.3353 49.7853 70.2508 49.8195 70.2993 49.7674C70.4431 49.7207 70.7342 49.5607 70.8995 49.478C72.7324 48.5669 72.4611 49.1276 73.0073 48.9659H73.0055Z" fill="#3B6B74"/>
<path fill-rule="evenodd" clip-rule="evenodd" d="M20.0652 42.5611C19.6896 42.2736 18.6905 42.3005 18.0023 42.2304C17.3913 42.1675 17.3608 42.0723 16.9942 42.0435C16.7426 42.0238 16.1892 41.9375 16.0184 41.8243C15.907 41.8207 15.8998 41.7938 15.8172 41.7686C15.7705 41.7542 15.713 41.747 15.6644 41.7273C15.4057 41.6266 15.3086 41.6464 14.9798 41.5224C13.9753 41.2978 12.9672 40.6976 12.1118 40.5071C11.8387 40.446 11.0193 40.6167 10.8001 40.7802C10.2879 41.163 10.455 40.9689 10.2053 41.2708C9.96806 41.5583 9.38405 41.641 9.34631 41.7596C9.33194 41.8027 9.2978 41.9555 9.30139 41.9699C9.2385 42.11 9.36069 42.0525 9.05521 42.1891C8.97973 42.2214 8.96715 42.2448 8.8791 42.2358C8.79465 42.2286 8.69222 42.2574 8.78207 42.1783C8.80543 42.137 8.93481 42.146 8.93481 42.0957C8.93301 41.9627 9.1163 42.0112 9.08396 41.8566C8.9977 41.4559 9.91056 41.4092 10.0292 41.0965C10.0831 40.9527 10.4802 40.7263 10.8432 40.5772C11.3427 40.3723 12.0597 40.2321 12.3976 40.4154C12.6635 40.5592 14.7552 41.3373 15.4093 41.42C16.0041 41.623 17.1182 41.5422 17.5477 41.783L17.6788 41.8207L17.7022 41.8225C18.0832 41.8602 19.0661 41.8908 19.3213 41.977C21.1829 42.4838 20.4749 42.4101 22.9583 42.3131C23.3141 42.3059 23.5926 42.3257 23.9179 42.3365C24.4157 42.3005 25.3375 42.2754 25.767 42.4856C25.652 42.5 25.7113 42.491 25.6609 42.491C25.6609 42.491 25.5837 42.4874 25.5675 42.4856C25.4956 42.482 25.4633 42.482 25.3986 42.4784C25.1326 42.4982 24.9529 42.4964 24.6888 42.5054C22.0077 42.6042 20.7049 42.8594 20.0652 42.5593V42.5611Z" fill="#3B6B74"/>
<path fill-rule="evenodd" clip-rule="evenodd" d="M16.0148 42.9996C15.907 42.9637 15.6536 42.9511 15.5656 42.908C15.3607 42.9313 15.0426 42.8127 14.8719 42.7678C14.7551 42.7372 14.6635 42.7157 14.5431 42.6779C14.4263 42.642 14.3364 42.6168 14.2322 42.6061C13.9645 42.4569 11.4056 41.3553 11.2169 41.2134C12.4658 41.1055 13.4344 41.8819 13.8459 42.0454L14.6042 42.3509C15.0355 42.5504 15.6824 42.5791 15.8908 42.6761L15.9501 42.6672C16.0903 42.6797 16.1711 42.6905 16.3005 42.6905C16.3365 42.7157 16.4317 42.7229 16.509 42.7354L19.3248 43.0679C18.996 43.1272 18.836 43.1506 18.3023 43.1793C17.7363 43.1128 16.6671 43.0302 16.0184 42.9978L16.0148 42.9996ZM8.60952 43.8119L7.71643 43.6304L7.68408 43.6088C8.90961 43.7669 10.6041 44.1174 11.3858 44.3258C11.7219 44.3294 12.0022 44.3402 12.3598 44.3438C12.8845 44.4732 13.8459 44.5666 14.1675 44.6349C13.5134 44.7805 13.6051 44.7302 13.1199 44.6529L11.1792 44.5091L8.61132 43.8119H8.60952ZM9.78294 43.0284C9.79731 43.0194 9.72723 42.9924 10.0273 43.0032C10.1351 43.0068 10.1873 43.014 10.2861 43.0248C10.694 43.0697 11.1971 43.2548 11.6248 43.3321C11.7722 43.3788 11.747 43.359 11.9069 43.4273L12.7946 43.7148C12.9905 43.7795 13.1864 43.8514 13.3769 43.9125C13.7722 43.9736 13.9303 44.0131 14.4119 44.0671C14.8594 44.1156 15.1199 44.1264 15.4919 44.2378L14.9977 44.2755C14.7497 44.2755 12.6581 43.9341 12.0759 43.8622L9.78653 43.0302L9.78294 43.0284ZM15.9573 43.7634L15.5009 43.6789C15.3068 43.5441 13.429 43.3249 12.8324 43.1092L10.8755 42.4084C10.6994 42.3491 10.3687 42.2628 10.243 42.2017C10.2735 42.1388 10.2142 42.1909 10.3418 42.1496C10.597 42.0669 11.1953 42.1442 11.2708 42.1424C11.3391 42.182 11.4972 42.1963 11.6212 42.2233C12.0363 42.3096 12.4029 42.5504 12.6024 42.6222C13.163 42.9349 13.5979 43.1452 14.9079 43.3357C15.1217 43.3644 15.411 43.4417 15.6177 43.4543C15.6644 43.4704 15.6338 43.4632 15.7021 43.4776C15.9016 43.5208 15.9789 43.5477 16.0777 43.7598C16.0184 43.758 16.013 43.7616 15.9555 43.7634H15.9573Z" fill="#3B6B74"/>
<path fill-rule="evenodd" clip-rule="evenodd" d="M8.07399 44.9908C7.64451 44.9711 5.16829 44.8417 5.05509 44.8578L4.64538 44.7662C4.50162 44.7339 4.38841 44.7177 4.23926 44.6781C4.10629 44.6422 3.57259 44.4535 3.47376 44.4517C3.23836 44.2469 3.34977 44.1426 3.569 43.9342C3.7469 43.767 4.20872 43.6269 4.60585 43.5658C4.74781 43.5514 5.01735 43.4849 5.19166 43.4454C5.35338 43.4256 5.65348 43.4058 5.8152 43.3699C6.27702 43.3483 6.05599 43.3501 6.37585 43.2926C6.51422 43.2513 6.67415 43.2657 6.8215 43.1632C7.22582 43.0087 6.76759 42.8775 7.19707 42.7373C7.69483 42.5972 7.84397 42.5954 7.81522 42.4013C7.95539 42.085 8.49268 42.0778 8.77121 42.1246C8.7766 42.1461 8.79996 42.1785 8.78558 42.1803C8.40283 42.2198 8.27345 42.2791 8.18899 42.333C7.89429 42.6475 8.09196 42.6493 7.92663 42.7661C7.77389 42.8721 7.31387 42.9368 7.2366 43.0375C7.17011 43.1255 7.2941 43.3861 6.4693 43.4669C6.14405 43.5227 5.67144 43.5891 5.15392 43.5658C4.87 43.6413 3.86011 43.7563 3.57978 44.1049C3.44321 44.3044 3.69299 44.4104 3.88886 44.4571C7.13238 44.9477 8.84488 44.6889 11.5763 45.0951C11.8081 45.1723 12.1549 45.1454 12.446 45.1418C13.1235 45.2226 14.225 45.4473 14.2376 45.4527C14.3023 45.4742 14.3939 45.485 14.5035 45.4886C14.6221 45.5048 14.7371 45.5102 14.8306 45.5102C15.3876 45.5102 15.7722 45.4383 16.1891 45.4383L17.048 45.4041C16.1999 45.6126 15.2079 45.7707 14.3005 45.6701C13.2654 45.5551 12.5574 45.352 10.7622 45.2766C10.198 45.2442 9.09825 45.0429 8.07039 44.9944L8.07399 44.9908Z" fill="#1C2635"/>
<path fill-rule="evenodd" clip-rule="evenodd" d="M40.8793 49.9471C27.8945 46.353 27.1434 50.0423 17.1738 50.567C16.1783 50.6048 15.9896 50.7198 15.4038 50.7306C15.0031 50.7378 14.0543 50.8096 13.6338 50.9354C13.4631 50.9336 13.4128 50.9642 13.2528 50.9911C13.163 51.0055 13.0659 51.0109 12.9653 51.0307C12.4316 51.1367 12.3184 51.1079 11.6481 51.2355C9.82602 51.4458 7.42528 52.1269 5.88887 52.2886C5.42346 52.3371 4.57349 52.0047 4.52498 51.7746C4.40997 51.2355 4.34169 51.4979 4.46388 51.0918C4.58068 50.7072 3.90862 50.5293 4.0398 50.3765C4.08831 50.3208 4.27879 50.1268 4.30575 50.1088C4.43872 49.9255 4.51599 50.0135 4.30754 49.8051C4.25543 49.753 4.26981 49.726 4.14043 49.7242C4.01284 49.7224 3.91041 49.6775 3.93377 49.7727C3.91221 49.8213 4.11347 49.8195 4.04339 49.877C3.8601 50.0261 4.19074 49.9866 3.93198 50.1573C3.26351 50.5976 4.37403 50.8384 4.04698 51.2535C3.89784 51.444 4.09191 51.7836 4.35786 52.0244C4.72444 52.3551 5.49534 52.648 6.21232 52.4701C6.84486 52.3138 11.2456 51.3775 12.3777 51.2876C13.6032 51.0486 15.19 51.169 16.2214 50.8779L16.4802 50.833H16.482L16.5215 50.8294C17.1648 50.7899 18.7228 50.7683 19.2475 50.6677C20.6276 50.9426 24.996 49.9399 30.0419 49.0989C33.5711 48.5112 37.5011 49.1797 40.8758 49.9489L40.8793 49.9471Z" fill="#1C2635"/>
<path fill-rule="evenodd" clip-rule="evenodd" d="M16.3419 48.9101C16.1371 48.9425 15.7579 48.9317 15.5692 48.9748C15.3105 48.9281 14.6851 49.0377 14.3742 49.0754C14.1622 49.1006 14.0041 49.1168 13.7759 49.1491C13.5548 49.1815 13.3913 49.2012 13.2296 49.203C12.6312 49.3522 7.38405 50.4106 6.90966 50.558C8.52872 50.806 11.0409 49.9811 11.8621 49.8266L13.3895 49.5373C14.2934 49.3432 15.2566 49.3719 15.6932 49.2767L15.7633 49.2929C15.9807 49.2929 16.1119 49.2875 16.2934 49.3001C16.3797 49.2749 16.527 49.2749 16.6546 49.2677L21.1434 49.1455C20.7624 49.0449 20.5684 49 19.8514 48.9155C18.9493 48.9407 17.3087 48.9335 16.3401 48.9083L16.3419 48.9101ZM6.99411 47.2353L5.45951 47.3647L5.38403 47.3862C7.3571 47.3161 10.279 47.0663 11.695 46.8956C12.1784 46.9226 12.5899 46.9388 13.1074 46.9675C14.04 46.8651 15.5477 46.8471 16.1029 46.7986C15.3859 46.5632 15.4416 46.6315 14.6384 46.6764L11.6662 46.6584L6.99591 47.2353H6.99411ZM7.52062 48.2758C7.52781 48.2883 7.38765 48.3135 7.8315 48.3297C7.99143 48.3351 8.07229 48.3333 8.23042 48.3297C8.87733 48.3153 9.86207 48.1446 10.5809 48.096C10.8594 48.0547 10.7929 48.0763 11.1217 48.0116L12.8019 47.7582C13.1757 47.7007 13.5602 47.6342 13.9178 47.5803C14.5665 47.5479 14.854 47.5138 15.6141 47.4976C16.3239 47.4833 16.7085 47.4958 17.4003 47.3988L16.7516 47.3071C16.4012 47.282 12.9259 47.4851 11.9933 47.5138L7.52062 48.2775V48.2758ZM17.377 48.0008L16.6061 48.0565C16.1335 48.1967 13.1433 48.274 11.9789 48.4734L8.17292 49.1132C7.83689 49.1653 7.2403 49.2372 6.97435 49.2965C6.92403 49.3755 6.91505 49.3073 7.03724 49.3684C7.27983 49.4905 8.2448 49.4564 8.34902 49.4654C8.50356 49.4259 8.74975 49.4223 8.96359 49.4043C9.68057 49.3414 10.5539 49.0916 10.9402 49.0287C12.1927 48.7124 13.12 48.5058 15.2601 48.4069C15.6052 48.3944 16.1317 48.3297 16.4461 48.3333C16.536 48.3189 16.4821 48.3243 16.6007 48.3135C16.9475 48.2811 17.0966 48.2578 17.5459 48.017C17.4596 48.0134 17.4578 48.008 17.377 48.0008Z" fill="#3B6B74"/>
<path fill-rule="evenodd" clip-rule="evenodd" d="M7.95364 45.7868C7.31572 45.7689 3.6014 45.6844 3.46303 45.6538L2.74604 45.7221C2.49267 45.7473 2.30938 45.7545 2.03804 45.7886C1.79725 45.8192 0.762194 45.9881 0.620234 45.9827C-0.0140943 46.2019 -0.00870346 46.3367 0.000281358 46.6027C0.00746921 46.8183 0.462101 47.0268 0.938296 47.1382C1.11799 47.1705 1.40371 47.2748 1.59778 47.3359C1.77568 47.3934 2.12609 47.4796 2.27883 47.5569C2.83409 47.6791 2.55556 47.6306 2.87542 47.769C2.98684 47.8498 3.21685 47.8624 3.242 48.0241C3.51874 48.3009 2.69573 48.3961 3.02637 48.6603C3.44506 48.937 3.64991 48.9586 3.27794 49.221L3.2438 49.2659C3.14497 49.4168 3.17192 49.5804 3.4217 49.6774C3.57624 49.7313 3.79727 49.7727 4.05603 49.7745C4.08837 49.7529 4.16564 49.7205 4.14588 49.7187C3.65171 49.6612 3.55647 49.5876 3.51335 49.5229C3.62116 49.0808 3.8979 49.1024 3.86016 48.9316C3.82602 48.7735 3.31029 48.6243 3.37318 48.4842C3.43608 48.344 4.03267 48.0152 3.15755 47.6845C2.85027 47.5228 2.37946 47.3089 1.71818 47.1939C1.42527 47.0771 0.156617 46.8435 0.268029 46.4032C0.365065 46.1534 0.873606 46.0528 1.22042 46.0168C6.55021 45.7491 8.60953 46.2199 13.0858 46.0025C13.526 45.9342 13.9843 45.9971 14.3904 46.0312C15.6788 46.0582 16.1226 45.7509 17.3877 45.8066C17.4865 45.8228 18.3257 45.8102 19.0247 45.8659C19.1595 45.8767 19.1739 45.8749 19.3176 45.9072C19.5171 45.9557 19.7327 46.0025 19.9124 46.0474C20.0346 46.033 19.9322 46.06 20.0292 46.0132C19.9681 45.8893 19.4686 45.7365 19.1847 45.6916C19.0912 45.6772 19.014 45.6808 18.9349 45.6664C18.5162 45.582 18.2215 45.6197 17.8657 45.5694C18.6024 45.3969 18.5467 45.2226 20.2359 45.1453C19.1919 44.9224 18.7246 45.174 17.7309 45.4418C17.8621 45.3376 19.1397 44.7859 19.4416 44.6403C19.5728 44.5774 20.2431 44.3761 20.1209 44.2539C20.0616 44.2611 19.8352 44.333 19.7345 44.3636C19.6087 44.4031 19.4344 44.4372 19.3482 44.484C19.323 44.4858 19.3087 44.4732 19.1972 44.5163C19.0876 44.5576 18.9457 44.6205 18.8073 44.6349C19.2206 44.3744 18.3922 44.7589 18.3509 44.7913C18.2826 44.82 18.2484 44.8362 18.1856 44.8685C18.1065 44.9081 17.8028 45.0932 17.5422 45.2118C17.9376 44.9278 18.2071 44.6008 18.6168 44.3672C18.624 44.351 18.6132 44.3618 18.6402 44.3366L18.8576 44.1839C19.1361 43.988 19.4578 43.8676 19.5944 43.7795C19.6483 43.7436 19.6663 43.7274 19.6627 43.6951C19.2404 43.8011 18.4946 44.2072 18.1658 44.4031C18.0238 44.4876 17.0732 45.1471 16.9798 45.2872C16.8073 45.3627 16.9403 45.2711 16.642 45.3573C15.2619 45.7545 14.4479 46.0905 12.1927 45.7113C11.3427 45.6952 9.48466 45.8264 7.95185 45.785L7.95364 45.7868Z" fill="#3B6B74"/>
</g>
<defs>
<clipPath id="clip0_320_2112">
<rect width="114" height="87" fill="white"/>
</clipPath>
</defs>
</svg>
