<svg width="100" height="101" viewBox="0 0 100 101" fill="none" xmlns="http://www.w3.org/2000/svg">
<g id="Frame" clip-path="url(#clip0_62_5235)">
<g id="Mask group">
<mask id="mask0_62_5235" style="mask-type:luminance" maskUnits="userSpaceOnUse" x="0" y="0" width="117" height="101">
<g id="Group">
<path id="Vector" d="M116.111 50.9199C116.111 78.5339 77.614 100.92 50 100.92C22.386 100.92 0 78.5339 0 50.9199C0 23.3059 22.386 0.919922 50 0.919922C77.614 0.919922 116.111 23.3059 116.111 50.9199Z" fill="white"/>
</g>
</mask>
<g mask="url(#mask0_62_5235)">
<g id="Group_2">
<path id="Vector_2" d="M50 100.92C77.6142 100.92 100 78.5342 100 50.9199C100 23.3057 77.6142 0.919922 50 0.919922C22.3858 0.919922 0 23.3057 0 50.9199C0 78.5342 22.3858 100.92 50 100.92Z" fill="#EDEDED"/>
<path id="Vector_3" fill-rule="evenodd" clip-rule="evenodd" d="M6.07001 33.887H27.923V33.325H6.07001V33.887ZM5.05301 49.833H19.423V49.246H5.05201L5.05301 49.833ZM11.485 40.44H29.27V39.877H11.485V40.44ZM3.33301 58.318H25.198V57.756H3.33301V58.318ZM9.43401 74.24H23.83V73.652H9.43401V74.24ZM14.57 64.77H36.408V64.234H14.57V64.77Z" fill="#CCCCCC"/>
<path id="Vector_4" fill-rule="evenodd" clip-rule="evenodd" d="M83.746 28.0298C85.277 28.4438 85.486 29.8158 85.066 31.3258C84.646 32.8358 83.756 33.9098 82.224 33.4968C80.694 33.0818 80.389 32.0518 80.81 30.5418C81.23 29.0318 82.213 27.6148 83.746 28.0298Z" fill="#996D35"/>
<path id="Vector_5" fill-rule="evenodd" clip-rule="evenodd" d="M90.574 45.9018C90.947 45.5868 94.961 47.3438 94.961 47.3438C94.961 47.3438 95.121 47.6838 94.606 47.6128C94.092 47.5398 91.402 46.6248 91.157 46.8048C90.914 46.9848 92.522 49.1058 92.033 49.5078C91.545 49.9118 90.2 46.2178 90.574 45.9018Z" fill="#1A1A1A"/>
<path id="Vector_6" fill-rule="evenodd" clip-rule="evenodd" d="M28.818 73.6679C31.8551 75.9319 39.1471 81.7729 40.9281 80.2609C43.9661 77.6829 39.572 74.9089 39.625 73.7679C39.68 72.6259 46.4081 69.7849 46.0961 64.6579C45.5711 61.4659 45.7981 56.3709 49.0661 56.5859C52.3321 56.7979 38.152 32.8759 32.398 41.2449C26.644 49.6149 21.216 52.1299 25.796 56.7409C30.376 61.3509 29.8421 65.0129 29.363 66.6029C28.883 68.1929 25.783 71.4039 28.818 73.6679Z" fill="#996D35"/>
<path id="Vector_7" fill-rule="evenodd" clip-rule="evenodd" d="M67.664 62.5238C67.776 62.9938 70.1779 68.2298 71.1959 70.0528C72.216 71.8758 73.204 73.4528 70.966 75.7628C68.729 78.0708 63.2059 80.6028 62.8489 77.8608C62.4909 75.1178 63.9489 74.5388 64.3359 74.1798C64.7239 73.8228 59.019 71.0678 59.019 71.0678C59.019 71.0678 47.7189 63.6778 46.7249 61.5558C45.7319 59.4358 62.0219 52.2558 64.695 53.1718C67.368 54.0838 67.045 59.9578 67.664 62.5238Z" fill="#996D35"/>
<path id="Vector_8" fill-rule="evenodd" clip-rule="evenodd" d="M60.834 63.3069C64.272 61.4729 67.8349 58.6039 71.437 56.0399C75.039 53.4739 75.48 52.4029 78.882 50.7999C82.351 49.1639 85.222 47.1199 87.524 47.8299C89.347 48.3899 91.684 50.2629 92.362 49.6529C92.318 48.6329 90.7319 46.1099 90.964 45.9759C91.242 45.8159 94.919 47.7189 95.358 47.3899C96.678 46.3979 98.318 44.7999 97.815 43.5769C97.148 41.9459 94.055 40.2699 93.48 39.3159C92.906 38.3599 93.433 36.7669 92.073 35.5209C90.713 34.2739 84.671 28.6539 76.422 29.7139C68.172 30.7739 70.962 31.6079 67.289 31.7589C63.616 31.9089 56.069 24.4439 43.219 25.4589C30.367 26.4749 25.807 27.9459 20.614 36.6659C15.42 45.3859 14.644 49.4459 17.489 55.2519C20.334 61.0589 22.964 63.8169 22.269 65.3279C21.574 66.8379 18.057 69.6049 20.753 72.2549C23.448 74.9049 29.863 81.6669 31.837 80.4089C35.203 78.2619 31.235 74.9229 31.447 73.8009C31.657 72.6789 38.715 70.7639 39.117 65.6439C41.95 67.1149 50.432 63.6489 53.69 63.3459C56.95 63.0419 57.397 65.1389 60.835 63.3059L60.834 63.3069Z" fill="#B37F3E"/>
<g id="Mask group_2">
<mask id="mask1_62_5235" style="mask-type:luminance" maskUnits="userSpaceOnUse" x="15" y="25" width="83" height="56">
<g id="Group_3">
<path id="Vector_9" fill-rule="evenodd" clip-rule="evenodd" d="M43.219 25.46C30.367 26.475 25.807 27.946 20.614 36.666C15.42 45.386 14.644 49.445 17.489 55.252C20.334 61.06 22.964 63.817 22.269 65.328C21.574 66.839 18.057 69.604 20.754 72.255C23.448 74.905 29.864 81.667 31.837 80.408C35.203 78.263 31.235 74.924 31.447 73.8C31.657 72.679 38.715 70.763 39.117 65.644C41.95 67.114 50.432 63.649 53.69 63.345C54.925 63.231 55.758 63.462 56.501 63.691C57.719 64.068 58.701 64.445 60.835 63.307C64.271 61.473 67.8349 58.604 71.437 56.039C75.039 53.474 75.48 52.404 78.882 50.799C82.352 49.165 85.222 47.119 87.524 47.829C89.347 48.39 91.684 50.263 92.362 49.653C92.318 48.633 90.7319 46.11 90.965 45.976C91.098 45.9 92.015 46.299 92.981 46.698C94.026 47.13 95.129 47.562 95.358 47.39C96.678 46.398 98.318 44.8 97.816 43.576C97.148 41.946 94.056 40.271 93.48 39.316C92.907 38.36 93.433 36.767 92.073 35.52C90.713 34.274 84.671 28.653 76.422 29.714C68.172 30.774 70.962 31.609 67.29 31.758C65.55 31.829 62.946 30.196 59.322 28.563C55.775 26.963 51.25 25.365 45.608 25.365C44.832 25.365 44.037 25.395 43.219 25.459V25.46Z" fill="white"/>
</g>
</mask>
<g mask="url(#mask1_62_5235)">
<g id="Group_4">
<path id="Vector_10" fill-rule="evenodd" clip-rule="evenodd" d="M95.7769 39.4481C99.8339 39.1101 103.367 41.6801 103.669 45.1901C103.97 48.7001 100.926 51.8201 96.8689 52.1571C92.8129 52.4941 89.2809 49.9251 88.9789 46.4151C88.6759 42.9051 91.7199 39.7871 95.7769 39.4481Z" fill="#EEC082"/>
</g>
</g>
</g>
<path id="Vector_11" fill-rule="evenodd" clip-rule="evenodd" d="M81.709 27.2968C83.296 27.3548 83.818 28.6418 83.76 30.2068C83.705 31.7708 83.09 33.0168 81.503 32.9618C79.915 32.9068 79.38 31.9718 79.437 30.4078C79.495 28.8418 80.121 27.2408 81.709 27.2968ZM70.064 55.2398C70.064 55.2398 58.509 66.0358 55.858 69.0298C53.208 72.0258 48.302 77.8618 46.521 80.6548C45.074 82.9248 53.365 87.3218 46.801 88.0998C42.534 88.6058 38.299 84.4448 38.611 80.9598C38.921 77.4728 46.845 62.6978 48.045 60.6168C49.245 58.5348 63.574 42.5718 70.064 55.2398ZM25.769 32.8468C26.803 34.0338 22.759 36.8368 21.554 37.8558C20.348 38.8758 19 39.2778 17.967 38.0908C16.933 36.9028 17.267 35.8808 18.473 34.8628C19.679 33.8428 24.735 31.6598 25.769 32.8468Z" fill="#B37F3E"/>
<path id="Vector_12" fill-rule="evenodd" clip-rule="evenodd" d="M90.932 45.9018C91.306 45.5868 95.32 47.3438 95.32 47.3438C95.32 47.3438 95.281 47.7498 94.765 47.6768C94.251 47.6058 91.633 46.1668 91.389 46.3478C91.146 46.5278 92.879 49.1058 92.392 49.5078C91.902 49.9118 90.559 46.2178 90.932 45.9018Z" fill="#D6AD76"/>
<path id="Vector_13" fill-rule="evenodd" clip-rule="evenodd" d="M63.1201 40.6558L36.7071 47.8038L37.6011 43.7588L22.3181 46.4158L23.1481 42.8578L4.00806 43.3108L27.6821 38.2468L26.8121 41.4198L43.4581 38.7728L42.0191 42.7308L63.1201 40.6558ZM43.4371 51.6288L20.5691 57.8038L21.2871 54.6308L5.04006 56.8468L25.9871 51.5818L24.8311 54.6868L43.3171 51.5868" fill="#EDAF19"/>
<path id="Vector_14" fill-rule="evenodd" clip-rule="evenodd" d="M46.312 87.36C46.229 87.78 46.907 87.754 46.66 88.698C47.246 88.586 47.116 87.279 46.752 87.049C46.388 86.819 46.394 86.94 46.312 87.36ZM47.386 87.27C47.303 87.69 47.983 87.664 47.736 88.608C48.32 88.497 48.19 87.188 47.826 86.959C47.462 86.729 47.468 86.85 47.386 87.27ZM48.042 86.503C47.959 86.924 48.637 86.899 48.391 87.842C48.975 87.73 48.846 86.424 48.481 86.194C48.118 85.964 48.124 86.084 48.041 86.504L48.042 86.503ZM90.197 38.858C90.588 38.825 90.94 39.193 90.981 39.681C91.023 40.17 90.741 40.591 90.349 40.623C89.958 40.657 89.605 40.287 89.564 39.8C89.522 39.311 89.805 38.89 90.197 38.858ZM97.764 42.915C96.666 41.803 96.211 41.985 95.974 43.065C95.752 44.07 96.647 46.045 97.589 45.064C98.281 44.34 98.763 43.924 97.764 42.915ZM63.148 76.263C62.738 76.123 62.668 76.788 61.755 76.415C61.785 77.003 63.117 77.058 63.398 76.735C63.68 76.413 63.558 76.403 63.148 76.263ZM63.089 77.324C62.678 77.184 62.608 77.85 61.695 77.477C61.725 78.063 63.057 78.119 63.338 77.797C63.62 77.474 63.499 77.464 63.089 77.324ZM63.766 78.072C63.356 77.932 63.286 78.597 62.373 78.224C62.403 78.812 63.735 78.866 64.017 78.544C64.297 78.221 64.175 78.211 63.766 78.072Z" fill="#1A1A1A"/>
<path id="Vector_15" fill-rule="evenodd" clip-rule="evenodd" d="M90.0499 39.2199C90.0964 39.2159 90.1425 39.2305 90.1781 39.2605C90.2137 39.2905 90.236 39.3335 90.2399 39.3799C90.2439 39.4263 90.2293 39.4724 90.1993 39.508C90.1693 39.5437 90.1264 39.5659 90.0799 39.5699C90.0333 39.5735 89.987 39.5589 89.951 39.529C89.915 39.4991 89.892 39.4564 89.8869 39.4099C89.885 39.3867 89.8877 39.3633 89.8949 39.3412C89.9021 39.319 89.9136 39.2985 89.9288 39.2808C89.9439 39.2632 89.9625 39.2487 89.9833 39.2382C90.0041 39.2278 90.0267 39.2215 90.0499 39.2199Z" fill="#D4D4D4"/>
</g>
</g>
</g>
</g>
<defs>
<clipPath id="clip0_62_5235">
<rect width="100" height="100" fill="white" transform="translate(0 0.919922)"/>
</clipPath>
</defs>
</svg>
