<svg width="100" height="101" viewBox="0 0 100 101" fill="none" xmlns="http://www.w3.org/2000/svg">
<g id="Frame">
<path id="Vector" fill-rule="evenodd" clip-rule="evenodd" d="M74.4121 92.2021L71.2359 91.5033C70.6805 91.3814 70.1149 91.6608 69.8737 92.1758L68.4963 95.1213C68.2222 95.7071 67.5369 95.9759 66.9378 95.7322L63.9251 94.5068C63.3984 94.2926 62.7936 94.4722 62.4693 94.9389L60.6136 97.6094C60.2443 98.1411 59.5235 98.2899 58.9738 97.9482L56.2119 96.232C55.7291 95.9314 55.1027 96.0064 54.7037 96.4123L52.4238 98.7306C51.9701 99.1916 51.2344 99.2167 50.7506 98.7873L48.3183 96.6288C47.8928 96.2514 47.2628 96.2193 46.8018 96.5516L44.1621 98.4513C43.6371 98.8292 42.9081 98.73 42.5034 98.2248L40.4715 95.6866C40.1157 95.243 39.5003 95.1047 38.9893 95.3544L36.0668 96.7808C35.4856 97.0646 34.7838 96.8438 34.4704 96.2775L32.8966 93.4323C32.6216 92.9344 32.0381 92.6948 31.4925 92.8539L28.3706 93.7669C27.7491 93.9478 27.095 93.6113 26.8821 93.0004L25.8121 89.93C25.6249 89.3933 25.0906 89.0584 24.5258 89.1231L21.2948 89.4952C20.6518 89.5695 20.0636 89.1267 19.957 88.4892L19.4217 85.2822C19.3281 84.7216 18.858 84.3009 18.29 84.2695L15.0426 84.09C14.3966 84.0544 13.8919 83.5187 13.8947 82.8719L13.9093 79.6208C13.9111 79.0524 13.5195 78.5581 12.9647 78.4313L9.79504 77.706C9.16374 77.5616 8.75694 76.9484 8.86928 76.3113L9.43281 73.1093C9.53133 72.5498 9.22865 71.9964 8.70373 71.7777L5.70149 70.5272C5.10414 70.2785 4.80676 69.6053 5.02498 68.9961L6.12195 65.9352C6.31356 65.3999 6.10848 64.8034 5.6283 64.4997L2.88076 62.7598C2.33445 62.4138 2.15473 61.7004 2.47301 61.1369L4.07137 58.3052C4.35091 57.8099 4.24958 57.1872 3.82774 56.8066L1.41401 54.6274C0.933647 54.1937 0.877848 53.4605 1.28632 52.9588L3.3407 50.4377C3.69967 49.9971 3.70534 49.3667 3.35376 48.9198L1.34307 46.364C0.942641 45.856 1.01173 45.1235 1.49914 44.6977L3.94996 42.5602C4.37837 42.1866 4.49044 41.566 4.21933 41.0658L2.66973 38.2078C2.36169 37.6391 2.55312 36.9289 3.1058 36.5915L5.88243 34.8986C6.36797 34.6031 6.58318 34.0098 6.40055 33.4718L5.35645 30.3925C5.14899 29.7796 5.45782 29.1116 6.0591 28.873L9.08248 27.674C9.6111 27.464 9.9231 26.9159 9.83425 26.355L9.32608 23.1433C9.22451 22.5043 9.64202 21.898 10.2751 21.7647L13.4575 21.0931C14.0135 20.9755 14.4145 20.4883 14.4216 19.92L14.4632 16.6689C14.4718 16.0222 14.9852 15.4951 15.6322 15.4704L18.8821 15.3465C19.4502 15.3245 19.9272 14.9117 20.0306 14.3529L20.6214 11.1555C20.7387 10.5192 21.3344 10.0871 21.9757 10.1716L25.2002 10.5987C25.7636 10.6732 26.304 10.347 26.5002 9.81351L27.6231 6.76177C27.8465 6.1548 28.5064 5.82916 29.1244 6.0209L32.2297 6.98637C32.7728 7.15536 33.3602 6.92495 33.6439 6.43259L35.2663 3.61409C35.5887 3.05308 36.2946 2.84406 36.8707 3.13724L39.769 4.61377C40.2755 4.87167 40.8932 4.74426 41.2563 4.30607L43.3318 1.80297C43.7447 1.30528 44.4757 1.2176 44.9938 1.60452L47.6008 3.54884C48.0562 3.88868 48.6868 3.86733 49.1185 3.49738L51.5871 1.37997C52.0786 0.959315 52.8131 0.99679 53.259 1.46567L55.4994 3.82237C55.8908 4.23426 56.5159 4.31957 57.0037 4.02798L59.7951 2.35837C60.3503 2.02635 61.0686 2.18771 61.4286 2.72457L63.2383 5.42622C63.5541 5.89847 64.156 6.08882 64.6865 5.88325L67.7196 4.70951C68.3229 4.4763 69.0035 4.75634 69.2672 5.34664L70.5942 8.3152C70.8257 8.83402 71.3867 9.12246 71.9442 9.0099L75.1325 8.3658C75.7664 8.23712 76.39 8.62868 76.5502 9.25521L77.3561 12.4049C77.4971 12.9556 78.0007 13.335 78.5691 13.3178L81.8203 13.2217C82.4665 13.2018 83.0152 13.6933 83.0675 14.3378L83.3292 17.5787C83.375 18.1446 83.8075 18.6036 84.3703 18.6835L87.5911 19.1377C88.2317 19.2271 88.6892 19.8039 88.6315 20.4482L88.3419 23.6865C88.2906 24.2531 88.6396 24.7782 89.1814 24.9516L92.2786 25.9433C92.8948 26.1401 93.2482 26.786 93.0825 27.4113L92.249 30.5542C92.1032 31.1036 92.3582 31.6807 92.8622 31.9427L95.7479 33.4436C96.3217 33.7415 96.5613 34.4375 96.2917 35.0256L94.9397 37.983C94.7025 38.4999 94.8564 39.1117 95.3097 39.4551L97.8996 41.422C98.4142 41.8132 98.5327 42.5391 98.1681 43.0737L96.3348 45.7603C96.0147 46.2294 96.0632 46.8582 96.451 47.2734L98.6715 49.649C99.1127 50.1218 99.1061 50.8581 98.6568 51.3226L96.3962 53.6607C96.001 54.0696 95.942 54.6973 96.2541 55.1723L98.041 57.8891C98.3964 58.4294 98.2656 59.1537 97.7441 59.5363L95.1205 61.4581C94.6623 61.7946 94.4979 62.4034 94.7251 62.9245L96.027 65.9038C96.2859 66.4966 96.0346 67.1883 95.4554 67.477L92.5453 68.9286C92.036 69.1823 91.7715 69.7542 91.9075 70.3063L92.6867 73.4634C92.8419 74.0913 92.4772 74.7306 91.8577 74.917L88.7442 75.8565C88.1995 76.0202 87.8418 76.5399 87.8826 77.1071L88.1171 80.3497C88.1631 80.9948 87.6961 81.5633 87.0541 81.6427L83.8263 82.0422C83.2618 82.1116 82.8218 82.5634 82.7661 83.1291L82.4486 86.3654C82.3856 87.0091 81.8292 87.4904 81.1826 87.4601L77.9338 87.3085C77.366 87.2817 76.8552 87.6524 76.7049 88.2005L75.8454 91.3369C75.6742 91.9605 75.044 92.3412 74.4121 92.2021Z" fill="#FFC233"/>
<path id="Vector_2" fill-rule="evenodd" clip-rule="evenodd" d="M89.5386 43.1651C93.36 64.9931 78.7571 85.7875 56.9214 89.6103C35.0857 93.433 14.2864 78.8371 10.4651 57.0091C6.64356 35.1801 21.247 14.3861 43.0822 10.5634C64.9178 6.74016 85.7172 21.3367 89.5386 43.1651Z" stroke="#D49B1C" stroke-width="3.23466"/>
<path id="Vector_3" fill-rule="evenodd" clip-rule="evenodd" d="M86.4926 43.6982C90.0196 63.8447 76.5414 83.0367 56.3883 86.5649C36.2356 90.093 17.0393 76.6217 13.5117 56.4753C9.98471 36.3288 23.4629 17.1369 43.6161 13.6087C63.7693 10.0805 82.9656 23.5518 86.4926 43.6982Z" fill="#BD8404"/>
<path id="Vector_4" fill-rule="evenodd" clip-rule="evenodd" d="M73.9587 45.8928C76.2739 59.1191 67.4258 71.7191 54.1946 74.0357C40.964 76.3522 28.3611 67.5077 26.0452 54.281C23.73 41.0547 32.5781 28.4542 45.8094 26.1386C59.04 23.8221 71.6428 32.6661 73.9587 45.8928Z" stroke="#FFC921" stroke-width="1.03612" stroke-linecap="round" stroke-dasharray="1.04 3.11"/>
<path id="Vector_5" fill-rule="evenodd" clip-rule="evenodd" d="M25.081 36.875L21.0236 34.602L21.6409 33.5007L25.6987 35.7731L25.081 36.875Z" fill="#FFBD21"/>
<path id="Vector_6" fill-rule="evenodd" clip-rule="evenodd" d="M28.743 31.4327L27.7556 32.7526L24.1135 32.1518L24.0965 32.1749C24.5336 32.4503 24.861 32.67 25.0784 32.833L26.7576 34.0875L26.0907 34.9793L22.365 32.1953L23.348 30.8805L26.9509 31.4597L26.9619 31.4445C26.5689 31.1883 26.2589 30.9744 26.0312 30.8043L24.3465 29.5455L25.0167 28.6484L28.743 31.4327Z" fill="#FFBD21"/>
<path id="Vector_7" fill-rule="evenodd" clip-rule="evenodd" d="M29.6025 27.2961C29.3104 26.9856 29.0321 26.8132 28.7687 26.7793C28.5042 26.7456 28.2475 26.8459 27.9973 27.0818L27.7307 27.3323L29.5173 29.2289L29.7212 29.0365C29.9992 28.7751 30.1272 28.5025 30.1052 28.2189C30.0828 27.9359 29.9148 27.6279 29.6025 27.2961ZM30.521 26.3699C31.0535 26.9345 31.3078 27.5164 31.2849 28.115C31.2619 28.7131 30.9677 29.2781 30.4046 29.8086L29.3088 30.8405L26.1195 27.4557L27.2919 26.3516C27.8355 25.8399 28.3857 25.5838 28.9433 25.5833C29.5004 25.5828 30.0267 25.8451 30.521 26.3699Z" fill="#FFBD21"/>
<path id="Vector_8" fill-rule="evenodd" clip-rule="evenodd" d="M35.0096 26.1563L32.7504 27.7432L30.0759 23.9384L32.3361 22.3508L32.9162 23.176L31.6842 24.0411L32.1048 24.6397L33.2449 23.8383L33.825 24.6635L32.6849 25.4649L33.1894 26.1829L34.421 25.3183L35.0096 26.1563Z" fill="#FFBD21"/>
<path id="Vector_9" fill-rule="evenodd" clip-rule="evenodd" d="M35.5108 22.9446L35.7137 22.8391C35.8813 22.7519 35.9897 22.6351 36.0396 22.4894C36.0896 22.3442 36.0713 22.1889 35.985 22.0234C35.8397 21.7452 35.613 21.6863 35.3051 21.8468L35.0169 21.9964L35.5108 22.9446ZM37.1107 21.4296C37.3511 21.8903 37.4004 22.3171 37.2593 22.7098C37.1181 23.1025 36.7972 23.4291 36.2971 23.6901L35.9838 23.8531L36.6967 25.2209L35.5826 25.8016L33.4333 21.6774L34.8607 20.9343C35.3822 20.6626 35.8325 20.5721 36.2123 20.6637C36.5932 20.7551 36.892 21.0105 37.1107 21.4296Z" fill="#FFBD21"/>
<path id="Vector_10" fill-rule="evenodd" clip-rule="evenodd" d="M41.7472 23.0877L39.1504 24.0286L37.566 19.6569L40.1622 18.7156L40.5058 19.6633L39.0907 20.176L39.3405 20.8644L40.6508 20.3892L40.9945 21.3374L39.6842 21.8121L39.9831 22.6377L41.3982 22.125L41.7472 23.0877Z" fill="#FFBD21"/>
<path id="Vector_11" fill-rule="evenodd" clip-rule="evenodd" d="M46.707 22.0026L45.0895 22.3216L42.7887 19.4365L42.7605 19.4415C42.9001 19.9395 42.9959 20.3211 43.0488 20.5876L43.4542 22.6443L42.3614 22.8597L41.4617 18.297L43.0721 17.9798L45.3586 20.8225L45.3769 20.8187C45.2579 20.3651 45.17 19.9985 45.115 19.7197L44.7084 17.6569L45.8074 17.4404L46.707 22.0026Z" fill="#FFBD21"/>
<path id="Vector_12" fill-rule="evenodd" clip-rule="evenodd" d="M50.1286 19.5032C50.1195 19.0767 50.0281 18.7625 49.8551 18.561C49.6826 18.3589 49.4244 18.2618 49.0805 18.269L48.7139 18.2771L48.7708 20.8814L49.0505 20.8754C49.4329 20.8672 49.7099 20.7507 49.8832 20.5251C50.057 20.2995 50.1386 19.959 50.1286 19.5032ZM51.4319 19.4303C51.4487 20.2063 51.2478 20.8088 50.8297 21.2377C50.4115 21.6665 49.8149 21.8896 49.0414 21.9071L47.5367 21.9393L47.4359 17.2902L49.0458 17.2552C49.792 17.2388 50.3727 17.4171 50.7869 17.7901C51.2015 18.1625 51.4163 18.7096 51.4319 19.4303Z" fill="#FFBD21"/>
<path id="Vector_13" fill-rule="evenodd" clip-rule="evenodd" d="M54.9103 22.2789L52.1688 21.9432L52.7357 17.3274L55.4763 17.6633L55.354 18.6642L53.8601 18.4815L53.7714 19.2075L55.1546 19.3768L55.0312 20.3773L53.6481 20.2079L53.5411 21.0792L55.0351 21.2623L54.9103 22.2789Z" fill="#FFBD21"/>
<path id="Vector_14" fill-rule="evenodd" clip-rule="evenodd" d="M59.8314 23.5663L58.2458 23.1155L57.5087 19.4992L57.4814 19.4913C57.3789 19.9982 57.2906 20.3821 57.2161 20.6431L56.6423 22.6595L55.5708 22.3543L56.8445 17.8818L58.4234 18.3306L59.1668 21.902L59.1857 21.9076C59.2851 21.4488 59.3738 21.0823 59.452 20.809L60.0274 18.7866L61.1049 19.0933L59.8314 23.5663Z" fill="#FFBD21"/>
<path id="Vector_15" fill-rule="evenodd" clip-rule="evenodd" d="M62.4562 24.7844L61.317 24.2538L62.8472 20.9696L61.8174 20.4901L62.2511 19.5591L65.4469 21.0466L65.0132 21.9781L63.9864 21.5002L62.4562 24.7844Z" fill="#FFBD21"/>
<path id="Vector_16" fill-rule="evenodd" clip-rule="evenodd" d="M63.9375 25.5382L66.432 21.6125L67.4924 22.2864L65.5425 25.3551L67.0546 26.3155L66.5104 27.172L63.9375 25.5382Z" fill="#FFBD21"/>
<path id="Vector_17" fill-rule="evenodd" clip-rule="evenodd" d="M70.1556 26.3716L71.8831 25.576L72.9212 26.4568L69.9198 27.6276L68.7435 29.0124L67.7786 28.1933L68.9295 26.8383L69.6222 23.6584L70.6653 24.543L70.1556 26.3716Z" fill="#FFBD21"/>
<path id="Vector_18" fill-rule="evenodd" clip-rule="evenodd" d="M8.39504 71.4259L96.3839 56.021L91.6098 28.7476L3.61987 44.1527L8.39504 71.4259Z" fill="#FFC233"/>
<path id="Vector_19" fill-rule="evenodd" clip-rule="evenodd" d="M33.5219 76.1228L33.8145 75.2669C33.8769 75.0752 33.9621 74.8297 34.0684 74.5304C34.1757 74.2303 34.2557 74.0186 34.3098 73.8938C34.2227 73.9842 34.0741 74.1309 33.8633 74.3324C33.652 74.534 33.2229 74.922 32.5767 75.4963L33.5219 76.1228ZM32.7844 78.2505L33.1179 77.2727L31.6736 76.3161L30.8974 76.9989L29.5782 76.1249L33.9875 72.6252L35.5889 73.6873L34.0972 79.1209L32.7844 78.2505Z" fill="#FFBD21"/>
<path id="Vector_20" fill-rule="evenodd" clip-rule="evenodd" d="M40.9804 76.3576L39.679 79.2907C39.3961 79.9288 38.9959 80.3423 38.4795 80.5317C37.9632 80.722 37.3655 80.6657 36.6848 80.364C36.0201 80.0696 35.5851 79.6738 35.3793 79.1753C35.1731 78.6774 35.212 78.1098 35.4949 77.4717L36.8094 74.5083L38.1335 75.095L36.8642 77.9548C36.7115 78.2999 36.6648 78.5782 36.725 78.7906C36.7848 79.0036 36.9402 79.1654 37.1914 79.277C37.4603 79.3955 37.6893 79.4053 37.8793 79.3047C38.0692 79.2036 38.2419 78.9776 38.3974 78.6273L39.6637 75.7738L40.9804 76.3576Z" fill="#FFBD21"/>
<path id="Vector_21" fill-rule="evenodd" clip-rule="evenodd" d="M43.5482 79.7047C43.6677 79.2313 43.663 78.8569 43.5329 78.5807C43.4034 78.305 43.1474 78.1186 42.7658 78.0226L42.3586 77.92L41.6285 80.8159L41.9393 80.8937C42.3641 81.0006 42.7057 80.9562 42.9661 80.7597C43.2265 80.5637 43.4203 80.2119 43.5482 79.7047ZM45.0111 80.0212C44.7936 80.8835 44.388 81.4887 43.7952 81.8353C43.2024 82.1819 42.4759 82.2471 41.6156 82.0304L39.9421 81.6084L41.2474 76.4402L43.0365 76.891C43.8665 77.1008 44.4535 77.474 44.7974 78.0121C45.1423 78.5501 45.2134 79.2198 45.0111 80.0212Z" fill="#FFBD21"/>
<path id="Vector_22" fill-rule="evenodd" clip-rule="evenodd" d="M45.1946 82.7783L45.8704 77.4912L47.3063 77.6745L46.631 82.9615L45.1946 82.7783Z" fill="#FFBD21"/>
<path id="Vector_23" fill-rule="evenodd" clip-rule="evenodd" d="M49.9627 83.1422L48.5226 83.1059L48.6285 78.9547L47.3265 78.9215L47.3561 77.7437L51.3967 77.8461L51.3664 79.0236L50.0682 78.9914L49.9627 83.1422Z" fill="#FFBD21"/>
<path id="Vector_24" fill-rule="evenodd" clip-rule="evenodd" d="M55.0981 82.7949L51.9487 83.114L51.4111 77.8109L54.561 77.4912L54.6776 78.6412L52.9616 78.8149L53.0458 79.6493L54.6351 79.4885L54.7517 80.6385L53.1624 80.7993L53.2639 81.8008L54.9799 81.6267L55.0981 82.7949Z" fill="#FFBD21"/>
<path id="Vector_25" fill-rule="evenodd" clip-rule="evenodd" d="M58.2904 79.2955C58.1735 78.8209 57.9925 78.4929 57.7483 78.3103C57.5036 78.1278 57.1903 78.0842 56.8084 78.179L56.4007 78.28L57.1195 81.1782L57.4305 81.1012C57.8554 80.9956 58.1362 80.7955 58.2733 80.4997C58.411 80.2043 58.4164 79.8028 58.2904 79.2955ZM59.7297 78.8858C59.9439 79.7496 59.8712 80.4737 59.5113 81.0588C59.1512 81.6434 58.5408 82.0427 57.6797 82.2564L56.0052 82.6716L54.7228 77.4973L56.5139 77.0536C57.3446 76.8479 58.0386 76.9015 58.5959 77.2139C59.1533 77.5267 59.5308 78.0843 59.7297 78.8858Z" fill="#FFBD21"/>
<path id="Vector_26" fill-rule="evenodd" clip-rule="evenodd" d="M63.12 75.8217C62.8111 75.9707 62.6312 76.2128 62.5795 76.549C62.5283 76.8852 62.6094 77.2762 62.8241 77.7203C63.2689 78.6449 63.8428 78.9374 64.5459 78.5989C64.7584 78.4969 64.9509 78.3684 65.1213 78.2131C65.2922 78.0583 65.4583 77.891 65.6194 77.7104L66.1481 78.8079C65.8328 79.1784 65.4217 79.485 64.9154 79.7286C64.1897 80.0775 63.5326 80.1342 62.9441 79.8997C62.3546 79.6659 61.869 79.1512 61.4861 78.3558C61.2472 77.8583 61.1305 77.3763 61.1365 76.9097C61.1425 76.443 61.2726 76.0237 61.5262 75.6514C61.7806 75.2799 62.1457 74.9793 62.6209 74.7513C63.1405 74.5016 63.6906 74.3755 64.2728 74.3733L64.3668 75.5865C64.1489 75.5885 63.9384 75.6034 63.7331 75.6322C63.5282 75.6604 63.3242 75.7238 63.12 75.8217Z" fill="#FFBD21"/>
<path id="Vector_27" fill-rule="evenodd" clip-rule="evenodd" d="M66.7464 75.5388C67.3406 76.3816 67.9309 76.5962 68.5167 76.1827C68.8147 75.9721 68.9637 75.7138 68.9636 75.4073C68.9631 75.1015 68.8102 74.7321 68.5049 74.2992C68.1982 73.8639 67.8984 73.5938 67.6058 73.4901C67.3139 73.3846 67.0219 73.435 66.7318 73.6394C66.1418 74.0558 66.1466 74.6886 66.7464 75.5388ZM69.7445 73.4247C70.2613 74.158 70.4748 74.8412 70.3844 75.4765C70.2934 76.1119 69.9018 76.6735 69.2083 77.1626C68.5252 77.6445 67.8656 77.8221 67.2307 77.6962C66.5957 77.5699 66.0193 77.1404 65.5021 76.4077C64.9905 75.683 64.7815 75.0011 64.8745 74.3627C64.9672 73.7249 65.3591 73.1622 66.0507 72.6745C66.7443 72.1855 67.4033 72.0043 68.0288 72.1313C68.654 72.2588 69.2264 72.6901 69.7445 73.4247Z" fill="#FFBD21"/>
<path id="Vector_28" fill-rule="evenodd" clip-rule="evenodd" d="M72.2519 70.8389C71.9046 70.4943 71.5795 70.308 71.2757 70.2791C70.9725 70.2507 70.6816 70.3759 70.4042 70.6553L70.1089 70.9531L72.229 73.0562L72.4548 72.8288C72.7637 72.518 72.8991 72.2008 72.8632 71.8769C72.8266 71.5525 72.6224 71.2069 72.2519 70.8389ZM73.2688 69.7417C73.9001 70.3686 74.2141 71.0251 74.211 71.7121C74.2078 72.3987 73.893 73.0566 73.2682 73.6868L72.0524 74.9106L68.2682 71.1561L69.5683 69.8467C70.1711 69.2389 70.7919 68.9249 71.4302 68.9022C72.0695 68.8793 72.682 69.1597 73.2688 69.7417Z" fill="#FFBD21"/>
<path id="Vector_29" fill-rule="evenodd" clip-rule="evenodd" d="M77.6902 68.4039L75.8041 70.9466L71.5214 67.771L73.4077 65.2288L74.3363 65.9175L73.3086 67.3026L73.9819 67.8022L74.9341 66.5192L75.8622 67.208L74.9105 68.4903L75.7194 69.0902L76.747 67.7046L77.6902 68.4039Z" fill="#FFBD21"/>
<path id="Vector_30" fill-rule="evenodd" clip-rule="evenodd" d="M21.3058 56.2745L20.3646 54.2224C20.1491 53.7679 19.8811 53.1773 19.5602 52.4517C19.2388 51.7263 19.0199 51.2042 18.9025 50.8861C18.9023 51.2001 18.8836 51.7202 18.8478 52.4468C18.8121 53.174 18.7015 54.6124 18.5176 56.7624L21.3058 56.2745ZM23.6242 61.3914L22.5488 59.0491L18.2914 59.7945L18.0575 62.3656L14.1674 63.0473L16.1401 49.1436L20.8637 48.3171L27.4965 60.7134L23.6242 61.3914Z" fill="#946704"/>
<path id="Vector_31" fill-rule="evenodd" clip-rule="evenodd" d="M36.6601 45.6064L38.0406 53.4925C38.3413 55.2072 38.0875 56.6191 37.2817 57.7304C36.4747 58.8409 35.1577 59.5566 33.329 59.877C31.5424 60.1899 30.089 59.9732 28.9699 59.2272C27.8509 58.4812 27.1411 57.2503 26.8411 55.5365L25.4464 47.57L29.0048 46.9468L30.3509 54.6349C30.5132 55.5612 30.804 56.2033 31.2238 56.5605C31.6437 56.9177 32.1914 57.0378 32.8667 56.9193C33.5893 56.7929 34.0773 56.4934 34.3308 56.0216C34.5837 55.549 34.6275 54.841 34.4622 53.8973L33.1191 46.2266L36.6601 45.6064Z" fill="#946704"/>
<path id="Vector_32" fill-rule="evenodd" clip-rule="evenodd" d="M46.88 50.4119C46.6693 49.2108 46.2766 48.3626 45.7 47.8661C45.1234 47.3695 44.3509 47.2066 43.3827 47.3757L42.3519 47.5564L43.6369 54.8949L44.4256 54.7569C45.5011 54.5689 46.2358 54.1185 46.6282 53.4062C47.0208 52.6943 47.1049 51.696 46.88 50.4119ZM50.5331 49.643C50.9159 51.8289 50.6088 53.6191 49.6118 55.013C48.6146 56.4064 47.0251 57.2944 44.8445 57.6758L40.6041 58.4187L38.3104 45.3175L42.8463 44.5235C44.9499 44.1553 46.6682 44.4082 48.0009 45.2836C49.3331 46.159 50.1777 47.6119 50.5331 49.643Z" fill="#946704"/>
<path id="Vector_33" fill-rule="evenodd" clip-rule="evenodd" d="M52.9755 56.2527L50.6818 43.1515L54.2408 42.5288L56.534 55.63L52.9755 56.2527Z" fill="#946704"/>
<path id="Vector_34" fill-rule="evenodd" clip-rule="evenodd" d="M64.047 54.3144L60.5064 54.934L58.7195 44.7277L55.5191 45.2883L55.0129 42.3938L64.9446 40.6548L65.4513 43.5497L62.26 44.1082L64.047 54.3144Z" fill="#946704"/>
<path id="Vector_35" fill-rule="evenodd" clip-rule="evenodd" d="M75.7907 52.2582L68.0103 53.6206L65.7162 40.52L73.4971 39.1575L73.9943 41.9981L69.7543 42.7405L70.1151 44.8018L74.0417 44.1142L74.5389 46.9548L70.6127 47.6418L71.0457 50.1153L75.2857 49.373L75.7907 52.2582Z" fill="#946704"/>
<path id="Vector_36" fill-rule="evenodd" clip-rule="evenodd" d="M83.2593 44.0428C83.0491 42.8416 82.6558 41.9935 82.0793 41.497C81.5027 41.0004 80.7307 40.8374 79.7625 41.0071L78.7312 41.1873L80.0162 48.5258L80.8049 48.3878C81.8808 48.1997 82.6151 47.7499 83.0076 47.0376C83.4 46.3252 83.4842 45.3274 83.2593 44.0428ZM86.9127 43.2738C87.2961 45.4602 86.9884 47.2499 85.9914 48.6439C84.9943 50.0378 83.4052 50.9252 81.2242 51.3071L76.9842 52.0495L74.6906 38.9488L79.226 38.1549C81.3301 37.7866 83.0479 38.0396 84.381 38.9143C85.7132 39.7898 86.5572 41.2427 86.9127 43.2738Z" fill="#946704"/>
</g>
</svg>
