<svg  viewBox="0 0 96 96" fill="none" xmlns="http://www.w3.org/2000/svg">
<mask id="mask0_320_2082" style="mask-type:luminance" maskUnits="userSpaceOnUse" x="0" y="0" width="96" height="96">
<path d="M48 95.9997C74.5093 95.9997 96 74.5098 96 47.9995C96 21.4902 74.5101 0.000244141 48 0.000244141C21.4907 0.000244141 0 21.4902 0 47.9995C0 74.5089 21.4899 95.9997 48 95.9997Z" fill="white"/>
</mask>
<g mask="url(#mask0_320_2082)">
<path d="M0 0.000244141H96V95.9997H0V0.000244141Z" fill="#EDEDED"/>
</g>
<mask id="mask1_320_2082" style="mask-type:luminance" maskUnits="userSpaceOnUse" x="0" y="0" width="96" height="96">
<path d="M48 95.9997C74.5093 95.9997 96 74.5098 96 47.9995C96 21.4902 74.5101 0.000244141 48 0.000244141C21.4907 0.000244141 0 21.4902 0 47.9995C0 74.5089 21.4899 95.9997 48 95.9997Z" fill="white"/>
</mask>
<g mask="url(#mask1_320_2082)">
<path fill-rule="evenodd" clip-rule="evenodd" d="M11.966 25.5491C10.833 25.0288 12.0452 21.6547 13.0644 22.785C13.5126 23.2822 14.2925 25.2618 13.0484 25.6478C12.5005 25.8177 12.1288 25.6238 11.966 25.5491Z" fill="#3B6B74"/>
<path fill-rule="evenodd" clip-rule="evenodd" d="M18.3051 27.4319C17.1721 26.9117 18.3843 23.5375 19.4035 24.6679C19.8508 25.165 20.6316 27.1447 19.3875 27.5306C18.8396 27.7005 18.4679 27.5066 18.3051 27.4319Z" fill="#3B6B74"/>
<path fill-rule="evenodd" clip-rule="evenodd" d="M22.96 28.5481C21.9373 27.8357 23.7293 24.7292 24.5315 26.0232C24.8837 26.5915 25.3008 28.6788 24.0077 28.838C23.4394 28.9082 23.1077 28.6512 22.96 28.5481Z" fill="#3B6B74"/>
<path fill-rule="evenodd" clip-rule="evenodd" d="M28.0346 30.8007C27.2591 29.8251 29.8648 27.3625 30.2632 28.8317C30.4384 29.4774 30.2392 31.5958 28.955 31.3788C28.3903 31.2827 28.1466 30.9412 28.0346 30.8007Z" fill="#3B6B74"/>
<path fill-rule="evenodd" clip-rule="evenodd" d="M33.3767 36.5377C32.6021 35.5621 35.2069 33.0995 35.6054 34.5678C35.7806 35.2135 35.5814 37.3319 34.2981 37.1149C33.7333 37.0188 33.4888 36.6782 33.3776 36.5377H33.3767Z" fill="#3B6B74"/>
<path fill-rule="evenodd" clip-rule="evenodd" d="M50.1273 79.8148C50.1229 79.6751 36.9038 71.0192 37.0061 70.8876C35.9851 70.2419 34.9082 69.6123 33.905 68.9622C28.8367 65.6814 24.4727 62.6017 22.9271 60.9395C19.2292 57.8375 20.0278 57.9807 17.7031 52.3378C14.1351 43.6783 8.89248 36.3075 10.351 28.6441C10.5591 27.5493 10.5858 26.5782 12.5672 25.768C14.5077 24.9738 14.0453 26.6796 17.4123 27.48C19.1269 27.7743 20.3124 28.123 21.3805 28.5427C22.5482 29.0016 24.8774 27.2736 25.997 29.8669C26.1687 30.3169 26.0228 30.8185 26.4844 31.0827C27.741 31.8012 27.6201 30.341 28.5921 30.4441C28.971 30.4841 29.5179 30.7625 30.377 31.5024C31.0805 32.1072 31.8542 34.0619 32.9445 36.2533C34.5542 36.7371 36.3195 36.7077 37.0239 38.5015C37.7425 40.3309 37.1208 43.0727 37.8501 45.1458C38.5882 47.2455 39.8457 47.924 42.4933 49.4733C44.215 50.4809 45.2716 52.4223 48.4492 52.746C52.2777 53.1356 55.4696 47.6697 55.9018 47.5007C58.0353 46.663 59.8522 44.6024 62.4215 44.0385C72.9121 41.7343 83.2399 43.2968 86.5393 49.363C90.9851 48.4603 93.549 45.4561 100.132 42.1416C101.182 64.4728 93.4397 76.4024 82.3808 88.733C78.2134 83.0173 66.1558 84.1832 50.1282 79.8165L50.1273 79.8148Z" fill="#8DBAB1"/>
<path fill-rule="evenodd" clip-rule="evenodd" d="M46.1591 51.8637C47.4771 52.4827 50.6858 52.5298 51.9335 51.5444C52.5899 51.026 53.8029 48.6399 58.0788 45.7531C66.9837 39.7412 82.2776 44.8353 82.6965 45.1928C83.3617 45.7611 68.6912 41.0663 59.8771 45.4827C55.9871 47.4313 53.4463 51.5649 51.8544 52.496C50.7863 53.1212 49.0156 53.3525 47.8826 52.8402C47.3908 52.6179 47.3944 52.5876 46.8634 52.4516L48.0089 53.8247C48.3326 54.6029 49.3242 54.4037 50.1175 54.6651C49.0485 55.92 47.2103 53.5099 46.4748 52.818C45.5819 51.9776 44.7379 51.3132 43.7241 50.6258C41.2615 48.9858 38.1604 47.6998 37.1626 44.9927C36.5827 43.4204 36.364 41.567 36.3337 39.019C36.3044 36.5378 32.9961 37.8567 32.1814 36.1296C30.7452 33.0845 30.4188 30.6352 27.6298 31.7131C25.9837 32.3499 25.9205 28.2145 23.9151 29.2523C21.5281 30.999 21.2657 28.5133 20.1434 28.1095C18.7231 27.479 18.3398 28.475 16.9596 28.4439C16.1663 28.3319 15.9564 27.6791 15.0449 27.342C13.541 26.7862 12.3653 26.6163 11.685 26.9774C10.5368 27.5884 9.79512 28.7436 10.736 33.8644C11.5702 36.6116 12.9238 40.6029 13.5579 42.2206C14.9684 45.8225 16.8217 50.2985 18.4314 53.6059C19.0157 54.7985 19.2683 55.7341 19.6338 56.3682C21.7789 60.0865 21.4143 59.753 28.352 65.041C31.59 67.5089 35.5733 70.1689 37.3796 70.9827C38.0457 71.4798 39.7399 72.604 40.4024 72.6662C40.7599 72.997 41.0676 73.1322 41.4901 73.3812L42.5777 73.9406L45.5641 75.8394C47.4397 77.144 51.713 74.1585 51.922 74.2439C51.97 74.2635 51.9967 74.2208 52.0358 74.2136C51.3181 74.902 50.0615 75.6197 49.2015 75.9941C47.8844 76.5677 47.5215 76.365 46.4944 76.6184C47.5411 77.2498 49.8009 75.995 50.9837 75.7691C50.0926 76.5704 49.0921 76.5882 48.2499 76.9644C48.9071 77.1298 50.7525 76.7474 51.4942 76.6291C50.9677 76.9564 50.0295 77.1493 49.4736 77.2498C48.6163 77.4046 47.9849 77.3272 47.3979 77.4411C48.3922 78.1036 49.0601 78.6612 50.146 78.7181C52.9714 78.8658 55.586 77.7852 58.0086 76.0288C58.2976 75.8732 58.5244 75.7629 58.7565 75.4303C58.7351 75.6891 58.9859 75.4596 58.4337 75.9265L54.8923 78.1303C52.9981 79.0081 51.6347 78.7395 50.7445 78.9645C52.2083 79.587 57.2019 78.0476 58.7734 77.5086C57.5061 78.2681 55.9987 78.7804 54.6451 79.1041C52.3915 79.6422 52.605 79.5781 50.5133 79.4572C52.757 80.8597 55.8137 80.5377 58.158 79.6929L59.1567 79.3976C59.2003 79.418 59.2278 79.3878 59.2634 79.3869C58.0619 80.4986 56.1623 80.8054 54.8203 80.905C54.5775 80.9228 67.8126 82.7922 70.4326 83.8594C69.5388 83.8967 54.8363 82.3111 52.9527 81.5542C51.3706 80.9193 49.3278 80.1153 48.5736 79.5088C36.6005 72.5079 29.1639 67.1167 23.5193 62.2067C21.7611 60.677 19.8428 59.2141 18.6885 56.5843C16.5692 51.7543 14.0372 46.8087 12.4222 41.6808C12.4738 41.3091 11.3959 38.5397 11.283 38.0212C9.96232 35.3487 8.63454 29.9291 10.1633 25.9858C12.3377 23.6886 13.9785 25.1276 15.229 26.1236C15.9876 26.7293 16.6714 27.5626 17.6462 27.0272C19.263 26.1388 19.7432 26.86 21.6962 27.8178C22.2476 28.0882 23.192 27.8 24.1623 28.0073C24.7084 28.1238 25.5657 28.3274 25.7533 28.982C26.728 32.3801 27.9277 29.2203 29.5881 30.8878C31.3739 32.3223 31.6941 33.9516 33.0432 35.62C34.6111 36.5814 36.1505 36.3635 36.7953 37.1905C37.633 38.2658 38.1435 39.718 38.0021 44.5809C38.1444 45.8687 39.9106 47.8172 41.3122 48.5536C45.308 50.6542 43.5791 50.2647 46.1582 51.8619L46.1591 51.8637Z" fill="#102B30"/>
<path fill-rule="evenodd" clip-rule="evenodd" d="M23.1084 35.016C23.3939 35.9018 23.0479 36.9432 23.1342 37.9526C23.4721 40.8918 25.0614 44.0837 25.8813 46.6192L23.6278 43.8097C21.5947 40.6037 21.078 37.1575 21.0585 36.6346C20.8495 35.353 21.9656 34.6193 23.1093 35.016H23.1084Z" fill="#77A5A1"/>
<path fill-rule="evenodd" clip-rule="evenodd" d="M35.2958 46.5366C34.7026 45.8723 33.952 44.3844 33.4878 43.5387C33.0245 42.6947 31.8683 40.9365 32.6305 40.0872C33.133 39.5269 33.8195 40.0045 34.0267 40.6243C34.2233 41.2139 34.2944 42.1211 34.3798 42.7552C34.6004 44.372 35.2647 45.8314 35.3189 46.1622C35.4283 46.8354 35.3661 46.3597 35.2958 46.5357V46.5366Z" fill="#77A5A1"/>
<path fill-rule="evenodd" clip-rule="evenodd" d="M17.6693 32.5659C15.984 31.6437 15.7474 32.7118 15.5295 33.4455C14.6624 36.1917 19.1527 46.5516 22.6664 48.3498C22.7767 48.4655 22.8799 48.3854 23.0844 48.5909L22.9172 48.1853C22.8523 48.0315 22.879 48.0662 22.7589 47.9079C22.6647 47.7825 22.6727 47.8189 22.5686 47.7175C19.0904 44.29 18.684 33.8963 17.6684 32.5659H17.6693Z" fill="#77A5A1"/>
<path fill-rule="evenodd" clip-rule="evenodd" d="M29.1453 37.1664C29.4308 38.0522 29.0848 39.0936 29.1711 40.103C29.3703 42.4411 30.7959 44.925 31.4914 46.9198L30.6038 45.5858C30.0409 44.6066 27.1763 39.284 27.0945 38.7859C26.8855 37.5044 28.0016 36.7707 29.1453 37.1673V37.1664Z" fill="#77A5A1"/>
<path fill-rule="evenodd" clip-rule="evenodd" d="M53.9666 30.4377L54.8692 29.9673L60.3306 40.8723L59.4208 41.3499L53.9666 30.4377Z" fill="#3B6B74"/>
<path fill-rule="evenodd" clip-rule="evenodd" d="M67.255 23.7348L68.2582 23.5525L71.1112 40.1786L70.1009 40.3618L67.255 23.7348Z" fill="#3B6B74"/>
<path fill-rule="evenodd" clip-rule="evenodd" d="M83.8198 26.5176L84.8265 26.7746L82.3541 38.601L81.3412 38.3449L83.8198 26.5176Z" fill="#3B6B74"/>
<path fill-rule="evenodd" clip-rule="evenodd" d="M83.7609 55.1062C83.7609 55.1062 77.7081 59.9789 72.7537 60.1283C67.8045 60.2724 65.366 60.7401 65.366 60.7401C65.366 60.7401 70.1853 62.4752 73.3904 61.7184C76.5902 60.9571 80.2819 59.6507 83.7618 55.1062H83.7609Z" fill="#3B6B74"/>
</g>
</svg>
