<svg width="100" height="101" viewBox="0 0 100 101" fill="none" xmlns="http://www.w3.org/2000/svg">
<g id="Frame" clip-path="url(#clip0_62_5302)">
<g id="Mask group">
<mask id="mask0_62_5302" style="mask-type:alpha" maskUnits="userSpaceOnUse" x="0" y="0" width="100" height="101">
<g id="Group">
<path id="Vector" d="M50 100.27C77.6142 100.27 100 77.8843 100 50.27C100 22.6558 77.6142 0.27002 50 0.27002C22.3858 0.27002 0 22.6558 0 50.27C0 77.8843 22.3858 100.27 50 100.27Z" fill="white"/>
</g>
</mask>
<g mask="url(#mask0_62_5302)">
<g id="Group_2">
<path id="Vector_2" d="M50 100.27C77.6142 100.27 100 77.8843 100 50.27C100 22.6558 77.6142 0.27002 50 0.27002C22.3858 0.27002 0 22.6558 0 50.27C0 77.8843 22.3858 100.27 50 100.27Z" fill="#EDEDED"/>
<g id="Mask group_2">
<mask id="mask1_62_5302" style="mask-type:alpha" maskUnits="userSpaceOnUse" x="22" y="3" width="82" height="94">
<g id="Group_3">
<path id="Vector_3" d="M103.802 3.60327H22.2222V96.9366H103.802V3.60327Z" fill="white"/>
</g>
</mask>
<g mask="url(#mask1_62_5302)">
<g id="Group_4">
<path id="Vector_4" fill-rule="evenodd" clip-rule="evenodd" d="M107.361 45.9958C106.337 45.313 99.4791 46.0108 98.3245 45.9958C82.1742 45.81 85.6181 37.9081 69.8695 39.3238C59.4424 40.2626 59.4424 46.4074 54.0155 47.3111C54.0506 40.7747 54.4823 32.7071 55.4663 23.9718C55.9533 19.6292 54.5727 18.6453 56.8017 15.3168C56.9523 15.0909 57.0829 14.87 57.1933 14.6491C57.4544 14.3579 57.6752 14.0266 57.8309 13.6451C58.6442 11.7223 57.6552 9.45813 55.632 8.57958C54.7032 8.17796 53.7243 8.14283 52.8507 8.39885C52.4893 8.0374 52.0525 7.73618 51.5555 7.51528C50.5213 7.06848 49.4119 7.07351 48.463 7.43999C48.2472 7.2944 48.0162 7.16386 47.7702 7.05844C46.1888 6.37066 44.4317 6.74718 43.3524 7.8667C43.0863 7.66087 42.7951 7.48015 42.4688 7.33958C41.0681 6.73715 36.7306 8.84065 33.9494 10.8136C31.9212 11.8377 30.2243 13.148 29.1249 14.7545C24.4912 21.5319 22.5985 54.3093 23.8586 68.1954C24.2452 72.4376 30.9473 81.5444 37.1774 82.2372C37.3732 82.2573 37.564 82.2723 37.7548 82.2874C49.7281 84.3206 83.9213 83.8186 102.055 84.1951C111.478 84.3909 116.719 52.241 107.361 45.9958Z" fill="#B37F3E"/>
<path id="Vector_5" fill-rule="evenodd" clip-rule="evenodd" d="M25.4701 71.8753C24.3004 72.9948 24.8326 78.7832 25.4199 77.99C26.0023 77.1968 27.0264 75.6154 26.5696 76.3886C25.6559 77.9248 27.0063 82.2723 27.2574 81.3134C27.5887 80.0534 28.0305 79.2903 28.4873 80.6658C29.0195 82.2723 31.0878 83.2914 30.0737 82.1619C29.7775 81.8356 31.871 80.7662 33.2214 80.7763C34.5769 80.7863 26.3838 71.0018 25.4701 71.8753Z" fill="#B37F3E"/>
<path id="Vector_6" opacity="0.892" fill-rule="evenodd" clip-rule="evenodd" d="M64.6937 27.7471L65.3664 27.481L68.4288 35.5938L67.7511 35.8649L64.6937 27.7471Z" fill="#996D35"/>
<path id="Vector_7" opacity="0.892" fill-rule="evenodd" clip-rule="evenodd" d="M74.5836 23.9817L75.3065 23.9265L76.1048 35.8948L75.3768 35.9501L74.5836 23.9817Z" fill="#996D35"/>
<path id="Vector_8" opacity="0.892" fill-rule="evenodd" clip-rule="evenodd" d="M86.0951 27.1648L86.7879 27.4208L84.1724 35.6038L83.4745 35.3478L86.0951 27.1648Z" fill="#996D35"/>
<path id="Vector_9" fill-rule="evenodd" clip-rule="evenodd" d="M90.4728 50.3284C90.4728 50.3284 84.1674 55.4039 79.0065 55.5595C73.8507 55.7101 71.3104 56.1971 71.3104 56.1971C71.3104 56.1971 76.3307 58.0044 79.6692 57.2162C83.0027 56.423 86.8482 55.0625 90.4728 50.3284Z" fill="#996D35"/>
<path id="Vector_10" fill-rule="evenodd" clip-rule="evenodd" d="M45.9529 15.9997C40.4607 16.1001 38.0711 19.2478 38.4225 22.8072C38.8442 27.0694 40.7921 30.7995 45.1346 30.684C49.5073 30.5635 53.3729 26.6477 53.2424 22.2098C53.0767 16.8029 50.4712 15.9193 45.9529 15.9997Z" fill="#382D23"/>
<path id="Vector_11" fill-rule="evenodd" clip-rule="evenodd" d="M37.3279 11.6019C37.4735 14.3731 38.2366 14.845 39.5921 14.6442C40.9475 14.4434 41.4445 14.2777 41.4546 11.6521C41.4646 9.53856 40.6664 7.7664 39.321 7.96721C37.9755 8.16301 37.1823 8.84576 37.3279 11.6019Z" fill="#382D23"/>
<path id="Vector_12" fill-rule="evenodd" clip-rule="evenodd" d="M41.6059 11.4261C41.9573 13.5547 42.5848 14.7997 44.0708 14.0417C45.5418 13.2936 46.1593 11.7022 45.8279 9.85978C45.4765 7.89685 44.7686 7.10365 43.2626 7.73118C42.2585 8.15289 41.1289 8.53443 41.6059 11.4261Z" fill="#382D23"/>
<path id="Vector_13" fill-rule="evenodd" clip-rule="evenodd" d="M45.6519 11.8778C46.1991 13.9411 46.9572 13.8006 48.4883 13.7454C50.0195 13.6901 50.2404 11.3708 49.8137 9.59362C49.3669 7.73612 48.4783 6.68186 47.0475 7.39474C45.6167 8.11264 44.934 9.17694 45.6519 11.8778Z" fill="#382D23"/>
<path id="Vector_14" fill-rule="evenodd" clip-rule="evenodd" d="M49.653 11.3858C50.401 13.2333 51.0537 13.6249 52.4041 13.1881C53.8449 12.7262 54.1211 11.0143 53.7044 9.29238C53.2676 7.49512 52.2786 6.88265 50.898 7.57545C49.5074 8.27829 48.669 8.96104 49.653 11.3858Z" fill="#382D23"/>
<path id="Vector_15" fill-rule="evenodd" clip-rule="evenodd" d="M52.901 11.5566C51.9924 13.7605 52.5446 14.368 53.7344 15.2465C54.9292 16.1251 56.099 15.6933 56.6662 14.2375C57.2536 12.7113 57.3992 10.8538 56.1994 10.0204C55.1451 9.29746 53.8047 9.36774 52.901 11.5566Z" fill="#382D23"/>
<path id="Vector_16" fill-rule="evenodd" clip-rule="evenodd" d="M27.9152 18.078C27.2676 18.3491 25.5155 23.9969 25.9121 23.6505C26.3087 23.3041 27.0769 22.5159 26.7104 22.9225C25.9874 23.7408 24.9031 28.6055 25.2746 27.8826C25.7666 26.9388 26.1481 26.3363 25.7666 27.983C25.3499 29.7853 26.0176 32.3255 26.2686 31.4118C26.3991 30.9449 26.5748 30.3877 26.9011 31.2813C27.2275 32.19 28.4223 17.8671 27.9152 18.078Z" fill="#B37F3E"/>
<path id="Vector_17" fill-rule="evenodd" clip-rule="evenodd" d="M57.1431 11.406C58.1121 13.0476 57.5448 15.3921 57.1532 15.4423C56.7616 15.4925 57.4393 13.4442 56.2345 12.8669C54.9945 12.2795 54.9543 11.0044 55.5116 10.5224C55.9333 10.161 56.5005 10.0706 57.1431 11.406Z" fill="#1A1A1A"/>
<path id="Vector_18" fill-rule="evenodd" clip-rule="evenodd" d="M53.1168 8.14272C54.2564 8.96103 54.8589 10.447 54.5024 11.7121C54.146 12.9773 54.0054 9.62873 52.7604 9.95504C51.4802 10.2864 51.0686 9.28735 51.3949 8.48912C51.6459 7.88167 51.9822 7.32442 53.1168 8.14272Z" fill="#1A1A1A"/>
<path id="Vector_19" fill-rule="evenodd" clip-rule="evenodd" d="M48.8097 7.68091C49.2314 7.81645 50.2756 8.10261 50.381 10.2965C50.4513 11.7022 49.6882 9.24724 48.7796 9.69906C47.5496 10.3066 47.0225 9.52335 47.2032 8.62974C47.3387 7.94698 47.7102 7.32949 48.8097 7.68091Z" fill="#1A1A1A"/>
<path id="Vector_20" fill-rule="evenodd" clip-rule="evenodd" d="M44.2359 7.37481C45.5662 7.15894 46.3444 10.0406 45.8624 10.5627C45.3805 11.0848 45.2249 9.23734 44.5923 9.58373C43.9146 9.95524 42.9155 10.1008 42.8151 9.18713C42.7348 8.49433 43.1414 7.74129 44.2359 7.37481Z" fill="#1A1A1A"/>
<path id="Vector_21" fill-rule="evenodd" clip-rule="evenodd" d="M40.8121 7.98715C42.2931 8.29339 42.9206 10.5375 42.6495 10.9391C42.3734 11.3407 41.9618 9.20206 40.782 9.90992C39.5671 10.6379 38.9596 9.73923 39.1655 8.86068C39.3211 8.20302 39.7127 7.60561 40.8121 7.98715Z" fill="#1A1A1A"/>
</g>
</g>
</g>
</g>
</g>
</g>
</g>
<defs>
<clipPath id="clip0_62_5302">
<rect width="100" height="100" fill="white" transform="translate(0 0.27002)"/>
</clipPath>
</defs>
</svg>
