<svg width="525" height="499" viewBox="0 0 525 499" fill="none" xmlns="http://www.w3.org/2000/svg">
<g clip-path="url(#clip0_62_5042)">
<path fill-rule="evenodd" clip-rule="evenodd" d="M147.373 418.129C204.603 418.144 250.946 436.189 250.884 458.437C250.82 480.685 204.376 498.707 147.145 498.692C89.9155 498.678 43.5735 480.633 43.6365 458.385C43.6984 436.137 90.1438 418.114 147.373 418.129Z" fill="#F2F2F2"/>
<mask id="mask0_62_5042" style="mask-type:alpha" maskUnits="userSpaceOnUse" x="157" y="350" width="368" height="116">
<path fill-rule="evenodd" clip-rule="evenodd" d="M157.74 350.713H524.414V465.133H157.74V350.713Z" fill="white"/>
</mask>
<g mask="url(#mask0_62_5042)">
<path fill-rule="evenodd" clip-rule="evenodd" d="M385.476 350.714C462.294 350.733 524.499 374.956 524.415 404.816C524.331 434.68 461.206 447.909 385.173 458.851C232.891 480.766 157.655 440.633 157.74 410.771C157.823 380.91 308.659 350.694 385.476 350.714Z" fill="#F2F2F2"/>
</g>
<path fill-rule="evenodd" clip-rule="evenodd" d="M89.1367 387.125C138.311 387.135 178.132 400.627 178.078 417.26C178.023 433.894 138.115 447.37 88.9409 447.358C39.7658 447.348 -0.0537323 433.856 0.000421381 417.221C0.0534699 400.588 39.9614 387.113 89.1367 387.125Z" fill="#F2F2F2"/>
<path fill-rule="evenodd" clip-rule="evenodd" d="M109.883 394.283C109.859 395.274 111.162 396.067 112.795 396.052C114.426 396.037 115.769 395.221 115.792 394.229C115.815 393.237 114.511 392.445 112.88 392.46C111.247 392.474 109.906 393.292 109.883 394.283Z" fill="#ABABAB"/>
<path fill-rule="evenodd" clip-rule="evenodd" d="M109.825 374.831C109.87 375.757 111.225 376.429 112.852 376.331C114.48 376.235 115.764 375.403 115.719 374.478C115.675 373.552 114.318 372.878 112.692 372.977C111.064 373.074 109.78 373.905 109.825 374.831Z" fill="#ABABAB"/>
<path fill-rule="evenodd" clip-rule="evenodd" d="M115.792 394.229L115.442 386.586L109.532 386.641L109.883 394.283L115.792 394.229Z" fill="#ABABAB"/>
<path fill-rule="evenodd" clip-rule="evenodd" d="M164.271 425.869C164.318 426.921 165.756 427.684 167.483 427.57C169.213 427.457 170.576 426.511 170.53 425.459C170.485 424.406 169.046 423.645 167.319 423.758C165.59 423.871 164.227 424.816 164.271 425.869Z" fill="#ABABAB"/>
<path fill-rule="evenodd" clip-rule="evenodd" d="M170.53 425.459L169.615 417.381L163.358 417.792L164.271 425.869L170.53 425.459Z" fill="#ABABAB"/>
<path fill-rule="evenodd" clip-rule="evenodd" d="M48.1578 406.758C48.1523 407.787 46.6847 408.709 44.8821 408.816C43.0796 408.925 41.6229 408.178 41.6284 407.148C41.6351 406.119 43.1005 405.197 44.9042 405.089C46.7079 404.982 48.1634 405.727 48.1578 406.758Z" fill="#ABABAB"/>
<path fill-rule="evenodd" clip-rule="evenodd" d="M48.7919 398.784C48.7863 399.813 47.3187 400.737 45.5162 400.844C43.7136 400.953 42.2569 400.206 42.2625 399.176C42.2691 398.147 43.7357 397.224 45.5383 397.116C47.3419 397.008 48.7974 397.754 48.7919 398.784Z" fill="#ABABAB"/>
<path fill-rule="evenodd" clip-rule="evenodd" d="M91.9733 443.631C92.0322 444.857 90.3343 445.956 88.1816 446.085C86.0285 446.214 84.2348 445.325 84.1762 444.1C84.1176 442.874 85.8151 441.776 87.9682 441.646C90.1209 441.517 91.9145 442.407 91.9733 443.631Z" fill="#ABABAB"/>
<path fill-rule="evenodd" clip-rule="evenodd" d="M41.6288 407.149L42.2632 399.177L48.7914 398.785L48.1582 406.758L41.6288 407.149Z" fill="#ABABAB"/>
<path fill-rule="evenodd" clip-rule="evenodd" d="M92.2218 434.142C92.2806 435.366 90.5827 436.466 88.4291 436.594C86.2761 436.723 84.4835 435.834 84.4239 434.609C84.3653 433.383 86.0628 432.285 88.2167 432.156C90.3694 432.028 92.163 432.916 92.2218 434.142Z" fill="#ABABAB"/>
<path fill-rule="evenodd" clip-rule="evenodd" d="M84.1759 444.1L84.4246 434.609L92.2218 434.142L91.9733 443.631L84.1759 444.1Z" fill="#ABABAB"/>
<path fill-rule="evenodd" clip-rule="evenodd" d="M105.234 281.552L109.534 390.636L115.616 390.239L119.493 279.823L105.234 281.552Z" fill="#BDBDBD"/>
<path fill-rule="evenodd" clip-rule="evenodd" d="M95.7932 374.321L158.795 360.805L158.618 357.12L95.6229 370.778L95.7932 374.321Z" fill="#CFCFCF"/>
<path fill-rule="evenodd" clip-rule="evenodd" d="M48.711 352.849L111.792 340.283L112.021 337.99L48.5872 350.273L48.711 352.849Z" fill="#BDBDBD"/>
<path fill-rule="evenodd" clip-rule="evenodd" d="M88.6829 374.179L46.8461 353.545L48.4452 350.591L90.1709 370.81L88.6829 374.179Z" fill="#CFCFCF"/>
<path fill-rule="evenodd" clip-rule="evenodd" d="M108.001 294.887L92.9847 438.218L83.0577 438.135L82.178 285.906L108.001 294.887Z" fill="#D9D9D9"/>
<path fill-rule="evenodd" clip-rule="evenodd" d="M157.235 358.003L111.815 340.009L112.045 337.716L158.779 355.816L157.235 358.003Z" fill="#BDBDBD"/>
<path fill-rule="evenodd" clip-rule="evenodd" d="M57.404 280.347L48.7704 402.262L44.3938 403.726L41.495 402.643L44.0159 273.926L57.404 280.347Z" fill="#D9D9D9"/>
<path fill-rule="evenodd" clip-rule="evenodd" d="M148.643 285.548L162.45 423.486L170.616 421.066L168.519 281.086L148.643 285.548Z" fill="#D9D9D9"/>
<path fill-rule="evenodd" clip-rule="evenodd" d="M162.984 285.299L103.728 296.478C98.3357 297.777 91.2525 296.9 87.9875 294.527L45.6673 276.345C42.4015 273.972 44.141 270.967 49.5321 269.668L109.189 258.488C114.581 257.189 121.662 258.067 124.928 260.441L166.85 278.622C170.115 280.993 168.377 283.998 162.984 285.299Z" fill="#D4D4D4"/>
<path fill-rule="evenodd" clip-rule="evenodd" d="M44.0155 273.926C44.0155 273.926 44.0388 266.084 43.9912 265.083C43.9437 264.081 44.1294 260.271 49.831 258.098C55.5326 255.925 58.2314 268.487 58.2314 268.487L44.0155 273.926Z" fill="#D4D4D4"/>
<path fill-rule="evenodd" clip-rule="evenodd" d="M168.519 281.085C168.519 281.085 168.284 274.46 168.153 273.453C167.606 269.253 165.611 266.034 159.658 264.536C153.707 263.041 154.395 275.157 154.395 275.157L168.519 281.085Z" fill="#D4D4D4"/>
<path fill-rule="evenodd" clip-rule="evenodd" d="M159.719 272.195L103.414 282.663C98.6701 283.512 92.1867 282.489 88.4467 280.809L47.9128 263.925C44.8084 261.67 46.4618 258.812 51.5898 257.575L108.293 247.108C113.42 245.872 120.157 246.708 123.261 248.963L163.394 265.846C166.5 268.102 164.845 270.96 159.719 272.195Z" fill="#E8E8E8"/>
<path fill-rule="evenodd" clip-rule="evenodd" d="M141.288 389.225C142.604 389.75 146.394 392.18 151.297 391.702C156.202 391.224 157.86 390.082 158.82 387.845C159.175 387.021 159.171 383.259 159.171 383.259L158.512 382.558L125.235 358.22L121.773 353.791L120.858 353.852L120.256 357.074L125.24 364.608L126.512 365.926C126.512 365.926 128.557 374.014 129.381 375.562C130.204 377.111 133.14 382.68 134.799 384.327C136.725 386.242 139.416 388.477 141.288 389.225Z" fill="#C4C4C4"/>
<path fill-rule="evenodd" clip-rule="evenodd" d="M150.763 355.948C150.763 355.948 151.159 360.856 151.803 362.162C152.448 363.469 153.721 367.501 154.715 369.124C155.708 370.749 158.311 374.634 158.597 377.21C158.884 379.785 159.019 381.783 158.203 383.992C157.388 386.2 155.04 387.332 150.528 387.291C146.018 387.25 141.601 385.233 138.377 381.845C136.095 379.446 132.68 376.933 130.993 371.166C129.305 365.399 126.835 362.092 124.862 359.177C122.89 356.264 120.816 353.854 121.163 352.336C121.509 350.816 122.651 345.733 122.651 345.733L150.763 355.948Z" fill="#363636"/>
<path fill-rule="evenodd" clip-rule="evenodd" d="M145.227 374.167C146.125 374.041 150.278 372.778 151.833 372.65C153.387 372.521 154.404 372.955 154.95 372.579C155.494 372.202 154.959 371.454 153.768 371.332C152.577 371.21 150.12 371.374 148.577 371.751C147.034 372.13 145.867 372.51 145.254 372.762C144.827 372.936 144.328 374.294 145.227 374.167Z" fill="#737373"/>
<path fill-rule="evenodd" clip-rule="evenodd" d="M143.894 371.015C144.792 370.888 148.946 369.626 150.5 369.498C152.054 369.368 153.074 369.802 153.617 369.426C154.161 369.05 153.628 368.302 152.436 368.18C151.245 368.058 148.787 368.221 147.245 368.599C145.703 368.978 144.535 369.357 143.921 369.609C143.495 369.784 142.996 371.142 143.894 371.015Z" fill="#737373"/>
<path fill-rule="evenodd" clip-rule="evenodd" d="M142.548 368.237C143.446 368.109 147.601 366.849 149.154 366.72C150.708 366.591 151.728 367.025 152.271 366.649C152.815 366.273 152.282 365.524 151.09 365.403C149.899 365.281 147.442 365.443 145.899 365.822C144.356 366.201 143.189 366.579 142.575 366.831C142.149 367.007 141.65 368.364 142.548 368.237Z" fill="#737373"/>
<path fill-rule="evenodd" clip-rule="evenodd" d="M141.447 365.365C142.345 365.238 146.5 363.977 148.054 363.847C149.607 363.719 150.627 364.154 151.17 363.777C151.714 363.401 151.175 362.723 149.989 362.531C149.001 362.37 146.649 362.513 144.798 362.95C143.252 363.316 142.088 363.708 141.474 363.96C141.049 364.135 140.549 365.492 141.447 365.365Z" fill="#737373"/>
<path fill-rule="evenodd" clip-rule="evenodd" d="M140.551 362.867C141.45 362.74 145.604 361.479 147.157 361.35C148.711 361.222 149.73 361.656 150.274 361.279C150.819 360.904 150.285 360.156 149.093 360.034C147.902 359.911 145.444 360.075 143.902 360.452C142.36 360.832 141.192 361.21 140.58 361.462C140.152 361.637 139.653 362.995 140.551 362.867Z" fill="#737373"/>
<path fill-rule="evenodd" clip-rule="evenodd" d="M56.4715 135.596C57.0926 134.844 62.5002 124.164 65.1891 121.349C67.8791 118.534 77.0112 107.55 78.9132 104.706C80.8141 101.863 84.6181 94.7978 84.806 94.5924C84.9928 94.3869 113.159 72.3499 113.159 72.3499C113.159 72.3499 118.087 76.7783 118.938 82.3805C119.79 87.9815 122.279 100.495 121.506 106.434C120.732 112.374 120.182 124.164 117.576 128.811C114.971 133.458 103.779 140.087 99.0239 140.834C94.2709 141.579 68.876 138.561 63.4959 141.369C58.117 144.178 56.4715 135.596 56.4715 135.596Z" fill="#30251F"/>
<path fill-rule="evenodd" clip-rule="evenodd" d="M130.983 230.505C130.983 230.505 129.429 223.405 127.976 222.248C126.522 221.091 96.2488 224.597 83.4339 223.619C70.6183 222.641 59.4118 218.613 57.9054 220.082C56.4002 221.551 55.6807 224.91 54.4871 229.337C53.2936 233.766 52.7652 260.029 68.2554 262.108C83.7445 264.187 118.82 254.86 123.355 250.801C127.889 246.741 133.99 238.762 130.983 230.505Z" fill="#7BB8C7"/>
<path fill-rule="evenodd" clip-rule="evenodd" d="M121.832 392.32C123.148 392.847 126.936 395.277 131.841 394.797C136.745 394.32 138.403 393.178 139.364 390.942C139.718 390.116 139.714 386.354 139.714 386.354L139.056 385.655L105.779 361.316L102.184 355.393L101.401 356.948L100.799 360.17L105.783 367.704L107.055 369.022C107.055 369.022 109.101 377.11 109.924 378.659C110.748 380.205 113.684 385.776 115.34 387.424C117.267 389.339 119.959 391.571 121.832 392.32Z" fill="#CCCCCC"/>
<path fill-rule="evenodd" clip-rule="evenodd" d="M131.306 359.045C131.306 359.045 131.701 363.952 132.347 365.259C132.992 366.565 134.265 370.597 135.259 372.221C136.252 373.845 138.855 377.731 139.141 380.306C139.428 382.881 139.562 384.88 138.747 387.088C137.931 389.296 135.583 390.428 131.072 390.388C126.562 390.346 122.144 388.33 118.92 384.941C116.639 382.542 113.224 380.028 111.536 374.263C109.848 368.496 107.378 365.189 105.406 362.274C103.433 359.358 101.358 356.95 101.705 355.43C102.052 353.913 103.194 348.829 103.194 348.829L131.306 359.045Z" fill="#454545"/>
<path fill-rule="evenodd" clip-rule="evenodd" d="M123.091 371.333C123.99 371.206 128.144 369.945 129.698 369.816C131.252 369.686 132.27 370.121 132.814 369.745C133.359 369.369 132.825 368.621 131.633 368.498C130.441 368.376 127.985 368.54 126.442 368.917C124.9 369.297 123.732 369.676 123.12 369.928C122.692 370.103 122.192 371.461 123.091 371.333Z" fill="#737373"/>
<path fill-rule="evenodd" clip-rule="evenodd" d="M125.769 377.263C126.667 377.135 130.822 375.875 132.376 375.746C133.929 375.617 134.949 376.051 135.492 375.675C136.037 375.299 135.504 374.551 134.311 374.429C133.12 374.307 130.663 374.47 129.12 374.848C127.579 375.227 126.41 375.605 125.798 375.857C125.371 376.033 124.871 377.39 125.769 377.263Z" fill="#737373"/>
<path fill-rule="evenodd" clip-rule="evenodd" d="M124.436 374.11C125.335 373.983 129.49 372.722 131.044 372.593C132.598 372.465 133.616 372.9 134.16 372.522C134.705 372.146 134.171 371.398 132.979 371.277C131.788 371.154 129.33 371.318 127.788 371.696C126.246 372.074 125.077 372.453 124.465 372.705C124.038 372.88 123.538 374.237 124.436 374.11Z" fill="#737373"/>
<path fill-rule="evenodd" clip-rule="evenodd" d="M121.991 368.461C122.89 368.334 127.042 367.073 128.597 366.944C130.151 366.815 131.17 367.249 131.714 366.873C132.259 366.498 131.717 365.819 130.533 365.627C129.543 365.466 127.192 365.609 125.342 366.045C123.796 366.412 122.631 366.803 122.019 367.055C121.592 367.232 121.092 368.588 121.991 368.461Z" fill="#737373"/>
<path fill-rule="evenodd" clip-rule="evenodd" d="M121.094 365.964C121.992 365.837 126.147 364.576 127.701 364.447C129.254 364.317 130.274 364.751 130.817 364.376C131.362 364 130.828 363.251 129.636 363.129C128.445 363.006 125.988 363.17 124.445 363.548C122.904 363.928 121.735 364.306 121.121 364.558C120.696 364.734 120.196 366.091 121.094 365.964Z" fill="#737373"/>
<path fill-rule="evenodd" clip-rule="evenodd" d="M129.606 272.376C128.518 271.551 102.751 259.104 101.48 258.114C100.209 257.124 101.382 248.498 103.767 243.315C106.148 238.132 125.949 227.59 130.346 228.085C134.742 228.581 135.094 232.413 140.209 237.073C145.324 241.732 158.528 258.612 159.498 260.665C160.468 262.72 161.884 266.852 162.133 268.415C162.38 269.977 162.684 272.762 161.742 275.08C160.801 277.398 161.77 279.451 161.71 281.903C161.649 284.356 156.577 306.981 155.652 309.649C154.726 312.315 157.223 332.738 157.371 335.88C157.517 339.022 157.351 351.082 156.583 353.392C155.817 355.702 148.234 357.047 144.395 357.226C140.554 357.405 133.227 354.071 130.346 352.281C130.346 352.281 127.372 322.157 127.51 317.603C127.648 313.049 129.606 272.376 129.606 272.376Z" fill="#78B2C2"/>
<mask id="mask1_62_5042" style="mask-type:alpha" maskUnits="userSpaceOnUse" x="100" y="228" width="63" height="130">
<path fill-rule="evenodd" clip-rule="evenodd" d="M103.766 243.315C101.382 248.498 100.208 257.126 101.48 258.114C102.751 259.104 128.518 271.551 129.606 272.376C129.606 272.376 127.648 313.049 127.51 317.602C127.37 322.157 130.346 352.281 130.346 352.281C133.228 354.071 140.554 357.405 144.394 357.227C148.234 357.048 155.817 355.702 156.583 353.392C157.351 351.082 157.517 339.022 157.371 335.88C157.223 332.74 154.726 312.316 155.652 309.648C156.577 306.981 161.649 284.355 161.71 281.903C161.771 279.452 160.801 277.398 161.741 275.08C162.683 272.761 162.38 269.978 162.133 268.415C161.884 266.852 160.468 262.72 159.498 260.666C158.528 258.612 145.324 241.734 140.209 237.072C135.094 232.413 134.742 228.581 130.346 228.086C130.245 228.075 130.138 228.069 130.022 228.069C125.053 228.07 106.094 238.25 103.766 243.315Z" fill="white"/>
</mask>
<g mask="url(#mask1_62_5042)">
<path fill-rule="evenodd" clip-rule="evenodd" d="M137.138 359.231C137.138 359.231 138.427 329.557 137.69 319.454C136.954 309.35 138.521 291.402 140.669 285.967C142.818 280.53 144.582 266.843 132.659 262.862C89.8259 248.56 117.912 278.487 117.912 278.487L122.843 355.894L137.138 359.231Z" fill="#5F8F9C"/>
</g>
<path fill-rule="evenodd" clip-rule="evenodd" d="M104.477 280.578C104.875 281.237 105.247 281.282 105.05 282.416C104.774 284.003 104.313 284.007 104.869 284.68C105.426 285.353 105.221 285.929 104.787 287.873C104.525 289.046 104.403 301.112 104.582 311.674C104.701 318.617 105.171 324.9 105.033 327.044C104.679 332.571 102.097 345.721 101.902 349.055C101.708 352.388 106.874 361.933 113.737 362.84C120.602 363.745 124.922 363.073 128.705 361.672C132.488 360.271 133.634 358.578 134.243 356.626C134.852 354.674 135.31 342.429 135.335 335.431C135.359 328.433 133.347 307.712 133.883 304.187C134.418 300.665 137.346 292.132 138.21 284.396C139.076 276.658 140.122 269.089 134.952 263.206C133.863 261.967 132.267 260.603 130.403 259.194C115.245 254.583 103.733 266.464 104.477 280.578Z" fill="#79B5C4"/>
<path fill-rule="evenodd" clip-rule="evenodd" d="M90.2122 233.974C78.8257 233.629 71.7028 227.137 71.7028 227.137L55.2864 227.726C55.2864 227.726 48.7306 240.975 50.5574 250.16C52.3832 259.347 56.3574 265.81 67.691 268.78C79.0235 271.753 85.5141 272.151 88.5222 272.885C91.53 273.62 101.462 279.887 102.818 280.251C103.155 280.341 104.021 280.563 104.477 280.578C106.513 267.612 116.018 257.127 130.403 259.194C123.42 253.917 112.628 248.012 110.171 245.641C107.057 242.637 101.598 234.319 90.2122 233.974Z" fill="#79B5C4"/>
<path fill-rule="evenodd" clip-rule="evenodd" d="M139.494 185.342C138.312 180.612 133.947 152.615 133.031 150.382C132.045 147.979 130.184 136.171 128.405 133.629C126.624 131.089 122.819 126.368 121.674 128.083C120.53 129.798 119.826 139.101 117.879 140.504C116.153 141.748 121.258 188.358 121.66 189.805C122.061 191.256 125.91 195.144 127.167 196.353C128.298 187.697 134.343 183.908 139.494 185.342Z" fill="#A67940"/>
<path fill-rule="evenodd" clip-rule="evenodd" d="M85.5618 106.627C85.5618 106.627 84.6699 112.835 83.7681 116.025C82.8673 119.216 78.7727 123.342 78.7727 123.342C78.7727 123.342 78.2089 131.895 89.8198 133.324C101.431 134.751 108.397 132.198 109.877 130.162C111.356 128.125 108.579 128.603 108.579 128.603C108.579 128.603 107.495 119.383 107.609 118.066C107.722 116.749 107.814 113.989 107.814 113.989C107.814 113.989 99.7974 111.826 93.7204 107.166C87.6438 102.507 86.2403 96.7556 86.2403 96.7556L85.5618 106.627Z" fill="#A67940"/>
<mask id="mask2_62_5042" style="mask-type:alpha" maskUnits="userSpaceOnUse" x="78" y="96" width="33" height="38">
<path fill-rule="evenodd" clip-rule="evenodd" d="M85.5618 106.627C85.5618 106.627 84.6699 112.836 83.7681 116.025C82.8673 119.215 78.7727 123.343 78.7727 123.343C78.7727 123.343 78.2089 131.896 89.8198 133.325C101.431 134.752 108.397 132.198 109.877 130.161C111.356 128.126 108.579 128.604 108.579 128.604C108.579 128.604 107.495 119.383 107.607 118.066C107.722 116.748 107.814 113.99 107.814 113.99C107.814 113.99 99.7974 111.825 93.7213 107.167C87.6438 102.508 86.2403 96.7563 86.2403 96.7563L85.5618 106.627Z" fill="white"/>
</mask>
<g mask="url(#mask2_62_5042)">
<path fill-rule="evenodd" clip-rule="evenodd" d="M108.412 117.592C108.224 117.686 105.649 118.408 103.042 117.937C100.437 117.467 99.3699 116.117 97.298 114.705C95.2261 113.291 91.7407 108.989 91.7407 108.989L105.115 114.86L108.882 114.986L108.412 117.592Z" fill="#825B32"/>
</g>
<path fill-rule="evenodd" clip-rule="evenodd" d="M50.4141 164.279C44.8739 161.739 42.186 158.497 42.6612 157.426C43.1364 156.354 50.7324 138.201 52.0718 136.915C53.4113 135.628 59.5804 128.169 62.9987 126.436C66.417 124.703 78.3143 121.002 79.362 120.954C80.4097 120.905 80.7545 124.562 82.7725 125.649C84.7906 126.736 92.7432 131.585 99.4076 131.013C106.072 130.442 106.566 129.666 107.515 127.523C108.466 125.381 107.792 121.993 107.792 121.993L107.694 119.899C107.694 119.899 117.47 124.167 119.052 124.357C120.636 124.545 128.322 129.041 129.598 131.082C130.873 133.121 136.877 152.931 136.769 153.461C136.663 153.99 134.28 156.332 133.388 156.897C132.496 157.464 131.989 157.881 131.989 157.881C131.989 157.881 133.253 161.742 132.732 164.652C132.213 167.563 129.825 172.659 129.499 174.117C129.174 175.576 128.257 186.9 127.924 188.228C127.593 189.555 126.823 192.74 126.323 193.287C125.824 193.836 126.106 195.202 125.737 196.189C125.375 197.153 125.844 198.69 125.896 199.655C125.96 200.772 125.13 201.476 125.173 202.393C125.215 203.309 126.447 205.583 126.651 207.149C126.855 208.712 125.537 210.249 125.598 211.557C125.659 212.867 126.58 218.596 127.023 219.625C127.463 220.654 130.067 223.025 130.497 223.793C130.925 224.561 131.652 226.101 131.016 226.524C130.38 226.947 113.596 229.957 108.641 230.58C103.684 231.205 82.7416 234.954 79.3609 235.457C74.0682 236.247 62.6671 235.418 59.1108 234.087C56.6285 233.159 53.2002 229.909 53.5318 228.581C53.8644 227.252 53.6479 225.426 54.1109 224.093C54.574 222.759 56.9833 214.353 58.6764 211.256C60.3684 208.161 60.8624 207.482 61.0746 206.423C61.2879 205.362 60.2446 202.657 61.6482 201.804C63.0518 200.951 64.5039 201.146 64.4056 199.052C64.3083 196.957 62.0438 193.389 63.5049 190.96C64.9659 188.53 64.6621 187.626 63.8861 185.038C63.1093 182.45 61.426 177.281 61.5731 174.782C61.7189 172.283 60.1065 169.5 61.0868 168.01C62.0671 166.521 62.1223 165.894 62.1223 165.894C62.1223 165.894 58.2852 166.144 55.7731 165.736C53.2621 165.329 50.4141 164.279 50.4141 164.279Z" fill="#83B84D"/>
<mask id="mask3_62_5042" style="mask-type:alpha" maskUnits="userSpaceOnUse" x="42" y="119" width="95" height="117">
<path fill-rule="evenodd" clip-rule="evenodd" d="M107.791 121.994C107.791 121.994 108.465 125.381 107.516 127.523C106.565 129.666 106.072 130.441 99.4076 131.013C92.7433 131.586 84.7903 126.735 82.7722 125.65C80.7542 124.561 80.4094 120.906 79.3617 120.954C78.3139 121.001 66.4179 124.704 62.9984 126.437C59.5812 128.169 53.4121 135.628 52.0726 136.916C50.732 138.202 43.1362 156.354 42.661 157.425C42.1868 158.497 44.8746 161.739 50.4149 164.281C50.4149 164.281 53.2618 165.328 55.7739 165.736C58.2848 166.145 62.122 165.895 62.122 165.895C62.122 165.895 62.0668 166.522 61.0865 168.011C60.1062 169.499 61.7187 172.282 61.5728 174.782C61.4258 177.281 63.109 182.451 63.8859 185.039C64.6618 187.627 64.9667 188.531 63.5046 190.96C62.0436 193.389 64.3092 196.957 64.4065 199.052C64.5037 201.147 63.0515 200.951 61.6479 201.803C60.2443 202.658 61.2876 205.363 61.0754 206.422C60.8621 207.481 60.3692 208.16 58.6761 211.256C56.983 214.353 54.5737 222.76 54.1117 224.093C53.6476 225.425 53.8641 227.253 53.5326 228.581C53.1999 229.909 56.6293 233.159 59.1104 234.088C62.668 235.419 74.0679 236.248 79.3606 235.458C82.7413 234.954 103.684 231.205 108.64 230.582C113.596 229.956 130.38 226.948 131.016 226.524C131.653 226.101 130.925 224.56 130.496 223.793C130.067 223.026 127.464 220.653 127.024 219.626C126.581 218.597 125.659 212.866 125.598 211.558C125.538 210.248 126.854 208.713 126.651 207.149C126.447 205.583 125.214 203.31 125.172 202.394C125.129 201.477 125.96 200.772 125.897 199.654C125.843 198.689 125.375 197.154 125.736 196.19C126.107 195.201 125.824 193.835 126.324 193.288C126.823 192.741 127.593 189.556 127.925 188.228C128.257 186.901 129.173 175.575 129.499 174.118C129.825 172.659 132.212 167.563 132.733 164.652C133.253 161.743 131.989 157.88 131.989 157.88C131.989 157.88 132.494 157.463 133.387 156.898C134.279 156.332 136.663 153.991 136.77 153.462C136.877 152.932 130.873 133.121 129.599 131.082C128.323 129.042 120.636 124.546 119.053 124.357C117.469 124.168 107.694 119.899 107.694 119.899" fill="white"/>
</mask>
<g mask="url(#mask3_62_5042)">
<path fill-rule="evenodd" clip-rule="evenodd" d="M133.961 162.847C133.961 162.847 132.17 165.728 129.943 166.706C127.713 167.685 117.172 170.448 111.046 170.383C104.921 170.319 96.701 170.351 93.3763 170.329C90.0524 170.31 87.498 171.827 86.8813 173.606C86.2646 175.384 82.5501 182.028 81.5765 183.648C80.6017 185.267 83.9471 181.964 87.3643 180.23C90.7829 178.497 93.2341 178.558 93.4825 180.121C93.7292 181.684 91.8381 186.145 89.3975 190.106C86.9587 194.068 94.7555 184.96 96.4367 183.483C98.118 182.005 100.804 179.606 104.138 179.801C107.47 179.995 107.575 182.265 105.46 185.686C103.345 189.109 96.3788 197.304 98.2988 197.214C100.22 197.126 112.706 179.752 114.768 178.957C116.831 178.16 121.803 176.005 122.392 177.377C122.98 178.751 121.526 185.114 122.882 184.178C124.239 183.239 124.726 178.668 126.78 177.698C128.834 176.729 131.484 177.305 132.998 176.011C134.512 174.716 133.961 162.847 133.961 162.847Z" fill="#7DB04A"/>
</g>
<mask id="mask4_62_5042" style="mask-type:alpha" maskUnits="userSpaceOnUse" x="42" y="119" width="95" height="117">
<path fill-rule="evenodd" clip-rule="evenodd" d="M107.791 121.994C107.791 121.994 108.465 125.381 107.516 127.523C106.565 129.666 106.072 130.441 99.4076 131.013C92.7433 131.586 84.7903 126.735 82.7722 125.65C80.7542 124.561 80.4094 120.906 79.3617 120.954C78.3139 121.001 66.4179 124.704 62.9984 126.437C59.5812 128.169 53.4121 135.628 52.0726 136.916C50.732 138.202 43.1362 156.354 42.661 157.425C42.1868 158.497 44.8746 161.739 50.4149 164.281C50.4149 164.281 53.2618 165.328 55.7739 165.736C58.2848 166.145 62.122 165.895 62.122 165.895C62.122 165.895 62.0668 166.522 61.0865 168.011C60.1062 169.499 61.7187 172.282 61.5728 174.782C61.4258 177.281 63.109 182.451 63.8859 185.039C64.6618 187.627 64.9667 188.531 63.5046 190.96C62.0436 193.389 64.3092 196.957 64.4065 199.052C64.5037 201.147 63.0515 200.951 61.6479 201.803C60.2443 202.658 61.2876 205.363 61.0754 206.422C60.8621 207.481 60.3692 208.16 58.6761 211.256C56.983 214.353 54.5737 222.76 54.1117 224.093C53.6476 225.425 53.8641 227.253 53.5326 228.581C53.1999 229.909 56.6293 233.159 59.1104 234.088C62.668 235.419 74.0679 236.248 79.3606 235.458C82.7413 234.954 103.684 231.205 108.64 230.582C113.596 229.956 130.38 226.948 131.016 226.524C131.653 226.101 130.925 224.56 130.496 223.793C130.067 223.026 127.464 220.653 127.024 219.626C126.581 218.597 125.659 212.866 125.598 211.558C125.538 210.248 126.854 208.713 126.651 207.149C126.447 205.583 125.214 203.31 125.172 202.394C125.129 201.477 125.96 200.772 125.897 199.654C125.843 198.689 125.375 197.154 125.736 196.19C126.107 195.201 125.824 193.835 126.324 193.288C126.823 192.741 127.593 189.556 127.925 188.228C128.257 186.901 129.173 175.575 129.499 174.118C129.825 172.659 132.212 167.563 132.733 164.652C133.253 161.743 131.989 157.88 131.989 157.88C131.989 157.88 132.494 157.463 133.387 156.898C134.279 156.332 136.663 153.991 136.77 153.462C136.877 152.932 130.873 133.121 129.599 131.082C128.323 129.042 120.636 124.546 119.053 124.357C117.469 124.168 107.694 119.899 107.694 119.899" fill="white"/>
</mask>
<g mask="url(#mask4_62_5042)">
<path fill-rule="evenodd" clip-rule="evenodd" d="M59.3673 206.371C59.3673 206.371 64.1815 208.333 66.7587 207.338C69.3371 206.345 75.746 203.116 80.0639 200.031C81.9969 198.648 85.4849 196.235 84.8671 198.013C84.2503 199.792 77.6259 207.796 75.6035 209.464C73.5821 211.133 73.1964 214.125 75.7991 213.653C78.4006 213.183 86.2761 209.493 87.8146 208.721C89.3528 207.951 91.1227 208.393 89.9655 209.847C88.8093 211.3 83.6823 217.66 83.0568 219.263C82.4313 220.866 82.0135 223.159 84.7411 221.635C87.4686 220.108 96.5149 215.27 100.26 211.16C103.21 207.923 110.513 200.319 111.426 201.152C112.34 201.984 108.343 206.324 106.695 208.5C105.047 210.676 100.197 216.411 98.8502 217.524C98.4086 217.888 91.767 227.399 99.2944 227.079C131.242 225.727 139.359 219.707 139.359 219.707C139.359 219.707 137.312 232.351 112.509 237.616C83.8227 243.706 44.0915 235.525 44.2661 235.234C44.5911 234.695 59.3673 206.371 59.3673 206.371Z" fill="#7DB04A"/>
</g>
<mask id="mask5_62_5042" style="mask-type:alpha" maskUnits="userSpaceOnUse" x="42" y="119" width="95" height="117">
<path fill-rule="evenodd" clip-rule="evenodd" d="M107.791 121.994C107.791 121.994 108.465 125.381 107.516 127.523C106.565 129.666 106.072 130.441 99.4076 131.013C92.7433 131.586 84.7903 126.735 82.7722 125.65C80.7542 124.561 80.4094 120.906 79.3617 120.954C78.3139 121.001 66.4179 124.704 62.9984 126.437C59.5812 128.169 53.4121 135.628 52.0726 136.916C50.732 138.202 43.1362 156.354 42.661 157.425C42.1868 158.497 44.8746 161.739 50.4149 164.281C50.4149 164.281 53.2618 165.328 55.7739 165.736C58.2848 166.145 62.122 165.895 62.122 165.895C62.122 165.895 62.0668 166.522 61.0865 168.011C60.1062 169.499 61.7187 172.282 61.5728 174.782C61.4258 177.281 63.109 182.451 63.8859 185.039C64.6618 187.627 64.9667 188.531 63.5046 190.96C62.0436 193.389 64.3092 196.957 64.4065 199.052C64.5037 201.147 63.0515 200.951 61.6479 201.803C60.2443 202.658 61.2876 205.363 61.0754 206.422C60.8621 207.481 60.3692 208.16 58.6761 211.256C56.983 214.353 54.5737 222.76 54.1117 224.093C53.6476 225.425 53.8641 227.253 53.5326 228.581C53.1999 229.909 56.6293 233.159 59.1104 234.088C62.668 235.419 74.0679 236.248 79.3606 235.458C82.7413 234.954 103.684 231.205 108.64 230.582C113.596 229.956 130.38 226.948 131.016 226.524C131.653 226.101 130.925 224.56 130.496 223.793C130.067 223.026 127.464 220.653 127.024 219.626C126.581 218.597 125.659 212.866 125.598 211.558C125.538 210.248 126.854 208.713 126.651 207.149C126.447 205.583 125.214 203.31 125.172 202.394C125.129 201.477 125.96 200.772 125.897 199.654C125.843 198.689 125.375 197.154 125.736 196.19C126.107 195.201 125.824 193.835 126.324 193.288C126.823 192.741 127.593 189.556 127.925 188.228C128.257 186.901 129.173 175.575 129.499 174.118C129.825 172.659 132.212 167.563 132.733 164.652C133.253 161.743 131.989 157.88 131.989 157.88C131.989 157.88 132.494 157.463 133.387 156.898C134.279 156.332 136.663 153.991 136.77 153.462C136.877 152.932 130.873 133.121 129.599 131.082C128.323 129.042 120.636 124.546 119.053 124.357C117.469 124.168 107.694 119.899 107.694 119.899L107.791 121.994Z" fill="white"/>
</mask>
<g mask="url(#mask5_62_5042)">
<path fill-rule="evenodd" clip-rule="evenodd" d="M59.7093 179.854C59.7093 179.854 62.5131 169.621 65.9381 167.101C69.3631 164.58 70.1952 157.064 71.1877 155.838C72.1801 154.609 69.3553 155.922 67.9352 159.268C66.5173 162.613 60.0475 167.374 60.0475 167.374L59.7093 179.854Z" fill="#7DB04A"/>
</g>
<path fill-rule="evenodd" clip-rule="evenodd" d="M48.718 190.357C49.1788 189.543 52.0335 184.67 54.7346 180.085C57.7141 175.026 64.0424 162.991 64.0424 162.991C64.0424 162.991 70.2844 154.764 69.4853 153.095C68.6863 151.426 65.7057 130.573 55.2087 135.72C49.7712 138.385 43.1567 158.67 42.0317 160.821C40.9077 162.973 30.1201 191.506 30.035 193.433C30.0161 193.864 29.9676 194.406 29.9222 194.996C30.2494 194.68 30.5963 194.363 30.9821 194.045C36.8451 189.732 42.6638 190.572 48.718 190.357Z" fill="#A67940"/>
<path fill-rule="evenodd" clip-rule="evenodd" d="M66.4812 133.621C69.4244 139.06 72.4968 147.314 71.1695 152.623C69.8421 157.932 66.5807 161.167 65.8569 162.513C65.1319 163.858 61.2372 168.734 61.2372 168.734C61.2372 168.734 54.2249 168.921 49.8053 166.962C45.3846 165.004 41.3938 160.991 41.2733 159.814C41.2733 159.814 48.1066 143.33 48.7885 141.069C49.4704 138.806 56.8076 131.583 57.6995 131.018C58.5914 130.451 63.9382 128.92 66.4812 133.621Z" fill="#83B84D"/>
<path fill-rule="evenodd" clip-rule="evenodd" d="M116.872 102.413C116.105 105.667 114.031 109.017 112.89 110.818C111.75 112.62 110.962 115.124 108.725 115.928C106.488 116.732 103.191 116.661 101.85 116.022C100.509 115.385 96.492 113.161 93.8635 111.183C91.2359 109.206 86.7013 105.263 85.7431 103.47C84.7849 101.679 84.4512 100.6 83.0785 97.4281C81.7069 94.2553 79.8503 86.2957 80.9831 80.5588C82.1159 74.8207 85.8193 66.0765 95.1216 64.8575C104.423 63.6385 108.377 65.9031 110.756 68.1542C113.134 70.4055 116.854 77.0542 117.011 82.295C117.067 84.2103 116.97 86.1112 117.1 87.8684C117.327 90.9139 117.794 93.5248 117.754 95.0235C117.689 97.3886 117.311 100.554 116.872 102.413Z" fill="#A67940"/>
<path fill-rule="evenodd" clip-rule="evenodd" d="M62.9045 124.407C63.404 123.86 63.8074 118.304 66.7494 113.838C69.6902 109.372 71.484 100.59 72.5195 94.6388C73.554 88.6876 74.9332 76.0245 77.169 73.297C79.4037 70.5683 80.9344 66.8239 83.736 64.9882C86.5365 63.1525 91.4536 61.2074 93.4658 62.1645C93.4658 62.1645 94.8389 60.657 96.9398 60.6912C99.0406 60.7244 108.25 61.0925 112.777 65.3429C117.303 69.5924 118.293 79.7854 118.323 80.4408C118.323 80.4408 114.582 76.1538 110.527 73.5875C106.471 71.0202 100.185 70.4179 99.0117 70.6036C97.8405 70.7892 95.6185 68.6265 95.6185 68.6265L96.1558 70.0146C96.3788 70.5936 96.0943 71.2391 95.5201 71.4734C94.0338 72.0845 91.3333 73.4362 89.8286 75.6642C87.6815 78.8471 86.4436 84.6769 86.1607 87.052C85.8778 89.4266 85.7949 90.4801 85.0158 90.6469C84.2366 90.8137 83.5337 89.7979 82.5833 89.1202C81.6339 88.4434 82.7004 93.0507 82.7004 93.0507C82.7004 93.0507 84.5615 100.639 83.2474 104.832C81.761 109.58 79.7043 113.262 74.2469 115.812C65.3613 119.963 62.9045 124.407 62.9045 124.407Z" fill="#46352D"/>
<path fill-rule="evenodd" clip-rule="evenodd" d="M84.8386 92.0113C84.8386 92.0113 82.4028 88.538 81.585 87.8771C80.7671 87.215 79.1757 86.8515 78.7723 87.5698C78.3689 88.2893 77.5632 91.6505 79.4067 95.5871C81.2523 99.5246 82.4514 100.869 83.4948 100.733C84.538 100.597 84.9458 99.9645 85.179 99.342C85.4133 98.7187 84.8485 94.1096 84.8386 92.0113Z" fill="#A67940"/>
<path fill-rule="evenodd" clip-rule="evenodd" d="M155.39 377.621C156.733 377.574 157.644 377.493 158.669 377.595C159.433 383.2 158.534 385.922 155.102 387.285C149.382 389.557 141.933 385.446 141.933 385.446C141.933 385.446 144.7 377.993 155.39 377.621Z" fill="#C4C4C4"/>
<path fill-rule="evenodd" clip-rule="evenodd" d="M162.694 430.406C196.327 430.442 223.574 441.75 223.549 455.662C223.527 469.575 196.243 480.823 162.61 480.787C128.974 480.752 101.728 469.443 101.752 455.53C101.775 441.619 129.059 430.371 162.694 430.406Z" fill="#D4D4D4"/>
<path fill-rule="evenodd" clip-rule="evenodd" d="M162.691 431.526C196.325 431.562 223.571 442.869 223.548 456.782C223.525 470.694 196.24 481.942 162.608 481.907C128.973 481.87 101.727 470.563 101.75 456.649C101.773 442.738 129.058 431.49 162.691 431.526Z" fill="#B5B5B5"/>
<path fill-rule="evenodd" clip-rule="evenodd" d="M162.694 430.406C196.327 430.442 223.574 441.75 223.549 455.662C223.527 469.575 196.243 480.823 162.61 480.787C128.974 480.752 101.728 469.443 101.752 455.53C101.775 441.619 129.059 430.371 162.694 430.406Z" fill="#E0E0E0"/>
<path fill-rule="evenodd" clip-rule="evenodd" d="M161.521 447.945C166.803 447.95 171.083 449.515 171.079 451.439C171.076 453.366 166.791 454.922 161.506 454.918C156.223 454.914 151.942 453.349 151.945 451.421C151.95 449.498 156.237 447.94 161.521 447.945Z" fill="#CCCCCC"/>
<path fill-rule="evenodd" clip-rule="evenodd" d="M152.232 248.599L171.359 248.617L171.093 451.428L151.967 451.412L152.232 248.599Z" fill="#CCCCCC"/>
<path fill-rule="evenodd" clip-rule="evenodd" d="M162.501 214.557C214.432 214.566 256.484 227.172 256.426 242.709C256.371 258.247 214.226 270.835 162.293 270.826C110.362 270.815 68.3107 258.212 68.3682 242.672C68.4245 227.135 110.57 214.547 162.501 214.557Z" fill="#C2C2C2"/>
<path fill-rule="evenodd" clip-rule="evenodd" d="M68.5006 238.248L256.56 238.284L256.425 243.308L68.3657 243.271L68.5006 238.248Z" fill="#C2C2C2"/>
<path fill-rule="evenodd" clip-rule="evenodd" d="M162.636 209.534C214.565 209.544 256.619 222.147 256.561 237.686C256.505 253.225 214.36 265.813 162.429 265.801C110.498 265.791 68.4456 253.188 68.5031 237.649C68.5595 222.112 110.704 209.523 162.636 209.534Z" fill="#EBEBEB"/>
<path fill-rule="evenodd" clip-rule="evenodd" d="M100.149 107.808C100.149 107.808 101.945 110.122 104.536 110.036C107.888 109.923 107.833 109.673 108.161 109.293C108.49 108.913 109.626 106.955 109.626 106.955L100.149 107.808Z" fill="#825B32"/>
<path fill-rule="evenodd" clip-rule="evenodd" d="M113.434 215.319C113.434 215.319 113.764 213.982 112.705 213.595C113.139 212.546 112.2 211.696 111.681 211.296C111.16 210.896 104.547 206.433 103.863 206.419C103.18 206.405 92.0216 209.077 90.6424 209.256C89.2641 209.435 66.5591 200.281 62.9982 198.713C59.4362 197.143 49.5791 190.688 49.5791 190.688C49.5791 190.688 48.0485 189.335 45.2844 188.22C42.5458 187.114 39.427 184.216 33.4181 188.327C31.0354 189.683 29.9987 192.266 29.6926 194.281C29.4727 195.725 29.4937 199.699 30.6872 200.512C33.5011 202.428 55.0033 210.5 59.8252 211.813C64.646 213.128 81.469 219.212 82.0471 219.738C82.6261 220.263 85.9627 221.778 88.5389 222.241C91.1165 222.704 99.0108 221.416 100.993 221.047C102.976 220.677 111.662 221.001 112.547 220.69C113.785 220.255 113.863 219.554 113.863 219.554C113.863 219.554 114.95 220.203 116.031 220.176C117.111 220.147 117.874 219.301 117.898 218.41C117.922 217.518 113.434 215.319 113.434 215.319Z" fill="#A67940"/>
<path fill-rule="evenodd" clip-rule="evenodd" d="M169.687 192.793C167.28 191.984 159.298 194.243 157.963 195.08C156.629 195.916 154.829 197.699 154.048 197.504C153.267 197.305 152.58 196.849 151.547 196.296C150.515 195.742 149.476 195.362 148.803 194.47C148.129 193.576 146.203 190.636 144.668 189.281C143.134 187.927 140.422 186.922 139.494 185.342C136.444 182.234 129.398 187.531 128.491 190.388C127.827 192.48 126.444 195.054 126.86 196.044C127.276 197.034 130.181 200.755 133.632 202.339C137.084 203.923 143.571 206.294 145.744 206.705C147.917 207.117 152.176 207.937 152.77 208.567C153.364 209.195 157.6 210.802 159.874 210.779C162.148 210.758 165.261 211.895 166.134 208.86C166.67 207.001 167.177 201.742 167.989 197.709C168.501 195.159 171.822 193.51 169.687 192.793Z" fill="#A67940"/>
<path fill-rule="evenodd" clip-rule="evenodd" d="M153.367 198.401C153.367 198.401 155.001 196.218 156.065 195.725C157.128 195.232 159.575 193.727 160.128 192.695C160.682 191.662 162.112 192.096 162.257 193.148C162.401 194.201 162.537 195.604 161.992 196.288C161.992 196.288 160.339 197.551 160.062 198.111C159.783 198.671 159.614 201.508 159.111 202.281C158.609 203.051 156.36 205.261 154.6 205.69C152.839 206.121 150.555 203.521 151.215 201.835C151.873 200.151 153.367 198.401 153.367 198.401Z" fill="#BF8C4A"/>
<path fill-rule="evenodd" clip-rule="evenodd" d="M167.977 210.17C166.703 210.363 164.772 210.701 164.039 210.286C163.308 209.872 162.44 208.931 163.017 207.854C163.2 207.553 160.694 208.242 160.251 207.524C159.593 206.456 159.913 205.581 159.913 205.581C159.913 205.581 158.87 205.679 158.196 204.876C157.604 204.171 157.675 202.49 159.395 201.927C161.116 201.365 164.334 200.735 164.645 200.569C163.864 200.35 163.441 198.754 164.299 197.774C165.157 196.793 166.241 196.355 166.241 196.355C166.241 196.355 167.689 194.796 167.809 194.236C167.927 193.674 167.735 193.484 167.697 192.669C169.523 192.501 170.204 192.58 171.132 193.392C172.018 194.168 172.292 195.969 171.572 196.736C170.852 197.502 169.636 199.073 169.233 199.455C170.156 199.253 170.729 200.446 170.585 201.427C170.424 202.537 169.687 203.073 169.286 203.325C169.87 203.537 170.135 204.211 170.157 204.956C170.179 205.699 169.559 206.773 169.559 206.773C169.559 206.773 170.459 209.792 167.977 210.17Z" fill="#A67940"/>
<path fill-rule="evenodd" clip-rule="evenodd" d="M248.58 119.398C245.042 127.558 239.785 163.275 233.343 167.805C227.947 171.614 202.427 179.663 199.382 188.128C196.836 195.18 190.058 200.299 183.536 202.581C177.01 204.858 174.821 208.868 174.734 215.772C174.65 222.678 191.368 225.057 200.497 224.555C209.343 224.077 215.353 219.691 221.657 216.013C227.944 212.333 230.027 213.834 240.158 213.55C250.281 213.262 267.232 214.152 274.132 211.782C281.03 209.427 284.995 205.165 294.758 199.641C304.508 194.112 321.819 116.885 321.819 116.885C306.08 25.069 252.117 111.247 248.58 119.398Z" fill="#996D35"/>
<path fill-rule="evenodd" clip-rule="evenodd" d="M136.038 380.687C137.381 380.638 138.292 380.559 139.316 380.659C140.081 386.264 139.183 388.987 135.75 390.349C130.03 392.621 122.58 388.51 122.58 388.51C122.58 388.51 125.347 381.058 136.038 380.687Z" fill="#CCCCCC"/>
<path fill-rule="evenodd" clip-rule="evenodd" d="M203.258 137.24C201.409 135.514 199.387 133.936 197.171 132.552C180.609 122.201 158.213 125.107 140.71 139.109L136.34 133.205C156.516 117.382 182.085 114.354 200.873 126.274C203.387 127.87 205.68 129.682 207.776 131.661L203.258 137.24ZM174.009 171.751C174.31 171.92 174.566 172.134 174.822 172.35L169.845 178.496L165.909 173.175C168.287 171.012 171.518 170.336 174.009 171.751ZM183.396 155.858C184.487 156.502 185.468 157.258 186.384 158.074L180.954 164.778C180.348 164.248 179.699 163.756 178.98 163.339C173.445 160.133 166.196 161.485 160.784 166.247L156.109 159.928C164.311 152.879 175.168 151 183.396 155.858ZM192.387 140.64C194.216 141.762 195.886 143.045 197.417 144.451L192.05 151.078C190.82 149.962 189.476 148.946 188.007 148.062C176.979 141.424 162.296 143.732 151.088 153.139L146.191 146.521C160.358 134.899 178.705 132.256 192.387 140.64Z" fill="#ACE9FA"/>
<path fill-rule="evenodd" clip-rule="evenodd" d="M104.968 222.175L155.139 211.959C156.166 211.759 157.488 212.002 158.093 212.501L185.86 228.178C186.465 228.677 186.123 229.245 185.097 229.446L135.775 240.321C134.748 240.524 133.426 240.281 132.822 239.779L104.204 223.443C103.988 223.264 103.892 223.076 103.907 222.9C103.917 222.769 103.831 221.566 103.956 221.456C104.135 221.3 104.583 222.251 104.968 222.175Z" fill="#ABABAB"/>
<path fill-rule="evenodd" clip-rule="evenodd" d="M104.968 220.863L155.139 210.646C156.166 210.447 157.488 210.689 158.093 211.189L185.86 226.865C186.465 227.365 186.123 227.933 185.097 228.134L135.775 239.009C134.748 239.212 133.426 238.968 132.822 238.467L104.204 222.131C103.6 221.631 103.941 221.063 104.968 220.863Z" fill="#CCCCCC"/>
<path fill-rule="evenodd" clip-rule="evenodd" d="M135.792 236.395L119.309 227.296C119.017 227.11 119.096 226.665 119.433 226.589L163.283 216.709L181.795 226.448L135.792 236.395Z" fill="black"/>
<path fill-rule="evenodd" clip-rule="evenodd" d="M143.854 192.798L194.418 184.794C195.269 184.713 195.764 185.396 195.524 186.321L187.127 226.658C186.875 227.628 185.947 228.543 185.055 228.701L135.372 239.659C134.264 239.855 133.621 239.127 133.943 238.034L141.398 194.855C141.702 193.82 142.804 192.899 143.854 192.798Z" fill="#BFBFBF"/>
<path fill-rule="evenodd" clip-rule="evenodd" d="M100.862 89.676C100.862 91.3678 99.4893 92.7408 97.7975 92.7408C96.104 92.7408 94.7327 91.3678 94.7327 89.676C94.7327 87.984 96.104 86.6113 97.7975 86.6113C99.4893 86.6113 100.862 87.984 100.862 89.676Z" fill="#F2F2F2"/>
<path fill-rule="evenodd" clip-rule="evenodd" d="M115.12 89.6417C115.12 91.2404 113.823 92.5371 112.224 92.5371C110.624 92.5371 109.327 91.2404 109.327 89.6417C109.327 88.0422 110.624 86.7458 112.224 86.7458C113.823 86.7458 115.12 88.0422 115.12 89.6417Z" fill="#F2F2F2"/>
<path fill-rule="evenodd" clip-rule="evenodd" d="M389.333 364.421C384.876 361.77 379.953 364.471 376.709 367.519C374.013 370.049 376.419 370.305 378.353 369.564C380.287 368.822 383.046 367.015 385.143 368.001C386.765 366.358 387.283 365.286 389.333 364.421Z" fill="black"/>
<path fill-rule="evenodd" clip-rule="evenodd" d="M384.985 369.324C385.404 369.201 385.622 368.739 385.465 368.331C384.555 365.975 382.677 365.049 379.855 365.327C377.183 365.591 373.688 367.751 372.536 370.088C371.383 372.427 373.096 372.896 375.012 371.834C376.925 370.772 379.375 369.486 381.768 370.453C382.834 369.955 383.893 369.647 384.985 369.324Z" fill="black"/>
<path fill-rule="evenodd" clip-rule="evenodd" d="M443.97 396.574C438.94 395.312 434.998 399.313 432.763 403.161C430.906 406.36 433.287 405.914 434.926 404.65C436.566 403.384 438.691 400.861 440.982 401.204C442.065 399.166 442.253 397.99 443.97 396.574Z" fill="black"/>
<path fill-rule="evenodd" clip-rule="evenodd" d="M445.199 155.764C449.796 164.442 454.054 270.817 454.054 270.817C450.532 307.088 437.616 297.293 437.335 315.686C437.144 329.576 435.86 361.802 434.612 367.003C433.418 371.975 431.382 377.554 423.223 379.673C414.071 382.048 405.611 381.482 394.049 380.234C386.526 379.427 380.78 377.509 379.082 376.443C368.93 370.051 388.379 363.153 389.215 356.094C390.052 348.925 392.207 338.833 388.632 331.244C384.797 323.07 375.933 304.447 376.431 286.34C377.055 261.928 397.907 193.748 397.907 193.748C397.907 193.748 440.603 147.092 445.199 155.764Z" fill="#996D35"/>
<path fill-rule="evenodd" clip-rule="evenodd" d="M437.122 206.26C432.23 214.606 417.824 257.24 414.758 279.053C411.683 300.876 435.649 344.522 440.491 352.275C445.321 360.014 453.071 368.328 453.596 374.831C454.129 381.326 452.797 387.734 448.263 391.973C443.727 396.204 434.374 400.268 436.714 404.934C437.385 406.252 442.046 414.722 451.165 415.827C462.707 417.227 476.434 416.156 487.372 414.377C498.31 412.591 501.691 405.526 503.327 401.265C504.98 397.011 506.686 380.092 504.962 369.451C503.251 358.807 505.291 338.084 507.785 320.223C510.602 300.049 524.915 284.246 513.826 224.349C502.734 164.452 449.855 136.257 449.855 136.257C449.855 136.257 442.016 197.913 437.122 206.26Z" fill="#B37F3E"/>
<path fill-rule="evenodd" clip-rule="evenodd" d="M304.727 17.997C332.149 14.0162 348.257 22.5558 359.784 35.0156C370.728 46.7062 375.88 79.6228 415.098 95.0489C454.33 110.472 489.001 138.107 499.342 164.6C514.777 204.125 513.842 239.699 504.467 264.029C494.078 290.93 473.576 291.06 469.538 308.167C465.486 325.325 419.61 313.099 398.526 301.166C377.042 288.994 359.276 269.884 342.385 256.938C308.885 231.244 280.482 191.361 260.978 160.482C241.486 129.594 240.393 125.671 240.386 114.235C240.386 103.836 242.187 81.2706 253.948 56.8384C253.948 56.8384 277.287 21.9723 304.727 17.997Z" fill="#B37F3E"/>
<mask id="mask6_62_5042" style="mask-type:alpha" maskUnits="userSpaceOnUse" x="240" y="17" width="272" height="300">
<path fill-rule="evenodd" clip-rule="evenodd" d="M304.727 17.997C277.287 21.9722 253.947 56.8384 253.947 56.8384C242.187 81.2705 240.386 103.836 240.386 114.235C240.394 125.671 241.487 129.594 260.978 160.482C280.482 191.361 308.885 231.244 342.386 256.939C359.276 269.884 377.041 288.994 398.526 301.166C419.611 313.099 465.486 325.325 469.538 308.166C473.576 291.061 494.078 290.93 504.467 264.028C513.842 239.699 514.777 204.125 499.341 164.601C489.002 138.107 454.33 110.471 415.098 95.0489C375.88 79.6228 370.728 46.705 359.784 35.0166C350.202 24.6578 337.456 17.01 317.673 17.01C313.659 17.01 309.353 17.325 304.727 17.997Z" fill="white"/>
</mask>
<g mask="url(#mask6_62_5042)">
<path fill-rule="evenodd" clip-rule="evenodd" d="M298.755 255.57C299.528 254.798 333.945 232.175 340.325 196.406C343.811 176.873 346.126 147.293 346.126 147.293C346.126 147.293 332.785 199.112 317.704 209.359C302.621 219.606 287.347 228.501 287.347 228.501L298.755 255.57Z" fill="#996D35"/>
</g>
<path fill-rule="evenodd" clip-rule="evenodd" d="M223.832 97.8715C217.784 100.379 185.747 110.217 171.74 95.7312C163.469 87.1774 180.993 83.2816 185.021 58.7312C205.667 66.0287 222.047 92.1185 223.832 97.8715Z" fill="#B37F3E"/>
<mask id="mask7_62_5042" style="mask-type:alpha" maskUnits="userSpaceOnUse" x="206" y="1" width="32" height="27">
<path fill-rule="evenodd" clip-rule="evenodd" d="M206.788 1.13525H237.642V27.2509H206.788V1.13525Z" fill="white"/>
</mask>
<g mask="url(#mask7_62_5042)">
<path fill-rule="evenodd" clip-rule="evenodd" d="M207.112 24.8937C204.873 10.7629 214.581 -1.2272 224.98 1.53354C234.894 4.16607 238.758 17.6094 237.368 26.6675C222.746 28.6645 207.112 24.8937 207.112 24.8937Z" fill="#996D35"/>
</g>
<path fill-rule="evenodd" clip-rule="evenodd" d="M183.537 19.4671C188.557 15.1624 189.634 12.763 199.74 12.174C211.534 7.6041 215.853 8.24731 228.218 7.28028C240.582 6.31325 251.827 7.72898 263.031 15.9825C279.114 20.8342 309.046 15.7691 320.425 18.6802C343.822 49.9258 336.305 106.355 330.098 128.989C323.892 151.621 284.594 199.872 275.001 192.876C258.031 180.501 247.388 162.333 230.259 144.445C218.415 132.076 197.439 103.037 185.633 89.0229C180.02 74.9978 178.724 74.0474 176.765 66.0945C172.564 49.0273 176.837 25.2107 183.537 19.4671Z" fill="#B37F3E"/>
<path fill-rule="evenodd" clip-rule="evenodd" d="M206.685 20.9143C206.685 20.9143 208.601 25.3394 211.771 26.9906C214.941 28.6417 216.657 30.2917 218.31 29.5004C219.96 28.708 222.404 25.5383 220.818 24.0187C219.233 22.5003 206.685 20.9143 206.685 20.9143Z" fill="#996D35"/>
<path fill-rule="evenodd" clip-rule="evenodd" d="M258.406 13.9443C264.244 9.15116 274.097 5.03106 281.152 13.6194C287.184 20.9622 276.81 36.102 270.837 35.9462C266.886 35.7329 268.109 28.0884 264.125 23.9871C261.054 20.8262 253.682 18.5794 258.406 13.9443Z" fill="#996D35"/>
<path fill-rule="evenodd" clip-rule="evenodd" d="M207.711 21.6267C209.005 25.35 215.325 29.7917 217.646 27.3316C218.282 23.0413 212.864 18.7322 211.046 18.7941C209.228 18.856 207.711 21.6267 207.711 21.6267Z" fill="black"/>
<path fill-rule="evenodd" clip-rule="evenodd" d="M201.352 21.7434C207.012 25.1705 211.364 35.3237 209.913 46.0992C208.334 57.8263 204.627 69.5047 199.623 75.3522C191.331 85.039 182.746 91.2836 175.606 93.5038C164.677 96.9032 158.776 92.0114 160.805 86.299C162.838 80.5874 167.518 76.9724 172.308 68.572C175.137 63.6108 178.217 58.233 178.948 52.8718C175.043 48.0145 171.179 44.0757 167.633 38.9355C165.293 35.5448 165.504 32.31 167.527 26.8503C171.191 16.9613 169.622 14.1718 171.29 11.7106C172.291 10.234 173.909 8.70116 175.811 8.19941C180.881 6.86104 192.78 8.07673 201.352 21.7434Z" fill="#ECBF8D"/>
<path fill-rule="evenodd" clip-rule="evenodd" d="M172.923 27.7439C177.712 30.7666 183.359 34.0799 190.729 42.0073C196.053 47.7354 201.397 53.3862 201.168 58.06C200.791 65.7742 196.825 73.7403 189.313 80.0542C182.901 85.443 180.266 88.2767 173.472 90.1798C165.827 92.3237 163.465 90.9902 161.943 89.5653C160.422 88.1386 161.508 84.623 164.736 81.0511C169.285 76.0191 169.939 74.9162 174.723 67.3689C178.403 61.5635 180.406 55.3523 180.874 52.2081C176.297 46.2998 173.769 44.505 169.585 39.1151C166.631 35.3121 169.974 28.2943 172.923 27.7439Z" fill="black"/>
<path fill-rule="evenodd" clip-rule="evenodd" d="M186.295 8.50706C188.203 9.59676 189.037 12.3077 188.705 14.8099C188.37 17.3131 186.575 19.3942 183.595 19.6252C180.616 19.855 176.175 20.6486 172.876 17.8447C169.579 15.0398 169.888 12.258 171.312 9.70064C173.049 6.58405 174.361 4.79145 176.72 5.15837C179.079 5.52529 184.026 7.20958 186.295 8.50706Z" fill="black"/>
<path fill-rule="evenodd" clip-rule="evenodd" d="M184.077 40.5095C184.749 37.7741 188.624 41.5052 188.04 42.9321C187.084 45.2651 185.832 47.4677 185.088 48.7232C184.343 49.9776 183.835 48.879 183.92 47.4787C184.006 46.0774 183.758 41.8026 184.077 40.5095Z" fill="white"/>
<path fill-rule="evenodd" clip-rule="evenodd" d="M173.376 39.5673C172.854 41.0725 172.662 41.7765 172.07 43.4807C171.556 44.9639 170.991 44.9948 170.556 43.2199C170.283 42.1025 170.075 40.6017 170.322 39.4081C170.758 37.3105 171.96 35.2184 172.799 35.5124C173.635 35.8074 174.354 36.7347 173.376 39.5673Z" fill="white"/>
<path fill-rule="evenodd" clip-rule="evenodd" d="M186.656 42.2246C185.478 43.2435 184.651 42.3705 182.968 41.9383C179.884 41.1449 175.725 39.7568 173.785 39.759C171.844 39.7612 171.337 39.1854 171.421 38.5289C171.558 37.4591 171.308 35.8311 172.837 35.2133C174.101 34.7039 175.64 34.779 177.501 35.2664C178.509 35.5295 182.718 36.7385 185.961 39.6164C187.322 40.8221 187.459 41.5305 186.656 42.2246Z" fill="white"/>
<path fill-rule="evenodd" clip-rule="evenodd" d="M201.032 56.456C201.309 57.5678 201.15 58.789 200.946 60.4932C199.219 62.9589 197.012 60.7264 195.313 65.5195C193.901 69.5037 191.218 75.6772 187.169 78.113C184.504 79.7155 181.762 80.2063 179.703 78.9916C176.177 76.9117 176.663 72.565 179.214 67.7818C182.41 61.7862 186.583 58.9592 189.323 57.707C193.746 55.6867 198.154 54.1904 201.032 56.456Z" fill="#59273B"/>
<path fill-rule="evenodd" clip-rule="evenodd" d="M176.279 8.15184C178.266 8.60717 181.966 9.92674 183.806 10.8463C184.221 11.054 184.904 10.854 185.05 10.4429C185.218 9.96871 184.819 9.61067 184.406 9.32222C183.138 8.43366 178.766 6.92288 176.578 6.58691C176.152 6.5206 175.713 6.65874 175.568 7.06655C175.423 7.47768 175.59 7.99379 176.279 8.15184Z" fill="#707070"/>
<path fill-rule="evenodd" clip-rule="evenodd" d="M181.188 76.8931C183.499 74.0131 183.882 75.1447 183.422 77.5994C182.963 80.0529 181.559 83.3683 179.074 83.4369C176.59 83.5043 177.797 81.7006 178.383 80.6784C178.97 79.6572 180.301 77.9995 181.188 76.8931Z" fill="white"/>
<path fill-rule="evenodd" clip-rule="evenodd" d="M168.915 72.2078C169.466 70.3898 169.995 71.2419 170.106 72.4145C170.218 73.5882 170.503 75.0448 170.729 76.3589C170.955 77.6718 169.845 80.0612 168.593 79.1782C167.342 78.2952 168.258 74.3696 168.915 72.2078Z" fill="white"/>
<path fill-rule="evenodd" clip-rule="evenodd" d="M178.93 79.8945C179.964 79.6603 178.846 82.7603 178.312 83.104C177.491 83.6345 174.425 83.6654 172.093 82.2895C169.397 80.7002 168.37 79.2945 168.367 78.3528C168.363 77.4134 169.114 76.0563 170.089 76.2088C171.064 76.3613 171.038 77.5715 174.142 78.9684C176.116 79.8581 177.692 80.1742 178.93 79.8945Z" fill="white"/>
<path fill-rule="evenodd" clip-rule="evenodd" d="M211.964 22.5991C211.554 23.2036 211.71 24.0259 212.314 24.437C212.918 24.847 213.742 24.6901 214.152 24.0856C214.563 23.481 214.405 22.6588 213.801 22.2488C213.196 21.8376 212.374 21.9945 211.964 22.5991Z" fill="white"/>
<path fill-rule="evenodd" clip-rule="evenodd" d="M206.109 21.6785C209.316 20.2738 214.952 23.4004 227.643 26.2893C238.242 26.1643 235.925 18.2656 234.523 17.6269C233.12 16.9881 214.192 13.8914 214.192 13.8914L205.723 13.3586C205.723 13.3586 205.3 22.031 206.109 21.6785Z" fill="#B37F3E"/>
<path fill-rule="evenodd" clip-rule="evenodd" d="M506.801 191.454C506.801 191.454 514.288 195.511 514.473 200.828C511.697 199.449 509.394 198.866 509.394 198.866C509.394 198.866 514.398 204.634 512.632 206.83C510.539 203.896 506.685 203.521 506.685 203.521L495.206 189.073L506.801 191.454Z" fill="#B37F3E"/>
<path fill-rule="evenodd" clip-rule="evenodd" d="M355.801 30.3298C358.429 28.7615 360.858 30.4005 361.505 31.2824C359.827 30.5939 359.226 33.0761 359.226 33.0761C359.226 33.0761 363.564 32.497 365.438 36.08C363.081 36.0479 361.312 36.4038 361.312 36.4038C361.312 36.4038 364.622 39.053 366.146 40.7991C362.68 41.0566 360.983 40.4842 360.983 40.4842L348.371 34.3515L355.801 30.3298Z" fill="#B37F3E"/>
<path fill-rule="evenodd" clip-rule="evenodd" d="M192.477 101.324C191.236 103.389 192.52 105.307 193.212 105.818C192.675 104.495 194.631 104.028 194.631 104.028C194.631 104.028 194.163 107.443 196.979 108.926C196.961 107.071 197.245 105.679 197.245 105.679C197.245 105.679 199.322 108.292 200.692 109.498C200.905 106.769 200.458 105.433 200.458 105.433L195.663 95.4871L192.477 101.324Z" fill="#B37F3E"/>
<path fill-rule="evenodd" clip-rule="evenodd" d="M205.366 228.801C200.187 229.078 197.6 234.064 196.6 238.4C195.769 242.002 197.912 240.877 199.107 239.185C200.3 237.492 201.585 234.454 203.876 234.107C204.311 231.84 204.144 230.661 205.366 228.801Z" fill="black"/>
<path fill-rule="evenodd" clip-rule="evenodd" d="M276.003 139.687C272.442 147.889 267.157 183.804 260.679 188.358C255.254 192.188 229.593 200.281 226.534 208.797C223.973 215.888 217.155 221.033 210.601 223.325C204.04 225.616 201.834 229.649 201.746 236.593C201.666 243.536 218.47 245.925 227.652 245.426C236.545 244.943 242.592 240.535 248.93 236.831C255.251 233.134 257.348 234.646 267.531 234.357C277.714 234.065 294.755 234.965 301.691 232.58C308.628 230.209 312.615 225.924 322.435 220.374C332.24 214.81 349.646 137.158 349.646 137.158C333.817 44.8367 279.556 131.488 276.003 139.687Z" fill="#B37F3E"/>
<path fill-rule="evenodd" clip-rule="evenodd" d="M222.162 238.626C219.814 237.183 217.329 239.035 215.907 241.434C214.793 243.31 212.434 248.042 214.448 249.898C216.006 251.336 216.824 248.029 217.599 246.838C218.663 245.203 221.224 244.233 222.812 242.79C223.953 241.75 223.769 239.613 222.162 238.626Z" fill="black"/>
<path fill-rule="evenodd" clip-rule="evenodd" d="M214.299 241.882C215.422 241.285 217.424 240.616 216.39 238.516C215.354 236.417 212.477 236.08 210.316 238.112C208.5 239.82 205.781 244.322 206.37 246.92C206.958 249.517 208.148 248.557 209.332 246.863C210.515 245.17 212.071 243.069 214.299 241.882Z" fill="black"/>
<path fill-rule="evenodd" clip-rule="evenodd" d="M211.216 237.201C211.434 236.945 211.467 236.561 211.262 236.293C209.721 234.266 207.958 234.442 205.354 236.245C203.75 237.357 201.216 241.777 201.355 244.083C201.496 246.388 202.877 246.381 204.03 244.598C205.184 242.815 206.357 240.591 208.847 240.313C209.593 239.197 210.357 238.218 211.216 237.201Z" fill="black"/>
<path fill-rule="evenodd" clip-rule="evenodd" d="M206.823 234.881C207.111 234.551 207.044 234.043 206.692 233.785C204.656 232.291 202.574 232.523 200.349 234.279C198.24 235.944 196.463 239.646 196.753 242.238C197.043 244.828 198.739 244.299 199.777 242.373C200.817 240.446 202.186 238.042 204.724 237.566C205.352 236.571 206.076 235.74 206.823 234.881Z" fill="black"/>
<path fill-rule="evenodd" clip-rule="evenodd" d="M452.884 409.856C451.067 407.786 448.147 408.822 446.081 410.694C444.463 412.159 440.813 415.984 442.189 418.352C443.254 420.185 445.011 417.267 446.103 416.358C447.602 415.108 450.335 414.937 452.278 414.026C453.676 413.37 454.129 411.272 452.884 409.856Z" fill="black"/>
<path fill-rule="evenodd" clip-rule="evenodd" d="M445.512 411.615C446.76 411.374 448.869 411.326 448.499 409.015C448.13 406.704 445.48 405.532 442.816 406.837C440.578 407.934 436.651 411.433 436.448 414.089C436.244 416.747 437.663 416.179 439.295 414.908C440.926 413.64 443.032 412.091 445.512 411.615Z" fill="black"/>
<path fill-rule="evenodd" clip-rule="evenodd" d="M444.092 406.586C444.375 406.405 444.52 406.048 444.404 405.732C443.528 403.34 441.791 402.989 438.773 403.943C436.912 404.533 433.188 408.008 432.641 410.252C432.094 412.498 433.416 412.899 435.044 411.535C436.672 410.172 438.45 408.392 440.911 408.862C441.952 408.015 442.97 407.304 444.092 406.586Z" fill="black"/>
<path fill-rule="evenodd" clip-rule="evenodd" d="M442.399 402.378C442.771 402.147 442.858 401.643 442.598 401.292C441.092 399.264 439.034 398.872 436.391 399.894C433.885 400.861 431.095 403.876 430.607 406.438C430.122 408.997 431.896 408.993 433.458 407.459C435.02 405.924 437.036 404.031 439.601 404.324C440.494 403.559 441.433 402.979 442.399 402.378Z" fill="black"/>
<path fill-rule="evenodd" clip-rule="evenodd" d="M386.151 374.574C384.655 372.261 381.614 372.859 379.296 374.41C377.483 375.623 373.314 378.875 374.329 381.419C375.115 383.388 377.28 380.758 378.493 380.016C380.156 379 382.887 379.229 384.941 378.61C386.419 378.166 387.175 376.158 386.151 374.574Z" fill="black"/>
<path fill-rule="evenodd" clip-rule="evenodd" d="M380.682 375.546C381.952 375.491 384.046 375.753 384.019 373.41C383.99 371.07 381.539 369.525 378.714 370.426C376.339 371.185 371.945 374.075 371.356 376.673C370.766 379.27 372.253 378.917 374.051 377.898C375.851 376.881 378.162 375.657 380.682 375.546Z" fill="black"/>
<path fill-rule="evenodd" clip-rule="evenodd" d="M381.479 371.059C381.785 370.921 381.98 370.59 381.912 370.26C381.396 367.765 379.729 367.165 376.603 367.67C374.676 367.98 370.485 370.874 369.616 373.016C368.746 375.156 369.995 375.746 371.805 374.634C373.616 373.523 375.634 372.022 378.001 372.846C379.154 372.16 380.264 371.606 381.479 371.059Z" fill="black"/>
<path fill-rule="evenodd" clip-rule="evenodd" d="M116.385 249.447C116.385 253.61 125.457 256.983 136.647 256.983C147.838 256.983 156.909 253.61 156.909 249.447C156.909 245.284 147.838 241.911 136.647 241.911C125.457 241.911 116.385 245.284 116.385 249.447Z" fill="#CCCCCC"/>
<path fill-rule="evenodd" clip-rule="evenodd" d="M116.385 248.4C116.385 252.563 125.457 255.937 136.647 255.937C147.838 255.937 156.909 252.563 156.909 248.4C156.909 244.237 147.838 240.864 136.647 240.864C125.457 240.864 116.385 244.237 116.385 248.4Z" fill="white"/>
<path fill-rule="evenodd" clip-rule="evenodd" d="M149.412 236.925C151.299 236.775 151.895 237.257 152.144 237.666C152.605 238.422 152.342 239.554 150.702 239.813C149.065 240.073 147.773 239.702 147.476 238.961C147.177 238.22 147.524 237.073 149.412 236.925ZM125.723 235.184C125.872 235.591 130.093 249.234 130.39 249.456C130.689 249.678 132.774 251.27 137.294 251.27C141.813 251.27 143.303 249.234 143.602 248.604C143.899 247.976 144.645 246.214 145.444 244.617C146.063 243.378 147.332 241.713 150.305 241.516C152.232 241.389 153.78 240.331 154.13 239.147C154.775 236.961 152.988 235.518 151.299 235.148C149.611 234.777 147.574 235.407 147.574 235.407C147.574 235.407 147.673 234.814 147.673 234.258C147.673 233.703 147.127 233.259 146.283 232.591C145.438 231.927 142.409 230.554 137.144 230.518C131.88 230.481 129 231.517 127.162 232.257C125.326 232.999 125.573 234.777 125.723 235.184Z" fill="#F7F7F7"/>
<path fill-rule="evenodd" clip-rule="evenodd" d="M145.836 235.36C145.836 235.36 143.104 237.36 136.45 237.248C129.794 237.137 127.361 235.101 127.361 235.101C127.361 235.101 129.049 231.916 136.151 231.916C144.693 231.916 145.836 235.36 145.836 235.36Z" fill="#C5773F"/>
<path fill-rule="evenodd" clip-rule="evenodd" d="M147.524 236.053C147.524 236.053 144.296 247.085 144.172 247.402C144.048 247.717 143.75 249.364 142.459 250.048C141.168 250.733 140.075 250.993 140.075 250.993L143.899 237.777C143.899 237.777 146.084 237.738 147.524 236.053Z" fill="#D9D9D9"/>
<path fill-rule="evenodd" clip-rule="evenodd" d="M152.189 238.979C152.189 238.979 153.165 238.091 152.481 237.273C151.795 236.456 150.958 236.384 150.142 236.417C148.968 236.465 147.912 236.607 147.58 237.756C148.339 237.096 149.449 236.895 150.783 237.016C151.959 237.121 152.52 238.074 152.189 238.979Z" fill="#D9D9D9"/>
<path fill-rule="evenodd" clip-rule="evenodd" d="M98.5288 87.6492C97.6079 87.6492 96.8616 88.3963 96.8616 89.3161C96.8616 90.2362 97.6079 90.9824 98.5288 90.9824C99.4489 90.9824 100.194 90.2362 100.194 89.3161C100.194 88.3963 99.4489 87.6492 98.5288 87.6492Z" fill="#694C28"/>
<path fill-rule="evenodd" clip-rule="evenodd" d="M99.4366 89.2273C99.4366 89.6558 99.0889 90.0026 98.6605 90.0026C98.2321 90.0026 97.8844 89.6558 97.8844 89.2273C97.8844 88.798 98.2321 88.4512 98.6605 88.4512C99.0889 88.4512 99.4366 88.798 99.4366 89.2273Z" fill="black"/>
<path fill-rule="evenodd" clip-rule="evenodd" d="M99.5674 88.6572C99.5674 88.8842 99.3839 89.0677 99.1574 89.0677C98.9318 89.0677 98.7483 88.8842 98.7483 88.6572C98.7483 88.4307 98.9318 88.2483 99.1574 88.2483C99.3839 88.2483 99.5674 88.4307 99.5674 88.6572Z" fill="white"/>
<path fill-rule="evenodd" clip-rule="evenodd" d="M112.857 87.5498C111.958 87.5498 111.229 88.2781 111.229 89.1774C111.229 90.0764 111.958 90.8059 112.857 90.8059C113.756 90.8059 114.485 90.0764 114.485 89.1774C114.485 88.2781 113.756 87.5498 112.857 87.5498Z" fill="#694C28"/>
<path fill-rule="evenodd" clip-rule="evenodd" d="M113.715 89.065C113.715 89.4837 113.376 89.8235 112.957 89.8235C112.538 89.8235 112.199 89.4837 112.199 89.065C112.199 88.6463 112.538 88.3059 112.957 88.3059C113.376 88.3059 113.715 88.6463 113.715 89.065Z" fill="black"/>
<path fill-rule="evenodd" clip-rule="evenodd" d="M113.843 88.5082C113.843 88.7278 113.664 88.9069 113.444 88.9069C113.223 88.9069 113.044 88.7278 113.044 88.5082C113.044 88.2872 113.223 88.1082 113.444 88.1082C113.664 88.1082 113.843 88.2872 113.843 88.5082Z" fill="white"/>
<path fill-rule="evenodd" clip-rule="evenodd" d="M94.5096 90.0437C94.5096 90.0437 95.0645 90.5398 97.6447 90.5907C99.9703 90.6372 101.029 89.9006 101.029 89.9006C101.029 89.9006 100.632 93.1639 97.5297 93.0559C95.8713 92.9971 94.809 91.4484 94.5096 90.0437Z" fill="#A67940"/>
<path fill-rule="evenodd" clip-rule="evenodd" d="M115.274 89.7312C115.274 89.7312 115.327 90.1763 112.749 90.2676C110.17 90.3607 109.134 89.9919 109.134 89.9919C109.134 89.9919 109.577 92.9049 112.449 92.8013C114.502 92.7267 115.105 90.9533 115.274 89.7312Z" fill="#A67940"/>
<path fill-rule="evenodd" clip-rule="evenodd" d="M94.4833 89.849C94.4833 89.849 95.7247 88.7174 97.2962 88.5612C98.8677 88.4054 99.9353 88.9491 100.384 89.2081C100.834 89.4662 101.029 89.9008 101.029 89.9008C101.029 89.9008 101.41 89.2441 100.977 88.3988C100.545 87.5522 99.5446 86.3951 98.3875 86.2746C97.1505 86.1442 96.0566 86.5155 95.3481 87.2063C94.6405 87.897 94.4833 89.849 94.4833 89.849Z" fill="#A67940"/>
<path fill-rule="evenodd" clip-rule="evenodd" d="M115.194 89.6241C115.194 89.6241 115.349 88.8691 113.817 88.4836C112.638 88.1852 111.259 88.478 110.627 88.7655C109.799 89.1412 109.059 89.9006 109.059 89.9006C109.059 89.9006 108.679 89.2439 109.11 88.3985C109.542 87.5519 110.544 86.3948 111.699 86.2743C112.937 86.145 114.031 86.5153 114.739 87.206C115.447 87.8978 115.194 89.6241 115.194 89.6241Z" fill="#A67940"/>
<path fill-rule="evenodd" clip-rule="evenodd" d="M100.804 85.8724C101.632 85.8724 101.909 85.3409 101.909 85.3409C101.909 85.3409 101.077 84.1009 98.7659 83.9594C96.7554 83.8356 95.0382 84.2689 93.8275 85.0292C92.5844 85.8105 91.5818 87.1368 91.5818 87.1368C91.5818 87.1368 93.0734 85.7609 94.0347 85.3056C95.0549 84.8237 96.694 84.6844 98.3857 85.0292C100.078 85.3752 99.9748 85.8724 100.804 85.8724Z" fill="#46352D"/>
<path fill-rule="evenodd" clip-rule="evenodd" d="M109.393 86.0735C109.393 86.0735 109.728 86.2946 110.214 86.3542C110.699 86.4139 111.068 85.4834 112.722 85.4027C114.601 85.3109 116.383 86.1619 116.383 86.1619C116.383 86.1619 115.815 85.5109 115.409 85.2424C115 84.9728 113.748 84.4699 112.797 84.4909C111.845 84.5141 110.79 84.8391 110.196 85.2236C109.599 85.6082 109.393 86.0735 109.393 86.0735Z" fill="#46352D"/>
<path fill-rule="evenodd" clip-rule="evenodd" d="M106.859 88.8647C106.859 88.8647 106.261 91.5126 106.399 94.5283C106.433 95.2657 106.33 98.097 107.067 98.1901C107.803 98.2814 107.988 97.9355 107.942 96.6923C107.919 96.112 107.404 94.307 107.274 92.5942C107.126 90.6408 106.859 88.8647 106.859 88.8647Z" fill="#B38345"/>
<path fill-rule="evenodd" clip-rule="evenodd" d="M101.438 99.1057C101.438 99.1057 101.346 99.7966 101.623 100.141C101.899 100.487 102.724 100.395 102.999 100.326C103.276 100.258 104.043 99.895 104.517 100.019C104.681 100.062 105.01 100.405 105.184 100.505C105.506 100.688 105.773 100.721 105.773 100.721C105.773 100.721 105.168 100.832 104.339 100.717C103.51 100.602 102.589 100.648 102.243 100.625C101.899 100.602 101.67 100.52 101.508 100.244C101.347 99.9678 101.253 99.7729 101.438 99.1057Z" fill="#825B32"/>
<path fill-rule="evenodd" clip-rule="evenodd" d="M109.796 98.6045C109.796 98.6045 110.095 99.7335 109.664 100.112C109.395 100.35 109.081 100.492 108.667 100.469C108.253 100.447 108.102 100.036 107.945 100.166C107.542 100.503 107.14 100.62 106.365 100.746C106.467 100.868 107.448 100.654 107.862 100.7C108.276 100.746 108.898 100.862 109.267 100.7C109.635 100.539 109.911 100.101 109.957 99.7098C110.002 99.3191 109.796 98.6045 109.796 98.6045Z" fill="#825B32"/>
<path fill-rule="evenodd" clip-rule="evenodd" d="M110.385 90.2167C110.385 90.2167 112.093 90.5547 113.08 90.4686C114.069 90.3809 114.335 90.3378 114.554 90.2685C115.288 90.0341 115.117 89.718 115.117 89.718C115.117 89.718 114.993 89.8883 114.628 89.9867C113.952 90.1693 113.347 90.2342 112.656 90.2597C111.965 90.2852 110.385 90.2167 110.385 90.2167Z" fill="#46352D"/>
<path fill-rule="evenodd" clip-rule="evenodd" d="M99.98 90.3326C99.98 90.3326 98.1891 90.8497 96.751 90.7883C95.3112 90.7277 94.6001 90.3476 94.6001 90.3476L94.7564 90.1816C94.7564 90.1816 95.4929 90.5293 96.9064 90.5635C98.319 90.5987 99.98 90.3326 99.98 90.3326Z" fill="#46352D"/>
<path fill-rule="evenodd" clip-rule="evenodd" d="M109.956 89.1396C109.956 89.1396 111.074 88.2147 113.195 88.3141C115.118 88.4047 115.36 88.9816 115.36 88.9816L115.108 89.4443C115.108 89.4443 114.382 88.2887 112.586 88.4146C111.089 88.5186 109.956 89.1396 109.956 89.1396Z" fill="#46352D"/>
<path fill-rule="evenodd" clip-rule="evenodd" d="M100.055 89.0508C100.055 89.0508 98.9388 88.2453 96.8327 88.4962C94.9188 88.7242 94.5351 89.3151 94.5351 89.3151L94.7397 89.7365C94.7397 89.7365 96.1224 88.6609 97.6605 88.5956C99.1609 88.5327 100.055 89.0508 100.055 89.0508Z" fill="#46352D"/>
<path fill-rule="evenodd" clip-rule="evenodd" d="M96.3322 103.957C96.3322 103.957 97.679 105.909 99.8211 107.307C101.961 108.706 103.515 108.551 104.759 108.515C106.003 108.481 107.435 108.602 108.697 107.515C109.782 106.577 111.09 104.499 111.434 103.938C111.49 103.848 111.519 103.797 111.519 103.797L106.477 103.826L100.935 103.937L96.3322 103.957Z" fill="#30132B"/>
<path fill-rule="evenodd" clip-rule="evenodd" d="M99.2206 104.233L98.2312 104.492L102.897 106.349C102.897 106.349 106.424 106.461 106.45 106.461C106.476 106.461 108.704 105.291 108.704 105.291L110.268 104.129L109.681 103.975L103.086 104.069L99.2206 104.233Z" fill="#754F4C"/>
<path fill-rule="evenodd" clip-rule="evenodd" d="M104.069 107.031C104.069 107.031 104.378 107.24 104.742 107.203C105.106 107.167 105.425 106.966 105.425 106.966C105.425 106.966 105.93 107.146 106.309 107.128C106.689 107.111 106.933 106.855 106.933 106.855C106.933 106.855 107.434 106.829 107.59 106.725C107.745 106.622 107.895 106.381 107.895 106.381C107.895 106.381 108.223 106.326 108.291 106.257C108.361 106.187 108.721 105.66 108.721 105.66C108.721 105.66 109.166 105.452 109.286 105.263C109.408 105.074 109.76 104.594 109.76 104.594L109.781 104.477C109.781 104.477 109.499 104.579 109.376 104.653C109.232 104.737 109.056 104.763 108.97 104.833C108.883 104.901 108.727 104.956 108.556 105.042C108.436 105.102 108.117 105.166 108.013 105.271C107.91 105.374 107.712 105.459 107.712 105.459C107.712 105.459 107.403 105.495 107.242 105.591C107.075 105.69 106.831 105.719 106.831 105.719C106.831 105.719 106.285 105.651 106.076 105.655C105.847 105.66 105.438 105.776 105.438 105.776C105.438 105.776 104.996 105.664 104.755 105.646C104.513 105.628 104.32 105.738 104.155 105.754C104.031 105.764 103.643 105.631 103.453 105.614C103.263 105.596 102.959 105.632 102.959 105.632C102.959 105.632 102.477 105.48 102.305 105.427C102.211 105.399 101.73 105.409 101.473 105.341C101.255 105.284 100.626 105.156 100.523 105.139C100.299 105.105 99.1723 104.842 99.1723 104.842C99.1723 104.842 99.2338 105.114 99.3198 105.183C99.4059 105.252 100.304 106.109 100.459 106.161C100.615 106.213 101.186 106.42 101.342 106.472C101.49 106.522 102.009 106.919 102.181 106.955C102.353 106.989 102.863 106.911 102.863 106.911C102.863 106.911 102.896 107.024 103.19 107.111C103.483 107.197 104.069 107.031 104.069 107.031Z" fill="#F2F2F2"/>
<path fill-rule="evenodd" clip-rule="evenodd" d="M96.3322 103.957C96.3322 103.957 98.0117 104.786 101.133 104.89C104.255 104.992 106.744 105.028 107.895 104.863C108.424 104.788 111.519 103.797 111.519 103.797C111.519 103.797 107.442 103.638 106.87 103.629C106.727 103.626 106.371 103.8 105.735 103.797C105.341 103.796 104.935 103.63 104.459 103.629C102.623 103.622 100.432 103.81 100.382 103.816C100.297 103.826 96.3322 103.957 96.3322 103.957Z" fill="#94684D"/>
<path fill-rule="evenodd" clip-rule="evenodd" d="M109.626 106.956C109.212 107.552 108.343 109.331 107.247 109.5C106.149 109.668 104.224 109.758 102.912 109.552C101.599 109.346 99.3031 107.349 98.4419 106.554C97.578 105.757 96.528 104.304 96.528 104.304C96.528 104.304 100.729 107.117 101.414 107.294C102.098 107.472 103.101 107.715 104.91 107.622C106.719 107.528 107.413 107.482 108.35 106.872C109.289 106.263 111.332 104.097 111.332 104.097C111.332 104.097 110.178 106.159 109.626 106.956Z" fill="#94684D"/>
<path fill-rule="evenodd" clip-rule="evenodd" d="M79.5453 90.353C79.5453 90.353 79.4514 88.7639 79.9499 88.8842C80.4483 89.0045 81.9038 90.8788 82.3613 92.0517C82.82 93.2238 83.0897 95.38 83.009 95.6495C82.9283 95.9181 82.8609 96.3229 82.82 96.3773C82.7791 96.4308 82.4023 96.674 82.1867 96.552C81.9712 96.4308 81.9303 96.1877 82.1602 95.9462C82.389 95.7039 82.8874 95.0165 82.6178 93.8576C82.3481 92.6979 81.3645 90.5549 80.8793 89.9614C80.3941 89.3688 80.057 89.2213 79.9222 89.3021C79.7874 89.382 79.5453 90.353 79.5453 90.353Z" fill="#825F32"/>
<path fill-rule="evenodd" clip-rule="evenodd" d="M99.0266 100.331C99.0266 100.331 97.4727 102.057 96.6781 102.679C95.8827 103.301 94.2946 103.819 94.2946 103.819C94.2946 103.819 95.6764 102.887 96.6781 102.161C97.679 101.436 99.0266 100.331 99.0266 100.331Z" fill="#996D3B"/>
<path fill-rule="evenodd" clip-rule="evenodd" d="M111.114 100.641C111.114 100.641 111.665 101.949 112.267 102.757C112.871 103.566 113.842 103.957 113.842 103.957C113.842 103.957 113.18 103.22 112.404 102.258C111.629 101.295 111.114 100.641 111.114 100.641Z" fill="#996D3B"/>
<path fill-rule="evenodd" clip-rule="evenodd" d="M99.1644 93.4089C99.1644 94.645 97.0328 95.0673 95.2963 95.0673C93.5597 95.0673 91.6362 94.7143 91.6362 93.4773C91.6362 92.243 93.3877 91.6829 95.1242 91.6829C96.8599 91.6829 99.1644 92.1745 99.1644 93.4089Z" fill="#AB7D42"/>
<path fill-rule="evenodd" clip-rule="evenodd" d="M117.4 93.064C117.4 94.4336 116.027 95.2746 114.291 95.2746C112.555 95.2746 110.7 94.2949 110.7 92.9262C110.7 91.5566 113.039 91.4758 114.775 91.4758C116.511 91.4758 117.4 91.6944 117.4 93.064Z" fill="#AB7D42"/>
</g>
<defs>
<clipPath id="clip0_62_5042">
<rect width="525" height="497.784" fill="white" transform="translate(0 0.907959)"/>
</clipPath>
</defs>
</svg>
