<svg width="71" height="62" viewBox="0 0 71 62" fill="none" xmlns="http://www.w3.org/2000/svg">
<g id="Frame" clip-path="url(#clip0_1_7315)">
<g id="Clip path group">
<mask id="mask0_1_7315" style="mask-type:luminance" maskUnits="userSpaceOnUse" x="0" y="0" width="71" height="62">
<g id="clip0">
<path id="Vector" d="M70.119 0.280029H0.540894V61.28H70.119V0.280029Z" fill="white"/>
</g>
</mask>
<g mask="url(#mask0_1_7315)">
<g id="Group">
<path id="Vector_2" d="M47.573 55.7009C47.7551 55.3282 48.528 55.363 48.9661 55.8897C49.3993 56.4163 49.3402 57.2759 49.2615 57.4398C49.1827 57.6037 49.099 57.5044 49.0153 57.2907C48.9316 57.0821 48.7495 56.7592 48.2819 56.6002C48.0013 56.5057 47.2973 56.2722 47.573 55.7009Z" fill="black"/>
<path id="Vector_3" fill-rule="evenodd" clip-rule="evenodd" d="M36.1391 49.2408C17.8192 49.2408 2.9679 51.5768 2.9679 54.4578C2.9679 57.3393 17.8192 59.6749 36.1391 59.6749C54.4586 59.6749 69.3098 57.3393 69.3098 54.4578C69.3098 51.5768 54.4586 49.2408 36.1391 49.2408Z" fill="black" fill-opacity="0.12"/>
<path id="Vector_4" d="M61.1252 53.8427C61.3172 53.6291 62.0704 53.6986 62.5085 54.0463C63.1189 54.5333 63.0746 55.1791 62.9515 55.2934C62.8285 55.4077 62.7793 55.2736 62.6266 55.0798C62.474 54.8861 61.9375 54.573 61.6667 54.5978C61.5633 54.3097 61.2631 53.9669 61.1252 53.8427Z" fill="black"/>
<g id="Group_2" opacity="0.102">
<g id="Group_3" opacity="0.102">
<path id="Vector_5" opacity="0.102" fill-rule="evenodd" clip-rule="evenodd" d="M39.1893 50.166C22.1074 50.166 8.25476 52.4165 8.25476 55.1889C8.25476 57.9661 22.1025 60.2118 39.1893 60.2118C56.2712 60.2118 70.1239 57.9611 70.1239 55.1889C70.1189 52.4165 56.2712 50.166 39.1893 50.166Z" fill="#715942"/>
</g>
</g>
<path id="Vector_6" fill-rule="evenodd" clip-rule="evenodd" d="M27.9604 51.5921C27.9604 51.5921 28.5954 55.0351 30.3873 55.6761C32.1792 56.317 33.971 56.2573 35.9943 56.0835C38.0176 55.9095 41.4882 55.4426 41.7736 54.5085C42.0641 53.5745 42.5269 52.8143 41.4291 51.8257C40.3312 50.832 39.2335 50.7177 39.2335 50.7177L36.6343 44.5919L27.9604 51.5921Z" fill="#8F6631"/>
<path id="Vector_7" fill-rule="evenodd" clip-rule="evenodd" d="M43.0634 36.6575C43.0634 36.6575 44.4516 45.9928 45.0276 47.1007C45.6034 48.2087 48.7442 53.4253 49.1331 54.0464C49.522 54.6625 50.9988 56.1728 52.4264 56.2076C53.854 56.2424 56.1283 56.5553 57.3984 56.5553C58.6685 56.5553 60.5982 56.7144 61.435 55.8052C61.435 55.8052 62.4245 52.6454 60.0566 51.8305C58.5799 51.3238 56.8323 50.9263 55.7247 50.6977C55.0157 50.5537 54.4349 50.042 54.1986 49.3563C53.7457 48.0596 53.0762 45.814 52.8891 43.5435C52.5987 40.041 49.709 31.6992 50.0635 27.4514C50.418 23.2035 48.4439 22.9253 47.2625 23.124C46.081 23.3228 42.5415 29.8908 43.0634 36.6575Z" fill="#B07C3D"/>
<path id="Vector_8" fill-rule="evenodd" clip-rule="evenodd" d="M53.0814 6.62461C53.0814 6.62461 57.9402 3.72315 59.6484 6.5153C61.3565 9.30745 56.7045 13.0088 56.7045 13.0088L53.0814 6.62461Z" fill="#9C6F36"/>
<g id="Mask group">
<mask id="mask1_1_7315" style="mask-type:alpha" maskUnits="userSpaceOnUse" x="13" y="2" width="45" height="52">
<g id="Group_4">
<path id="Vector_9" d="M55.7447 7.71226C54.7798 5.90382 53.1799 4.53258 49.5764 3.73767C46.3569 3.02721 44.063 2.50554 41.385 3.36504C38.707 4.22455 35.97 6.32115 34.8673 8.24385C33.7645 10.1666 33.4249 12.76 32.3419 14.3995C31.2589 16.0391 29.7673 18.5976 26.7447 21.9413C23.7221 25.2849 17.3619 30.0743 15.2796 34.3618C13.1973 38.6495 12.9266 39.7823 13.0989 43.4985C13.6207 54.7018 25.1842 53.9615 26.7447 53.8573C28.3052 53.7479 30.0775 53.8324 31.0226 53.7976C31.9678 53.7628 36.3786 52.0389 39.539 48.6804C42.6993 45.3218 44.3927 39.9362 44.3927 39.9362C44.3927 39.9362 47.947 31.9522 50.2164 27.4163C51.2748 25.9705 53.1749 24.341 54.3269 22.7759C55.4788 21.2109 56.6455 20.2819 57.1772 16.829C57.7137 13.376 57.2018 10.4448 55.7447 7.71226Z" fill="white"/>
</g>
</mask>
<g mask="url(#mask1_1_7315)">
<g id="Group_5">
<path id="Vector_10" d="M73.7428 -4.80347H5.61414V67.0894H73.7428V-4.80347Z" fill="#BC8641"/>
<path id="Vector_11" fill-rule="evenodd" clip-rule="evenodd" d="M45.3772 22.2196C45.3772 22.2196 43.3343 28.3156 45.7218 29.8408C48.1094 31.3661 51.9245 30.591 51.9245 30.591L53.3374 24.1373L45.3772 22.2196Z" fill="#B07C3D"/>
<path id="Vector_12" fill-rule="evenodd" clip-rule="evenodd" d="M54.573 28.6333C49.1039 31.4156 43.0636 38.8281 42.0101 41.2428C39.4651 47.0754 34.4931 48.0989 27.6899 49.172C21.0343 50.2203 0.540894 43.394 0.540894 43.394L10.283 61.22L61.6224 61.2796C61.6224 61.2796 60.5639 25.5828 54.573 28.6333Z" fill="#9C6F36"/>
</g>
</g>
</g>
<path id="Vector_13" fill-rule="evenodd" clip-rule="evenodd" d="M44.5405 15.279C44.447 15.602 43.7185 15.3834 43.9646 14.7028C44.2206 13.9973 44.9541 13.4309 45.7811 13.4458C46.5687 13.4607 47.0905 13.8731 47.4598 14.4991C47.8191 15.1052 47.2283 15.2393 47.0167 14.8667C46.6967 14.3053 46.1257 14.1314 45.7466 14.1811C45.3627 14.2209 44.7818 14.4643 44.5405 15.279Z" fill="#9C6F36"/>
<path id="Vector_14" fill-rule="evenodd" clip-rule="evenodd" d="M56.3009 17.4205C56.3551 17.7086 56.9606 17.5447 56.808 16.9286C56.6504 16.2926 56.099 15.7611 55.4296 15.7412C54.7946 15.7213 54.3367 16.0741 53.9922 16.6156C53.6574 17.1422 54.1251 17.2864 54.3269 16.9584C54.6272 16.4666 55.0998 16.3373 55.405 16.392C55.7102 16.4516 56.1631 16.6851 56.3009 17.4205Z" fill="#9C6F36"/>
<path id="Vector_15" fill-rule="evenodd" clip-rule="evenodd" d="M47.1986 15.2341C47.0558 14.4691 46.3026 13.9773 45.5199 14.1362C44.7371 14.2952 44.2202 15.0454 44.368 15.8105C44.5108 16.5756 45.2639 17.0675 46.0466 16.9085C46.8244 16.7495 47.3413 15.9993 47.1986 15.2341Z" fill="#111111"/>
<path id="Vector_16" fill-rule="evenodd" clip-rule="evenodd" d="M56.5323 17.1969C56.4043 16.5262 55.7496 16.0989 55.0654 16.2381C54.3811 16.3771 53.9332 17.033 54.0562 17.6987C54.1842 18.3694 54.8389 18.7967 55.5232 18.6576C56.2075 18.5184 56.6603 17.8627 56.5323 17.1969Z" fill="#111111"/>
<path id="Vector_17" fill-rule="evenodd" clip-rule="evenodd" d="M55.2722 16.6257C55.1048 16.6008 54.9473 16.7151 54.9227 16.8791C54.898 17.043 55.0112 17.202 55.1786 17.2269C55.346 17.2516 55.5035 17.1374 55.5281 16.9734C55.5577 16.8095 55.4396 16.6505 55.2722 16.6257Z" fill="#C7C7C7"/>
<path id="Vector_18" fill-rule="evenodd" clip-rule="evenodd" d="M45.6036 14.4839C45.4116 14.4442 45.2196 14.5634 45.1753 14.7572C45.131 14.946 45.2492 15.1348 45.4411 15.1746C45.6331 15.2143 45.8251 15.0951 45.8694 14.9013C45.9187 14.7125 45.7956 14.5237 45.6036 14.4839Z" fill="#C7C7C7"/>
<path id="Vector_19" d="M57.2064 55.2785C57.3344 55.0201 57.8808 54.7817 58.4027 55.1344C58.8211 55.4176 59.1312 56.2722 59.0278 56.8336C58.9392 57.3403 58.5651 56.8088 58.4814 56.6498C58.3534 56.4163 57.9841 56.1579 57.5411 56.0536C57.0981 55.9493 57.0981 55.4971 57.2064 55.2785Z" fill="black"/>
<path id="Vector_20" d="M58.2553 55.0946C58.3783 54.866 58.7919 54.707 59.3186 54.9654C59.8897 55.2437 60.1998 55.8895 60.1752 56.5056C60.1555 56.9477 59.9389 56.8882 59.7813 56.6447C59.6288 56.4012 59.2054 55.9292 58.7525 55.8697C58.2996 55.81 58.0929 55.4026 58.2553 55.0946Z" fill="black"/>
<path id="Vector_21" d="M59.3675 55.1095C59.4118 54.7965 60.2142 54.3791 60.928 55.0101C61.5285 55.5417 61.4105 56.6099 61.2234 56.6844C61.0363 56.7539 61.0216 56.5304 60.8984 56.287C60.7508 55.9987 60.4899 55.805 60.0862 55.7255C59.7071 55.6509 59.3182 55.487 59.3675 55.1095Z" fill="black"/>
<path id="Vector_22" d="M60.869 54.5034C61.0512 54.1308 61.8241 54.1656 62.2621 54.6922C62.6953 55.2188 62.6363 56.0783 62.5575 56.2423C62.4788 56.4063 62.3951 56.3069 62.3114 56.0933C62.2277 55.8846 62.0456 55.5616 61.5779 55.4027C61.3022 55.3083 60.5934 55.0748 60.869 54.5034Z" fill="black"/>
<path id="Vector_23" fill-rule="evenodd" clip-rule="evenodd" d="M54.3564 19.4424C54.8683 20.6496 54.9865 20.9924 55.0751 21.7923C55.592 26.3482 51.7227 30.2185 48.1783 28.6485C46.16 27.7542 43.5804 26.07 45.5889 20.3913C47.0411 16.2826 48.7345 15.5672 50.5462 15.8354C51.7129 16.0093 52.9386 16.1137 54.3564 19.4424Z" fill="#EABE8B"/>
<path id="Vector_24" fill-rule="evenodd" clip-rule="evenodd" d="M54.6371 22.7861C53.8642 23.6753 52.5991 24.0182 51.9099 23.879C50.9746 23.6853 49.9752 22.9451 49.6897 21.7974C49.3255 20.3318 50.4577 20.1827 52.5301 20.5503C54.5189 20.9031 55.6266 21.6483 54.6371 22.7861Z" fill="black"/>
<path id="Vector_25" fill-rule="evenodd" clip-rule="evenodd" d="M52.5645 21.2806C51.831 21.1215 51.2058 21.0471 50.7382 21.0868C50.5708 21.1017 50.5265 20.8533 50.6889 20.8086C51.132 20.6843 51.8113 20.744 52.6383 20.9228C53.4653 21.1017 54.1102 21.3302 54.4597 21.6233C54.5927 21.7326 54.4696 21.9314 54.3219 21.8469C53.9183 21.6184 53.298 21.4396 52.5645 21.2806Z" fill="#434343"/>
<path id="Vector_26" fill-rule="evenodd" clip-rule="evenodd" d="M47.5729 26.8998C47.4104 26.9445 47.4547 27.029 47.5827 27.0539C48.2374 27.1681 49.3105 27.6997 50.2016 27.809C50.8809 27.8935 51.5012 27.8388 52.1805 27.5656C52.2986 27.5208 52.3823 27.4711 52.2297 27.4165C51.7374 27.2327 50.8021 26.9594 49.9112 26.8651C49.1678 26.7856 48.0996 26.7557 47.5729 26.8998Z" fill="black"/>
<path id="Vector_27" fill-rule="evenodd" clip-rule="evenodd" d="M42.5465 4.97973C43.1372 4.71145 43.2307 3.72774 42.6547 3.16633C41.0302 1.58146 38.2194 -0.579722 36.1567 0.642464C33.715 2.08822 35.1475 5.78955 35.7481 8.00042C35.9893 8.8947 36.5358 9.08846 37.1561 8.59164C37.7764 8.09979 38.3867 7.24028 39.6913 6.31619C40.9958 5.3921 41.9557 5.24305 42.5465 4.97973Z" fill="#9C6F36"/>
<path id="Vector_28" fill-rule="evenodd" clip-rule="evenodd" d="M17.5884 33.5473C21.0295 33.0505 23.7369 37.3927 23.9191 40.1253C24.1012 42.8578 24.1751 44.6513 23.3678 46.6386C22.5653 48.6259 21.374 49.5848 21.8417 50.8964C21.8417 50.8964 26.1934 51.6665 27.5471 52.5359C28.9009 53.4054 30.0085 54.1506 29.8215 55.4523C29.6344 56.754 27.9755 57.3749 26.2574 57.4396C24.5344 57.4991 17.0371 56.7589 15.8063 56.3863C14.5757 56.0137 12.4884 53.6537 11.627 48.2582C10.7655 42.8627 9.68249 34.69 17.5884 33.5473Z" fill="#BC8641"/>
<path id="Vector_29" fill-rule="evenodd" clip-rule="evenodd" d="M30.6927 34.7894C30.6927 34.7894 31.0964 43.2503 31.8496 45.64C31.8496 45.64 32.9474 52.9334 34.1042 54.101C35.261 55.2684 36.0142 56.7241 37.747 57.3104C39.4798 57.8916 43.4131 58.0705 45.1459 57.7774C46.8787 57.4843 48.4983 57.4843 48.2669 55.9093C48.0355 54.3344 46.4751 52.9334 44.6832 52.4663C42.8913 51.9993 41.9215 51.7956 41.4883 51.2243C41.0551 50.6529 39.6078 40.8308 39.726 39.4894C39.8392 38.1479 39.8145 35.4552 39.3666 31.1725C38.9088 26.8402 31.249 25.2901 30.6927 34.7894Z" fill="#BC8641"/>
<path id="Vector_30" d="M43.4378 57.0768C43.5658 56.8185 44.1123 56.5799 44.634 56.9327C45.0525 57.216 45.3626 58.0704 45.2593 58.6318C45.1706 59.1386 44.7965 58.607 44.7128 58.4481C44.5848 58.2145 44.2156 57.9561 43.7726 57.8519C43.3296 57.7475 43.3296 57.3004 43.4378 57.0768Z" fill="black"/>
<path id="Vector_31" d="M44.7569 56.918C44.88 56.6895 45.2935 56.5305 45.8203 56.7889C46.3913 57.0671 46.7014 57.7129 46.6768 58.329C46.6571 58.7712 46.4406 58.7116 46.283 58.4681C46.1304 58.2247 45.707 57.7527 45.2541 57.6931C44.8061 57.6334 44.5944 57.2261 44.7569 56.918Z" fill="black"/>
<path id="Vector_32" d="M45.7565 56.7788C45.8009 56.4659 46.6033 56.0485 47.3171 56.6795C47.9176 57.2111 47.7995 58.2792 47.6125 58.3538C47.4254 58.4233 47.4106 58.1997 47.2875 57.9563C47.1398 57.6682 46.8789 57.4744 46.4753 57.3949C46.0913 57.3204 45.7024 57.1564 45.7565 56.7788Z" fill="black"/>
<path id="Vector_33" d="M47.425 56.272C47.6072 55.8994 47.8878 55.8249 48.321 56.3515C48.7543 56.8781 48.6952 57.7376 48.6163 57.9016C48.5376 58.0655 48.4539 57.9662 48.3702 57.7526C48.2866 57.5438 48.1044 57.2209 47.6367 57.0619C47.3611 56.9676 47.1494 56.8433 47.425 56.272Z" fill="black"/>
<path id="Vector_34" d="M24.2781 56.0437C24.475 55.8252 25.0806 55.7407 25.5039 56.2326C25.8435 56.63 25.9124 57.5591 25.6614 58.0907C25.4349 58.5676 25.2086 57.9366 25.1691 57.7578C25.1051 57.4895 24.8147 57.1318 24.4012 56.9082C23.9877 56.6897 24.1107 56.2326 24.2781 56.0437Z" fill="black"/>
<path id="Vector_35" d="M25.514 55.9939C25.6962 55.8001 26.149 55.7603 26.6019 56.1578C27.0942 56.595 27.2222 57.3154 27.0302 57.9215C26.8924 58.3538 26.6906 58.2346 26.6019 57.9514C26.5133 57.6681 26.2278 57.0819 25.7946 56.8981C25.3713 56.7142 25.2678 56.2472 25.514 55.9939Z" fill="black"/>
<path id="Vector_36" d="M26.6953 55.9741C26.8726 55.7058 27.803 55.6761 28.187 56.5853C28.5069 57.3454 27.926 58.2844 27.7242 58.2645C27.5224 58.2447 27.606 58.031 27.5962 57.7528C27.5864 57.4199 27.4289 57.1268 27.0892 56.8685C26.7692 56.625 26.4836 56.2971 26.6953 55.9741Z" fill="black"/>
<path id="Vector_37" d="M27.8321 55.8796C28.1079 55.5517 28.8708 55.7853 29.1712 56.4162C29.4714 57.0472 29.2007 57.8918 29.0825 58.0359C28.9644 58.1799 28.9053 58.0557 28.8758 57.8271C28.8462 57.5987 28.7428 57.231 28.3146 56.9527C28.0635 56.7888 27.4137 56.3765 27.8321 55.8796Z" fill="black"/>
<path id="Vector_38" d="M29.1322 55.4275C29.4078 55.3232 30.0625 55.7405 30.3038 56.2671C30.6385 57.0024 30.2988 57.5688 30.1266 57.6185C29.9542 57.6681 29.9788 57.5191 29.9297 57.2657C29.8804 57.0124 29.3882 56.5254 29.1272 56.4162C28.6005 56.0734 28.5168 55.5368 29.1322 55.4275Z" fill="black"/>
<path id="Vector_39" fill-rule="evenodd" clip-rule="evenodd" d="M48.833 26.9892C48.6311 27.1134 49.3892 29.3193 50.8119 29.6819C52.2296 30.0446 52.0032 27.8784 51.6782 27.5058C51.4519 27.2524 49.0347 26.8649 48.833 26.9892Z" fill="#9E5666"/>
</g>
</g>
</g>
</g>
<defs>
<clipPath id="clip0_1_7315">
<rect width="69.5781" height="61" fill="white" transform="translate(0.540894 0.280029)"/>
</clipPath>
</defs>
</svg>
