<svg width="250" height="233" viewBox="0 0 250 233" fill="none" xmlns="http://www.w3.org/2000/svg">
<g id="Group">
<path id="Vector" d="M238.142 180.228C231.125 174.936 222.593 165.94 214.278 163.729C204.738 161.191 191.37 163.315 181.417 162.968C160.032 162.22 138.646 161.184 117.239 161.184C52.6771 161.177 0.337402 172.413 0.337402 186.266C0.337402 195.292 17.1195 199.395 23.4191 201.236C38.3308 205.593 53.3586 204.484 62.7754 218.576C72.3444 232.908 97.4991 232.792 113.869 232.792C126.055 232.792 138.523 231.806 150.317 228.551C152.768 227.877 158.828 226.608 162.373 224.521C168.825 224.39 175.77 224.027 182.997 223.397C195.821 222.281 208.732 220.591 221.244 217.467C232.677 214.611 251.096 211.254 249.618 195.125C249.038 188.782 243.485 184.222 238.381 180.417C238.302 180.351 238.222 180.286 238.142 180.228Z" fill="#F2F2F2"/>
<path id="Vector_2" d="M120.864 148.201V192.573L127.932 194.03L135.942 192.573V148.201H120.864Z" fill="#606060"/>
<path id="Vector_3" d="M190.522 138.798V183.171L197.59 184.628L205.601 183.171V138.798H190.522Z" fill="#606060"/>
<path id="Vector_4" d="M47.2764 156.421V200.069L54.3445 202.259L62.3549 200.794V156.421H47.2764Z" fill="#606060"/>
<path id="Vector_5" d="M169.383 78.5206L10.1599 84.8636L17.4745 146.453L176.422 128.932L169.383 78.5206Z" fill="#CCCCCC"/>
<path id="Vector_6" d="M169.383 78.5206L161.199 77.0999L5.1582 84.4506L17.3587 85.4583L169.383 78.5206Z" fill="#CCCCCC"/>
<path id="Vector_7" d="M219.875 134.282C219.875 133.398 219.309 132.513 218.185 132.368L162.931 128.642C162.163 128.54 161.38 128.54 160.612 128.627L16.9383 144.597C15.8437 144.728 15.2637 145.576 15.2275 146.446C15.1913 147.316 15.2637 152.927 15.2275 153.797C15.1913 154.667 15.706 155.558 16.7861 155.769L57.8822 163.873C58.9116 164.076 59.9772 164.105 61.0139 163.968L218.287 143.438C219.454 143.278 220.012 142.314 219.954 141.393C219.91 140.552 219.875 135.167 219.875 134.282Z" fill="#C2C2C2"/>
<path id="Vector_8" d="M57.9473 156.515L16.786 148.418C14.6185 147.99 13.1541 144.728 18.2576 144.446L173.878 127.113C174.704 127.018 175.516 127.018 176.284 127.113L218.359 132.339C220.599 132.614 219.751 135.913 217.351 136.239L61.2603 156.588C60.1004 156.74 58.984 156.719 57.9473 156.515Z" fill="#EBEBEB"/>
<g id="Group_2" style="mix-blend-mode:multiply">
<path id="Vector_9" d="M160.01 144.823C160.01 144.823 148.549 146.062 141.351 145.75C134.152 145.439 64.6604 155.522 52.8078 154.826C40.9553 154.131 28.3488 149.266 25.826 145.097C23.3033 140.929 34.6556 126.336 34.6556 126.336C34.6556 126.336 201.918 139.719 160.01 144.823Z" fill="#EBEBEB"/>
</g>
<g id="Group_3" style="mix-blend-mode:multiply">
<path id="Vector_10" d="M66.5635 133.244C66.5635 133.244 78.0703 132.538 85.2973 132.715C92.5247 132.893 162.275 127.15 174.172 127.544C186.07 127.939 198.728 130.71 201.255 133.088C203.79 135.461 192.399 143.776 192.399 143.776C192.399 143.776 24.4977 136.149 66.5635 133.244Z" fill="#EBEBEB"/>
</g>
<path id="Vector_11" d="M177.915 143.51C177.915 143.51 163.061 143.873 151.738 145.902C140.415 147.932 123.314 147.469 123.314 147.469L120.428 124.633L174.784 95.9259L177.915 143.51Z" fill="#976D35"/>
<path id="Vector_12" d="M186.672 140.741C186.977 140.132 188.304 139.603 189.558 140.48C190.566 141.183 191.718 142.633 191.24 144.597C190.95 145.794 189.956 144.496 189.753 144.112C189.442 143.539 188.557 142.901 187.485 142.633C186.411 142.358 186.411 141.263 186.672 140.741Z" fill="#030304"/>
<path id="Vector_13" d="M188.064 125.786C183.875 131.331 179.496 136.747 175.305 142.292C193.718 145.126 196.386 143.546 195.343 135.949C194.371 128.91 190.58 126.8 188.064 125.786Z" fill="#976D35"/>
<path id="Vector_14" d="M187.282 140.168C187.717 139.719 188.775 139.617 189.84 140.545C190.993 141.553 191.682 143.365 191.232 144.771C190.913 145.779 190.058 145.366 189.855 144.713C189.652 144.054 188.97 142.691 187.962 142.271C186.94 141.843 186.701 140.77 187.282 140.168Z" fill="#030304"/>
<path id="Vector_15" d="M190.247 140.052C190.537 139.356 192.675 138.893 193.944 140.792C195.009 142.393 194.958 144.8 193.958 144.981C193.486 145.068 193.233 144.365 193.088 143.728C192.921 142.974 192.436 142.364 191.537 141.93C190.689 141.51 189.891 140.893 190.247 140.052Z" fill="#030304"/>
<path id="Vector_16" d="M192.805 139.19C193.299 138.327 195.154 138.559 196.125 139.893C197.097 141.226 197.517 142.335 196.996 143.568C196.829 143.959 196.227 143.757 196.053 143.242C195.887 142.727 195.487 141.922 194.386 141.458C193.726 141.183 192.059 140.502 192.805 139.19Z" fill="#030304"/>
<path id="Vector_17" d="M194.624 137.566C195.299 137.414 197.039 137.834 198.003 138.783C199.344 140.11 199.061 141.676 198.728 141.916C198.394 142.155 198.322 141.821 198.003 141.313C197.684 140.799 195.886 139.741 195.234 139.719C195.06 139.015 194.4 138.095 194.624 137.566Z" fill="#030304"/>
<path id="Vector_18" d="M145.743 16.5175C136.79 27.0144 127.25 27.7756 120.052 36.54C111.381 47.0949 116.405 44.3185 102.226 61.6878C90.4453 76.1213 85.1392 84.7185 83.6169 110.337C82.1671 134.695 96.3395 147.57 115.507 150.766C134.666 153.963 137.385 152.883 136.406 145.83C135.247 137.414 129.439 137.124 128.28 136.247C128.28 136.247 160.604 91.5906 167.868 85.4941C172.363 81.7177 144.627 14.2122 145.743 16.5175Z" fill="#B17F3E"/>
<path id="Vector_19" d="M193.262 40.6213C190.921 49.6974 199.316 74.8815 195.495 99.594C192.03 122.002 191.559 127.837 192.146 135.673C192.726 143.51 196.285 149.86 184.02 151.643C175.531 152.876 169.506 135.644 167.658 107.989C167.411 104.335 170.913 99.3115 170.913 99.3115C170.913 99.3115 170.282 101.348 166.02 104.893C163.765 106.771 163.787 122.944 164.736 136.695C165.288 144.605 169.057 150.672 156.878 152.949C146.541 154.884 138.096 142.64 133.449 115.224C130.868 100 128.946 83.704 130.469 74.867C131.991 66.0368 150.666 49.9439 150.666 49.9439L193.262 40.6213Z" fill="#B17F3E"/>
<path id="Vector_20" d="M190 15.0169C191.174 15.4083 194.879 11.588 195.524 9.58C197.858 2.30893 191.928 -0.329807 189.181 0.685124C187.079 1.46081 184.483 2.91064 182.627 4.83171C182.207 5.26661 181.968 6.38307 182.287 6.89775C183.055 8.15185 185.107 9.3335 186.259 10.3701C188.028 11.9722 189.42 14.8212 190 15.0169Z" fill="#976D35"/>
<path id="Vector_21" d="M168.412 1.56233C184.694 1.51881 196.285 10.1309 195.792 27.4059C195.299 44.6809 191.022 51.6257 176.929 55.9173C162.315 60.3687 139.219 56.113 141.082 32.002C142.88 8.81156 156.218 1.59859 168.412 1.56233Z" fill="#B17F3E"/>
<path id="Vector_22" d="M151.311 15.7853C150.056 16.1333 146.359 11.9287 145.78 9.79014C143.699 2.02623 150.064 -0.438526 152.905 0.764887C155.073 1.68554 157.726 3.3456 159.582 5.46233C160.003 5.94082 160.198 7.12248 159.836 7.65166C158.966 8.92752 156.747 10.0657 155.486 11.0951C153.536 12.6826 151.927 15.6113 151.311 15.7853Z" fill="#976D35"/>
<path id="Vector_23" fill-rule="evenodd" clip-rule="evenodd" d="M188.137 36.1485C188.898 38.0188 189.768 39.7006 189.674 41.0998C189.304 46.9065 185.665 49.2987 182.482 49.5887C178.554 49.9512 170.557 48.3056 171.855 37.8158C172.79 30.2332 175.892 27.9496 179.307 27.8264C182.251 27.7249 185.418 29.472 188.137 36.1485Z" fill="#976D35"/>
<path id="Vector_24" fill-rule="evenodd" clip-rule="evenodd" d="M189.486 34.4232C190.247 36.2936 191.116 37.9754 191.022 39.3744C190.652 45.1811 187.013 47.5734 183.831 47.8633C179.902 48.2258 171.905 46.5802 173.203 36.0906C174.138 28.5078 177.241 26.2243 180.655 26.1011C183.599 25.9995 186.767 27.7394 189.486 34.4232Z" fill="#E8BC89"/>
<path id="Vector_25" fill-rule="evenodd" clip-rule="evenodd" d="M189.971 40.4328C189.028 42.1364 187.085 43.144 185.904 43.173C184.302 43.202 182.395 42.3828 181.503 40.6503C180.366 38.432 182.171 37.7796 185.694 37.6201C189.094 37.4606 191.174 38.258 189.971 40.4328Z" fill="black"/>
<path id="Vector_26" fill-rule="evenodd" clip-rule="evenodd" d="M186.027 38.7727C184.766 38.7873 183.715 38.8888 182.968 39.1208C182.693 39.2077 182.533 38.8235 182.787 38.6931C183.461 38.3378 184.599 38.1784 186.021 38.1711C187.441 38.1566 188.579 38.2871 189.26 38.635C189.515 38.7655 189.391 39.128 189.115 39.0483C188.369 38.8308 187.288 38.7655 186.027 38.7727Z" fill="#424243"/>
<path id="Vector_27" fill-rule="evenodd" clip-rule="evenodd" d="M189.724 25.7458C189.688 26.826 188.768 27.6741 187.665 27.6378C186.564 27.6016 185.708 26.6882 185.752 25.6081C185.788 24.5279 186.709 23.6797 187.81 23.716C188.905 23.7523 189.761 24.6657 189.724 25.7458Z" fill="black"/>
<path id="Vector_28" fill-rule="evenodd" clip-rule="evenodd" d="M189.572 24.8469C189.826 25.2456 190.753 24.8976 190.268 23.9987C189.768 23.0708 188.804 22.3531 187.644 22.4546C186.491 22.5561 185.73 23.136 185.316 24.1654C184.947 25.0933 185.65 25.608 185.861 25.0354C186.187 24.1581 186.955 23.7667 187.52 23.745C188.441 23.687 189.065 24.0422 189.572 24.8469Z" fill="#976D35"/>
<path id="Vector_29" d="M187.343 24.7567C187.352 24.5326 187.172 24.3445 186.945 24.3364C186.717 24.3284 186.526 24.5035 186.517 24.7276C186.509 24.9517 186.688 25.1398 186.916 25.1478C187.144 25.1559 187.335 24.9808 187.343 24.7567Z" fill="#C9C9C8"/>
<path id="Vector_30" fill-rule="evenodd" clip-rule="evenodd" d="M173.624 26.6012C173.58 27.7684 172.587 28.6818 171.405 28.6456C170.224 28.6021 169.296 27.6234 169.34 26.4563C169.383 25.2891 170.376 24.3757 171.558 24.412C172.74 24.4483 173.667 25.4342 173.624 26.6012Z" fill="black"/>
<path id="Vector_31" fill-rule="evenodd" clip-rule="evenodd" d="M169.354 26.1082C169.209 26.5939 168.042 26.2895 168.419 25.2456C168.803 24.1727 170.282 23.397 171.594 23.397C172.848 23.397 173.261 23.5709 173.87 24.5061C174.457 25.4123 173.631 25.9778 173.283 25.4196C172.754 24.5714 171.84 24.3321 171.239 24.4119C170.637 24.4917 169.717 24.8759 169.354 26.1082Z" fill="#976D35"/>
<path id="Vector_32" d="M171.124 25.5233C171.133 25.2792 170.942 25.0744 170.698 25.0657C170.454 25.0571 170.249 25.248 170.241 25.4921C170.232 25.7361 170.422 25.941 170.666 25.9496C170.91 25.9582 171.115 25.7674 171.124 25.5233Z" fill="#C9C9C8"/>
<path id="Vector_33" fill-rule="evenodd" clip-rule="evenodd" d="M180.148 46.3265C180.909 45.9931 183.193 45.9278 184.642 45.8625C186.1 45.7973 188.049 45.732 187.194 46.2757C186.346 46.8194 179.141 46.7759 180.148 46.3265Z" fill="black"/>
<path id="Vector_34" d="M152.536 149.418C152.862 148.824 154.203 148.338 155.428 149.259C156.414 149.998 157.508 151.485 156.965 153.434C156.631 154.616 155.689 153.283 155.493 152.898C155.204 152.318 154.34 151.644 153.282 151.34C152.217 151.027 152.253 149.933 152.536 149.418Z" fill="#030304"/>
<path id="Vector_35" d="M156.979 149.005C157.429 148.57 158.495 148.505 159.524 149.476C160.641 150.527 161.264 152.354 160.764 153.754C160.409 154.747 159.567 154.312 159.386 153.644C159.205 152.978 158.574 151.593 157.581 151.137C156.588 150.672 156.385 149.585 156.979 149.005Z" fill="#030304"/>
<path id="Vector_36" d="M159.952 148.998C160.264 148.317 162.416 147.925 163.62 149.868C164.628 151.506 164.49 153.905 163.482 154.05C163.011 154.116 162.779 153.405 162.656 152.767C162.518 152.006 162.047 151.383 161.17 150.911C160.343 150.469 159.567 149.824 159.952 148.998Z" fill="#030304"/>
<path id="Vector_37" d="M162.54 148.222C163.061 147.382 164.91 147.672 165.831 149.041C166.759 150.411 167.129 151.528 166.571 152.746C166.397 153.13 165.794 152.905 165.642 152.383C165.491 151.861 165.12 151.042 164.04 150.542C163.388 150.245 161.742 149.513 162.54 148.222Z" fill="#030304"/>
<path id="Vector_38" d="M164.635 146.432C165.091 146.345 166.026 146.533 166.868 146.968C167.52 147.301 168.006 147.888 168.267 148.578C168.535 149.288 168.839 150.303 168.578 150.926C168.238 151.151 168.172 150.818 167.875 150.295C167.578 149.773 165.816 148.649 165.164 148.607C165.026 147.896 164.388 146.953 164.635 146.432Z" fill="#030304"/>
<path id="Vector_39" d="M179.597 148.367C179.952 147.788 181.316 147.367 182.497 148.346C183.446 149.136 184.468 150.665 183.831 152.586C183.439 153.754 182.562 152.376 182.388 151.985C182.127 151.39 181.293 150.679 180.25 150.324C179.206 149.962 179.293 148.867 179.597 148.367Z" fill="#030304"/>
<path id="Vector_40" d="M184.063 148.164C184.534 147.751 185.6 147.736 186.578 148.751C187.644 149.853 188.18 151.709 187.615 153.079C187.209 154.058 186.397 153.579 186.245 152.905C186.093 152.231 185.534 150.818 184.563 150.31C183.584 149.81 183.439 148.715 184.063 148.164Z" fill="#030304"/>
<path id="Vector_41" d="M187.028 148.294C187.375 147.628 189.544 147.338 190.653 149.339C191.588 151.021 191.327 153.412 190.319 153.514C189.84 153.557 189.645 152.84 189.558 152.188C189.457 151.427 189.015 150.774 188.159 150.266C187.354 149.781 186.608 149.099 187.028 148.294Z" fill="#030304"/>
<path id="Vector_42" d="M189.652 147.649C190.21 146.83 192.044 147.214 192.907 148.621C193.77 150.027 194.089 151.172 193.465 152.362C193.27 152.738 192.682 152.485 192.559 151.956C192.436 151.427 192.102 150.593 191.043 150.042C190.406 149.708 188.797 148.889 189.652 147.649Z" fill="#030304"/>
<path id="Vector_43" d="M192.073 145.997C192.762 145.903 194.458 146.461 195.335 147.49C196.561 148.925 196.148 150.463 195.799 150.672C195.451 150.882 195.401 150.55 195.125 150.013C194.85 149.476 193.146 148.273 192.494 148.193C192.393 147.483 191.805 146.511 192.073 145.997Z" fill="#030304"/>
<path id="Vector_44" d="M175.987 4.09228C175.987 4.09228 175.668 1.59134 173.341 0.793895C173.399 1.70004 173.203 2.37427 173.203 2.37427C173.203 2.37427 171.631 0.271967 170.304 0.40968C171.195 1.36659 170.594 2.40319 170.594 2.40319L174.741 7.40524L175.987 4.09228Z" fill="#B17F3E"/>
<path id="Vector_45" d="M123.358 148.969C123.683 148.375 125.025 147.888 126.25 148.809C127.236 149.549 128.33 151.035 127.787 152.985C127.453 154.166 126.511 152.833 126.315 152.448C126.026 151.869 125.163 151.195 124.104 150.89C123.046 150.585 123.082 149.483 123.358 148.969Z" fill="#030304"/>
<path id="Vector_46" d="M127.809 148.563C128.258 148.128 129.323 148.062 130.353 149.034C131.469 150.085 132.093 151.912 131.593 153.312C131.237 154.305 130.397 153.87 130.215 153.202C130.034 152.536 129.403 151.151 128.41 150.695C127.409 150.223 127.206 149.136 127.809 148.563Z" fill="#030304"/>
<path id="Vector_47" d="M130.774 148.549C131.085 147.867 133.238 147.475 134.442 149.418C135.45 151.056 135.311 153.456 134.304 153.601C133.833 153.666 133.601 152.956 133.478 152.318C133.34 151.556 132.869 150.934 131.991 150.463C131.172 150.02 130.397 149.375 130.774 148.549Z" fill="#030304"/>
<path id="Vector_48" d="M133.362 147.78C133.883 146.939 135.732 147.229 136.653 148.599C137.58 149.969 137.95 151.085 137.391 152.304C137.218 152.688 136.616 152.463 136.464 151.941C136.312 151.419 135.942 150.6 134.862 150.1C134.217 149.802 132.572 149.063 133.362 147.78Z" fill="#030304"/>
<path id="Vector_49" d="M135.71 146.018C136.392 145.895 138.11 146.374 139.037 147.359C140.328 148.736 139.987 150.288 139.653 150.52C139.313 150.745 139.248 150.411 138.95 149.889C138.653 149.368 136.892 148.244 136.24 148.201C136.095 147.483 135.464 146.54 135.71 146.018Z" fill="#030304"/>
<path id="Vector_50" d="M128.272 136.254C125.163 135.543 136.775 130.12 129.737 119.073C121.364 105.937 130.89 115.55 136.298 128.678C137.175 130.809 137.211 131.426 137.82 134.782C138.429 138.138 128.272 136.254 128.272 136.254Z" fill="#976D35"/>
<path id="Vector_51" d="M119.138 37.0765C117.74 36.2936 116.492 37.1852 116.166 37.6564C117.036 37.2722 117.384 38.5626 117.384 38.5626C117.384 38.5626 115.107 38.3233 114.172 40.2226C115.405 40.1719 116.333 40.3314 116.333 40.3314C116.333 40.3314 114.636 41.7668 113.861 42.7019C115.681 42.7889 116.558 42.4627 116.558 42.4627L125.025 41.1941L119.138 37.0765Z" fill="#B37F3E"/>
<path id="Vector_52" d="M196.133 68.466C197.626 69.0385 197.742 70.5684 197.59 71.1187C197.329 70.2058 196.111 70.7638 196.111 70.7638C196.111 70.7638 197.757 72.3585 196.894 74.2868C196.14 73.3082 195.422 72.6989 195.422 72.6989C195.422 72.6989 195.408 74.9174 195.183 76.1136C193.95 74.7723 193.639 73.8884 193.639 73.8884L192.066 66.7186L196.133 68.466Z" fill="#B37F3E"/>
<path id="Vector_53" d="M136.109 129.635C135.123 130.411 135.398 131.585 135.645 131.962C135.623 131.215 136.667 131.353 136.667 131.353C136.667 131.353 135.811 132.934 136.914 134.173C137.247 133.267 137.638 132.637 137.638 132.637C137.638 132.637 138.168 134.296 138.617 135.13C139.218 133.84 139.247 133.108 139.247 133.108L138.74 127.373L136.109 129.635Z" fill="#B37F3E"/>
<path id="Vector_54" d="M18.62 156.132L10.1529 84.8636L5.15088 84.4506V87.2339L7.96359 87.4805L15.2201 153.789V153.812C15.2056 154.623 15.6696 155.399 16.4379 155.667C16.4452 155.667 16.4524 155.674 16.4524 155.674L18.62 156.132Z" fill="#EBEBEB"/>
<path id="Vector_55" d="M87.8362 200.721C86.4446 196.161 85.8064 190.587 85.8064 190.587L76.5273 193.074C76.5273 193.074 77.6945 196.669 77.4407 201.482C77.1943 206.296 88.2134 209.587 87.8362 200.721Z" fill="black"/>
<path id="Vector_56" d="M123.372 195.581C121.553 191.174 120.392 185.686 120.392 185.686L111.397 189.043C111.397 189.043 112.897 192.508 113.107 197.329C113.317 202.149 124.59 204.375 123.372 195.581Z" fill="black"/>
<path id="Vector_57" d="M112.998 196.553C112.998 196.553 114.586 199.945 118.515 199.736C122.445 199.525 123.372 195.582 123.372 195.582C123.372 195.582 126.576 198.51 128.918 200.287C131.259 202.062 135.776 204.556 136.885 204.781C138.001 205.006 141.561 206.405 142.01 207.696C142.459 208.978 142.873 210.022 142.467 210.58C142.061 211.138 137.994 214.277 129.882 213.915C123.952 213.647 121.212 211.53 120.842 211.204C120.102 210.551 114.253 209.95 114.253 209.95C114.253 209.95 109.917 208.428 109.309 206.775L109.983 203.868C109.983 203.86 109.142 200.047 112.998 196.553Z" fill="#606060"/>
<path id="Vector_58" d="M77.4479 201.475C77.4479 201.475 78.9702 204.897 82.8993 204.766C86.8284 204.643 87.8429 200.714 87.8429 200.714C87.8429 200.714 90.4095 205.825 92.4539 208.21C94.4982 210.595 99.7252 215.445 100.82 215.938C101.915 216.43 104.161 218.649 104.314 220.004C104.466 221.36 104.64 222.469 104.125 222.918C103.611 223.368 99.7107 225.072 91.7576 223.448C86.0017 222.273 84.052 220.359 83.8418 220.091C83.2184 219.323 78.9848 215.445 78.9848 215.445C78.9848 215.445 74.2655 213.516 73.6421 211.864L74.2945 208.957C74.2872 208.963 73.5188 204.897 77.4479 201.475Z" fill="#606060"/>
<path id="Vector_59" opacity="0.3" d="M140.734 210.457C139.277 211.066 137.682 211.378 136.124 211.58C133.347 211.951 129.976 212.168 127.54 210.624C125.648 209.421 124.38 208.188 122.132 207.601C120.683 207.224 119.182 207.021 117.761 206.528C114.934 205.55 111.236 203.926 110.106 201.25C109.751 202.78 109.983 203.853 109.983 203.853L109.309 206.76C109.917 208.413 114.253 209.935 114.253 209.935C114.253 209.935 120.096 210.537 120.842 211.19C121.212 211.515 123.952 213.632 129.882 213.9C137.986 214.263 142.061 211.124 142.467 210.566C142.684 210.269 142.662 209.834 142.532 209.305C142.025 209.761 141.459 210.16 140.734 210.457Z" fill="#5B5B5B"/>
<path id="Vector_60" opacity="0.3" d="M74.2221 207.456C74.396 207.623 74.57 207.775 74.7512 207.927C75.295 208.573 75.9692 209.079 76.8608 209.399C79.7823 211.103 84.5958 213.69 87.4523 215.93C92.5188 219.896 97.942 220.301 103.371 218.213C103.864 218.845 104.234 219.49 104.292 220.004C104.445 221.36 104.619 222.469 104.103 222.918C103.589 223.376 99.6886 225.072 91.7364 223.448C85.9804 222.273 84.0303 220.359 83.8201 220.091C83.1967 219.323 78.9631 215.445 78.9631 215.445C78.9631 215.445 74.2438 213.516 73.6204 211.864L74.2728 208.957C74.2873 208.963 74.1569 208.376 74.2221 207.456Z" fill="#5B5B5B"/>
<path id="Vector_61" d="M73.2578 135.688C73.2578 135.688 83.8997 137.022 86.3718 139.486C86.3718 139.486 75.9183 144.046 70.0247 154.689C70.0247 154.689 47.7186 153.412 42.202 150.563C36.6852 147.715 35.8081 131.505 35.8081 131.505L73.2578 135.688Z" fill="#777777"/>
<path id="Vector_62" d="M101.61 132.063C101.61 132.063 112.281 133.158 114.804 135.572C114.804 135.572 104.459 140.364 98.8046 151.137C98.8046 151.137 76.4766 150.361 70.902 147.635C65.3272 144.909 64.0876 128.722 64.0876 128.722L101.61 132.063Z" fill="#777777"/>
<path id="Vector_63" d="M114.811 135.565C117.522 138.008 120.567 153.441 121.023 158.567L129.686 184.301C129.686 184.301 121.647 188.129 111.397 189.043C111.397 189.043 104.894 175.283 104.509 165.903C104.125 156.522 98.7389 151.347 97.3694 148.875C95.9991 146.403 107.119 135.673 114.811 135.565Z" fill="#777777"/>
<path id="Vector_64" d="M115.912 137.037C115.565 136.376 115.202 135.87 114.811 135.565C112.288 133.151 101.617 132.056 101.617 132.056L79.3979 130.077C79.5357 130.933 79.6952 131.759 79.8112 132.477C80.2462 135.13 80.8624 137.747 81.3045 140.4C81.841 143.561 82.0222 146.75 82.2252 149.933C90.1195 150.824 98.8114 151.129 98.8114 151.129C98.8549 151.05 98.8985 150.969 98.942 150.89C99.2176 151.259 99.5222 151.666 99.8413 152.101C100.791 148.759 102.791 145.815 106.22 144.431C110.468 142.72 117.116 142.416 115.912 137.037Z" fill="#5B5B5B"/>
<path id="Vector_65" d="M86.3643 139.494C88.837 142.184 88.2056 155.37 88.1766 160.517L95.1868 190.094C95.1868 190.094 86.8217 193.138 76.5274 193.074C76.5274 193.074 70.5322 175.625 71.0397 166.251C71.5472 156.885 68.8722 153.673 67.7413 151.085C66.6176 148.498 78.7094 138.87 86.3643 139.494Z" fill="#777777"/>
<path id="Vector_66" d="M86.3642 139.494C83.8925 137.022 73.2505 135.696 73.2505 135.696L35.8081 131.513C35.8081 131.513 36.6852 147.722 42.202 150.571C42.8326 150.897 43.6953 151.201 44.7102 151.492C54.6417 144.228 71.9456 146.497 79.6806 146.932C83.675 147.156 86.7268 144.547 87.3505 141.632C87.1039 140.683 86.778 139.936 86.3642 139.494Z" fill="#5B5B5B"/>
<path id="Vector_67" d="M34.3293 121.059C34.3293 121.059 30.7844 140.574 28.7546 145.642C28.7546 145.642 31.7921 151.977 41.9338 149.44C52.0755 146.903 50.5532 133.477 61.7025 126.634C72.8519 119.79 34.3293 121.059 34.3293 121.059Z" fill="#777777"/>
<path id="Vector_68" d="M50.959 61.6443C51.655 61.2305 66.4435 63.1665 67.5526 64.7689C68.6618 66.3704 64.1817 72.8585 61.7895 72.4745C59.3972 72.0974 47.088 62.2023 50.959 61.6443Z" fill="#EAEAEA"/>
<path id="Vector_69" d="M50.959 61.6443C51.655 61.2305 66.4435 63.1665 67.5526 64.7689C68.6618 66.3704 64.1817 72.8585 61.7895 72.4745C59.3972 72.0974 47.088 62.2023 50.959 61.6443Z" fill="#EAEAEA"/>
<path id="Vector_70" d="M64.5152 52.4303C59.6364 52.4521 54.8447 52.0895 50.0166 51.7851C50.3791 52.7202 50.7343 53.5757 50.959 54.4166C51.8 57.5555 51.5897 63.8482 51.5897 63.8482C51.5897 63.8482 59.5711 73.5402 62.6303 73.3013C65.6896 73.0615 69.0822 66.4071 69.0822 66.4071C67.9151 65.9139 67.7338 66.0513 67.5236 65.0871C69.8506 62.7535 70.6046 57.6643 70.9163 55.2285C71.0902 53.8801 71.054 53.1262 71.0033 52.4158C68.8357 52.4231 66.6755 52.4231 64.5152 52.4303Z" fill="#D3AA98"/>
<path id="Vector_71" d="M81.0869 73.7288C83.3269 74.9395 88.4597 99.4566 89.2208 101.928C89.9819 104.4 97.0135 112.382 97.0135 114.281C97.0135 116.18 80.2895 113.905 80.2895 113.905L79.5283 95.8465L81.0869 73.7288Z" fill="#777777"/>
<path id="Vector_72" d="M80.1445 124.111C80.1445 124.111 84.7189 115.847 85.6107 110.671C86.7413 104.118 84.2839 84.675 81.0942 73.7288L80.1445 124.111Z" fill="#5B5B5B"/>
<path id="Vector_73" d="M43.5068 67.5087C43.5068 67.5087 32.7345 73.5112 31.3208 74.2288C31.3208 74.2288 39.9909 84.7689 41.651 92.4319C43.3111 100.087 45.7686 122.574 45.7686 122.574L70.0537 129.643L80.1519 124.111C80.1519 124.111 82.2542 112.81 83.1458 107.626C84.2767 101.073 84.2912 84.6682 81.0943 73.7288C81.0943 73.7288 73.3086 68.0453 68.6328 66.7476C67.1757 66.3414 65.9651 73.1196 62.6377 73.3081C55.2652 73.7211 43.5068 67.5087 43.5068 67.5087Z" fill="#777777"/>
<path id="Vector_74" d="M49.2339 65.3482C49.2339 65.3482 59.8178 92.0479 65.146 99.1878C70.4742 106.336 71.5979 106.474 71.5979 106.474C71.5979 106.474 73.5914 91.9532 74.3381 83.8636C75.0775 75.7732 68.9954 68.9225 68.9954 68.9225L62.8044 72.6989L49.2339 65.3482Z" fill="#EAEAEA"/>
<path id="Vector_75" d="M63.1235 72.2715C63.1235 72.2715 59.8903 73.0035 55.3233 77.4404L48.219 66.7552C48.219 66.7552 48.8931 63.652 50.1038 63.2467C50.1111 63.2467 56.7224 68.6981 63.1235 72.2715Z" fill="#EAEAEA"/>
<path id="Vector_76" d="M64.1311 72.2715C66.0159 71.5974 67.8862 66.0812 67.8862 66.0812C67.8862 66.0812 70.4017 72.3517 70.3365 76.9327C70.3365 76.9327 65.8709 72.2791 64.1311 72.2715Z" fill="#EAEAEA"/>
<path id="Vector_77" d="M61.2385 76.3388C61.2385 76.3388 60.8325 85.8423 62.1809 93.9976C63.5293 102.153 70.6771 109.236 70.6771 109.236L73.3085 101.08C73.3085 101.08 73.3085 91.9899 68.2558 81.21C66.9944 78.5129 65.501 76.0052 65.501 76.0052C65.501 76.0052 63.7323 74.6563 61.2385 76.3388Z" fill="#4DB8AC"/>
<path id="Vector_78" d="M65.4939 70.2203C65.4939 70.2203 64.4645 70.8431 61.6372 70.2203L58.9043 72.0104C58.9043 72.0104 59.8902 75.5914 61.2385 76.338C61.2385 76.338 63.0871 75.8022 65.5011 76.0052C65.5011 76.0052 66.6972 72.3005 66.6972 70.7493C66.6972 69.1981 65.4939 70.2203 65.4939 70.2203Z" fill="#4DB8AC"/>
<path id="Vector_79" d="M63.1235 70.4592C63.1235 70.4592 59.8903 71.1912 55.3233 75.6281L48.219 64.9429C48.219 64.9429 48.6612 61.5718 50.9519 61.6443C50.9519 61.6443 50.2125 62.181 50.604 62.4779C52.3946 63.8337 57.8751 67.5377 63.1235 70.4592Z" fill="#EAEAEA"/>
<path id="Vector_80" d="M48.5523 63.7757L48.2189 65.1887C48.2189 65.1887 49.502 68.495 54.2865 76.5846C59.071 84.675 70.5829 109.997 70.5829 109.997C70.5829 109.997 59.4045 96.4771 56.0336 91.5547C52.6626 86.6324 41.593 72.46 41.593 72.46L46.4138 72.518L42.2962 71.6844L43.4996 67.5163C43.5068 67.5087 48.0812 62.2894 48.5523 63.7757Z" fill="#5B5B5B"/>
<path id="Vector_81" d="M68.7488 67.6827C68.7488 67.6827 70.2566 74.6059 71.3295 81.1443C72.4024 87.6836 73.555 98.8115 70.7423 108.091L71.4165 109.75C71.4165 109.75 75.5051 98.8764 76.9187 91.1196C78.3323 83.3704 77.3609 73.7066 77.3609 73.7066L75.0267 73.3516L76.114 71.9088C76.114 71.9088 67.7701 64.8414 67.8571 65.2399C67.9586 65.646 68.7488 67.6827 68.7488 67.6827Z" fill="#5B5B5B"/>
<path id="Vector_82" d="M49.0306 62.7894L48.6972 64.2032C48.6972 64.2032 49.9803 67.5087 54.7649 75.5991C59.5493 83.6895 71.3512 110.859 71.3512 110.859C71.3512 110.859 59.8901 95.4907 56.5191 90.5684C53.1482 85.6469 42.7673 72.9097 42.7673 72.9097L48.429 73.1128L42.7818 70.6989L43.5068 67.5163C43.5068 67.5087 48.5595 61.3107 49.0306 62.7894Z" fill="#777777"/>
<path id="Vector_83" d="M68.1761 67.7774C68.1761 67.7774 69.6839 74.6998 70.7568 81.239C71.837 87.7774 72.9824 98.9054 70.1696 108.184L71.3368 110.853C71.3368 110.853 74.9324 98.9634 76.346 91.2143C77.7596 83.4643 76.52 74.0624 76.52 74.0624L74.1858 73.7066L75.5341 72.0035C75.5341 72.0035 67.7629 64.8414 67.8498 65.2467C67.9586 65.646 68.1761 67.7774 68.1761 67.7774Z" fill="#777777"/>
<path id="Vector_84" d="M64.1311 70.4592C67.0453 69.1691 67.5528 64.7612 67.5528 64.7612C67.5528 64.7612 70.4669 68.3713 70.3365 75.1204C70.3365 75.1281 65.8709 70.4737 64.1311 70.4592Z" fill="#EAEAEA"/>
<path id="Vector_85" d="M61.2385 76.3389C61.2385 76.3389 63.5728 75.3747 65.5012 76.0052C65.4939 76.0052 64.16 76.9472 61.2385 76.3389Z" fill="#7DB04A"/>
<path id="Vector_86" d="M54.0763 91.9967L54.185 93.4754C54.2068 93.8235 53.9314 94.1426 53.5762 94.1648L44.9278 94.6793C44.6015 94.7006 44.3406 94.454 44.3406 94.1281V92.722C44.3406 92.3883 44.6088 92.0982 44.9423 92.0769L53.4891 91.4822C53.8008 91.4677 54.0546 91.6921 54.0763 91.9967Z" fill="#5B5B5B"/>
<path id="Vector_87" d="M34.3292 121.059C33.3288 126.568 33.3578 126.394 32.1182 132.347C37.8596 128.33 49.3714 134.927 52.7134 137.145C54.0689 134.543 55.6421 131.904 57.9473 129.599C57.1862 126.649 56.5627 123.966 60.1293 124.51C60.1293 124.51 57.2876 123.082 54.0834 121.429C45.5076 120.69 34.3292 121.059 34.3292 121.059Z" fill="#5B5B5B"/>
<path id="Vector_88" d="M52.6119 133.114C53.5688 133.738 56.86 134.412 60.0206 130.294C63.1813 126.177 63.5292 122.35 62.1882 121.697C60.8471 121.044 60.6006 120.951 60.6006 120.951C60.6006 120.951 56.7222 119.247 54.2938 122.502C51.8653 125.764 48.4363 131.252 52.6119 133.114Z" fill="#EAEAEA"/>
<path id="Vector_89" d="M31.9517 78.8687C31.9517 78.8687 32.6114 112.041 37.0624 116.362C38.6862 117.934 53.6922 119.747 60.5936 120.957C60.5936 120.957 47.7913 112.752 46.7257 111.78C45.6528 110.809 45.7108 101.247 44.5799 96.0496C43.449 90.8516 36.5405 81.9131 31.9517 78.8687Z" fill="#5B5B5B"/>
<path id="Vector_90" d="M31.3136 74.2288C31.3136 74.2288 28.0804 77.2885 28.5371 79.7749C28.9866 82.2612 30.1682 119.747 34.6193 124.068C36.2431 125.641 52.6047 133.114 52.6047 133.114C52.6047 133.114 50.7199 131.745 51.0823 130.331C51.974 126.858 54.8592 120.08 60.5861 120.957C60.5861 120.957 46.8487 114.05 45.7759 113.071C44.703 112.099 44.5725 101.247 43.4416 96.0496C42.3253 90.8517 35.9024 77.274 31.3136 74.2288Z" fill="#777777"/>
<path id="Vector_91" opacity="0.6" d="M58.2229 123.3C60.2164 122.321 62.2969 121.139 62.2897 123.553C62.2824 125.967 59.477 131.868 55.3957 132.687C53.1992 133.129 53.8588 131.056 54.4242 129.707C54.9897 128.366 58.2229 123.3 58.2229 123.3Z" fill="#777777"/>
<path id="Vector_92" d="M110.446 131.658L96.3028 129.701C94.5562 129.461 92.6569 129.44 90.656 129.643L51.9086 133.499C51.8578 134.079 51.6548 135.615 52.3798 135.673L66.0084 137.87C67.944 138.182 70.0752 138.211 72.3443 137.964L109.185 133.919C110.642 133.767 111.708 131.831 110.446 131.658Z" fill="#ABABAB"/>
<path id="Vector_93" d="M110.446 130.324L96.3029 128.366C94.5563 128.127 92.657 128.105 90.6561 128.308L53.7717 132.056C52.3073 132.201 51.133 134.137 52.3798 134.34L66.0084 136.536C67.944 136.848 70.0753 136.877 72.3443 136.631L109.185 132.585C110.642 132.426 111.708 130.498 110.446 130.324Z" fill="#CCCCCC"/>
<path id="Vector_94" d="M107.655 131.194L98.2601 129.882C97.0861 129.715 95.6654 129.722 94.0127 129.896L63.9715 133.027C60.3323 133.557 60.9268 134.564 61.7677 134.702L70.8076 136.137C72.0834 136.341 73.642 136.341 75.4616 136.137L105.235 132.868C106.431 132.731 108.489 131.31 107.655 131.194Z" fill="black"/>
<path id="Vector_95" d="M59.513 123.328C59.513 123.328 58.2299 124.103 57.3165 125.952C56.4031 127.801 55.7144 129.736 55.7144 129.736C55.7144 129.736 57.3962 130.28 58.0849 130.585C58.7736 130.889 60.3974 132.795 61.9778 133.282C63.5074 133.745 67.9149 134.579 69.894 134.651C71.873 134.724 72.5327 135.014 72.5109 133.832C73.5766 134.333 74.8742 135.181 75.5266 135.101C76.179 135.014 76.4038 134.934 76.6648 134.535C76.6648 134.535 77.6579 135.188 78.6148 134.818C79.5717 134.448 79.173 133.274 79.173 133.274C79.173 133.274 79.8254 132.76 79.0353 131.701C78.2451 130.643 76.0268 128.069 75.2656 127.714C74.5045 127.358 70.3724 125.046 69.5749 125.003C68.7776 124.959 62.8839 125.003 61.8328 124.648C60.7816 124.292 60.8469 123.705 59.513 123.328Z" fill="#D3AA98"/>
<path id="Vector_96" d="M116.355 103.777L77.2375 106.358C76.0849 106.43 75.1208 107.242 74.8381 108.358L68.1253 135.231C67.828 136.42 68.8067 137.537 70.0173 137.406L109.192 133.122C110.28 133.006 111.186 132.223 111.468 131.165L118.167 105.974C118.479 104.821 117.558 103.697 116.355 103.777Z" fill="#BFBFBF"/>
<path id="Vector_97" d="M66.3857 35.3149C62.558 33.836 53.0325 33.1908 50.5097 40.0849C48.567 45.3913 49.5457 48.6825 50.3865 51.372C50.9157 51.401 51.4594 51.5459 52.0103 51.8577C55.0116 53.5685 55.3305 56.8234 56.6789 59.5564C58.5637 63.3696 63.2757 62.7894 66.8641 64.1528C67.0671 64.2322 67.2483 64.3192 67.4223 64.4131C69.5753 62.181 70.4162 58.121 70.8657 55.881C71.4239 53.0828 70.8875 52.8146 71.4239 50.2049C72.4895 44.9999 70.2133 36.7937 66.3857 35.3149Z" fill="#D3AA98"/>
<path id="Vector_98" d="M51.5972 37.7434C54.4171 37.0764 58.6942 37.8448 62.5363 38.4683C66.3785 39.0917 69.6406 39.5412 70.7352 41.6C70.7352 41.6 72.0256 41.7449 72.2358 40.2371C72.4388 38.7292 71.4746 37.3882 72.4751 37.0474C72.4751 37.0474 71.9749 36.4965 71.1702 36.772C71.1702 36.772 71.8879 35.7208 71.6704 35.2134C71.4529 34.7059 70.0611 33.6547 68.3212 34.4667C68.3212 34.4667 68.4589 33.4301 67.4514 33.1038C66.4437 32.7776 64.4139 32.8791 64.4139 32.8791C64.4139 32.8791 64.8923 32.1686 64.5153 31.4075C64.5153 31.4075 63.3048 31.8642 62.1014 32.2774C62.1014 32.2774 62.2826 31.9295 62.1666 31.4437C62.1666 31.4437 61.6665 32.4224 60.4921 32.7631C59.3176 33.1038 59.6221 32.8501 58.8247 33.4808C58.8247 33.4808 56.4252 33.546 54.4607 34.5755C52.5831 35.5468 51.4522 37.207 51.5972 37.7434Z" fill="#382D23"/>
<path id="Vector_99" d="M65.4651 38.3015C65.4651 38.3015 60.1949 36.9532 57.6867 38.2942C55.1785 39.6354 55.9614 41.368 54.468 42.9483C52.982 44.5286 50.6622 43.4703 49.9517 46.341C49.9517 46.341 49.5893 47.1674 49.4298 46.8049C49.2703 46.4425 48.8426 44.7026 48.8789 43.5428C48.9078 42.3829 48.9658 39.3527 51.9308 37.4171C51.9235 37.4244 54.7435 35.1336 65.4651 38.3015Z" fill="#382D23"/>
<path id="Vector_100" d="M67.7269 49.1536C67.7269 49.1536 67.6543 51.5966 67.8501 52.3796C68.0458 53.1552 68.5822 53.8729 68.3503 54.4819C68.1256 55.098 67.6327 54.8371 67.3717 54.9965C67.1107 55.156 66.4583 55.0691 66.1176 54.7718C65.7768 54.4746 65.0591 54.3368 64.8344 54.4093C64.6097 54.4819 63.7325 54.6486 63.7398 53.9744C63.7543 53.3002 63.9065 52.8072 64.153 52.5898C64.153 52.5898 62.9279 53.4017 61.8404 54.0614C60.7531 54.7138 60.0572 55.3445 59.2307 56.6711C59.2307 56.6711 59.6802 56.3522 60.5501 55.4895C61.42 54.6268 63.1381 54.2426 63.2178 54.6558C63.2976 55.069 63.0439 55.272 64.0588 55.1415C65.0809 55.011 65.9943 55.3808 66.7047 55.6128C67.4152 55.8519 68.0603 55.4895 68.4663 55.3808C68.8723 55.272 68.9448 54.2934 68.6403 53.4162C68.3431 52.5463 68.0241 51.5531 67.7269 49.1536Z" fill="#BA9083"/>
<path id="Vector_101" d="M69.9667 58.759C69.4447 58.9694 69.8725 57.7296 70.0319 56.6205C70.1334 55.9463 69.6767 55.4896 68.9445 55.1996C68.2196 54.9024 65.5736 54.9966 64.1237 54.8081C62.6812 54.6197 62.0069 54.366 61.688 54.5327C59.0855 55.8883 60.7673 56.954 60.1729 57.6789C59.6074 58.411 59.0928 58.1645 58.2518 58.5197C57.4109 58.8747 56.2873 57.1714 55.3376 55.9028C54.388 54.6342 54.1632 52.7058 53.8516 53.873C53.5398 55.0401 53.1773 56.113 53.6413 58.672C54.1052 61.2313 56.4468 63.1307 58.8753 64.5436C61.2965 65.9575 62.9132 66.03 65.2111 65.972C67.5091 65.9139 67.7339 64.6452 68.843 63.3184C69.9522 61.9924 70.3654 58.6503 70.3654 58.6503L69.9667 58.759ZM68.4733 59.2228C68.1544 60.3977 67.2192 63.239 65.3054 63.2612C63.3916 63.2757 61.688 61.7672 61.3763 59.716C61.0645 57.6644 61.2603 56.3305 62.2897 56.0478C63.3118 55.765 64.305 55.8883 64.9212 56.0043C65.5374 56.113 68.1036 56.1783 68.5965 56.3522C69.0895 56.519 68.785 58.0486 68.4733 59.2228Z" fill="#382D23"/>
<path id="Vector_102" opacity="0.6" d="M63.0366 37.4823C62.9496 37.4605 62.8626 37.4461 62.7756 37.4243C60.6008 36.9604 58.8827 36.5689 57.2734 36.8299C52.9891 37.5258 49.5456 44.4924 49.4297 46.8049C49.4659 47.5878 49.0455 48.7404 50.2199 48.0517C50.5388 47.8633 50.8361 47.5443 51.1333 47.1964C51.9886 46.8121 52.8368 47.4935 53.3805 48.8782C53.9387 50.3063 53.511 56.7654 53.7502 57.6715C53.9967 58.5777 59.2017 59.0923 60.2094 58.7517C61.2242 58.411 61.478 54.7863 61.478 54.7863C59.9048 54.6123 58.4768 57.6715 56.9399 56.9466C54.9246 55.997 53.3153 47.6675 54.7144 46.9063C56.1135 46.1452 57.9186 44.9201 58.3318 43.2528C58.7449 41.5926 59.0785 40.15 60.1949 39.4759C61.3112 38.8017 65.3345 38.8379 67.6181 39.1496C67.4513 39.0699 67.2919 38.9974 67.1324 38.9177C69.1622 39.3237 66.4364 38.2362 63.0366 37.4823Z" fill="#382D23"/>
<path id="Vector_103" opacity="0.5" d="M49.4297 46.8121C49.4659 47.5951 49.0455 48.7477 50.2199 48.0591C51.3943 47.3703 52.1844 45.0071 54.2649 45.471C56.3527 45.935 57.3096 44.5431 57.4039 42.6728C57.4981 40.8025 58.194 39.8311 59.5569 39.3454C60.9198 38.8598 63.1743 38.1058 66.9874 38.9032C70.8005 39.7006 61.5649 36.1412 57.2734 36.8371C52.9818 37.5331 49.5385 44.4996 49.4297 46.8121Z" fill="#382D23"/>
<path id="Vector_104" opacity="0.6" d="M60.9198 58.527C61.3837 60.0496 62.2247 60.3252 63.5802 60.3397C64.9358 60.3542 66.0233 60.8397 66.8352 60.6802C67.6471 60.5206 68.6837 59.5053 68.6837 59.5053C68.6837 59.5053 68.5823 64.3628 65.3346 64.2612C62.0869 64.1597 60.5283 61.1802 60.9198 58.527Z" fill="#382D23"/>
<path id="Vector_105" opacity="0.5" d="M60.8618 60.7237C61.4273 62.3329 62.6887 63.7177 64.6677 63.9063C66.5598 64.0871 67.4877 62.5138 67.9299 61.1733C65.6101 61.9779 63.1453 62.0214 60.8618 60.7237Z" fill="#382D23"/>
<path id="Vector_106" opacity="0.6" d="M69.7421 55.7214C70.4017 56.3231 70.438 56.8088 70.438 56.8088C70.438 56.8088 70.873 57.0408 70.3655 58.6429C70.1263 59.3969 69.1694 59.2885 69.0679 59.1435L69.7421 55.7214Z" fill="#382D23"/>
<path id="Vector_107" d="M53.0325 53.3872C52.8947 53.9092 52.5613 54.6269 51.3652 54.5109C50.169 54.3949 50.2125 52.8725 49.5673 51.6836C48.9222 50.4947 48.103 49.0739 48.9294 47.7038C49.7558 46.3337 52.2641 46.7686 52.9165 48.3998C53.5689 50.0308 53.2065 52.7348 53.0325 53.3872Z" fill="#D3AA98"/>
<path id="Vector_108" d="M51.8581 48.03C51.9885 48.3273 51.8871 48.4795 51.2636 48.3997C50.633 48.32 49.9152 48.117 49.7267 49.0522C49.531 49.9946 49.5383 50.8137 49.908 50.56C50.2777 50.299 50.9374 49.9003 51.2854 49.5451C51.6261 49.1899 52.0828 49.0957 51.9378 49.7191C51.8 50.3425 51.6261 50.4875 51.9306 50.763C52.235 51.0384 52.5757 51.9808 52.0103 51.8794C51.4448 51.7779 50.082 50.6397 50.0748 50.9515C50.0385 52.3506 52.4453 52.5898 52.2713 52.7348C51.3289 53.5177 49.7485 51.9446 49.2846 50.4802C48.8134 49.0159 48.9873 47.9793 49.7413 47.624C50.4807 47.2688 51.6406 47.5443 51.8581 48.03Z" fill="#BA9083"/>
<path id="Vector_109" d="M51.1404 54.4674C51.1404 54.4674 52.3945 54.8444 53.047 53.612C53.047 53.612 53.3224 54.9241 51.1912 54.9603L51.1404 54.4674Z" fill="#BA9083"/>
<path id="Vector_110" opacity="0.5" d="M52.1265 38.0188C52.1265 38.0188 55.5408 38.374 58.4768 37.8593C58.4768 37.8593 57.8171 38.1058 57.0922 38.6422C57.0922 38.6422 55.0479 39.0772 52.1265 38.0188Z" fill="black"/>
<path id="Vector_111" d="M58.9914 47.8778C58.8755 48.2113 61.0937 47.2689 62.8481 47.4284C64.6023 47.5878 65.8058 48.436 66.0522 48.0156C66.2987 47.5951 65.3853 46.4642 63.5512 46.37C61.7172 46.2757 59.3031 46.9934 58.9914 47.8778Z" fill="#382D23"/>
<path id="Vector_112" d="M68.6111 47.5298C68.2559 47.8416 68.2994 48.4288 68.7198 48.3708C69.1403 48.32 70.6409 48.2983 71.6631 48.726C71.6631 48.726 72.1125 48.4361 71.5978 47.9213C71.0831 47.4066 69.4303 46.8049 68.6111 47.5298Z" fill="#382D23"/>
<path id="Vector_113" d="M51.4739 53.5033C51.1477 53.6192 51.3434 54.0977 51.6478 54.0977C52.0103 54.105 52.0973 53.2785 51.4739 53.5033Z" fill="#382D23"/>
<path id="Vector_114" opacity="0.7" d="M61.7678 57.802C62.877 58.6356 63.1815 58.8457 65.436 59.187C66.7264 59.3824 67.7123 59.0129 68.1399 58.7733C68.459 58.5921 68.4082 58.4326 68.1109 58.4399C67.618 58.4471 66.7336 58.4109 65.7477 58.3094C64.5153 58.179 61.7678 57.802 61.7678 57.802Z" fill="#A87D76"/>
<path id="Vector_115" d="M61.7681 57.802C63.2251 57.6933 66.3205 58.0485 66.8135 58.0485C67.4587 58.0485 68.5461 58.4327 68.2344 58.44C67.7197 58.4545 66.8353 58.4182 65.8059 58.324C64.5373 58.2007 61.7681 57.802 61.7681 57.802Z" fill="#A87D76"/>
<path id="Vector_116" opacity="0.5" d="M68.5098 50.763C68.5098 50.763 69.1042 51.3284 70.3293 51.2994C71.5617 51.2778 69.5246 52.1767 68.5098 50.763Z" fill="#BA9083"/>
<path id="Vector_117" d="M69.8289 50.5601C69.8289 50.5601 70.7641 50.995 71.3223 51.0385C71.3223 51.0385 71.3295 50.8645 71.4455 50.3209C71.5614 49.7844 69.7927 49.8931 69.8289 50.5601Z" fill="#BA9083"/>
<path id="Vector_118" d="M68.6766 49.9149C68.4446 50.2918 68.3938 50.3135 69.0535 50.56C69.619 50.7703 71.3298 50.85 71.3298 50.85L71.4458 50.328C70.9601 49.5307 69.0826 49.3349 68.6766 49.9149Z" fill="#EAEAEA"/>
<path id="Vector_119" d="M69.6986 51.5242C70.135 51.5242 70.4888 51.1704 70.4888 50.734C70.4888 50.2977 70.135 49.9438 69.6986 49.9438C69.2622 49.9438 68.9084 50.2977 68.9084 50.734C68.9084 51.1704 69.2622 51.5242 69.6986 51.5242Z" fill="#694C28"/>
<path id="Vector_120" d="M69.7711 51.0748C69.9753 51.0748 70.1408 50.9093 70.1408 50.7051C70.1408 50.5009 69.9753 50.3354 69.7711 50.3354C69.5669 50.3354 69.4014 50.5009 69.4014 50.7051C69.4014 50.9093 69.5669 51.0748 69.7711 51.0748Z" fill="black"/>
<path id="Vector_121" d="M70.0612 50.6906C70.1693 50.6906 70.2569 50.6029 70.2569 50.4948C70.2569 50.3867 70.1693 50.2991 70.0612 50.2991C69.9531 50.2991 69.8655 50.3867 69.8655 50.4948C69.8655 50.6029 69.9531 50.6906 70.0612 50.6906Z" fill="white"/>
<path id="Vector_122" d="M62.2173 49.8351C62.2173 49.8351 60.9269 50.0888 60.3324 49.7843C59.738 49.4799 59.9627 48.9362 60.5499 48.8347C61.1371 48.7332 62.355 48.3563 62.2173 49.8351Z" fill="#BA9083"/>
<path id="Vector_123" opacity="0.5" d="M60.4485 50.3063C60.2165 50.2628 62.1158 51.169 64.1891 50.3788C64.7328 50.1758 62.1738 50.6252 60.4485 50.3063Z" fill="#BA9083"/>
<path id="Vector_124" d="M64.4211 49.4945C64.6024 49.7699 64.1094 49.9366 63.4135 49.9439C62.7175 49.9511 61.0357 49.7772 60.4195 49.4945C59.8034 49.2117 61.1662 48.929 61.8187 48.8203C62.6524 48.6753 63.921 48.8855 64.4211 49.4945Z" fill="#EAEAEA"/>
<path id="Vector_125" d="M62.4782 50.6833C62.9145 50.6833 63.2683 50.3296 63.2683 49.8932C63.2683 49.4568 62.9145 49.103 62.4782 49.103C62.0417 49.103 61.688 49.4568 61.688 49.8932C61.688 50.3296 62.0417 50.6833 62.4782 50.6833Z" fill="#694C28"/>
<path id="Vector_126" d="M62.5506 50.2338C62.7548 50.2338 62.9203 50.0683 62.9203 49.8641C62.9203 49.6599 62.7548 49.4944 62.5506 49.4944C62.3464 49.4944 62.1809 49.6599 62.1809 49.8641C62.1809 50.0683 62.3464 50.2338 62.5506 50.2338Z" fill="black"/>
<path id="Vector_127" d="M62.819 49.8134C62.9271 49.8134 63.0148 49.7257 63.0148 49.6177C63.0148 49.5096 62.9271 49.422 62.819 49.422C62.7109 49.422 62.6233 49.5096 62.6233 49.6177C62.6233 49.7257 62.7109 49.8134 62.819 49.8134Z" fill="white"/>
<path id="Vector_128" d="M64.6821 49.7263C64.1311 49.6321 63.7613 49.2189 62.2607 49.1754C61.4489 49.1536 60.7747 49.1029 60.0788 49.3494C59.3829 49.5886 60.0207 48.5809 62.1303 48.6607C63.9716 48.7331 64.74 49.3203 64.6821 49.7263Z" fill="#46352D"/>
<path id="Vector_129" d="M68.4299 50.1976C68.8867 49.9946 69.0679 49.9149 70.0828 50.0237C70.67 50.0889 70.9745 50.0744 71.4456 50.3208C71.9458 50.5819 71.8226 49.8569 70.4308 49.6032C68.9809 49.3494 68.4517 49.7917 68.4299 50.1976Z" fill="#46352D"/>
<path id="Vector_130" d="M221.998 160.88H220.375C218.055 160.88 216.177 162.757 216.177 165.077C216.177 167.397 218.055 169.274 220.375 169.274H221.998" fill="#666666"/>
<path id="Vector_131" d="M221.998 169.267C224.316 169.267 226.195 167.387 226.195 165.069C226.195 162.751 224.316 160.872 221.998 160.872C219.68 160.872 217.801 162.751 217.801 165.069C217.801 167.387 219.68 169.267 221.998 169.267Z" fill="#606060"/>
<path id="Vector_132" d="M221.998 168.165C223.708 168.165 225.094 166.779 225.094 165.069C225.094 163.36 223.708 161.974 221.998 161.974C220.288 161.974 218.903 163.36 218.903 165.069C218.903 166.779 220.288 168.165 221.998 168.165Z" fill="#666666"/>
<path id="Vector_133" d="M221.998 167.186C223.167 167.186 224.115 166.238 224.115 165.069C224.115 163.9 223.167 162.952 221.998 162.952C220.829 162.952 219.881 163.9 219.881 165.069C219.881 166.238 220.829 167.186 221.998 167.186Z" fill="#606060"/>
<path id="Vector_134" d="M221.505 163.018C220.57 163.236 219.875 164.076 219.875 165.077C219.875 166.077 220.57 166.911 221.505 167.136C222.44 166.918 223.136 166.077 223.136 165.077C223.136 164.076 222.44 163.236 221.505 163.018Z" fill="#A0A0A0"/>
<path id="Vector_135" d="M216.808 216.641L216.866 218.155C216.88 218.555 218.635 218.816 220.781 218.736C222.926 218.656 224.652 218.265 224.637 217.858L224.579 216.343" fill="#666666"/>
<path id="Vector_136" d="M220.724 217.228C222.868 217.145 224.595 216.754 224.579 216.354C224.564 215.954 222.813 215.696 220.669 215.779C218.525 215.861 216.798 216.252 216.814 216.652C216.829 217.052 218.58 217.31 220.724 217.228Z" fill="#606060"/>
<path id="Vector_137" d="M217.323 214.879L217.374 216.17C217.388 216.51 218.881 216.728 220.708 216.662C222.535 216.59 224.006 216.257 223.991 215.916L223.941 214.626" fill="#515151"/>
<path id="Vector_138" d="M216.75 213.48L216.808 214.974C216.823 215.364 218.548 215.626 220.665 215.539C222.774 215.459 224.478 215.075 224.463 214.676L224.405 213.183" fill="#666666"/>
<path id="Vector_139" d="M220.601 214.067C222.713 213.986 224.414 213.599 224.398 213.202C224.383 212.806 222.659 212.551 220.546 212.632C218.433 212.713 216.733 213.101 216.748 213.497C216.764 213.893 218.489 214.148 220.601 214.067Z" fill="#606060"/>
<path id="Vector_140" d="M214.169 157.567L153.276 158.842C149.477 158.922 146.425 162.199 146.425 166.251V217.032C146.693 221.027 148.505 223.252 152.246 224.296L138.741 221.505C135.921 220.983 133.586 218.924 132.832 216.162C132.586 215.263 132.456 214.313 132.456 213.328V166.259C132.456 162.206 135.732 158.371 139.828 158.291L210.798 157.059L214.169 157.567Z" fill="#A8A8A8"/>
<g id="Group_4" style="mix-blend-mode:multiply" opacity="0.4">
<path id="Vector_141" d="M140.916 215.858V165.722C140.916 161.72 143.953 158.458 147.752 158.378L211.421 157.61C211.334 157.61 211.255 157.588 211.168 157.588L146.49 158.378C142.691 158.458 139.654 161.728 139.654 165.722V215.858C139.654 220.164 143.162 223.55 147.244 223.179L147.317 223.172C143.764 222.86 140.916 219.743 140.916 215.858Z" fill="#A0A0A0"/>
</g>
<path id="Vector_142" opacity="0.3" d="M137.551 177.422C137.551 177.422 137.754 201.352 137.327 203.839C136.899 206.318 135.203 203.498 135.203 203.498C135.203 203.498 133.427 190.696 133.738 188.347C134.043 186.005 135.232 179.126 135.45 178.335C135.666 177.545 137.551 177.422 137.551 177.422Z" fill="#A0A0A0"/>
<path id="Vector_143" d="M136.856 176.799C136.051 176.85 135.435 177.524 135.435 178.335C135.427 182.424 134.173 183.28 133.724 188.347C133.136 194.98 135.485 199.01 135.189 203.498C135.152 204.1 135.572 204.636 136.167 204.745C136.747 204.853 137.283 204.426 137.32 203.839C137.595 199.381 135.261 195.35 135.848 188.746C136.327 183.374 137.711 182.25 137.544 177.429C137.537 177.06 137.218 176.777 136.856 176.799Z" fill="#606060"/>
<path id="Vector_144" d="M218.287 165.446C218.149 172.957 220.824 178.126 220.824 178.126V200.279C220.824 200.279 218.113 204.759 218.446 212.958C219.272 216.452 217.329 218.584 214.77 218.823L154.74 224.398C154.072 224.463 153.391 224.477 152.724 224.39C149.136 223.897 146.359 221.244 146.359 217.062V166.28C146.359 162.228 149.397 158.922 153.195 158.842L213.256 157.538C215.945 157.48 218.171 159.756 218.229 162.626L218.287 165.446Z" fill="#B7B7B7"/>
<path id="Vector_145" opacity="0.3" d="M185.375 158.422L158.19 158.726C157.473 158.734 160.212 158.11 161.402 157.929L163.424 157.617C164.214 157.494 164.823 157.857 165.294 157.842L187.651 157.451C188.601 157.428 186.521 158.407 185.375 158.422Z" fill="#A0A0A0"/>
<path id="Vector_146" d="M187.136 157.233C180.315 153.289 164.526 154.21 161.38 157.907C161.38 157.907 166.302 158.154 166.613 157.944C169.165 156.269 178.241 156.225 180.974 157.291C182.671 157.958 188.884 158.241 187.136 157.233Z" fill="#606060"/>
<path id="Vector_147" d="M220.824 178.126C220.824 178.126 218.148 172.957 218.287 165.446L218.229 162.612C218.171 159.742 215.945 157.465 213.256 157.523L209.935 157.596C212.624 157.538 214.851 160.379 214.909 163.25L214.967 166.085C214.828 173.595 217.503 178.763 217.503 178.763L220.824 178.126Z" fill="#A8A8A8"/>
<path id="Vector_148" d="M217.503 200.917C217.503 200.917 215.38 205.26 215.126 213.596C215.757 216.256 214.778 218.126 213.14 218.968L214.77 218.816C217.33 218.576 219.273 216.445 218.446 212.951C218.113 204.76 220.824 200.271 220.824 200.271L217.503 200.917Z" fill="#A8A8A8"/>
<path id="Vector_149" d="M159.88 186.433C159.778 186.585 159.683 186.737 159.625 186.897C159.437 187.361 159.075 187.687 158.538 187.898C158.19 188.035 157.951 188.267 157.784 188.557C157.589 188.898 157.523 189.26 157.538 189.623C157.552 190.115 157.748 190.529 158.277 190.789C158.35 190.826 158.415 190.862 158.487 190.899C158.835 191.058 159.053 191.326 159.169 191.682C159.27 192 159.379 192.334 159.524 192.66C159.807 193.291 160.343 193.632 161.126 193.632C162.373 193.632 163.148 193.037 163.613 192.138C163.656 192.051 163.671 191.95 163.7 191.848L163.678 191.152C163.548 190.739 163.417 190.341 163.294 189.949C163.076 189.275 163.177 188.644 163.403 188.013C163.475 187.818 163.504 187.614 163.548 187.419L163.533 186.911C163.526 186.897 163.511 186.89 163.504 186.876C163.229 186.136 162.547 185.737 161.554 185.665C160.786 185.614 160.227 185.889 159.88 186.433ZM157.777 185.752C157.56 185.846 157.371 185.962 157.247 186.15C157.103 186.382 157.154 186.563 157.284 186.716C157.574 187.034 158.328 187.129 158.951 186.905C159.648 186.643 159.865 186.128 159.416 185.81C159.256 185.694 159.053 185.621 158.828 185.607C158.669 185.592 158.502 185.599 158.342 185.599L157.951 185.686C157.886 185.708 157.835 185.73 157.777 185.752ZM159.161 192.819C159.154 192.457 158.93 192.211 158.611 192.044C157.944 191.682 156.965 191.819 156.515 192.276C156.399 192.392 156.305 192.53 156.27 192.696C156.212 193.008 156.32 193.291 156.602 193.501C156.718 193.588 156.849 193.646 156.98 193.725L157.371 193.827C157.407 193.827 157.436 193.827 157.473 193.827C158.002 193.87 158.502 193.769 158.901 193.385C159.061 193.24 159.169 193.051 159.161 192.819ZM155.117 188.941C154.805 188.97 154.508 189.043 154.218 189.144C154.131 189.173 154.051 189.202 153.964 189.231C153.892 189.26 153.877 189.391 153.942 189.412C154.022 189.441 154.109 189.478 154.189 189.507C154.421 189.594 154.66 189.673 154.943 189.688C154.986 189.688 155.022 189.565 155.008 189.507C154.964 189.347 155.008 189.195 155.131 189.043C155.153 189.021 155.138 188.941 155.117 188.941ZM157.132 188.854C156.892 188.637 156.588 188.572 156.262 188.586C155.957 188.615 155.682 188.68 155.421 188.876C155.08 189.13 155.008 189.507 155.262 189.768C155.421 189.934 155.631 190.014 155.87 190.043C156.255 190.086 156.654 190.036 157.016 189.746C157.363 189.47 157.407 189.101 157.132 188.854ZM157.792 188.085C158.132 187.788 158.111 187.411 157.77 187.223C157.516 187.078 157.219 187.042 156.834 187.085C156.631 187.114 156.37 187.187 156.131 187.361C155.928 187.506 155.791 187.68 155.791 187.898C155.791 188.064 155.87 188.187 156.001 188.267C156.356 188.506 156.813 188.528 157.342 188.347C157.502 188.296 157.668 188.195 157.792 188.085ZM157.371 191.515C157.734 191.218 157.755 190.804 157.429 190.5C157.19 190.275 156.892 190.196 156.581 190.181C156.189 190.159 155.812 190.275 155.551 190.478C155.182 190.768 155.138 191.195 155.464 191.5C155.718 191.739 156.038 191.834 156.399 191.826C156.747 191.826 157.081 191.754 157.371 191.515ZM157.009 186.462C156.987 186.346 157.009 186.237 157.081 186.121C157.139 186.042 157.067 185.969 156.973 186.013C156.689 186.128 156.421 186.266 156.175 186.455C156.16 186.469 156.139 186.484 156.125 186.491C155.951 186.636 156.038 186.847 156.241 186.759C156.262 186.752 156.276 186.745 156.299 186.737C156.486 186.658 156.668 186.636 156.871 186.614C156.951 186.6 157.023 186.527 157.009 186.462ZM156.11 192.638C156.146 192.551 156.088 192.443 155.994 192.443C155.769 192.428 155.566 192.385 155.377 192.29C155.356 192.283 155.341 192.269 155.32 192.261C155.117 192.153 154.935 192.443 155.08 192.631C155.102 192.66 155.131 192.696 155.16 192.725C155.363 192.957 155.617 193.132 155.892 193.283C155.994 193.341 156.102 193.24 156.067 193.117C156.03 192.957 156.038 192.798 156.11 192.638ZM155.153 190.804C155.189 190.725 155.138 190.637 155.059 190.645C154.761 190.674 154.493 190.674 154.261 190.579C154.167 190.544 154.051 190.594 154.131 190.71C154.182 190.789 154.24 190.876 154.283 190.928C154.479 191.152 154.747 191.268 155.037 191.377C155.109 191.406 155.211 191.348 155.189 191.29C155.16 191.218 155.131 191.145 155.117 191.065C155.08 190.978 155.109 190.891 155.153 190.804ZM155.66 187.94C155.646 187.818 155.682 187.701 155.762 187.593C155.82 187.513 155.776 187.426 155.682 187.455C155.472 187.527 155.225 187.651 155.008 187.782C154.841 187.883 154.863 188.114 155.037 188.085C155.196 188.064 155.356 188.064 155.522 188.079C155.595 188.079 155.667 188.006 155.66 187.94Z" fill="#DDDDDD"/>
<g id="Group_5" style="mix-blend-mode:multiply" opacity="0.1">
<path id="Vector_150" d="M210.523 176.328L210.196 203.94C210.175 205.811 209.573 207.137 208.703 207.238L181.119 210.312C179.706 210.472 178.415 207.796 178.452 204.824L178.793 177.951C178.814 175.951 179.554 174.486 180.54 174.435L208.877 172.979C209.711 172.928 210.544 174.624 210.523 176.328Z" fill="#A0A0A0"/>
</g>
<path id="Vector_151" d="M209.189 175.61L208.782 203.215C208.753 205.085 208.152 206.412 207.275 206.506L179.59 209.551C178.169 209.703 176.879 207.035 176.929 204.056L177.35 177.183C177.379 175.182 178.119 173.718 179.119 173.674L207.55 172.254C208.384 172.217 209.211 173.914 209.189 175.61Z" fill="#A0A0A0"/>
<g id="Group_6" style="mix-blend-mode:multiply" opacity="0.1">
<path id="Vector_152" d="M177.35 177.19L176.929 204.063C176.886 207.043 178.176 209.711 179.59 209.558L180.061 209.508C179.72 208.573 179.51 207.427 179.532 206.224L179.945 179.467C179.974 177.473 180.706 176.015 181.7 175.965L209.08 174.486C208.833 173.247 208.195 172.231 207.55 172.268L179.118 173.689C178.118 173.732 177.379 175.19 177.35 177.19Z" fill="#A0A0A0"/>
</g>
<g id="Group_7" style="mix-blend-mode:multiply" opacity="0.4">
<path id="Vector_153" d="M184.969 175.784L184.497 209.015L182.975 209.181L183.49 175.864L184.969 175.784Z" fill="#A0A0A0"/>
</g>
<path id="Vector_154" fill-rule="evenodd" clip-rule="evenodd" d="M89.9018 93.7877C92.6638 93.7877 95.3242 94.8534 97.3327 96.7527C97.4846 96.8977 97.7243 96.8977 97.8762 96.745L99.319 95.2877C99.3916 95.216 99.4351 95.1068 99.4351 95.0052C99.4351 94.9037 99.3916 94.7954 99.3114 94.7228C94.0562 89.6844 85.755 89.6844 80.4998 94.7228C80.42 94.7954 80.3837 94.8969 80.3765 95.0052C80.3765 95.1145 80.42 95.216 80.4925 95.2877L81.9351 96.745C82.0801 96.8977 82.3266 96.8977 82.4788 96.7527C84.4723 94.8457 87.133 93.7877 89.9018 93.7877ZM89.9018 98.5215C91.424 98.5215 92.889 99.0863 94.0127 100.108C94.1646 100.254 94.4035 100.254 94.5562 100.102L95.9991 98.6443C96.0707 98.565 96.1143 98.4634 96.1143 98.3542C96.1143 98.2459 96.0708 98.1443 95.9914 98.0718C92.5622 94.8824 87.2559 94.8824 83.8272 98.0718C83.7474 98.1443 83.7039 98.2459 83.7039 98.3542C83.7039 98.4634 83.7474 98.565 83.8199 98.6443L85.2625 100.102C85.4074 100.254 85.6544 100.254 85.8062 100.108C86.9155 99.0863 88.3796 98.5215 89.9018 98.5215ZM92.7875 101.711C92.7875 101.82 92.744 101.921 92.6714 102.001L90.1774 104.516C90.1049 104.589 90.0033 104.632 89.9018 104.632C89.8003 104.632 89.6987 104.589 89.6262 104.516L87.133 102.001C87.0528 101.928 87.017 101.82 87.017 101.711C87.017 101.603 87.0673 101.501 87.1475 101.428C88.7423 100.079 91.069 100.079 92.6638 101.428C92.7363 101.501 92.7798 101.603 92.7875 101.711Z" fill="#B9E4FF"/>
</g>
</svg>
