<svg width="36" height="36" viewBox="0 0 36 36" fill="none" xmlns="http://www.w3.org/2000/svg">
<g id="Frame" clip-path="url(#clip0_62_4056)">
<g id="Group" opacity="0.6">
<path id="Vector" fill-rule="evenodd" clip-rule="evenodd" d="M6.33545 14.7085C6.33545 13.8554 7.027 13.1638 7.88006 13.1638H7.97257C8.82564 13.1638 9.51718 13.8554 9.51718 14.7085V22.2252C9.51718 23.0783 8.82564 23.7699 7.97257 23.7699H7.88006C7.027 23.7699 6.33545 23.0783 6.33545 22.2252V14.7085ZM11.6728 28.0214V31.2885C11.6728 32.1416 12.3644 32.8332 13.2174 32.8332H13.31C14.163 32.8332 14.8547 32.1416 14.8547 31.2885V28.0885H21.2154V31.2885C21.2154 32.1416 21.907 32.8332 22.76 32.8332H22.8526C23.7057 32.8332 24.3973 32.1416 24.3973 31.2885V28.001C24.9977 27.7892 25.4279 27.2167 25.4279 26.5439V14.2042H10.5795V26.5439C10.5795 27.2399 11.0399 27.8284 11.6728 28.0214ZM26.4943 14.7547C26.4943 13.8761 27.2066 13.1639 28.0852 13.1639C28.9638 13.1639 29.676 13.8761 29.676 14.7547V22.1791C29.676 23.0577 28.9638 23.7699 28.0852 23.7699C27.2066 23.7699 26.4943 23.0577 26.4943 22.1791V14.7547Z" fill="#F6F6F6"/>
<path id="Vector_2" fill-rule="evenodd" clip-rule="evenodd" d="M25.4295 2.48282C25.4295 3.61302 24.0622 5.20913 22.9638 5.20913C22.8178 5.20913 22.6753 5.19293 22.5383 5.16218C24.297 6.51984 25.4297 8.64892 25.4297 11.0426V13.1638H20.9752V11.3606C20.9752 9.7205 19.6456 8.39092 18.0055 8.39092C16.3654 8.39092 15.0358 9.7205 15.0358 11.3606V13.1638H10.5813V11.0426C10.5813 8.64874 11.7142 6.51953 13.4731 5.16187C13.3354 5.19281 13.1924 5.20913 13.0456 5.20913C11.9465 5.20913 10.5813 3.60758 10.5813 2.47931C10.5813 1.35104 11.4723 0.436401 12.5715 0.436401C13.6707 0.436401 15.0358 2.03796 15.0358 3.16622C15.0358 3.65014 14.8719 4.09476 14.598 4.44477C15.6185 3.91663 16.7771 3.61831 18.0055 3.61831C19.2342 3.61831 20.3932 3.9168 21.414 4.44522C21.1394 4.09434 20.975 3.64827 20.975 3.16272C20.975 2.03252 22.3424 0.436401 23.4408 0.436401C24.5392 0.436401 25.4295 1.35261 25.4295 2.48282ZM15.0354 7.59538C15.0354 8.03471 14.703 8.39084 14.293 8.39084C13.8829 8.39084 13.5505 8.03471 13.5505 7.59538C13.5505 7.15607 13.8829 6.79993 14.293 6.79993C14.703 6.79993 15.0354 7.15607 15.0354 7.59538ZM21.7174 8.39084C22.1274 8.39084 22.4598 8.03471 22.4598 7.59538C22.4598 7.15607 22.1274 6.79993 21.7174 6.79993C21.3074 6.79993 20.975 7.15607 20.975 7.59538C20.975 8.03471 21.3074 8.39084 21.7174 8.39084Z" fill="#F6F6F6"/>
<path id="Vector_3" fill-rule="evenodd" clip-rule="evenodd" d="M16.4576 11.2836C16.4576 10.405 17.1697 9.69275 18.0485 9.69275C18.9271 9.69275 19.6394 10.405 19.6394 11.2836V12.8745H16.4576V11.2836Z" fill="#F6F6F6"/>
</g>
</g>
<defs>
<clipPath id="clip0_62_4056">
<rect width="35" height="35" fill="white" transform="translate(0.5 0.410034)"/>
</clipPath>
</defs>
</svg>
