<svg width="34" height="36" viewBox="0 0 34 36" fill="none" xmlns="http://www.w3.org/2000/svg">
<g id="Frame">
<g id="Group" opacity="0.6">
<path id="Vector" fill-rule="evenodd" clip-rule="evenodd" d="M21.7103 6.96641C23.7518 4.80321 23.3269 2.55762 23.3269 2.55762C23.3269 2.55762 20.47 2.56931 18.415 4.95775C16.5877 7.08168 17.0529 8.89828 17.0529 8.89828C17.0529 8.89828 19.5306 9.27624 21.7103 6.96641ZM28.8975 13.1941C28.8975 13.1941 27.1711 9.98186 22.7823 9.98186C21.2308 9.98186 19.8982 10.5344 18.8547 10.967C18.1833 11.2455 17.6317 11.4741 17.2185 11.4741C16.7033 11.4741 16.0819 11.228 15.3599 10.9418C14.3583 10.545 13.163 10.0713 11.7889 10.0713C8.15116 10.0713 4.27271 13.4217 4.27271 19.8086C4.27271 26.3001 8.85476 34.3758 12.4817 34.3758C13.0458 34.3758 13.7447 34.1153 14.5194 33.8264C15.4832 33.4672 16.5644 33.064 17.6502 33.064C18.6239 33.064 19.4682 33.3885 20.3015 33.7088C21.1133 34.0207 21.9146 34.3286 22.8149 34.3286C26.7867 34.3286 29.7272 25.8152 29.7272 25.8152C29.7272 25.8152 25.5207 24.1401 25.5207 19.279C25.5207 14.9699 28.8975 13.1941 28.8975 13.1941Z" fill="#F6F6F6"/>
</g>
</g>
</svg>
