<svg width="100" height="101" viewBox="0 0 100 101" fill="none" xmlns="http://www.w3.org/2000/svg">
<g id="Frame" clip-path="url(#clip0_62_4108)">
<path id="Vector" d="M50 100.66C77.6142 100.66 100 78.2741 100 50.6599C100 23.0457 77.6142 0.659912 50 0.659912C22.3858 0.659912 0 23.0457 0 50.6599C0 78.2741 22.3858 100.66 50 100.66Z" fill="#E9E9E9"/>
<path id="Vector_2" fill-rule="evenodd" clip-rule="evenodd" d="M57.526 94.801C57.2534 95.9063 62.6156 98.5164 66.8501 97.2618C71.0174 96.0295 73.4968 94.562 70.588 93.2625C67.7127 91.9817 64.7179 92.2917 62.9069 92.7547C61.0772 93.2214 57.7538 93.8712 57.526 94.801Z" fill="#B37F3E"/>
<path id="Vector_3" fill-rule="evenodd" clip-rule="evenodd" d="M64.6767 99.5993C63.7431 99.0093 64.0195 98.5276 64.8335 98.3185C65.6475 98.1094 66.5773 98.3969 67.5146 98.9869C68.4593 99.5769 68.6535 100.223 67.8357 100.436C67.018 100.649 65.6139 100.193 64.6767 99.5993Z" fill="#B37F3E"/>
<path id="Vector_4" fill-rule="evenodd" clip-rule="evenodd" d="M68.4929 98.9121C67.3615 98.337 67.4921 97.8105 68.2576 97.5417C69.0194 97.2766 70.05 97.5305 71.1815 98.1018C72.3204 98.6768 72.7162 99.349 71.9544 99.6216C71.1927 99.8942 69.6318 99.4909 68.4929 98.9121Z" fill="#B37F3E"/>
<path id="Vector_5" fill-rule="evenodd" clip-rule="evenodd" d="M71.5324 97.5642C70.3897 97.0489 70.4271 96.5448 71.0917 96.2722C71.7527 95.9996 72.7534 96.2124 73.896 96.724C75.0424 97.2356 75.5204 97.8629 74.8595 98.143C74.1948 98.4193 72.6825 98.0832 71.5324 97.5642Z" fill="#B37F3E"/>
<path id="Vector_6" fill-rule="evenodd" clip-rule="evenodd" d="M73.2166 95.9735C72.2046 95.5217 72.2345 95.0848 72.817 94.8458C73.3995 94.6068 74.2808 94.7935 75.2927 95.2416C76.3084 95.6897 76.7304 96.2386 76.1516 96.4813C75.5653 96.7203 74.2322 96.4253 73.2166 95.9735Z" fill="#B37F3E"/>
<path id="Vector_7" fill-rule="evenodd" clip-rule="evenodd" d="M59.8037 99.2334C58.971 98.6471 59.3071 98.1915 60.136 98.0123C60.9613 97.8293 61.8313 98.1281 62.6678 98.7106C63.5079 99.2968 63.6125 99.9167 62.7798 100.103C61.9471 100.286 60.6401 99.8233 59.8037 99.2334Z" fill="#B37F3E"/>
<path id="Vector_8" fill-rule="evenodd" clip-rule="evenodd" d="M34.6731 87.9115C34.2698 88.8376 38.6462 91.037 42.5931 89.9989C46.4766 88.9795 48.8963 87.7584 46.5027 86.6644C44.1353 85.5815 41.4318 85.8316 39.7515 86.2163C38.0599 86.6046 35.0091 87.1386 34.6731 87.9115Z" fill="#B37F3E"/>
<path id="Vector_9" fill-rule="evenodd" clip-rule="evenodd" d="M40.319 91.948C39.5759 91.4513 39.8933 91.0481 40.6476 90.8763C41.4019 90.7045 42.1824 90.951 42.9292 91.4439C43.6797 91.9405 43.7582 92.4782 43.0001 92.6537C42.2421 92.833 41.0659 92.4484 40.319 91.948Z" fill="#B37F3E"/>
<path id="Vector_10" fill-rule="evenodd" clip-rule="evenodd" d="M43.8104 91.3879C42.8918 90.9025 43.0859 90.4619 43.8029 90.2416C44.5161 90.0213 45.3974 90.2378 46.3197 90.7195C47.2457 91.205 47.4997 91.7688 46.7827 91.9929C46.0583 92.2169 44.7327 91.8771 43.8104 91.3879Z" fill="#B37F3E"/>
<path id="Vector_11" fill-rule="evenodd" clip-rule="evenodd" d="M46.7044 90.2716C45.7671 89.8384 45.8717 89.4165 46.5028 89.1887C47.1301 88.9609 47.9889 89.1439 48.9262 89.5733C49.8709 90.0065 50.1995 90.533 49.5722 90.7608C48.9411 90.996 47.6491 90.7085 46.7044 90.2716Z" fill="#B37F3E"/>
<path id="Vector_12" fill-rule="evenodd" clip-rule="evenodd" d="M48.4407 88.946C47.608 88.5651 47.6976 88.1992 48.254 88.0012C48.8066 87.8033 49.5609 87.9639 50.3936 88.3411C51.2301 88.7182 51.5251 89.1775 50.9724 89.3791C50.416 89.577 49.2734 89.3269 48.4407 88.946Z" fill="#B37F3E"/>
<path id="Vector_13" fill-rule="evenodd" clip-rule="evenodd" d="M36.0511 91.6271C35.3976 91.1342 35.7635 90.757 36.5216 90.6077C37.2796 90.4583 38.0077 90.7085 38.6649 91.1976C39.3259 91.6905 39.3259 92.2096 38.5604 92.3627C37.7986 92.5158 36.7045 92.12 36.0511 91.6271Z" fill="#B37F3E"/>
<path id="Vector_14" fill-rule="evenodd" clip-rule="evenodd" d="M37.0106 72.4297C36.7268 73.0981 40.1884 74.7038 43.2242 73.9757C46.2152 73.2587 48.0711 72.3887 46.1779 71.5821C44.3071 70.7867 42.2085 70.9548 40.9091 71.2236C39.6058 71.4962 37.2534 71.8696 37.0106 72.4297Z" fill="#B37F3E"/>
<path id="Vector_15" fill-rule="evenodd" clip-rule="evenodd" d="M41.5142 75.3686C40.9242 75.0064 41.1594 74.7188 41.7382 74.5994C42.317 74.4799 42.9332 74.6591 43.5269 75.0176C44.1243 75.3798 44.199 75.7681 43.6165 75.8914C43.034 76.0146 42.1079 75.7308 41.5142 75.3686Z" fill="#B37F3E"/>
<path id="Vector_16" fill-rule="evenodd" clip-rule="evenodd" d="M44.2099 74.9804C43.4818 74.6256 43.6237 74.3082 44.1726 74.1551C44.7215 73.9983 45.4123 74.1589 46.1405 74.5136C46.8724 74.8683 47.0815 75.2753 46.5326 75.4322C45.9799 75.589 44.9418 75.3351 44.2099 74.9804Z" fill="#B37F3E"/>
<path id="Vector_17" fill-rule="evenodd" clip-rule="evenodd" d="M46.4319 74.1886C45.6925 73.8712 45.7635 73.5687 46.2489 73.4081C46.7306 73.2476 47.4028 73.382 48.1421 73.6994C48.8852 74.0168 49.1541 74.3977 48.6724 74.562C48.1869 74.7225 47.175 74.5097 46.4319 74.1886Z" fill="#B37F3E"/>
<path id="Vector_18" fill-rule="evenodd" clip-rule="evenodd" d="M47.7462 73.2403C47.089 72.9602 47.1488 72.6951 47.5782 72.5532C48.0039 72.4113 48.5976 72.5308 49.2511 72.8071C49.9083 73.0834 50.151 73.4195 49.7253 73.5614C49.2959 73.707 48.4034 73.5203 47.7462 73.2403Z" fill="#B37F3E"/>
<path id="Vector_19" fill-rule="evenodd" clip-rule="evenodd" d="M38.1945 75.1147C37.6717 74.7562 37.9443 74.4873 38.5306 74.3828C39.1168 74.2782 39.6882 74.4612 40.2147 74.8197C40.7412 75.1782 40.7561 75.5516 40.1661 75.6561C39.5761 75.7644 38.7173 75.4769 38.1945 75.1147Z" fill="#B37F3E"/>
<path id="Vector_20" fill-rule="evenodd" clip-rule="evenodd" d="M27.7985 64.3827C27.4064 64.7449 28.8179 65.8689 30.8007 65.6336C32.7499 65.4021 34.1054 65.0138 33.3063 64.4425C32.5184 63.8786 31.2637 63.8487 30.4348 63.9271C29.5983 64.0018 28.1308 64.0765 27.7985 64.3827Z" fill="#B37F3E"/>
<path id="Vector_21" fill-rule="evenodd" clip-rule="evenodd" d="M29.3444 66.3284C29.1353 66.0856 29.3668 65.9363 29.7403 65.9027C30.1137 65.8691 30.4012 66.0072 30.614 66.2499C30.8269 66.4927 30.7373 66.7204 30.3601 66.754C29.983 66.7877 29.5536 66.5711 29.3444 66.3284Z" fill="#B37F3E"/>
<path id="Vector_22" fill-rule="evenodd" clip-rule="evenodd" d="M31.0137 66.2649C30.7224 66.0184 30.9129 65.8467 31.2788 65.7907C31.6447 65.7346 31.9808 65.8653 32.2758 66.1118C32.5708 66.3582 32.5484 66.6047 32.1825 66.6607C31.8128 66.7167 31.3087 66.5113 31.0137 66.2649Z" fill="#B37F3E"/>
<path id="Vector_23" fill-rule="evenodd" clip-rule="evenodd" d="M32.552 65.9436C32.2384 65.7195 32.384 65.5477 32.7163 65.4843C33.0487 65.4208 33.381 65.5365 33.6947 65.7606C34.0084 65.9846 34.0308 66.2199 33.6984 66.2834C33.3698 66.3506 32.8657 66.1713 32.552 65.9436Z" fill="#B37F3E"/>
<path id="Vector_24" fill-rule="evenodd" clip-rule="evenodd" d="M33.6274 65.4769C33.3511 65.279 33.4743 65.1296 33.7656 65.0773C34.0568 65.0213 34.3518 65.1259 34.6281 65.32C34.9082 65.5179 34.9306 65.7233 34.6393 65.7793C34.3518 65.8353 33.9074 65.6785 33.6274 65.4769Z" fill="#B37F3E"/>
<path id="Vector_25" fill-rule="evenodd" clip-rule="evenodd" d="M27.5373 65.9885C27.3655 65.7533 27.6157 65.6151 27.9854 65.589C28.355 65.5628 28.6164 65.7047 28.7919 65.9362C28.9674 66.1715 28.8479 66.3881 28.4745 66.4142C28.1011 66.4403 27.709 66.2238 27.5373 65.9885Z" fill="#B37F3E"/>
<path id="Vector_26" fill-rule="evenodd" clip-rule="evenodd" d="M4.02161 17.6599H95.9676L96.0001 21.4753H4.05874L4.02161 17.6599Z" fill="#9E9D9E"/>
<path id="Vector_27" fill-rule="evenodd" clip-rule="evenodd" d="M4.01855 80.812H95.9646L95.8485 84.66H4.05569L4.01855 80.812Z" fill="#9E9D9E"/>
<path id="Vector_28" d="M6.87317 21.4939H4V80.7841H6.87317V21.4939Z" fill="#9E9D9E"/>
<path id="Vector_29" fill-rule="evenodd" clip-rule="evenodd" d="M14.0489 21.48H16.9128C16.9128 21.48 15.4785 32.8798 15.4785 49.6519C15.4785 65.857 16.9128 80.812 16.9128 80.812H14.0489C14.0489 80.812 12.6146 65.843 12.6146 49.6286C12.6193 32.8612 14.0489 21.48 14.0489 21.48Z" fill="#9E9D9E"/>
<path id="Vector_30" fill-rule="evenodd" clip-rule="evenodd" d="M24.6181 21.48H27.482C27.482 21.48 21.5128 47.9509 21.7496 54.2991C21.912 58.6304 27.482 80.8073 27.482 80.8073H24.6181C24.6181 80.8073 18.9924 59.1509 18.8857 54.3967C18.7279 47.3282 24.6181 21.48 24.6181 21.48Z" fill="#9E9D9E"/>
<path id="Vector_31" fill-rule="evenodd" clip-rule="evenodd" d="M34.1102 21.48H36.974C36.974 21.48 25.7181 44.9906 25.5092 53.867C25.3793 59.4623 36.974 80.8073 36.974 80.8073H33.8409C33.8409 80.8073 23.0724 62.0601 22.6453 53.4812C22.3343 47.1888 34.1102 21.48 34.1102 21.48Z" fill="#9E9D9E"/>
<path id="Vector_32" fill-rule="evenodd" clip-rule="evenodd" d="M44.1409 21.48H47.0048C47.0048 21.48 57.1838 51.1855 57.0353 56.6321C56.8589 63.1615 47.0048 80.8073 47.0048 80.8073H44.1409C44.1409 80.8073 54.2178 63.9516 54.1714 57.1247C54.1343 51.4132 44.1409 21.48 44.1409 21.48Z" fill="#9E9D9E"/>
<path id="Vector_33" fill-rule="evenodd" clip-rule="evenodd" d="M54.1713 21.48H57.0352C57.0352 21.48 59.8433 52.7284 59.899 57.2967C59.9826 63.7053 57.0352 80.812 57.0352 80.812H54.1713C54.1713 80.812 57.3183 63.0268 57.0352 57.5801C56.195 41.3936 54.1713 21.48 54.1713 21.48Z" fill="#9E9D9E"/>
<path id="Vector_34" d="M67.0936 21.4893H64.2205V80.7702H67.0936V21.4893Z" fill="#9E9D9E"/>
<path id="Vector_35" d="M77.1333 21.4893H74.2601V80.7702H77.1333V21.4893Z" fill="#9E9D9E"/>
<path id="Vector_36" d="M86.7001 21.4893H83.8594V80.7702H86.7001V21.4893Z" fill="#9E9D9E"/>
<path id="Vector_37" d="M95.9271 21.4893H93.1143V82.1923H95.9271V21.4893Z" fill="#9E9D9E"/>
</g>
<defs>
<clipPath id="clip0_62_4108">
<rect width="100" height="100" fill="white" transform="translate(0 0.659912)"/>
</clipPath>
</defs>
</svg>
