<svg width="276" height="213" viewBox="0 0 276 213" fill="none" xmlns="http://www.w3.org/2000/svg">
<path d="M143.579 211.628C156.888 211.628 167.676 209.918 167.676 207.809C167.676 205.702 156.889 203.992 143.579 203.992C130.27 203.992 119.481 205.702 119.481 207.809C119.481 209.918 130.27 211.628 143.579 211.628Z" fill="#EBECEC"/>
<path fill-rule="evenodd" clip-rule="evenodd" d="M222.947 212.904C251.909 212.904 275.385 207.373 275.385 200.548C275.385 193.728 251.909 188.195 222.947 188.195C193.988 188.195 170.51 193.728 170.51 200.548C170.51 207.373 193.988 212.904 222.947 212.904Z" fill="#F2F2F2"/>
<path fill-rule="evenodd" clip-rule="evenodd" d="M12.1423 157.75C13.3083 165.346 31.1394 164.821 39.2488 163.779C47.3577 162.74 68.5151 157.097 65.6068 145.634C62.6976 134.166 58.1973 136.175 50.7918 135.331C43.387 134.488 40.0957 138.324 31.0154 140.426C24.2512 141.993 11.8083 155.57 12.1423 157.75Z" fill="#D3D2D2"/>
<path fill-rule="evenodd" clip-rule="evenodd" d="M0.396269 169.804C-1.57747 174.837 4.26421 172.788 8.34657 174.778C15.1312 178.08 25.5804 179.556 44.0162 177.138C54.0157 175.824 50.6534 171.137 67.8193 172.556C82.9997 173.81 78.3683 176.421 83.7165 178.358C88.4315 180.065 95.1322 181.335 97.6274 181.672C114.416 183.956 110.958 186.428 133.4 185.815C144.339 185.516 149.213 182.466 150.478 181.469C155.158 177.806 158.139 175.441 160.033 174.029C165.779 169.747 201.217 173.727 188.463 162.048C164.673 140.258 105.196 146.211 87.6871 146.884C63.2036 147.824 18.3509 145.586 7.02591 151.432C0.436643 154.842 1.95645 165.829 0.396572 169.804L0.396269 169.804Z" fill="#EBECEC"/>
<path fill-rule="evenodd" clip-rule="evenodd" d="M39.4398 127.135C41.9744 127.313 43.9956 133.497 45.8186 134.103C47.6411 134.707 60.0999 141.846 60.0999 141.846L36.917 150.575C36.917 150.575 19.2893 153.226 11.844 152.453C4.19659 151.661 12.3935 146.751 13.2492 143.254C13.9212 140.524 13.9534 139.736 19.5085 136.978C23.8455 134.826 23.1489 132.443 24.4144 131.471C31.227 126.243 37.2114 126.979 39.44 127.135H39.4398Z" fill="#B3B2B2"/>
<mask id="mask0_323_1867" style="mask-type:luminance" maskUnits="userSpaceOnUse" x="10" y="83" width="72" height="86">
<path d="M53.0213 86.8931C46.4476 92.3882 43.6144 103.928 41.0874 105.989C39.7661 107.067 32.3612 116.148 30.459 119.932C28.3701 124.091 31.7566 123.151 29.6514 128.651C25.1909 140.301 13.3767 147.75 13.878 151.304C12.3657 153.418 8.00498 162.386 11.845 165.115C17.9927 169.485 34.8917 168.712 39.3247 167.964C46.905 166.684 47.8087 157.786 49.046 152.099C49.6822 149.163 65.6189 107.175 68.9971 106.077C77.1189 103.431 86.7922 100.335 76.7848 93.5622C66.7729 86.7816 61.4248 79.8656 53.0215 86.8932L53.0213 86.8931Z" fill="white"/>
</mask>
<g mask="url(#mask0_323_1867)">
<path d="M108.236 69.146H-9.54736V206.825H108.236V69.146Z" fill="#C4C4C4"/>
<path fill-rule="evenodd" clip-rule="evenodd" d="M171.21 147.018C163.104 146.13 124.041 135.439 126.143 140.266C126.751 141.661 113.751 138.729 90.8584 134.694C67.9669 130.659 66.2479 130.206 51.4292 130.221C36.6113 130.237 21.2395 131.805 38.4495 134.822C55.6592 137.834 117.265 151.554 142.836 152.202C168.396 152.851 211.44 151.422 171.21 147.018L171.21 147.018Z" fill="#B8B8B8"/>
</g>
<path fill-rule="evenodd" clip-rule="evenodd" d="M6.49682 169.996C8.34657 170.241 15.6051 173.595 18.9435 171.856C22.0749 170.225 31.6885 169.422 28.4815 166.978C25.2742 164.535 21.6092 162.525 18.175 162.525C14.7414 162.525 9.70398 163.962 8.78447 164.825C7.8695 165.685 4.67383 169.747 6.49667 169.996H6.49682Z" fill="#B3B2B2"/>
<mask id="mask1_323_1867" style="mask-type:luminance" maskUnits="userSpaceOnUse" x="44" y="63" width="133" height="113">
<path d="M72.0846 105.181C78.7261 104.007 77.15 104.839 86.6835 105.779C101.849 107.271 104.241 181.045 109.027 174.686C149.009 178.533 174.751 161.713 175.904 160.002C179.1 155.271 172.817 134.146 160.644 119.164C158.756 116.836 151.421 103.244 146.774 98.1106C143.379 94.3662 142.846 93.729 139.575 94.183C138.238 94.3662 136.953 92.4282 134.896 90.0489C132.594 87.3908 133.16 77.5299 128.219 75.6043C118.124 71.6728 100.842 68.6843 90.198 64.0726C82.351 60.6706 65.3877 79.5516 56.1045 86.0017C49.0174 90.928 46.6976 103.037 44.171 105.098C42.8538 106.176 58.2096 107.632 72.0848 105.181L72.0846 105.181Z" fill="white"/>
</mask>
<g mask="url(#mask1_323_1867)">
<path d="M198.165 40.4966H-11.1396V215.978H198.165V40.4966Z" fill="#BDBDBD"/>
<path fill-rule="evenodd" clip-rule="evenodd" d="M149.869 93.5261C141.048 92.4357 140.323 92.0816 135.632 96.1048C130.936 100.132 117.137 108.062 123.758 108.846C130.383 109.63 149.583 91.5366 163.617 104.624C156.824 98.2928 199.521 99.6621 149.869 93.5261Z" fill="#CDCDCD"/>
<path fill-rule="evenodd" clip-rule="evenodd" d="M43.2713 86.0419C42.6428 92.5838 38.4128 100.316 49.4153 104.191C60.4175 108.067 59.6575 111.688 69.8322 108.27C80.0067 104.851 76.3938 114.636 82.3746 113.192C88.355 111.748 127.538 93.1288 132.811 84.7847C138.086 76.4444 94.1017 42.9876 72.8046 49.434C51.5043 55.8758 43.6373 82.2179 43.2713 86.0417V86.0419Z" fill="#CDCDCD"/>
<path fill-rule="evenodd" clip-rule="evenodd" d="M219.186 136.284C211.072 138.309 207.626 115.731 180.481 129.947C152.431 144.638 166.717 157.606 142.153 153.858C117.59 150.111 101.562 144.241 88.4945 158.077C75.4264 171.912 70.377 181.191 88.8162 183.886C107.26 186.58 176.438 214.378 199.712 194.685C222.99 174.996 259.452 126.243 219.186 136.284Z" fill="#B3B2B2"/>
</g>
<mask id="mask2_323_1867" style="mask-type:luminance" maskUnits="userSpaceOnUse" x="38" y="103" width="82" height="65">
<path d="M39.4396 167.674C46.8649 167.909 63.8478 150.81 85.4308 158.08C105.2 164.737 119.158 160.894 119.158 160.894C119.158 160.894 113.986 106.295 84.6708 103.888C56.9801 101.612 64.9579 108.997 60.5851 116.128C55.0262 125.188 55.6747 120.811 47.43 135.057C39.1808 149.302 36.7974 156.246 39.4398 167.674H39.4396Z" fill="white"/>
</mask>
<g mask="url(#mask2_323_1867)">
<path d="M162.75 77.1045H2.7876V190.113H162.75V77.1045Z" fill="#8A8A8A"/>
<path fill-rule="evenodd" clip-rule="evenodd" d="M45.9054 170.034C53.3307 170.269 70.314 153.17 91.8966 160.439C111.665 167.097 125.624 163.253 125.624 163.253C125.624 163.253 120.452 108.655 91.1377 106.248C63.4459 103.972 71.424 111.357 67.0508 118.487C61.4921 127.548 62.1408 123.171 53.8957 137.416C45.651 151.662 43.2676 158.605 45.9054 170.034V170.034Z" fill="#504F4F"/>
</g>
<path fill-rule="evenodd" clip-rule="evenodd" d="M157.431 169.605C159.567 169.605 167.856 171.225 171.868 170.62C175.878 170.01 186.837 168.796 183.097 165.355C179.352 161.913 175.075 159.077 171.068 159.077C167.057 159.077 161.176 161.102 160.105 162.315C159.035 163.533 155.291 169.605 157.431 169.605V169.605Z" fill="#D0D0D0"/>
<path fill-rule="evenodd" clip-rule="evenodd" d="M91.9532 172.987C95.868 176.134 113.865 178.266 121.841 176.385C129.818 174.502 158.056 174.491 149.889 167.63C145.639 164.061 139.817 161.631 131.422 160.895C125.007 160.333 121.212 153.6 117.332 153.874C109.247 154.451 102.414 156.02 100.476 158.785C98.5381 161.55 89.6095 171.104 91.9531 172.987L91.9532 172.987Z" fill="#D0D0D0"/>
<path fill-rule="evenodd" clip-rule="evenodd" d="M121.912 180.519C123.953 180.371 131.967 180.924 135.763 180.232C139.56 179.54 149.961 177.953 146.189 175.836C142.417 173.718 138.167 172.056 134.336 172.326C130.503 172.6 125.003 174.4 124.048 175.306C123.093 176.222 119.871 180.666 121.912 180.519V180.519Z" fill="#B7B6B6"/>
<path fill-rule="evenodd" clip-rule="evenodd" d="M99.9697 0.407813L107.928 38.4472L113.2 38.0084L105.709 0L99.9697 0.407813Z" fill="#98A4AA"/>
<path fill-rule="evenodd" clip-rule="evenodd" d="M163.473 193.815L175.896 201.092L178.054 198.395L163.473 193.815Z" fill="#61605D"/>
<path fill-rule="evenodd" clip-rule="evenodd" d="M165.354 185.588L188.421 187.624L190.106 182.653L165.354 185.588Z" fill="#61605D"/>
<path fill-rule="evenodd" clip-rule="evenodd" d="M159.702 182.208L179.497 170.189L177.912 165.185L159.702 182.208Z" fill="#61605D"/>
<path fill-rule="evenodd" clip-rule="evenodd" d="M150.668 206.958C153.13 206.958 155.122 207.356 155.122 207.845C155.122 208.334 153.129 208.732 150.668 208.732C148.209 208.732 146.215 208.334 146.215 207.845C146.215 207.356 148.209 206.958 150.668 206.958Z" fill="#898989"/>
<path fill-rule="evenodd" clip-rule="evenodd" d="M116.67 44.5152C116.977 45.3581 115.864 46.3483 112.801 47.0508C110.269 47.6306 107.868 47.3392 107.975 46.3297C108.056 45.5552 109.968 44.0136 112.103 43.5246C113.921 43.1044 116.378 43.7253 116.67 44.5152Z" fill="#677277"/>
<path d="M152.883 190.687L151.82 189.343L147.008 190.687L151.293 186.584L152.681 187.875L154.347 186.894L115.984 42.3682L107.777 44.105L146.244 191.352V207.852H155.083V189.634L152.883 190.687Z" fill="#7E7E7E"/>
<path fill-rule="evenodd" clip-rule="evenodd" d="M152.462 187.282L152.208 187.433L152.68 187.875L154.345 186.894L115.982 42.3682L114.099 42.7666L152.462 187.282Z" fill="#949494"/>
<path fill-rule="evenodd" clip-rule="evenodd" d="M153.194 190.536V207.852H155.083V189.633L153.194 190.536Z" fill="#949494"/>
<path fill-rule="evenodd" clip-rule="evenodd" d="M150.042 189.869L150.999 191.077L152.587 190.315L151.818 189.343L150.042 189.869Z" fill="#949494"/>
<path fill-rule="evenodd" clip-rule="evenodd" d="M108.06 46.7534L106.571 39.4657C106.571 39.4657 107.241 36.0963 109.985 35.6696C114.473 34.9737 115.153 37.0929 115.153 37.0929L116.727 44.7907C116.727 44.7907 114.475 44.2268 112.48 44.4804C109.546 44.8569 108.06 46.7534 108.06 46.7534Z" fill="#839199"/>
<path fill-rule="evenodd" clip-rule="evenodd" d="M107.157 38.1491C111.646 37.4533 112.325 39.5725 112.325 39.5725L113.316 44.4182C115.052 44.371 116.724 44.7882 116.724 44.7882L115.15 37.0896C115.15 37.0896 114.47 34.9678 109.981 35.6666C108.373 35.9176 107.48 37.1773 107.016 38.1808C107.063 38.1744 107.106 38.1588 107.157 38.149V38.1491Z" fill="#98A4AA"/>
<path fill-rule="evenodd" clip-rule="evenodd" d="M59.9957 1.45117L141.212 2.92743C142.008 2.9433 142.892 3.67954 143.193 4.57637L148.302 19.8283C148.613 20.7528 148.212 21.5022 147.41 21.5022L65.105 21.4145C64.1706 21.4145 63.2088 20.6023 62.9548 19.6056L58.7735 3.16573C58.529 2.20011 59.0777 1.43242 59.9957 1.45101V1.45117Z" fill="#65A24B"/>
<path fill-rule="evenodd" clip-rule="evenodd" d="M146.593 18.6087L142.299 5.73609C142.045 4.97717 141.296 4.35358 140.627 4.34072L61.6912 3.01189C60.9171 2.99949 60.4564 3.64834 60.6666 4.4632L64.2053 18.3049C64.4185 19.1417 65.2304 19.8251 66.0138 19.8281L145.835 20.0224C146.512 20.0198 146.851 19.3893 146.593 18.6089V18.6087ZM144.899 19.1133L66.4965 18.8563C65.8041 18.8532 65.086 18.2511 64.8952 17.5085L61.7514 5.25267C61.5661 4.52883 61.9739 3.95559 62.6603 3.96467L140.288 5.2123C140.882 5.22167 141.551 5.77661 141.772 6.4504L145.573 17.8661C145.801 18.556 145.5 19.1133 144.899 19.1133Z" fill="#79BB5D"/>
<path fill-rule="evenodd" clip-rule="evenodd" d="M148.302 19.8285L143.193 4.5766C142.892 3.67977 142.006 2.94353 141.213 2.92765L59.9958 1.45139C59.4282 1.44202 59.0052 1.73038 58.8203 2.17856C59.0429 1.97791 59.3438 1.85921 59.7043 1.86525L140.921 3.34197C141.717 3.35739 142.6 4.09409 142.902 4.99015L148.011 20.2424C148.145 20.6404 148.139 21.004 148.032 21.2894C148.387 21.004 148.512 20.4621 148.302 19.8285H148.302Z" fill="#629948"/>
<path d="M69.6782 12.3311L70.5682 15.0804L68.9788 15.0706L66.7285 7.99609L68.8628 8.02739C69.8539 8.04327 70.6433 8.2217 71.2326 8.56978C71.8222 8.91787 72.2322 9.44136 72.4674 10.1406C72.6053 10.5506 72.6088 10.9146 72.4802 11.2339C72.3487 11.5541 72.0977 11.8043 71.7216 11.983C73.3607 13.5881 74.4357 14.6321 74.9312 15.1049L73.1885 15.0955L70.5148 12.3407L69.678 12.3313L69.6782 12.3311ZM69.2827 11.1119L69.7876 11.118C70.2827 11.1243 70.6214 11.0489 70.8032 10.8957C70.9846 10.7419 71.0227 10.4973 70.9098 10.1625C70.8001 9.83284 70.6055 9.59483 70.3205 9.45376C70.0352 9.31283 69.6432 9.23722 69.142 9.23117L68.6684 9.22513L69.2826 11.1119H69.2827Z" fill="white"/>
<path d="M73.3704 8.35003C73.2109 7.88295 73.4052 7.65764 73.9506 7.66369C74.4955 7.67004 74.8471 7.9082 75.0099 8.37196C75.0886 8.59454 75.0787 8.76737 74.985 8.8894C74.8909 9.01143 74.706 9.07115 74.4332 9.06813C73.8848 9.0583 73.5307 8.82014 73.3704 8.35003ZM77.2761 15.1177L75.7401 15.1084L73.9007 9.71379L75.411 9.7327L77.2761 15.1177Z" fill="white"/>
<path d="M80.2095 15.1333L76.2036 9.74219L77.7771 9.76109L79.9213 12.8043C80.1783 13.1932 80.3853 13.563 80.5392 13.9106H80.5668C80.4727 13.6003 80.4133 13.2341 80.3944 12.8074L80.357 9.79209L81.9119 9.81099L81.7675 15.1398L80.2096 15.1334L80.2095 15.1333Z" fill="white"/>
<path d="M87.193 15.2679C86.3094 15.2611 85.5285 15.0169 84.852 14.5342C84.1747 14.0512 83.6765 13.3712 83.3538 12.4997C83.0242 11.6096 82.9997 10.9259 83.2752 10.4467C83.5512 9.97008 84.0873 9.74145 84.886 9.75128C85.648 9.76035 86.3215 9.97658 86.9042 10.4028C87.4908 10.8291 87.9303 11.415 88.2184 12.1644L88.4909 12.8667L84.9864 12.8349C85.1588 13.2491 85.4067 13.5749 85.7299 13.8096C86.052 14.0447 86.4254 14.1642 86.848 14.1672C87.1776 14.1702 87.4746 14.1389 87.7422 14.0732C88.0091 14.0074 88.2721 13.9038 88.5319 13.7594L88.9679 14.8944C88.757 15.0232 88.516 15.117 88.2438 15.1764C87.9709 15.2422 87.6198 15.2704 87.193 15.2679ZM85.281 10.7695C84.968 10.7665 84.758 10.8603 84.6544 11.0518C84.5482 11.2427 84.5513 11.5156 84.6577 11.8731L86.7353 11.8945C86.5921 11.5374 86.3933 11.2644 86.1367 11.0673C85.8771 10.873 85.5917 10.7724 85.281 10.7694V10.7695Z" fill="white"/>
<path d="M91.453 9.83602C91.6507 9.83934 91.817 9.85492 91.9576 9.88319L92.3836 11.212C92.2555 11.181 92.105 11.1618 91.9357 11.1618C91.4716 11.1558 91.1556 11.2687 90.9893 11.5005C90.8226 11.7326 90.8226 12.0618 90.9893 12.4851L92.0604 15.1991L90.5852 15.1897L88.5156 9.8962L89.6193 9.90829L90.1801 10.7862H90.2523C90.3025 10.4948 90.431 10.2624 90.6416 10.087C90.8544 9.91812 91.1243 9.83299 91.453 9.83602Z" fill="white"/>
<path d="M98.0978 12.588L99.2109 15.2401L97.7379 15.2302L94.9082 8.40674L96.8943 8.43501C97.8161 8.44787 98.5679 8.62282 99.1519 8.95805C99.7351 9.29373 100.17 9.79817 100.462 10.4756C100.632 10.8705 100.675 11.2247 100.587 11.5316C100.499 11.8389 100.289 12.0801 99.9603 12.2528C101.65 13.8013 102.753 14.8073 103.264 15.262L101.646 15.2522L98.879 12.5943L98.0977 12.588H98.0978ZM97.6068 11.4129L98.077 11.419C98.5372 11.4253 98.8412 11.3532 98.998 11.2028C99.1517 11.0553 99.1583 10.8172 99.0237 10.494C98.8888 10.1742 98.6819 9.94908 98.4027 9.81102C98.1237 9.67312 97.7499 9.60084 97.2836 9.59479L96.8447 9.58844L97.6067 11.4128L97.6068 11.4129Z" fill="white"/>
<path d="M107.564 12.676C107.946 13.5192 108.025 14.1837 107.796 14.6599C107.567 15.1398 107.056 15.378 106.257 15.3746C105.756 15.3716 105.263 15.2587 104.784 15.0334C104.305 14.8073 103.869 14.4876 103.483 14.0741C103.097 13.6607 102.787 13.1776 102.549 12.6291C102.179 11.7795 102.116 11.1275 102.355 10.6672C102.59 10.2092 103.107 9.98387 103.901 9.99294C104.393 9.99929 104.875 10.1124 105.345 10.3286C105.815 10.5449 106.241 10.8551 106.624 11.2561C107.006 11.6605 107.319 12.1341 107.564 12.6762V12.676ZM103.993 12.6412C104.22 13.1556 104.477 13.5471 104.762 13.814C105.048 14.0804 105.382 14.2153 105.762 14.218C106.138 14.2211 106.35 14.0895 106.398 13.8294C106.445 13.5663 106.354 13.1774 106.123 12.6604C105.894 12.1495 105.639 11.7639 105.361 11.5069C105.082 11.2495 104.755 11.1213 104.377 11.1149C104.003 11.1119 103.787 11.2339 103.73 11.4849C103.68 11.742 103.768 12.1271 103.993 12.6411V12.6412Z" fill="white"/>
<path d="M113.169 15.3178L112.57 14.606H112.532C112.438 14.9073 112.295 15.1137 112.097 15.2296C111.903 15.3461 111.606 15.402 111.204 15.399C110.708 15.3964 110.254 15.2485 109.84 14.9602C109.428 14.6718 109.098 14.2613 108.859 13.7349C108.608 13.1835 108.615 12.7787 108.878 12.5248C109.138 12.2682 109.643 12.1298 110.394 12.1114L111.264 12.0925L111.16 11.8669C110.919 11.3494 110.537 11.0894 110.01 11.083C109.605 11.0804 109.185 11.196 108.75 11.4371L107.86 10.4907C108.305 10.1933 108.881 10.0489 109.59 10.0554C110.267 10.0645 110.856 10.2179 111.355 10.5191C111.853 10.8201 112.245 11.2713 112.53 11.8794L114.147 15.3211L113.17 15.3181L113.169 15.3178ZM111.64 12.9107L111.11 12.9228C110.711 12.9326 110.444 13.0047 110.308 13.1363C110.173 13.2712 110.169 13.4776 110.295 13.7538C110.48 14.1548 110.796 14.3555 111.248 14.3582C111.57 14.362 111.787 14.2679 111.89 14.0797C111.997 13.8919 111.975 13.6439 111.831 13.3306L111.64 12.9107Z" fill="white"/>
<path d="M117.221 15.4342C116.626 15.4309 116.046 15.1897 115.478 14.7131C114.914 14.2369 114.435 13.5814 114.043 12.7507C113.645 11.9109 113.51 11.2649 113.633 10.8046C113.755 10.3466 114.115 10.1213 114.714 10.1304C115.341 10.1397 115.936 10.3904 116.503 10.886H116.547C116.297 10.5099 116.103 10.1742 115.961 9.88283L115.19 8.28711L116.538 8.30979L119.982 15.3556L118.932 15.3495L118.339 14.6753H118.28C118.218 15.1832 117.863 15.4372 117.221 15.4342H117.221ZM117.161 14.309C117.513 14.3116 117.72 14.2085 117.783 14.0013C117.845 13.7946 117.764 13.4405 117.535 12.942L117.463 12.7915C117.196 12.2431 116.927 11.8541 116.645 11.616C116.366 11.3778 116.04 11.2584 115.67 11.2528C115.366 11.2495 115.193 11.3778 115.15 11.6379C115.106 11.898 115.202 12.2804 115.444 12.782C115.685 13.2869 115.952 13.6664 116.247 13.923C116.538 14.1766 116.845 14.3056 117.162 14.3089L117.161 14.309Z" fill="white"/>
<path d="M141.961 15.4525L140.448 15.4434L137.736 11.9863C137.639 11.8636 137.451 11.6129 137.173 11.2338C136.893 10.8547 136.714 10.6003 136.632 10.4718C136.702 10.6286 136.795 10.8857 136.915 11.2372C137.038 11.5881 137.118 11.8416 137.163 11.9921L138.159 15.4341L136.632 15.4242L131.586 8.87354L132.893 8.89198L135.56 12.4282C136.053 13.0896 136.458 13.6663 136.78 14.152C136.705 13.9796 136.604 13.7166 136.476 13.3555C136.346 12.9984 136.26 12.7224 136.21 12.5248L135.191 8.92026L136.431 8.93916L139.287 12.5531C139.415 12.7164 139.6 12.9672 139.843 13.3052C140.086 13.6439 140.287 13.9323 140.45 14.1768C140.353 13.9416 140.241 13.6537 140.111 13.3052C139.986 12.9609 139.889 12.6789 139.826 12.4654L138.702 8.97046L139.984 8.98936L141.961 15.4524L141.961 15.4525Z" fill="white"/>
<path fill-rule="evenodd" clip-rule="evenodd" d="M140.732 18.6522L136.204 4.89321C135.935 4.07456 135.216 3.666 134.596 3.97855L134.502 4.02618C135.028 3.97144 135.555 4.35959 135.774 5.03384L140.302 18.7929C140.573 19.6179 140.288 20.5386 139.667 20.8478L81.7397 49.732C81.8482 49.7212 81.9545 49.6985 82.0588 49.6474L140.096 20.7067C140.717 20.398 141.002 19.4769 140.732 18.6522Z" fill="#629948"/>
<path fill-rule="evenodd" clip-rule="evenodd" d="M139.809 20.8194L81.7749 49.7573C81.1763 50.0552 80.4842 49.6356 80.2344 48.8181L76.0421 35.1972C75.7915 34.3883 76.0741 33.4885 76.6699 33.1873L134.312 4.08788C134.931 3.77564 135.65 4.18723 135.92 5.00285L140.447 18.7619C140.717 19.5861 140.434 20.5073 139.809 20.8194Z" fill="#65A24B"/>
<path fill-rule="evenodd" clip-rule="evenodd" d="M139.03 18.2065L135.218 6.6083C134.993 5.91848 134.386 5.57267 133.866 5.83456L77.869 34.076C77.3664 34.3293 77.129 35.0882 77.3394 35.7738L80.8782 47.2609C81.0914 47.9503 81.6724 48.3044 82.178 48.0513L138.499 19.9411C139.021 19.6795 139.26 18.9021 139.03 18.2067L139.03 18.2065ZM137.741 19.3793L82.4019 47.0152C81.9533 47.2405 81.4401 46.9249 81.2506 46.3163L78.1144 36.1323C77.9276 35.5269 78.1371 34.8552 78.5834 34.6296L133.642 6.87912C134.104 6.6455 134.641 6.952 134.84 7.5647L138.218 17.8432C138.419 18.4585 138.207 19.1486 137.741 19.3792V19.3793Z" fill="#79BB5D"/>
<path fill-rule="evenodd" clip-rule="evenodd" d="M80.6697 49.0087L76.4797 35.3847C76.2299 34.5758 76.5122 33.676 77.1082 33.3748L134.748 4.27839C134.942 4.1798 135.147 4.1612 135.348 4.19643C135.036 3.97113 134.659 3.91337 134.312 4.08801L76.6699 33.1844C76.0743 33.4853 75.795 34.3852 76.0421 35.1943L80.2316 48.8183C80.4078 49.3932 80.8028 49.7642 81.229 49.8327C80.9871 49.6558 80.7826 49.3743 80.6697 49.0088V49.0087Z" fill="#629948"/>
<path d="M85.1932 42.055L84.155 42.5418L81.8818 35.5482L84.6609 34.2314L85.0624 35.4136L83.2845 36.2542L83.8722 38.0362L85.537 37.249L85.9426 38.4558L84.2697 39.2453L85.1932 42.055Z" fill="white"/>
<path d="M90.4226 36.4423C90.7333 37.3142 90.8142 38.0766 90.6633 38.7263C90.5129 39.3794 90.1418 39.8447 89.5556 40.1217C89.1889 40.2956 88.8242 40.3326 88.4632 40.2331C88.1045 40.1368 87.7757 39.9077 87.4797 39.5531C87.1841 39.1978 86.9423 38.7387 86.7488 38.1755C86.4509 37.3039 86.3814 36.554 86.5391 35.9224C86.6948 35.2939 87.0626 34.8445 87.64 34.5724C88.0014 34.402 88.3563 34.3612 88.7082 34.4515C89.062 34.538 89.3851 34.7542 89.6788 35.0944C89.9755 35.4346 90.2227 35.8813 90.4226 36.4421V36.4423ZM87.8018 37.6766C87.9855 38.2069 88.1862 38.5818 88.4042 38.7972C88.6223 39.0123 88.8728 39.0558 89.1523 38.9243C89.4293 38.7927 89.5823 38.5644 89.6055 38.2344C89.6322 37.9045 89.5503 37.4763 89.3643 36.9434C89.1768 36.4166 88.9787 36.0507 88.7656 35.8477C88.5524 35.6448 88.3072 35.6078 88.0309 35.7363C87.7577 35.8651 87.6049 36.0901 87.5752 36.4075C87.5411 36.722 87.6183 37.1442 87.802 37.6766H87.8018Z" fill="white"/>
<path d="M92.3912 32.3207C92.5296 32.2531 92.6508 32.2126 92.7537 32.1982L93.1751 33.5724C93.0803 33.5811 92.9702 33.6133 92.8527 33.6695C92.5223 33.826 92.3103 34.0637 92.2125 34.3846C92.1134 34.7085 92.1426 35.0835 92.3005 35.509L93.3009 38.2427L92.2539 38.7355L90.3301 33.4105L91.1053 33.0435L91.5767 33.8519L91.6284 33.8266C91.6362 33.4778 91.7093 33.1678 91.8426 32.8938C91.9745 32.6228 92.1571 32.4328 92.3911 32.3204L92.3912 32.3207Z" fill="white"/>
<path d="M95.5262 30.8393C95.6668 30.772 95.7885 30.7312 95.8913 30.7173L96.3294 32.0829C96.2353 32.0915 96.1252 32.1237 96.0035 32.1796C95.6746 32.3364 95.4601 32.5738 95.3671 32.8952C95.27 33.2165 95.3058 33.5913 95.4661 34.0165L96.5036 36.7397L95.4518 37.2322L93.4565 31.9291L94.2356 31.5594L94.7205 32.3621L94.7719 32.3364C94.7772 31.9879 94.8456 31.6806 94.9779 31.4066C95.1097 31.1413 95.2919 30.9486 95.5263 30.8393H95.5262Z" fill="white"/>
<path d="M100.119 34.9857C99.4946 35.2798 98.9144 35.2687 98.3755 34.9554C97.8404 34.6424 97.4042 34.0543 97.0674 33.1934C96.7234 32.3112 96.6185 31.5598 96.7503 30.9332C96.8814 30.3099 97.228 29.8651 97.7863 29.6021C98.3226 29.3504 98.8234 29.3579 99.2887 29.6346C99.7565 29.9114 100.14 30.4155 100.444 31.1597L100.725 31.8544L98.2517 33.0193C98.4256 33.4237 98.6388 33.7031 98.8957 33.8587C99.153 34.0117 99.4323 34.0197 99.731 33.8799C99.9623 33.7707 100.169 33.6331 100.35 33.4702C100.532 33.3077 100.703 33.0987 100.871 32.8474L101.327 33.9741C101.194 34.1876 101.034 34.3784 100.85 34.5379C100.665 34.6914 100.423 34.8429 100.119 34.9858L100.119 34.9857ZM98.1956 30.5991C97.9745 30.7029 97.841 30.8799 97.7923 31.1297C97.7436 31.3799 97.7776 31.6849 97.8989 32.0484L99.3608 31.3593C99.2141 31.0105 99.0392 30.7693 98.8335 30.6397C98.6271 30.5071 98.4156 30.4953 98.1956 30.5989V30.5991Z" fill="white"/>
<path d="M104.898 30.9064C105.128 31.4473 105.165 31.9285 105.01 32.3442C104.853 32.7603 104.497 33.0982 103.948 33.3589C103.666 33.49 103.414 33.5774 103.194 33.6201C102.974 33.6601 102.754 33.6722 102.538 33.6518L102.046 32.4508C102.295 32.4851 102.557 32.4863 102.839 32.4579C103.119 32.4266 103.354 32.3694 103.54 32.2825C103.924 32.1033 104.052 31.8592 103.926 31.5568C103.879 31.4426 103.815 31.364 103.734 31.3153C103.653 31.2692 103.532 31.2281 103.37 31.1974C103.208 31.1668 102.999 31.1404 102.744 31.118C102.381 31.0882 102.098 31.0345 101.9 30.9536C101.703 30.8758 101.533 30.7568 101.395 30.6025C101.258 30.448 101.133 30.2336 101.023 29.9649C100.833 29.5049 100.82 29.0885 100.979 28.7119C101.137 28.3385 101.456 28.0385 101.936 27.8121C102.393 27.5963 102.894 27.5192 103.443 27.5835L103.556 28.7479C103.32 28.7265 103.101 28.7212 102.904 28.7283C102.708 28.7354 102.523 28.78 102.35 28.8609C102.043 29.0068 101.936 29.1905 102.029 29.4161C102.083 29.5427 102.176 29.6281 102.316 29.6765C102.454 29.7214 102.727 29.7567 103.141 29.7824C103.511 29.8058 103.795 29.8572 103.996 29.9346C104.198 30.0125 104.371 30.1289 104.517 30.2835C104.66 30.435 104.787 30.6436 104.898 30.9063L104.898 30.9064Z" fill="white"/>
<path d="M107.577 30.2627C107.763 30.1765 107.96 30.0174 108.171 29.783L108.643 30.855C108.449 31.1423 108.158 31.3765 107.771 31.5584C107.345 31.7602 106.971 31.7572 106.653 31.5535C106.335 31.3524 106.048 30.9587 105.801 30.3777L104.725 27.8655L104.225 28.101L103.971 27.5076L104.343 26.7691L104.182 25.554L104.846 25.2402L105.314 26.322L106.384 25.8148L106.843 26.8629L105.768 27.3697L106.855 29.8793C106.944 30.0835 107.052 30.215 107.177 30.2717C107.306 30.3315 107.438 30.3277 107.576 30.2631L107.577 30.2627Z" fill="white"/>
<path d="M113.583 26.3964C113.871 27.0124 113.931 27.5767 113.764 28.0889C113.597 28.6051 113.215 29.0028 112.622 29.2795C112.076 29.5368 111.53 29.6246 110.985 29.5452L110.374 28.1906C110.81 28.2352 111.166 28.2436 111.445 28.2151C111.722 28.1868 111.96 28.1267 112.159 28.0341C112.395 27.9222 112.55 27.7763 112.622 27.5943C112.692 27.4117 112.673 27.2016 112.56 26.9631C112.499 26.83 112.418 26.7234 112.312 26.6463C112.211 26.5697 112.084 26.5065 111.93 26.4641C111.78 26.4188 111.488 26.3708 111.064 26.3141C110.667 26.2647 110.35 26.1883 110.116 26.085C109.882 25.9784 109.663 25.8299 109.466 25.6399C109.269 25.4498 109.098 25.1973 108.956 24.8813C108.692 24.294 108.633 23.7632 108.783 23.2893C108.931 22.8157 109.266 22.4555 109.794 22.2027C110.054 22.0799 110.32 22.0021 110.593 21.9736C110.865 21.9419 111.164 21.9389 111.49 21.9643L111.653 23.2096C111.318 23.19 111.051 23.1945 110.85 23.2202C110.65 23.2452 110.465 23.2988 110.296 23.3775C110.095 23.4723 109.968 23.6073 109.917 23.7815C109.865 23.9549 109.886 24.1414 109.978 24.342C110.033 24.466 110.104 24.5661 110.19 24.6364C110.275 24.7093 110.387 24.7657 110.52 24.8073C110.655 24.8492 110.951 24.8973 111.412 24.9555C112.021 25.0314 112.486 25.1803 112.803 25.3996C113.113 25.6244 113.376 25.9541 113.583 26.3967L113.583 26.3964Z" fill="white"/>
<path d="M117.387 26.9279L116.295 27.4401L113.66 21.9019L112.297 22.5459L111.753 21.3882L115.529 19.5986L116.091 20.7477L114.726 21.3947L117.387 26.9279Z" fill="white"/>
<path d="M119.014 25.3375C118.886 25.0774 118.843 24.8541 118.883 24.6734C118.923 24.4897 119.043 24.3518 119.246 24.2565C119.44 24.1643 119.623 24.1624 119.799 24.2482C119.973 24.3344 120.124 24.5045 120.25 24.7584C120.372 25.0033 120.414 25.2236 120.376 25.4164C120.338 25.6088 120.222 25.7506 120.029 25.8427C119.832 25.9352 119.643 25.9364 119.467 25.8506C119.287 25.7613 119.139 25.5912 119.014 25.3373V25.3375Z" fill="white"/>
<path d="M134.301 18.5866L133.04 19.1799L130.415 16.0228C130.322 15.9129 130.14 15.6808 129.866 15.3297C129.595 14.9786 129.42 14.7412 129.339 14.6161C129.411 14.7835 129.518 15.0549 129.657 15.434C129.793 15.8161 129.89 16.0901 129.943 16.256L131.144 20.07L129.888 20.6607L125.068 14.6917L126.121 14.1937L128.681 17.4297C129.155 18.0409 129.551 18.5821 129.869 19.0504C129.791 18.8712 129.677 18.5874 129.533 18.2019C129.387 17.8163 129.283 17.5144 129.223 17.2938L127.991 13.3086L129.005 12.8267L131.757 16.0975C131.88 16.2457 132.063 16.4809 132.301 16.7967C132.54 17.1131 132.743 17.3886 132.906 17.6225C132.798 17.3753 132.672 17.0639 132.527 16.6871C132.385 16.311 132.275 16.0091 132.196 15.7721L130.876 11.9415L131.937 11.4404L134.301 18.5868L134.301 18.5866Z" fill="white"/>
<path fill-rule="evenodd" clip-rule="evenodd" d="M129.004 73.6372L128.634 72.9032L128.302 72.2353C128.013 71.5142 127.389 70.6456 126.977 70.0481C126.774 69.7547 125.751 68.2751 125.329 68.1451C125.264 67.8386 124.452 67.1492 124.194 66.9228L122.754 65.902C122.659 65.7815 122.526 65.7213 122.379 65.6276C122.298 65.5754 122.23 65.5187 122.149 65.4817C121.929 65.3808 122.054 65.4257 121.814 65.4073V65.4076C121.652 65.2307 121.027 64.979 120.607 64.9911C120.387 65.1575 120.511 64.9654 120.56 65.2115C120.563 65.2273 121.282 66.2678 121.31 67.1817C121.393 67.2319 122.284 68.5325 122.867 69.0957C123.461 69.6694 124.129 70.2685 124.423 71.1567L124.57 71.3891C125.004 72.0301 125.32 73.7158 125.544 74.5983C125.689 75.1651 125.81 75.7549 126.007 76.2945C126.184 76.7779 126.546 77.3294 126.543 77.8537C126.713 77.958 126.607 77.8095 126.69 78.0982C126.712 78.1763 126.736 78.3809 126.751 78.4747C126.797 78.7642 126.85 79.0269 126.87 79.3246L127.171 81.0436C127.061 81.5742 126.698 82.6726 126.765 83.092C127.232 86.1186 127.465 89.0572 128.021 90.778C128.6 92.5736 128.597 96.1446 129.57 97.7663C129.805 97.8059 129.904 97.9636 130.163 98.0842C130.422 98.2051 130.533 98.3125 130.779 98.4471C131.114 98.6303 131.709 98.7853 132.164 98.8831C132.488 98.769 152.761 96.7261 152.945 96.4715C157.639 90.2273 144.679 87.7373 145.618 83.7912H145.619C145.886 83.5429 145.974 83.4457 146.226 83.1929C146.142 83.1245 146.324 83.03 146.12 83.154C146.123 83.0701 146.076 82.9854 146.169 82.9231L142.85 83.5804C141.476 83.8836 140.099 84.1886 138.782 84.4969C138.1 84.6567 137.466 84.7812 136.791 84.8873C136.277 84.9682 135.153 85.0056 134.94 85.0676C134.921 85.0559 134.919 85.0325 134.884 85.0358C134.849 85.0403 134.84 85.0124 134.828 85.006C134.752 84.9697 134.745 84.9667 134.662 84.9316C133.943 84.6236 133.818 84.1833 133.418 83.4516L131.323 79.1187C131.124 78.6531 130.638 77.1318 130.287 76.9246C130.282 76.4079 129.267 74.1826 129.003 73.6372H129.004Z" fill="#8DBAB1"/>
<path d="M127.291 78.7813C127.316 78.9416 127.339 79.1014 127.351 79.2692L127.664 81.052L127.645 81.1405C127.613 81.2977 127.556 81.5102 127.496 81.7396C127.382 82.1711 127.249 82.678 127.24 82.929C127.954 85.824 127.827 88.6005 128.482 90.6305C128.724 91.3834 128.867 92.407 129.015 93.4765C129.214 94.9157 129.426 96.4464 129.899 97.3618C130.005 97.4079 130.091 97.4684 130.182 97.5327C130.238 97.5715 130.299 97.6151 130.366 97.6464C130.541 97.7276 130.659 97.8044 130.781 97.8841L131.012 98.0242C131.127 98.0873 131.295 98.1505 131.479 98.2087C131.718 98.2836 131.977 98.3481 132.205 98.398C132.669 98.3637 133.786 98.3909 135.045 98.423C135.281 98.429 135.523 98.4361 135.764 98.4449C135.044 98.671 134.417 98.9702 134.092 99.3637C133.102 99.3399 132.362 99.3248 132.324 99.3384L132.197 99.383L132.064 99.3547C131.795 99.2973 131.477 99.2191 131.19 99.1287C130.951 99.0531 130.725 98.9658 130.548 98.8698C130.428 98.8048 130.339 98.7473 130.256 98.6926C130.169 98.6351 130.084 98.5796 129.96 98.5222C129.815 98.4546 129.716 98.3846 129.626 98.3215C129.571 98.2827 129.521 98.2479 129.491 98.2429L129.27 98.2055L129.156 98.0155C128.522 96.9584 128.283 95.2291 128.058 93.6082C127.916 92.5854 127.78 91.6069 127.561 90.9258C127.55 90.8926 126.372 83.6956 126.288 83.1668C126.225 82.7699 126.409 82.0749 126.562 81.4932L126.679 81.0325C126.598 80.5707 126.409 79.7864 126.388 79.3559C126.374 79.1424 126.341 78.9516 126.309 78.7553C126.25 78.4208 126.334 78.2905 126.059 78.1214L126.061 77.8504C126.062 77.5953 125.909 77.2657 125.766 76.9544C125.69 76.7888 125.615 76.627 125.554 76.4601C125.395 76.0258 125.287 75.5768 125.179 75.133L124.921 74.0616C124.722 73.2006 124.463 72.0901 124.172 71.6598C124.106 71.571 124.043 71.4587 123.983 71.3631L123.965 71.3083C123.728 70.5928 123.172 70.0585 122.653 69.5596L122.533 69.4436C122.12 69.0444 121.595 68.3465 121.255 67.8933C121.125 67.7201 121.111 67.642 121.073 67.6049C120.939 67.0773 120.766 66.4188 120.679 65.5258C120.667 65.4086 120.649 65.2979 120.625 65.1943L120.689 65.2491C120.765 65.5163 120.885 65.7782 121.029 66.0209C121.453 67.2809 123.363 68.9325 124.435 70.6318C124.494 70.7248 124.553 70.8148 124.611 70.9017C124.663 71.0136 124.727 71.127 124.805 71.242L125.639 74.0811C125.811 74.9386 126.344 77.3844 127.291 78.7817L127.291 78.7813Z" fill="#1E5661"/>
<path fill-rule="evenodd" clip-rule="evenodd" d="M129.002 78.3169C129.153 78.9042 129.793 80.3691 130.061 81.4334C130.639 83.7265 131.478 88.2155 131.406 90.4381C131.386 91.0584 131.234 91.3838 131.229 91.9605C132.536 90.6796 132.331 87.9772 132 85.5746C131.429 81.4319 129.916 80.3468 129.514 79.3233C129.216 78.5639 129.398 79.0758 129.543 78.9212C129.345 78.615 129.264 78.5109 129.059 78.2186C128.977 78.2896 128.916 78.0943 129.002 78.3169H129.002Z" fill="#3B6B74"/>
<path fill-rule="evenodd" clip-rule="evenodd" d="M221.618 153.198C220.533 147.306 219.627 141.186 218.077 135.08C212.927 114.792 202.343 94.8497 195.005 88.0605C194.938 87.8776 194.018 86.9811 193.813 86.7657C193.124 86.0499 190.377 83.0599 190.004 82.9011C189.985 82.6702 188.513 80.916 188.141 80.3257C187.976 79.9462 187.755 79.5781 187.598 79.2187C187.411 78.792 187.334 78.4888 187.136 78.0712C185.976 75.6251 185.317 73.8907 183.191 71.5391C181.29 69.4365 177.231 66.5243 176.475 63.3987C176.016 61.5043 177.026 61.4696 177.491 57.7468C178.045 53.3251 178.001 51.2963 177.078 47.1951C176.837 46.1201 175.756 43.191 175.178 42.5644C174.877 41.5874 172.862 39.3987 172.181 38.7641C169.353 36.1304 165.975 34.181 162.284 32.6688C157.737 30.8077 156.146 31.3425 151.676 31.2216C149.537 31.163 147.953 30.0768 145.785 29.1008C145.492 28.7233 144.862 28.5272 144.373 28.4806C143.888 28.4345 143.47 28.4829 143.121 28.7664C142.664 28.7724 142.537 28.9821 142.373 29.1545C142.249 29.28 142.142 29.3912 142.048 29.4928C142.057 29.4512 142.067 29.4063 142.076 29.3594C141.13 30.2884 140.831 30.8732 140.622 32.2023C140.587 32.2873 140.552 32.3724 140.516 32.4574C140.539 32.4574 140.562 32.4574 140.584 32.4574C140.567 32.5802 140.55 32.7092 140.533 32.8445C140.512 33.2331 140.648 34.0268 140.79 34.6499C140.799 34.8185 140.854 34.9572 140.914 35.1427C140.93 35.2009 140.946 35.2546 140.961 35.3015C141.065 35.517 141.179 35.7207 141.222 35.9599C141.223 36.1696 141.251 36.3114 141.242 36.568C141.244 36.6429 141.247 36.718 141.249 36.7929C141.315 37.0651 141.585 37.5601 141.718 37.8583C141.721 37.8707 141.725 37.8836 141.729 37.8961C141.727 38.0352 141.681 37.8568 141.763 38.1539C141.795 38.2699 141.818 38.2971 141.86 38.4291C141.997 38.8642 141.908 38.7489 142.205 39.0452C142.235 39.391 142.481 39.8181 142.686 40.0879C142.822 40.4496 143.774 42.4456 144.083 42.6867C144.088 42.7147 144.111 42.7309 144.104 42.7694C144.219 42.9943 144.334 43.2196 144.45 43.4444C144.842 44.0605 145.528 45.1952 146.002 45.668C146.022 45.9719 147.022 46.9731 147.501 48.2875C147.886 49.3431 148.125 51.081 148.193 51.2367C148.139 51.7643 148.084 52.292 148.03 52.8196V52.8199C147.875 53.5037 147.72 54.1873 147.565 54.8711C147.42 55.266 147.414 55.4127 147.317 55.8064C147.269 56.0018 146.882 57.7749 146.837 57.7729C144.506 64.2302 144.249 70.9404 144.345 77.7692C144.356 78.5972 144.377 79.4088 144.387 80.2388C144.41 80.9531 144.434 81.6674 144.458 82.3817C144.518 82.692 144.447 82.4709 144.559 82.6887C144.411 83.1373 144.617 84.8263 144.673 85.4088C144.718 85.8751 144.793 86.3046 144.849 86.7399C145.014 88.0238 145.054 88.1352 145.232 89.2196C145.134 89.5064 145.293 89.9913 145.382 90.2635C145.485 90.7999 145.584 91.3294 145.682 91.8536C144.55 92.4855 143.417 93.1175 142.284 93.7495C139.45 95.8604 136.615 97.9713 133.78 100.082C133.215 100.919 132.649 101.755 132.084 102.592C130.598 112.716 136.01 129.86 143.121 137.33C144.817 138.019 145.616 137.533 144.908 135.069C144.719 133.946 144.53 132.822 144.342 131.699C144.515 131.405 144.689 131.111 144.863 130.817C144.591 129.347 144.32 127.877 144.049 126.407C143.759 124.792 145.621 124.969 145.726 122.653C145.756 121.979 147.135 119.755 147.816 119.185C148.201 118.862 148.928 117.457 150.092 116.597C150.644 116.19 151.963 114.42 153.251 112.539C161.067 123.346 186.046 145.945 199.602 160.411C201.855 162.815 204.044 164.988 205.756 166.845C210.377 173.02 211.436 178.609 212.26 183.531C210.818 182.513 208.653 180.555 208.355 180.147C207.788 179.448 206.372 179.476 205.294 179.787C205.111 179.84 204.932 179.923 204.762 180.027C204.197 180.148 203.848 180.36 203.577 180.653C203.449 180.757 203.35 180.86 203.292 180.95C202.758 181.769 201.266 181.407 200.938 182.256C200.762 182.712 200.512 182.686 200.361 182.929L200.348 182.939C200.248 182.98 199.642 182.765 199.398 182.765C199.349 182.763 199.318 182.777 199.262 182.817C198.855 182.818 198.423 182.986 198.329 183.262L198.307 183.357C198.377 184.03 198.027 183.938 196.887 184.083C195.877 184.212 196.886 184.93 195.927 185.119C195.526 185.329 195.162 185.185 194.819 185.224C194.208 185.291 194.619 185.362 193.757 185.266C193.407 185.295 192.776 185.213 192.432 185.193C192.056 185.17 191.476 185.159 191.178 185.096C190.363 185.099 189.377 185.289 188.927 185.686C188.372 186.174 188.09 186.421 188.424 187.096C188.614 187.143 189.542 187.899 189.779 188.057C190.045 188.235 190.256 188.326 190.518 188.48L191.263 188.911C191.493 188.914 196.248 190.341 197.074 190.579C200.448 191.544 208.723 194.408 208.67 195.109C209.876 195.755 213.1 195.591 216.831 195.043C218.668 197.219 221.45 199.141 225.867 200.792C226.654 201.569 228.202 201.906 229.089 202.677C229.924 203.816 231.892 204.279 233.01 205.392C234.202 206.123 238.128 210.294 238.666 210.942C239.276 211.678 240.454 211.359 241.24 210.771C241.374 210.672 241.495 210.534 241.603 210.372C242.027 210.117 242.251 209.79 242.387 209.364C242.46 209.207 242.511 209.058 242.532 208.931C242.69 207.791 244.002 208.043 243.981 206.886C243.783 206.279 244.025 206.302 244.088 206.178C244.124 206.106 244.054 205.865 244.349 205.85C244.359 205.84 245.921 206.105 245.761 204.805C245.711 204.397 245.457 204.148 246.819 203.703C247.82 203.219 245.93 202.4 248.186 201.667C248.858 201.449 249.394 201.424 250.084 201.33C250.393 201.276 250.865 201.165 251.121 201.176C251.812 201.185 252.595 200.967 252.87 200.514C253.127 199.939 253.272 199.642 252.71 198.885C252.47 198.35 251.549 197.991 251.299 197.838C251.075 197.668 250.908 197.588 250.693 197.444C249.252 196.425 246.436 195.61 244.721 194.967C241.636 193.933 233.934 190.808 233.787 189.971C232.154 187.953 229.755 185.364 228.706 182.855C226.883 178.498 222.564 155.843 221.617 153.197L221.618 153.198Z" fill="#8DBAB1"/>
<path fill-rule="evenodd" clip-rule="evenodd" d="M212.696 183.806C210.872 182.744 209.274 180.628 207.723 179.728C207.229 179.441 205.524 179.566 204.996 179.931C203.76 180.786 204.207 180.314 203.532 181.054C202.891 181.757 201.703 181.741 201.553 182.059C201.498 182.176 201.339 182.587 201.335 182.631C201.127 182.999 201.401 182.889 200.719 183.141C200.552 183.203 200.512 183.258 200.347 183.197C200.186 183.138 199.969 183.177 200.193 182.996C200.265 182.892 200.512 182.971 200.542 182.827C200.619 182.454 200.95 182.666 200.98 182.217C201.056 181.057 202.869 181.317 203.293 180.491C203.486 180.112 204.403 179.645 205.201 179.382C206.302 179.02 207.787 178.935 208.334 179.592C208.673 180 210.974 181.991 212.537 183.071C212.57 183.269 212.563 183.233 212.695 183.806H212.696Z" fill="#3B6B74"/>
<path fill-rule="evenodd" clip-rule="evenodd" d="M213.148 186.298C212.923 186.191 212.47 186.115 212.313 185.985C211.898 186.019 211.293 185.628 210.962 185.47C210.735 185.361 210.56 185.289 210.328 185.161C210.103 185.037 209.929 184.951 209.724 184.907C209.225 184.438 204.384 180.87 204.038 180.438C206.551 180.33 208.303 182.71 209.082 183.242L210.524 184.241C211.059 184.664 211.799 184.888 212.353 185.081C212.473 185.453 212.723 185.862 213.148 186.298L213.148 186.298ZM198.246 187.458L196.51 186.794L196.451 186.729C198.855 187.379 202.149 188.653 203.658 189.376C204.328 189.44 204.882 189.514 205.596 189.585C206.611 190.037 208.507 190.464 209.13 190.707C207.795 191.018 207.987 190.891 207.038 190.589L203.203 189.866L198.246 187.458H198.246ZM200.767 185.403C200.798 185.378 200.664 185.288 201.26 185.37C201.473 185.4 201.575 185.426 201.77 185.472C202.574 185.666 203.532 186.279 204.364 186.566C204.649 186.722 204.6 186.661 204.905 186.884L206.607 187.847C206.984 188.063 207.357 188.301 207.72 188.507C208.493 188.743 208.801 188.887 209.746 189.114C210.628 189.326 211.143 189.398 211.857 189.777L210.862 189.806C210.37 189.768 206.28 188.454 205.136 188.156L200.767 185.403ZM212.899 188.5L212.01 188.183C211.655 187.766 207.964 186.839 206.827 186.122L203.088 183.802C202.751 183.606 202.114 183.303 201.878 183.111C201.954 182.933 201.822 183.073 202.086 182.976C202.614 182.781 203.789 183.1 203.938 183.106C204.065 183.228 204.375 183.299 204.616 183.392C205.424 183.706 206.1 184.456 206.48 184.69C207.524 185.675 208.344 186.346 210.908 187.104C211.327 187.219 211.885 187.49 212.295 187.56C212.383 187.615 212.325 187.589 212.457 187.642C212.845 187.799 212.994 187.887 213.142 188.509C213.024 188.494 213.012 188.506 212.899 188.499V188.5Z" fill="#3B6B74"/>
<path fill-rule="evenodd" clip-rule="evenodd" d="M197.075 190.579C196.249 190.341 191.494 188.914 191.263 188.911L190.518 188.48C190.256 188.326 190.046 188.236 189.779 188.057C189.542 187.899 188.614 187.143 188.425 187.096C188.091 186.421 188.373 186.174 188.927 185.686C189.377 185.29 190.363 185.099 191.179 185.096C191.465 185.114 192.033 185.043 192.398 185.011C192.725 185.026 193.323 185.098 193.662 185.068C194.575 185.207 194.143 185.118 194.805 185.09C195.099 185.031 195.404 185.142 195.754 184.915C196.64 184.654 195.824 184.091 196.75 183.879C197.808 183.699 198.102 183.758 198.164 183.2L198.211 183.117C198.39 182.845 198.749 182.61 199.241 182.606C199.536 182.613 199.886 182.679 200.202 182.833C200.199 182.893 200.224 182.998 200.194 182.996C199.421 182.944 199.133 183.055 198.937 183.168C198.166 183.924 198.553 184.016 198.158 184.27C197.793 184.504 196.857 184.485 196.645 184.734C196.461 184.952 196.542 185.739 194.885 185.61C194.214 185.628 193.251 185.612 192.257 185.321C191.656 185.414 189.614 185.305 188.854 186.164C188.464 186.667 188.886 187.069 189.24 187.284C195.272 190.047 198.773 190.056 203.855 192.365C204.26 192.679 204.954 192.756 205.524 192.868C206.797 193.386 208.808 194.486 208.832 194.508C209.623 195.107 213.146 194.97 215.681 194.345C215.745 194.65 215.913 194.787 216.64 195.176C214.55 195.616 211.336 196.126 208.822 195.139C206.873 194.373 205.615 193.502 202.158 192.522C201.077 192.189 199.052 191.154 197.075 190.579H197.075Z" fill="#1C2635"/>
<path fill-rule="evenodd" clip-rule="evenodd" d="M210.951 175.918C213.084 185.645 214.152 190.661 215.868 193.38C218.607 197.721 222.087 198.264 228.372 201.533C228.648 202.12 232.679 204.413 233.908 205.622C235.748 206.948 237.685 209.608 239.255 210.689C239.731 211.017 241.109 210.655 241.442 210.155C242.221 208.987 241.986 209.611 242.334 208.634C242.665 207.706 243.65 207.617 243.683 207.207C243.695 207.057 243.71 206.528 243.7 206.474C243.768 205.997 243.573 206.158 244.065 205.782C244.185 205.69 244.203 205.62 244.354 205.675C244.503 205.728 244.674 205.676 244.532 205.881C244.499 205.999 244.269 205.903 244.281 206.066C244.313 206.489 243.979 206.249 244.071 206.755C244.308 208.063 242.744 208.094 242.619 209.188C242.562 209.689 241.927 210.372 241.333 210.792C240.515 211.371 239.277 211.678 238.666 210.942C238.129 210.294 234.203 206.123 233.01 205.392C232.648 205.083 230.739 204.058 229.552 203.288C224.29 199.875 216.24 198.034 214.004 191.877C212.827 188.636 211.934 183.872 210.951 175.917V175.918Z" fill="#1C2635"/>
<path fill-rule="evenodd" clip-rule="evenodd" d="M231.325 198.157C231.522 198.324 231.97 198.48 232.135 198.664C232.489 198.676 233.074 199.217 233.386 199.446C233.599 199.604 233.762 199.711 233.983 199.892C234.197 200.068 234.362 200.192 234.546 200.269C235.052 200.888 239.803 205.728 240.17 206.285C238.012 206.094 236.121 203.052 235.364 202.323L233.959 200.957C233.155 200.095 232.015 199.712 231.626 199.294L231.525 199.299C231.277 199.197 231.134 199.122 230.907 199.068C230.839 198.969 230.669 198.902 230.533 198.826L225.524 196.462C226.084 196.41 226.359 196.402 227.284 196.539C228.292 197.015 230.182 197.764 231.325 198.157V198.157ZM244.08 198.7L245.688 199.706L245.749 199.791C243.565 198.716 240.513 196.79 239.094 195.743C238.504 195.581 238.013 195.424 237.384 195.25C236.434 194.585 234.726 193.84 234.149 193.473C235.255 193.273 235.109 193.399 235.978 193.877L239.411 195.219L244.08 198.7ZM242.221 200.816C242.198 200.841 242.329 200.965 241.8 200.792C241.61 200.73 241.518 200.687 241.342 200.607C240.616 200.276 239.69 199.428 238.924 198.983C238.653 198.761 238.705 198.839 238.407 198.538L236.782 197.181C236.422 196.878 236.061 196.547 235.714 196.258C235.009 195.88 234.72 195.672 233.866 195.283C233.069 194.919 232.612 194.769 231.934 194.229L232.79 194.321C233.223 194.428 236.97 196.503 238.006 197.001L242.221 200.816V200.816ZM231.233 195.611L232.052 196.098C232.425 196.638 235.765 198.203 236.863 199.197L240.463 202.419C240.787 202.694 241.385 203.133 241.62 203.391C241.582 203.593 241.674 203.443 241.461 203.525C241.035 203.688 239.967 203.162 239.837 203.136C239.708 202.976 239.429 202.852 239.205 202.711C238.457 202.236 237.754 201.263 237.388 200.938C236.33 199.638 235.514 198.739 233.176 197.517C232.795 197.328 232.268 196.936 231.903 196.8C231.819 196.725 231.873 196.762 231.75 196.683C231.39 196.448 231.247 196.325 231.021 195.569C231.126 195.601 231.134 195.589 231.233 195.611Z" fill="#3B6B74"/>
<path fill-rule="evenodd" clip-rule="evenodd" d="M244.721 194.968C245.477 195.222 249.844 196.757 250.038 196.754L250.778 197.241C251.04 197.415 251.24 197.516 251.512 197.719C251.754 197.899 252.735 198.767 252.907 198.817C253.37 199.609 253.201 199.913 252.871 200.514C252.602 201.001 251.83 201.263 251.148 201.294C250.904 201.283 250.449 201.387 250.152 201.438C249.88 201.484 249.371 201.519 249.103 201.623C248.319 201.642 248.696 201.661 248.163 201.828C247.938 201.96 247.659 201.88 247.436 202.235C246.783 202.735 247.614 203.335 246.916 203.781C246.1 204.215 245.84 204.17 245.951 204.939L245.937 205.055C245.866 205.445 245.638 205.804 245.237 205.907C244.994 205.959 244.69 205.949 244.39 205.834C244.377 205.771 244.33 205.66 244.356 205.664C244.992 205.763 245.192 205.64 245.319 205.515C245.728 204.46 245.384 204.382 245.633 204.011C245.864 203.668 246.634 203.569 246.731 203.223C246.827 202.876 246.539 201.852 247.94 201.509C248.489 201.283 249.287 201.016 250.185 201.064C250.662 200.932 252.401 200.992 252.802 199.943C252.991 199.33 252.529 198.865 252.174 198.622C246.374 195.538 243.444 195.648 238.564 193.074C238.14 192.714 237.538 192.647 237.03 192.533C232.863 190.218 233.624 189.932 232.73 189.59C232.269 189.581 232.149 188.847 229.653 189.199C229.398 189.296 227.287 189.338 225.509 189.721C225.166 189.794 225.131 189.78 224.759 189.977C224.242 190.252 223.686 190.533 223.22 190.781C222.916 190.722 223.165 190.851 222.934 190.618C223.123 189.961 224.423 189.101 225.152 188.829C225.391 188.741 225.584 188.755 225.788 188.662C226.869 188.168 227.597 188.329 228.509 188.021C226.699 187.21 226.888 186.29 222.648 186.101C225.342 184.807 226.452 186.062 228.883 187.337C228.58 186.808 225.514 184.085 224.791 183.362C224.48 183.05 222.843 182.081 223.184 181.428C223.333 181.454 223.882 181.806 224.126 181.956C224.432 182.146 224.864 182.306 225.065 182.54C225.127 182.542 225.167 182.482 225.438 182.69C225.704 182.895 226.045 183.205 226.386 183.265C225.417 181.954 227.397 183.859 227.494 184.022C227.659 184.166 227.742 184.24 227.892 184.402C228.079 184.603 228.793 185.53 229.422 186.111C228.501 184.672 227.914 182.997 226.945 181.83C226.933 181.749 226.955 181.806 226.896 181.67L226.391 180.896C225.744 179.91 224.966 179.323 224.646 178.872C224.52 178.694 224.479 178.605 224.5 178.441C225.536 178.943 227.305 180.976 228.081 181.956C228.417 182.381 230.631 185.713 230.826 186.431C231.237 186.801 231.824 187.583 232.155 187.954C233.019 188.926 232.787 188.501 233.366 188.851C233.735 188.958 233.384 189.252 235.677 191.122C236.322 191.637 239.613 192.808 239.94 192.829C240.935 193.188 242.911 194.351 244.721 194.968L244.721 194.968Z" fill="#3B6B74"/>
<path fill-rule="evenodd" clip-rule="evenodd" d="M161.079 39.6545C159.475 37.3848 158.1 42.0126 153.46 35.9434C157.661 44.1717 161.011 42.0757 161.079 39.6545Z" fill="#3B6B74"/>
<path fill-rule="evenodd" clip-rule="evenodd" d="M147.258 45.3191C146.689 44.2182 147.519 42.4229 145.302 39.7678C144.543 39.0689 144.096 38.6112 143.33 37.9339C143.11 37.9508 141.256 36.3137 141.735 37.92L141.729 37.8834C141.73 38.047 141.679 37.8486 141.763 38.1544C141.795 38.2703 141.818 38.2973 141.86 38.4291C142.403 39.6147 144.004 38.6177 147.258 45.3191H147.258Z" fill="#3B6B74"/>
<path fill-rule="evenodd" clip-rule="evenodd" d="M141.829 36.2922C142.309 36.6596 144.239 39.558 145.987 40.0895C146.014 39.6718 145.871 39.563 145.857 39.0634C144.057 37.8275 143.55 36.9681 141.994 35.5261C141.765 35.3088 141.398 35.1715 141.093 35.2653L140.996 35.3742C141.243 35.8553 141.262 36.0103 141.242 36.5686C141.456 36.4484 141.433 36.4211 141.577 36.2167L141.829 36.2923L141.829 36.2922Z" fill="#1C313E"/>
<path fill-rule="evenodd" clip-rule="evenodd" d="M141.532 31.8718C141.359 32.2471 141.535 31.2051 141.637 30.7877C141.756 30.1274 141.944 30.0394 142.076 29.3599C140.99 30.426 140.757 31.0387 140.534 32.8454C140.503 33.3964 140.79 34.7627 140.961 35.3017L140.995 35.3742L141.092 35.2654C141.34 35.1895 141.411 35.2124 141.69 35.339C141.799 35.3881 141.908 35.4444 141.994 35.526C142.241 35.7592 142.034 35.5767 142.121 35.743C142.564 35.9797 142.814 36.6509 143.28 36.821C143.43 37.2594 143.653 37.2545 143.924 37.6294L147.874 41.2165C147.656 40.379 147.631 40.6345 147.518 40.1635C144.884 38.0742 142.399 35.3083 141.532 31.8716V31.8718Z" fill="#3B6B74"/>
<path fill-rule="evenodd" clip-rule="evenodd" d="M169.034 42.9208C168.318 42.7371 168.298 42.5036 168.714 43.0985C169.207 44.0691 170.721 45.907 170.81 46.8315L169.69 46.3345L169.64 46.4487C170.386 46.7594 171.271 47.5632 171.167 48.3286C173.053 46.6483 170.418 43.6167 169.034 42.9209V42.9208Z" fill="#799E96"/>
<path fill-rule="evenodd" clip-rule="evenodd" d="M168.715 43.0984C168.644 43.0346 168.621 42.9941 168.548 42.9676C168.307 42.8799 168.496 42.8826 168.317 42.9635L168.007 43.5543L168.791 44.9471C168.912 45.1765 168.818 45.06 168.984 45.3327C169.138 45.5837 168.977 45.3708 169.213 45.6225C169.753 46.1962 169.463 46.0062 169.691 46.3346L170.811 46.8316C170.721 45.9071 169.207 44.0692 168.715 43.0986V43.0984Z" fill="#272324"/>
<path fill-rule="evenodd" clip-rule="evenodd" d="M153.778 50.096C154.321 50.7488 154.995 54.1371 154.98 54.9762V54.96C155.009 55.5999 154.666 57.0021 155.139 57.4961L155.286 57.1248C155.087 56.6823 155.28 55.175 155.16 54.2838L155.038 54.2278C155.286 53.297 153.59 48.4093 153.247 47.4805C152.178 44.5858 151.487 42.8767 149.873 40.1078C149.135 38.4294 149.277 35.6862 147.717 34.9502C147.959 35.1569 147.996 35.352 148.005 35.7308C148.272 36.4607 148.392 36.6901 148.454 37.3404C148.731 40.2491 152.541 46.5179 153.777 50.096H153.778ZM147.455 34.8887C147.771 34.4859 147.308 34.4348 146.981 34.4933C146.817 36.3426 149.464 44.0845 149.427 44.218C149.708 44.5419 150.068 45.8296 150.327 46.5414C150.439 46.8494 150.394 46.6347 150.407 46.9499C151.43 49.0286 152.358 51.1078 153.325 53.2123C153.579 53.2372 153.445 53.4467 153.555 53.2059C153.369 53.1202 152.761 51.5535 152.597 51.2092C152.474 50.9514 152.494 50.8747 152.354 50.6068C151.926 49.7871 151.539 48.9473 151.179 48.0885L149.107 42.2068C149.181 42.1198 148.211 39.219 148.096 38.725C147.888 37.8285 147.585 36.6486 147.587 35.8905C147.588 35.6024 147.539 35.2465 147.455 34.8888V34.8887Z" fill="#BFE6D8"/>
<path fill-rule="evenodd" clip-rule="evenodd" d="M155.198 42.7953L155.25 42.875C156.964 45.5396 159.137 52.9285 159.196 53.0086C158.482 45.0905 151.304 35.2967 150.387 36.1973L150.308 36.0869L150.028 36.4801C151.002 37.7401 153.444 41.6543 154.606 44.7815C155.111 46.6655 156.121 50.134 156.259 50.4912C156.259 50.4912 156.318 50.3082 156.11 50.2893C156.253 49.9404 155.302 48.1005 155.35 47.666L153.842 43.9787C152.801 42.0084 151.146 38.6892 150.014 37.6374C149.831 37.4678 149.67 37.394 149.542 37.4496C151.533 41.3425 152.744 41.5149 155.14 48.021L156.059 50.5196C156.985 54.7462 157.052 52.6459 157.175 58.6678C159.12 59.3871 155.395 45.9334 154.864 44.8064C154.314 42.2424 152.006 38.8423 151.677 37.7889L153.988 41.1236C154.312 41.3232 154.955 42.3775 155.198 42.7952V42.7953Z" fill="#BFE6D8"/>
<path fill-rule="evenodd" clip-rule="evenodd" d="M139.242 42.4389L139.278 42.4543C139.414 42.1682 139.722 39.7315 139.907 38.9975C140.189 37.8716 140.539 36.3616 140.961 35.3015C140.861 34.9326 141.087 35.2037 140.729 34.7422C140.241 36.0185 138.979 41.4232 139.242 42.4388V42.4389ZM139.02 36.2408C138.661 37.1762 138.663 38.4163 138.57 39.3355C138.458 40.4289 138.535 41.3216 138.502 42.2945L138.626 42.237C138.676 41.5379 138.663 40.8443 138.764 40.0518C138.935 38.7074 139.101 38.2214 139.242 37.6586L139.123 37.812L139.118 37.4216L138.848 38.2421C138.723 37.6143 139.171 36.5882 139.226 35.9029L139.02 36.2408ZM140.397 45.1802C140.473 44.9126 140.397 43.8332 140.42 43.3861C140.451 42.7519 140.528 42.1366 140.594 41.4619C140.718 40.1951 141.061 38.7308 141.385 37.4609C141.366 37.3298 141.389 37.1752 141.469 36.9193L141.25 36.7935C140.812 38.2196 140.572 39.8175 140.342 41.2363C140.184 42.2123 140.226 44.6269 140.397 45.1803V45.1802Z" fill="#3B6B74"/>
<path fill-rule="evenodd" clip-rule="evenodd" d="M169.335 46.3548L169.64 46.4486L169.69 46.3344C169.463 46.006 169.752 46.1961 169.213 45.6224C168.976 45.3706 169.137 45.5835 168.984 45.3325C168.817 45.06 168.912 45.1764 168.791 44.9469L168.007 43.5541L168.316 42.9633C167.924 42.9404 167.796 43.7964 167.785 44.0655C168.067 44.773 168.412 45.6877 168.9 46.3216L169.335 46.3548H169.335Z" fill="#313C4F"/>
<path fill-rule="evenodd" clip-rule="evenodd" d="M144.867 29.4157C144.993 29.4051 145.224 29.3953 145.334 29.3783C145.712 29.3209 145.583 29.4418 145.786 29.1013C145.492 28.724 144.863 28.5272 144.374 28.481C143.888 28.4349 143.47 28.4836 143.121 28.7668C142.665 28.7729 142.538 28.9831 142.373 29.155L142.722 29.1648C142.606 29.9544 142.782 29.5459 143.943 29.3644C144.363 29.2991 144.265 29.2752 144.316 29.4615L144.867 29.4158L144.867 29.4157Z" fill="#3B6B74"/>
<path fill-rule="evenodd" clip-rule="evenodd" d="M142.179 31.729C142.671 30.9111 143.088 30.0093 144.059 29.6567L144.316 29.4613C144.265 29.275 144.363 29.2987 143.943 29.3642C142.782 29.5457 142.606 29.9542 142.722 29.1646L142.373 29.1548L142.076 29.3597C140.166 31.0789 141.062 32.8755 142.179 31.7291L142.179 31.729Z" fill="#282629"/>
<path fill-rule="evenodd" clip-rule="evenodd" d="M141.242 36.5685L141.25 36.7934C141.297 36.988 141.398 37.1861 141.568 37.5187L141.729 37.8834C141.881 37.8131 142.021 37.705 142.184 37.6725C143.056 37.4998 145.103 40.3976 145.043 39.4515C144.98 39.3615 144.885 39.2315 144.779 39.1374C144.663 38.992 144.543 38.9617 144.423 38.8358C143.962 38.2714 142.76 36.9494 141.829 36.2921C141.382 36.1583 141.4 36.2653 141.242 36.5684L141.242 36.5685Z" fill="#BFE6D8"/>
<path fill-rule="evenodd" clip-rule="evenodd" d="M146.363 39.2872C146.47 39.5556 146.604 41.2806 146.679 41.7654L146.909 43.0791C147.063 43.9454 147.372 45.2308 147.673 46.0525C147.832 46.4855 148.045 46.7604 148.117 47.203L147.371 45.8069C147.145 44.9214 146.82 44.2059 146.735 43.2171C146.512 42.1104 145.745 38.617 145.794 37.5841C145.989 35.8747 146.363 39.2837 146.363 39.2872Z" fill="#BFE6D8"/>
<path fill-rule="evenodd" clip-rule="evenodd" d="M146.799 38.2118L147.614 42.1248C147.624 42.1319 148.422 45.3982 148.602 45.8284L149.168 47.2507C149.308 47.4181 149.435 47.6494 149.531 47.849C149.681 48.1582 149.745 48.216 149.847 48.4605C149.893 48.6344 149.661 48.5032 150.11 48.8366C150.086 48.645 150.141 48.7602 150.058 48.586C149.982 48.4303 149.997 48.4897 149.911 48.3796L148.733 45.5473C148.679 45.3414 148.615 45.1811 148.556 44.9517L147.757 41.4462C147.613 40.8456 147.465 39.3456 147.462 39.3648C147.459 39.3825 147.233 38.1653 146.975 37.6103L146.848 37.0298L146.825 36.9063C146.454 36.1681 146.33 35.7925 146.324 34.9768C146.246 34.648 146.201 34.5002 145.878 34.4904C145.819 34.6412 145.924 34.5902 145.885 34.8147C145.882 35.438 145.975 35.805 146.122 36.1765L146.263 36.4918C146.26 36.4915 146.799 37.9806 146.8 38.2123L146.799 38.2118ZM145.645 34.017L145.439 33.7788C145.005 34.0203 145.295 34.4928 145.163 35.7321C145.127 36.0734 145.093 36.6831 145.029 36.9238L145.004 38.323C144.929 38.7454 145.056 38.8399 144.954 39.1918C145.281 39.7012 144.818 41.6561 145.702 43.9613L145.773 43.8702L145.598 43.0211C145.553 42.7421 145.539 42.43 145.497 42.1291C145.408 41.5077 145.36 40.9091 145.304 40.2665C145.336 39.7611 145.237 38.2912 145.347 38.0391C145.33 37.9688 145.64 34.0588 145.645 34.017H145.645Z" fill="#BFE6D8"/>
<path fill-rule="evenodd" clip-rule="evenodd" d="M140.516 32.4572C139.756 33.7214 139.388 34.8529 139.02 36.2404L139.226 35.9025C139.492 35.4161 139.628 34.8434 139.838 34.3351C140.063 33.7904 140.371 33.25 140.624 32.7631L140.72 32.4573L140.516 32.457V32.4572Z" fill="#3B6B74"/>
<path fill-rule="evenodd" clip-rule="evenodd" d="M158.673 32.9078C158.038 32.7392 156.78 32.7533 156.376 33.2151C156.463 33.4762 156.372 33.3693 156.661 33.5866L156.848 33.5148C156.875 33.5049 156.905 33.4925 156.934 33.4822L157.435 33.353C157.096 33.3567 156.866 33.3428 156.554 33.3136C157.085 32.7501 157.023 33.1153 157.724 33.1367C158.225 33.1514 158.471 33.1304 159.018 33.1927C159.056 33.1833 159.276 33.0926 159.299 33.0868L158.673 32.9077L158.673 32.9078Z" fill="#3B6B74"/>
<path fill-rule="evenodd" clip-rule="evenodd" d="M140.365 34.1954L139.118 37.4213L139.123 37.8117L139.242 37.6583L140.31 34.8674L140.546 33.8984L140.365 34.1954Z" fill="#3B6B74"/>
<path fill-rule="evenodd" clip-rule="evenodd" d="M156.661 33.5868L156.64 33.6177L156.979 33.733C157.71 33.2367 158.103 33.2772 159.063 33.2833L159.018 33.193C158.471 33.1307 158.226 33.1519 157.724 33.1371C157.023 33.1156 157.085 32.7504 156.554 33.314C156.866 33.343 157.096 33.3571 157.435 33.3533L156.934 33.4826C156.905 33.4927 156.875 33.5052 156.848 33.5151L156.662 33.5869L156.661 33.5868Z" fill="#19232E"/>
<path fill-rule="evenodd" clip-rule="evenodd" d="M148.854 35.7591C148.643 35.6154 148.709 35.4397 148.417 35.1486C148.215 34.9465 147.931 34.8005 147.704 34.6377C147.529 34.736 147.587 34.7204 147.455 34.8887C147.551 35.2953 147.633 35.45 148.005 35.7308C147.996 35.352 147.959 35.1571 147.717 34.9502C148.401 35.2726 148.504 35.6711 148.557 35.7323C148.934 36.1616 148.617 35.9175 148.854 35.7591Z" fill="#3B6B74"/>
<path fill-rule="evenodd" clip-rule="evenodd" d="M157.511 32.6343C157.141 32.6418 156.746 32.6173 156.448 32.8006C155.993 33.0806 156.016 33.5202 156.64 33.6177L156.662 33.5867C156.372 33.3695 156.463 33.4764 156.377 33.2152C156.78 32.7534 158.038 32.7394 158.673 32.908C158.617 32.8445 158.685 32.8429 158.519 32.7791C158.484 32.766 158.277 32.733 158.212 32.7247C157.99 32.6975 157.759 32.6722 157.511 32.6344L157.511 32.6343Z" fill="#799E96"/>
<path fill-rule="evenodd" clip-rule="evenodd" d="M147.053 35.4557C146.993 35.1873 147.008 34.7301 146.981 34.4934L146.684 34.3207C146.492 34.1647 146.452 34.2312 146.363 34.4791C146.255 34.7822 146.295 34.5754 146.501 34.9197C147.111 35.9352 146.937 35.6574 147.053 35.4556V35.4557Z" fill="#3B6B74"/>
<path fill-rule="evenodd" clip-rule="evenodd" d="M139.242 42.4387C139.12 42.967 139.207 43.8148 139.307 44.1156C139.195 44.5661 139.401 45.1727 139.544 45.615L139.478 44.5269C139.406 43.949 139.526 44.4102 139.307 44.1157L139.369 42.6917C139.336 42.5314 139.335 42.5749 139.278 42.4543L139.242 42.4388L139.242 42.4387ZM140.397 45.18C140.326 45.5681 140.502 46.2272 140.54 46.3664C140.575 46.4972 140.588 46.5073 140.616 46.5889L140.574 45.5926C140.495 45.0351 140.619 45.4653 140.397 45.18ZM138.502 42.2943C138.406 42.724 138.501 43.1228 138.631 43.3972C138.721 43.0071 138.771 42.5828 138.626 42.2368L138.502 42.2943H138.502Z" fill="#799E96"/>
<path fill-rule="evenodd" clip-rule="evenodd" d="M145.33 32.9356L145.353 32.1563C145.297 32.1638 145.136 31.8641 145.068 32.4919C145.034 32.8075 145.103 32.7546 145.329 32.9356H145.33Z" fill="#3B6B74"/>
<path fill-rule="evenodd" clip-rule="evenodd" d="M143.715 33.5192L143.932 33.6009C144.069 33.2732 144.221 32.9526 143.966 32.7905L143.888 32.9039L143.715 33.5192Z" fill="#3B6B74"/>
<path fill-rule="evenodd" clip-rule="evenodd" d="M147.399 33.7396C147.422 33.393 147.412 33.0135 147.098 32.8188C147.032 33.1775 147.213 33.4603 147.399 33.7396Z" fill="#3B6B74"/>
<path fill-rule="evenodd" clip-rule="evenodd" d="M146.302 33.1499C146.337 32.7772 146.393 32.6519 146.106 32.3237C146.02 32.7618 146.108 32.7504 146.167 33.1563C146.217 33.3161 146.024 33.1918 146.355 33.4809L146.302 33.1498V33.1499Z" fill="#3B6B74"/>
<path fill-rule="evenodd" clip-rule="evenodd" d="M145.252 33.9924C145.002 33.8072 145.085 33.943 144.99 33.6212L144.817 33.4478L144.719 33.8612C144.935 34.0041 144.651 33.9542 145.005 34.0202C145.259 34.0674 145.051 34.0455 145.252 33.9923L145.252 33.9924Z" fill="#3B6B74"/>
<path fill-rule="evenodd" clip-rule="evenodd" d="M145.656 34.0267L145.645 34.0166C145.6 34.41 145.571 34.4792 145.885 34.8141C145.931 34.412 145.921 34.2532 145.656 34.0267Z" fill="#3B6B74"/>
<path fill-rule="evenodd" clip-rule="evenodd" d="M148.685 33.5298C148.647 33.272 148.741 33.3566 148.386 33.063C148.253 33.5252 148.344 33.4976 148.685 33.5298Z" fill="#3B6B74"/>
<path fill-rule="evenodd" clip-rule="evenodd" d="M144.311 32.1749L144.328 32.1994C144.484 32.2897 144.424 32.3067 144.506 32.1462C144.516 31.9122 144.576 31.9224 144.333 31.7456C144.288 31.9546 144.285 32.0158 144.311 32.1749Z" fill="#3B6B74"/>
<path fill-rule="evenodd" clip-rule="evenodd" d="M156.315 50.4258L156.259 50.4911L156.315 50.4258Z" fill="#B4896E"/>
<path fill-rule="evenodd" clip-rule="evenodd" d="M154.563 34.9297C154.849 35.192 154.911 36.0795 155.3 36.6086C155.572 36.6812 155.693 37.0088 156.022 37.1014C156.715 37.6713 156.573 37.3365 156.848 37.4537C156.8 37.4171 156.753 37.38 156.707 37.3425C155.382 36.2507 155.373 34.9799 154.563 34.9297Z" fill="#799E96"/>
<path fill-rule="evenodd" clip-rule="evenodd" d="M157.599 38.3137C158.409 38.5503 159.551 37.6583 161.155 38.5238C160.332 37.7471 160.185 37.0577 159.982 36.5531C159.564 35.5145 159.291 35.0431 157.292 34.5647C156.614 34.4884 157.184 34.5576 157.14 34.7212C157.615 34.9601 157.853 34.6955 158.752 35.2541C159.315 35.6044 159.69 36.413 159.372 36.8589C159.227 36.0387 158.419 34.9997 157.224 35.0341C157.136 35.0363 157.051 35.0855 156.961 35.1236C156.763 35.4207 156.715 35.7287 156.821 35.9264C156.872 36.1489 157.17 36.4264 157.347 36.5391C157.037 36.4518 156.836 36.1796 156.571 36.0742C156.865 36.4662 157.479 36.8422 157.834 36.9458C158.597 37.1624 158.747 36.4926 159.227 36.8952C158.859 37.1971 158.49 37.5664 158.239 37.5804C158.191 37.5779 158.142 37.5752 158.094 37.5729C158.093 37.6046 158.214 37.6666 157.82 37.7422C156.721 37.9285 156.287 37.568 155.516 36.7668C155.517 36.7867 155.519 36.8072 155.52 36.8273C155.925 37.7105 156.621 38.2201 157.599 38.3138L157.599 38.3137Z" fill="#1C313E"/>
<path fill-rule="evenodd" clip-rule="evenodd" d="M156.271 36.5049C156.039 36.226 155.527 35.1061 155.255 34.973L156.514 35.0875C156.466 35.3184 156.312 35.3234 156.301 35.5516C156.309 36.0217 157.034 36.4919 157.336 36.588C157.26 36.4274 156.921 36.1696 156.753 35.9329C156.57 35.4684 156.938 35.4586 156.961 35.1233C157.855 34.9835 158.423 35.2776 158.902 35.8585C159.166 36.1776 159.305 36.5952 159.372 36.8586C159.69 36.4127 159.315 35.6042 158.752 35.2538C157.853 34.6953 157.615 34.9597 157.14 34.721C157.183 34.5574 156.92 34.721 157.292 34.5645C156.207 34.3525 155.647 34.885 154.178 34.5093C154.273 34.6631 154.722 34.9269 155.117 35.2414C155.185 35.2959 155.55 35.9308 155.772 36.2887C155.903 36.5 156.149 36.4694 156.271 36.5049H156.271Z" fill="#3B6B74"/>
<path fill-rule="evenodd" clip-rule="evenodd" d="M158.094 37.5724L158.239 37.58C158.499 37.5737 158.987 37.2773 159.271 36.9318C158.787 36.318 158.634 37.0973 157.859 36.8899C157.498 36.7999 156.873 36.4488 156.571 36.074C156.465 35.8967 156.291 35.742 156.301 35.5517C156.312 35.3233 156.467 35.3185 156.514 35.0876L155.255 34.9731C156.082 35.7966 156.066 37.2685 158.094 37.5727L158.094 37.5724Z" fill="#19232E"/>
<path fill-rule="evenodd" clip-rule="evenodd" d="M158.094 37.5726C156.964 37.403 156.596 36.9263 155.717 35.8257C155.553 36.3843 156.378 37.0196 156.719 37.3553C156.837 37.4718 156.414 37.3662 156.022 37.1013C155.693 37.0087 155.572 36.6811 155.3 36.6085L155.448 36.8512L155.509 36.8855L155.504 36.8235C156.3 37.6051 156.743 37.9582 157.868 37.7533C158.214 37.6664 158.096 37.6033 158.094 37.5726H158.094Z" fill="#3B6B74"/>
<path fill-rule="evenodd" clip-rule="evenodd" d="M157.066 36.3624C157.3 36.5389 157.575 36.6856 157.749 36.7302C157.937 36.7785 157.692 36.6281 157.636 36.5983C157.331 36.4332 157.023 36.1728 156.857 35.8749C156.779 35.7325 156.863 35.435 157.014 35.1682C157.075 35.0608 156.902 35.0759 156.736 35.1825C156.658 35.2324 156.638 35.3529 156.611 35.4248C156.578 35.5105 156.493 35.9316 157.066 36.3624H157.066Z" fill="#FEFEFE"/>
<path fill-rule="evenodd" clip-rule="evenodd" d="M135.916 97.9823C135.283 98.5243 133.978 99.2307 132.451 101.228C131.025 103.804 131.416 105.778 131.195 106.155L131.195 106.953C131.443 108.99 131.273 109.739 131.857 112.094C131.924 112.364 132.006 112.616 131.94 112.865C132.089 113.127 132.093 113.173 132.166 113.46C132.193 113.567 132.222 113.691 132.229 113.797C132.248 114.135 132.243 113.935 132.199 114.112C132.432 114.52 132.79 116.253 132.976 116.912C133.803 119.834 134.617 122.867 135.785 125.743C136.959 128.632 138.353 131.975 140.161 134.573C140.616 135.227 141.695 136.349 141.943 136.854C142.259 136.946 142.226 136.987 142.467 137.192C142.646 137.344 142.711 137.396 142.891 137.514C143.33 137.799 143.525 137.72 143.902 138.004C144.31 137.859 144.551 137.884 145.11 137.643C145.153 137.433 145.108 137.627 145.172 137.403C145.582 135.969 145.167 135.477 145.288 134.838C145.069 134.487 144.652 132.977 144.604 132.492C144.523 131.651 145.29 131.687 145.049 130.492C144.833 129.425 144.132 126.96 144.365 125.839C145.229 130.225 145.391 126.811 145.789 124.589C146.112 122.777 146.816 121.241 147.351 120.745C148.613 119.24 149.876 117.734 151.138 116.228L153.044 113.708C153.679 112.78 154.192 111.978 154.727 111.061C155.298 110.083 155.644 109.17 155.962 108.26C156.145 107.736 156.556 105.93 156.472 105.242C156.326 105.797 156.257 106.469 155.923 106.911C154.955 109.246 154.053 111.274 151.889 113.608C151.668 113.819 151.52 114.113 151.177 114.282C150.525 114.869 149.236 116.501 148.632 117.208C149.64 115.007 147.724 115.207 152.113 110.292C152.227 109.601 152.431 108.9 152.413 108.252C152.139 108.559 152.177 108.575 152.059 108.97C151.312 111.48 149.716 110.75 148.457 112.866C147.907 113.789 147.469 116.407 147.328 117.637L147.166 118.314C146.926 119.152 146.331 119.962 145.607 120.814C144.739 122.884 144.933 123.522 144.79 123.898C144.172 124.285 144.198 125.047 143.646 125.524C143.403 124.987 142.898 123.457 143.06 123.001C142.753 122.383 142.973 121.688 142.757 121.155C142.627 120.914 142.601 120.625 142.538 120.596C142.41 120.537 142.531 120.573 142.426 120.708C142.426 120.709 142.402 120.794 142.262 120.932L142.3 121.115C141.981 121.986 142.083 121.692 142.086 122.29C142.086 122.31 142.058 122.375 142.085 122.378C142.111 122.38 142.084 122.438 142.083 122.468L142.544 124.29L142.683 124.704L143.179 126.2C143.483 127.061 143.724 127.852 143.992 128.713C144.124 129.136 144.243 129.536 144.358 129.928C144.509 130.441 144.7 130.703 144.46 131.035C144.013 130.679 142.595 126.594 142.312 125.765C142.137 125.388 141.91 124.862 141.915 124.519L141.552 123.742C141.544 123.477 141.26 122.74 141.314 122.641C141.108 122.276 141.02 121.645 140.779 121.446L141.16 123.437L141.492 125.071C142.239 127.771 143.909 131.099 144.378 133.654C144.153 133.554 144.341 133.693 144.146 133.482L143.307 131.728C142.706 130.281 141.443 126.793 140.97 125.908C140.775 125.542 140.585 125.041 140.338 124.816C140.368 124.975 140.422 125.18 140.466 125.384C140.491 125.499 140.514 125.614 140.521 125.732C140.535 125.979 140.549 125.806 140.501 125.98L140.59 126.1C141.235 128.387 142.935 132.198 144.078 134.439C144.582 135.428 145.202 136.335 144.869 137.124C142.026 138.512 136.999 127.481 136.252 124.651L135.966 123.767C135.25 122.414 134.264 118.876 133.871 117.38C133.331 115.318 132.816 113.338 132.451 111.322C131.827 107.871 131.145 103.693 133.785 100.68C136.93 97.09 145.343 91.7519 147.505 91.5583C148.371 90.9604 149.302 90.1902 150.219 89.7181C151.938 88.8326 154.399 89.8673 155.462 90.5889L155.814 90.7636C156.098 90.945 156.334 91.1109 156.465 91.4076C157.083 91.6283 157.343 92.4031 157.915 92.6779C157.188 91.1278 155.339 89.7632 154.237 89.3002C151.062 87.9663 150.269 89.124 149.56 88.9728L148.398 89.4875C148.238 89.5438 148.365 89.517 148.207 89.5483C148.19 89.5521 148.11 89.5559 148.122 89.546C148.133 89.5366 148.07 89.5309 148.018 89.5112L148.194 89.2292C149.237 87.143 151.798 86.2022 154.106 86.3761C154.484 86.4043 154.601 86.4804 154.901 86.4134C155.16 86.2864 155.124 86.2581 155.446 86.3144C155.461 86.3169 155.477 86.3192 155.491 86.3219C155.744 86.3643 155.596 86.3216 155.653 86.4512C155.455 86.2909 155.558 86.4666 155.491 86.3219C155.473 86.2823 155.442 86.2196 155.389 86.1198C154.793 85.7165 152.937 85.7218 151.888 85.9081C151.198 86.0309 150.448 86.302 149.763 86.6221C147.829 87.5257 147.223 88.9106 146.174 90.6586C145.469 91.5864 144.625 80.9278 144.423 81.3119C144.269 81.6025 145.311 90.8352 144.237 91.2638C140.176 93.48 137.04 97.3714 135.916 97.9834L135.916 97.9823Z" fill="#1E5661"/>
<path fill-rule="evenodd" clip-rule="evenodd" d="M142.78 111.179L142.708 112.449C142.694 112.528 142.67 112.611 142.643 112.688C142.636 112.709 142.577 112.77 142.6 112.771C142.623 112.773 142.567 112.827 142.551 112.856C142.39 112.412 142.274 111.744 142.445 111.316C142.338 110.653 142.317 109.549 142.324 108.855C142.332 108.083 142.549 107.065 142.5 106.409C141.749 107.317 141.305 109.681 141.428 111.047L141.389 113.134C141.415 113.138 141.354 113.198 141.338 113.23C141.2 112.735 141.034 112.05 141.242 111.628C141.051 110.879 141.163 109.301 140.997 108.376C140.843 107.857 140.751 107.271 140.922 106.761L140.858 106.086C140.151 107.382 140.219 110.969 140.275 112.914C140.311 114.182 140.986 119.315 141.889 120.363C141.884 120.422 141.817 120.368 141.867 120.664C141.873 120.703 141.898 120.836 141.916 120.87C142.106 121.228 141.922 121.084 142.301 121.114L142.262 120.931L142.193 120.349L142.516 117.476C142.435 116.826 142.717 115.067 142.789 114.342C142.889 113.347 143.154 112.218 143.386 111.389C144.33 108.022 145.748 107.227 146.446 106.167C143.562 107.294 143.316 109.796 142.78 111.179L142.78 111.179Z" fill="#3B6B74"/>
<path fill-rule="evenodd" clip-rule="evenodd" d="M135.868 105.065C135.719 105.414 136.165 108.7 136.229 109.142C136.654 112.061 138.066 119.479 139.109 121.929L139.759 123.655L139.93 123.97C140.279 124.103 140.209 124.234 140.661 124.222C140.403 122.941 139.645 121.236 139.257 119.911C139.059 119.234 138.887 118.569 138.75 117.911C138.67 117.526 138.392 116.251 138.261 115.942C137.991 115.269 137.746 113.436 137.741 112.772C137.738 112.302 137.764 112.545 137.862 112.349C137.772 111.955 137.81 111.047 137.802 110.544C137.717 104.988 136.274 106.535 135.868 105.065H135.868Z" fill="#3B6B74"/>
<path fill-rule="evenodd" clip-rule="evenodd" d="M142.312 125.763C142.595 126.593 144.013 130.678 144.46 131.034C144.701 130.702 144.51 130.44 144.359 129.927C144.243 129.535 144.124 129.135 143.992 128.712C143.724 127.851 143.483 127.06 143.179 126.198L142.684 124.703L142.544 124.289C142.525 124.319 142.53 124.35 142.489 124.381L142.32 124.706L141.315 122.64C141.261 122.739 141.545 123.476 141.553 123.741L141.915 124.518C141.911 124.861 142.138 125.387 142.313 125.763H142.312ZM140.97 125.906C141.443 126.792 142.706 130.28 143.307 131.726L144.146 133.48C144.341 133.692 144.154 133.553 144.379 133.652C143.91 131.098 142.239 127.77 141.492 125.07C141.528 126.013 141.426 125.953 140.97 125.906H140.97Z" fill="#799E96"/>
<path fill-rule="evenodd" clip-rule="evenodd" d="M155.39 86.1187C155.636 86.5858 155.402 86.2464 155.653 86.4501C155.594 86.3137 155.761 86.3682 155.446 86.313C155.125 86.2567 155.161 86.2855 154.901 86.4123C155.265 86.6308 155.749 86.7203 156.165 86.8141C156.765 86.8318 157.71 87.5518 157.876 87.5462C158.21 87.5354 157.96 87.7658 158.028 87.366C157.593 87.1142 157.281 86.8229 156.811 86.5923C156.268 86.3269 155.939 86.0778 155.389 86.1187H155.39Z" fill="#361B17"/>
<path fill-rule="evenodd" clip-rule="evenodd" d="M146.803 108.821C146.626 108.98 146.005 110.964 145.924 111.232C145.389 113.002 144.218 117.589 144.158 119.257L144.068 120.41L144.082 120.634C144.244 120.802 144.17 120.858 144.429 120.971C144.624 120.176 144.647 119.006 144.779 118.15C144.846 117.714 144.926 117.291 145.023 116.88C145.079 116.64 145.262 115.843 145.269 115.633C145.294 115.179 145.643 114.073 145.817 113.695C145.94 113.427 145.89 113.572 145.998 113.486C146.052 113.24 146.315 112.734 146.444 112.446C147.874 109.269 146.643 109.763 146.803 108.821Z" fill="#3B6B74"/>
</svg>
