<svg width="180" height="181" viewBox="0 0 180 181" fill="none" xmlns="http://www.w3.org/2000/svg">
<g clip-path="url(#clip0_1_11742)">
<path d="M180 90.0898C180 40.3842 139.706 0.0898438 90 0.0898438C40.2944 0.0898438 0 40.3842 0 90.0898C0 139.795 40.2944 180.09 90 180.09C139.706 180.09 180 139.795 180 90.0898Z" fill="white"/>
<path d="M149 49.5898H31C29.6193 49.5898 28.5 50.7091 28.5 52.0898V67.0898C28.5 68.4706 29.6193 69.5898 31 69.5898H149C150.381 69.5898 151.5 68.4706 151.5 67.0898V52.0898C151.5 50.7091 150.381 49.5898 149 49.5898Z" fill="white" stroke="#DADADA"/>
<path d="M38.457 64.0898H34.0796V56.2373H38.457V57.0483H34.9927V59.5781H38.2475V60.3837H34.9927V63.2734H38.457V64.0898ZM47.5718 64.0898V60.2602C47.5718 59.7911 47.4715 59.4402 47.271 59.2075C47.0705 58.9711 46.7589 58.853 46.3364 58.853C45.7814 58.853 45.3714 59.0123 45.1064 59.331C44.8414 59.6497 44.709 60.1403 44.709 60.8027V64.0898H43.8174V60.2602C43.8174 59.7911 43.7171 59.4402 43.5166 59.2075C43.3161 58.9711 43.0027 58.853 42.5766 58.853C42.018 58.853 41.6081 59.0213 41.3467 59.3579C41.0888 59.6909 40.9599 60.2387 40.9599 61.0014V64.0898H40.0683V58.2031H40.7934L40.9385 59.0087H40.9814C41.1497 58.7223 41.386 58.4985 41.6904 58.3374C41.9984 58.1762 42.3421 58.0957 42.7217 58.0957C43.6419 58.0957 44.2435 58.4287 44.5263 59.0947H44.5693C44.7448 58.7867 44.999 58.5433 45.332 58.3642C45.665 58.1852 46.0446 58.0957 46.4707 58.0957C47.1367 58.0957 47.6344 58.2675 47.9638 58.6113C48.2969 58.9515 48.4634 59.4975 48.4634 60.2495V64.0898H47.5718ZM53.9258 64.0898L53.7485 63.2519H53.7055C53.4119 63.6207 53.1183 63.8714 52.8247 64.0039C52.5346 64.1328 52.1712 64.1972 51.7344 64.1972C51.1507 64.1972 50.6924 64.0468 50.3594 63.746C50.0299 63.4453 49.8652 63.0174 49.8652 62.4624C49.8652 61.2736 50.8159 60.6505 52.7173 60.5932L53.7163 60.561V60.1958C53.7163 59.7338 53.616 59.3937 53.4155 59.1752C53.2186 58.9532 52.9017 58.8422 52.4648 58.8422C51.9743 58.8422 51.4192 58.9926 50.7998 59.2934L50.5259 58.6113C50.8159 58.4537 51.1328 58.3302 51.4765 58.2407C51.8239 58.1512 52.1712 58.1064 52.5185 58.1064C53.2204 58.1064 53.7396 58.2622 54.0761 58.5737C54.4163 58.8852 54.5864 59.3847 54.5864 60.0722V64.0898H53.9258ZM51.9116 63.4614C52.4666 63.4614 52.9017 63.3092 53.2168 63.0048C53.5355 62.7005 53.6948 62.2744 53.6948 61.7265V61.1948L52.8032 61.2324C52.0942 61.2574 51.5822 61.3684 51.2671 61.5654C50.9555 61.7587 50.7998 62.0613 50.7998 62.4731C50.7998 62.7954 50.8965 63.0406 51.0898 63.2089C51.2868 63.3772 51.5607 63.4614 51.9116 63.4614ZM57.3203 64.0898H56.4287V58.2031H57.3203V64.0898ZM56.3535 56.6079C56.3535 56.4038 56.4036 56.2552 56.5039 56.1621C56.6041 56.0654 56.7295 56.017 56.8799 56.017C57.0231 56.017 57.1466 56.0654 57.2505 56.1621C57.3543 56.2587 57.4062 56.4073 57.4062 56.6079C57.4062 56.8084 57.3543 56.9588 57.2505 57.059C57.1466 57.1557 57.0231 57.2041 56.8799 57.2041C56.7295 57.2041 56.6041 57.1557 56.5039 57.059C56.4036 56.9588 56.3535 56.8084 56.3535 56.6079ZM60.1025 64.0898H59.2109V55.7324H60.1025V64.0898Z" fill="#949494"/>
<path d="M28.5 81.0898C28.5 79.7091 29.6193 78.5898 31 78.5898H149C150.381 78.5898 151.5 79.7091 151.5 81.0898V96.0898C151.5 97.4705 150.381 98.5898 149 98.5898H31C29.6193 98.5898 28.5 97.4705 28.5 96.0898V81.0898Z" fill="white" stroke="#DADADA"/>
<path d="M39.0586 87.5253C39.0586 88.3203 38.7864 88.9326 38.2422 89.3623C37.7015 89.7884 36.9262 90.0014 35.9165 90.0014H34.9927V93.0898H34.0796V85.2373H36.1152C38.0775 85.2373 39.0586 86 39.0586 87.5253ZM34.9927 89.2172H35.8144C36.6237 89.2172 37.2091 89.0865 37.5708 88.8252C37.9324 88.5638 38.1133 88.1448 38.1133 87.5683C38.1133 87.0491 37.9432 86.6624 37.603 86.4082C37.2628 86.1539 36.7329 86.0268 36.0132 86.0268H34.9927V89.2172ZM44.1933 93.0898L44.0161 92.2519H43.9731C43.6795 92.6207 43.3859 92.8714 43.0923 93.0039C42.8022 93.1328 42.4388 93.1972 42.0019 93.1972C41.4183 93.1972 40.9599 93.0468 40.6269 92.746C40.2975 92.4453 40.1328 92.0174 40.1328 91.4624C40.1328 90.2736 41.0835 89.6505 42.9848 89.5932L43.9839 89.561V89.1958C43.9839 88.7338 43.8836 88.3937 43.6831 88.1752C43.4861 87.9532 43.1692 87.8422 42.7324 87.8422C42.2418 87.8422 41.6868 87.9926 41.0674 88.2934L40.7934 87.6113C41.0835 87.4537 41.4004 87.3302 41.7441 87.2407C42.0914 87.1512 42.4388 87.1064 42.7861 87.1064C43.4879 87.1064 44.0071 87.2622 44.3437 87.5737C44.6839 87.8852 44.854 88.3847 44.854 89.0722V93.0898H44.1933ZM42.1792 92.4614C42.7342 92.4614 43.1692 92.3092 43.4844 92.0048C43.803 91.7005 43.9624 91.2744 43.9624 90.7265V90.1948L43.0708 90.2324C42.3618 90.2574 41.8498 90.3684 41.5346 90.5654C41.2231 90.7587 41.0674 91.0613 41.0674 91.4731C41.0674 91.7954 41.164 92.0406 41.3574 92.2089C41.5543 92.3772 41.8283 92.4614 42.1792 92.4614ZM50.4936 91.4838C50.4936 92.0317 50.2895 92.4542 49.8813 92.7514C49.4731 93.0486 48.9002 93.1972 48.1626 93.1972C47.382 93.1972 46.7733 93.0737 46.3364 92.8266V91.9995C46.6193 92.1427 46.9219 92.2555 47.2441 92.3378C47.57 92.4202 47.8833 92.4614 48.1841 92.4614C48.6496 92.4614 49.0076 92.388 49.2583 92.2412C49.5089 92.0908 49.6343 91.8634 49.6343 91.559C49.6343 91.3299 49.534 91.1347 49.3335 90.9736C49.1365 90.8089 48.7498 90.6155 48.1733 90.3935C47.6255 90.1894 47.2352 90.0122 47.0024 89.8618C46.7733 89.7078 46.6014 89.5341 46.4868 89.3408C46.3758 89.1474 46.3203 88.9165 46.3203 88.6479C46.3203 88.1681 46.5154 87.7903 46.9057 87.5146C47.296 87.2353 47.8314 87.0957 48.5117 87.0957C49.1455 87.0957 49.765 87.2246 50.3701 87.4824L50.0532 88.2075C49.4624 87.964 48.9271 87.8422 48.4472 87.8422C48.0247 87.8422 47.706 87.9085 47.4912 88.041C47.2763 88.1735 47.1689 88.3561 47.1689 88.5888C47.1689 88.7464 47.2083 88.8807 47.2871 88.9917C47.3694 89.1027 47.5001 89.2083 47.6792 89.3086C47.8582 89.4088 48.202 89.5538 48.7104 89.7436C49.4087 89.9978 49.8795 90.2539 50.123 90.5117C50.3701 90.7695 50.4936 91.0935 50.4936 91.4838ZM55.7466 91.4838C55.7466 92.0317 55.5425 92.4542 55.1343 92.7514C54.7261 93.0486 54.1531 93.1972 53.4155 93.1972C52.6349 93.1972 52.0262 93.0737 51.5893 92.8266V91.9995C51.8722 92.1427 52.1748 92.2555 52.497 92.3378C52.8229 92.4202 53.1362 92.4614 53.437 92.4614C53.9025 92.4614 54.2606 92.388 54.5112 92.2412C54.7619 92.0908 54.8872 91.8634 54.8872 91.559C54.8872 91.3299 54.7869 91.1347 54.5864 90.9736C54.3895 90.8089 54.0027 90.6155 53.4262 90.3935C52.8784 90.1894 52.4881 90.0122 52.2553 89.8618C52.0262 89.7078 51.8543 89.5341 51.7397 89.3408C51.6287 89.1474 51.5732 88.9165 51.5732 88.6479C51.5732 88.1681 51.7684 87.7903 52.1587 87.5146C52.549 87.2353 53.0843 87.0957 53.7646 87.0957C54.3984 87.0957 55.0179 87.2246 55.623 87.4824L55.3061 88.2075C54.7153 87.964 54.18 87.8422 53.7002 87.8422C53.2776 87.8422 52.959 87.9085 52.7441 88.041C52.5293 88.1735 52.4219 88.3561 52.4219 88.5888C52.4219 88.7464 52.4612 88.8807 52.54 88.9917C52.6224 89.1027 52.7531 89.2083 52.9321 89.3086C53.1111 89.4088 53.4549 89.5538 53.9634 89.7436C54.6616 89.9978 55.1325 90.2539 55.376 90.5117C55.623 90.7695 55.7466 91.0935 55.7466 91.4838ZM62.0093 93.0898L60.9297 89.6362C60.8616 89.4249 60.7345 88.9451 60.5483 88.1967H60.5053C60.3621 88.8234 60.2368 89.3068 60.1294 89.6469L59.0176 93.0898H57.9863L56.3803 87.2031H57.3149C57.6945 88.6819 57.9827 89.8081 58.1797 90.5815C58.3802 91.3549 58.4948 91.8759 58.5234 92.1445H58.5664C58.6058 91.9404 58.6684 91.6772 58.7544 91.3549C58.8439 91.0291 58.9209 90.7713 58.9853 90.5815L60.0649 87.2031H61.0317L62.0845 90.5815C62.285 91.1974 62.421 91.7148 62.4927 92.1337H62.5356C62.5499 92.0048 62.5875 91.8061 62.6484 91.5376C62.7129 91.269 63.0871 89.8242 63.771 87.2031H64.6948L63.0674 93.0898H62.0093ZM70.8447 90.1411C70.8447 91.1007 70.603 91.8509 70.1196 92.3916C69.6362 92.9287 68.9684 93.1972 68.1162 93.1972C67.5898 93.1972 67.1225 93.0737 66.7143 92.8266C66.3061 92.5795 65.991 92.2251 65.769 91.7631C65.547 91.3012 65.436 90.7605 65.436 90.1411C65.436 89.1814 65.6759 88.4349 66.1557 87.9013C66.6356 87.3642 67.3016 87.0957 68.1538 87.0957C68.9774 87.0957 69.6308 87.3696 70.1142 87.9174C70.6012 88.4653 70.8447 89.2065 70.8447 90.1411ZM66.3598 90.1411C66.3598 90.893 66.5102 91.4659 66.811 91.8598C67.1118 92.2537 67.554 92.4506 68.1377 92.4506C68.7213 92.4506 69.1636 92.2555 69.4643 91.8652C69.7687 91.4713 69.9209 90.8966 69.9209 90.1411C69.9209 89.3927 69.7687 88.8252 69.4643 88.4384C69.1636 88.0481 68.7178 87.853 68.1269 87.853C67.5433 87.853 67.1028 88.0446 66.8056 88.4277C66.5084 88.8108 66.3598 89.382 66.3598 90.1411ZM75.0986 87.0957C75.36 87.0957 75.5945 87.1171 75.8022 87.1601L75.6787 87.9873C75.4352 87.9336 75.2204 87.9067 75.0342 87.9067C74.5579 87.9067 74.1497 88.1001 73.8095 88.4868C73.473 88.8735 73.3047 89.3551 73.3047 89.9316V93.0898H72.4131V87.2031H73.1489L73.251 88.2934H73.2939C73.5123 87.9103 73.7755 87.6149 74.0835 87.4072C74.3914 87.1995 74.7298 87.0957 75.0986 87.0957ZM80.9101 92.3002H80.8618C80.45 92.8982 79.8341 93.1972 79.0141 93.1972C78.2443 93.1972 77.6445 92.934 77.2148 92.4077C76.7887 91.8813 76.5757 91.1329 76.5757 90.1626C76.5757 89.1922 76.7905 88.4384 77.2202 87.9013C77.6499 87.3642 78.2479 87.0957 79.0141 87.0957C79.8126 87.0957 80.4249 87.3857 80.8511 87.9658H80.9209L80.8833 87.5415L80.8618 87.1279V84.7324H81.7534V93.0898H81.0283L80.9101 92.3002ZM79.1269 92.4506C79.7357 92.4506 80.1761 92.2859 80.4482 91.9565C80.7239 91.6235 80.8618 91.0882 80.8618 90.3505V90.1626C80.8618 89.3282 80.7221 88.7338 80.4428 88.3794C80.1671 88.0213 79.7249 87.8422 79.1162 87.8422C78.5934 87.8422 78.1924 88.0463 77.9131 88.4545C77.6373 88.8592 77.4995 89.4321 77.4995 90.1733C77.4995 90.9252 77.6373 91.4928 77.9131 91.8759C78.1888 92.2591 78.5934 92.4506 79.1269 92.4506Z" fill="#949494"/>
<path fill-rule="evenodd" clip-rule="evenodd" d="M28 119.09C28 112.463 33.3726 107.09 40 107.09H140C146.627 107.09 152 112.463 152 119.09C152 125.717 146.627 131.09 140 131.09H40C33.3726 131.09 28 125.717 28 119.09Z" fill="#83B84D"/>
<path d="M48.5704 114.641C47.5505 114.641 46.7444 114.982 46.1519 115.663C45.5637 116.34 45.2696 117.269 45.2696 118.45C45.2696 119.664 45.5531 120.604 46.1202 121.268C46.6915 121.928 47.504 122.258 48.5577 122.258C49.2052 122.258 49.9436 122.142 50.773 121.909V122.855C50.1298 123.096 49.3363 123.217 48.3927 123.217C47.0258 123.217 45.97 122.802 45.2252 121.973C44.4846 121.143 44.1143 119.965 44.1143 118.437C44.1143 117.481 44.2921 116.643 44.6475 115.923C45.0072 115.204 45.5235 114.65 46.1964 114.26C46.8735 113.871 47.669 113.676 48.5831 113.676C49.5564 113.676 50.407 113.854 51.1348 114.21L50.6778 115.136C49.9753 114.806 49.2729 114.641 48.5704 114.641ZM55.8131 116.006C56.122 116.006 56.3992 116.031 56.6446 116.082L56.4986 117.06C56.2109 116.996 55.9569 116.965 55.7369 116.965C55.1741 116.965 54.6916 117.193 54.2896 117.65C53.8918 118.107 53.6929 118.676 53.6929 119.358V123.09H52.6392V116.133H53.5089L53.6295 117.422H53.6803C53.9384 116.969 54.2494 116.62 54.6134 116.374C54.9773 116.129 55.3772 116.006 55.8131 116.006ZM60.8848 123.217C59.8565 123.217 59.044 122.904 58.4473 122.278C57.8549 121.651 57.5587 120.782 57.5587 119.669C57.5587 118.547 57.8337 117.656 58.3839 116.996C58.9382 116.336 59.6809 116.006 60.6119 116.006C61.4836 116.006 62.1734 116.294 62.6812 116.869C63.189 117.441 63.4429 118.196 63.4429 119.135V119.802H58.6505C58.6716 120.619 58.8769 121.239 59.2662 121.662C59.6597 122.085 60.212 122.297 60.9229 122.297C61.672 122.297 62.4125 122.14 63.1446 121.827V122.766C62.7722 122.927 62.4189 123.041 62.0846 123.109C61.7545 123.181 61.3546 123.217 60.8848 123.217ZM60.5992 116.888C60.0406 116.888 59.5942 117.07 59.2598 117.434C58.9298 117.798 58.7351 118.302 58.6759 118.945H62.3131C62.3131 118.281 62.165 117.773 61.8687 117.422C61.5725 117.066 61.1493 116.888 60.5992 116.888ZM69.524 123.09L69.3145 122.1H69.2637C68.9167 122.536 68.5697 122.832 68.2227 122.988C67.88 123.141 67.4504 123.217 66.9342 123.217C66.2444 123.217 65.7027 123.039 65.3092 122.684C64.9198 122.328 64.7252 121.823 64.7252 121.167C64.7252 119.762 65.8487 119.025 68.0958 118.958L69.2764 118.92V118.488C69.2764 117.942 69.158 117.54 68.921 117.282C68.6882 117.02 68.3137 116.888 67.7974 116.888C67.2177 116.888 66.5618 117.066 65.8297 117.422L65.5059 116.615C65.8487 116.429 66.2232 116.283 66.6295 116.177C67.04 116.072 67.4504 116.019 67.8609 116.019C68.6903 116.019 69.304 116.203 69.7017 116.571C70.1038 116.939 70.3048 117.529 70.3048 118.342V123.09H69.524ZM67.1436 122.347C67.7996 122.347 68.3137 122.167 68.6861 121.808C69.0627 121.448 69.2511 120.944 69.2511 120.297V119.669L68.1973 119.713C67.3595 119.743 66.7543 119.874 66.3819 120.107C66.0137 120.335 65.8297 120.693 65.8297 121.179C65.8297 121.56 65.9439 121.85 66.1724 122.049C66.4052 122.248 66.7289 122.347 67.1436 122.347ZM74.7291 122.347C74.9153 122.347 75.0951 122.335 75.2686 122.309C75.4421 122.28 75.5797 122.25 75.6812 122.22V123.027C75.567 123.082 75.3977 123.126 75.1734 123.16C74.9534 123.198 74.7545 123.217 74.5767 123.217C73.231 123.217 72.5582 122.508 72.5582 121.09V116.952H71.5616V116.444L72.5582 116.006L73.0025 114.521H73.6119V116.133H75.6304V116.952H73.6119V121.046C73.6119 121.465 73.7113 121.787 73.9102 122.011C74.1091 122.235 74.3821 122.347 74.7291 122.347ZM80.0167 123.217C78.9884 123.217 78.1759 122.904 77.5792 122.278C76.9867 121.651 76.6905 120.782 76.6905 119.669C76.6905 118.547 76.9656 117.656 77.5157 116.996C78.0701 116.336 78.8127 116.006 79.7437 116.006C80.6155 116.006 81.3053 116.294 81.8131 116.869C82.3209 117.441 82.5748 118.196 82.5748 119.135V119.802H77.7823C77.8035 120.619 78.0087 121.239 78.398 121.662C78.7916 122.085 79.3438 122.297 80.0548 122.297C80.8038 122.297 81.5443 122.14 82.2764 121.827V122.766C81.904 122.927 81.5507 123.041 81.2164 123.109C80.8863 123.181 80.4864 123.217 80.0167 123.217ZM79.731 116.888C79.1724 116.888 78.726 117.07 78.3917 117.434C78.0616 117.798 77.8669 118.302 77.8077 118.945H81.4449C81.4449 118.281 81.2968 117.773 81.0006 117.422C80.7043 117.066 80.2812 116.888 79.731 116.888ZM93.7467 123.09L92.5914 120.138H88.8717L87.7291 123.09H86.6373L90.3062 113.772H91.2139L94.8638 123.09H93.7467ZM92.255 119.167L91.1759 116.292C91.0362 115.928 90.8923 115.481 90.7442 114.952C90.6511 115.359 90.5178 115.805 90.3443 116.292L89.2525 119.167H92.255ZM98.7613 123.217C97.7541 123.217 96.9734 122.908 96.419 122.29C95.8689 121.668 95.5938 120.79 95.5938 119.656C95.5938 118.492 95.8731 117.593 96.4317 116.958C96.9945 116.323 97.7943 116.006 98.8311 116.006C99.1654 116.006 99.4998 116.042 99.8341 116.114C100.168 116.186 100.431 116.271 100.621 116.368L100.297 117.263C100.064 117.17 99.8108 117.094 99.5357 117.034C99.2607 116.971 99.0173 116.939 98.8057 116.939C97.3923 116.939 96.6856 117.84 96.6856 119.643C96.6856 120.498 96.857 121.154 97.1998 121.611C97.5468 122.068 98.0588 122.297 98.7359 122.297C99.3157 122.297 99.9102 122.172 100.519 121.922V122.855C100.054 123.096 99.468 123.217 98.7613 123.217ZM104.956 123.217C103.949 123.217 103.168 122.908 102.614 122.29C102.064 121.668 101.789 120.79 101.789 119.656C101.789 118.492 102.068 117.593 102.627 116.958C103.19 116.323 103.989 116.006 105.026 116.006C105.361 116.006 105.695 116.042 106.029 116.114C106.363 116.186 106.626 116.271 106.816 116.368L106.493 117.263C106.26 117.17 106.006 117.094 105.731 117.034C105.456 116.971 105.212 116.939 105.001 116.939C103.587 116.939 102.881 117.84 102.881 119.643C102.881 120.498 103.052 121.154 103.395 121.611C103.742 122.068 104.254 122.297 104.931 122.297C105.511 122.297 106.105 122.172 106.715 121.922V122.855C106.249 123.096 105.663 123.217 104.956 123.217ZM114.376 119.605C114.376 120.739 114.091 121.626 113.519 122.265C112.948 122.9 112.159 123.217 111.152 123.217C110.53 123.217 109.977 123.071 109.495 122.779C109.013 122.487 108.64 122.068 108.378 121.522C108.115 120.976 107.984 120.337 107.984 119.605C107.984 118.471 108.268 117.589 108.835 116.958C109.402 116.323 110.189 116.006 111.196 116.006C112.169 116.006 112.942 116.33 113.513 116.977C114.089 117.625 114.376 118.501 114.376 119.605ZM109.076 119.605C109.076 120.494 109.254 121.171 109.609 121.636C109.965 122.102 110.487 122.335 111.177 122.335C111.867 122.335 112.39 122.104 112.745 121.643C113.105 121.177 113.285 120.498 113.285 119.605C113.285 118.721 113.105 118.05 112.745 117.593C112.39 117.132 111.863 116.901 111.164 116.901C110.475 116.901 109.954 117.127 109.603 117.58C109.252 118.033 109.076 118.708 109.076 119.605ZM117.22 116.133V120.646C117.22 121.213 117.349 121.636 117.607 121.916C117.865 122.195 118.27 122.335 118.82 122.335C119.548 122.335 120.079 122.136 120.413 121.738C120.752 121.34 120.921 120.691 120.921 119.789V116.133H121.974V123.09H121.105L120.953 122.157H120.895C120.68 122.5 120.379 122.762 119.994 122.944C119.613 123.126 119.177 123.217 118.686 123.217C117.84 123.217 117.205 123.016 116.782 122.614C116.363 122.212 116.154 121.569 116.154 120.684V116.133H117.22ZM128.976 123.09V118.59C128.976 118.022 128.847 117.599 128.589 117.32C128.331 117.041 127.926 116.901 127.376 116.901C126.648 116.901 126.115 117.098 125.777 117.491C125.438 117.885 125.269 118.534 125.269 119.44V123.09H124.215V116.133H125.072L125.244 117.085H125.294C125.51 116.742 125.813 116.478 126.202 116.292C126.591 116.101 127.025 116.006 127.503 116.006C128.341 116.006 128.972 116.209 129.395 116.615C129.818 117.017 130.03 117.663 130.03 118.551V123.09H128.976ZM134.448 122.347C134.634 122.347 134.814 122.335 134.987 122.309C135.161 122.28 135.298 122.25 135.4 122.22V123.027C135.286 123.082 135.116 123.126 134.892 123.16C134.672 123.198 134.473 123.217 134.295 123.217C132.95 123.217 132.277 122.508 132.277 121.09V116.952H131.28V116.444L132.277 116.006L132.721 114.521H133.33V116.133H135.349V116.952H133.33V121.046C133.33 121.465 133.43 121.787 133.629 122.011C133.828 122.235 134.101 122.347 134.448 122.347Z" fill="white"/>
</g>
<defs>
<clipPath id="clip0_1_11742">
<rect width="180" height="180" fill="white" transform="translate(0 0.0898438)"/>
</clipPath>
</defs>
</svg>
