<svg width="159" height="48" viewBox="0 0 159 48" fill="none" xmlns="http://www.w3.org/2000/svg">
<g id="Frame">
<path id="Vector" fill-rule="evenodd" clip-rule="evenodd" d="M20.9804 30.0703C20.313 29.7332 20.3412 28.8993 20.3238 28.2601C20.3305 26.0444 20.3251 23.8314 20.3305 21.617C21.4075 21.6143 22.4858 21.6143 23.5654 21.6143C23.5722 20.4809 23.5654 19.3476 23.5681 18.2128C22.4885 18.2128 21.4075 18.2128 20.3278 18.2102C20.3305 16.6645 20.3238 15.1189 20.3305 13.5719C18.6022 13.5679 16.8726 13.5679 15.1417 13.5719C15.1471 15.1162 15.1417 16.6632 15.1471 18.2075C14.2635 18.2155 13.3799 18.2128 12.4976 18.2155C12.4976 19.3476 12.4976 20.4809 12.499 21.6143C13.3839 21.6143 14.2675 21.6089 15.1538 21.625C15.1417 24.3443 15.1377 27.0623 15.1511 29.7802C15.2115 31.2211 15.566 32.9494 16.9868 33.6557C19.0454 34.5944 21.382 34.221 23.5654 34.127C23.5681 32.8312 23.5681 31.534 23.5654 30.2408C22.71 30.2448 21.7835 30.4597 20.9804 30.0703Z" fill="#C1C1C1"/>
<path id="Vector_2" fill-rule="evenodd" clip-rule="evenodd" d="M67.2959 17.7728C65.3649 17.762 63.3586 18.6792 62.3716 20.3927C62.4079 18.1179 62.377 15.8444 62.3891 13.5723C60.6595 13.5696 58.9312 13.5683 57.203 13.5723C57.2245 18.1837 57.1842 22.7924 57.1627 27.4024C57.1627 27.6078 57.0861 27.7811 56.9331 27.9194C55.331 27.7099 53.7035 27.8778 52.0907 27.8267C51.9094 28.6351 51.6221 29.5026 50.909 30.0035C49.8186 30.734 48.1817 30.7179 47.2269 29.7591C46.307 28.8755 46.0586 27.5286 46.0479 26.3039C46.0801 25.1558 46.1821 23.919 46.8616 22.9522C47.8553 21.5583 50.1624 21.3622 51.3347 22.6299C51.7107 23.0099 51.8315 23.5403 51.9551 24.0426C53.6484 24.0426 55.3418 24.0506 57.0365 24.0385C56.9008 22.7574 56.4792 21.4858 55.6573 20.4773C54.4555 18.9437 52.5527 18.1246 50.6633 17.8547C49.0303 17.6774 47.3263 17.7338 45.782 18.3515C44.3156 18.9155 43.0412 19.9603 42.2019 21.291C40.9289 23.2731 40.612 25.7534 40.9625 28.051C41.3425 30.4265 42.9015 32.571 45.0635 33.6332C48.4301 35.2581 52.8615 34.7465 55.5029 31.999C55.6251 31.7653 55.7366 31.5303 55.9152 31.3383C56.6618 30.5581 56.6699 29.3992 57.1748 28.4888C57.2352 30.354 57.1909 32.2192 57.203 34.0858C58.9312 34.0871 60.6608 34.0871 62.3891 34.0871C62.3891 31.349 62.3864 28.6123 62.3891 25.8769C62.3958 24.8912 62.5153 23.8304 63.1518 23.0341C63.9844 21.9477 65.671 21.8134 66.8004 22.4822C67.6947 23.077 67.7431 24.2628 67.7793 25.2283C67.7968 28.1799 67.7807 31.1328 67.786 34.0831C69.5129 34.0871 71.2425 34.0898 72.9721 34.0858C72.9721 30.4869 72.9695 26.8894 72.9735 23.2879C72.9359 21.7986 72.5679 20.1899 71.444 19.1304C70.3549 18.0749 68.7636 17.762 67.2959 17.7728Z" fill="#C1C1C1"/>
<path id="Vector_3" fill-rule="evenodd" clip-rule="evenodd" d="M28.5459 24.468C28.7742 23.2782 29.4335 22.079 30.5978 21.5889C31.8762 21.0289 33.5319 21.3754 34.3511 22.5437C34.7768 23.0983 34.9554 23.7872 35.0601 24.468C32.8887 24.4841 30.7187 24.4814 28.5459 24.468ZM36.9844 19.2429C33.5628 16.8768 28.4183 17.367 25.55 20.4058C24.0876 21.8978 23.298 24.0007 23.3423 26.0834C23.2953 28.0467 23.8338 30.0663 25.076 31.612C26.3557 33.2234 28.3378 34.15 30.3507 34.4226C32.6322 34.7073 35.0816 34.483 37.0784 33.265C38.5502 32.3787 39.6097 30.8936 40.0247 29.2351C38.3998 29.2257 36.7763 29.2217 35.1541 29.2351C34.1416 31.279 31.0571 31.5368 29.5249 29.963C28.8669 29.2781 28.6345 28.3139 28.5459 27.3968C32.4657 27.382 36.3882 27.4035 40.308 27.386C40.4181 24.3847 39.5345 21.0706 36.9844 19.2429Z" fill="#C1C1C1"/>
<g id="Mask group">
<mask id="mask0_62_4001" style="mask-type:alpha" maskUnits="userSpaceOnUse" x="100" y="13" width="18" height="22">
<g id="Group">
<path id="Vector_4" fill-rule="evenodd" clip-rule="evenodd" d="M100.932 13.4598H117.464V34.6639H100.932V13.4598Z" fill="white"/>
</g>
</mask>
<g mask="url(#mask0_62_4001)">
<g id="Group_2">
<path id="Vector_5" fill-rule="evenodd" clip-rule="evenodd" d="M111.571 29.6009C110.642 30.8377 108.614 30.9867 107.491 29.9353C106.676 29.2209 106.354 28.1251 106.217 27.0871C106.054 25.7737 106.167 24.353 106.891 23.2102C107.245 22.6288 107.823 22.1964 108.483 22.0245C109.538 21.7049 110.801 22.0137 111.492 22.9014C112.27 23.8964 112.453 25.2165 112.445 26.4465C112.402 27.5383 112.243 28.6998 111.571 29.6009ZM112.278 20.0787C110.186 17.1499 105.395 17.1956 103.045 19.7779C101.52 21.4471 100.886 23.7783 100.934 26.0047C100.916 28.391 101.535 30.9155 103.193 32.7083C104.506 34.1357 106.502 34.783 108.413 34.646C110.045 34.6259 111.571 33.7181 112.499 32.3981C112.493 32.9997 112.496 33.6026 112.499 34.2082H117.462C117.462 27.2912 117.467 20.3768 117.462 13.4611C115.736 13.4611 114.008 13.4544 112.283 13.4678C112.278 15.6701 112.283 17.8737 112.278 20.0787Z" fill="#C1C1C1"/>
</g>
</g>
</g>
<path id="Vector_6" fill-rule="evenodd" clip-rule="evenodd" d="M84.9602 18.083C83.8054 17.895 82.5888 17.9312 81.4916 18.3771C80.2966 18.8323 79.4209 19.8488 78.8905 20.9876C78.9241 20.1013 78.9147 19.219 78.9106 18.3354C77.22 18.3314 75.5293 18.3341 73.8373 18.3341C73.8373 23.625 73.836 28.9158 73.84 34.208H79.0208C79.0302 31.6109 79.0033 29.0165 79.0315 26.4194C79.0234 25.141 79.6277 23.8452 80.7437 23.1778C82.01 22.3868 83.5892 22.5359 84.9669 22.9146C84.9508 21.3032 84.9642 19.6917 84.9602 18.083Z" fill="#C1C1C1"/>
<g id="Mask group_2">
<mask id="mask1_62_4001" style="mask-type:alpha" maskUnits="userSpaceOnUse" x="84" y="17" width="17" height="18">
<g id="Group_3">
<path id="Vector_7" fill-rule="evenodd" clip-rule="evenodd" d="M84.6741 17.8932H100.868V34.6743H84.6741V17.8932Z" fill="white"/>
</g>
</mask>
<g mask="url(#mask1_62_4001)">
<g id="Group_4">
<path id="Vector_8" fill-rule="evenodd" clip-rule="evenodd" d="M94.4612 30.4453C93.6609 31.4149 92.1918 31.5827 91.049 31.2309C90.2218 31.0107 89.7411 30.0841 89.9317 29.2717C90.0284 28.6432 90.5495 28.1772 91.1135 27.9463C92.4321 27.3917 93.9173 27.4131 95.232 26.8397C95.1931 28.0631 95.2293 29.4167 94.4612 30.4453ZM100.23 22.5319C100.165 21.4146 99.7224 20.2906 98.8927 19.5212C97.5604 18.2938 95.6657 18.0051 93.9254 17.9124C91.6882 17.8319 89.2711 17.9567 87.3535 19.2405C86.0173 20.108 85.3069 21.6859 85.2573 23.2463C86.8929 23.2449 88.5285 23.2557 90.1654 23.2395C90.3789 22.4499 90.8798 21.6671 91.711 21.4388C92.7679 21.1541 94.0516 21.2387 94.8842 22.0175C95.5623 22.6661 95.3005 24.0224 94.335 24.2198C91.8708 24.8604 89.173 24.6697 86.8727 25.8823C85.785 26.4235 84.9699 27.4736 84.7725 28.6781C84.5603 30.0384 84.6449 31.5572 85.4896 32.704C86.2845 33.828 87.6368 34.4323 88.9729 34.6001C91.1994 34.8835 93.6367 34.3732 95.2938 32.7832C95.4119 33.2371 95.3126 33.8441 95.6604 34.1852C97.3945 34.2416 99.1335 34.1919 100.868 34.2026C100.531 33.3808 100.316 32.5053 100.299 31.6136C100.167 28.5868 100.288 25.5573 100.23 22.5319Z" fill="#C1C1C1"/>
</g>
</g>
</g>
<g id="Mask group_3">
<mask id="mask2_62_4001" style="mask-type:alpha" maskUnits="userSpaceOnUse" x="117" y="17" width="17" height="18">
<g id="Group_5">
<path id="Vector_9" fill-rule="evenodd" clip-rule="evenodd" d="M117.717 17.8939H133.913V34.6743H117.717V17.8939Z" fill="white"/>
</g>
</mask>
<g mask="url(#mask2_62_4001)">
<g id="Group_6">
<path id="Vector_10" fill-rule="evenodd" clip-rule="evenodd" d="M127.511 30.4388C126.676 31.4446 125.127 31.6084 123.955 31.1773C122.762 30.7637 122.593 28.9563 123.611 28.262C125 27.3394 126.782 27.5113 128.274 26.8426C128.239 28.0606 128.271 29.4101 127.511 30.4388ZM133.273 22.5266C133.215 21.5088 132.839 20.4909 132.147 19.7322C130.882 18.3826 128.941 18.0348 127.176 17.9233C124.876 17.8226 122.382 17.9166 120.405 19.234C119.062 20.1001 118.353 21.6806 118.3 23.2451C119.937 23.2464 121.574 23.2504 123.211 23.2424C123.42 22.4501 123.924 21.6672 124.755 21.4389C125.81 21.1556 127.095 21.2402 127.928 22.0177C128.605 22.6717 128.342 24.0306 127.37 24.2227C124.911 24.8565 122.224 24.6739 119.928 25.8757C118.836 26.4169 118.018 27.467 117.816 28.6729C117.604 30.0346 117.688 31.5533 118.532 32.7028C119.327 33.8268 120.679 34.4324 122.015 34.6003C124.244 34.8836 126.685 34.376 128.342 32.7767C128.408 33.24 128.483 33.7019 128.558 34.1652C130.341 34.2592 132.127 34.1813 133.913 34.2082C133.574 33.3769 133.357 32.496 133.34 31.595C133.211 28.5735 133.332 25.5481 133.273 22.5266Z" fill="#C1C1C1"/>
</g>
</g>
</g>
<path id="Vector_11" fill-rule="evenodd" clip-rule="evenodd" d="M145.652 22.9095C145.64 21.2981 145.658 19.688 145.644 18.0766C144.49 17.902 143.28 17.9315 142.189 18.3747C140.99 18.8272 140.106 19.8478 139.584 20.9892C139.608 20.1043 139.601 19.218 139.601 18.3331H134.526V34.2083H139.709C139.726 31.5333 139.672 28.8597 139.736 26.1888C139.755 24.6633 140.807 23.2076 142.286 22.7954C143.387 22.4382 144.56 22.6356 145.652 22.9095Z" fill="#C1C1C1"/>
<g id="Mask group_4">
<mask id="mask3_62_4001" style="mask-type:alpha" maskUnits="userSpaceOnUse" x="141" y="28" width="6" height="7">
<g id="Group_7">
<path id="Vector_12" fill-rule="evenodd" clip-rule="evenodd" d="M141.057 28.4836H146.783V34.2633H141.057V28.4836Z" fill="white"/>
</g>
</mask>
<g mask="url(#mask3_62_4001)">
<g id="Group_8">
<path id="Vector_13" fill-rule="evenodd" clip-rule="evenodd" d="M146.779 28.4836C144.871 28.4863 142.964 28.4836 141.057 28.4863C141.065 30.4106 141.052 32.3349 141.061 34.2592C142.968 34.2632 144.875 34.2659 146.783 34.2592C146.779 32.3349 146.787 30.4092 146.779 28.4836Z" fill="#C1C1C1"/>
</g>
</g>
</g>
</g>
</svg>
