<svg width="158" height="48" viewBox="0 0 158 48" fill="none" xmlns="http://www.w3.org/2000/svg">
<g id="Frame">
<g id="Mask group">
<mask id="mask0_62_3994" style="mask-type:alpha" maskUnits="userSpaceOnUse" x="57" y="10" width="45" height="26">
<g id="Group">
<path id="Vector" fill-rule="evenodd" clip-rule="evenodd" d="M57.2487 10.1985H101.362V35.1411H57.2487V10.1985Z" fill="white"/>
</g>
</mask>
<g mask="url(#mask0_62_3994)">
<g id="Group_2">
<path id="Vector_2" fill-rule="evenodd" clip-rule="evenodd" d="M71.1807 15.3696L73.1441 15.3687L69.3266 29.4399L65.6999 15.3101H67.7228V10.2236L57.2485 10.2111V15.2708H58.7631L65.1349 35.1413H72.9619L79.1256 15.2372H80.6708L80.6756 10.1977H71.1807V15.3696ZM93.5853 29.5502C92.5666 30.4509 89.5155 30.2398 89.5155 30.2398V25.1389C89.5155 25.1389 91.0981 25.136 91.6746 25.1427C92.252 25.1523 92.8697 25.0209 93.8126 25.8401C94.7555 26.6573 94.7075 28.5584 93.5853 29.5502ZM89.5164 15.1068C89.5164 15.1068 90.9149 15.0761 91.4252 15.0838C91.9364 15.0914 92.4822 14.962 93.3158 15.7801C94.1483 16.5983 94.1061 18.5253 93.1153 19.5171C92.2137 20.4188 89.5164 20.2077 89.5164 20.2077V15.1068ZM100.541 25.2732C99.5948 23.4776 96.746 22.5357 96.746 22.5357C96.746 22.5357 99.8662 20.9569 100.45 18.9387C101.034 16.9197 100.687 14.0181 98.9473 12.3587C97.2074 10.6993 95.2562 10.214 93.1239 10.214H80.8675L80.8608 15.2037H82.829V30.141L80.7063 30.1535V35.0837H94.6874C94.6874 35.0837 99.3339 34.9648 100.692 31.5012C102.049 28.0376 101.002 26.147 100.541 25.2732Z" fill="#C1C1C1"/>
</g>
</g>
</g>
</g>
</svg>
