<svg width="36" height="36" viewBox="0 0 36 36" fill="none" xmlns="http://www.w3.org/2000/svg">
<g id="Frame" clip-path="url(#clip0_62_4050)">
<g id="Group" opacity="0.6">
<path id="Vector" fill-rule="evenodd" clip-rule="evenodd" d="M8.15735 4.78503C8.15735 2.36879 10.1161 0.410034 12.5324 0.410034H24.5636C26.9798 0.410034 28.9386 2.36879 28.9386 4.78503V31.035C28.9386 33.4512 26.9798 35.41 24.5636 35.41H12.5324C10.1161 35.41 8.15735 33.4512 8.15735 31.035V4.78503ZM10.3438 4.78611C10.3438 3.57798 11.3232 2.59861 12.5313 2.59861H14.7188C14.7193 3.5042 15.4537 4.23816 16.3594 4.23816H20.7344C21.6401 4.23816 22.3745 3.5042 22.375 2.59861H24.5625C25.7707 2.59861 26.75 3.57798 26.75 4.78611V31.0339C26.75 32.2421 25.7707 33.2214 24.5625 33.2214H12.5313C11.3232 33.2214 10.3438 32.2421 10.3438 31.0339V4.78611Z" fill="#F6F6F6"/>
</g>
</g>
<defs>
<clipPath id="clip0_62_4050">
<rect width="35" height="35" fill="white" transform="translate(0.5 0.410034)"/>
</clipPath>
</defs>
</svg>
