<svg width="100" height="100" viewBox="0 0 100 100" fill="none" xmlns="http://www.w3.org/2000/svg">
<g clip-path="url(#clip0_320_676)">
<mask id="mask0_320_676" style="mask-type:luminance" maskUnits="userSpaceOnUse" x="0" y="0" width="100" height="100">
<path d="M50.0298 99.9995C77.6203 99.983 99.983 77.6191 99.9995 50.0298V49.9697C99.983 22.3792 77.6191 0.0164804 50.0298 0H49.9697C22.3792 0.0164804 0.0164804 22.3804 0 49.9697V50.0298C0.0164804 77.6203 22.3804 99.983 49.9697 99.9995H50.0298Z" fill="white"/>
</mask>
<g mask="url(#mask0_320_676)">
<path d="M0 0H99.9995V99.9995H0V0Z" fill="#E9E9E9"/>
</g>
<mask id="mask1_320_676" style="mask-type:luminance" maskUnits="userSpaceOnUse" x="0" y="0" width="100" height="100">
<path d="M50.0298 99.9995C77.6203 99.983 99.983 77.6191 99.9995 50.0298V49.9697C99.983 22.3792 77.6191 0.0164804 50.0298 0H49.9697C22.3792 0.0164804 0.0164804 22.3804 0 49.9697V50.0298C0.0164804 77.6203 22.3804 99.983 49.9697 99.9995H50.0298Z" fill="white"/>
</mask>
<g mask="url(#mask1_320_676)">
<path fill-rule="evenodd" clip-rule="evenodd" d="M65.0916 50.6325L46.3028 52.2476L52.3429 77.3002C52.3429 77.3002 57.3576 83.7393 61.6755 82.4444C66.7138 80.9364 71.1705 71.665 71.1705 71.665L65.0916 50.6313V50.6325Z" fill="#DEA87F"/>
<path fill-rule="evenodd" clip-rule="evenodd" d="M49.759 72.0782C50.7772 75.731 53.4035 78.0618 60.1946 77.7581C65.3424 77.5274 69.127 74.9152 71.1058 70.9128C88.3243 72.223 102.327 80.7304 103.786 99.823H20.4498C20.3744 99.7312 20.2979 99.6393 20.2367 99.5452C19.94 81.332 33.0255 74.6504 49.7601 72.0782H49.759Z" fill="#CDE1DE"/>
<path fill-rule="evenodd" clip-rule="evenodd" d="M49.6401 18.285C37.4599 18.943 33.3951 24.6394 36.2945 43.1127C36.424 43.9509 35.534 45.2128 35.6353 46.1121C36.1026 50.2381 36.7442 52.1298 37.5941 55.579C39.6883 64.0899 40.69 71.3837 53.5907 69.3354C65.0681 67.5119 71.4166 57.0316 71.619 42.6501C71.8604 25.2021 61.2399 17.6587 49.6401 18.2838V18.285Z" fill="#DEA87F"/>
<path fill-rule="evenodd" clip-rule="evenodd" d="M72.29 46.4288L68.4677 41.3176C68.4677 41.3176 63.785 45.5283 64.4371 42.1851C65.8215 35.0986 59.1516 32.3405 59.1128 30.6854C59.0786 29.0361 59.8273 28.969 58.8149 26.3004C57.8014 23.6329 55.2858 24.0496 52.9279 25.6365C51.5942 26.5311 46.6571 28.0344 43.7919 28.4852C41.58 28.8337 41.4846 26.69 41.4846 26.69C41.4846 26.69 38.5806 27.2021 37.4775 29.0032C36.3745 30.8043 34.4216 27.939 33.3516 28.7101C32.0908 29.6271 33.1149 18.7759 39.5482 15.6235C45.9826 12.471 55.2411 11.2503 60.5995 13.0349C62.0121 13.4292 69.4707 16.4004 73.6014 26.0308C78.5208 37.4965 73.1446 54.8374 72.3183 56.9987C71.486 59.1823 69.0869 62.2559 68.8068 58.9186C68.5702 56.0922 72.2912 46.4288 72.2912 46.4288H72.29Z" fill="#66462A"/>
<path fill-rule="evenodd" clip-rule="evenodd" d="M38.451 56.0592C38.451 56.0592 43.1515 54.1169 46.7536 53.8697C50.3558 53.6225 52.8431 55.991 54.4253 57.1681C56.0062 58.3394 58.3029 54.9904 59.8791 53.38C61.4553 51.7696 66.2841 45.9956 66.2841 45.9956C66.2841 45.9956 67.9674 52.7384 67.9227 53.9097C67.8839 55.081 65.1928 62.8821 62.2487 64.4972C59.3046 66.1123 57.2846 69.5237 50.8678 69.7827C44.5641 70.0358 42.2674 67.8357 40.703 65.6685C39.1444 63.4954 38.451 56.0604 38.451 56.0604V56.0592Z" fill="#D49C7E"/>
<path fill-rule="evenodd" clip-rule="evenodd" d="M70.3547 41.892C68.7161 41.2445 66.775 43.1245 66.0098 46.0968C65.2493 49.0633 65.9592 51.9957 67.5966 52.6431C69.2352 53.2905 71.1764 51.4106 71.9416 48.4441C72.702 45.4718 71.9922 42.5394 70.3547 41.8932V41.892Z" fill="#DEA87F"/>
<path fill-rule="evenodd" clip-rule="evenodd" d="M16.1202 63.9524C14.7111 63.9665 14.4038 68.0089 15.9777 67.312C16.6699 67.0059 18.3886 65.3226 17.2832 64.3491C16.7958 63.9218 16.3226 63.95 16.1202 63.9524Z" fill="#3B6B74"/>
<path fill-rule="evenodd" clip-rule="evenodd" d="M23.5328 64.9353C22.1237 64.9494 21.8165 68.9918 23.3904 68.2949C24.0825 67.9889 25.8012 66.3055 24.6959 65.332C24.2085 64.9047 23.7353 64.9329 23.5328 64.9353Z" fill="#3B6B74"/>
<path fill-rule="evenodd" clip-rule="evenodd" d="M28.8524 65.9311C27.4681 66.1948 27.8824 70.2277 29.308 69.2625C29.9342 68.8387 31.328 66.8763 30.0673 66.1159C29.5128 65.7816 29.0514 65.8934 28.8524 65.9311Z" fill="#3B6B74"/>
<path fill-rule="evenodd" clip-rule="evenodd" d="M35.1314 65.9488C33.8801 66.5986 35.434 70.3432 36.5229 69.0106C37.002 68.4244 37.7754 66.1466 36.3486 65.7781C35.7212 65.6157 35.3115 65.8558 35.1314 65.9488Z" fill="#3B6B74"/>
<path fill-rule="evenodd" clip-rule="evenodd" d="M43.294 62.4938C42.0426 63.1436 43.5965 66.8881 44.6854 65.5556C45.1645 64.9693 45.9379 62.6915 44.5112 62.3231C43.8837 62.1606 43.4741 62.4008 43.294 62.4938Z" fill="#3B6B74"/>
<path fill-rule="evenodd" clip-rule="evenodd" d="M76.6527 26.7441L62.9739 28.3628C62.9057 28.504 62.8539 28.5287 62.8974 28.7124C61.546 28.9078 60.144 29.0608 58.8079 29.268C52.0616 30.3157 46.1357 31.4787 43.7731 32.4817C38.5241 33.9767 39.4152 34.1968 34.4099 38.9491C26.7288 46.2404 18.4157 51.6919 16.3827 60.277C16.0919 61.5036 15.1702 62.2535 16.8406 64.0051C18.4769 65.7214 18.7877 63.7462 22.6323 64.4748C24.5381 64.9634 25.9225 65.1505 27.2197 65.2106C28.637 65.2753 30.2427 68.1335 32.597 65.9745C32.9808 65.5896 33.062 65.0046 33.66 64.9445C35.2892 64.7821 34.4911 66.2335 35.5412 66.5761C35.9508 66.7103 36.643 66.675 37.8719 66.3089C38.8773 66.0087 40.5783 64.3489 42.7148 62.5902C44.6007 62.8339 46.4088 63.6791 47.9638 62.1523C49.5495 60.596 50.1746 57.4777 51.8838 55.6755C53.6154 53.8485 55.2317 53.7743 58.6749 53.3506C60.2947 53.1528 63.2647 52.4171 63.3671 52.4124C67.0929 52.2322 70.8598 54.8891 74.2924 57.7414C76.6032 59.6614 78.5044 62.3924 80.7881 65.4495C81.6627 66.6208 82.4432 68.1605 83.7981 68.9916C88.4173 71.8263 92.5362 71.1035 92.0972 73.067C103.263 71.5826 109.987 60.3335 111.44 45.5094C112.662 33.0573 108.999 14.7335 95.9359 21.494C85.1036 27.1008 86.3643 22.9419 76.6527 26.7465V26.7441Z" fill="#8DBAB1"/>
<path fill-rule="evenodd" clip-rule="evenodd" d="M63.5637 52.5737C64.3477 52.4677 65.6849 53.1705 66.4972 53.2494C66.9575 53.5378 66.8339 53.4707 67.1611 53.6731C67.2941 53.8226 67.4283 53.9686 67.5637 54.1146L68.5702 54.483C68.5243 54.423 68.4819 54.3653 68.4454 54.3123C68.6255 54.35 68.9245 54.5054 69.2682 54.7126C69.3224 54.7385 69.3671 54.7667 69.406 54.7973C70.1076 55.2364 70.9422 55.8533 71.3083 56.1381C72.323 56.9292 73.0493 57.4248 74.0699 58.1358C74.848 58.6761 76.0028 59.3695 76.6314 59.2847C78.0982 59.1658 82.655 61.0575 83.7251 61.5225C82.7657 60.4901 80.3007 59.5872 78.8398 59.074C78.7963 59.0658 78.7409 59.0469 78.7115 59.0387L77.9122 58.7703C74.0181 57.3836 73.5743 56.3842 72.5584 55.9027C73.4107 55.931 76.5679 56.1264 77.346 56.4995C77.8439 56.4736 78.2218 56.5725 78.7539 56.6396C79.3389 56.715 79.5449 56.6973 79.9805 57.0705C80.9458 56.9845 81.9864 57.5778 82.8787 57.8698C82.3313 57.473 80.5338 56.6149 79.658 56.5207C77.2506 56.0334 74.6456 55.6025 72.6361 55.0551C73.0387 55.0045 78.821 55.147 79.6132 55.4L80.243 55.3035L78.8386 54.9492L76.1429 54.7244C74.7103 54.795 73.2636 54.6325 72.0511 54.4701C71.3024 54.37 68.7574 53.6979 68.5478 53.7249C71.3448 54.1464 74.0994 53.8073 76.1512 53.3989L75.4625 53.3883C75.2071 53.3847 75.0305 53.32 74.9175 53.2235C74.2818 53.247 73.6567 53.2517 73.054 53.2494C71.4013 53.2435 68.6161 53.1787 67.3965 52.9021L72.7621 51.0398L73.8345 50.523C73.4802 50.3865 73.8451 50.4371 73.3978 50.463L72.5078 50.7514C70.9492 51.3977 67.3412 52.2323 65.712 51.7885L66.3818 51.4047C66.6537 51.0222 67.5708 51.1705 68.0346 50.3676C64.0345 51.7179 55.573 51.0186 51.1092 55.5142C49.7743 56.8597 48.7031 58.682 47.4953 61.2977C46.3193 63.8451 43.5141 60.9563 41.8755 62.363C38.9879 64.8433 37.5199 67.22 35.1397 64.8198C33.7342 63.4025 31.76 67.6426 30.1685 65.645C28.5111 62.7397 27.0926 65.1859 25.7482 65.0835C23.9907 65.0788 24.0543 63.8745 22.6158 63.2694C21.7447 63.0175 21.2279 63.5955 20.1308 63.5225C18.3215 63.4025 17.0301 63.0352 16.4945 62.3465C15.5916 61.1858 16.5922 59.0681 19.9283 54.2158C22.0566 51.7649 24.0637 48.855 25.4645 47.4765C28.5829 44.41 32.5629 40.6454 35.7518 37.9744C36.9055 37.0138 37.5976 36.1639 38.2686 35.6777C42.1992 32.8302 41.6695 33.0067 51.2728 30.7513C55.7543 29.6977 61.094 28.7913 63.333 28.7854C64.25 28.5794 66.5172 28.2015 67.2317 28.4428C67.7532 28.2651 68.1335 28.2686 68.6855 28.2062L70.0652 28.1309L74.0252 27.5505C76.5632 27.0703 79.5967 32.1239 79.851 32.1321C79.9099 32.1344 79.9181 32.1909 79.9546 32.2168C79.532 31.1739 78.5655 29.8543 77.851 29.0703C76.7574 27.8707 76.2877 27.9119 75.3448 27.1762C76.7174 27.0079 78.4702 29.3469 79.5862 30.1262C79.0352 28.8878 78.0111 28.4063 77.3154 27.6294C78.0699 27.7613 79.7992 29.0091 80.5102 29.4729C80.1171 28.8925 79.2389 28.2616 78.7103 27.9002C77.8969 27.3445 77.2094 27.1338 76.6562 26.7442C77.9887 26.5193 78.9352 26.2521 80.0817 26.6947C83.0659 27.8472 85.266 30.1697 86.9564 33.1009C87.1824 33.394 87.3661 33.613 87.452 34.0626C87.5497 33.786 87.7027 34.138 87.3484 33.4011L84.7104 29.4917C83.16 27.7106 81.6285 27.3598 80.8128 26.7159C82.6115 26.7501 87.0553 30.643 88.4291 31.9261C87.4708 30.557 86.1524 29.3316 84.9034 28.3734C82.8257 26.776 83.0164 26.9419 80.8022 26.1003C83.7651 25.6883 86.7716 27.4316 88.8022 29.3869L89.6969 30.1521C89.751 30.1497 89.7663 30.1945 89.8016 30.2133C88.9423 28.2015 86.5597 26.9019 85.2436 26.2462C83.5779 25.4163 81.3649 25.2339 79.0482 25.8425C75.8887 26.6535 72.0063 27.4611 68.8692 27.7495C66.9045 27.9531 64.941 28.158 62.9774 28.3604C62.8315 28.3675 62.6867 28.3746 62.5407 28.3816C60.7679 28.5052 58.2311 29.1162 56.4347 29.4458C55.9933 29.4411 54.4465 29.7577 53.7166 29.8178C53.234 29.8496 52.4806 29.9473 52.0262 29.9108C49.8096 30.7065 47.3999 30.9361 44.9761 31.4423C42.3958 31.9814 39.799 32.8337 37.394 35.015C32.9761 39.0233 28.0802 42.9585 24.0449 47.5071C23.9272 47.9144 21.5351 50.2758 21.1796 50.7585C18.5828 52.908 15.4857 56.7773 14.4674 62.6644C15.6505 66.0393 18.0083 65.3118 19.76 64.8598C20.8218 64.5855 21.9118 64.0405 22.6723 65.0434C23.9307 66.7068 24.7594 66.1841 27.2173 66.097C27.9119 66.0723 28.7536 66.8045 29.8507 67.0411C30.4687 67.1729 31.4481 67.3578 31.9437 66.7692C34.5182 63.7109 34.298 67.5261 36.7807 66.5714C39.2869 65.9145 40.3699 64.3807 42.5323 63.2812C44.5947 63.0116 46.0827 63.9487 47.1304 63.3907C48.4912 62.6679 49.6884 61.4048 51.7884 56.3194C52.5301 55.0551 55.2623 53.9698 57.0386 53.7461C60.835 53.2694 61.2093 52.8844 63.5672 52.569L63.5637 52.5737Z" fill="#102B30"/>
<path fill-rule="evenodd" clip-rule="evenodd" d="M31.992 59.3235C32.6959 58.5407 32.8195 57.307 33.374 56.3041C35.0797 53.4259 38.1945 50.8643 40.211 48.6254L36.5876 50.4853C33.009 52.8561 30.8842 56.1746 30.6241 56.7055C29.8166 57.9321 30.63 59.2046 31.9931 59.3235H31.992Z" fill="#77A5A1"/>
<path fill-rule="evenodd" clip-rule="evenodd" d="M49.8908 53.0575C48.9715 53.4695 47.5106 54.6584 46.6395 55.3177C45.7707 55.9745 43.766 57.2553 44.1615 58.4854C44.4217 59.2953 45.3505 59.1199 45.8508 58.5749C46.3264 58.0558 46.8172 57.1541 47.1998 56.5384C48.1733 54.9716 49.5341 53.7709 49.7425 53.4542C50.1663 52.8091 49.8826 53.2717 49.892 53.0587L49.8908 53.0575Z" fill="#77A5A1"/>
<path fill-rule="evenodd" clip-rule="evenodd" d="M25.2468 59.3423C23.0808 59.5154 23.3304 58.3041 23.4434 57.4471C23.8165 54.211 33.2339 45.5906 37.6907 45.3564C37.8578 45.2881 37.9273 45.4187 38.2333 45.301L37.8731 45.6424C37.7342 45.7707 37.7789 45.7484 37.5812 45.8555C37.4258 45.9414 37.4517 45.9073 37.2975 45.9638C32.125 47.8955 26.9078 58.4371 25.2444 59.3423H25.2468Z" fill="#77A5A1"/>
<path fill-rule="evenodd" clip-rule="evenodd" d="M39.2162 59.8909C39.9202 59.108 40.0438 57.8744 40.5982 56.8714C41.8837 54.55 44.5017 52.6442 46.1403 50.9055L44.6088 51.8732C43.5765 52.6242 38.1615 56.7961 37.8472 57.2728C37.0396 58.4994 37.8531 59.772 39.2162 59.8909Z" fill="#77A5A1"/>
</g>
</g>
<defs>
<clipPath id="clip0_320_676">
<rect width="99.9995" height="99.9995" fill="white"/>
</clipPath>
</defs>
</svg>
