<svg width="100" height="101" viewBox="0 0 100 101" fill="none" xmlns="http://www.w3.org/2000/svg">
<g id="Frame" clip-path="url(#clip0_62_4200)">
<g id="Mask group">
<mask id="mask0_62_4200" style="mask-type:alpha" maskUnits="userSpaceOnUse" x="0" y="0" width="100" height="101">
<g id="Group">
<path id="Vector" d="M50 100.48C77.6142 100.48 100 78.0942 100 50.48C100 22.8657 77.6142 0.47998 50 0.47998C22.3858 0.47998 0 22.8657 0 50.48C0 78.0942 22.3858 100.48 50 100.48Z" fill="white"/>
</g>
</mask>
<g mask="url(#mask0_62_4200)">
<g id="Group_2">
<path id="Vector_2" d="M50 100.48C77.6142 100.48 100 78.0942 100 50.48C100 22.8657 77.6142 0.47998 50 0.47998C22.3858 0.47998 0 22.8657 0 50.48C0 78.0942 22.3858 100.48 50 100.48Z" fill="#E9E9E9"/>
<g id="Mask group_2">
<mask id="mask1_62_4200" style="mask-type:alpha" maskUnits="userSpaceOnUse" x="-2" y="17" width="106" height="93">
<g id="Group_3">
<path id="Vector_3" d="M103.606 17.1466H-1.22217V109.369H103.606V17.1466Z" fill="white"/>
</g>
</mask>
<g mask="url(#mask1_62_4200)">
<g id="Group_4">
<path id="Vector_4" fill-rule="evenodd" clip-rule="evenodd" d="M41.768 54.0939L59.4853 55.6172L53.7901 79.242C53.7901 79.242 49.0609 85.3141 44.9898 84.0933C40.2394 82.6708 36.0357 73.929 36.0357 73.929L41.768 54.0939Z" fill="#DEA87F"/>
<path id="Vector_5" fill-rule="evenodd" clip-rule="evenodd" d="M56.2255 74.3165C55.2662 77.7613 52.7888 79.9587 46.3847 79.6721C41.5302 79.4544 37.9618 76.9916 36.0959 73.2178C19.7033 74.4652 6.39953 82.6285 5.23993 100.999C24.0097 110.202 78.9536 107.941 84.0664 100.218C84.3458 83.0425 72.0066 76.7422 56.2255 74.3165Z" fill="#EBB94A"/>
<path id="Vector_6" fill-rule="evenodd" clip-rule="evenodd" d="M56.338 23.5902C67.824 24.2113 71.6562 29.5827 68.9227 47.0027C68.8006 47.7936 69.6392 48.9825 69.5437 49.8318C69.1031 53.7224 68.4981 55.5058 67.6966 58.7594C65.7221 66.7847 64.7773 73.6636 52.612 71.7316C41.7895 70.0119 35.8023 60.1288 35.6112 46.5675C35.383 30.1135 45.3987 23.0011 56.338 23.5902Z" fill="#DEA87F"/>
<path id="Vector_7" fill-rule="evenodd" clip-rule="evenodd" d="M34.9795 50.129L38.5834 45.3096C38.5834 45.3096 42.9995 49.2798 42.3838 46.127C41.0781 39.4445 47.3677 36.8437 47.4049 35.2832C47.4367 33.7281 46.7308 33.6644 47.6862 31.1485C48.6416 28.6326 51.0142 29.0254 53.2381 30.5222C54.4961 31.3661 59.151 32.7833 61.8526 33.2079C63.9385 33.537 64.0288 31.5147 64.0288 31.5147C64.0288 31.5147 66.7676 31.9977 67.8079 33.6962C68.8482 35.3947 70.69 32.6931 71.6985 33.4202C72.8874 34.2854 71.9214 24.052 65.8546 21.0797C59.7879 18.1073 51.0566 16.9556 46.0037 18.6381C44.6714 19.0097 37.6386 21.8122 33.7427 30.8937C29.1038 41.7056 34.1727 58.0588 34.9529 60.097C35.7385 62.1564 37.9996 65.0544 38.265 61.9069C38.4879 59.2424 34.9795 50.129 34.9795 50.129Z" fill="#66462A"/>
<path id="Vector_8" fill-rule="evenodd" clip-rule="evenodd" d="M66.8898 59.2106C66.8898 59.2106 62.4578 57.3794 59.0608 57.1458C55.6639 56.9123 53.3179 59.1469 51.8264 60.2562C50.3349 61.3602 48.1693 58.2021 46.6832 56.6841C45.197 55.166 40.6429 49.7203 40.6429 49.7203C40.6429 49.7203 39.0559 56.079 39.0984 57.183C39.1355 58.287 41.6726 65.6435 44.4486 67.1669C47.2246 68.6902 49.13 71.9067 55.1809 72.1508C61.1256 72.3897 63.2911 70.3144 64.7667 68.2709C66.2369 66.2221 66.8898 59.2106 66.8898 59.2106Z" fill="#D49C7E"/>
<path id="Vector_9" fill-rule="evenodd" clip-rule="evenodd" d="M36.805 45.851C38.3496 45.2406 40.1808 47.0134 40.9026 49.8159C41.6192 52.6131 40.9504 55.3784 39.4058 55.9888C37.8613 56.5992 36.0301 54.8264 35.3082 52.0292C34.5917 49.2267 35.2605 46.4614 36.805 45.851Z" fill="#DEA87F"/>
<path id="Vector_10" fill-rule="evenodd" clip-rule="evenodd" d="M112.879 38.3139C110.182 39.2269 52.5879 37.9955 45.0562 35.2301C37.5298 32.4648 20.407 38.2131 20.9378 46.8223C21.4739 55.4367 16.7234 68.3027 54.6633 72.4268C91.5097 76.4289 110.214 79.3269 120.076 78.6104C127.39 66.2858 124.933 40.8723 112.879 38.3139Z" fill="#B27F3D"/>
<path id="Vector_11" fill-rule="evenodd" clip-rule="evenodd" d="M33.2627 60.7711C35.2107 60.4738 36.3412 61.5566 36.5217 62.9154C36.7021 64.2742 35.5344 65.0279 33.5865 65.3198C31.6385 65.6171 29.8976 64.8793 29.7171 63.5205C29.5314 62.1564 31.3148 61.063 33.2627 60.7711Z" fill="#382D23"/>
<path id="Vector_12" fill-rule="evenodd" clip-rule="evenodd" d="M30.2266 62.029C29.4198 62.0715 28.0132 62.8358 26.5695 62.9632C24.4889 63.1542 22.1216 62.8252 22.1216 62.7986C22.1216 62.7986 23.99 64.513 26.4581 64.7572C27.2914 64.8421 29.7011 64.9748 30.6087 64.5502C31.5164 64.1256 31.3359 63.8336 31.2191 63.1383C31.1236 62.5969 31.0333 61.9812 30.2266 62.029Z" fill="black"/>
<path id="Vector_13" fill-rule="evenodd" clip-rule="evenodd" d="M48.2887 42.4275C45.5446 39.5878 34.7327 40.8776 34.7698 49.2745C34.807 57.682 36.7549 64.5183 42.4502 63.6797C48.1507 62.8411 49.6103 57.9898 49.7324 54.4071C49.8545 50.8243 50.6188 44.8372 48.2887 42.4275Z" fill="#382D23"/>
<path id="Vector_14" fill-rule="evenodd" clip-rule="evenodd" d="M30.4386 41.1854C32.6308 41.265 33.6498 42.6928 33.5702 44.2267C33.4906 45.7606 32.0575 46.3392 29.8601 46.2596C27.668 46.1799 25.9111 45.0016 25.9854 43.4677C26.0704 41.9337 28.2465 41.1057 30.4386 41.1854Z" fill="#382D23"/>
<path id="Vector_15" fill-rule="evenodd" clip-rule="evenodd" d="M29.3135 47.714C31.6277 47.5229 32.875 48.8817 32.9811 50.5006C33.0873 52.1194 31.6542 52.905 29.34 53.0961C27.0258 53.2871 25.0354 52.2787 24.9293 50.6651C24.8178 49.0462 26.9993 47.9051 29.3135 47.714Z" fill="#382D23"/>
<path id="Vector_16" fill-rule="evenodd" clip-rule="evenodd" d="M30.4386 54.7944C32.6254 54.46 33.8993 55.6755 34.101 57.2041C34.3026 58.7328 32.9863 59.5714 30.7995 59.9058C28.6127 60.2402 26.6542 59.4121 26.4525 57.8835C26.2508 56.3549 28.2518 55.1288 30.4386 54.7944Z" fill="#382D23"/>
<path id="Vector_17" fill-rule="evenodd" clip-rule="evenodd" d="M34.9982 35.6387C37.116 35.8245 38.0289 37.2523 37.8803 38.7385C37.7317 40.2193 36.3145 40.7076 34.1967 40.5219C32.0789 40.3361 30.4388 39.11 30.5874 37.6291C30.7414 36.1483 32.8857 35.453 34.9982 35.6387Z" fill="#382D23"/>
<path id="Vector_18" fill-rule="evenodd" clip-rule="evenodd" d="M26.2772 55.8719C25.4757 55.7923 23.9789 56.339 22.5352 56.2541C20.4546 56.132 18.1722 55.4526 18.1722 55.4261C18.1722 55.4261 19.7646 57.4059 22.1637 58.0163C22.9757 58.2233 25.3271 58.7169 26.2878 58.4303C27.2432 58.1436 27.1105 57.8305 27.0946 57.1192C27.0839 56.5725 27.0786 55.9515 26.2772 55.8719Z" fill="black"/>
<path id="Vector_19" fill-rule="evenodd" clip-rule="evenodd" d="M25.2584 49.4442C24.4622 49.3062 22.9336 49.7414 21.5058 49.5503C19.4411 49.2743 17.2172 48.4251 17.2225 48.4039C17.2225 48.4039 18.6662 50.4951 21.0122 51.2806C21.8031 51.546 24.1119 52.2095 25.0886 51.9972C26.0652 51.7796 25.9484 51.4558 25.9856 50.7499C26.0121 50.2032 26.0546 49.5822 25.2584 49.4442Z" fill="black"/>
<path id="Vector_20" fill-rule="evenodd" clip-rule="evenodd" d="M25.5503 41.4509C24.786 41.2014 23.889 40.9944 22.2914 40.8192C20.2214 40.5963 17.2756 40.5645 17.2862 40.5432C17.2862 40.5432 18.8944 41.5464 21.1024 42.661C21.8455 43.0379 24.0323 44.0251 25.0249 43.9561C26.0174 43.8818 25.9484 43.5421 26.0811 42.8468C26.1873 42.3054 26.3147 41.7003 25.5503 41.4509Z" fill="black"/>
<path id="Vector_21" fill-rule="evenodd" clip-rule="evenodd" d="M30.9005 37.2683C30.1574 36.9605 29.1065 35.7821 27.8007 35.1824C25.9165 34.3172 23.5811 33.8448 23.5705 33.866C23.5705 33.866 25.9271 32.8788 28.3262 33.468C29.1383 33.6643 31.4419 34.3331 32.1425 35.0337C32.8484 35.7344 32.5724 35.9467 32.2168 36.5571C31.9461 37.0348 31.6436 37.5762 30.9005 37.2683Z" fill="black"/>
</g>
</g>
</g>
</g>
</g>
</g>
</g>
<defs>
<clipPath id="clip0_62_4200">
<rect width="100" height="100" fill="white" transform="translate(0 0.47998)"/>
</clipPath>
</defs>
</svg>
