<svg width="100" height="100" viewBox="0 0 100 100" fill="none" xmlns="http://www.w3.org/2000/svg">
<g clip-path="url(#clip0_320_709)">
<mask id="mask0_320_709" style="mask-type:luminance" maskUnits="userSpaceOnUse" x="0" y="0" width="100" height="100">
<path d="M50.0296 99.9995C77.6198 99.9832 99.9832 77.6198 99.9995 50.0296V49.9699C99.9832 22.3797 77.6198 0.0162537 50.0296 0H49.9699C22.3797 0.0162537 0.0162537 22.3797 0 49.9699V50.0296C0.0162537 77.6198 22.3797 99.9832 49.9699 99.9995H50.0296Z" fill="white"/>
</mask>
<g mask="url(#mask0_320_709)">
<path d="M0 0H99.9995V99.9995H0V0Z" fill="#EDEDED"/>
</g>
<mask id="mask1_320_709" style="mask-type:luminance" maskUnits="userSpaceOnUse" x="0" y="0" width="100" height="100">
<path d="M50.0296 99.9995C77.6198 99.9832 99.9832 77.6198 99.9995 50.0296V49.9699C99.9832 22.3797 77.6198 0.0162537 50.0296 0H49.9699C22.3797 0.0162537 0.0162537 22.3797 0 49.9699V50.0296C0.0162537 77.6198 22.3797 99.9832 49.9699 99.9995H50.0296Z" fill="white"/>
</mask>
<g mask="url(#mask1_320_709)">
<path fill-rule="evenodd" clip-rule="evenodd" d="M60.4687 69.369C60.9007 69.4688 61.0507 68.8822 61.5681 68.8966C63.4651 65.7059 63.6019 63.6476 64.1617 59.9274C64.3472 58.6968 64.6643 57.8887 64.3351 56.8308C64.1057 56.9797 61.1373 55.282 61.1259 53.0823C60.2536 55.0525 54.0045 54.6984 54.2222 54.3673C52.3979 55.5662 50.6173 56.5727 49.869 57.3278C49.3606 57.8411 48.9853 58.4715 48.6278 59.1836C48.2702 59.8952 47.9781 60.4747 47.6137 61.282L47.3246 61.9857C47.0396 62.64 46.7887 62.8849 47.091 63.5213C47.7048 64.8109 48.7805 66.3341 49.7065 67.0896C51.0248 68.1656 51.874 68.6218 53.2607 69.3826C54.9574 70.3128 58.7354 70.3827 60.4687 69.369ZM9.96625 104.683L11.3061 100.438C12.265 98.4218 11.7165 98.35 13.2745 96.0713L14.2734 93.9253C14.36 93.578 14.4151 93.4143 14.5179 93.1607C14.8082 92.4456 14.5501 92.0053 14.792 91.3212C14.9964 90.743 15.3184 90.39 15.4398 89.8537C15.5808 89.233 15.6945 88.8729 15.9311 88.3286C16.3733 87.3127 16.2199 87.214 16.3541 86.6294C16.4867 86.0515 16.7713 85.6157 16.8401 85.0008C17.0627 83.001 17.5321 82.3434 17.5635 81.521C17.5148 81.0633 18.3421 79.4796 18.4449 78.8337C18.6626 78.2966 18.8871 77.4591 19.2129 76.6578L19.5485 75.5924C19.7741 75.4166 19.5814 75.6067 19.7145 75.4132C19.7613 75.3448 19.7863 75.2825 19.8135 75.2155L20.2262 73.9717C20.4019 73.4668 20.586 72.9497 20.7678 72.4055C21.9712 68.8066 22.6538 67.9029 24.059 64.8347C24.2525 64.4117 24.6123 63.8187 24.7374 63.3845L25.8955 60.9603C26.4515 58.9394 27.7894 56.2329 28.8277 54.4584C29.7533 52.877 30.3742 52.287 31.3233 51.101C31.5353 50.8357 31.6683 50.7476 31.8955 50.4887C32.1344 50.2174 32.1839 50.1538 32.4756 49.8825C32.685 49.6875 32.7897 49.4981 32.9923 49.3031L34.9323 47.693C37.2609 45.9144 38.9553 45.1917 41.6535 44.087C42.2113 43.8587 42.7272 43.6644 43.2632 43.441C43.9423 43.158 44.4647 43.164 45.0516 42.983C44.1173 42.3816 42.5069 42.4841 41.6954 42.3748C42.4502 41.6348 45.8071 42.76 46.5604 43.1368C47.0154 43.3643 46.9886 42.9365 46.9886 42.9365C46.3612 42.2029 45.4795 41.5513 44.6608 41.1673C44.4155 41.0528 44.1725 40.9613 43.9291 40.9012C43.897 40.8933 43.5799 40.8279 43.5678 40.8233C43.0696 40.6211 43.4155 40.8551 43.1656 40.53C44.9212 40.5674 46.616 41.5996 47.5669 42.9157C49.0749 42.9761 50.7625 42.8782 52.3083 42.8968C54.4298 42.9225 54.4585 42.5067 56.1075 41.9341C56.284 42.1673 57.0082 44.6085 57.2387 45.0783C57.4806 45.3981 58.3344 46.2035 58.9629 46.8812C59.2706 46.9749 59.3855 47.1688 59.6043 47.3468C60.1701 47.8056 60.0605 48.0543 60.2725 48.7619C60.4014 49.1924 61.626 50.3436 61.2809 51.8512C61.0779 52.7372 61.1282 52.5421 61.3909 52.7727C61.7911 50.3799 61.9159 51.1071 62.4284 50.7786C62.7032 50.6021 62.8468 49.994 63.1967 49.5552C63.1064 48.7407 63.6087 48.551 63.7217 48.3741C64.1481 47.7051 64.049 47.8672 64.1968 47.247L65.1908 46.6306C65.5023 46.6842 65.2063 46.7613 65.4641 47.0626L66.0873 46.4918C67.7322 47.1026 67.6819 47.0848 68.5864 49.0763C68.9968 49.3563 68.9375 49.3885 68.9851 49.9841C69.2773 50.4229 69.5256 50.6603 69.8098 52.2273C69.9062 52.7576 69.7837 54.9036 69.5332 55.2199C68.6718 57.6996 66.7072 61.1889 66.6256 61.3979C66.4676 61.8065 62.2889 73.1424 64.1303 90.6908C64.4055 93.3187 64.794 94.2227 65.0873 97.0918C65.4898 101.023 65.9351 101.102 66.5107 104.027C66.5587 104.173 66.6305 104.401 66.7197 104.683H9.96631L9.96625 104.683Z" fill="#8DBAB1"/>
<path fill-rule="evenodd" clip-rule="evenodd" d="M66.6694 48.2134C65.1398 48.9708 63.5245 49.8594 62.9643 51.3557C62.6287 52.253 62.524 51.9536 62.4201 53.5856C62.3721 54.34 62.7946 54.7803 64.1579 55.9289C64.8277 56.4928 65.5004 56.7105 66.378 56.7075C66.8047 56.706 67.1698 55.9346 67.2031 55.5174L68.3498 53.5478C68.134 52.9703 68.9689 52.0035 68.5199 51.5904C68.5505 51.5575 68.4367 51.4921 68.4178 51.3886C68.3256 50.881 68.3305 50.4203 68.1702 49.8919C68.0731 49.5699 67.7156 49.2924 67.7186 48.8812C67.7216 48.4689 66.9687 48.1646 66.6694 48.2134V48.2134Z" fill="#ABCEC1"/>
<path fill-rule="evenodd" clip-rule="evenodd" d="M59.1179 67.8549C59.5911 67.7979 59.5249 67.2034 59.5178 67.1935C58.6954 66.026 57.8604 64.7912 56.0304 64.4371C54.1694 64.0769 51.495 63.9779 50.0108 65.0982C49.9499 66.3216 52.2823 67.313 53.7536 67.5435L59.1179 67.8549H59.1179ZM49.7065 67.0896C48.7801 66.3337 47.7049 64.8109 47.091 63.5213C45.7655 60.7343 51.1597 55.2778 54.2222 54.3673C55.5659 55.0083 60.9063 54.376 61.1259 53.0823C61.3901 54.6342 63.9908 56.7798 64.4916 56.7662C64.9262 57.7855 64.3468 58.6968 64.1616 59.9274C63.6019 63.6475 63.9742 65.1843 62.0772 68.3754C57.6665 74.0458 51.2825 69.3516 49.7065 67.0896H49.7065Z" fill="#19232E"/>
<path fill-rule="evenodd" clip-rule="evenodd" d="M60.2925 48.2207C61.0473 47.5476 61.1301 44.9212 60.8704 43.926C60.618 42.9569 59.1787 41.3499 57.8797 42.212C56.4858 43.1368 57.3158 44.4045 58.1983 45.304C58.6167 45.7303 58.9659 46.2103 59.4395 46.6204C60.3432 47.402 60.2339 47.3998 60.2925 48.2207L60.2925 48.2207ZM68.0164 49.7949C67.9189 49.7522 67.8289 49.7042 67.742 49.6335C67.7019 49.601 66.7707 49.1217 66.7967 48.9702C66.8005 48.9471 66.8107 48.9218 66.8277 48.8938C66.8583 48.8439 67.7219 49.3659 67.8901 49.4823C67.8104 49.2843 67.7348 49.09 67.6717 48.8987C67.4925 48.6205 67.067 48.7003 66.8156 48.5979L66.819 48.3537C67.1728 48.548 67.3198 48.5665 67.7628 48.6123C67.7201 48.0759 67.6142 48.0366 67.3724 47.8091C66.8296 47.6889 66.093 48.1202 65.6818 48.3711C65.6655 48.3477 65.6515 48.2766 65.6432 48.2937C65.6353 48.3092 65.6145 48.2358 65.6039 48.2204C65.4218 47.9494 65.4917 48.0563 65.2604 47.921L65.1216 47.8398C65.3775 47.4637 65.9346 47.0083 66.0873 46.492C65.8802 46.6813 65.6663 46.876 65.4641 47.0627C65.1428 47.3114 64.8733 47.6852 64.4599 47.9951C64.1719 48.2105 64.1447 48.2502 63.9976 48.4343L63.9481 48.5397C63.7988 48.858 63.4492 49.0847 63.1967 49.5553C62.8467 49.9941 62.7031 50.6022 62.4284 50.7787C61.9159 51.1072 62.2284 51.4239 61.3909 52.7728C61.0946 52.6862 61.2136 52.7898 61.0091 51.673C60.6025 49.4559 60.0276 49.1717 59.2951 48.0677C58.8363 47.2502 58.0309 46.8257 57.7002 46.2161C57.521 45.8865 57.4575 45.6658 57.2066 45.4916C57.0599 44.8147 56.3108 43.9348 56.6385 42.9755C56.9692 42.0076 58.1632 41.658 58.4621 41.4803C59.1394 41.571 59.5968 41.4883 60.2922 41.6863C60.7987 41.8299 61.2122 42.0469 61.764 42.1712C62.885 42.4245 63.9141 41.9913 65.0994 42.7049C66.8266 43.7443 66.6463 45.8442 67.0005 46.5948C67.205 47.0287 67.5077 47.4293 67.6808 47.8228L69.0078 47.7952C68.9859 47.8133 68.9541 47.8288 68.933 47.8379L67.7677 47.9928C68.0463 48.7306 68.0663 48.6312 68.8808 48.8977C69.4319 49.0779 69.922 49.2318 70.1284 49.6369C69.4587 49.468 68.9605 49.0704 68.2201 49.0352C68.3195 49.8569 69.0739 50.0073 69.7376 50.3962C70.2565 50.7001 71.1327 51.3268 71.3084 51.8174C70.9592 51.6794 71.2135 51.7985 70.9357 51.5755C70.3597 51.1129 69.3049 50.3033 68.6272 50.1801C68.6707 51.481 69.8911 52.0279 70.4841 52.7211C70.8023 53.0926 71.1277 53.5 71.4641 53.929C71.6108 54.1157 71.7479 54.3236 71.8957 54.5904C72.3228 55.3599 71.9985 55.2843 71.9675 55.3259C71.6414 54.3553 71.1448 53.8885 70.5869 53.2513C70.4024 53.0404 70.294 52.9905 70.1137 52.8068C69.9512 52.6405 69.4398 51.8771 68.8993 51.7168C68.8446 51.7006 68.8502 51.797 68.8249 51.8469C68.8631 52.113 70.8693 53.8893 71.9226 56.6937C71.7877 56.6064 69.3068 52.5502 68.6979 52.2792C68.69 52.8307 68.6733 53.1417 68.5962 53.4293C68.7365 53.7238 68.9171 53.997 69.1836 54.3217L70.3757 55.6868C70.856 56.2723 72.0568 57.9674 72.1891 58.8208L70.0498 55.8108C69.701 55.3134 68.9594 54.5254 68.5384 53.9086C68.5369 54.0318 68.5316 54.1508 68.5229 54.2661C68.6359 54.6924 72.2242 59.3598 72.6014 61.9782L72.0961 60.9907C71.4071 59.263 69.399 55.5307 68.1816 54.7295C68.2515 56.3347 71.3609 60.1213 71.5205 62.6567C71.2907 62.2828 71.017 61.3176 70.7521 60.7612C70.4539 60.133 70.2116 59.6319 69.8662 58.9848C69.3945 58.0993 68.391 56.2262 67.8029 55.7575C67.7734 55.8864 67.7934 56.0908 67.5984 56.3278C68.498 58.21 70.932 63.3109 70.7305 64.0611C70.6134 64.4984 70.7763 64.4376 70.4788 65.218C70.3855 65.2834 70.3262 65.2177 70.3243 65.1821C70.1863 62.5761 68.8147 59.7132 68.676 59.2335C68.4904 58.9146 67.6559 57.0316 67.3766 56.6808C67.1313 56.7708 67.2107 57.207 66.8853 57.405C69.5151 61.448 69.8416 67.1675 69.8412 67.1845C69.6216 67.7174 69.3752 66.1731 69.3938 65.9169C69.2743 65.7041 69.1821 61.1449 66.6332 57.9429C66.3886 58.5812 66.4106 58.6821 66.2651 58.9524C67.4791 60.5806 68.9928 70.5362 68.2724 72.0046C68.1643 71.9449 67.9459 71.9014 67.964 71.7623C68.255 69.5078 67.6215 62.1483 66.005 59.7865C65.9329 59.8934 65.4702 61.0273 65.3667 61.3338L64.8825 64.7622C64.7937 64.9648 64.7948 64.9225 64.6852 65.0411C64.2914 64.5158 64.937 62.2329 65.0435 61.7533C65.1656 61.2004 65.2019 60.6743 65.4124 60.1308C65.6112 59.616 65.9952 58.3567 65.7473 57.5494C65.3013 56.101 64.8682 54.7903 64.5787 53.8194C64.5061 53.5756 64.4736 53.3586 64.5223 53.2029C64.9589 53.5525 66.7795 57.8608 66.8675 56.2734C66.8978 55.7254 65.0579 52.9595 64.6882 52.6628C64.7068 52.4118 64.6973 52.1019 64.6372 51.7107C65.0923 52.2936 66.9518 54.9101 67.2031 55.5175C67.2236 55.5674 67.394 55.3739 67.5029 55.242C67.4401 54.9631 64.8625 51.357 64.909 51.2973C64.9963 51.1858 65.0753 51.0709 65.1422 50.9707C65.8523 51.9149 67.445 54.6679 67.8113 54.9306C67.8264 54.8489 67.8997 54.4781 67.9681 54.1263C67.6155 53.5159 65.2219 50.6533 65.2695 50.6525C65.3096 50.5792 65.3584 50.4843 65.4146 50.3241C65.8206 51.1843 67.9398 53.1553 68.2746 53.8209C68.3097 53.7442 68.4401 53.6527 68.2595 53.2725C68.1964 53.1277 67.7787 52.9131 67.6767 52.5173C67.654 52.4867 65.6558 50.0984 65.6546 50.0962C65.793 50.0032 65.6917 50.044 65.8708 50.0606C66.4642 50.8351 67.7772 52.2928 68.3355 53.04C68.4447 52.5237 68.4039 52.1273 68.3052 51.8238C67.7697 51.3324 66.5515 50.191 66.5269 50.1748C66.2711 49.9526 66.4223 50.1778 66.2745 49.8093C66.8675 50.151 68.0614 51.2999 68.4084 51.453C68.4145 51.3933 68.4685 51.3166 68.4262 51.2796C68.0198 50.9288 67.0954 49.9389 66.7461 49.6804C66.6785 49.5213 66.6131 49.3713 66.5473 49.2258C66.6906 49.2673 68.1544 50.8683 68.397 50.9303C68.3022 50.5278 68.1601 50.1525 68.0164 49.7949L68.0164 49.7949ZM65.1946 46.631L65.1908 46.6306C65.4014 46.1654 66.449 45.6491 65.9339 44.0591C65.7071 43.3587 64.6458 42.6138 63.7508 43.1119C62.5021 43.8062 62.5622 46.6356 62.6892 48.0223L62.8483 48.7257C63.368 48.3726 63.5535 47.4947 64.1968 47.2471C64.4773 47.0737 64.944 46.7191 65.1946 46.6311V46.631Z" fill="#3B6B74"/>
<path fill-rule="evenodd" clip-rule="evenodd" d="M47.9191 47.1952C47.675 47.2523 47.356 47.7247 47.1568 47.9749C46.8896 48.3109 46.5358 48.6571 46.4054 48.9043C46.1095 49.054 45.5354 49.6734 44.9832 50.0854C44.5232 50.4282 44.0137 50.8749 43.4717 51.1002C42.3061 51.5863 41.6001 51.7866 40.4375 51.333C40.2451 51.3175 38.6147 50.3114 38.5644 50.2589C39.6763 49.3813 39.5535 49.3952 40.3457 48.6941C41.3673 47.7893 42.1856 43.6035 47.5778 46.1698C47.975 46.3588 47.9773 46.268 48.0786 46.652L47.9195 46.7166C47.5782 46.8247 47.5786 46.7495 47.3847 46.9094L46.1427 48.405C45.8441 48.7738 45.0738 49.3604 44.6449 49.6356L44.259 49.9005C44.126 50.0181 44.211 49.9262 44.1021 50.0638C44.745 49.8695 45.7856 48.9991 46.1155 48.6548C46.4012 48.357 46.7028 48.0829 46.9814 47.79C47.2686 47.4877 47.5725 47.2522 47.8163 46.8973C48.0767 47.0749 47.8862 46.8183 47.9191 47.1951L47.9191 47.1952Z" fill="#1C313E"/>
<path fill-rule="evenodd" clip-rule="evenodd" d="M57.2066 45.4914C57.6344 46.7511 58.0899 46.4597 58.6061 47.5184C59.1296 48.594 60.2756 49.4558 60.432 51.9352C60.4203 53.9939 55.7016 54.085 53.9418 53.6575C51.7433 52.1132 51.4492 49.5219 54.5674 44.8202C55.4276 44.1074 54.7061 43.8311 56.0486 42.3325C56.3581 41.9871 56.2836 42.1677 56.1075 41.9342C56.699 41.619 57.7327 41.4697 58.4622 41.4803C58.1632 41.6579 56.9692 42.0075 56.6385 42.9755C56.3109 43.9347 57.0599 44.8146 57.2066 45.4915V45.4914Z" fill="#ABCEC1"/>
<path fill-rule="evenodd" clip-rule="evenodd" d="M59.9308 67.4463C60.4297 66.8726 60.5492 65.3759 61.0503 65.1737C61.4245 65.6919 60.9131 67.6595 60.7257 68.1867C60.5862 68.4177 59.912 68.8519 59.5982 68.7733C59.6527 68.635 59.9384 67.5824 59.9308 67.4463Z" fill="#FEFEFE"/>
<path fill-rule="evenodd" clip-rule="evenodd" d="M56.1082 68.9687C55.6354 68.3776 56.112 68.3232 55.4865 67.4826C55.9877 68.8954 53.8915 68.5209 53.6893 68.4861C52.2176 68.2559 49.9499 66.3216 50.0107 65.0981C51.495 63.9779 54.1693 64.0769 56.0304 64.4371C57.8529 64.7901 58.6889 66.0158 59.5079 67.1791C59.5472 67.5223 59.5835 67.6342 59.5937 67.8394C59.8201 68.9294 58.3113 69.846 56.1082 68.9687H56.1082Z" fill="#CB4B50"/>
<path fill-rule="evenodd" clip-rule="evenodd" d="M56.1082 68.9687C55.6354 68.3776 56.112 68.3232 55.4865 67.4826C55.9877 68.8954 53.8915 68.5209 53.6893 68.4861C52.2176 68.2559 49.9499 66.3216 50.0107 65.0981C51.495 63.9779 54.1693 64.0769 56.0304 64.4371C57.8529 64.7901 58.6889 66.0158 59.5079 67.1791C59.5472 67.5223 59.5835 67.6342 59.5937 67.8394C59.8201 68.9294 58.3113 69.846 56.1082 68.9687H56.1082Z" stroke="black" stroke-width="0.288007" stroke-miterlimit="22.9256"/>
<path fill-rule="evenodd" clip-rule="evenodd" d="M45.9217 50.9884C44.7901 55.8171 33.2742 60.9652 39.1427 52.0675C40.5094 54.0494 44.4113 52.0221 45.9217 50.9884Z" fill="#3B6B74"/>
<path fill-rule="evenodd" clip-rule="evenodd" d="M60.2926 48.2207C60.234 47.3998 60.3432 47.402 59.4395 46.6205C58.966 46.2104 58.6167 45.7304 58.1983 45.3041C57.3158 44.4045 56.4858 43.1369 57.8797 42.212C59.1787 41.3499 60.618 42.957 60.8705 43.926C61.1301 44.9212 61.0474 47.5476 60.2926 48.2207L60.2926 48.2207Z" fill="#19232E"/>
<path fill-rule="evenodd" clip-rule="evenodd" d="M65.1908 46.6306L64.1968 47.2471C63.5535 47.4946 63.368 48.3726 62.8483 48.7256L62.6892 48.0222C62.5622 46.6355 62.5021 43.8062 63.7508 43.1118C64.6458 42.6137 65.7071 43.3586 65.9339 44.059C66.449 45.649 65.4013 46.1653 65.1908 46.6306V46.6306Z" fill="#19232E"/>
<path fill-rule="evenodd" clip-rule="evenodd" d="M53.5261 64.4568C53.9747 64.9119 53.7683 66.9343 53.6629 67.4842C53.6478 67.6947 53.6806 68.1041 53.4342 68.3059C53.2173 68.4839 52.7853 68.2186 52.5649 68.0757C52.783 67.3859 53.1345 64.6892 53.5261 64.4568L53.5261 64.4568Z" fill="#FEFEFE"/>
<path fill-rule="evenodd" clip-rule="evenodd" d="M46.3676 46.6128C44.6271 46.0897 43.9067 45.9586 42.6228 47.2871C42.2649 47.6575 42.1712 47.6382 42.9709 47.2678C44.5304 46.5456 45.9817 47.4689 46.7977 46.7901C46.8533 46.744 46.4492 46.637 46.3676 46.6128Z" fill="#FEFEFE"/>
<path fill-rule="evenodd" clip-rule="evenodd" d="M54.0725 53.1295C54.0355 53.2807 53.992 53.4557 53.9418 53.6575C52.6949 54.5529 52.3094 55.9653 51.4613 57.157C51.3127 57.6355 50.7443 59.9202 50.0776 60.4225C50.0311 60.3012 50.0103 60.3428 50.0296 60.1386L51.363 56.728C52.4568 54.9883 52.1257 54.6167 54.0725 53.1295V53.1295Z" fill="#DFF0EA"/>
<path fill-rule="evenodd" clip-rule="evenodd" d="M57.0788 50.2182L57.1238 50.1993L57.1287 50.1721L57.7051 49.7881C57.7659 49.5931 57.823 49.4188 57.8789 49.262L57.4564 49.3818C55.1543 50.5519 46.7769 58.9837 46.4531 60.432C46.5986 60.4025 46.7955 60.4002 46.9191 60.2857C48.9789 58.3699 53.9051 51.9296 57.1072 50.1838C57.1072 50.1864 57.1075 50.1887 57.1072 50.1921C57.1011 50.1978 57.0917 50.2065 57.0788 50.2182L57.0788 50.2182Z" fill="#DFF0EA"/>
<path fill-rule="evenodd" clip-rule="evenodd" d="M54.1338 51.2099L53.4773 51.6136C48.7408 55.4986 41.8738 65.0649 41.8651 65.082C41.8005 65.6179 42.8602 64.1019 42.977 63.8479C43.2038 63.6457 49.502 55.5469 53.1878 52.3449C53.4437 52.1408 53.7075 51.9742 54.0998 51.6518C54.4207 51.3876 54.9093 50.9253 55.6037 50.3206C55.7133 50.1846 55.7204 50.0243 55.7877 49.855C55.3281 50.1982 54.4207 51.123 54.1338 51.2099H54.1338Z" fill="#DFF0EA"/>
<path fill-rule="evenodd" clip-rule="evenodd" d="M54.0786 48.147L53.3288 48.7601C51.5452 49.5149 47.5356 52.6299 45.8707 54.1255L44.7769 54.9963C46.7316 52.5714 53.0805 48.601 53.449 48.2121L53.9622 47.8213C54.6943 47.2343 55.3739 47.0949 56.2938 46.3318C56.2523 46.4905 56.4435 46.6062 56.4382 46.6803C56.4851 46.6863 54.7938 47.6138 54.0787 48.1471L54.0786 48.147Z" fill="#DFF0EA"/>
<path fill-rule="evenodd" clip-rule="evenodd" d="M45.3191 56.1822C48.3159 52.9927 49.0038 52.2652 53.746 48.9248C54.2642 48.7218 55.3058 47.7414 56.575 46.936C56.5795 47.0389 56.5886 47.1571 56.606 47.272C56.6154 47.334 54.0914 49.0004 53.8597 49.2567L53.2539 49.7065C52.3922 50.0772 50.4487 51.8816 49.4494 52.6602C48.7184 53.2294 48.1783 53.6727 47.5045 54.2298C46.9848 54.6592 45.9186 55.6403 45.5675 56.1369C45.3789 56.4034 45.2972 56.2189 45.3191 56.1823V56.1822Z" fill="#DFF0EA"/>
<path fill-rule="evenodd" clip-rule="evenodd" d="M53.8144 47.7773C52.8635 48.4043 51.6582 49.0582 51.0145 49.4846L47.0922 52.0667C47.7389 51.2772 49.9434 49.8232 50.7693 49.3285L52.7667 48.1844C53.2244 47.91 53.5672 47.6745 53.8836 47.4137C53.9818 47.1329 54.1534 46.8373 54.4796 46.3158C53.7177 46.4979 48.8262 50.0254 48.641 50.0912C51.3725 47.5729 54.4173 46.1389 54.6161 45.8917C54.6217 45.8418 54.6848 45.7523 54.6217 45.7606C53.9939 45.846 53.0298 46.5047 52.7694 46.6423C52.481 46.7943 52.3445 46.8283 52.0365 47.0044C51.1018 47.5388 50.332 47.9191 49.4245 48.7951C49.4188 48.7524 49.0553 48.7845 49.94 48.1103C50.2466 47.8763 50.5073 47.6968 50.7643 47.5381C51.3539 47.1737 51.9201 46.829 52.4576 46.5168C53.4595 45.934 54.9887 45.5659 55.8195 44.3428C55.0795 44.3776 53.5529 45.0144 52.7074 45.3807C52.2992 45.5576 52.6216 45.4759 52.1949 45.564C52.6643 45.1226 53.9048 44.6373 54.5972 44.4128C55.1127 44.2465 55.6094 44.1599 56.0523 43.9664L56.1676 43.9725L56.3804 44.2257C56.3513 44.2473 56.3343 44.2669 56.3271 44.2847C56.0886 44.5371 55.8513 44.7945 55.5908 45.0791C55.8668 45.0504 56.0391 44.8841 56.2054 44.8622L56.2708 45.0769C55.7704 45.2783 55.9616 45.1237 55.3512 45.4049C55.2881 45.4348 55.2938 45.5141 55.2635 45.5709C55.6974 45.4681 55.5761 45.521 56.3656 45.2704C56.2783 45.349 56.2186 45.4163 56.1642 45.456C55.965 45.6004 56.442 45.3029 55.1407 45.933C54.8599 46.2078 54.5806 46.5774 54.3746 47.0774C55.3758 46.4394 55.293 46.4806 56.3437 45.8215C56.5297 45.8279 56.2439 45.9957 56.3241 46.1L55.3387 46.6632C54.9982 47.0253 54.4589 47.1772 54.3088 47.3061C54.0862 47.4901 54.0072 47.6043 53.8144 47.7774L53.8144 47.7773Z" fill="#DFF0EA"/>
<path fill-rule="evenodd" clip-rule="evenodd" d="M53.8103 50.9105C53.3492 51.245 51.529 53.0709 51.1771 53.3778C50.7863 53.8468 47.9169 56.6187 46.4035 59.1881C46.3827 59.224 46.2894 59.2863 46.2316 59.2175C46.3502 58.4329 46.4795 58.5002 46.5944 58.0633C46.7917 57.3127 51.8937 52.3739 53.7774 50.5518C54.8066 49.5166 55.9385 48.5993 57.1831 47.6647C57.0399 47.8722 56.9227 48.057 56.8286 48.2218C55.9174 49.0268 55.0908 49.7627 54.3371 50.4366C54.3383 50.4385 54.1002 50.6697 53.8103 50.9105Z" fill="#DFF0EA"/>
<path fill-rule="evenodd" clip-rule="evenodd" d="M58.797 51.346C58.7664 51.4239 58.7301 51.5149 58.6889 51.6193C57.4885 51.9991 57.1639 52.7274 56.3709 53.3C56.2432 53.5453 55.7719 54.7287 55.1313 54.9449C55.0806 54.8753 55.0617 54.8957 55.0723 54.7876L56.256 53.0607C57.2705 52.2137 56.9269 51.9866 58.797 51.3459V51.346Z" fill="#DFF0EA"/>
<path fill-rule="evenodd" clip-rule="evenodd" d="M59.1874 49.8258C59.119 49.966 59.6164 49.8904 59.526 50.0771C58.9274 50.3398 57.5051 51.1335 56.9654 51.6165C56.2379 52.2685 55.6358 53.0399 55.0175 53.608C54.7725 54.0456 53.743 56.1626 52.9863 56.5156C52.9667 56.3867 52.9372 56.4233 52.9984 56.2283L55.0107 53.1684C55.9831 52.1661 56.1808 51.6449 56.9027 51.0844C57.2429 50.8206 58.4788 50.1618 59.1874 49.8258H59.1874Z" fill="#DFF0EA"/>
<path fill-rule="evenodd" clip-rule="evenodd" d="M31.3504 54.8031C31.4884 53.9746 31.4215 53.7161 30.3954 53.3884C28.9905 52.939 27.7051 54.1125 26.9458 55.1254C26.1793 56.1482 27.1385 54.9391 28.5298 55.1802C29.1016 55.28 31.2151 55.6149 31.3504 54.803L31.3504 54.8031Z" fill="#3B6B74"/>
<path fill-rule="evenodd" clip-rule="evenodd" d="M60.5991 72.6538C55.7344 73.8882 52.2671 73.1372 47.6451 68.1657C47.0041 67.4759 47.1534 70.3037 48.1361 71.5665C50.7027 74.8653 49.5231 75.9942 50.6887 77.5484C51.0754 78.0647 54.3794 74.8475 57.2296 74.7984C57.4904 74.4552 59.2373 74.2836 60.5991 72.6539V72.6538Z" fill="#3B6B74"/>
<path fill-rule="evenodd" clip-rule="evenodd" d="M9.76934 47.3601L0.999695 45.7682L1.91358 68.7806L10.6832 70.3725L9.76934 47.3601Z" fill="#C3C3C3"/>
<path fill-rule="evenodd" clip-rule="evenodd" d="M33.6011 30.5084L4.88049 54.9525L4.9935 59.229L9.32673 60.1524L41.0241 30.7159L37.4256 30.0658L33.6011 30.5084Z" fill="#A6A6A6"/>
<path fill-rule="evenodd" clip-rule="evenodd" d="M37.5103 30.7627L4.9561 58.8805L4.88049 54.9619L33.2526 30.5556L37.7741 30.028L37.5103 30.7627Z" fill="#B5B5B5"/>
<path d="M80.3641 61.3447C80.3641 61.3447 82.3673 62.2004 82.585 64.5422C82.8027 66.8337 82.3163 67.7117 82.3163 67.7117" stroke="#C1272D" stroke-width="0.70638" stroke-miterlimit="22.9256"/>
<path d="M82.616 67.8577C82.616 67.8577 82.5616 65.6743 84.6055 64.5117C86.6049 63.3661 87.5929 63.4349 87.5929 63.4349" stroke="#C1272D" stroke-width="0.70638" stroke-miterlimit="22.9256"/>
<path d="M82.4504 67.5885C82.4504 67.5885 83.0861 65.955 84.0598 63.8143C85.112 61.5122 86.0879 60.4634 86.0879 60.4634" stroke="#B3B3B3" stroke-width="0.70638" stroke-miterlimit="22.9256"/>
<path d="M27.12 20.4601C27.12 20.4601 11.0079 32.6921 17.582 38.236C36.1478 53.8927 14.5463 54.9381 45.4228 61.1856C50.4019 62.1929 57.1495 62.4631 62.0077 65.3979C65.1013 67.2669 66.8542 71.4792 68.764 73.5772C69.7985 74.7133 78.4751 82.8514 82.5314 67.2416" stroke="#333333" stroke-width="1.88409" stroke-miterlimit="22.9256"/>
</g>
<path fill-rule="evenodd" clip-rule="evenodd" d="M84.2706 28.6409L84.0446 30.4495C84.0446 30.4495 40.5819 36.2235 39.7436 36.4215C38.9147 36.6192 27.7338 31.9942 26.4903 31.4008C25.2468 30.8074 24.3802 30.2514 24.3707 29.1308C24.3613 28.0098 24.4459 22.6969 24.4459 22.6969L69.3687 15.7263L84.2706 28.641V28.6409Z" fill="#B5B5B5"/>
<path fill-rule="evenodd" clip-rule="evenodd" d="M24.4743 23.5541L23.7585 20.5588L69.5475 13.7859L67.9839 17.0453L24.4743 23.5541Z" fill="#B5B5B5"/>
<path fill-rule="evenodd" clip-rule="evenodd" d="M73.8901 11.3651L69.2084 14.21L24.1731 20.8978L25.8591 18.7783L73.8901 11.3651Z" fill="#B5B5B5"/>
<path fill-rule="evenodd" clip-rule="evenodd" d="M78.2419 5.47766C78.2419 5.47766 77.0173 9.12303 76.0471 9.96131C75.0769 10.8 73.8898 11.365 73.8898 11.365L25.8588 18.7782C25.8588 18.7782 26.8857 15.0199 27.2908 14.3792C27.7145 13.7481 78.2419 5.47769 78.2419 5.47769V5.47766Z" fill="#B5B5B5"/>
<path fill-rule="evenodd" clip-rule="evenodd" d="M86.4276 23.78C86.4276 23.78 88.6412 21.9338 88.7921 20.8131C88.9425 19.7015 89.3004 18.4486 89.3004 18.4486L90.9018 15.5754C90.9018 15.5754 90.4875 10.3192 90.271 9.87666C90.054 9.43407 80.5969 5.37409 78.9955 5.39301C77.4035 5.4119 77.7237 6.02418 77.5634 6.32541C77.3941 6.62701 76.3861 9.53762 76.3861 9.53762L84.7884 12.4199C84.7884 12.4199 85.3443 15.9333 85.2502 16.6023C85.1652 17.2618 85.5231 18.6557 85.9661 19.5976C86.4087 20.5398 86.4276 23.78 86.4276 23.78L86.4276 23.78Z" fill="#A67C52"/>
<path fill-rule="evenodd" clip-rule="evenodd" d="M67.7295 23.6953L25.0582 30.5245C25.0582 30.5245 29.8246 33.3222 32.999 34.4999C35.4859 35.4134 39.414 36.8454 39.414 36.8454C39.414 36.8454 83.3378 30.6565 84.0442 30.4493C84.751 30.2422 79.6925 28.961 76.8854 27.9435C73.6357 26.7662 69.6699 25.3061 69.6699 25.3061C69.6699 25.3061 67.7763 24.788 67.7295 23.6953Z" fill="#8B8B8B"/>
<path fill-rule="evenodd" clip-rule="evenodd" d="M86.4276 23.78C86.4276 23.78 88.6412 21.9338 88.7921 20.8131C88.9425 19.7015 89.3004 18.4486 89.3004 18.4486L90.9018 15.5754C90.9018 15.5754 90.4875 10.3192 90.271 9.87666C90.054 9.43407 80.5969 5.37409 78.9955 5.39301C77.4035 5.4119 77.7237 6.02418 77.5634 6.32541C77.3941 6.62701 76.3861 9.53762 76.3861 9.53762L84.7884 12.4199C84.7884 12.4199 85.3443 15.9333 85.2502 16.6023C85.1652 17.2618 85.5231 18.6557 85.9661 19.5976C86.4087 20.5398 86.4276 23.78 86.4276 23.78L86.4276 23.78Z" fill="#696969"/>
<path fill-rule="evenodd" clip-rule="evenodd" d="M85.7117 27.7081C85.7117 28.2357 85.0239 30.5057 83.9032 30.4683C82.7916 30.4305 70.5554 25.9374 69.0107 25.0987C67.4657 24.2604 67.6633 23.4977 67.7295 21.4065C67.7952 19.3152 68.4548 10.8374 68.4548 10.8374L75.1237 8.53906L85.5514 12.3447L86.7292 22.9795C86.7197 22.9701 85.7117 27.1805 85.7117 27.7081Z" fill="#D7D7D7"/>
<path fill-rule="evenodd" clip-rule="evenodd" d="M83.2154 15.6794L81.8215 23.9119C81.8215 23.9119 82.0097 25.1648 81.1903 25.1365C80.3611 25.1176 73.1739 22.207 73.1739 22.207C73.1739 22.207 71.78 21.755 71.9119 21.199C72.0438 20.6434 73.3059 12.9664 73.3059 12.9664C73.3059 12.9664 73.5228 11.3934 74.2761 11.3178C75.0297 11.2331 82.2924 14.2473 82.2924 14.2473C82.2924 14.2473 83.1213 14.7277 83.2154 15.6794H83.2154Z" fill="black"/>
<path fill-rule="evenodd" clip-rule="evenodd" d="M80.5527 17.7184C80.3342 15.8616 78.9626 14.6427 77.4761 14.9987C75.9972 15.3551 74.9718 17.1383 75.1831 18.9936C75.4023 20.8498 76.7735 22.0687 78.26 21.713C79.3685 21.4503 80.2174 20.3834 80.4854 19.0904C80.5871 18.6486 80.6131 18.1856 80.5527 17.7184Z" fill="#CCCCCC"/>
<path fill-rule="evenodd" clip-rule="evenodd" d="M79.4559 17.811C79.327 16.7796 78.5185 16.0985 77.65 16.2943C76.7811 16.4904 76.1877 17.4928 76.3166 18.5242C76.4451 19.5556 77.2535 20.2375 78.1224 20.0409C78.991 19.8451 79.5844 18.8424 79.4559 17.811Z" fill="black"/>
<path fill-rule="evenodd" clip-rule="evenodd" d="M78.2419 5.47766C78.2419 5.47766 77.0173 9.12303 76.0471 9.96131C75.0769 10.8 73.8898 11.365 73.8898 11.365L25.8588 18.7782C25.8588 18.7782 26.8857 15.0199 27.2908 14.3792C27.7145 13.7481 78.2419 5.47769 78.2419 5.47769V5.47766Z" fill="#B5B5B5"/>
<path fill-rule="evenodd" clip-rule="evenodd" d="M73.8901 11.3651L69.5475 13.7859L23.6644 20.5494L25.8591 18.7783L73.8901 11.3651Z" fill="#B5B5B5"/>
<path fill-rule="evenodd" clip-rule="evenodd" d="M24.4838 23.6576L23.6644 20.5493L69.5475 13.7859L67.9839 17.0453L24.4838 23.6576Z" fill="#999999"/>
</g>
<defs>
<clipPath id="clip0_320_709">
<rect width="99.9995" height="99.9995" fill="white"/>
</clipPath>
</defs>
</svg>
