<svg width="100" height="100" viewBox="0 0 100 100" fill="none" xmlns="http://www.w3.org/2000/svg">
<g clip-path="url(#clip0_320_650)">
<path d="M50 100C77.6141 100 100 77.6141 100 50C100 22.3859 77.6141 0 50 0C22.3859 0 0 22.3859 0 50C0 77.6141 22.3859 100 50 100Z" fill="#E9E9E9"/>
<mask id="mask0_320_650" style="mask-type:luminance" maskUnits="userSpaceOnUse" x="0" y="0" width="100" height="100">
<path d="M50 100C77.6141 100 100 77.6141 100 50C100 22.3859 77.6141 0 50 0C22.3859 0 0 22.3859 0 50C0 77.6141 22.3859 100 50 100Z" fill="white"/>
</mask>
<g mask="url(#mask0_320_650)">
<path fill-rule="evenodd" clip-rule="evenodd" d="M83.9622 62.1441L43.712 54.5531C42.5633 54.1815 39.8445 54.0349 37.7119 56.1911L9.59021 78.6738C9.98533 80.4218 13.633 82.4733 14.7818 82.8449L53.1924 91.6998C54.3411 92.0714 57.2692 92.5895 58.6089 91.0404L85.7756 67.7543C86.6234 65.7368 87.411 62.7878 83.9622 62.1415V62.1441Z" fill="#CCCCCC"/>
<path fill-rule="evenodd" clip-rule="evenodd" d="M26.2533 65.6924L71.3182 73.5399L59.3861 83.5305L14.3212 75.683L26.2533 65.6924Z" fill="#666666"/>
<path fill-rule="evenodd" clip-rule="evenodd" d="M69.115 49.5106C69.5598 47.5062 68.6518 45.5306 67.0112 44.4918L64.4886 48.3671L68.8873 50.2015C68.9737 49.9764 69.0626 49.754 69.115 49.5106ZM79.4326 54.6027C79.7728 53.7706 80.0633 52.9071 80.2621 51.9991C81.7668 45.2166 78.7497 38.4969 73.2284 34.9382L70.2716 39.4808C73.948 41.8437 75.9577 46.3104 74.9555 50.819C74.8246 51.4078 74.6362 51.9703 74.419 52.512L79.43 54.6027H79.4326ZM79.4405 25.3977L76.3868 30.0921C83.8706 34.9277 87.9448 44.06 85.9038 53.263C85.629 54.5059 85.247 55.6965 84.7812 56.8348L89.957 58.9936C90.5484 57.5544 91.0299 56.0498 91.3805 54.4798C93.9423 42.9322 88.8345 31.4711 79.4457 25.3977H79.4405Z" fill="#AFE5F4"/>
<path fill-rule="evenodd" clip-rule="evenodd" d="M64.3029 13.2274C64.8132 12.1074 68.1521 13.2954 67.0374 14.3055C66.5481 14.7503 64.5934 15.5249 64.2087 14.2976C64.0387 13.756 64.2297 13.3896 64.3056 13.2274H64.3029Z" fill="#3B6B74"/>
<path fill-rule="evenodd" clip-rule="evenodd" d="M62.4555 19.4944C62.9658 18.3744 66.3047 19.5624 65.19 20.5724C64.7007 21.0173 62.746 21.7918 62.3613 20.5646C62.1913 20.0229 62.3849 19.6566 62.4582 19.4944H62.4555Z" fill="#3B6B74"/>
<path fill-rule="evenodd" clip-rule="evenodd" d="M61.3644 24.0971C62.0657 23.0845 65.1403 24.8481 63.8634 25.6436C63.3034 25.9943 61.2414 26.4103 61.0818 25.1334C61.0112 24.5708 61.265 24.2437 61.3644 24.0971Z" fill="#3B6B74"/>
<path fill-rule="evenodd" clip-rule="evenodd" d="M59.1507 29.1187C60.1136 28.3494 62.5524 30.919 61.1028 31.3167C60.4643 31.492 58.3709 31.301 58.5829 30.0293C58.6771 29.472 59.012 29.2286 59.1507 29.1187Z" fill="#3B6B74"/>
<path fill-rule="evenodd" clip-rule="evenodd" d="M53.4933 34.4096C54.4563 33.6403 56.8951 36.2099 55.4454 36.6076C54.8069 36.7829 52.7136 36.5919 52.9255 35.3202C53.0197 34.7628 53.3547 34.5195 53.4933 34.4096Z" fill="#3B6B74"/>
<path fill-rule="evenodd" clip-rule="evenodd" d="M13.1071 48.3619L19.2537 38.0128C19.3898 38.0076 19.4291 37.9762 19.5599 38.0756C20.1958 37.0656 20.8159 36.0006 21.4544 35.0063C24.686 29.99 27.7162 25.6699 29.3568 24.1391C32.4132 20.4783 32.2745 21.2686 37.8428 18.958C46.3916 15.4124 53.6948 10.7075 61.2702 12.131C62.3535 12.3351 63.2798 11.8641 64.0858 13.8214C64.876 15.7368 63.1882 15.2841 62.4058 18.6126C62.118 20.3082 61.7778 21.4805 61.3644 22.5377C60.9143 23.6916 62.6256 25.9891 60.0665 27.1012C59.6243 27.2713 59.1271 27.1274 58.868 27.5853C58.1615 28.8282 59.6033 28.7052 59.5039 29.6682C59.4646 30.0424 59.1925 30.584 58.4625 31.4345C57.8658 32.1305 55.9373 32.8998 53.7733 33.9831C53.2997 35.5767 53.3311 37.3194 51.5596 38.0207C49.7541 38.7351 47.0432 38.128 44.9969 38.8528C42.9218 39.5881 42.2912 40.852 40.7317 43.4504C39.999 44.6724 38.3583 46.784 38.3164 46.8652C36.8511 49.7776 37.6361 53.7262 38.6959 57.4811C39.4102 60.0089 40.9148 62.4947 42.5477 65.4045C43.173 66.5192 44.1255 67.6889 44.3087 69.0653C44.9315 73.7597 42.8957 76.7924 44.6175 77.1378C39.4704 85.527 28.1008 86.9034 15.7474 82.8056C5.36951 79.362 -7.9626 69.934 2.07246 61.9007C10.3936 55.2412 6.62553 54.7702 13.1097 48.3671L13.1071 48.3619Z" fill="#8DBAB1"/>
<path fill-rule="evenodd" clip-rule="evenodd" d="M38.3792 47.0771C38.0155 47.6659 38.1019 48.9821 37.8768 49.6598C37.9449 50.1308 37.9344 50.0078 37.9789 50.3401C38.0522 50.4998 38.1202 50.6594 38.1882 50.819L38.1254 51.7532C38.094 51.6956 38.0626 51.6406 38.0338 51.5935C37.9998 51.7505 38.0181 52.0436 38.0626 52.3916C38.0626 52.444 38.0705 52.4911 38.0809 52.5329C38.183 53.2499 38.3792 54.1344 38.4761 54.5295C38.7482 55.6206 38.8843 56.3769 39.091 57.4445C39.248 58.2583 39.3893 59.4253 39.0988 59.8963C38.4839 61.0241 38.3766 65.3365 38.3688 66.3544C37.8847 65.224 38.0391 62.9317 38.1464 61.5841C38.1542 61.5475 38.1594 61.4952 38.1621 61.469L38.2327 60.7363C38.5075 57.1357 37.8664 56.4266 37.8428 55.4427C37.5628 56.1335 36.5973 58.7241 36.6208 59.4777C36.4246 59.8649 36.367 60.2025 36.2335 60.6526C36.087 61.1471 35.998 61.3041 36.142 61.7856C35.7311 62.5261 35.8358 63.5676 35.7521 64.384C35.6291 63.8057 35.582 62.0656 35.8175 61.3329C36.2833 59.2369 36.8642 57.0049 37.1389 55.2046C36.9558 55.5081 35.0168 60.1763 34.9383 60.8985L34.6374 61.3669L34.8519 60.1188L35.6291 57.8867C36.1943 56.7668 36.5763 55.5552 36.8773 54.5295C37.063 53.8962 37.4294 51.6249 37.5262 51.4679C36.8694 53.8518 35.6212 55.932 34.5667 57.4236L34.8022 56.8688C34.8912 56.6647 34.9016 56.4999 34.865 56.3743C35.1084 55.8745 35.336 55.3773 35.548 54.8958C36.1289 53.5744 37.0657 51.3266 37.2776 50.2538L33.8864 53.8779L33.0935 54.5504C33.1092 54.2207 33.0202 54.5295 33.2008 54.1815L33.7477 53.5718C34.8179 52.5565 36.7647 49.9712 36.9872 48.5137L36.4429 48.9114C36.0399 48.9925 35.8332 49.7775 35.0272 49.8639C37.5236 47.1504 39.9702 40.1428 45.1434 38.1751C46.6925 37.5863 48.5268 37.377 51.0441 37.3403C53.496 37.3063 52.185 34.0407 53.8885 33.2321C56.8924 31.806 59.3129 31.4789 58.24 28.7235C57.6068 27.0986 61.6941 27.0253 60.6631 25.0471C58.9308 22.692 61.3879 22.4277 61.7831 21.3183C62.4032 19.9131 61.4193 19.5363 61.4455 18.173C61.5528 17.388 62.1991 17.1786 62.5288 16.2785C63.0757 14.7922 63.2406 13.6278 62.8795 12.9579C62.2724 11.8249 60.2261 11.872 55.168 12.814C52.4571 13.6435 49.4191 14.2139 47.8203 14.8445C44.2642 16.2471 39.8472 18.0893 36.5816 19.6881C35.4041 20.269 34.4804 20.5202 33.855 20.8839C30.1863 23.0113 30.516 22.6528 25.3062 29.519C22.8753 32.7245 20.2559 36.6652 19.4579 38.4524C18.9685 39.1119 17.8617 40.7892 17.8015 41.4433C17.4744 41.7966 17.3436 42.1028 17.0976 42.5214L16.5481 43.5969L14.6797 46.5538C13.3949 48.409 16.3544 52.6271 16.2707 52.8312C16.2524 52.8783 16.2943 52.9045 16.3021 52.9438C15.6191 52.2373 14.9074 50.9969 14.5358 50.1465C13.9654 48.846 14.1669 48.4875 13.9131 47.4722C13.2929 48.5084 14.5358 50.7379 14.7635 51.9075C13.9706 51.0283 13.9497 50.0392 13.5755 49.2071C13.4133 49.856 13.7953 51.6799 13.9131 52.4126C13.5886 51.8918 13.3976 50.9681 13.2955 50.4186C13.1411 49.5708 13.217 48.9481 13.1019 48.3671C12.4503 49.351 11.9008 50.0131 11.8459 51.0859C11.7072 53.8779 12.78 56.458 14.5227 58.8497C14.6771 59.1349 14.787 59.3599 15.1141 59.5876C14.8577 59.5666 15.0853 59.8152 14.6222 59.271L12.4372 55.7777C11.5659 53.9067 11.8275 52.5591 11.6025 51.6799C10.9902 53.1269 12.5236 58.0594 13.06 59.6111C12.3064 58.3603 11.7961 56.8714 11.4743 55.5343C10.9352 53.3075 11.0007 53.5194 11.1158 51.4522C9.73679 53.6712 10.0613 56.6909 10.9012 59.0067L11.1943 59.9932C11.1734 60.035 11.2048 60.0638 11.2048 60.0978C9.90426 58.6979 9.71063 56.3324 9.65567 55.0502C9.58502 53.4252 10.2235 51.5935 11.5319 49.9607C13.3007 47.726 15.3235 44.9131 16.6684 42.5083C17.5293 41.0116 18.3876 39.5148 19.2485 38.0207C19.3061 37.9082 19.3637 37.793 19.4212 37.6805C20.1487 36.3068 21.5381 34.5012 22.4383 33.1824C22.59 32.8291 23.3934 31.7066 23.6995 31.144C23.8958 30.7698 24.2412 30.2046 24.3746 29.8278C25.7981 28.3389 26.8343 26.4967 28.1008 24.7409C29.4458 22.8726 31.0499 21.1011 33.6456 19.955C38.4133 17.8485 43.2934 15.3365 48.3567 13.7272C48.7257 13.7769 51.4575 12.7067 51.9704 12.5942C54.6081 11.2832 58.7974 10.1842 63.8607 11.4585C66.1346 13.6016 64.719 15.2266 63.7351 16.4643C63.1385 17.2153 62.3169 17.893 62.8481 18.8559C63.7299 20.4521 63.0181 20.9284 62.0761 22.8595C61.8092 23.4064 62.0971 24.3379 61.8956 25.2983C61.7804 25.8373 61.5816 26.6877 60.9352 26.8735C57.5806 27.8443 60.705 29.0218 59.0617 30.6651C57.6487 32.434 56.0394 32.7533 54.3935 34.0904C53.4462 35.6421 53.666 37.1624 52.8496 37.8009C51.7899 38.6304 50.3559 39.138 45.549 39.0098C44.2773 39.1537 42.4404 40.9514 41.6318 42.2885C39.9022 45.1512 39.4626 45.3134 38.374 47.085L38.3792 47.0771Z" fill="#102B30"/>
<path fill-rule="evenodd" clip-rule="evenodd" d="M54.9717 24.2595C54.0978 24.5447 53.0668 24.2045 52.0698 24.2909C49.1653 24.631 46.0148 26.2089 43.5132 27.0253L46.2843 24.7907C49.4479 22.7732 52.8522 22.2551 53.3677 22.2341C54.6342 22.0248 55.3616 23.1264 54.9717 24.2569V24.2595Z" fill="#77A5A1"/>
<path fill-rule="evenodd" clip-rule="evenodd" d="M43.6179 36.3302C44.2721 35.7441 45.7401 34.9983 46.5774 34.5378C47.4095 34.0773 49.1444 32.9311 49.987 33.6821C50.5417 34.1767 50.0707 34.857 49.4584 35.0638C48.8749 35.26 47.98 35.3307 47.352 35.417C45.7558 35.6394 44.314 36.2988 43.9869 36.3538C43.3222 36.4637 43.7906 36.4009 43.6179 36.3329V36.3302Z" fill="#77A5A1"/>
<path fill-rule="evenodd" clip-rule="evenodd" d="M57.3818 18.8795C58.2898 17.2127 57.2327 16.9798 56.5078 16.7678C53.7917 15.9174 43.5656 20.3789 41.7967 23.8539C41.6842 23.9638 41.7627 24.0658 41.5586 24.2673L41.9589 24.0998C42.1107 24.0344 42.0767 24.0632 42.2337 23.9428C42.3567 23.8486 42.3227 23.8565 42.4221 23.7544C45.8003 20.3082 56.0708 19.8843 57.3818 18.8769V18.8795Z" fill="#77A5A1"/>
<path fill-rule="evenodd" clip-rule="evenodd" d="M52.8627 30.2307C51.9887 30.5159 50.9577 30.1758 49.9608 30.2621C47.6502 30.4636 45.201 31.8793 43.2306 32.5701L44.5468 31.6908C45.5124 31.1335 50.7667 28.2891 51.2586 28.208C52.5251 27.9987 53.2526 29.1003 52.8627 30.2307Z" fill="#77A5A1"/>
<path fill-rule="evenodd" clip-rule="evenodd" d="M41.9536 43.1468L-6.07861 34.407C-7.19594 34.1191 -7.7847 35.2836 -7.39481 37.0001L5.79861 78.2891C6.20682 80.0711 7.46807 81.8243 8.61419 82.209L56.0891 93.1206C57.2352 93.5053 57.8344 92.3722 57.4236 90.5903L44.6828 46.7735C44.2903 45.0544 43.0683 43.432 41.951 43.1442L41.9536 43.1468Z" fill="#B3B3B3"/>
</g>
</g>
<defs>
<clipPath id="clip0_320_650">
<rect width="100" height="100" fill="white"/>
</clipPath>
</defs>
</svg>
