<svg width="100" height="101" viewBox="0 0 100 101" fill="none" xmlns="http://www.w3.org/2000/svg">
<g id="Frame" clip-path="url(#clip0_62_4072)">
<g id="Mask group">
<mask id="mask0_62_4072" style="mask-type:alpha" maskUnits="userSpaceOnUse" x="0" y="0" width="100" height="101">
<g id="Group">
<path id="Vector" d="M50 100.31C77.6142 100.31 100 77.9242 100 50.3099C100 22.6957 77.6142 0.309937 50 0.309937C22.3858 0.309937 0 22.6957 0 50.3099C0 77.9242 22.3858 100.31 50 100.31Z" fill="white"/>
</g>
</mask>
<g mask="url(#mask0_62_4072)">
<g id="Group_2">
<path id="Vector_2" d="M50 100.31C77.6142 100.31 100 77.9242 100 50.3099C100 22.6957 77.6142 0.309937 50 0.309937C22.3858 0.309937 0 22.6957 0 50.3099C0 77.9242 22.3858 100.31 50 100.31Z" fill="#E9E9E9"/>
<path id="Vector_3" fill-rule="evenodd" clip-rule="evenodd" d="M50.8197 30.2543C50.8197 30.2543 53.8139 25.8186 56.7798 25.754C59.7467 25.6903 54.7766 22.2537 51.2288 24.4801C48.3145 26.3106 45.5668 28.7613 47.8225 31.4595C49.3832 33.3243 50.8197 30.2543 50.8197 30.2543Z" fill="#1A1A1A"/>
<path id="Vector_4" fill-rule="evenodd" clip-rule="evenodd" d="M46.829 25.0802C46.829 25.0802 49.7868 20.6202 52.7527 20.5303C55.7196 20.4404 50.7192 17.0472 47.1886 19.304C44.2884 21.1597 41.5609 23.6346 43.8409 26.3106C45.4188 28.1622 46.829 25.0802 46.829 25.0802Z" fill="#1A1A1A"/>
<path id="Vector_5" fill-rule="evenodd" clip-rule="evenodd" d="M41.9421 21.7991C41.9421 21.7991 44.3443 17.0219 47.29 16.5603C50.2356 16.0986 44.8372 13.3742 41.5956 16.0481C38.9327 18.2442 36.5154 21.0313 39.1146 23.3901C40.9117 25.0205 41.9421 21.7991 41.9421 21.7991Z" fill="#1A1A1A"/>
<path id="Vector_6" fill-rule="evenodd" clip-rule="evenodd" d="M36.4125 20.5413C36.4125 20.5413 37.8045 15.3782 40.5967 14.3347C43.3898 13.2912 37.554 11.7052 34.9174 14.9751C32.7486 17.6632 30.9424 20.8787 33.9628 22.6667C36.0529 23.9042 36.4125 20.5413 36.4125 20.5413Z" fill="#1A1A1A"/>
<path id="Vector_7" fill-rule="evenodd" clip-rule="evenodd" d="M30.1375 22.0333C30.1375 22.0333 30.0981 16.6864 32.5114 14.9358C34.9217 13.1851 28.8748 13.2154 27.208 17.0693C25.8372 20.2382 24.9563 23.8183 28.3454 24.7355C30.6891 25.3699 30.1375 22.0333 30.1375 22.0333Z" fill="#1A1A1A"/>
<path id="Vector_8" fill-rule="evenodd" clip-rule="evenodd" d="M77.034 58.1467L36.7834 50.5562C35.6358 50.1835 32.9164 50.038 30.7829 52.1947L2.66052 74.6773C3.05449 76.4249 6.70326 78.4755 7.85184 78.8483L46.2639 87.7045C47.4125 88.0763 50.342 88.5955 51.6815 87.0449L78.8473 63.7593C79.6938 61.7409 80.4817 58.7932 77.034 58.1467Z" fill="#CCCCCC"/>
<path id="Vector_9" fill-rule="evenodd" clip-rule="evenodd" d="M43.3616 69.758C42.205 60.033 45.1617 53.4466 46.8073 48.13C48.4266 42.8983 52.7654 38.7778 49.7742 28.3416C47.3912 20.0278 33.7336 12.5272 22.2489 24.5201C12.9289 34.2522 9.37308 44.8863 9.13265 51.6485C8.84273 59.7976 8.65181 56.9903 9.07507 67.0446C9.44076 75.7544 44.297 77.6323 43.3616 69.758Z" fill="#B37F3E"/>
<path id="Vector_10" fill-rule="evenodd" clip-rule="evenodd" d="M19.3242 61.6942L64.3893 69.5433L52.4571 79.534L7.39197 71.6849L19.3242 61.6942Z" fill="#666666"/>
<path id="Vector_11" fill-rule="evenodd" clip-rule="evenodd" d="M61.076 22.0867L59.4375 27.4416C67.9675 30.0206 74.4064 37.6717 74.9882 47.0785C75.068 48.3483 75.0296 49.5979 74.8973 50.8222L80.4674 51.4667C80.6372 49.9202 80.6856 48.3412 80.5866 46.7361C79.8553 34.9311 71.7789 25.3283 61.076 22.0867Z" fill="#AFE5F4"/>
<path id="Vector_12" fill-rule="evenodd" clip-rule="evenodd" d="M69.1432 50.156C69.2392 49.262 69.2796 48.3528 69.222 47.4245C68.7917 40.4906 64.0357 34.868 57.7464 32.9719L56.1604 38.1541C60.3456 39.4077 63.5125 43.1454 63.7973 47.7558C63.8347 48.3589 63.8095 48.9499 63.7489 49.5317L69.1432 50.156Z" fill="#AFE5F4"/>
<path id="Vector_13" fill-rule="evenodd" clip-rule="evenodd" d="M57.8195 48.1161C57.6923 46.0675 56.275 44.4199 54.4102 43.8744L53.0575 48.2949L57.7912 48.8425C57.8125 48.603 57.8347 48.3636 57.8195 48.1161Z" fill="#AFE5F4"/>
<g id="Mask group_2">
<mask id="mask1_62_4072" style="mask-type:alpha" maskUnits="userSpaceOnUse" x="62" y="11" width="30" height="42">
<g id="Group_3">
<path id="Vector_14" fill-rule="evenodd" clip-rule="evenodd" d="M62.8982 11.421H91.8137V52.751H62.8982V11.421Z" fill="white"/>
</g>
</mask>
<g mask="url(#mask1_62_4072)">
<g id="Group_4">
<path id="Vector_15" fill-rule="evenodd" clip-rule="evenodd" d="M64.3397 11.4207L62.8982 16.1342C76.0194 20.1123 85.9212 31.888 86.8172 46.3629C86.9395 48.3388 86.8789 50.2824 86.6698 52.1845L91.5701 52.7512C91.8126 50.5652 91.8823 48.3307 91.7419 46.0598C90.7145 29.4757 79.3722 15.9837 64.3397 11.4207Z" fill="#AFE5F4"/>
</g>
</g>
</g>
<g id="Mask group_3">
<mask id="mask2_62_4072" style="mask-type:alpha" maskUnits="userSpaceOnUse" x="-15" y="30" width="66" height="60">
<g id="Group_5">
<path id="Vector_16" fill-rule="evenodd" clip-rule="evenodd" d="M-14.4445 30.3651H50.6261V89.1988H-14.4445V30.3651Z" fill="white"/>
</g>
</mask>
<g mask="url(#mask2_62_4072)">
<g id="Group_6">
<path id="Vector_17" fill-rule="evenodd" clip-rule="evenodd" d="M35.025 39.1486L-13.007 30.4086C-14.1243 30.1217 -14.7142 31.2844 -14.3243 33.0027L-1.13031 74.2918C-0.722191 76.0727 0.538513 77.8274 1.68607 78.2113L49.1614 89.1243C50.308 89.5081 50.9071 88.3747 50.4969 86.5948L37.7575 42.7772C37.3656 41.0589 36.1422 39.4345 35.025 39.1486Z" fill="#B3B3B3"/>
</g>
</g>
</g>
</g>
</g>
</g>
</g>
<defs>
<clipPath id="clip0_62_4072">
<rect width="100" height="100" fill="white" transform="translate(0 0.309937)"/>
</clipPath>
</defs>
</svg>
