<svg width="100" height="100" viewBox="0 0 100 100" fill="none" xmlns="http://www.w3.org/2000/svg">
<mask id="mask0_320_1941" style="mask-type:luminance" maskUnits="userSpaceOnUse" x="0" y="0" width="100" height="100">
<path d="M50.0296 99.9994C77.6198 99.9832 99.9832 77.6197 99.9994 50.0296V49.9699C99.9832 22.3797 77.6197 0.0162597 50.0296 0H49.9699C22.3797 0.0162597 0.0162597 22.3797 0 49.9699V50.0296C0.0162597 77.6198 22.3797 99.9832 49.9699 99.9994H50.0296Z" fill="white"/>
</mask>
<g mask="url(#mask0_320_1941)">
<path d="M0 0H99.9995V99.9995H0V0Z" fill="#EDEDED"/>
</g>
<mask id="mask1_320_1941" style="mask-type:luminance" maskUnits="userSpaceOnUse" x="0" y="0" width="100" height="100">
<path d="M50.0296 99.9994C77.6198 99.9832 99.9832 77.6197 99.9994 50.0296V49.9699C99.9832 22.3797 77.6197 0.0162597 50.0296 0H49.9699C22.3797 0.0162597 0.0162597 22.3797 0 49.9699V50.0296C0.0162597 77.6198 22.3797 99.9832 49.9699 99.9994H50.0296Z" fill="white"/>
</mask>
<g mask="url(#mask1_320_1941)">
<path fill-rule="evenodd" clip-rule="evenodd" d="M76.3098 101.942C76.3139 101.908 78.0975 59.6636 76.089 49.3435C76.0161 48.9689 75.9431 48.6004 75.8498 48.2512C75.4446 46.6018 75.0413 44.9513 74.6184 43.3069C74.4423 42.619 74.1078 41.4039 73.8724 40.7738C73.8002 40.5803 73.7771 40.3236 73.7144 40.1173C73.6565 39.9271 73.5545 39.6857 73.5258 39.4838C73.4869 39.2117 73.4532 39.0797 73.3803 38.8224C72.9966 37.4682 72.8821 36.0588 72.7196 34.6665L72.3908 32.5481C72.6043 32.4471 73.0393 32.0927 73.2442 31.9286C73.5209 31.7071 73.9819 31.1394 74.067 31.3923C74.1252 31.5647 74.1445 32.3659 74.1588 32.5462C74.1754 32.7499 74.1203 33.7133 74.1683 33.8044C74.2114 33.7345 74.2537 33.2549 74.2654 33.135C74.3176 32.6127 74.2753 32.7552 74.29 32.4657C74.3096 32.0836 74.1895 31.4271 74.2144 31.2483C74.3232 31.195 74.4525 31.0911 74.6079 31.0703C74.8112 31.2592 74.8457 32.223 74.8543 32.5896C74.8713 33.3043 74.7919 33.3935 74.7171 33.8849C74.564 34.8951 74.3119 35.7274 73.9245 36.6613C73.8311 36.8862 73.7167 37.1186 73.632 37.3597C73.7567 37.2611 74.5761 35.5561 74.6922 35.2628C75.01 34.4597 75.2901 33.0174 75.2243 32.184C75.1937 31.7951 75.0528 31.0759 75.0486 30.984C75.1495 30.9066 75.4659 30.6568 75.62 30.6692C75.7659 30.8144 75.9871 31.7105 76.0203 31.9906C76.1175 32.8074 76.1416 32.6342 76.1428 33.5262C76.1443 34.5127 75.8975 35.4118 75.5581 36.3284C75.5218 36.4274 75.4474 36.5596 75.4175 36.6492C75.5282 36.622 75.5827 36.4444 75.6383 36.3336C76.1122 35.3982 76.4765 33.8448 76.3378 32.8202C76.2532 32.1969 76.1557 31.4618 75.941 30.8703C75.879 30.7006 75.6829 30.2939 76.0884 30.264C76.4301 30.9046 76.6863 31.8393 76.6973 32.5707C76.6996 32.6954 76.6591 32.8462 76.6784 32.9566C76.8553 32.7914 76.827 32.1599 76.7982 31.938C76.6607 30.8756 76.1633 30.0603 76.1909 29.8831C76.2064 29.7845 76.3379 29.5815 76.4245 29.5407C76.5443 29.5252 76.7397 29.9637 76.8096 30.0982C76.8662 30.2082 76.9237 30.2569 76.9944 30.382C77.3428 30.9969 77.4089 31.2491 77.6233 31.9531C77.8852 32.8152 77.9071 33.3315 77.9529 34.1857C77.96 34.3248 77.9684 34.8876 77.988 34.9749C78.0802 34.959 78.0663 34.9534 78.0833 34.8294C78.1199 34.5587 78.089 34.4472 78.0954 34.1872L78.0715 33.3595C77.9774 32.4112 77.9533 32.3538 77.6868 31.5276C77.511 30.9773 77.251 30.45 76.9819 29.9402C76.8809 29.7493 76.6988 29.5399 76.7117 29.2984C76.9252 29.3559 77.6229 30.362 77.7741 30.6319C78.0394 31.1051 78.3229 31.6062 78.4956 32.2068C78.6766 32.836 78.832 33.3493 78.9158 34.0387C79.0655 35.2701 78.8795 35.4046 78.8773 36.2236C78.9306 36.469 78.7352 36.9316 78.7987 37.1992C78.973 37.1428 79.143 34.7311 79.1476 34.5331C79.1537 34.2727 79.0784 33.5954 79.0319 33.3225C78.7333 31.5643 78.081 30.4324 77.0088 29.0914C76.878 28.9285 76.9351 28.7123 77.081 28.6023C77.1622 28.5808 77.3648 28.786 77.4242 28.8461C77.8728 29.3007 78.1313 29.481 78.535 30.0687C78.919 30.6273 79.2901 31.2071 79.574 31.8243L79.9486 32.8391C80.0748 33.1618 80.1625 33.5549 80.2611 33.8781C80.4531 34.5081 80.5049 35.1933 80.6398 35.8431C80.6625 35.9527 80.6629 36.0154 80.7271 36.0679C80.7736 36.0044 80.6281 34.9737 80.6058 34.7874C80.5589 34.3958 80.4596 33.943 80.3609 33.5742C80.1081 32.6305 79.7978 31.3961 79.2074 30.6024C79.0619 30.3511 78.9444 30.119 78.766 29.8907C78.4118 29.4349 78.108 29.0365 77.7017 28.6056C77.3162 28.1978 77.2103 28.2281 77.2395 27.9011C77.2515 27.7685 77.2039 27.7114 77.2357 27.5663L77.3086 27.5761C77.9357 27.7182 79.2331 28.9326 79.8009 29.4678C80.1002 29.752 80.7628 30.6693 80.9604 31.0287C81.1479 31.3689 81.3611 31.6863 81.5708 32.0129C81.4778 31.5658 80.8024 30.1923 80.457 29.862L79.813 29.0566C79.7275 28.9458 79.6209 28.868 79.5072 28.7409L77.4647 27.1093C77.4262 27.0149 77.4806 26.6505 77.5086 26.5723L77.4757 26.5541C77.4969 26.3791 77.5657 25.7475 77.5449 25.6553L77.4387 25.26C77.393 25.1942 77.3684 25.099 77.3729 24.9527C77.2705 24.5903 77.0365 24.1821 76.9489 23.8215C76.9096 23.6601 76.8193 23.5096 76.7323 23.3649L76.7281 23.3642C76.6113 23.1537 76.5203 22.8638 76.3868 22.6847C76.2594 22.6775 76.2266 22.4874 76.1249 22.4004C75.9824 22.2776 75.6948 21.9185 75.4004 21.7178C75.2496 21.5368 74.5178 21.3478 74.4105 21.1528L74.511 21.1887C74.5601 20.7306 74.5292 20.2544 74.5579 19.7854C74.6051 19.0026 74.3085 18.2683 74.1346 17.5165C74.0488 17.1473 73.9233 16.7988 73.8065 16.4386C73.5064 15.6702 73.5022 15.2495 72.8964 14.4849C72.4799 13.9595 71.897 13.5495 71.4742 13.0951L71.0962 12.7811C70.5951 12.1 69.8475 11.4178 69.2567 10.7556C69.2442 10.7719 68.7291 10.3183 68.6595 10.2677L68.6683 10.2519C68.593 10.2065 68.55 10.1785 68.4827 10.1214L68.469 10.1328C68.234 9.96647 68.0049 9.83228 67.7407 9.71705C67.4644 9.5836 67.3223 9.41999 67.1065 9.21927C66.5536 8.85569 65.7319 8.52044 65.0894 8.2532C64.3818 7.95952 63.3092 7.64208 62.4909 7.49541C60.586 7.15409 58.7152 6.83247 56.7664 6.85325C53.5822 6.88881 50.3242 7.38355 47.4223 8.75246L47.4102 8.76305C47.0977 8.82843 45.5998 9.63197 45.3103 9.80509C43.6337 10.8055 42.2039 11.9296 40.9037 13.4021C39.294 15.2242 38.1885 17.2417 37.0815 19.4274C37.0649 19.4554 37.0357 19.5019 37.0225 19.5446C36.9666 19.7483 35.9424 21.8769 35.8285 22.0965C35.7197 22.3074 35.4975 22.7236 35.423 22.9466C32.5237 29.3117 28.8481 35.7459 25.577 41.9837C25.2924 42.4746 25.0551 43.0949 24.7738 43.6198C24.6854 43.785 24.6257 44.0035 24.5418 44.192C23.9881 45.4979 23.4336 46.8052 22.929 48.1311L22.4747 49.2468C22.3269 49.6629 22.1519 49.952 22.0162 50.3583C21.8658 50.8088 21.636 51.1739 21.5487 51.4702C21.2414 52.7659 19.5176 55.9309 18.7133 59.1506C15.3888 72.4609 13.0039 92.8213 14.6912 94.4771C32.0846 111.546 57.5933 111.537 76.3099 101.942L76.3098 101.942Z" fill="#8DBAB1"/>
<path fill-rule="evenodd" clip-rule="evenodd" d="M72.5348 15.8549C72.5393 15.8613 72.5457 15.8696 72.5491 15.8738L72.658 15.9751C72.7025 16.011 72.7297 16.0363 72.7759 16.0839C73.138 16.4577 73.1621 16.5745 73.3791 16.8205C73.5167 16.9758 73.6705 17.0892 73.759 17.3292C73.7971 17.4328 73.7608 17.5496 73.8017 17.7008C73.9079 18.0927 74.2117 19.0984 74.0916 19.4469C73.9344 19.9023 73.1271 20.1669 73.0008 19.9624C72.7737 19.897 72.4566 19.722 72.2623 19.6189L71.7785 19.3354C71.7256 19.2999 71.6772 19.2651 71.6281 19.2875C71.9576 19.5872 74.0598 21.0737 74.5107 21.189C74.5598 20.7309 74.5288 20.2547 74.5576 19.7856C74.6048 19.0029 74.3081 18.2686 74.1343 17.5168C74.0874 17.315 74.0515 17.1679 73.9816 16.9805L73.8062 16.4388C73.5062 15.6705 73.502 15.2498 72.8961 14.4852C72.3496 13.7958 72.2725 13.8699 71.6655 13.4545C71.5521 13.377 71.2407 13.1483 71.105 13.2821C71.2713 13.3135 71.2508 13.3055 71.3794 13.5244L72.4187 15.1053C72.5412 15.2815 72.6851 15.5937 72.6546 15.8828L72.5348 15.8548V15.8549Z" fill="#3B6B74"/>
<path fill-rule="evenodd" clip-rule="evenodd" d="M60.5888 32.07C62.6914 32.318 64.7342 32.445 66.1602 32.0889C68.5217 31.4993 69.6196 30.175 69.6393 30.2222C69.7935 30.1413 69.894 30.0245 69.9908 29.9788C70.3052 29.8295 70.2731 29.7067 70.693 29.8662C70.885 29.9395 71.103 30.1259 71.2958 30.2479C71.4738 30.3692 71.4182 30.2475 71.7179 30.4744C71.8332 30.5617 71.7542 30.5401 71.8589 30.638C71.9364 30.711 71.9724 30.7072 72.0475 30.7933C72.2202 30.9918 72.1601 30.9476 72.4285 31.0481C72.5124 31.0795 72.5729 31.1078 72.6398 31.1649C72.7124 31.2272 72.7589 31.262 72.833 31.3168L72.7933 31.4827C72.9146 31.437 73.0752 31.1347 73.0995 30.9876C72.8606 30.5152 71.7683 29.7226 71.2293 29.3205C71.0513 29.1874 70.865 29.0737 70.6824 28.9659C70.4198 28.8109 70.2674 29.006 70.0913 29.1209C68.7847 29.9739 68.3716 30.2343 66.8889 31.0012C65.8537 31.5364 65.1121 31.7182 64.0021 31.7269L63.1003 31.6675C60.404 31.7956 57.6117 30 57.5607 30.0983C57.3906 30.4256 57.7776 32.0039 62.4034 33.2081C62.6305 33.1994 63.5282 33.4254 63.852 33.4659C64.402 33.5339 66.0396 33.2757 66.5048 33.1839C67.613 32.8883 68.8365 32.7969 70.1683 32.5769C69.9253 32.7133 71.5437 32.1661 71.6246 32.095C71.2069 31.9359 70.6849 31.4162 70.6623 31.429C70.2677 31.6509 69.6826 31.7234 68.7695 32.1797C67.659 32.665 65.3006 33.1533 63.734 33.0471C62.7627 32.9813 61.3242 32.1797 60.5887 32.0701L60.5888 32.07Z" fill="#3B6B74"/>
<path fill-rule="evenodd" clip-rule="evenodd" d="M57.6268 28.8005C57.541 28.8874 57.4454 28.872 57.5369 29.0424C57.5939 29.1486 57.8517 29.3353 57.9696 29.4158C58.0887 29.4971 58.1378 29.4736 58.143 29.6305L58.2519 29.6607L58.2768 29.6388L59.0414 29.1573C59.3944 28.915 59.6057 28.7086 59.9353 28.7714L59.9671 28.7627C60.0567 28.9966 59.6636 29.1743 59.5717 29.2797C59.447 29.3179 58.8378 29.7431 58.6545 29.8493C58.5483 29.9106 58.5622 29.8762 58.5263 30.0111C58.8174 30.0727 58.9651 30.1611 59.108 30.1593C59.2089 30.1578 59.5267 30.3664 59.6885 30.3947C59.7362 30.4355 59.7619 30.4502 59.8442 30.4454C59.9591 30.4378 59.9459 30.3509 60.3575 30.4699C60.4524 30.4975 60.5571 30.5157 60.6557 30.5304C60.7642 30.5599 60.9815 30.6358 61.0628 30.657C61.1259 30.5966 61.1883 30.5433 61.2076 30.5282L61.4959 30.3271C61.6894 30.2051 61.8897 29.9952 62.0784 29.8498L62.248 29.688C62.2371 29.6509 62.2466 29.6646 62.2352 29.5973C62.3093 29.7122 62.2957 29.7164 62.4046 29.767C63.442 29.3444 63.1647 30.1608 64.1609 30.0829C64.0981 30.3868 64.1975 30.4106 63.9424 30.5713C63.8872 30.6064 63.7995 30.676 63.7576 30.724C63.5948 30.9106 63.7727 30.7549 63.5694 30.8884C63.7055 30.919 63.7909 30.9114 63.9262 30.9231C64.1238 30.9401 64.1099 30.9337 64.2323 31.0384C64.3744 31.0622 64.3325 31.0165 64.4357 30.9867C64.4357 30.9803 64.4357 30.9504 64.4361 30.9281C64.6077 30.8476 64.8416 30.7448 64.9452 30.6912C65.0586 30.7509 65.3458 30.656 65.5034 30.6265C65.7094 30.588 65.8655 30.5638 66.0579 30.5184C66.6803 30.3714 67.8331 29.7142 68.419 29.374L68.8524 29.0985C68.9598 29.078 69.0981 28.9635 69.1934 28.9019C69.3124 28.8248 69.4265 28.7424 69.5343 28.6566C69.9946 28.2885 70.3809 27.8856 70.5389 27.2571C70.5804 27.0926 70.6391 26.8987 70.6224 26.7102L70.5672 26.3697C70.5366 26.2457 70.5729 26.3194 70.5059 26.2385L70.5026 26.226C70.4995 26.0465 70.3665 25.7679 70.2977 25.5793C70.2569 25.4678 70.2195 25.3843 70.1522 25.2608C70.1038 25.172 70.0241 25.0695 69.9844 24.946L69.8865 24.8674C69.5895 24.5253 69.2591 24.4762 69.1514 24.3564C68.6166 24.1685 67.5096 23.6163 67.1558 23.1632C66.9748 22.9308 66.9585 22.7921 66.8866 22.5732L66.8398 22.467C66.9717 21.9594 66.9078 21.8921 67.2699 21.3358C67.4879 21.0013 67.9861 20.7809 68.0654 20.7019L68.0726 20.6384C67.8103 20.6683 67.4762 20.6509 67.2332 20.7253C66.9965 20.7983 66.7323 20.8319 66.489 20.915C66.3389 20.9665 65.8733 21.1604 65.7459 21.1543C65.6552 21.1498 65.1903 20.9513 64.9034 21.1241C64.5312 21.1694 64.1211 21.4332 63.9038 21.5957C63.567 21.8467 62.697 22.6408 62.2978 22.9741C62.1176 23.1253 61.8738 23.3789 61.7986 23.6241C61.7396 23.8184 61.8341 23.7114 61.7941 23.8566C61.7672 23.953 61.8273 23.8849 61.7472 23.9273C61.6512 23.976 61.6016 24.058 61.4365 24.1007C61.3499 24.1536 61.5393 24.165 61.3174 24.1401C61.2275 24.0051 61.3008 23.9711 61.3544 23.8369C60.8673 23.7753 60.9674 23.5021 61.1742 23.2001C61.3355 22.9646 61.5616 22.8255 61.571 22.4619C61.2622 22.2348 60.8986 22.4994 60.7111 22.6332L60.2232 23.0432C60.1593 23.1147 60.1597 23.1831 60.0489 23.171C59.917 23.2349 58.8811 24.6185 58.5421 24.8048C58.5126 24.9447 58.2748 25.0342 58.2076 25.2123C58.6501 25.2962 59.5255 25.261 59.9098 25.4016C59.8671 25.4961 59.8516 25.4976 59.7405 25.5271C59.677 25.5437 59.612 25.5524 59.5387 25.5581C59.3301 25.5747 58.2574 25.5347 58.1111 25.5003C58.1047 25.5041 58.0953 25.5067 58.0907 25.5082C57.9323 25.5589 57.9508 25.5169 57.8529 25.6042C57.7857 25.6644 57.7441 25.7059 57.6749 25.7717C57.8442 26.144 58.2233 26.1088 57.2689 26.6954C57.2576 26.7279 56.9193 27.1769 57.0993 27.9483C57.0467 28.2756 57.3313 28.2571 57.6265 28.8006L57.6268 28.8005ZM64.1608 30.0829C64.2493 30.0761 64.3408 30.0898 64.4291 30.1196C64.3494 30.1354 64.2711 30.095 64.1608 30.0829ZM61.5427 30.4083L61.4361 30.5304L61.2468 30.6941C61.393 30.7262 61.5087 30.7568 61.7094 30.7795C62.0133 30.8139 62.9529 30.9904 63.2356 30.86C63.547 30.7111 63.547 30.6366 63.8543 30.2999C63.1271 30.7194 61.8031 30.304 61.5427 30.4083H61.5427ZM60.3258 25.0637C60.3998 24.9953 60.4762 25.0002 60.5926 24.9873C60.6973 24.9756 60.7876 24.9624 60.8847 24.9439C61.1777 24.8891 61.1119 24.9375 61.3855 25.0852L61.3897 25.0943C61.4581 25.2568 61.0167 25.3709 60.8651 25.3887C60.6489 25.414 60.336 25.1997 60.3258 25.0636V25.0637Z" fill="#C2DAD6"/>
<path fill-rule="evenodd" clip-rule="evenodd" d="M66.8836 28.9604L66.7887 29.126C66.8798 29.1366 66.7812 29.2171 66.7521 29.2489C66.6935 29.3123 66.6792 29.3252 66.6304 29.3872C66.5155 29.5334 66.3885 29.6891 66.2052 29.7496C66.1504 29.7681 66.0937 29.781 66.0226 29.8078C65.8756 29.8637 65.7354 29.99 65.6848 29.8815C65.6232 29.9552 65.3934 30.1033 65.2671 29.9726C65.1734 30.0054 65.2354 29.9884 65.1473 30.0323C64.9708 30.1196 64.7005 30.0754 64.7017 30.0035L64.7055 29.9321C64.7059 29.9306 64.7383 29.8463 64.7425 29.8338L64.5172 30.0764C64.3955 30.1732 62.2957 29.9596 62.2351 29.5972L62.2185 29.5946C61.7926 29.5401 61.4415 29.934 61.2411 29.8984C61.0866 29.9449 61.107 29.9944 60.938 29.9921C60.8428 29.9566 60.8129 29.9112 60.7392 29.8584C60.6519 29.7956 60.6182 29.7895 60.676 29.6607C60.7486 29.5881 60.865 29.5269 60.9504 29.4513C61.0498 29.3628 61.0978 29.2925 61.2471 29.2619C61.2963 29.2093 61.6712 29.0245 61.7721 28.9731C61.9653 28.8748 62.1534 28.786 62.3013 28.6613C62.4324 28.5165 62.5477 28.4489 62.4604 28.2259C61.7793 27.9753 61.6016 28.6322 61.0354 28.9671L60.3911 29.4033L60.2501 29.4059C60.238 29.3405 60.1472 29.1889 60.108 29.1115C60.0184 28.9342 60.0448 29.0083 60.0619 28.7744L59.967 28.7626L59.9406 28.726C59.7981 28.7007 59.6344 28.678 59.4954 28.6953C59.2187 28.7301 59.1597 28.9512 58.5974 28.5729L58.6148 28.4826C58.5044 28.4969 57.8732 28.7433 57.7463 28.797C57.5974 28.8015 57.3672 28.9508 57.2043 29.0117C57.1268 29.0408 57.0705 29.0809 57.0009 29.1107C56.7379 29.2245 56.7197 29.2128 56.8082 29.2415C56.9072 29.2736 56.8645 29.3745 57.3101 29.7253C57.8105 30.1304 60.6818 30.9915 61.7061 30.9136C62.112 30.883 63.5746 31.041 63.5493 31.0573C63.6854 31.0882 63.7909 30.9114 63.9262 30.9231C64.5815 30.9797 65.3726 30.68 66.0578 30.5183C66.6802 30.3712 67.8331 29.714 68.4189 29.3738L68.8524 29.0983C68.9597 29.0778 69.098 28.9633 69.1933 28.9017C69.3124 28.8246 69.4264 28.7422 69.5342 28.6564C69.9945 28.2883 70.3808 27.8854 70.5388 27.2569C70.5803 27.0925 70.639 26.8985 70.6223 26.71L70.5671 26.3695C70.5365 26.2455 70.5728 26.3192 70.5059 26.2383L70.5025 26.2258C70.4885 26.47 70.4477 26.5399 70.2878 26.6412C70.1646 26.7191 70.0523 26.7637 69.9167 26.8484C69.7647 26.9428 69.2855 27.2161 69.0228 27.0872L68.8289 27.0755C68.7854 27.2123 68.8833 27.2161 68.748 27.5634C68.4638 28.2909 68.1501 27.9527 67.8673 28.3521C67.7819 28.5963 67.6844 28.7626 67.5404 28.9391C67.3559 28.983 67.4206 28.9157 67.2539 29.0113C67.0585 29.1239 67.0132 29.119 66.9387 29.0226C66.9335 29.0162 66.9059 28.995 66.9036 28.9818C66.9009 28.9682 66.8911 28.9667 66.8835 28.9603L66.8836 28.9604Z" fill="#3B6B74"/>
<path fill-rule="evenodd" clip-rule="evenodd" d="M62.1936 13.5255C62.2083 13.7043 62.3202 13.6079 62.3625 13.8022C62.3867 13.9129 62.3512 14.0206 62.299 14.1018C61.9022 14.4938 62.0069 14.4265 62.0197 15.1291C62.0212 15.21 62.0145 15.2429 62.0178 15.3283C61.9766 15.3615 61.9256 15.4107 61.8958 15.4304C61.7204 15.5479 61.8875 15.4802 61.6607 15.5229C61.4238 15.442 61.1191 15.1427 60.686 14.9805C59.7902 14.6457 58.4779 14.5894 57.2077 14.5822C56.6343 14.5841 56.0806 14.691 55.519 14.7209C55.581 14.578 56.5065 14.117 56.6929 13.9938L57.2209 13.6003C57.3207 13.4498 57.1846 13.485 57.4605 13.3762C57.6457 13.3032 57.7228 13.2771 57.9696 13.2839C58.4459 13.3187 58.8824 13.6623 59.5952 13.5512C59.6198 13.4415 59.5997 13.3176 59.4274 13.2885L59.4489 13.2307L59.4421 13.1385C59.7717 13.0875 59.9977 13.0425 60.2679 13.0731C60.5695 13.256 61.0186 13.6578 61.1667 13.6813C61.3342 13.5251 61.2393 13.1514 61.2363 12.9548C61.8138 13.0206 62.1812 13.3725 62.1936 13.5255L62.1936 13.5255Z" fill="#C2DAD6"/>
<path fill-rule="evenodd" clip-rule="evenodd" d="M68.7462 13.6048C68.7235 13.7828 68.6736 13.6872 68.6354 13.8807C68.6135 13.9906 68.623 14.098 68.643 14.1789C69.2239 14.5394 69.0754 14.4797 69.3029 15.1589C69.3293 15.2372 69.3464 15.2689 69.3728 15.3517C69.3834 15.3849 69.3951 15.434 69.4034 15.4541C69.4537 15.5728 69.3982 15.5039 69.4805 15.5478C69.5754 15.4688 69.6986 15.1736 69.8729 15.0153C70.2327 14.6872 70.7437 14.6381 71.2301 14.6373C71.526 14.6369 71.8027 14.7413 72.09 14.7688C72.0704 14.6271 71.6315 14.1717 71.5457 14.0495L71.3065 13.6602C71.2676 13.5109 71.3348 13.5453 71.2018 13.438C71.1122 13.3662 71.0748 13.3405 70.947 13.3481C70.6983 13.3844 70.4436 13.7283 70.0853 13.6202C70.0819 13.5113 70.1027 13.3877 70.1941 13.3583L70.1877 13.3008L70.199 13.209C70.0334 13.1594 69.9204 13.1156 69.7783 13.1474C69.6071 13.3303 69.3414 13.7317 69.2632 13.7558C69.1898 13.6009 69.2703 13.2286 69.2885 13.0332C68.985 13.1005 68.7654 13.4524 68.7461 13.6047L68.7462 13.6048Z" fill="#C2DAD6"/>
<path fill-rule="evenodd" clip-rule="evenodd" d="M75.9224 26.4282C75.9023 26.2932 75.826 26.3216 75.8441 26.1583L75.9658 26.156C75.9696 26.1628 75.9738 26.1723 75.976 26.1775L76.01 26.2826C76.0459 26.3982 76.0999 26.4701 76.1124 26.5982C75.917 26.5706 76.0667 26.5661 75.9223 26.4281L75.9224 26.4282Z" fill="#C2DAD6"/>
<path fill-rule="evenodd" clip-rule="evenodd" d="M74.1044 26.3732C74.3293 26.3656 74.4192 26.4734 74.3368 26.6876C74.1758 26.733 74.1252 26.7171 73.9645 26.6699L74.0171 26.4885C74.0299 26.476 74.0927 26.417 74.1044 26.3732Z" fill="#C2DAD6"/>
<path fill-rule="evenodd" clip-rule="evenodd" d="M75.9246 25.1824C76.0799 25.2194 76.1351 25.2961 76.0966 25.4685C75.959 25.5105 75.9855 25.5146 75.8301 25.4715C75.8354 25.4024 75.8532 25.4954 75.8264 25.3895C75.8105 25.326 75.8249 25.3683 75.7943 25.326C75.82 25.1967 75.7992 25.1971 75.9247 25.1824H75.9246Z" fill="#C2DAD6"/>
<path fill-rule="evenodd" clip-rule="evenodd" d="M72.1651 26.1125C72.037 26.4791 72.026 26.3574 72.1292 26.7459C72.2415 27.1696 72.599 28.1421 73.9925 28.1039C74.0806 28.0956 74.143 28.0877 74.2314 28.0767C74.3697 28.0597 74.3871 28.0817 74.3735 27.9698C74.3345 27.844 74.1682 27.754 74.2034 27.5382C74.3606 27.5091 74.4256 27.4736 74.4846 27.6342C74.5167 27.7219 74.5556 27.8542 74.5556 27.957C74.6939 28.0265 74.8769 27.966 75.0356 27.926C75.0474 27.8587 75.0349 27.8149 75.0338 27.8054C74.9302 27.7642 74.8965 27.652 74.9555 27.5171C75.16 27.5126 75.1399 27.6101 75.1932 27.7393C75.2008 27.7454 75.2129 27.7435 75.2171 27.7552C75.2534 27.8652 75.5757 27.7064 75.6165 27.6943L75.6354 27.601C75.6037 27.5061 75.5115 27.4724 75.5141 27.3137L75.6045 27.2672L75.7757 27.2078C75.8434 27.1999 75.8883 27.2078 75.9519 27.1863C76.1068 27.133 76.0573 27.0528 76.2277 27.0306C76.4685 27.0835 76.5512 27.1353 76.6972 27.2751C76.7557 27.3306 76.9496 27.5926 77.0759 27.5461C76.9742 27.4051 76.7769 27.3413 76.7561 27.1648C76.9202 27.11 77.0449 27.1414 77.085 26.9335C77.1205 26.7476 77.1432 26.5034 77.0865 26.3718C76.99 26.3745 76.7198 26.2361 76.5974 26.1991C76.4867 26.1658 76.4284 26.1658 76.309 26.1519C76.1446 26.133 76.1038 26.125 76.128 25.9833C76.2754 25.8064 76.2032 25.8295 76.1662 25.6768C76.6666 25.6821 76.8129 25.9614 77.1296 25.9788C77.1549 25.8095 77.1103 25.6863 77.0786 25.5529C77.0279 25.3367 77.0389 25.3359 76.8813 25.2021C76.4285 24.8174 76.941 24.8869 76.8004 24.4859C76.7819 24.4342 76.7936 24.4595 76.7664 24.4228C76.5623 24.3218 76.3034 24.4756 76.1393 24.5074C75.9209 24.5497 75.744 24.2897 75.7482 24.1208C76.0139 23.8955 76.0445 24.2017 76.3427 24.1003L76.5616 24.1026C76.5344 23.7957 76.1794 23.2787 75.9104 23.0424C75.6738 22.835 75.9765 23.0111 75.5593 22.5364C74.9126 21.8001 74.1321 21.4887 73.4261 21.026C73.2783 20.9289 72.9804 20.6912 72.8667 20.6704L72.6947 20.6077C72.6494 20.6379 72.5794 20.6742 72.5379 20.7029L72.5488 20.8277C72.5949 20.8719 72.7982 20.9758 72.8739 21.0246C72.9933 21.101 73.1131 21.1909 73.2079 21.2676C73.3338 21.3686 73.6857 21.7234 73.7314 21.8444C74.019 22.0111 74.2368 22.4609 74.3033 22.7534C74.388 23.1253 73.9699 23.5539 73.8108 23.7909C73.5841 24.1287 73.3913 24.3771 73.1543 24.6953C72.9941 24.9104 72.6441 25.3764 72.5178 25.6013L72.4566 25.5964C72.3848 25.723 72.1935 25.9663 72.1652 26.1126L72.1651 26.1125Z" fill="#C2DAD6"/>
<path fill-rule="evenodd" clip-rule="evenodd" d="M58.7924 16.2242C58.953 16.2855 59.6134 16.6055 59.6496 16.609C59.7479 16.6683 59.7641 16.7004 59.8518 16.7431L60.4486 17.1105C60.6482 17.2371 61.0787 17.4987 60.8919 17.8188C60.7377 17.8898 60.3885 17.6812 60.1368 17.6555C60.1148 17.6903 60.0964 17.5897 60.1269 17.7379C60.1606 17.832 60.6591 18.1684 60.7955 18.272C61.0163 18.439 61.4596 18.5298 61.5261 18.761C61.4834 18.9168 61.1524 19.1015 61.0295 19.1938C60.6221 19.4999 60.1504 19.8027 59.7399 20.1715C59.6904 20.2161 59.6636 20.2373 59.6182 20.2743C59.5585 20.3231 59.5487 20.3227 59.5142 20.3877C59.2811 20.4864 58.3332 21.5405 57.3735 21.7185C56.8451 21.8168 56.2982 21.6497 55.8454 21.4759C54.9845 21.1452 54.8325 20.864 54.7025 20.7858C54.6802 20.7227 54.5888 20.6407 54.5332 20.5806C54.2471 20.2695 53.5558 19.3269 53.3094 19.2165C53.0539 19.1024 51.002 19.2475 50.7431 19.3197L50.5605 19.3136C50.6811 19.1114 51.1735 18.967 51.4566 18.896C51.8799 18.7894 52.0602 18.7664 52.4351 18.5509C52.6835 18.4084 53.8854 17.5644 53.9738 17.3769C54.0653 17.2193 54.6912 16.8062 54.8745 16.7046C55.043 16.6116 54.975 16.6588 54.9974 16.7064C55.13 16.6536 55.0552 16.6789 55.1376 16.5893C55.1882 16.5341 55.1969 16.5326 55.2649 16.4918C55.3605 16.4335 55.4468 16.3905 55.5598 16.3448C56.0579 16.1433 56.0575 16.0239 56.8709 15.9399C57.2163 15.9044 57.3135 15.9316 57.6797 15.991L57.6695 16.1214L57.5134 16.1584L57.7031 16.1697C57.773 16.0783 57.722 16.014 57.8902 16.0144C58.2708 16.0156 58.5138 16.1513 58.7923 16.2242H58.7924Z" fill="#C2DAD6"/>
<path fill-rule="evenodd" clip-rule="evenodd" d="M54.7105 17.2396C54.6077 17.4059 53.6772 18.2536 53.4228 18.406C53.2482 18.5107 53.1121 18.57 52.9201 18.6694C52.8302 18.7212 52.6979 18.745 52.5853 18.7707C52.5603 18.7763 52.2689 18.8478 52.2508 18.7846C52.2485 18.7763 52.2375 18.7778 52.2323 18.7733C52.3241 18.6981 52.4409 18.6928 52.5539 18.632L53.2701 18.0881C53.3306 18.0548 53.2886 18.0711 53.3646 18.0488C53.3646 18.0484 53.9519 17.6202 54.0891 17.4157C54.0513 17.3761 54.1703 17.3775 53.9738 17.3768C53.8854 17.5646 52.6835 18.4082 52.4351 18.5507C52.0602 18.7662 51.88 18.7892 51.4566 18.8958C51.1735 18.9673 50.6811 19.1113 50.5605 19.3135L50.7431 19.3195C51.0019 19.2473 53.0539 19.1022 53.3094 19.2164C53.5558 19.3267 54.2471 20.2693 54.5332 20.5804C54.5887 20.6405 54.6802 20.7225 54.7025 20.7857C54.8325 20.8639 54.9845 21.1451 55.8454 21.4758C56.2982 21.6497 56.8451 21.8167 57.3735 21.7184C58.3331 21.5404 59.281 20.4863 59.5142 20.3876C59.5487 20.3226 59.5584 20.323 59.6182 20.2742C59.6636 20.2372 59.6904 20.216 59.7399 20.1714C60.1504 19.8025 60.6221 19.5001 61.0295 19.1936C61.1524 19.1014 61.4834 18.9166 61.5261 18.7609C61.4596 18.5296 61.0163 18.4389 60.7955 18.2718C60.6591 18.1683 60.1606 17.8319 60.1269 17.7378C60.0003 17.6743 59.6692 17.3591 59.5139 17.2294C59.3087 17.0578 59.1488 16.9017 58.9137 16.7407C58.3778 16.373 57.9696 16.2418 57.1861 16.1764C56.7234 16.15 56.1433 16.3306 55.7925 16.514C55.5797 16.6255 55.3953 16.7268 55.2207 16.8507C55.1107 16.9285 54.786 17.2079 54.7104 17.2396H54.7105Z" fill="#151726"/>
<path fill-rule="evenodd" clip-rule="evenodd" d="M68.0568 8.70961C68.2937 8.20238 68.9295 7.16979 69.1048 6.94303L69.5444 6.38515C69.4053 6.34359 69.4159 6.3417 69.3433 6.41611L68.745 7.10435C68.5549 7.33752 67.9793 8.21365 67.8032 8.57535L67.3636 9.38759L67.124 10.0248L67.0476 10.3302C66.9959 10.5169 66.9509 10.7459 66.9252 11.029C66.9664 11.1938 66.9551 11.4187 66.9713 11.6122C66.9887 11.8216 67.0571 11.9996 67.0725 12.2063C67.1001 12.2139 67.127 12.2222 67.187 12.2452C67.2528 11.7112 67.2229 10.9863 67.3118 10.3661L67.5696 9.53608L68.0534 8.70724L68.0567 8.70954L68.0568 8.70961ZM69.8309 13.084L69.7784 13.1475C69.6835 13.5167 70.0671 13.4026 70.2459 13.2639C70.487 13.0768 70.7183 12.7627 70.9671 12.5537C70.9905 12.5219 72.2563 11.6137 72.3825 11.52C72.4875 11.4418 72.5586 11.3976 72.6856 11.3235C73.8618 10.6405 74.9322 10.1628 76.3022 9.92132L77.1768 9.83065C76.956 9.68323 75.6359 9.86202 75.3672 9.90736C74.2367 10.099 73.2594 10.639 72.2805 11.172C71.9589 11.3473 71.5113 11.7986 71.2268 11.9135C70.9297 12.1811 69.9897 12.7393 69.831 13.084H69.8309ZM76.3427 24.1002C76.0445 24.2014 76.0139 23.8953 75.7482 24.1206C75.744 24.2896 75.9209 24.5496 76.1394 24.5073C76.3034 24.4755 76.5623 24.3217 76.7664 24.4226C76.7936 24.4592 76.7819 24.4339 76.8004 24.4858C76.941 24.8868 76.4285 24.8172 76.8813 25.202C77.0389 25.3358 77.028 25.3365 77.0786 25.5528C77.1103 25.6862 77.1549 25.8094 77.1296 25.9787C76.8129 25.9613 76.6666 25.682 76.1662 25.6767C76.2032 25.8294 76.2754 25.8063 76.128 25.9832C76.1038 26.1249 76.1446 26.1328 76.309 26.1517C76.4285 26.1657 76.4867 26.1657 76.5974 26.199C76.7198 26.236 76.99 26.3743 77.0865 26.3717C77.2229 26.3872 77.232 26.3618 77.1961 26.6638L77.2947 26.6676C77.3454 26.6506 77.3314 26.7145 77.3129 26.6491C77.4195 26.589 77.266 26.5679 77.4134 26.5206L77.5083 26.5723C78.4959 26.8377 79.6074 27.6586 80.4291 28.2043C81.1109 28.6575 81.1309 28.8763 81.5592 29.261L81.874 29.6451C82.2885 30.1587 82.6389 30.805 82.8884 31.4195L83.2925 32.3807C83.3477 32.282 83.0457 31.4362 82.9999 31.3084C82.8355 30.853 82.5509 30.2626 82.292 29.8484L81.8369 29.1972C81.7262 29.0162 81.1181 28.3601 80.9449 28.2293C79.8254 27.3827 79.4637 27.0625 78.119 26.4272C77.8321 26.2915 77.6046 26.2484 77.5695 26.1021L77.5548 25.9876C77.5438 25.8893 77.5378 25.8603 77.557 25.7507C78.3969 25.8554 79.9215 26.5331 80.7462 26.9806C81.2606 27.2595 81.0252 27.1533 81.3846 27.4149C81.8038 27.7195 82.1734 27.9908 82.5683 28.331C82.6621 28.4119 82.7566 28.4852 82.848 28.5669C82.9395 28.6489 83.0049 28.7645 83.133 28.7834C83.1209 28.6504 82.7323 28.2788 82.6129 28.1458C82.5207 28.043 82.427 27.9625 82.3215 27.8446C82.1371 27.6374 81.5864 27.2206 81.3495 27.0388C80.9515 26.7334 80.275 26.3796 79.7964 26.1581C79.5175 26.0293 79.2412 25.9057 78.9324 25.7998C78.6328 25.697 78.2676 25.5995 77.9683 25.488C77.6361 25.364 77.3401 25.4267 77.3749 24.9082C78.2699 24.6936 79.5364 24.9672 80.3943 25.3206C80.5659 25.3913 80.7367 25.4525 80.897 25.5338C81.1216 25.6479 81.6344 25.9711 81.8332 26.0266C81.7985 25.9144 81.8578 26.0047 81.7402 25.9091L81.4125 25.6612C81.2591 25.5557 81.1302 25.4507 80.9723 25.3493C80.7304 25.1936 80.2099 24.9601 79.9004 24.8501C79.1657 24.5885 78.5908 24.5617 77.8545 24.5001C77.5986 24.4789 77.4494 24.55 77.1897 24.4612C77.1209 24.2435 77.0857 24.2394 77.5759 24.1241C78.9165 23.8088 79.666 23.7499 81.0807 23.9067C81.3305 23.9343 81.6575 23.957 81.8959 24.0118C82.0569 24.0484 82.436 24.1717 82.5611 24.1838C82.5293 24.0492 82.4504 24.0791 82.3049 24.0182C82.1971 23.9736 82.0921 23.932 81.9704 23.9026C80.7707 23.6131 79.471 23.449 78.2588 23.6678C77.9595 23.7219 77.2573 23.9415 76.9813 23.8795C76.8683 23.6826 76.9587 23.6629 77.4077 23.4739C78.2006 23.1402 78.673 23.0064 79.4849 22.803C79.7352 22.7403 79.949 22.7086 80.2242 22.6693L81.8304 22.4973C82.0322 22.4864 82.5932 22.5415 82.7164 22.5011C82.5822 22.4232 81.2552 22.3869 80.9906 22.3805C80.3734 22.3661 79.9875 22.4519 79.4444 22.5615C78.4693 22.7576 78.2395 22.8748 77.411 23.1594C77.2466 23.2161 76.8702 23.3847 76.7277 23.3642C76.6918 23.2989 76.7072 23.2939 76.6786 23.2251C76.5927 23.0173 76.5043 23.1265 77.1068 22.7213C77.2814 22.6038 77.4673 22.5093 77.6491 22.4092C78.0275 22.2013 78.4013 22.0293 78.7788 21.8373C78.9829 21.7333 80.3084 21.1612 80.5427 21.0973L81.2188 20.9321C81.2117 20.9279 81.2014 20.9151 81.1962 20.9219C81.1913 20.9287 81.1792 20.9144 81.1735 20.9132C81.1716 20.9128 81.0579 20.8887 80.7691 20.9328C80.6395 20.9529 80.4592 20.9941 80.3326 21.0254C80.0707 21.0896 79.7642 21.1804 79.526 21.2688C79.2618 21.3663 79.0067 21.4548 78.7637 21.5637C77.9337 21.9355 77.3702 22.2342 76.5905 22.6242C76.2352 22.8022 76.2942 22.5463 76.1245 22.4005C75.982 22.2776 75.6944 21.9185 75.4 21.7179C75.3868 21.702 75.3747 21.6877 75.3629 21.6752L74.4834 21.2387C74.4502 21.2115 74.4263 21.1823 74.4101 21.1529C73.8092 20.8962 71.9371 19.5688 71.628 19.2873C71.422 19.22 71.3026 19.0696 71.0066 18.9865C71.0455 19.0575 71.0354 19.0296 71.0614 19.1021C71.1253 19.1418 71.4934 19.5065 71.5414 19.5772C71.7206 19.6713 71.8548 19.8596 72.0373 19.9658C72.0264 20.0913 71.9829 19.9998 72.0449 20.1389C72.1322 20.1438 72.8239 20.5867 72.8666 20.6703C72.9803 20.691 73.2782 20.9288 73.4259 21.0259C74.132 21.4885 74.9125 21.7999 75.5591 22.5362C75.9764 23.0109 75.6736 22.8348 75.9102 23.0423C76.1794 23.2785 76.5342 23.7956 76.5614 24.1025L76.3426 24.1002H76.3427ZM68.6022 13.6868C68.6702 13.6706 68.6283 13.6819 68.6683 13.6581L68.7261 13.6196C68.7311 13.6162 68.739 13.609 68.7462 13.6049C68.7481 13.5787 68.8226 13.5909 68.9026 13.53L68.9956 13.0886C69.0315 12.8807 69.2965 12.2753 69.3932 12.1675C69.4442 12.005 70.0524 11.1349 70.2104 10.8768C70.4255 10.571 70.659 10.2448 70.9202 9.88773C70.676 10.1761 70.4307 10.4652 70.1813 10.7593C69.8831 11.1251 69.6722 11.4275 69.3989 11.8039C69.2859 12.0349 68.8048 12.3758 68.6022 13.6869V13.6868ZM69.2886 13.0333C69.2704 13.2287 69.1899 13.601 69.2633 13.756C69.2909 13.7473 69.3419 13.6913 69.4043 13.615L69.7966 12.8723C70.3023 12.0513 71.034 11.1946 71.7189 10.5109C72.005 10.2255 73.3705 9.1132 73.6136 8.98433C73.7088 8.93367 73.9964 8.75643 74.0641 8.66724C73.7784 8.73902 73.2761 9.0176 73.0935 9.16535C73.0104 9.23261 72.4695 9.54897 72.2148 9.76217L71.1886 10.5872C70.582 11.1345 70.0684 11.7718 69.6099 12.4437C69.5207 12.5749 69.2671 12.8637 69.2886 13.0333H69.2886ZM67.7885 11.6784C67.7378 11.8356 67.6951 12.2 67.6592 12.2857C67.708 12.3424 67.7087 12.3628 67.7246 12.466C67.7352 12.5359 67.7442 12.5866 67.7579 12.6387C67.8089 12.5809 67.9389 12.0775 67.9623 11.997C68.4242 10.645 68.383 10.571 69.3559 9.46281C69.5536 9.27687 69.7286 8.98089 69.8877 8.76324C70.2456 8.27343 70.6164 7.87092 71.0147 7.42792C71.1916 7.23139 71.7937 6.71209 71.8254 6.63572C71.7214 6.63235 71.6671 6.70184 71.5964 6.75251L71.0014 7.22195C70.9205 7.28618 70.8975 7.32666 70.8143 7.40451C70.4103 7.78361 70.2992 7.92948 69.9435 8.32706C69.634 8.67324 69.089 9.35169 68.8044 9.74665C68.3871 10.3261 68.0096 10.9912 67.7885 11.6784ZM67.9892 13.2537L68.0621 13.2733C68.6574 11.9278 68.4726 11.2415 69.394 10.0584C68.64 10.6015 67.9173 12.3148 67.9891 13.2536L67.9892 13.2537ZM68.7187 11.8488C68.6079 12.2709 68.1975 12.9676 68.38 13.1293C68.5705 12.788 68.7531 12.4709 68.8699 12.2612L69.9058 10.4209C69.9927 10.0845 70.757 9.21035 70.9391 9.01308C71.6297 8.26587 72.0723 7.9344 72.9083 7.35425C72.9989 7.29151 73.0711 7.2745 73.1119 7.16979C72.9687 7.1679 72.2128 7.64638 72.0854 7.73483C71.5956 8.07386 70.7577 8.80102 70.3714 9.29732C69.5875 10.3042 69.3207 10.7351 68.7186 11.8489L68.7187 11.8488ZM71.0095 12.9313C70.6424 13.0639 70.3401 13.3024 70.1942 13.3583C70.1028 13.3878 70.082 13.5114 70.0854 13.6202C70.4437 13.7283 70.6984 13.3844 70.9472 13.3481C70.9842 13.3047 70.9593 13.3175 71.019 13.2915C71.1002 13.2559 71.0375 13.2797 71.1051 13.282C71.1248 13.2624 71.1482 13.2506 71.1743 13.245C71.2374 13.1751 71.3644 13.1286 71.446 13.1055C72.1573 12.8527 72.4178 12.5001 73.1775 12.1516C73.7289 11.8984 74.3363 11.6852 74.9655 11.6005C75.2585 11.5612 75.3787 11.6742 75.4554 11.5461C75.3227 11.4259 74.5309 11.4829 74.3472 11.5019C73.772 11.5604 73.0924 11.8832 72.6041 12.1399C72.2568 12.3349 71.9608 12.5223 71.5897 12.6679C71.3618 12.7571 71.3062 12.8243 71.0095 12.9313L71.0095 12.9313Z" fill="#151826"/>
<path fill-rule="evenodd" clip-rule="evenodd" d="M55.776 33.2467C58.2024 34.9906 66.6931 36.6044 69.6034 34.5688C69.7489 34.4686 70.1453 34.1292 70.32 34.1099C70.3195 34.96 66.4819 38.0357 66.463 38.0467C65.9576 38.3423 65.4304 38.6782 64.8929 38.9636C64.1401 39.3634 63.9877 39.4847 63.0652 39.817C62.8501 39.8948 61.8856 40.2172 61.717 40.2327C59.2959 40.7558 59.1099 40.7762 56.6955 40.6851C56.0674 40.6613 55.8032 40.5733 55.2427 40.5101L54.7808 40.416C54.5038 40.4311 53.2384 40.1522 52.9153 40.0728C52.334 39.9299 51.7278 39.8022 51.1257 39.6668L50.9738 39.6453C51.0047 39.6854 50.9734 39.6552 51.0233 39.696L51.1986 39.7901L51.4239 39.8933C51.5747 39.9621 51.7297 40.0252 51.8793 40.0917C52.3166 40.2859 54.5193 41.0785 54.8039 41.1356C56.9869 41.6273 58.4893 41.6028 60.5268 41.3076C61.5598 41.1579 63.1831 40.8238 64.1015 40.3948C64.2931 40.3052 65.0067 39.9095 65.1269 39.8993C65.1915 39.8245 65.1602 39.8547 65.2535 39.8143C65.7634 39.5928 66.452 39.1756 66.8859 38.8834C67.3795 38.5512 68.0368 38.1256 68.4635 37.7137C68.5171 37.6316 68.5346 37.623 68.6098 37.5538C68.6763 37.4922 68.6929 37.4789 68.7368 37.4018C68.7791 37.3943 68.7485 37.406 68.7976 37.3716C68.8112 37.3626 68.8426 37.335 68.8573 37.3213C68.9114 37.2734 68.9518 37.2552 68.9469 37.1913C69.0984 37.1331 69.216 36.9819 69.3351 36.8659C69.439 36.765 69.5747 36.6331 69.6658 36.5424C70.1582 36.0526 70.7777 35.3156 71.221 34.7581C71.3136 34.6417 71.4062 34.4509 71.585 34.4372C71.528 34.8704 71.3519 35.4275 71.2173 35.8266L70.8065 37.0923C70.5385 37.883 70.3586 38.4269 69.9005 39.1098C69.8241 39.2236 69.8162 39.2792 69.7123 39.3468C69.6446 39.6264 68.5134 40.9534 68.2613 41.2422C67.9945 41.5472 67.7442 41.8276 67.4797 42.1175L66.6683 42.9267C66.491 43.0711 66.2419 43.3127 66.0855 43.4676C65.952 43.5999 65.6044 43.8814 65.5306 43.9933C65.4078 44.0364 65.364 44.1101 65.2759 44.183C65.1909 44.2529 65.1239 44.2964 65.0378 44.3648C64.9622 44.4253 64.627 44.6668 64.5975 44.7254C63.9244 45.2095 62.3887 45.8502 61.66 46.3468C61.6263 46.3699 61.589 46.3986 61.5474 46.427C61.434 46.5041 61.5168 46.4701 61.3875 46.498C61.3437 46.6594 60.3928 47.2607 60.2385 47.478L60.3735 47.4905C60.6342 47.4365 61.4193 47.043 61.544 47.0453C61.6166 46.9776 61.7167 46.9481 61.8066 46.9085C61.8901 46.8718 61.9805 46.8348 62.0723 46.7932C62.9329 46.4009 64.2905 45.6291 65.0241 45.1079C65.1655 45.0074 65.4002 44.8947 65.4837 44.759C65.5087 44.7522 65.5317 44.7443 65.5563 44.736C65.6123 44.6536 65.63 44.6551 65.7132 44.5946C65.7691 44.5534 65.802 44.5281 65.8561 44.4861C65.9525 44.4113 66.0587 44.3085 66.1536 44.2718C66.2197 44.166 66.389 44.0579 66.4922 43.971C66.6139 43.8686 66.7008 43.7465 66.8305 43.7053L67.8214 42.7903C68.1343 42.4831 68.4934 42.0995 68.7406 41.8004C69.0418 41.4365 69.2955 41.1111 69.5748 40.7055C69.8548 40.2992 70.1727 39.6688 70.2906 39.498C70.3647 39.3207 70.4989 39.0633 70.5808 38.9068C70.8276 38.4352 71.1463 37.5295 71.3005 37.0451C71.446 36.5881 71.5628 36.1414 71.6799 35.6784C71.7381 35.4486 71.7865 35.156 71.8295 34.9319C71.8764 34.6874 71.8635 34.3744 71.9905 34.2943C72.0143 34.3967 72.0582 34.5116 72.062 34.5392C72.1107 34.8937 72.1704 35.4852 72.1859 35.6556L72.8035 39.6642C72.842 39.7666 72.895 39.9586 72.9282 40.1C72.9641 40.255 73.0212 40.3963 73.0511 40.5581C73.1097 40.8759 73.2443 41.1345 73.299 41.4485C73.3217 41.5785 73.3852 41.7607 73.4363 41.8885C73.5761 42.2365 73.6767 42.8844 73.7942 43.2158C73.8051 43.2264 73.8237 43.2449 73.832 43.2571C73.894 43.3436 74.0315 44.0734 74.0678 44.2129C74.2126 44.7681 74.2734 44.6475 74.4507 45.0916L74.6964 45.8037C74.7228 45.8857 74.7247 45.9693 74.7489 46.0441C74.933 46.6155 75.1824 47.3941 75.2584 47.9751C75.3072 48.3515 75.5048 49.3028 75.5188 49.544C75.5422 49.9646 75.7199 50.538 75.7036 51.1374C75.6847 51.4031 75.7599 51.8317 75.7962 52.1054C75.8309 52.3699 75.9417 52.8144 75.9205 53.045L75.9745 53.1931C76.0195 53.5598 75.9564 53.519 76.0528 54.093C76.1023 54.3871 76.1186 54.7688 76.1851 55.1143L76.2603 56.5936C76.2626 56.7463 76.308 56.7909 76.3129 56.9159C76.3193 57.0754 76.319 57.1495 76.331 57.3003C76.3526 57.5686 76.3877 57.7195 76.3847 58.0097L76.413 59.5329C76.4402 60.3647 76.3196 61.2514 76.3287 61.8799L76.0589 64.7501C76.0449 64.873 74.8011 74.8744 74.9084 74.8974C75.0082 74.9189 76.4584 64.9727 76.4856 64.7981L76.6043 63.9326C76.656 63.6752 76.6742 62.9552 76.7347 62.7976C76.7989 62.4461 76.8538 61.2426 76.8477 60.8288C76.8458 60.7097 76.8682 60.5907 76.8787 60.472C76.8919 60.325 76.8669 60.2804 76.8655 60.1613C76.8643 60.0551 76.8916 59.9504 76.8862 59.8409L76.8462 58.9081C76.9085 58.5883 76.7792 55.3296 76.7709 55.1928C76.7584 54.9906 76.7789 54.7641 76.769 54.5631C76.7199 53.5819 76.7029 53.4326 76.5861 52.4749C76.5718 52.3566 76.5963 52.2519 76.5816 52.1483C76.4577 51.2858 76.2532 50.1864 76.0892 49.3436C76.0162 48.969 75.9433 48.6005 75.8499 48.2513L74.8011 43.9831C74.727 43.8194 74.6628 43.4789 74.6185 43.3069C74.4424 42.619 74.1079 41.4039 73.8725 40.7739C73.8003 40.5804 73.7772 40.3237 73.7144 40.1173C73.6566 39.9272 73.5545 39.6857 73.5259 39.4839C73.4869 39.2118 73.4533 39.0798 73.3803 38.8225C73.1294 37.9362 73.0095 37.0367 72.8781 36.0997C72.8092 35.6121 72.7756 35.1461 72.7197 34.6665L72.536 33.2624L72.3909 32.5481C72.6044 32.4471 73.0394 32.0927 73.2443 31.9286C73.5209 31.7071 73.982 31.1394 74.0671 31.3923C74.1253 31.5647 74.1446 32.3659 74.1589 32.5462C74.1755 32.7499 74.1204 33.7133 74.1684 33.8044C74.2115 33.7345 74.2538 33.2549 74.2655 33.135C74.3177 32.6127 74.2754 32.7552 74.2901 32.4657C74.3097 32.0836 74.1896 31.4271 74.2145 31.2483C74.3233 31.195 74.4526 31.0911 74.608 31.0703C74.8113 31.2592 74.8457 32.223 74.8544 32.5896C74.8714 33.3043 74.792 33.3935 74.7171 33.8849C74.6136 34.5678 74.4534 35.3011 74.2073 35.9322C74.1124 36.1753 74.0255 36.4179 73.9246 36.6613C73.8312 36.8862 73.7167 37.1186 73.6321 37.3597C73.7568 37.2611 74.5762 35.5561 74.6923 35.2628C75.0101 34.4597 75.2901 33.0174 75.2244 32.184C75.1938 31.7951 75.0529 31.0759 75.0487 30.984C75.1496 30.9066 75.466 30.6567 75.6201 30.6692C75.766 30.8144 75.9872 31.7105 76.0204 31.9906C76.1176 32.8073 76.1417 32.6342 76.1429 33.5262C76.1444 34.535 75.96 35.0981 75.681 35.9704C75.6371 36.1077 75.6073 36.1957 75.5581 36.3283C75.5218 36.4274 75.4474 36.5596 75.4175 36.6492C75.5282 36.622 75.5827 36.4444 75.6383 36.3336C75.6954 36.221 75.7626 36.0906 75.8107 35.9757C76.1709 35.1124 76.4543 33.68 76.3379 32.8202C76.2532 32.1969 76.1558 31.4618 75.9411 30.8703C75.8791 30.7006 75.6829 30.2939 76.0885 30.264C76.2215 30.5134 76.482 31.1881 76.5473 31.4826C76.618 31.8015 76.6921 32.2226 76.6974 32.5707C76.6997 32.6954 76.6592 32.8462 76.6785 32.9566C76.7541 32.8859 76.7628 32.8304 76.7806 32.7207C76.8256 32.4478 76.8346 32.2165 76.7983 31.938C76.6608 30.8755 76.1634 30.0603 76.191 29.883C76.2065 29.7844 76.338 29.5815 76.4245 29.5406C76.5444 29.5251 76.7398 29.9636 76.8097 30.0981C76.8663 30.2081 76.9238 30.2569 76.9945 30.382C77.3429 30.9969 77.409 31.249 77.6234 31.9531C77.8853 32.8152 77.9072 33.3314 77.953 34.1856C77.9601 34.3248 77.9685 34.8875 77.9881 34.9748C78.0803 34.959 78.0664 34.9533 78.0834 34.8293C78.12 34.5587 78.089 34.4471 78.0955 34.1871L78.0716 33.3594C77.9775 32.4112 77.9534 32.3537 77.6869 31.5275C77.6498 31.4114 77.6116 31.3022 77.572 31.1908C77.4764 30.9235 77.1245 30.21 76.982 29.9401C76.881 29.7492 76.6989 29.5398 76.7118 29.2984C76.9253 29.3558 77.623 30.3619 77.7742 30.6318C78.0395 31.105 78.323 31.6062 78.4957 32.2067C78.6767 32.836 78.8321 33.3492 78.9159 34.0386C79.0656 35.27 78.8796 35.4046 78.8774 36.2236C78.9307 36.4689 78.7353 36.9315 78.7988 37.1991C78.9731 37.1427 79.1431 34.7311 79.1477 34.533C79.1537 34.2726 79.0785 33.5953 79.032 33.3225C78.9001 32.5454 78.7282 31.9335 78.4038 31.2256C78.2213 30.8276 77.8758 30.2611 77.6185 29.9004L77.3229 29.501C77.1974 29.3551 77.1218 29.2326 77.0088 29.0912C76.8781 28.9284 76.9351 28.7121 77.081 28.6022C77.1622 28.5806 77.3648 28.7859 77.4242 28.8459C77.8729 29.3006 78.1313 29.4809 78.535 30.0686C78.7463 30.3758 79.1609 31.0104 79.3487 31.3706C79.4247 31.5162 79.4999 31.6632 79.574 31.8241L79.9486 32.8389C80.0748 33.1617 80.1625 33.5548 80.2612 33.8779C80.4263 34.4203 80.4845 35.0122 80.582 35.5606C80.6002 35.663 80.6176 35.7356 80.6399 35.8429C80.6625 35.9526 80.6629 36.0153 80.7272 36.0678C80.7736 36.0043 80.6281 34.9736 80.6059 34.7872C80.559 34.3957 80.4596 33.9429 80.3609 33.574C80.1243 32.6904 80.0163 32.2285 79.6251 31.3343C79.5098 31.0717 79.3688 30.8191 79.2075 30.6022L78.9267 30.1181C78.8616 29.9869 78.8458 29.9926 78.766 29.8906C78.7066 29.8142 78.6598 29.7436 78.6035 29.6646C78.5403 29.5758 78.4901 29.5353 78.4266 29.4514C78.0963 29.0156 78.0747 29.0008 77.7016 28.6055C77.3161 28.1977 77.2103 28.228 77.2394 27.901C77.2515 27.7684 77.2039 27.7113 77.2356 27.5662C77.6552 27.5742 78.9157 28.6381 79.2452 28.9438L79.8008 29.4676C80.1002 29.7519 80.7627 30.6692 80.9604 31.0286C81.03 31.1548 81.0757 31.2395 81.1501 31.3577L81.5708 32.0127C81.5118 31.7293 81.1962 31.0388 81.0383 30.7685C80.8549 30.4544 80.7276 30.1207 80.457 29.8618L79.8129 29.0564C79.7275 28.9456 79.6209 28.8678 79.5071 28.7407L77.4647 27.1091C77.4262 27.0146 77.4806 26.6503 77.5085 26.5721L77.4137 26.5203C77.2663 26.5675 77.4198 26.5887 77.3132 26.6488C77.3316 26.7142 77.3457 26.6503 77.295 26.6673L77.1964 26.6635C77.2323 26.3616 77.2232 26.3869 77.0867 26.3714C77.1434 26.5029 77.1208 26.7471 77.0853 26.9331C77.0452 27.1409 76.9205 27.1096 76.7564 27.1644C76.7772 27.3409 76.9745 27.4047 77.0762 27.5457C76.9499 27.5922 76.756 27.3303 76.6975 27.2747C76.5516 27.1348 76.4688 27.0831 76.228 27.0302C76.1259 27.2849 76.2575 27.4002 76.4151 27.5192C76.5092 27.5903 76.6993 27.7894 76.7065 27.8927C76.838 27.9864 76.9167 28.1704 76.8021 28.3311C76.7703 28.3753 76.7582 28.4056 76.7265 28.4486C76.6872 28.4377 76.4612 28.3152 76.4155 28.1674C76.2908 28.1432 76.2258 28.147 76.1442 28.1848C76.0206 28.5366 76.5894 28.839 76.3294 29.1368C76.137 29.2256 75.996 28.9082 75.9087 28.7634C75.7719 28.5374 75.7371 28.3998 75.4264 28.4618L75.3799 28.4739C75.3146 28.7638 75.8055 29.3148 75.8634 29.6202L75.7107 29.6872C75.5073 29.7337 75.51 29.7185 75.2469 29.1482C75.208 29.0636 75.0678 28.6891 74.9748 28.6652C74.7008 28.5953 75.0776 29.378 75.115 29.4514C75.2099 29.6362 75.4797 29.9291 75.4669 30.1355C74.9589 30.3842 74.8719 30.1355 74.7438 29.7134C74.6796 29.5013 74.4611 28.9091 74.4565 28.7073C74.381 28.6766 74.3621 28.6136 74.2498 28.654C74.2607 28.7194 74.339 28.8604 74.3651 28.9499C74.449 29.2375 74.4947 29.4703 74.6399 29.7478C74.6663 29.7984 74.6429 29.7466 74.6755 29.8218C74.6781 29.8279 74.6823 29.8384 74.6842 29.8434L74.7019 29.8898C74.7802 29.9597 74.8489 30.0422 74.8437 30.1907C74.4517 30.1846 73.737 29.9533 73.4513 29.7851C72.8579 29.4359 72.091 28.7783 71.6257 28.2865C71.4768 28.1297 71.3082 28.0579 71.3933 27.7446C71.419 27.6497 71.5985 27.1867 71.6616 27.1357C71.6828 27.0665 71.9931 26.2245 72.1654 26.1122C72.1937 25.9659 72.385 25.7225 72.4568 25.5959C72.5437 25.4206 72.6412 25.3268 72.7357 25.1613C72.8328 24.992 72.8834 24.8514 72.9749 24.6878C73.0562 24.5422 73.1658 24.4058 73.2493 24.2694C73.3408 24.1205 73.3888 23.9277 73.4663 23.7769C73.7358 23.255 74.1304 23.0604 73.9596 22.2939C73.9108 22.0743 73.8254 22.0229 73.7316 21.8441C73.6859 21.7232 73.3341 21.3683 73.2082 21.2674C73.1133 21.1906 72.9935 21.1007 72.8741 21.0243C72.7985 20.9756 72.5952 20.8717 72.549 20.8274C71.8297 20.5983 70.9669 20.4407 70.1804 20.466C69.0979 20.5005 69.0526 20.4585 68.0657 20.7015C67.9864 20.7805 67.4882 21.0009 67.2701 21.3354C66.908 21.8917 66.9719 21.959 66.84 22.4666L66.8869 22.5728C66.9587 22.7916 66.975 22.9303 67.1561 23.1628C67.5098 23.616 68.6169 24.1681 69.1517 24.356C69.2594 24.4758 69.5897 24.5249 69.8868 24.867L69.9847 24.9456C70.0244 25.0692 70.1041 25.1716 70.1525 25.2604C70.2198 25.384 70.2572 25.4675 70.298 25.5789C70.3668 25.7675 70.4998 26.0461 70.5029 26.2256L70.5062 26.2381C70.5732 26.319 70.5369 26.2452 70.5675 26.3693L70.6227 26.7098C70.6393 26.8983 70.5807 27.0922 70.5391 27.2567C70.3811 27.8852 69.9949 28.2881 69.5346 28.6562C69.4268 28.742 69.3127 28.8244 69.1936 28.9015C69.0984 28.9631 68.9601 29.0777 68.8527 29.098L68.4193 29.3736C67.3156 30.0146 65.2448 31.0369 63.9265 30.9228C63.4457 30.8813 61.3153 31.2256 57.3104 29.7251C58.193 30.2939 59.2603 31.6198 63.1006 31.6674C66.0377 31.9645 67.7506 30.6492 70.0916 29.1208C70.2678 29.0059 70.4201 28.8108 70.6828 28.9658C70.8654 29.0736 71.0517 29.1873 71.2297 29.3204C71.7686 29.7225 72.8609 30.5151 73.0998 30.9875C73.0756 31.1345 72.915 31.4369 72.7936 31.4826C72.7324 31.6501 72.0906 32.1289 71.9145 32.2529C71.6394 32.4468 71.4478 32.5488 71.1556 32.7113L70.9081 32.8584C70.7085 32.9037 70.0547 33.2764 69.9613 33.2639C69.8638 33.3652 69.7768 33.3652 69.5886 33.4397C68.8093 33.7466 67.7627 34.0678 66.9663 34.2628C63.2994 35.1631 59.3037 34.1513 55.7763 33.2465L55.776 33.2467ZM70.9655 25.3993C70.8218 25.329 70.8086 25.3316 70.7878 25.1536C70.7629 24.9382 70.7629 24.101 70.6503 23.9615C70.6699 23.7238 70.2421 23.2714 70.1034 23.1414C69.6808 22.7446 69.4752 22.7506 69.2696 22.6145L69.1936 22.5548C68.9306 22.5098 68.7991 22.4619 68.5084 22.4588C68.3017 22.4626 67.8394 22.6297 67.7948 22.7351L67.6826 22.728L67.6179 22.5571C67.5261 22.5102 67.5752 22.5911 67.5507 22.4578C67.5389 22.3943 67.6395 21.7896 67.726 21.6425C67.9445 21.2707 68.5318 20.9445 68.9725 20.8356C69.1974 20.7801 69.6086 20.7721 69.8886 20.802C70.5387 20.8708 72.255 20.8813 72.7766 21.3258C72.9644 21.486 73.1779 21.661 73.2725 21.892L73.3741 22.0201C73.2026 22.0889 73.1474 21.9913 72.9304 22.138C72.7962 22.228 72.7426 22.2987 72.6242 22.3947C72.4938 22.5001 72.4367 22.6127 72.3619 22.7435C72.2569 22.9264 72.2617 22.9544 72.2319 23.219C72.1892 23.5973 72.1321 23.9726 72.0928 24.3514C72.0724 24.5475 72.0724 24.7138 72.0569 24.8805C72.0475 24.9796 71.959 25.2456 71.8826 25.2724C71.8093 25.2297 71.8467 25.2762 71.8263 25.1504C71.801 24.9966 71.8173 24.9402 71.7704 24.7448C71.714 24.5082 71.6986 23.0947 71.5848 23.0497C71.5602 23.0399 71.6128 23.0198 71.4203 23.0266C71.121 23.0376 71.0103 22.965 70.8519 22.959L70.7382 22.9544C70.7438 23.0195 71.166 23.7735 71.0889 24.6862C71.0583 25.0505 71.1014 25.0619 70.9653 25.3994L70.9655 25.3993Z" fill="#151725"/>
<path fill-rule="evenodd" clip-rule="evenodd" d="M71.0067 18.9865C71.614 19.2878 73.6958 21.0138 74.0915 19.4468C74.2117 19.0984 73.9078 18.0926 73.8016 17.7007C73.7608 17.5495 73.7971 17.4327 73.7589 17.3292C73.6704 17.0892 73.5166 16.9758 73.3791 16.8201C73.1621 16.5744 73.1379 16.4576 72.7758 16.0838C72.7297 16.0362 72.7025 16.0109 72.6579 15.975L72.5491 15.8737C72.5457 15.8695 72.5392 15.8612 72.5347 15.8548C72.3514 15.7774 71.8668 15.3317 71.1956 15.5026C70.8112 15.6005 70.4552 15.9626 70.3407 16.3983L70.3241 16.3674C70.2859 16.5042 70.2285 16.6073 70.1948 16.7287C70.1559 16.8708 70.1412 17.0401 70.129 17.1879C70.1135 17.3788 70.1853 17.745 70.2749 17.8917C70.4718 18.214 70.8062 18.722 71.0066 18.9866L71.0067 18.9865Z" fill="#151826"/>
<path fill-rule="evenodd" clip-rule="evenodd" d="M58.6544 29.8493C58.8377 29.7431 59.447 29.3179 59.5717 29.2798C59.6635 29.1743 60.0566 28.9967 59.9671 28.7627L59.9353 28.7714C59.6057 28.7086 59.3945 28.915 59.0414 29.1573C58.4348 29.544 57.8429 29.9374 57.2299 30.3157C55.9702 31.0735 52.6117 34.3791 51.5995 35.5368C51.4726 35.6823 50.6429 36.6011 50.6252 36.7194C50.8073 36.7349 50.7443 36.6411 50.8429 36.6446C50.9404 36.456 51.2216 36.2065 51.3407 36.0727C51.5127 35.8788 51.6691 35.7186 51.8335 35.5413C52.3623 34.9702 55.5737 32.1141 57.4144 30.6541C57.9598 30.2217 58.4783 29.9511 58.6544 29.8494V29.8493Z" fill="#1A1A25"/>
<path fill-rule="evenodd" clip-rule="evenodd" d="M61.0355 28.9671C59.7074 29.8662 56.6751 33.0259 55.7495 34.4326C55.5193 34.783 54.1987 36.5888 54.1519 36.8073L54.218 36.8288C54.2319 36.7816 54.2195 36.8099 54.2584 36.7532L54.7947 36.0804C54.9179 35.916 55.2871 35.4209 55.4058 35.3298C56.8632 33.2344 57.7 32.7056 59.1743 31.0646C59.7322 30.4437 59.8671 30.2702 60.5395 29.7384C60.6464 29.6545 61.1442 29.283 61.247 29.2618C61.2961 29.2093 61.671 29.0245 61.772 28.9731C61.9651 28.8748 62.1533 28.786 62.3011 28.6612C62.4323 28.5164 62.5475 28.4488 62.4602 28.2259C61.7791 27.9753 61.6015 28.6321 61.0353 28.9671H61.0355Z" fill="#1A1A25"/>
<path fill-rule="evenodd" clip-rule="evenodd" d="M56.7798 9.35034C56.9102 9.37793 57.0772 9.4259 57.1676 9.48756C57.0912 9.6115 57.1234 9.42934 57.109 9.61117C57.722 10.0889 58.4821 10.6025 59.097 11.132C59.458 11.443 60.6519 12.5085 60.6942 12.9538C60.435 12.9341 60.1825 12.6098 60.0109 12.4553C59.7849 12.2519 59.5812 12.1049 59.351 11.9374C58.8877 11.6007 58.4409 11.2771 57.9526 10.9619C57.3063 10.5451 56.2552 10.0341 55.474 9.79333C55.3228 9.74684 54.6931 9.56124 54.5314 9.57824C54.5243 9.57898 54.5091 9.59335 54.505 9.58506C54.5008 9.57709 54.4865 9.58924 54.4781 9.59335L54.5114 9.62965C54.517 9.63572 54.5382 9.6565 54.5439 9.66217C54.6097 9.72566 54.5311 9.63984 54.5904 9.70339C54.7291 9.71432 56.0595 10.2427 56.2617 10.3354C56.739 10.5542 57.3014 10.8766 57.7198 11.1423C58.0966 11.3819 58.0898 11.4193 58.3615 11.5992C58.8952 11.953 59.1522 12.1409 59.653 12.5554C59.8476 12.7168 59.7717 12.6519 59.8578 12.8756C59.9142 13.0214 60.0064 13.1171 60.0563 13.2184C59.9418 13.1851 59.2951 12.8 59.201 12.7312C59.077 12.6401 58.9681 12.5403 58.8242 12.4455C58.6597 12.3374 58.6147 12.241 58.4171 12.179C58.2814 12.1363 57.0244 11.4749 56.5882 11.2889C55.8969 10.9941 55.2953 10.8006 54.5243 10.5753C54.1833 10.476 52.3046 10.0882 52.1477 10.3376C52.2358 10.4177 53.0707 10.5209 53.254 10.55C53.6478 10.6131 53.9921 10.7128 54.3546 10.7817C55.555 11.0096 56.9621 11.7152 57.9791 12.3445C58.3953 12.6015 59.2029 13.1492 59.2543 13.5573C59.0986 13.515 58.7978 13.2652 58.6186 13.1809C58.3827 13.0698 58.1352 12.9923 57.9092 12.8789C57.7047 12.7765 57.4133 12.6744 57.1884 12.5852C56.9333 12.4835 56.6869 12.3826 56.4295 12.296C55.8686 12.1067 53.458 11.5027 52.9554 11.7166L52.9931 11.7393C53.1503 11.807 53.7986 11.8867 54.0378 11.9362C54.1897 11.9676 55.0447 12.1146 55.1033 12.1664C55.5519 12.1657 57.1589 12.8343 57.5014 13.0422C58.0449 13.3717 58.8673 13.504 59.2139 13.7761C59.367 13.8963 59.4841 14.0649 59.6992 14.1057C59.5571 13.2644 59.1172 13.2734 59.0575 12.9968C59.3402 13.0448 59.3545 13.295 59.6089 13.374C59.7094 13.405 59.7464 13.4186 59.833 13.47C59.9955 13.5665 60.4725 13.9489 60.5863 13.9633C60.4959 13.7365 60.4113 13.5997 60.2873 13.3971C60.2137 13.2769 59.9997 12.8891 59.9725 12.7943C60.1989 12.8362 60.6071 13.2792 60.7232 13.4107C60.9136 13.6262 61.1245 13.9822 61.1238 14.328L61.1079 14.3129C61.114 14.3197 61.1208 14.3224 61.1216 14.3363L61.1515 14.438C61.1647 14.5208 61.1114 14.503 61.1824 14.5559C61.2126 14.5783 61.2664 14.5654 61.2999 14.5593C61.3669 14.5468 61.3589 14.5374 61.4213 14.5347C61.5275 13.8344 60.9817 13.218 60.8377 12.8941C60.7047 12.5947 60.6245 12.4126 60.4583 12.1612C60.3045 11.9288 60.1291 11.7031 59.9337 11.5131C59.5621 11.151 58.4117 10.2265 57.9494 9.91133C57.7952 9.80628 57.3134 9.48993 57.2548 9.42077C57.0703 9.35728 57.0295 9.28321 56.7907 9.28469L56.7801 9.35047L56.7798 9.35034ZM61.7597 14.252C61.8761 14.3325 61.6766 14.526 62.0364 14.5695C62.1131 14.2407 62.0095 13.9485 61.8481 13.6699C61.7884 13.5668 61.7604 13.5256 61.6195 13.4976C61.6059 13.744 61.7605 13.9458 61.7597 14.252ZM62.4993 14.9111C62.5084 14.8718 62.5148 14.8873 62.5673 14.8201C62.5999 14.7785 62.6131 14.7517 62.6353 14.715C62.6845 14.4296 62.6592 14.3601 62.6233 14.1065C62.5938 13.8991 62.618 13.7429 62.3833 13.7101C62.3825 13.9244 62.4426 14.0506 62.4396 14.2721C62.4366 14.4883 62.429 14.6527 62.4033 14.8938L62.4993 14.9112V14.9111Z" fill="#19232E"/>
<path fill-rule="evenodd" clip-rule="evenodd" d="M67.618 22.5571C67.6176 22.3511 67.6516 22.1878 67.7435 22.0533C67.7767 22.0045 67.8331 21.9327 67.864 21.8867C67.9234 21.7979 67.9188 21.7676 68.0349 21.7086C68.2072 21.4395 68.5462 21.466 68.9333 21.5866C69.0784 21.6316 69.8302 21.9154 69.8396 21.9161C69.953 21.9812 69.9915 22.0424 70.1019 22.1146C70.1885 22.1709 70.2675 22.2166 70.3858 22.2714C70.6371 22.3875 70.8472 22.4162 71.1545 22.4275C71.3525 22.3455 71.4225 22.4945 71.6678 22.2579C71.7442 22.1845 72.288 21.9703 72.4498 21.9306C72.5216 21.9132 72.5156 21.9075 72.593 21.8879C72.8066 21.8334 73.0065 21.8402 73.2726 21.8921C73.1781 21.6611 72.9645 21.4861 72.7767 21.3259C72.2551 20.8814 70.5388 20.8708 69.8887 20.8021C69.6087 20.7722 69.1975 20.7801 68.9726 20.8357C68.5319 20.9445 67.9446 21.2708 67.7261 21.6426C67.6396 21.7896 67.539 22.3944 67.5508 22.4578C67.5753 22.5913 67.5262 22.5104 67.618 22.5572L67.618 22.5571Z" fill="#252E3F"/>
<path fill-rule="evenodd" clip-rule="evenodd" d="M58.252 29.6606L58.2768 29.6387L58.252 29.6606Z" fill="#3B6B74"/>
<path fill-rule="evenodd" clip-rule="evenodd" d="M69.4507 28.0117C69.2999 28.1512 69.454 28.2438 69.1131 28.5855C69.0183 28.6799 68.9673 28.6921 68.8678 28.7888C68.799 28.8557 68.7423 28.9517 68.6411 28.9631C68.68 28.8051 69.0232 28.4518 69.1018 28.3478C69.2197 28.1913 69.3474 27.7207 69.5069 27.6448C69.5406 27.7079 69.5379 27.6463 69.516 27.7593L69.4506 28.0117H69.4507Z" fill="#3B6B74"/>
<path fill-rule="evenodd" clip-rule="evenodd" d="M71.6613 27.136C71.5982 27.187 71.4187 27.65 71.393 27.7449C71.308 28.0582 71.4765 28.13 71.6254 28.2869C72.0907 28.7786 72.8575 29.4362 73.451 29.7854C73.7367 29.9536 74.4514 30.1849 74.8434 30.191C74.8486 30.0424 74.7799 29.96 74.7016 29.8902L74.6839 29.8437C74.682 29.8387 74.6778 29.8282 74.6752 29.8221C74.6426 29.7469 74.6661 29.7987 74.6396 29.7481C74.4945 29.4706 74.4487 29.2378 74.3648 28.9502C74.3387 28.8606 74.2605 28.7197 74.2495 28.6543C74.3618 28.6139 74.3807 28.677 74.4562 28.7076C74.4607 28.9094 74.6792 29.5017 74.7435 29.7137C74.8716 30.1358 74.9586 30.3846 75.4666 30.1358C75.4794 29.9294 75.2096 29.6365 75.1147 29.4517C75.0773 29.3783 74.7005 28.5956 74.9745 28.6655C75.0675 28.6894 75.2077 29.0639 75.2466 29.1485C75.5097 29.7189 75.507 29.734 75.7104 29.6875L75.8631 29.6206C75.8052 29.3152 75.3143 28.7641 75.3797 28.4742L75.4261 28.4621C75.7368 28.4001 75.7716 28.5377 75.9084 28.7637C75.9957 28.9085 76.1367 29.2259 76.3291 29.1371C76.5891 28.8393 76.0203 28.537 76.1439 28.1851C76.2255 28.1473 76.2905 28.1436 76.4152 28.1677C76.461 28.3155 76.687 28.4379 76.7262 28.4489C76.758 28.4058 76.7701 28.3756 76.8018 28.3314C76.9163 28.1707 76.8377 27.9867 76.7062 27.893C76.699 27.7898 76.5089 27.5906 76.4148 27.5195C76.2572 27.4005 76.1256 27.2852 76.2277 27.0305C76.2138 27.0324 74.9873 28.5208 73.4914 28.0861C72.7718 27.7096 72.3243 27.4817 72.1292 26.7458C72.026 26.3573 72.037 26.479 72.1651 26.1124C71.9927 26.2246 71.6628 27.0943 71.6613 27.1359V27.136ZM72.4566 25.5962L72.5178 25.6011C72.644 25.3762 72.9941 24.9102 73.1543 24.6951C73.3912 24.3769 73.584 24.1286 73.8108 23.7907C73.9699 23.5537 74.388 23.1251 74.3033 22.7532C74.2368 22.4607 74.019 22.011 73.7314 21.8442C73.8251 22.023 73.9105 22.0744 73.9593 22.294C74.1302 23.0605 73.7356 23.2551 73.4661 23.777C73.3886 23.9278 73.3406 24.1206 73.2491 24.2695C73.1656 24.4059 73.0559 24.5424 72.9747 24.6879C72.8832 24.8515 72.8326 24.9921 72.7355 25.1614C72.641 25.327 72.5435 25.4207 72.4566 25.596V25.5962Z" fill="#3B6B74"/>
<path fill-rule="evenodd" clip-rule="evenodd" d="M44.3134 19.0814C44.2589 19.2371 44.2023 19.2957 44.2027 19.4786C44.2602 19.5527 43.3118 22.1769 43.3531 22.3012C43.4876 22.7053 44.3229 20.6828 44.6804 20.6564C45.5357 20.5932 45.8763 19.744 46.1774 19.0765C46.2935 18.9095 46.4122 18.7001 46.4862 18.4669C46.6348 17.9997 46.5146 17.9272 46.4726 17.7416C46.3657 17.6819 46.2973 17.6105 46.0864 17.6233C45.1653 17.6789 44.4884 19.0123 44.3134 19.0815V19.0814Z" fill="#151826"/>
<path fill-rule="evenodd" clip-rule="evenodd" d="M58.4356 28.1185C58.3479 28.2039 57.564 28.4799 57.4136 28.5437C57.2801 28.6 57.222 28.6458 57.0825 28.707C56.6517 28.8967 56.1482 29.1224 55.7094 29.3298C54.9698 29.6802 54.1235 30.0944 53.4289 30.5075C53.3775 30.5385 53.3344 30.5639 53.2739 30.6016C53.1836 30.6576 53.1726 30.6719 53.0759 30.6984C52.9636 30.7657 52.3698 31.1395 52.2981 31.1493L51.654 31.5525C50.5553 32.1709 49.5378 33.1539 48.568 33.9253C48.4486 34.0206 48.0979 34.2606 48.0438 34.4257C48.1765 34.4231 48.1545 34.3955 48.2845 34.3637C48.2947 34.3312 48.5589 34.0716 48.6595 34.0572C48.7487 33.9117 50.8165 32.3598 51.1846 32.2041C51.2107 32.1988 51.7817 31.7789 51.8993 31.698C51.9835 31.6402 51.9416 31.656 52.0413 31.6258C52.1339 31.5204 53.1139 30.9791 53.3786 30.8268C53.7856 30.5932 54.3303 30.3162 54.7917 30.0913C54.9187 29.9863 56.1648 29.4182 56.3118 29.3838L56.7397 29.1922C56.8043 29.151 56.8931 29.165 57.0008 29.1105C57.2748 28.9923 57.5303 28.8747 57.7461 28.7968C57.8731 28.7432 58.5043 28.4967 58.6146 28.4824C58.6502 28.4585 60.0675 27.8697 60.2606 27.649L60.0354 27.5591C59.8623 27.5421 59.7527 27.618 59.6128 27.6789C59.4862 27.7337 59.3509 27.7696 59.2164 27.8214C58.9745 27.9139 58.6445 28.0535 58.4355 28.1184L58.4356 28.1185Z" fill="#191C2A"/>
<path fill-rule="evenodd" clip-rule="evenodd" d="M57.4158 26.7912C57.3784 26.8219 57.4079 26.8033 57.3565 26.8264C57.341 26.8332 57.3088 26.8434 57.2926 26.8479C57.2541 26.8585 57.2049 26.8668 57.1614 26.8759C56.9853 26.9129 54.4107 27.3336 53.493 27.6061C53.3683 27.6371 53.2111 27.712 53.0728 27.7607L51.773 28.1851C51.3452 28.3125 50.3912 28.7622 50.0632 28.8113C50.014 28.879 49.1928 29.1693 49.1243 29.1798C49.0522 29.2906 49.0257 29.3084 48.9101 29.3405L48.2921 29.6391C48.2933 29.6894 48.2369 29.6516 48.3477 29.6848C48.5684 29.6939 49.0423 29.4517 49.3031 29.4109C49.4282 29.3035 51.7311 28.4762 51.9703 28.4497C52.0187 28.407 52.298 28.3306 52.371 28.3416C52.4575 28.2766 52.8737 28.1814 52.9496 28.1738C53.012 28.1361 53.3854 28.0491 53.4633 28.054C53.5562 27.9705 54.4603 27.7713 54.6648 27.7214C54.9093 27.6617 55.7344 27.4213 55.8905 27.4338L55.9566 27.3896L57.0697 27.1435L57.5516 27.1027C57.7394 27.0369 58.1242 26.9977 58.3431 26.9636C58.704 26.9077 59.5026 26.6953 59.8915 26.5939C60.2324 26.5048 60.4837 26.4927 60.4875 26.2111C60.1367 26.0735 57.8101 26.8306 57.4159 26.7912H57.4158Z" fill="#1A1A25"/>
<path fill-rule="evenodd" clip-rule="evenodd" d="M57.7643 25.196C57.7039 25.2085 57.6268 25.2013 57.4904 25.196C57.1056 25.1805 56.7064 25.1888 56.319 25.1665L55.5934 25.2191C55.4112 25.2058 54.8257 25.2818 54.636 25.3087C53.7769 25.43 53.6779 25.4455 52.877 25.7089L52.0534 25.989C52.0579 26.0476 52.0617 26.0079 52.0852 26.0329L52.2885 26.0121C52.3687 25.9463 52.6287 25.904 52.7526 25.8764C52.9197 25.8398 53.0678 25.8099 53.2356 25.7736C53.5773 25.6995 53.9024 25.6648 54.2437 25.6212C54.6469 25.5702 56.0355 25.4262 56.3798 25.4632C56.4267 25.4409 56.3485 25.4587 56.4603 25.4406L57.2547 25.4625C57.4445 25.4686 57.9592 25.4667 58.1112 25.5003C58.2575 25.5347 59.3301 25.5748 59.5387 25.5581C59.6121 25.5524 59.677 25.5437 59.7405 25.5271C59.8516 25.4976 59.8672 25.4962 59.9099 25.4016C59.5274 25.2614 58.6585 25.2958 58.214 25.2134L58.1471 25.2085L57.7642 25.196H57.7643Z" fill="#191C2A"/>
<path fill-rule="evenodd" clip-rule="evenodd" d="M58.4761 24.521C58.5735 24.5614 58.8465 24.603 58.9553 24.6215C59.1181 24.6487 59.2346 24.6623 59.4005 24.6866C59.6949 24.73 59.9856 24.7724 60.2898 24.8151C60.4984 24.8446 60.6341 24.8691 60.7309 24.8823C60.6451 24.9564 60.5612 25.0312 60.4769 25.1065C60.3386 25.0887 60.1915 25.1102 60.1103 25.0456C59.727 25.1114 58.0273 24.6816 57.8838 24.7137C57.5451 24.5637 56.4755 24.4722 56.0511 24.4616C55.9588 24.4593 55.5382 24.4378 55.4898 24.468C55.4153 24.44 55.4146 24.4442 55.3435 24.4155C55.3832 24.2956 55.8738 24.3497 56.1093 24.3456C56.6611 24.3361 57.129 24.3584 57.7023 24.4314C57.8203 24.4465 58.3705 24.5478 58.476 24.521H58.4761Z" fill="#191C2A"/>
<path fill-rule="evenodd" clip-rule="evenodd" d="M67.618 22.557L67.6826 22.7278L67.7949 22.7354C67.8395 22.6295 68.3017 22.4624 68.5085 22.4587C68.7379 22.3699 69.0856 22.4938 69.3404 22.5244L70.0713 22.648C70.2641 22.6405 69.9179 22.6802 70.1242 22.6401C70.1329 22.6382 70.1427 22.6337 70.1492 22.6318C70.156 22.6299 70.1666 22.6265 70.1741 22.6223C70.1015 22.4803 69.9341 22.4621 69.8479 22.3321C70.1393 22.3725 70.3261 22.5612 70.6295 22.6402C70.9527 22.7241 71.2467 22.6889 71.3703 22.4629L71.1545 22.4274C70.8473 22.416 70.6371 22.3873 70.3858 22.2712C70.2675 22.2165 70.1885 22.1707 70.1019 22.1144C69.9916 22.0422 69.953 21.9809 69.8396 21.916C69.888 22.0222 69.8524 21.9167 69.8733 22.0323C69.4999 22.0059 69.3071 21.8679 68.964 21.8313C68.6238 21.7954 68.3543 21.8173 68.0391 21.7909L68.0349 21.7085C67.9189 21.7675 67.9234 21.7977 67.8641 21.8865C67.8331 21.9326 67.7768 22.0045 67.7435 22.0532C67.6517 22.1877 67.6177 22.351 67.618 22.557H67.618Z" fill="#8DBAB1"/>
<path fill-rule="evenodd" clip-rule="evenodd" d="M46.4726 17.7416C46.5146 17.9272 46.6347 17.9997 46.4862 18.4669C46.4122 18.7001 46.2935 18.9095 46.1774 19.0765C45.8732 19.5146 45.745 19.7818 45.5077 20.2523C45.6547 20.1953 45.578 20.1976 45.6846 20.1136C45.7738 20.0429 45.8108 20.0906 46.0592 19.911C46.4126 19.6559 46.3479 19.7395 46.6068 19.2334C46.6227 19.2024 46.6355 19.1699 46.659 19.1336C46.6597 19.1325 46.696 19.0848 46.6998 19.081C46.7486 19.03 46.7028 19.0693 46.7553 19.035L47.2542 18.0943C47.484 17.6052 47.693 17.3527 47.4342 17.084L47.3272 17.064C47.0974 17.2374 46.8264 17.5599 46.6091 17.7984C46.56 17.7832 46.5777 17.787 46.5407 17.7719L46.4727 17.7417L46.4726 17.7416Z" fill="#3B6B74"/>
<path fill-rule="evenodd" clip-rule="evenodd" d="M64.3124 33.3499C64.1968 33.4171 64.1174 33.399 63.8362 33.3638C63.5122 33.3238 62.6305 33.1994 62.4034 33.2081L62.4075 33.2633C64.0444 34.2759 67.7193 33.3329 69.6729 32.7281C69.8041 32.6873 69.9756 32.6057 70.114 32.6155C70.1409 32.5936 70.1299 32.5985 70.1685 32.577C70.3503 32.4753 70.3688 32.5917 70.4039 32.4194C70.2369 32.3389 69.8634 32.3771 69.6552 32.3858C69.3721 32.3975 69.2538 32.4655 68.9934 32.5135C67.7253 32.6896 65.6224 33.5162 64.3124 33.3499Z" fill="#272937"/>
<path fill-rule="evenodd" clip-rule="evenodd" d="M63.9851 29.5565C63.9473 29.6494 63.891 29.7386 63.8513 29.8248C63.7833 29.9722 63.77 30.4053 63.5561 30.634C63.4847 30.7104 63.4499 30.7647 63.4129 30.801C63.4204 30.8195 63.4261 30.8392 63.4299 30.8585C63.5992 30.7421 63.9534 30.5694 64.1726 29.897C64.207 29.7916 64.2138 29.8203 64.2705 29.7394C64.3521 29.6227 64.6004 29.1664 64.6234 29.041L64.5131 29.0327C64.4737 29.0781 64.5017 29.0474 64.4602 29.0834C64.337 29.1888 64.0652 29.388 63.9851 29.5566V29.5565Z" fill="#191C2A"/>
<path fill-rule="evenodd" clip-rule="evenodd" d="M52.2028 13.7935C52.3608 13.8252 54.0608 12.9563 56.9219 13.5606C57.3202 13.6449 58.2103 13.9476 58.53 13.9356C58.5588 13.9178 58.6222 13.9151 58.6748 13.8471C58.5716 13.7643 58.1695 13.5954 58.0277 13.5406C57.7628 13.4385 57.5504 13.3966 57.2865 13.3327C56.1803 13.1558 55.4595 13.0931 54.394 13.1517C54.0305 13.1718 53.5164 13.2602 53.1748 13.3497C52.979 13.4007 52.2658 13.6593 52.2027 13.7935H52.2028Z" fill="#191C2A"/>
<path fill-rule="evenodd" clip-rule="evenodd" d="M70.6502 23.9616C70.7628 24.101 70.7628 24.9382 70.7878 25.1536C70.8086 25.3317 70.8218 25.329 70.9655 25.3993C71.1015 25.0617 71.0584 25.0504 71.0891 24.6861C71.1662 23.7733 70.744 23.0193 70.7383 22.9543L70.852 22.9588C71.0104 22.9649 71.1212 23.0374 71.4205 23.0265C71.6128 23.0197 71.5603 23.0397 71.5849 23.0496C71.6986 23.0946 71.7141 24.5081 71.7705 24.7447C71.8174 24.9401 71.8011 24.9964 71.8264 25.1503C71.8468 25.2761 71.8094 25.2296 71.8827 25.2723C71.9591 25.2455 72.0475 24.9794 72.057 24.8804C72.0725 24.7137 72.0725 24.5474 72.0929 24.3512C72.1322 23.9725 72.1893 23.5972 72.232 23.2189C72.2619 22.9543 72.257 22.9263 72.362 22.7434C72.4369 22.6127 72.4939 22.5 72.6243 22.3946C72.7426 22.2985 72.7963 22.2279 72.9305 22.1379C73.1475 21.9912 73.2026 22.0888 73.3742 22.02L73.2726 21.8918C73.0065 21.8401 72.8066 21.8333 72.593 21.8877C72.5156 21.9073 72.5216 21.913 72.4498 21.9304C72.288 21.97 71.7442 22.1844 71.6678 22.2577C71.4225 22.4943 71.3526 22.3454 71.1545 22.4273L71.3703 22.4629C71.2467 22.6889 70.9527 22.7241 70.6295 22.6401C70.3261 22.5611 70.1393 22.3726 69.8479 22.3321C69.9341 22.4621 70.1015 22.4802 70.1741 22.6223C70.1666 22.6265 70.156 22.6299 70.1492 22.6318C70.1423 22.6337 70.1329 22.6382 70.1242 22.6401C69.9178 22.6801 70.2641 22.6405 70.0713 22.648L69.3404 22.5244C69.0856 22.4938 68.7379 22.3699 68.5085 22.4586C68.7991 22.4617 68.9306 22.5096 69.1937 22.5547L69.2697 22.6144C69.4752 22.7504 69.6809 22.7444 70.1034 23.1412C70.2421 23.2712 70.6699 23.7237 70.6503 23.9613L70.6502 23.9616Z" fill="#3B6B74"/>
<path fill-rule="evenodd" clip-rule="evenodd" d="M54.0241 18.948C54.3541 19.2073 54.2502 19.0345 54.6402 19.544C55.963 21.2689 57.9643 21.3143 59.5566 19.7866C59.6821 19.6656 60.1651 19.2586 60.2003 19.1637C59.8786 19.1357 59.7633 19.3739 59.4897 19.6419C58.9137 20.2058 58.0629 20.7614 57.1301 20.7519C56.4306 20.7448 55.7207 20.4257 55.2763 20.0557C54.6643 19.5466 54.4992 19.0572 54.1466 18.9438C54.0313 18.9068 54.0287 18.9449 54.0241 18.948Z" fill="#8DBAB1"/>
<path fill-rule="evenodd" clip-rule="evenodd" d="M63.663 11.7692C63.7205 11.9881 64.5523 12.8191 64.7103 13.0935C64.8366 13.1117 64.7618 13.1117 64.8045 13.0848C64.8733 12.646 64.9057 12.3977 64.8071 12.0084C64.5766 11.0976 64.3422 11.0586 64.007 10.4686C63.9371 10.3454 63.8339 10.2396 63.7557 10.1379C63.6608 10.0143 63.6064 9.8843 63.4314 9.83329C63.4389 9.92323 63.5201 10.1171 63.5569 10.2407C63.5807 10.3209 63.5962 10.3624 63.6302 10.435L63.7428 10.5914C63.7541 10.7181 64.0637 10.9656 64.1158 11.1213C64.0474 11.0945 63.7046 10.7097 63.6124 10.6247C63.1396 10.1878 62.4838 9.61065 62.0688 9.18432C61.1916 8.28363 60.9939 8.22736 59.9799 7.71407C59.8117 7.62865 59.7002 7.52961 59.6393 7.61314L59.7595 7.68303C60.924 8.57124 61.6073 9.39023 62.559 10.461L62.9589 10.9229C63.0334 10.9437 63.0629 11.0045 63.1097 11.0631C63.1762 11.1459 63.1921 11.1523 63.2279 11.2649C63.3708 11.314 63.5276 11.7044 63.663 11.7691L63.663 11.7692Z" fill="#19232E"/>
<path fill-rule="evenodd" clip-rule="evenodd" d="M54.9974 16.7064C54.9218 16.7113 54.6239 16.9524 54.5574 17.0167C54.4697 17.1009 54.1934 17.33 54.1568 17.4574C54.3099 17.4158 54.4671 17.2106 54.6055 17.1301C54.6353 17.1785 54.6701 17.0688 54.6088 17.2646L54.7105 17.2397C54.7861 17.2079 55.1108 16.9286 55.2208 16.8508C55.3954 16.7268 55.5798 16.6255 55.7926 16.514C56.1434 16.3307 56.7235 16.1501 57.1862 16.1765C57.2198 16.1591 57.2111 16.1588 57.264 16.1493C57.2697 16.1486 57.3374 16.1441 57.3388 16.1441C57.3865 16.1445 57.4647 16.1539 57.5134 16.1584L57.6696 16.1214L57.6798 15.991C57.3135 15.9316 57.2164 15.9044 56.871 15.94C56.0576 16.0239 56.058 16.1433 55.5599 16.3448C55.4468 16.3905 55.3607 16.4336 55.265 16.4914C55.197 16.5327 55.1883 16.5341 55.1376 16.5893C55.0553 16.6789 55.1301 16.6536 54.9974 16.7065L54.9974 16.7064Z" fill="#E6E9E9"/>
<path fill-rule="evenodd" clip-rule="evenodd" d="M45.4336 16.619C45.3214 16.7627 44.8947 16.9184 44.4544 17.6822C44.3202 17.915 43.8428 18.999 44.087 19.2288C44.1834 19.1305 44.1705 18.7336 44.2431 18.5877C44.2843 18.505 44.2624 18.5481 44.2972 18.5144C44.2764 18.0866 45.0168 17.3163 45.2515 17.1111C45.6514 16.7622 46.5282 16.3264 46.583 16.2146C46.4039 16.1768 46.1284 16.3057 45.9628 16.3703C45.7436 16.4561 45.5055 16.6088 45.4336 16.619V16.619Z" fill="#1C212C"/>
<path fill-rule="evenodd" clip-rule="evenodd" d="M56.2129 17.6558C56.3523 17.7412 56.4517 17.5945 56.6902 17.686C56.8402 17.7435 56.9888 17.838 57.1479 17.9079C57.5357 18.0791 58.1185 17.9064 58.0296 17.6837C57.9703 17.5352 57.2548 17.085 56.5874 17.3976C56.4808 17.4475 56.2374 17.545 56.2128 17.6557L56.2129 17.6558Z" fill="#F3F6F4"/>
<path fill-rule="evenodd" clip-rule="evenodd" d="M55.1104 17.3467C55.3251 17.2753 55.6365 17.0776 56.0262 16.9578C56.7205 16.7443 57.6423 16.6525 58.3222 16.9972L59.19 17.5342C58.6915 17.1105 58.9262 17.2923 58.3714 16.9087C58.0274 16.6706 57.598 16.6264 57.1067 16.5912C56.6082 16.5553 56.3448 16.643 55.9869 16.8123C55.7465 16.9257 55.2347 17.1974 55.1104 17.3467Z" fill="#D8E6EA"/>
<path fill-rule="evenodd" clip-rule="evenodd" d="M63.1967 28.8663L63.0172 29.0402C62.9559 29.1078 62.9113 29.1694 62.8532 29.2488C62.6646 29.505 62.1404 29.8013 61.8062 30.0931C61.5155 30.3468 61.3908 30.4722 61.107 30.6578C60.791 30.8642 60.6704 31.1049 60.2339 31.3846L59.6922 31.8128C59.6903 31.8079 59.6813 31.8256 59.6764 31.8329L58.3766 33.147C58.4129 33.1897 59.7074 31.9598 59.8177 31.9028C59.9621 31.8264 60.0747 31.6473 60.2044 31.5407C60.2837 31.4756 60.3502 31.4557 60.4319 31.4095C60.755 31.1892 61.0037 30.9204 61.2838 30.6506C61.8654 30.191 63.1134 29.6649 63.426 29.1973C63.4975 29.0446 63.7276 28.8897 63.64 28.7392C63.4699 28.6609 63.3372 28.8242 63.1966 28.8662L63.1967 28.8663ZM62.0371 30.7976L62.0417 30.8007C61.9472 30.993 61.6327 31.2338 61.4989 31.4621C61.4929 31.4685 61.4838 31.4745 61.4785 31.4787C61.2366 31.6703 61.0227 31.9654 60.8722 32.2157C60.8303 32.3022 60.7868 32.3888 60.7464 32.4757C60.7441 32.4806 60.7358 32.4999 60.7351 32.4961C60.7339 32.4919 60.7275 32.5098 60.723 32.5162L59.6957 33.932C59.5105 34.1962 58.9002 35.1928 58.8 35.4653C58.7357 35.556 58.7592 35.5031 58.7055 35.5976C58.3238 36.2696 58.1016 36.7908 57.634 37.5244C57.7788 37.5395 57.8098 37.5648 57.8638 37.473C57.9394 37.3763 57.9507 37.4288 58.0037 37.2961L58.7486 35.8591C58.8223 35.7011 58.9183 35.5621 59.0049 35.412C59.0427 35.3466 59.0427 35.3394 59.0986 35.2869C59.1217 35.2023 59.5703 34.398 59.6281 34.33C59.7184 34.1433 59.8942 33.9301 59.997 33.7808C60.068 33.678 60.1236 33.6175 60.1935 33.5151C60.2385 33.449 60.3084 33.3068 60.3761 33.2717L61.0152 32.2803C61.3243 31.7837 61.1819 31.9655 61.5228 31.5803C61.5897 31.5051 61.6172 31.4374 61.7197 31.3793C61.728 31.2058 62.1139 30.9605 62.1937 30.8006C62.1007 30.8002 62.1653 30.821 62.1241 30.7821L62.1698 30.6963L62.0372 30.7976L62.0371 30.7976Z" fill="#1C212C"/>
<path fill-rule="evenodd" clip-rule="evenodd" d="M61.0514 27.4342C60.8772 27.4958 60.6863 27.5907 60.5828 27.6961C60.6422 27.7914 60.6675 27.8068 60.7268 27.9312C61.1712 28.0347 61.6335 27.5963 61.6997 27.5986L61.7121 27.4992C61.4041 27.323 61.3954 27.3215 61.0515 27.4341L61.0514 27.4342Z" fill="#1A1A25"/>
<path fill-rule="evenodd" clip-rule="evenodd" d="M63.2144 27.7622C63.366 27.7974 63.4666 27.8915 63.5988 27.8378C63.6543 27.8155 63.815 27.6976 63.8687 27.6628C64.0074 27.5729 64.3283 27.3717 64.3729 27.2289C64.3214 27.1401 64.3325 27.1753 64.2568 27.1174C64.069 27.0607 64.0157 27.0977 63.9061 27.1718L63.4098 27.5407C63.3339 27.599 63.2194 27.6492 63.2144 27.7622Z" fill="#1A1A25"/>
<path fill-rule="evenodd" clip-rule="evenodd" d="M68.0349 21.7085L68.039 21.7909C68.3542 21.8173 68.6237 21.7954 68.9639 21.8313C69.3071 21.8679 69.4999 22.0059 69.8732 22.0323C69.8524 21.9167 69.8879 22.0221 69.8395 21.9159C69.8301 21.9152 69.0784 21.6314 68.9332 21.5864C68.5462 21.4658 68.2072 21.4393 68.0348 21.7084L68.0349 21.7085Z" fill="#C2DAD6"/>
<path fill-rule="evenodd" clip-rule="evenodd" d="M71.0668 17.0798C71.2263 17.1429 71.243 17.0106 71.5676 16.8186C71.7811 16.692 71.9142 16.6727 72.1463 16.616C72.124 16.5143 72.1319 16.5298 72.02 16.4667C71.9656 16.4361 71.8874 16.3964 71.8386 16.3832C71.6803 16.3401 71.5487 16.396 71.4535 16.4558C71.2388 16.59 71.0805 16.7687 71.0669 17.0798H71.0668Z" fill="#BBBDBC"/>
<path fill-rule="evenodd" clip-rule="evenodd" d="M60.3257 25.0635C60.3359 25.1996 60.6489 25.4139 60.8651 25.3886C61.0196 25.3708 61.4743 25.2525 61.3855 25.0851C61.1119 24.9374 61.1777 24.889 60.8847 24.9438C60.7876 24.9623 60.6972 24.9755 60.5926 24.9872C60.4762 25 60.3998 24.9952 60.3257 25.0636V25.0635Z" fill="#221D28"/>
<path fill-rule="evenodd" clip-rule="evenodd" d="M62.9106 26.7958L62.7544 26.7747C62.5103 26.848 62.1599 26.964 62.0825 27.3095C62.6225 27.4277 63.0972 27.0203 62.9106 26.7958Z" fill="#1C212C"/>
<path fill-rule="evenodd" clip-rule="evenodd" d="M66.2516 10.5328C66.3068 10.6159 66.3129 10.6462 66.3423 10.7464C66.3801 10.8733 66.3559 10.8692 66.4961 10.9082C66.5502 10.5911 66.489 10.3775 66.385 10.1379C66.3098 9.96516 66.2304 9.63558 65.9946 9.60913C65.9624 9.82422 66.1991 10.3038 66.2515 10.5328H66.2516Z" fill="#2C3B4B"/>
<path fill-rule="evenodd" clip-rule="evenodd" d="M64.7883 29.7689L64.7425 29.8339C64.7383 29.8464 64.7059 29.9307 64.7055 29.9322L64.7017 30.0037C64.7005 30.0755 64.9708 30.1197 65.1473 30.0324C65.2354 29.9886 65.1734 30.0056 65.2671 29.9727C65.4229 29.679 65.6871 29.4477 65.6802 29.0682L65.5906 29.0645C65.5661 29.1287 65.5506 29.2084 65.5264 29.2916C65.4898 29.4178 65.5071 29.365 65.3957 29.4492C65.3193 29.507 65.2165 29.7198 65.1651 29.7954L64.7883 29.7689L64.7883 29.7689Z" fill="#1C212C"/>
<path fill-rule="evenodd" clip-rule="evenodd" d="M72.5003 19.1348C72.5185 19.1511 72.5053 19.1707 72.6205 19.1643C72.9754 19.1446 73.2415 19.0551 73.3968 18.7153C73.5083 18.4708 73.6424 17.7232 73.4296 17.5583C73.3726 17.6188 73.3941 17.7099 73.393 17.8082C73.3923 17.9016 73.3892 18.0036 73.3859 18.0965C73.373 18.4711 73.2623 18.7602 72.9565 18.9707C72.7751 19.0951 72.6874 19.0728 72.5003 19.1347L72.5003 19.1348Z" fill="#8DBAB1"/>
<path fill-rule="evenodd" clip-rule="evenodd" d="M65.6847 29.8815C65.7354 29.99 65.8756 29.8637 66.0226 29.8078C66.0936 29.781 66.1503 29.7681 66.2051 29.7496C66.3034 29.7175 66.3053 29.7012 66.3896 29.6665C66.4471 29.5682 66.5517 29.4873 66.6303 29.3871C66.6791 29.3251 66.6935 29.3123 66.752 29.2488C66.7811 29.2171 66.8797 29.1366 66.7887 29.126C66.6507 29.1921 66.6915 29.3017 66.5396 29.3308C66.4009 29.3577 66.2713 29.3361 66.1397 29.3807C66.0437 29.4132 65.7292 29.7934 65.6846 29.8815H65.6847Z" fill="#353A47"/>
<path fill-rule="evenodd" clip-rule="evenodd" d="M65.0157 27.7372C64.6812 27.7822 64.3108 28.3639 64.7069 28.317C65.0021 28.2822 65.4107 27.6839 65.0157 27.7372Z" fill="#1A1A25"/>
<path fill-rule="evenodd" clip-rule="evenodd" d="M64.6465 25.6023C64.2417 25.6844 64.1416 26.1371 64.5679 26.0566C64.9077 25.9928 65.0967 25.5109 64.6465 25.6023Z" fill="#221D28"/>
<path fill-rule="evenodd" clip-rule="evenodd" d="M65.6315 28.5554C66.0241 28.6688 66.3318 28.2168 66.2615 28.1197C66.1455 27.9594 65.915 28.0989 65.8397 28.1888C65.7725 28.2693 65.6406 28.4345 65.6315 28.5554Z" fill="#221D28"/>
<path fill-rule="evenodd" clip-rule="evenodd" d="M52.9201 18.6694C52.8328 18.6161 52.8366 18.7431 52.8578 18.5643C52.9288 18.5553 53.3102 18.2767 53.3147 18.2711C53.3718 18.2064 53.3446 18.1656 53.3646 18.0488C53.2886 18.0712 53.3306 18.0549 53.2702 18.0882L52.5539 18.632C52.4409 18.6929 52.3241 18.6981 52.2323 18.7734C52.2376 18.7779 52.2486 18.7764 52.2508 18.7847C52.2689 18.8478 52.5603 18.7764 52.5853 18.7707C52.6979 18.745 52.8302 18.7212 52.9201 18.6695V18.6694Z" fill="#3B6B74"/>
<path fill-rule="evenodd" clip-rule="evenodd" d="M61.9294 25.9232C62.1887 25.9081 62.6641 25.8952 62.4411 25.5063C62.1195 25.4122 61.8768 25.5959 61.9294 25.9232Z" fill="#1A1A25"/>
<path fill-rule="evenodd" clip-rule="evenodd" d="M65.7728 27.269C66.0389 27.4769 66.3431 27.2036 66.2588 26.9746C66.1987 26.812 65.7543 26.8446 65.7728 27.269Z" fill="#221D28"/>
<path fill-rule="evenodd" clip-rule="evenodd" d="M63.2723 25.4987C62.9272 25.6159 63.1147 25.9406 63.4136 25.8653C63.7333 25.7848 63.6287 25.3774 63.2723 25.4987Z" fill="#221D28"/>
<path fill-rule="evenodd" clip-rule="evenodd" d="M66.8689 28.3794L66.7858 28.6807C67.0957 28.7241 67.2722 28.5325 67.2904 28.2423C66.9891 28.1913 67.0466 28.2226 66.869 28.3795L66.8689 28.3794Z" fill="#191C2A"/>
<path fill-rule="evenodd" clip-rule="evenodd" d="M63.6559 24.1128C63.9106 24.3036 64.2183 24.1037 64.1582 23.9257C64.0977 23.7447 63.6222 23.7371 63.6559 24.1128Z" fill="#1C212C"/>
<path fill-rule="evenodd" clip-rule="evenodd" d="M75.6045 27.2672L75.5141 27.3137C75.5115 27.4724 75.6037 27.506 75.6354 27.6009C75.7681 27.683 75.8029 27.7087 75.9567 27.6157C76.018 27.4354 75.9768 27.3813 75.9076 27.2649L75.6045 27.2672Z" fill="#191C2A"/>
<path fill-rule="evenodd" clip-rule="evenodd" d="M65.2746 24.0249C65.2395 23.941 65.202 23.9115 65.1953 23.8525C64.9689 23.8008 64.8275 23.93 64.7883 24.1201C64.865 24.1836 64.9636 24.2551 65.0831 24.2459C65.2101 24.2361 65.3039 24.1662 65.2747 24.0249L65.2746 24.0249Z" fill="#1C212C"/>
<path fill-rule="evenodd" clip-rule="evenodd" d="M67.3432 27.0569C66.9565 27.1521 67.1138 27.507 67.3277 27.4582C67.5537 27.4065 67.7283 26.9623 67.3432 27.0569Z" fill="#1A1A25"/>
<path fill-rule="evenodd" clip-rule="evenodd" d="M62.9404 24.0843C62.9321 23.9346 62.9475 23.853 62.7903 23.8224C62.641 23.7933 62.5632 23.8349 62.4728 23.8825C62.4021 24.1656 62.6097 24.1932 62.788 24.1482L62.9404 24.0843Z" fill="#1C212C"/>
<path fill-rule="evenodd" clip-rule="evenodd" d="M74.9586 26.3162C74.9752 26.4458 74.9431 26.3828 75.03 26.4564C74.9446 26.574 74.9888 26.3635 74.9363 26.5509C74.8686 26.7909 75.5131 26.9311 75.2534 26.4624C75.171 26.3139 75.1529 26.3358 74.9586 26.3162V26.3162Z" fill="#1C212C"/>
<path fill-rule="evenodd" clip-rule="evenodd" d="M67.1913 25.8962C67.3659 26.1007 67.7053 26.0368 67.6478 25.7688C67.6176 25.6271 67.5042 25.6181 67.4003 25.6782C67.3288 25.7197 67.2234 25.8002 67.1913 25.8962Z" fill="#45454B"/>
<path fill-rule="evenodd" clip-rule="evenodd" d="M74.3735 27.9696C74.4396 28.0029 74.454 28.0206 74.5375 28.038L74.5557 27.9568C74.5557 27.854 74.5167 27.7217 74.4846 27.634C74.4257 27.4734 74.3607 27.5089 74.2034 27.538C74.1683 27.7538 74.3346 27.8438 74.3735 27.9696Z" fill="#1C2333"/>
<path fill-rule="evenodd" clip-rule="evenodd" d="M66.5971 26.0561C66.6984 26.0965 66.7729 25.999 66.788 25.9053C66.8046 25.801 66.7392 25.7387 66.7059 25.6442L66.619 25.6321C66.503 25.6755 66.449 25.7111 66.4146 25.8645C66.4614 25.97 66.4909 26.0059 66.5971 26.0561Z" fill="#272937"/>
<path fill-rule="evenodd" clip-rule="evenodd" d="M74.0171 26.4885L73.9645 26.6699C74.1252 26.7171 74.1758 26.733 74.3368 26.6876C74.4192 26.4734 74.3293 26.3656 74.1044 26.3732C74.0927 26.417 74.0299 26.476 74.0171 26.4885Z" fill="#25232C"/>
<path fill-rule="evenodd" clip-rule="evenodd" d="M65.7769 24.0752L65.7414 24.1092C65.5955 24.2989 65.778 24.3862 65.8763 24.3938C66.015 24.4044 66.1488 24.3057 66.0195 24.0767L65.7769 24.0752Z" fill="#1C212C"/>
<path fill-rule="evenodd" clip-rule="evenodd" d="M75.0171 24.3863C75.0016 24.7381 75.3633 24.7 75.4117 24.5798C75.4529 24.4774 75.3645 24.4131 75.2892 24.3768C75.1796 24.3239 75.0897 24.3617 75.0171 24.3863Z" fill="#1A1A25"/>
<path fill-rule="evenodd" clip-rule="evenodd" d="M68.2261 27.4142C68.3145 27.2706 68.3738 27.1969 68.398 27.0004L68.2748 26.9958C68.1962 27.1414 68.0621 27.2366 68.0507 27.4649C68.1592 27.4959 68.1751 27.4917 68.2261 27.4142Z" fill="#272937"/>
<path fill-rule="evenodd" clip-rule="evenodd" d="M65.5305 25.9239C65.6091 25.9586 65.698 25.9927 65.7898 25.973C65.9497 25.9386 66.0465 25.6722 65.6651 25.7239C65.5419 25.7405 65.5313 25.7909 65.5305 25.9238V25.9239Z" fill="#25232C"/>
<path fill-rule="evenodd" clip-rule="evenodd" d="M61.4365 24.1008C61.6017 24.0581 61.6512 23.976 61.7472 23.9273L61.7642 23.8219C61.4827 23.7652 61.378 23.8423 61.3141 24.091L61.4365 24.1008V24.1008Z" fill="#25232C"/>
<path fill-rule="evenodd" clip-rule="evenodd" d="M75.3135 25.4291C74.974 25.1078 74.8308 25.5032 75.1555 25.6082C75.3154 25.66 75.3097 25.5432 75.3135 25.4291Z" fill="#25232C"/>
<path fill-rule="evenodd" clip-rule="evenodd" d="M75.7943 25.326C75.8249 25.3683 75.8105 25.326 75.8264 25.3895C75.8532 25.4954 75.8354 25.4027 75.8302 25.4715C75.9855 25.5147 75.959 25.5105 76.0966 25.4685C76.1351 25.2961 76.08 25.2194 75.9246 25.1824C75.7991 25.1971 75.8199 25.1967 75.7942 25.326H75.7943Z" fill="#1C212C"/>
<path fill-rule="evenodd" clip-rule="evenodd" d="M75.0338 27.8054L75.1815 27.8579L75.1933 27.7392C75.14 27.61 75.16 27.5125 74.9555 27.517C74.8965 27.6519 74.9302 27.7642 75.0338 27.8054Z" fill="#25232C"/>
<path fill-rule="evenodd" clip-rule="evenodd" d="M75.9224 26.4281C76.0667 26.5661 75.9171 26.5706 76.1125 26.5982C76.1 26.4701 76.046 26.3983 76.0101 26.2826L75.9761 26.1775C75.9738 26.1723 75.9697 26.1628 75.9659 26.156L75.8442 26.1583C75.826 26.322 75.9024 26.2932 75.9224 26.4282L75.9224 26.4281Z" fill="#35343B"/>
<path fill-rule="evenodd" clip-rule="evenodd" d="M55.8104 17.9355C55.909 17.9643 56.0995 18.0202 56.126 17.8978C56.1354 17.8543 56.1294 17.8331 56.1279 17.79C56.0073 17.759 55.8395 17.8266 55.8104 17.9355Z" fill="#D8E6EA"/>
<path fill-rule="evenodd" clip-rule="evenodd" d="M21.1774 117.675C24.6981 117.137 25.3988 117.545 29.568 115.703C34.1983 113.657 37.6289 110.37 41.1201 106.867C41.7531 106.232 42.5616 107.667 43.2699 108.555C43.9668 108.32 44.6812 108.13 45.3932 107.984L54.6916 105.265C57.194 104.621 56.3164 104.56 58.083 103.913L65.3979 100.984C68.0405 99.1254 68.5221 99.3734 70.5041 98.1201L77.6949 93.929L86.1679 87.1451C82.8555 84.5486 78.6179 81.1349 78.2702 80.6361C77.9565 80.1859 73.5144 76.0605 72.15 74.2453C69.7375 71.0364 66.4248 66.907 65.0188 63.11C64.2096 60.9239 62.8486 58.5802 62.31 56.3019C62.1539 55.642 61.5674 55.7788 61.7503 54.6079C61.9045 53.6208 60.9328 52.3837 60.7052 51.618C60.551 51.0971 60.9425 50.5858 60.5325 50.0529C60.0381 49.4104 59.9969 47.0908 59.3748 45.9093C58.6552 44.5431 56.9941 39.3371 55.8334 37.5623C53.614 34.1682 54.8046 35.3229 51.4703 31.5853C47.2784 26.887 41.3423 25.2769 40.6283 24.7923C39.2257 23.8403 34.6926 23.4287 33.2389 23.2423C31.1371 22.9732 28.8441 23.2503 26.7892 23.6505C27.3954 22.8084 29.6934 21.6111 29.6991 21.4973C28.9972 21.6375 26.6127 23.1448 26.4649 23.7151L26.2189 23.7657L26.2344 23.7174C26.5692 22.5774 28.7119 19.7776 27.9299 20.6975C27.0466 21.7365 25.8285 23.3871 25.3111 23.9646L25.1009 24.0129C25.2125 23.7329 25.5737 23.0609 26.2934 21.8212C28.0966 18.714 28.6458 17.9264 26.4495 20.7286C25.8602 21.4803 24.751 24.5312 24.706 23.5295C24.6447 22.1614 27.5319 18.6249 27.2054 18.9707C25.3357 20.9515 24.7158 21.0971 23.8371 23.9804C23.7955 24.1165 23.8023 24.1441 23.8045 24.3232C22.3472 24.68 21.2356 24.9628 20.7473 24.8977C19.3221 24.7087 17.7298 24.6721 16.0607 24.4226C11.3412 23.7174 9.74134 26.7878 10.2293 30.3002C10.3861 31.4291 8.2499 28.966 4.3865 37.4835C6.19045 33.93 9.21448 30.8176 10.3075 30.9816C10.2849 31.0991 10.6461 31.3384 10.4618 31.4839C8.93254 32.6888 6.84738 36.186 5.3129 39.718C6.22452 39.0017 9.34416 32.8627 10.2811 32.6684C9.40198 34.5363 7.54358 37.078 5.40398 42.3236C6.27027 41.4343 11.0143 32.9791 11.5503 33.2078C11.9075 33.3604 9.99724 36.1048 7.91587 43.9367C8.74167 42.6997 11.7022 34.9853 12.7748 34.7736C12.8009 34.8507 13.3213 35.3254 13.1883 35.5677C12.3198 37.1456 11.0026 42.3047 10.9713 44.7686C10.9622 45.4977 11.9536 39.1027 13.7277 36.1165L14.0489 36.1694C14.719 38.0618 12.3621 41.5881 14.1192 46.173C13.7387 43.1834 14.2024 39.8117 14.8509 37.0795C16.3748 41.7562 26.877 45.2591 28.5963 47.0858C33.2561 52.0362 29.7351 57.8245 30.1369 60.3436C30.1539 60.4506 29.692 67.7825 30.0076 70.1198C30.4101 73.0999 30.666 76.0192 31.2 78.9763C31.6887 81.6809 32.5047 84.6263 33.0142 87.3408C33.323 88.9849 30.4441 91.7999 29.4973 93.2002C27.069 96.7912 18.5817 108.281 15.4972 109.444C15.3592 109.496 11.4066 111.596 9.07692 112.395C7.65126 112.884 6.38516 113.947 4.78186 113.2C3.61663 112.658 2.27983 113.55 1.25142 114.048C1.08363 114.132 1.12478 113.943 1.05151 114.592C3.6953 117.208 4.43643 116.218 8.74552 116.833C11.1123 117.171 18.8078 117.773 21.1775 117.675H21.1774Z" fill="#61878E"/>
<path fill-rule="evenodd" clip-rule="evenodd" d="M42.6145 98.7013C43.1871 99.4096 41.2467 101.113 40.9557 100.061C40.828 99.599 40.9814 98.0959 41.9334 98.2738C42.3522 98.3524 42.5325 98.5996 42.6145 98.7013Z" fill="#3B6B74"/>
<path fill-rule="evenodd" clip-rule="evenodd" d="M39.4972 96.0556C39.8373 96.887 37.4573 97.9756 37.491 96.8943C37.5057 96.4188 38.1029 95.0306 38.9677 95.4615C39.3483 95.6512 39.448 95.9362 39.4972 96.0556Z" fill="#3B6B74"/>
<path fill-rule="evenodd" clip-rule="evenodd" d="M36.9395 90.9948C37.2797 91.8263 34.8997 92.9148 34.9334 91.8335C34.9481 91.3584 35.5453 89.9698 36.4101 90.401C36.7906 90.5907 36.8904 90.8753 36.9395 90.9948Z" fill="#3B6B74"/>
<path fill-rule="evenodd" clip-rule="evenodd" d="M35.7913 60.2363L41.8711 66.7719C41.8442 66.8668 41.8593 66.9004 41.7588 66.9673C42.3446 67.6295 42.9732 68.2935 43.5458 68.9546C46.4375 72.2945 48.8734 75.3412 49.6123 76.8073C51.5693 79.7229 51.0334 79.4492 51.4692 83.7783C52.1378 90.4227 53.9111 96.4775 51.225 101.337C50.8414 102.031 50.976 102.77 49.3946 102.881C47.8458 102.988 48.542 101.937 46.3234 100.65C45.1695 100.072 44.4027 99.5744 43.7352 99.0547C43.0046 98.4863 40.9799 99.139 40.7429 97.1378C40.718 96.7961 40.93 96.4896 40.6594 96.2088C39.9217 95.4446 39.693 96.4582 39.0252 96.1736C38.7644 96.0632 38.4367 95.7537 37.9854 95.064C37.6165 94.4993 37.4876 93.0067 37.1857 91.284C36.1467 90.6003 34.887 90.2292 34.774 88.8606C34.6576 87.4652 35.689 85.7485 35.6176 84.1864C35.5454 82.6024 34.7767 81.8851 33.2535 80.2323C32.5361 79.4552 31.3811 77.8572 31.3324 77.8115C29.5643 76.1534 26.5558 75.7989 23.6282 75.6768C21.6575 75.5948 19.5402 76.0638 17.0945 76.5234C17.237 75.4224 19.0228 57.9656 26.7156 46.5801C27.2913 47.1553 27.8861 48.1486 28.4977 49.6373C31.4521 56.8286 32.617 54.3583 35.7914 60.2363L35.7913 60.2363Z" fill="#8DBAB1"/>
<path fill-rule="evenodd" clip-rule="evenodd" d="M31.1644 77.8051C30.8216 77.4245 29.8575 77.1868 29.4209 76.8799C29.0687 76.8197 29.1586 76.8405 28.9099 76.7971C28.7799 76.8107 28.6503 76.822 28.5207 76.8326L27.8631 76.5783C27.9118 76.57 27.9572 76.5609 27.9984 76.5511C27.8929 76.4925 27.6783 76.4385 27.4186 76.3901C27.3809 76.3792 27.346 76.3731 27.3136 76.3712C26.7766 76.2794 26.0981 76.2136 25.7938 76.1921C24.9514 76.1316 24.378 76.0557 23.5665 75.9559C22.9486 75.8792 22.0781 75.7133 21.8037 75.4086C21.1287 74.7332 18.0567 73.6889 17.3268 73.453C18.2456 73.3778 19.8561 73.9992 20.8002 74.3772C20.8255 74.3919 20.8607 74.4066 20.8796 74.4149L21.3913 74.6281C23.9167 75.6278 24.5665 75.3496 25.277 75.5541C24.8424 75.2075 23.1945 73.9637 22.6483 73.8091C22.4133 73.5869 22.1831 73.4724 21.8906 73.2792C21.5685 73.0665 21.4741 72.9716 21.0972 72.9614C20.6561 72.5136 19.8851 72.3499 19.3181 72.1088C19.7596 72.1552 21.0193 72.5154 21.4944 72.842C22.8966 73.6323 24.3725 74.5329 25.6035 75.1267C25.4263 74.9332 22.4997 72.5551 21.999 72.3385L21.7284 72.0275L22.5768 72.4561L24.0093 73.4906C24.6885 74.1293 25.4754 74.6649 26.1459 75.1018C26.5605 75.3717 28.1101 76.134 28.2019 76.2353C26.6349 75.2496 25.4161 73.9271 24.5759 72.8696L24.9217 73.1561C25.0495 73.2622 25.1652 73.3068 25.2626 73.3099C25.5677 73.5892 25.8749 73.856 26.1739 74.1096C26.9956 74.8054 28.4031 75.9529 29.1264 76.3392L27.2695 73.2029L26.9607 72.509C27.1943 72.5949 26.9925 72.4644 27.203 72.6659L27.5197 73.1762C28.014 74.1362 29.4427 76.0501 30.4402 76.5316L30.2735 76.0701C30.303 75.7768 29.7852 75.4578 29.9012 74.8883C31.3019 77.2074 35.7947 80.4585 36.0721 84.4407C36.1545 85.632 35.9013 86.9337 35.3744 88.6635C34.8611 90.3473 37.4936 90.1874 37.7 91.5356C38.0639 93.9118 37.7684 95.6398 39.9802 95.528C41.286 95.4618 40.4405 98.2715 42.088 98.0137C44.1592 97.3602 43.8091 99.0992 44.5197 99.6204C45.392 100.361 45.8792 99.7724 46.8521 100.099C47.3914 100.35 47.3997 100.837 47.9742 101.267C48.9221 101.975 49.7203 102.351 50.2808 102.256C51.2276 102.097 51.6426 100.687 52.0772 97.0159C52.0768 94.9742 52.3346 92.77 52.2334 91.5352C52.0073 88.7879 51.6551 85.3512 51.2246 82.7592C51.0662 81.8237 51.0885 81.1351 50.9653 80.6253C50.2434 77.6368 50.4297 77.9429 46.6427 72.8326C44.8757 70.4477 42.6205 67.768 41.5131 66.8186C41.1476 66.3352 40.1869 65.2006 39.7292 65.0116C39.5466 64.7085 39.3576 64.549 39.1112 64.2871L38.4596 63.6692L36.7483 61.7249C35.6975 60.4278 32.0205 61.5008 31.8912 61.3969C31.8613 61.3734 31.833 61.3961 31.8039 61.3927C32.4619 61.0858 33.5085 60.8786 34.1993 60.8159C35.258 60.7191 35.4719 60.9369 36.2557 60.9924C35.6484 60.3336 33.7738 60.6824 32.8855 60.574C33.6913 60.2293 34.4049 60.4383 35.0841 60.3703C34.6533 60.113 33.2605 59.9633 32.7086 59.8794C33.1527 59.7747 33.8595 59.8522 34.2764 59.907C34.9185 59.9916 35.3498 60.184 35.7912 60.2366C35.2281 59.5687 34.8743 59.0437 34.1154 58.7656C32.1417 58.0406 30.0524 58.193 27.954 58.8449C27.7155 58.8857 27.5307 58.9103 27.2941 59.0837C27.3648 58.9129 27.1376 59.013 27.6297 58.8192L30.619 58.1128C32.153 57.9382 33.0628 58.4216 33.7435 58.4662C32.838 57.7216 28.962 57.6577 27.7295 57.6744C28.7935 57.4416 29.9734 57.4283 31.0041 57.5092C32.72 57.6434 32.5549 57.64 34.0134 58.1835C32.7231 56.7397 30.4833 56.2809 28.6362 56.3334L27.8641 56.3122C27.838 56.2884 27.8115 56.3028 27.7858 56.296C29.0769 55.7222 30.8166 56.1233 31.7501 56.3746C32.932 56.6921 34.107 57.5424 34.993 58.8052C36.2092 60.5188 37.7853 62.5359 39.2154 63.9967C40.1009 64.9223 40.9858 65.8472 41.8713 66.7724C41.9404 66.8374 42.0092 66.902 42.0784 66.967C42.9042 67.774 43.8971 69.1308 44.6458 70.0443C44.8669 70.2288 45.4966 71.03 45.8326 71.3667C46.0582 71.5852 46.3886 71.9495 46.6297 72.1245C47.3856 73.4326 48.4801 74.5574 49.4632 75.8183C50.5094 77.16 51.4297 78.6555 51.6825 80.6878C52.1471 84.4227 52.8799 88.3266 52.9226 92.1515C52.8058 92.3915 52.9752 94.5023 52.9434 94.8773C53.3055 96.9764 53.1747 100.089 51.147 103.263C49.1091 104.334 48.2538 102.999 47.5807 102.049C47.1725 101.472 46.8667 100.757 46.0587 100.903C44.7196 101.146 44.534 100.552 43.3544 99.4732C43.0207 99.1682 42.2886 99.1535 41.6438 98.7997C41.2809 98.5998 40.7159 98.2724 40.7234 97.7887C40.7635 95.2756 39.2317 97.1465 38.4123 95.6521C37.4527 94.2866 37.5762 93.1142 36.9779 91.6881C36.0716 90.6907 34.9317 90.4983 34.6524 89.7957C34.2891 88.8841 34.2397 87.7892 35.3868 84.532C35.5629 83.6294 34.6766 81.9683 33.8924 81.1141C32.2169 79.2867 32.1968 78.9496 31.1643 77.8052L31.1644 77.8051Z" fill="#102B30"/>
<path fill-rule="evenodd" clip-rule="evenodd" d="M43.9022 94.2951C43.8901 93.6333 44.3599 93.006 44.5164 92.3041C44.9094 90.242 44.4684 87.732 44.4321 85.8362L45.4276 88.2347C46.1805 90.8523 45.8056 93.2965 45.7066 93.6541C45.5792 94.5672 44.6283 94.8163 43.9022 94.2951Z" fill="#77A5A1"/>
<path fill-rule="evenodd" clip-rule="evenodd" d="M37.7299 83.8101C38.008 84.3903 38.2208 85.5623 38.3686 86.237C38.516 86.9105 38.9579 88.3546 38.2337 88.7605C37.7567 89.0281 37.3719 88.553 37.3587 88.0885C37.3462 87.6459 37.491 87.0174 37.5665 86.5692C37.7581 85.4277 37.6005 84.2931 37.6335 84.0577C37.7007 83.5781 37.6425 83.9133 37.7299 83.8101Z" fill="#77A5A1"/>
<path fill-rule="evenodd" clip-rule="evenodd" d="M47.2361 97.1551C48.2343 98.1514 48.6319 97.4816 48.9445 97.0334C50.1517 95.3685 49.1943 87.3706 47.0868 85.3773C47.0332 85.2749 46.9428 85.3063 46.8415 85.1218L46.8733 85.4333C46.8865 85.5515 46.8748 85.522 46.9254 85.6555C46.9658 85.7613 46.9677 85.7348 47.0195 85.8267C48.751 88.9134 46.8015 96.0307 47.2361 97.1551Z" fill="#77A5A1"/>
<path fill-rule="evenodd" clip-rule="evenodd" d="M40.0792 91.5058C40.0671 90.8436 40.5369 90.2162 40.6934 89.5147C41.0551 87.8895 40.5777 85.8947 40.5138 84.3923L40.8566 85.4906C41.0452 86.2772 41.933 90.5098 41.8836 90.8648C41.7562 91.7775 40.8053 92.0266 40.0792 91.5058Z" fill="#77A5A1"/>
<path fill-rule="evenodd" clip-rule="evenodd" d="M36.9509 95.4683C36.0975 95.9472 37.4169 98.5002 38.1161 97.5523C38.4233 97.1354 38.844 95.5412 37.8077 95.3205C37.3515 95.2237 37.0737 95.3991 36.9509 95.4682V95.4683Z" fill="#3B6B74"/>
<path fill-rule="evenodd" clip-rule="evenodd" d="M41.8344 93.5886C40.9806 94.0679 42.3 96.6206 42.9992 95.6726C43.3068 95.2558 43.7271 93.6616 42.6908 93.4412C42.235 93.3441 41.9568 93.5198 41.8344 93.5886Z" fill="#3B6B74"/>
<path fill-rule="evenodd" clip-rule="evenodd" d="M45.4476 92.416C44.7023 93.0385 46.4579 95.3441 46.9666 94.2835C47.1903 93.8171 47.3087 92.1628 46.2564 92.1223C45.7938 92.1046 45.555 92.3264 45.4476 92.416Z" fill="#3B6B74"/>
<path fill-rule="evenodd" clip-rule="evenodd" d="M49.2796 90.3299C48.7592 91.1414 51.101 92.8928 51.2681 91.7212C51.3414 91.2064 50.9634 89.5669 49.9573 89.8201C49.5147 89.9312 49.3545 90.2132 49.2796 90.3299Z" fill="#3B6B74"/>
<path fill-rule="evenodd" clip-rule="evenodd" d="M52.9662 85.5096C52.4458 86.3211 54.7876 88.0725 54.9546 86.9009C55.028 86.3861 54.65 84.7466 53.6439 84.9998C53.2013 85.1109 53.0411 85.3928 52.9662 85.5096Z" fill="#3B6B74"/>
<path fill-rule="evenodd" clip-rule="evenodd" d="M59.972 52.701L52.2402 58.249C52.2511 58.3574 52.2288 58.39 52.3241 58.4863C51.5731 59.0559 50.7757 59.6168 50.039 60.1886C46.318 63.0765 43.1402 65.7604 42.0744 67.1569C39.4332 69.8165 40.058 69.6525 38.7786 74.2035C36.8155 81.1881 33.781 87.2693 35.7414 93.1514C36.0214 93.9923 35.7388 94.7543 37.4097 95.2585C39.0462 95.7518 38.4993 94.4508 41.114 93.6084C42.4572 93.2679 43.3707 92.919 44.1826 92.5229C45.0708 92.0894 47.1144 93.2852 47.7437 91.1902C47.8348 90.8285 47.6651 90.4471 48.0075 90.2109C48.9399 89.5692 48.9947 90.7155 49.7623 90.5719C50.0617 90.5167 50.4706 90.2638 51.0828 89.6319C51.5837 89.1141 52.0016 87.5399 52.6483 85.7605C53.8883 85.2783 55.3053 85.1861 55.6837 83.7415C56.0699 82.2686 55.2891 80.1706 55.6591 78.5072C56.034 76.8212 56.991 76.2369 58.931 74.8301C59.8441 74.1695 61.3797 72.7317 61.4406 72.6947C63.6437 71.342 66.9285 71.6946 70.0829 72.2767C72.2062 72.6686 74.1927 72.7045 76.7231 73.7953C76.7771 72.576 78.3366 54.3466 72.2459 40.2229C71.5217 40.7014 70.6985 41.6251 69.765 43.0772C65.2538 50.0931 64.4718 47.1515 59.9719 52.701H59.972Z" fill="#8DBAB1"/>
<path fill-rule="evenodd" clip-rule="evenodd" d="M61.6213 72.7286C62.0597 72.4028 63.1358 72.382 63.66 72.1583C64.0481 72.1795 63.9483 72.1802 64.2224 72.1939C64.3588 72.2399 64.4956 72.2838 64.6325 72.3269L65.3834 72.2139C65.3328 72.1931 65.286 72.1723 65.2436 72.1516C65.3675 72.1141 65.6076 72.1084 65.8944 72.1194C65.9367 72.1168 65.9753 72.119 66.0101 72.1251C66.602 72.1572 67.3397 72.2517 67.6697 72.3028C68.582 72.4429 69.2098 72.5012 70.0965 72.5915C70.7722 72.6599 71.7341 72.6936 72.0849 72.4332C72.9341 71.8712 76.4162 71.4962 77.2413 71.421C76.2726 71.1157 74.4335 71.3915 73.3522 71.568C73.3223 71.5775 73.2819 71.5846 73.2604 71.5892L72.673 71.6935C69.7832 72.1531 69.1407 71.6958 68.3421 71.7426C68.8724 71.4754 70.8687 70.5392 71.4821 70.5064C71.7754 70.3245 72.043 70.2573 72.3918 70.1209C72.7766 69.9708 72.8953 69.8915 73.3004 69.9723C73.8564 69.5981 74.7121 69.6102 75.3637 69.4893C74.8825 69.4311 73.4675 69.5116 72.8979 69.7471C71.2497 70.2554 69.5017 70.8647 68.073 71.203C68.299 71.0382 71.8763 69.1938 72.4527 69.0823L72.8004 68.8139L71.8124 69.0683L70.0859 69.8318C69.2393 70.3529 68.2971 70.7373 67.4973 71.0439C67.0037 71.2333 65.2024 71.675 65.0852 71.762C66.9467 71.0835 68.4989 69.9584 69.5965 69.0257L69.1728 69.2494C69.0159 69.3325 68.884 69.3522 68.7793 69.3318C68.4002 69.5578 68.0215 69.7698 67.6537 69.9697C66.6442 70.5181 64.923 71.4093 64.0768 71.6482L66.6522 68.7274L67.1129 68.0561C66.8468 68.0917 67.0872 68.0006 66.8241 68.1658L66.3895 68.6374C65.6805 69.5498 63.793 71.2604 62.6353 71.5352L62.9002 71.079C62.924 70.7566 63.5375 70.5396 63.5205 69.8982C61.5865 72.0518 56.1697 74.454 55.125 78.6701C54.8128 79.9314 54.8393 81.3933 55.0781 83.3828C55.3109 85.3195 52.5247 84.5053 52.0507 85.9053C51.215 88.3726 51.2068 90.3039 48.8619 89.644C47.4771 89.2543 47.8539 92.4836 46.1403 91.804C44.0472 90.596 44.0948 92.5523 43.2369 92.9397C42.1646 93.5241 41.7541 92.7719 40.6521 92.8857C40.0277 93.024 39.9275 93.5467 39.2325 93.8688C38.085 94.3998 37.1609 94.6088 36.5788 94.3703C35.5962 93.9685 35.4166 92.3501 35.6415 88.2955C36.0255 86.0992 36.1634 83.6648 36.504 82.3612C37.2618 79.4608 38.2841 75.8499 39.2317 73.1664C39.5768 72.1989 39.6823 71.4524 39.9094 70.9338C41.2431 67.8951 40.9866 68.1793 45.9974 63.605C48.3359 61.4703 51.2518 59.1375 52.6147 58.3866C53.0966 57.9553 54.3374 56.9689 54.8619 56.8774C55.1144 56.5958 55.3468 56.4703 55.6594 56.2488L56.4724 55.7428L58.6687 54.0684C60.0361 52.9293 63.768 54.9801 63.926 54.8999C63.9623 54.8817 63.9883 54.9131 64.0201 54.9165C63.3742 54.4259 62.2933 53.9482 61.5657 53.7119C60.4519 53.3498 60.182 53.5317 59.3332 53.4005C60.1065 52.84 62.0461 53.6723 63.0171 53.7724C62.2196 53.205 61.4168 53.2557 60.7033 53.0169C61.2124 52.8453 62.7306 53.0237 63.3369 53.0679C62.8811 52.8471 62.1105 52.7579 61.6542 52.7152C60.9512 52.6499 60.4539 52.7515 59.972 52.7005C60.6999 52.1196 61.1769 51.6411 62.0409 51.5266C64.2886 51.2284 66.495 51.9015 68.6173 53.1144C68.8645 53.2168 69.058 53.2882 69.2779 53.5324C69.2345 53.3317 69.4586 53.4946 68.9688 53.1658L65.904 51.677C64.2954 51.1154 63.2314 51.4136 62.4948 51.2957C63.6034 50.7156 67.7619 51.5916 69.0769 51.9103C67.9827 51.4 66.723 51.098 65.6054 50.934C63.7444 50.6596 63.9216 50.6963 62.2594 50.9257C63.9111 49.6871 66.3931 49.7393 68.3588 50.2462L69.1892 50.4121C69.2217 50.3928 69.247 50.4147 69.2758 50.4136C68.0025 49.4815 66.0662 49.4887 65.0201 49.5314C63.6961 49.5847 62.2799 50.2133 61.0947 51.3558C59.4717 52.9024 57.407 54.6878 55.6026 55.9109C54.4816 56.6906 53.3613 57.4696 52.2404 58.2489C52.1542 58.3022 52.068 58.3551 51.9818 58.408C50.947 59.0751 49.6298 60.2925 48.6574 61.0922C48.3863 61.237 47.5624 61.9453 47.1399 62.2257C46.8572 62.4059 46.4354 62.717 46.1447 62.8466C45.0906 64.0693 43.7081 65.0127 42.4196 66.1291C41.0484 67.3174 39.7831 68.7019 39.1307 70.8264C37.9322 74.731 36.4151 78.752 35.6512 82.8562C35.731 83.1427 35.1534 85.3722 35.1168 85.7835C34.3352 87.9533 33.8904 91.3333 35.4634 95.2417C37.4419 96.8918 38.608 95.6643 39.5067 94.8056C40.0517 94.2847 40.5128 93.5901 41.3496 93.9442C42.7367 94.5323 43.0466 93.9389 44.5112 93.0654C44.9255 92.8186 45.7116 92.9815 46.4675 92.7582C46.8931 92.6315 47.5594 92.4173 47.6418 91.8949C48.0711 89.1816 49.3584 91.5676 50.5157 90.1601C51.7985 88.925 51.887 87.6335 52.7948 86.2457C53.9517 85.3938 55.2069 85.4645 55.6377 84.777C56.1975 83.8846 56.4564 82.719 55.8411 78.9354C55.8222 77.9217 57.0823 76.3505 58.0816 75.6226C60.2175 74.0655 60.3021 73.7076 61.6215 72.7287L61.6213 72.7286Z" fill="#102B30"/>
<path fill-rule="evenodd" clip-rule="evenodd" d="M44.8977 87.3623C45.0353 86.6529 44.6502 85.8634 44.615 85.0704C44.5818 82.7562 45.5252 80.1638 45.9201 78.1331L44.4045 80.4703C43.1074 83.1028 43.0496 85.8237 43.0881 86.2326C43.053 87.2455 44.0232 87.7456 44.8977 87.3623Z" fill="#77A5A1"/>
<path fill-rule="evenodd" clip-rule="evenodd" d="M53.47 77.5872C53.0637 78.1435 52.6158 79.3526 52.3312 80.0424C52.047 80.731 51.3028 82.1767 52.0012 82.7901C52.4612 83.1941 52.9624 82.7773 53.0636 82.2806C53.16 81.8074 53.123 81.0961 53.1264 80.5954C53.1358 79.3205 53.5176 78.1387 53.527 77.8771C53.5447 77.3449 53.544 77.7199 53.4699 77.5872H53.47Z" fill="#77A5A1"/>
<path fill-rule="evenodd" clip-rule="evenodd" d="M40.7943 89.6254C39.5395 90.4539 39.2402 89.6367 38.9895 89.0785C38.0107 86.9926 40.5372 78.6224 43.1659 76.9919C43.2426 76.8948 43.3337 76.9507 43.4766 76.7769L43.3844 77.1041C43.3481 77.2285 43.3659 77.1994 43.2865 77.3306C43.2233 77.4345 43.2264 77.4054 43.1538 77.4915C40.7217 80.3901 41.4705 88.5221 40.7943 89.6253V89.6254Z" fill="#77A5A1"/>
<path fill-rule="evenodd" clip-rule="evenodd" d="M49.5114 85.2937C49.6489 84.5843 49.2638 83.7948 49.2283 83.0019C49.1466 81.1654 50.0318 79.1362 50.3825 77.5352L49.8095 78.6331C49.4603 79.4332 47.7152 83.7702 47.7017 84.1641C47.6665 85.1774 48.6367 85.6771 49.5113 85.2938L49.5114 85.2937Z" fill="#77A5A1"/>
</g>
</svg>
