<svg width="100" height="101" viewBox="0 0 100 101" fill="none" xmlns="http://www.w3.org/2000/svg">
<g id="Frame" clip-path="url(#clip0_62_4232)">
<g id="Mask group">
<mask id="mask0_62_4232" style="mask-type:alpha" maskUnits="userSpaceOnUse" x="0" y="0" width="100" height="101">
<g id="Group">
<path id="Vector" d="M50 100.66C77.6142 100.66 100 78.2741 100 50.6599C100 23.0457 77.6142 0.659912 50 0.659912C22.3858 0.659912 0 23.0457 0 50.6599C0 78.2741 22.3858 100.66 50 100.66Z" fill="white"/>
</g>
</mask>
<g mask="url(#mask0_62_4232)">
<g id="Group_2">
<path id="Vector_2" d="M50 100.66C77.6142 100.66 100 78.2741 100 50.6599C100 23.0457 77.6142 0.659912 50 0.659912C22.3858 0.659912 0 23.0457 0 50.6599C0 78.2741 22.3858 100.66 50 100.66Z" fill="#EDEDED"/>
<path id="Vector_3" d="M29.9671 28.9403C26.1653 25.2611 21.4223 26.8803 20.8381 29.7816C20.4352 31.7927 23.7765 35.7139 25.6213 36.0856C27.4661 36.4573 31.1673 30.1014 29.9671 28.9403Z" fill="#996D35"/>
<path id="Vector_4" d="M77.2472 159.67C77.9926 159.627 78.6776 159.56 79.2647 159.477C80.3267 159.33 81.5038 159.027 82.042 158.1C82.278 157.693 82.3586 157.215 82.3701 156.746C82.4478 153.954 78.6402 153.153 76.9709 151.421C75.9204 150.329 76.2111 148.494 76.1161 147.099C75.9348 144.48 75.6701 141.85 76.0356 139.234C76.8472 133.417 77.9725 127.655 78.6114 121.814C79.8345 110.615 79.8345 104.251 77.5005 89.1477C75.1664 74.0447 66.7971 57.7979 62.6931 49.2235C58.5862 40.6492 53.8777 30.7755 49.5895 27.5284C43.7413 23.103 35.044 25.4453 29.8463 27.5284C26.5682 28.8422 23.6298 32.5243 23.3046 39.0703C23.247 39.6293 23.2153 40.2026 23.2153 40.7846C23.2153 45.1006 24.8011 50.739 27.5352 53.4761C29.7772 55.7205 18.5069 125.667 37.7464 132.489C44.2997 134.895 50.7781 137.88 56.088 142.507C60.1029 146.005 62.3448 150.6 64.3652 155.429C65.9827 159.304 72.746 159.932 77.2472 159.67Z" fill="#B37F3E"/>
<path id="Vector_5" d="M77.6673 90.937C77.5206 90.9543 77.3824 90.9716 77.2817 90.9946C76.0499 91.2827 74.7951 91.4614 73.5345 91.5853C72.6423 91.6717 71.4393 91.5449 70.6162 91.8878C70.9731 92.0434 70.9846 92.9077 71.376 92.9394C75.7851 93.2909 77.676 91.0522 77.6673 90.937Z" fill="#996D35"/>
<path id="Vector_6" d="M49.555 22.8496C48.9391 22.0111 47.4972 21.7317 45.6092 22.8755C43.7212 24.0193 42.5643 25.8344 41.9714 26.2407C41.3785 26.6469 42.5355 27.0301 43.5975 27.2088C44.6595 27.3874 46.4841 28.2287 47.3792 28.9346C48.2743 29.6405 48.5966 30.0928 49.3765 28.6839C50.1565 27.275 51.2674 25.1833 49.555 22.8496Z" fill="#A67637"/>
<path id="Vector_7" d="M67.9886 90.9197C73.9202 92.6166 80.3181 91.4844 83.6652 85.7999C88.0714 78.3118 79.3136 64.7156 74.3721 59.7686L67.9886 90.9197Z" fill="#996D35"/>
<path id="Vector_8" d="M39.0617 44.4524C42.3109 52.292 38.2155 55.2913 34.3705 55.2913C30.5255 55.2913 28.7469 54.5969 27.3884 52.8423L39.0617 44.4524Z" fill="#996D35"/>
<path id="Vector_9" d="M31.6882 54.9282C31.1759 55.4929 30.6665 56.0576 30.1542 56.6223C29.3973 57.4579 28.813 58.4461 28.0331 59.2817C28.1683 58.4605 28.3986 57.6452 28.7324 56.8845C29.072 56.1095 29.639 55.3172 29.4059 54.3894C29.8894 54.7467 30.865 54.1186 30.983 54.0495C31.314 53.8536 31.6277 53.7786 32.0105 53.9025C32.1832 53.9573 32.6724 54.159 32.376 54.3894L31.6882 54.9282Z" fill="#805A30"/>
<path id="Vector_10" d="M73.2036 95.8088C74.0209 101.45 74.5044 114.712 72.0322 127.34C69.5629 139.969 69.1916 152.072 69.8363 153.959C70.481 155.847 65.3696 153.118 65.3696 153.118C65.3696 153.118 69.1715 126.45 68.5153 120.676C67.8591 114.902 73.2036 95.8088 73.2036 95.8088Z" fill="#996D35"/>
<path id="Vector_11" d="M39.5251 47.103C39.3409 45.3772 38.9754 43.5937 37.804 42.2511C36.5319 40.7904 34.8713 39.7071 32.8768 39.782C30.914 39.8569 29.0635 40.7904 27.7223 42.2021C26.1423 43.8646 21.8771 46.9762 25.4314 50.7188C28.9858 54.4615 28.1137 54.3894 32.2696 54.3894C36.4254 54.3894 40.0172 51.7503 39.5251 47.103Z" fill="#EABE8B"/>
<path id="Vector_12" d="M27.4144 48.8115C26.5337 48.6559 24.4932 48.0019 24.5623 46.8955C24.6371 45.7085 26.0358 45.1034 27.3194 44.7606C28.5944 44.386 30.0996 44.193 30.7788 45.1668C31.4148 46.0773 30.0075 47.7167 29.3426 48.29C29.1182 48.5032 28.7814 48.6703 28.413 48.7683C28.059 48.8634 27.7108 48.872 27.4144 48.8115Z" fill="#1A1A1A"/>
<path id="Vector_13" d="M29.832 51.9289C28.9283 51.9836 28.2836 51.9289 27.9584 51.9059C27.636 51.8828 27.6792 52.168 28.1598 52.3409C28.6405 52.5138 29.5873 52.5455 30.1428 52.5051C31.0465 52.4389 32.6611 51.8742 33.0179 51.5803C33.3748 51.2864 33.0841 51.2864 32.6956 51.3642C32.3071 51.442 30.9141 51.8626 29.832 51.9289Z" fill="#1A1A1A"/>
<path id="Vector_14" opacity="0.4" d="M25.3221 46.3855C25.607 46.1521 25.9034 45.9821 26.2171 45.8237C26.5308 45.671 26.8561 45.5442 27.1899 45.4434C27.8576 45.2474 28.5598 45.1437 29.2563 45.1898C29.3858 45.1985 29.4837 45.3108 29.475 45.4405C29.4664 45.5528 29.3801 45.645 29.2736 45.6595H29.2678C28.6232 45.7488 27.99 45.8583 27.3741 46.0542C27.0661 46.1435 26.7611 46.253 26.4646 46.374C26.1682 46.4921 25.866 46.6304 25.5926 46.7687L25.5782 46.7773C25.4631 46.835 25.3221 46.7889 25.2616 46.6736C25.2098 46.5728 25.2386 46.4518 25.3221 46.3855Z" fill="#DDDDDD"/>
<path id="Vector_15" d="M51.3709 159.8C51.958 160.491 52.8445 160.874 53.7251 161.11C55.1757 161.499 56.6924 161.566 58.1947 161.629C61.8728 161.785 68.0059 162.848 71.2868 160.292C73.7101 158.408 71.8451 153.717 68.7916 153.717C69.0247 147.114 68.4433 140.447 69.7298 133.967C74.916 107.858 73.0194 98.7333 73.0194 91.6428C73.0194 90.7583 75.2671 64.508 74.6483 62.5575C74.1447 56.7808 73.2899 53.2168 74.5102 49.8717C75.7305 46.5267 78.6862 38.5142 75.6585 32.0172C72.6308 25.5202 66.0661 24.2928 61.1619 23.8578C56.2578 23.4227 52.6919 24.0076 48.3433 28.8018C43.7499 33.8698 41.6173 41.9111 39.9596 44.798C39.8531 44.9853 39.738 45.1726 39.62 45.3627C33.982 53.8276 16.0865 69.6451 14.7683 78.0063C13.361 86.9263 20.3833 88.8164 20.4064 88.8221C20.3373 88.802 17.2319 114.018 17.1513 115.752C16.5441 128.988 18.8753 141.939 21.241 154.884C21.4885 156.238 21.8108 157.719 22.9016 158.558C24.968 160.145 29.4261 160.494 31.8637 160.508C35.0957 160.528 39.7754 160.007 42.8347 158.88C45.6696 157.837 46.1157 155.089 43.3125 153.328C40.1006 151.315 40.8691 148.114 41.9166 145.019C42.3224 143.818 43.5773 138.251 44.6018 137.828C46.5359 137.03 47.9518 141.841 48.2598 143.037C49.4081 147.465 50.1535 151.948 50.4356 156.512C50.5046 157.621 50.5996 158.806 51.2788 159.687C51.3105 159.728 51.3393 159.762 51.3709 159.8Z" fill="#996D35"/>
<g id="Mask group_2">
<mask id="mask1_62_4232" style="mask-type:alpha" maskUnits="userSpaceOnUse" x="14" y="23" width="63" height="139">
<g id="Group_3">
<path id="Vector_16" d="M51.3709 159.8C51.958 160.491 52.8445 160.874 53.7251 161.11C55.1757 161.499 56.6924 161.566 58.1947 161.629C61.8728 161.785 68.0059 162.848 71.2868 160.292C73.7101 158.408 71.8451 153.717 68.7916 153.717C69.0247 147.114 68.4433 140.447 69.7298 133.967C74.916 107.858 73.0194 98.7333 73.0194 91.6428C73.0194 90.7583 75.2671 64.508 74.6483 62.5575C74.1447 56.7808 73.2899 53.2168 74.5102 49.8717C75.7305 46.5267 78.6862 38.5142 75.6585 32.0172C72.6308 25.5202 66.0661 24.2928 61.1619 23.8578C56.2578 23.4227 52.6919 24.0076 48.3433 28.8018C43.7499 33.8698 41.6173 41.9111 39.9596 44.798C39.8531 44.9853 39.738 45.1726 39.62 45.3627C33.982 53.8276 16.0865 69.6451 14.7683 78.0063C13.361 86.9263 20.3833 88.8164 20.4064 88.8221C20.3373 88.802 17.2319 114.018 17.1513 115.752C16.5441 128.988 18.8753 141.939 21.241 154.884C21.4885 156.238 21.8108 157.719 22.9016 158.558C24.968 160.145 29.4261 160.494 31.8637 160.508C35.0957 160.528 39.7754 160.007 42.8347 158.88C45.6696 157.837 46.1157 155.089 43.3125 153.328C40.1006 151.315 40.8691 148.114 41.9166 145.019C42.3224 143.818 43.5773 138.251 44.6018 137.828C46.5359 137.03 47.9518 141.841 48.2598 143.037C49.4081 147.465 50.1535 151.948 50.4356 156.512C50.5046 157.621 50.5996 158.806 51.2788 159.687C51.3105 159.728 51.3393 159.762 51.3709 159.8Z" fill="#996D35"/>
</g>
</mask>
<g mask="url(#mask1_62_4232)">
<g id="Group_4">
<path id="Vector_17" d="M35.5216 67.7205C35.3029 67.5303 35.0669 67.3545 34.8338 67.1817C33.3257 66.058 31.7457 65.0035 30.4419 63.635C29.8001 62.9608 29.072 62.2924 28.6748 61.4338C28.2633 60.5435 28.3582 59.368 28.6086 58.4431C28.7986 57.7459 28.6518 57.1725 28.5856 56.4551C28.5597 56.1814 28.3151 51.4736 28.4676 51.3987C28.1021 51.5831 27.7395 51.7876 27.3797 52.0009C27.515 53.1389 27.6733 58.3423 27.5409 58.8868C27.2358 59.8866 27.2186 60.8402 27.6675 61.6441C29.1152 64.2314 31.9845 66.4527 34.4453 67.902C36.4512 69.0832 36.7649 73.0448 36.4196 75.0588C36.008 77.4559 33.8092 79.6686 30.8132 80.5099C34.3791 79.9683 36.5462 77.7238 37.0096 75.0357C37.4182 72.6645 37.5996 69.8381 35.8037 67.9942C35.7145 67.8933 35.6195 67.804 35.5216 67.7205Z" fill="#805A30"/>
<path id="Vector_18" d="M18.9098 88.1653C19.4825 88.7415 20.8467 88.8251 21.6583 88.8337C21.9979 88.8366 22.3375 88.8337 22.6771 88.8222C22.9476 88.8135 23.2412 88.7069 23.4973 88.8106C23.3534 89.0988 22.3836 89.1737 22.0526 89.2515C21.1431 89.4676 20.2337 90.1072 20.0725 91.081C20.1876 90.3866 20.2768 90.2772 20.3488 89.577C20.3747 89.3264 20.3862 89.0411 20.2107 88.8596C20.1214 88.7674 19.9977 88.7213 19.8797 88.6666C19.612 88.5427 19.1084 88.3871 18.9098 88.1653Z" fill="#805A30"/>
<path id="Vector_19" d="M73.0193 91.6426C70.0492 91.294 68.734 91.0376 67.0733 90.5132C65.4127 89.9888 69.4333 91.7377 71.0076 92.5242C72.5819 93.3108 73.4338 100.739 73.3503 98.7331C73.2668 96.7279 73.0711 93.8381 73.051 93.1379C73.028 92.4349 73.0193 91.6426 73.0193 91.6426Z" fill="#805A30"/>
</g>
</g>
</g>
<path id="Vector_20" d="M50.9478 27.4162C49.9348 27.9838 49.5031 26.304 49.2786 24.1749C49.0685 22.1552 49.7247 19.8647 51.6616 19.493C54.0532 19.0349 57.0953 21.9477 57.8608 23.1088C58.2638 23.7168 57.9385 24.2959 56.8967 24.6157C55.0317 25.1862 52.2401 26.693 50.9478 27.4162Z" fill="#805A30"/>
<path id="Vector_21" d="M71.7071 27.5371C71.048 27.8425 72.3114 30.0178 73.1374 31.3662C73.9634 32.7174 74.7894 34.7544 75.3938 35.3047C75.9982 35.855 77.348 35.0627 78.1941 34.2214C79.1611 33.2562 80.1972 31.1069 79.99 29.2716C79.8202 27.7647 77.984 27.0963 76.4299 26.9465C74.8585 26.7967 72.7806 27.0416 71.7071 27.5371Z" fill="#805A30"/>
<path id="Vector_22" fill-rule="evenodd" clip-rule="evenodd" d="M25.8342 40.3523C25.7105 40.6375 25.037 40.3638 25.3392 39.7616C25.6529 39.1422 26.4933 38.5429 27.2819 38.6437C28.0302 38.7388 28.4072 39.3295 28.6979 39.9431C28.9799 40.5367 28.4043 40.6 28.2374 40.2341C27.987 39.681 27.4574 39.4649 27.0919 39.4678C26.7235 39.4678 26.1451 39.6291 25.8342 40.3523Z" fill="#996D35"/>
<path id="Vector_23" d="M27.02 41.7958C27.6971 41.7958 28.246 41.2463 28.246 40.5684C28.246 39.8906 27.6971 39.3411 27.02 39.3411C26.3429 39.3411 25.7939 39.8906 25.7939 40.5684C25.7939 41.2463 26.3429 41.7958 27.02 41.7958Z" fill="#1A1A1A"/>
<path id="Vector_24" d="M27.5265 41.0209C27.7204 41.0209 27.8777 40.8635 27.8777 40.6694C27.8777 40.4752 27.7204 40.3179 27.5265 40.3179C27.3326 40.3179 27.1754 40.4752 27.1754 40.6694C27.1754 40.8635 27.3326 41.0209 27.5265 41.0209Z" fill="#CBCBCA"/>
<path id="Vector_25" fill-rule="evenodd" clip-rule="evenodd" d="M38.9004 38.5487C39.0443 38.857 39.7351 38.687 39.4645 37.9955C39.1854 37.2868 38.345 36.7336 37.5161 36.7076C36.6872 36.6817 36.1404 37.1225 35.7605 37.8255C35.418 38.4623 36.0512 38.7619 36.2527 38.3701C36.5577 37.7679 37.1391 37.5518 37.5391 37.5777C38.1982 37.621 38.6098 37.9292 38.9004 38.5487Z" fill="#996D35"/>
<path id="Vector_26" d="M37.5879 40.1766C38.3382 40.1766 38.9463 39.5677 38.9463 38.8167C38.9463 38.0656 38.3382 37.4568 37.5879 37.4568C36.8377 37.4568 36.2295 38.0656 36.2295 38.8167C36.2295 39.5677 36.8377 40.1766 37.5879 40.1766Z" fill="#1A1A1A"/>
<path id="Vector_27" d="M38.1405 39.4794C38.3345 39.4794 38.4917 39.322 38.4917 39.1279C38.4917 38.9337 38.3345 38.7764 38.1405 38.7764C37.9466 38.7764 37.7894 38.9337 37.7894 39.1279C37.7894 39.322 37.9466 39.4794 38.1405 39.4794Z" fill="#CBCBCA"/>
<path id="Vector_28" d="M52.3437 86.9237C52.2603 86.9583 52.2257 86.9669 52.171 86.9814C52.1192 86.9958 52.0761 87.0073 52.0271 87.0188C51.9322 87.0419 51.8401 87.062 51.7508 87.0764C51.5695 87.111 51.3911 87.1312 51.2127 87.1485C50.8587 87.183 50.5104 87.1859 50.1679 87.1773C49.8254 87.1657 49.4887 87.1341 49.1549 87.0851C48.821 87.039 48.4958 86.9727 48.1735 86.9007C48.0555 86.8748 47.9835 86.7595 48.0094 86.6414C48.0296 86.5463 48.1102 86.48 48.2023 86.4714H48.208C48.5246 86.4455 48.8412 86.4138 49.1491 86.3619C49.4571 86.3129 49.7621 86.2467 50.0586 86.1689C50.3521 86.0882 50.6399 85.9931 50.9105 85.8779C51.0457 85.8202 51.1781 85.7597 51.3019 85.6935C51.5666 85.5321 52.761 86.7393 52.3437 86.9237Z" fill="#1A1A1A"/>
<path id="Vector_29" d="M49.155 79.9398C48.9708 79.9513 48.7923 79.9513 48.6139 79.9484C48.2599 79.9398 47.9145 79.9023 47.5749 79.8505C47.2353 79.7957 46.9044 79.7237 46.582 79.6372C46.2568 79.5508 45.9402 79.4471 45.6294 79.3347C45.5172 79.2944 45.4567 79.1705 45.497 79.0581C45.5287 78.9659 45.6179 78.9112 45.71 78.9141H45.7157C46.0352 78.9285 46.3518 78.9342 46.6626 78.9198C46.9763 78.9083 47.2843 78.8795 47.5864 78.8363C47.8886 78.7902 48.1851 78.7297 48.4671 78.6519C48.6081 78.6116 48.7463 78.5683 48.8758 78.5165C48.942 78.4934 49.0053 78.4646 49.0658 78.4387C49.0945 78.4243 49.1262 78.4128 49.1492 78.3983C49.1722 78.3868 49.2097 78.3667 49.201 78.3638C49.6183 78.2053 49.6155 79.9743 49.155 79.9398Z" fill="#1A1A1A"/>
<path id="Vector_30" d="M50.7522 85.5262C50.5133 85.581 50.332 85.604 50.1277 85.63C49.9291 85.653 49.7305 85.6674 49.5348 85.6789C49.1405 85.6991 48.7462 85.6905 48.3577 85.6559C47.9692 85.6242 47.5835 85.5637 47.2065 85.4715C46.8295 85.3879 46.464 85.2525 46.1128 85.1114C46.0006 85.0653 45.9488 84.9385 45.992 84.8261C46.0294 84.7339 46.1243 84.6792 46.2193 84.6907L46.2337 84.6936C46.5877 84.7368 46.9331 84.7685 47.2842 84.7512C47.6324 84.7426 47.9778 84.7051 48.3145 84.6417C48.6541 84.5783 48.9851 84.4977 49.3103 84.3911C49.4715 84.3363 49.6298 84.2816 49.7852 84.2182C49.9348 84.1577 50.1046 84.0828 50.2111 84.0223C50.5997 83.7975 51.4055 85.2036 51.0199 85.4283C50.9508 85.4686 50.876 85.4974 50.8011 85.5147L50.7522 85.5262Z" fill="#1A1A1A"/>
<path id="Vector_31" d="M49.9809 83.8349C49.7421 83.8896 49.5607 83.9126 49.3564 83.9386C49.1578 83.9616 48.9592 83.9789 48.7635 83.9876C48.3692 84.0077 47.975 83.9991 47.5864 83.9674C47.1979 83.9386 46.8122 83.8752 46.4352 83.7859C46.0582 83.7023 45.6927 83.5698 45.3416 83.4257C45.2293 83.3796 45.1746 83.2529 45.2207 83.1405C45.2581 83.0483 45.3531 82.9936 45.4481 83.0051L45.4624 83.008C45.8164 83.0512 46.1618 83.0829 46.5129 83.0627C46.8612 83.0512 47.2036 83.0137 47.5432 82.9503C47.8829 82.887 48.2138 82.8034 48.539 82.6968C48.7002 82.6421 48.8585 82.5873 49.0139 82.5239C49.1636 82.4634 49.3334 82.3885 49.4399 82.328C49.8255 82.1033 50.6371 83.5064 50.2515 83.7311C50.1824 83.7715 50.1076 83.8003 50.0356 83.8176L49.9809 83.8349Z" fill="#1A1A1A"/>
<path id="Vector_32" d="M49.5434 81.9305C49.3016 81.9766 49.1203 81.991 48.916 82.0083C48.7174 82.0227 48.5188 82.0314 48.3202 82.0314C47.9259 82.0342 47.5317 82.0083 47.146 81.9593C46.7575 81.9132 46.3747 81.8354 46.0034 81.7288C45.6293 81.6309 45.2724 81.4811 44.9271 81.3226C44.8177 81.2736 44.7688 81.144 44.8177 81.0316C44.8609 80.9394 44.9558 80.8904 45.0508 80.9077L45.0652 80.9106C45.4163 80.9682 45.7617 81.0143 46.1128 81.0114C46.461 81.0172 46.8064 80.9941 47.1489 80.9452C47.4885 80.8962 47.8252 80.8299 48.1533 80.7377C48.3174 80.6916 48.4785 80.6398 48.6368 80.585C48.7893 80.5303 48.962 80.464 49.0714 80.4064C49.4686 80.1989 50.2168 81.6366 49.8197 81.8441C49.7477 81.8815 49.6729 81.9075 49.5981 81.9219L49.5434 81.9305Z" fill="#1A1A1A"/>
<path id="Vector_33" d="M36.247 80.0779H36.2413C35.9276 80.0145 35.6196 79.9483 35.3174 79.8618C35.0152 79.7754 34.7217 79.6774 34.4367 79.5622C34.1547 79.4469 33.8784 79.3202 33.6223 79.1761C33.4956 79.1041 33.369 79.0292 33.2568 78.9485C33.015 78.7555 31.6911 79.8157 32.0854 80.0462C32.1631 80.0894 32.1976 80.101 32.2494 80.124C32.2984 80.1442 32.3415 80.1615 32.3876 80.1788C32.4768 80.2104 32.566 80.2421 32.6552 80.2681C32.8308 80.3228 33.0064 80.366 33.179 80.4035C33.5273 80.4784 33.8698 80.5216 34.2123 80.5533C34.5547 80.5792 34.8943 80.5879 35.2282 80.5792C35.5649 80.5706 35.8959 80.5447 36.224 80.5101C36.342 80.4986 36.4283 80.392 36.4168 80.2709C36.4111 80.173 36.3391 80.0981 36.247 80.0779ZM36.0599 73.4772C36.2413 73.5089 36.4197 73.5319 36.5981 73.5463C36.9521 73.578 37.3004 73.5809 37.6429 73.5694C37.9853 73.555 38.3221 73.5204 38.6559 73.4743C38.9869 73.4253 39.315 73.3591 39.6373 73.2841C39.7553 73.2582 39.8273 73.1401 39.8014 73.0248C39.7783 72.9298 39.6978 72.8635 39.6057 72.8577H39.5999C39.2804 72.8347 38.9667 72.803 38.6588 72.754C38.348 72.705 38.0458 72.6416 37.7493 72.5639C37.4529 72.4832 37.168 72.391 36.8946 72.2786C36.7593 72.221 36.6269 72.1634 36.5032 72.0971C36.4398 72.0654 36.3823 72.0308 36.3247 71.9963C36.2988 71.979 36.2672 71.9617 36.2441 71.9444C36.224 71.93 36.1866 71.9069 36.1981 71.9041C35.8009 71.7024 35.6023 73.457 36.0599 73.4772ZM38.4257 78.5394H38.4113C38.0573 78.5394 37.7062 78.5336 37.3608 78.476C37.0154 78.427 36.6787 78.3492 36.3506 78.2455C36.0225 78.1447 35.7002 78.0236 35.3922 77.8825C35.2368 77.8104 35.0872 77.7355 34.9404 77.6549C34.7994 77.5771 34.6382 77.4849 34.5403 77.41C34.1806 77.142 33.2165 78.4443 33.5762 78.7122C33.6395 78.7612 33.7115 78.7958 33.7834 78.8246L33.8324 78.8419C34.0626 78.9255 34.241 78.9687 34.4396 79.0176C34.6353 79.0637 34.8282 79.1012 35.0239 79.1358C35.4124 79.202 35.8038 79.2395 36.1952 79.251C36.5837 79.2654 36.9752 79.2481 37.3608 79.202C37.7465 79.1646 38.1235 79.0724 38.489 78.9687C38.6041 78.937 38.6732 78.816 38.6415 78.7007C38.6099 78.6028 38.5235 78.5394 38.4257 78.5394ZM39.3869 76.9576H39.3725C39.0185 76.9576 38.6674 76.949 38.3221 76.8914C37.9767 76.8395 37.64 76.7646 37.3119 76.6609C36.9838 76.56 36.6614 76.439 36.3535 76.295C36.1981 76.2229 36.0484 76.148 35.9017 76.0673C35.7606 75.9895 35.5995 75.8974 35.5016 75.8224C35.1419 75.5545 34.1748 76.8539 34.5346 77.1218C34.5979 77.1708 34.6699 77.2083 34.7389 77.2342L34.7879 77.2515C35.0181 77.3351 35.1965 77.3783 35.3951 77.4272C35.5908 77.4733 35.7837 77.5108 35.9794 77.5454C36.3679 77.6116 36.7593 77.6491 37.1507 77.6635C37.5392 77.6779 37.9307 77.6635 38.3163 77.6174C38.702 77.58 39.079 77.4878 39.4445 77.3869C39.5596 77.3552 39.6287 77.2342 39.597 77.119C39.5711 77.021 39.4848 76.9576 39.3869 76.9576ZM40.2417 75.0676C40.21 74.9725 40.1208 74.912 40.023 74.9149H40.0086C39.6546 74.9322 39.3035 74.9379 38.9581 74.8947C38.6127 74.8601 38.2703 74.7967 37.9393 74.7074C37.6054 74.621 37.2802 74.5144 36.9665 74.3847C36.8082 74.3185 36.6557 74.2522 36.506 74.1773C36.3621 74.1053 36.1981 74.0188 36.0945 73.9497C35.7232 73.699 34.8138 75.0388 35.185 75.2894C35.2512 75.3355 35.3232 75.3701 35.3951 75.3932L35.4469 75.4076C35.68 75.4796 35.8585 75.517 36.0628 75.5574C36.2585 75.5948 36.4571 75.6265 36.6528 75.6496C37.0442 75.6986 37.4385 75.7187 37.827 75.7158C38.2185 75.7158 38.607 75.6813 38.9869 75.6179C39.3697 75.5631 39.7438 75.4565 40.1036 75.3384C40.2158 75.3067 40.2791 75.1828 40.2417 75.0676Z" fill="#1A1A1A"/>
<path id="Vector_34" d="M80.2088 68.7981C80.8966 72.7021 81.7255 77.8104 77.0516 82.4894C72.3777 87.1684 65.1481 87.8368 62.5349 87.8368C59.9217 87.8368 80.2088 68.7981 80.2088 68.7981Z" fill="#805A30"/>
<path id="Vector_35" d="M73.8943 53.3235C73.8943 53.3235 72.9129 58.6277 70.6364 63.1021C65.3667 73.4599 57.3313 74.9552 64.5609 70.1581C71.7905 65.361 73.1748 62.9437 73.9259 60.8721C74.6771 58.7977 73.8943 53.3235 73.8943 53.3235Z" fill="#805A30"/>
<path id="Vector_36" d="M28.1309 58.8582C27.8259 59.8579 27.8086 60.8116 28.2576 61.6154C29.7052 64.2027 32.6638 66.2829 35.0353 67.8733C37.9795 69.844 37.355 73.0162 37.0096 75.0301C36.1491 80.0318 27.5237 84.2585 20.0552 76.7819C15.9051 72.6272 15.1799 67.3345 16.9527 61.5636C18.1903 57.5386 22.9044 54.0553 27.6848 53.3235C27.682 53.3235 28.2892 58.207 28.1309 58.8582Z" fill="#B37F3E"/>
<path id="Vector_37" d="M52.5624 87.8426C56.8622 90.2051 64.4371 88.3468 67.5886 87.3902C73.6698 85.5434 79.1006 80.899 80.6749 74.5633C82.7154 66.3405 78.3725 58.0284 73.9144 53.5654C73.9144 53.5654 73.3906 58.6392 71.8164 62.6814C70.2421 66.7208 64.5407 71.0915 58.1832 73.0219C54.6749 74.0879 49.7161 75.8714 48.3893 79.7379C46.9992 83.7888 49.5751 86.2032 52.5624 87.8426Z" fill="#B37F3E"/>
</g>
</g>
</g>
</g>
<defs>
<clipPath id="clip0_62_4232">
<rect width="100" height="100" fill="white" transform="translate(0 0.659912)"/>
</clipPath>
</defs>
</svg>
