<svg width="180" height="181" viewBox="0 0 180 181" fill="none" xmlns="http://www.w3.org/2000/svg">
<g id="Frame" clip-path="url(#clip0_1_10759)">
<path id="Vector" d="M90 180.19C139.706 180.19 180 139.896 180 90.1899C180 40.4843 139.706 0.189941 90 0.189941C40.2944 0.189941 0 40.4843 0 90.1899C0 139.896 40.2944 180.19 90 180.19Z" fill="#F6F6F6"/>
<g id="Mask group">
<mask id="mask0_1_10759" style="mask-type:alpha" maskUnits="userSpaceOnUse" x="32" y="59" width="116" height="62">
<g id="Group">
<path id="Vector_2" fill-rule="evenodd" clip-rule="evenodd" d="M32 59.4189H147.111V120.962H32V59.4189Z" fill="white"/>
</g>
</mask>
<g mask="url(#mask0_1_10759)">
<g id="Group_2">
<path id="Vector_3" fill-rule="evenodd" clip-rule="evenodd" d="M89.5559 59.4189C67.7527 59.4189 48.147 68.7828 34.5181 83.701C31.1606 87.3775 31.1606 93.003 34.5181 96.6782C48.147 111.596 67.7527 120.962 89.5559 120.962C111.358 120.962 130.963 111.596 144.592 96.6782C147.951 93.003 147.951 87.3775 144.592 83.701C130.963 68.7828 111.358 59.4189 89.5559 59.4189Z" fill="white"/>
<g id="Mask group_2">
<mask id="mask1_1_10759" style="mask-type:luminance" maskUnits="userSpaceOnUse" x="32" y="59" width="116" height="62">
<g id="Group_3">
<path id="Vector_4" fill-rule="evenodd" clip-rule="evenodd" d="M89.5559 59.4189C67.7527 59.4189 48.147 68.7828 34.5181 83.701C31.1606 87.3775 31.1606 93.003 34.5181 96.6782C48.147 111.596 67.7527 120.962 89.5559 120.962C111.358 120.962 130.963 111.596 144.592 96.6782C147.951 93.003 147.951 87.3775 144.592 83.701C130.963 68.7828 111.358 59.4189 89.5559 59.4189Z" fill="white"/>
</g>
</mask>
<g mask="url(#mask1_1_10759)">
<path id="Vector_5" d="M89.5559 57.4189C67.1672 57.4189 47.0331 67.0369 33.0415 82.352L35.9947 85.05C49.261 70.5287 68.3383 61.4189 89.5559 61.4189V57.4189ZM33.0415 82.352C28.9866 86.7922 28.986 93.5879 33.0415 98.0271L35.9947 95.3292C33.3352 92.4181 33.3347 87.9628 35.9947 85.05L33.0415 82.352ZM33.0415 98.0271C47.033 113.342 67.1671 122.962 89.5559 122.962V118.962C68.3383 118.962 49.2611 109.851 35.9947 95.3292L33.0415 98.0271ZM89.5559 122.962C111.943 122.962 132.077 113.342 146.069 98.0271L143.116 95.3289C129.849 109.851 110.772 118.962 89.5559 118.962V122.962ZM146.069 98.0271C150.126 93.5878 150.126 86.7923 146.069 82.352L143.116 85.05C145.777 87.9627 145.776 92.4179 143.116 95.3289L146.069 98.0271ZM146.069 82.352C132.077 67.0369 111.943 57.4189 89.5559 57.4189V61.4189C110.772 61.4189 129.849 70.5287 143.116 85.05L146.069 82.352Z" fill="#E6E6E6"/>
</g>
</g>
</g>
</g>
</g>
<path id="Vector_6" fill-rule="evenodd" clip-rule="evenodd" d="M113.818 90.1896C113.818 103.586 102.956 114.444 89.5562 114.444C76.1553 114.444 65.292 103.586 65.292 90.1896C65.292 76.7947 76.1553 65.9351 89.5562 65.9351C102.956 65.9351 113.818 76.7947 113.818 90.1896Z" fill="#4B717A"/>
<path id="Vector_7" fill-rule="evenodd" clip-rule="evenodd" d="M101.776 90.1896C101.776 96.9364 96.3058 102.406 89.5553 102.406C82.8061 102.406 77.3354 96.9364 77.3354 90.1896C77.3354 83.4427 82.8061 77.9727 89.5553 77.9727C96.3058 77.9727 101.776 83.4427 101.776 90.1896Z" fill="#1A1A1A"/>
<path id="Vector_8" fill-rule="evenodd" clip-rule="evenodd" d="M103.662 82.1741C103.662 85.5528 100.923 88.2911 97.5431 88.2911C94.1645 88.2911 91.4253 85.5528 91.4253 82.1741C91.4253 78.7967 94.1645 76.0571 97.5431 76.0571C100.923 76.0571 103.662 78.7967 103.662 82.1741Z" fill="white"/>
<g id="Mask group_3">
<mask id="mask2_1_10759" style="mask-type:alpha" maskUnits="userSpaceOnUse" x="54" y="55" width="71" height="71">
<g id="Group_4">
<path id="Vector_9" fill-rule="evenodd" clip-rule="evenodd" d="M54.5435 55.1899H124.568V125.19H54.5435V55.1899Z" fill="white"/>
</g>
</mask>
<g mask="url(#mask2_1_10759)">
<g id="Group_5">
<path id="Vector_10" fill-rule="evenodd" clip-rule="evenodd" d="M124.568 121.323L120.699 125.191L54.5435 59.0571L58.4098 55.1895L124.568 121.323Z" fill="#EDAF19"/>
</g>
</g>
</g>
<g id="Mask group_4">
<mask id="mask3_1_10759" style="mask-type:alpha" maskUnits="userSpaceOnUse" x="54" y="55" width="71" height="71">
<g id="Group_6">
<path id="Vector_11" fill-rule="evenodd" clip-rule="evenodd" d="M54.543 55.1899H124.569V125.19H54.543V55.1899Z" fill="white"/>
</g>
</mask>
<g mask="url(#mask3_1_10759)">
<g id="Group_7">
<path id="Vector_12" fill-rule="evenodd" clip-rule="evenodd" d="M120.7 55.1895L124.569 59.0571L58.4107 125.191L54.543 121.323L120.7 55.1895Z" fill="#EDAF19"/>
</g>
</g>
</g>
</g>
<defs>
<clipPath id="clip0_1_10759">
<rect width="180" height="180" fill="white" transform="translate(0 0.189941)"/>
</clipPath>
</defs>
</svg>
