<svg width="15" height="13" viewBox="0 0 15 13" fill="none" xmlns="http://www.w3.org/2000/svg">
<g id="Frame" clip-path="url(#clip0_1_8695)">
<path id="Vector" d="M5.21891 6.84709C5.73558 7.07442 6.13858 7.41542 6.42791 7.87009C6.71724 8.32476 6.86191 8.86209 6.86191 9.48209C6.86191 10.3708 6.58291 11.0941 6.02491 11.6521C5.46691 12.1894 4.75391 12.4581 3.88591 12.4581C3.01791 12.4581 2.29458 12.1791 1.71591 11.6211C1.15791 11.0631 0.878906 10.3501 0.878906 9.48209C0.878906 9.06876 0.930572 8.65542 1.03391 8.24209C1.13724 7.82876 1.36458 7.20876 1.71591 6.38209L3.51391 1.91809H6.58291L5.21891 6.84709ZM12.5349 6.84709C13.0515 7.07442 13.4545 7.41542 13.7439 7.87009C14.0332 8.32476 14.1779 8.86209 14.1779 9.48209C14.1779 10.3708 13.8989 11.0941 13.3409 11.6521C12.7829 12.1894 12.0699 12.4581 11.2019 12.4581C10.3339 12.4581 9.61058 12.1791 9.03191 11.6211C8.47391 11.0631 8.19491 10.3501 8.19491 9.48209C8.19491 9.06876 8.24658 8.65542 8.34991 8.24209C8.45324 7.82876 8.68058 7.20876 9.03191 6.38209L10.8299 1.91809H13.8989L12.5349 6.84709Z" fill="#6085FF"/>
</g>
<defs>
<clipPath id="clip0_1_8695">
<rect width="15" height="12" fill="white" transform="translate(0 0.920044)"/>
</clipPath>
</defs>
</svg>
