<svg width="16" height="13" viewBox="0 0 16 13" fill="none" xmlns="http://www.w3.org/2000/svg">
<g id="Frame" clip-path="url(#clip0_1_8698)">
<path id="Vector" d="M4.21696 1.67004C5.08496 1.67004 5.79796 1.94905 6.35596 2.50705C6.91396 3.04438 7.19296 3.75738 7.19296 4.64605C7.19296 5.05938 7.14129 5.47272 7.03796 5.88605C6.93463 6.29938 6.71763 6.91938 6.38696 7.74605L4.58896 12.21H1.51996L2.85296 7.31205C2.33629 7.08472 1.93329 6.74372 1.64396 6.28905C1.35463 5.83438 1.20996 5.28672 1.20996 4.64605C1.20996 3.75738 1.48896 3.04438 2.04696 2.50705C2.62563 1.94905 3.34896 1.67004 4.21696 1.67004ZM11.533 1.67004C12.401 1.67004 13.114 1.94905 13.672 2.50705C14.23 3.04438 14.509 3.75738 14.509 4.64605C14.509 5.05938 14.4573 5.47272 14.354 5.88605C14.2506 6.29938 14.0336 6.91938 13.703 7.74605L11.905 12.21H8.83596L10.169 7.31205C9.65229 7.08472 9.24929 6.74372 8.95996 6.28905C8.67063 5.83438 8.52596 5.28672 8.52596 4.64605C8.52596 3.75738 8.80496 3.04438 9.36296 2.50705C9.94163 1.94905 10.665 1.67004 11.533 1.67004Z" fill="#6085FF"/>
</g>
<defs>
<clipPath id="clip0_1_8698">
<rect width="15" height="12" fill="white" transform="translate(0.300049 0.920044)"/>
</clipPath>
</defs>
</svg>
