<svg width="137" height="137" viewBox="0 0 137 137" fill="none" xmlns="http://www.w3.org/2000/svg">
<g id="Frame" clip-path="url(#clip0_1_8493)">
<path id="Vector" d="M68.4993 136.019C106.054 136.019 136.499 105.574 136.499 68.0193C136.499 30.4643 106.054 0.0200195 68.4993 0.0200195C30.9443 0.0200195 0.5 30.4643 0.5 68.0193C0.5 105.574 30.9443 136.019 68.4993 136.019Z" fill="#6085FF"/>
<path id="Vector_2" d="M42.91 18.9593L42.9733 18.9235L42.1914 14.846L43.9782 13.8521L45.2254 20.5974L43.3106 21.6615L40.4294 18.7679L40.366 18.8037L41.3063 22.7766L39.4052 23.8351L34.3173 19.2291L36.2831 18.1347L39.3364 20.9484L39.3997 20.9127L38.4388 16.9343L40.0343 16.0464L42.91 18.9593Z" fill="white"/>
<path id="Vector_3" d="M46.7095 10.5385C46.8444 10.8827 46.8403 11.22 46.6957 11.5476C46.5526 11.8752 46.3131 12.1051 45.9772 12.2359C45.8134 12.2992 45.6468 12.3281 45.4775 12.3212C45.3081 12.3143 45.1471 12.2786 44.9957 12.2111C44.8442 12.1436 44.708 12.0487 44.5854 11.9248C44.4629 11.7995 44.3693 11.6508 44.3019 11.4788C44.2385 11.3149 44.2096 11.1484 44.2165 10.9791C44.2234 10.8097 44.2592 10.6487 44.3266 10.4972C44.3941 10.3458 44.4863 10.2095 44.6061 10.0898C44.7258 9.97004 44.8676 9.8778 45.0314 9.8131C45.1953 9.74978 45.3632 9.7195 45.538 9.725C45.7129 9.73051 45.8753 9.76492 46.0267 9.83238C46.1782 9.89983 46.3144 9.99206 46.4342 10.1118C46.5526 10.2329 46.6448 10.3747 46.7095 10.5385ZM47.3675 12.7425L49.7339 18.7953L47.775 19.5607L45.4086 13.5065L47.3675 12.7425Z" fill="white"/>
<path id="Vector_4" d="M54.3685 12.73C54.1703 12.6763 53.9817 12.6557 53.8027 12.6667C53.6238 12.6791 53.4269 12.7162 53.2122 12.7782C52.7909 12.9007 52.4895 13.1237 52.305 13.4472C52.1205 13.7707 52.1068 14.2029 52.2664 14.7439L53.1268 17.6885L51.1087 18.279L49.2889 12.0555L51.307 11.4649L51.6387 12.6006C51.6566 12.2096 51.7791 11.8421 52.0076 11.4952C52.2362 11.1497 52.5652 10.9129 52.9947 10.7876C53.1819 10.7326 53.3567 10.7092 53.5219 10.7174C53.6857 10.7257 53.822 10.7546 53.928 10.8041L54.3685 12.73Z" fill="white"/>
<path id="Vector_5" d="M59.3494 14.8376C59.9841 14.7343 60.3791 14.4425 60.5374 13.9621L62.2692 13.9593C62.1604 14.6187 61.8714 15.1625 61.4033 15.5892C60.9353 16.0159 60.3076 16.294 59.5201 16.4234C59.0108 16.5074 58.5331 16.5088 58.0871 16.4289C57.6411 16.3491 57.2433 16.1922 56.8909 15.9595C56.5385 15.7269 56.2439 15.4213 56.0071 15.0468C55.7689 14.671 55.6079 14.2291 55.5253 13.7198C55.4441 13.2201 55.4537 12.7452 55.5583 12.2937C55.6616 11.8421 55.8419 11.436 56.0979 11.0726C56.354 10.7106 56.6775 10.4077 57.0671 10.1668C57.4566 9.92594 57.8971 9.76488 58.3872 9.68366C58.9158 9.59693 59.3963 9.60657 59.8285 9.71394C60.2608 9.82132 60.6366 9.99614 60.9587 10.2398C61.2808 10.4834 61.5396 10.789 61.7378 11.1552C61.9361 11.5228 62.071 11.922 62.1412 12.3542L62.2444 12.9888L57.6177 13.7473C57.7168 14.1754 57.9302 14.4811 58.2564 14.6641C58.5827 14.8472 58.9461 14.9037 59.3494 14.8376ZM58.6143 11.213C58.189 11.2832 57.8916 11.4498 57.7209 11.7141C57.5502 11.9784 57.4704 12.2881 57.4787 12.6419L60.0584 12.2193C59.9854 11.8958 59.8271 11.6301 59.5848 11.4236C59.3453 11.2172 59.0204 11.147 58.6143 11.213Z" fill="white"/>
<path id="Vector_6" d="M66.7292 14.1672C67.0596 14.159 67.3308 14.0681 67.54 13.8974C67.7493 13.7267 67.9035 13.483 68.0026 13.1692L69.7619 13.3853C69.693 13.7184 69.5774 14.0282 69.4136 14.3118C69.2511 14.5967 69.0433 14.8445 68.7914 15.0537C68.5381 15.263 68.2435 15.4309 67.9062 15.5562C67.5689 15.6815 67.1863 15.7489 66.7581 15.7613C66.2515 15.7751 65.7821 15.7049 65.3499 15.5507C64.9163 15.3965 64.5404 15.1763 64.2211 14.8872C63.9017 14.5995 63.6484 14.2471 63.4626 13.8341C63.2767 13.4211 63.1762 12.9558 63.1625 12.4396C63.1487 11.933 63.2244 11.4663 63.3882 11.0382C63.5521 10.6101 63.7861 10.2439 64.0889 9.93836C64.3918 9.63276 64.7552 9.39185 65.1792 9.21427C65.6032 9.03669 66.0685 8.94171 66.5737 8.92794C67.0403 8.91555 67.4561 8.97199 67.8195 9.09726C68.1829 9.22253 68.4995 9.40287 68.7693 9.63688C69.0391 9.8709 69.258 10.1462 69.4273 10.4614C69.5967 10.7767 69.715 11.1181 69.7839 11.487L68.037 11.7389C67.8484 10.9061 67.3804 10.5 66.6301 10.5206C66.2116 10.5316 65.8799 10.6886 65.6348 10.9901C65.3898 11.2915 65.2755 11.7554 65.2921 12.3832C65.3086 13.0109 65.4476 13.4693 65.7092 13.757C65.9707 14.0406 66.3107 14.1782 66.7292 14.1672Z" fill="white"/>
<path id="Vector_7" d="M75.7055 9.56679L77.7965 9.79805L77.0848 16.2432L74.9938 16.012L75.0943 15.0098C74.8796 15.3581 74.5877 15.6182 74.2174 15.7876C73.8471 15.9569 73.4149 16.0147 72.9221 15.961C72.4871 15.9128 72.1305 15.8027 71.8525 15.6293C71.573 15.4572 71.3596 15.2438 71.211 14.9933C71.0623 14.7414 70.9673 14.4564 70.9246 14.1384C70.882 13.8204 70.8792 13.4873 70.9177 13.139L71.3651 9.08911L73.4562 9.32038L73.0652 12.8623C73.0143 13.3262 73.057 13.6896 73.1946 13.9498C73.3323 14.21 73.5952 14.3614 73.982 14.4041C74.3785 14.4481 74.691 14.3311 74.9167 14.0517C75.1439 13.7736 75.2856 13.373 75.3435 12.8499L75.7055 9.56679Z" fill="white"/>
<path id="Vector_8" d="M81.7259 15.8756C81.8112 15.8949 81.9035 15.9169 82.004 15.9403C82.1044 15.9637 82.238 15.9747 82.4087 15.9747L82.0714 17.4256C81.7025 17.4201 81.3886 17.394 81.1298 17.3499C80.871 17.3045 80.6783 17.2673 80.5558 17.2384C80.2984 17.1792 80.0561 17.0898 79.8317 16.9728C79.6073 16.8557 79.4201 16.7043 79.2728 16.5199C79.1241 16.3354 79.0223 16.1124 78.9686 15.8495C78.9135 15.5865 78.9287 15.2754 79.0126 14.9148L79.7532 11.7279L78.886 11.527L79.2191 10.0898L79.5743 10.1724C79.7546 10.2137 79.9267 10.2165 80.0905 10.1793C80.2543 10.1421 80.4016 10.0788 80.5338 9.98934C80.6645 9.89986 80.7788 9.78836 80.8752 9.6562C80.9715 9.52405 81.0458 9.38777 81.0982 9.25011L81.2372 8.84814L82.5119 9.14411L82.1347 10.7657L83.543 11.0933L83.2098 12.5305L81.7988 12.2029L81.2234 14.678C81.1904 14.8198 81.167 14.9547 81.1518 15.0813C81.1381 15.208 81.1463 15.3222 81.1766 15.4241C81.2083 15.526 81.2661 15.6168 81.3528 15.698C81.4409 15.7792 81.5648 15.8371 81.7259 15.8756Z" fill="white"/>
<path id="Vector_9" d="M86.6173 17.3968C86.6999 17.4243 86.7907 17.4546 86.8871 17.4876C86.9834 17.5207 87.117 17.5441 87.2863 17.5592L86.8128 18.9716C86.4466 18.9303 86.1355 18.8752 85.8822 18.8064C85.6289 18.7362 85.4417 18.6811 85.3205 18.6412C85.07 18.5572 84.8373 18.4457 84.6253 18.3081C84.4134 18.1704 84.2413 18.0025 84.1119 17.8042C83.9811 17.606 83.9013 17.3747 83.8724 17.1077C83.8421 16.8406 83.8861 16.5323 84.0045 16.1812L85.0438 13.0784L84.1986 12.7948L84.6666 11.3962L85.0122 11.5119C85.187 11.571 85.3591 11.5889 85.5256 11.5683C85.6922 11.5476 85.845 11.4981 85.9854 11.4224C86.1245 11.3453 86.2483 11.2462 86.3571 11.1237C86.4659 11.0011 86.5526 10.8731 86.6173 10.741L86.7935 10.3528L88.0352 10.7685L87.5065 12.3474L88.8776 12.8072L88.4096 14.2058L87.0385 13.7461L86.2318 16.1565C86.185 16.2955 86.1492 16.4263 86.1231 16.5515C86.0969 16.6768 86.0942 16.7911 86.1162 16.8957C86.1368 17.0003 86.1878 17.0967 86.2662 17.1848C86.342 17.2742 86.4603 17.3445 86.6173 17.3968Z" fill="white"/>
<path id="Vector_10" d="M91.1351 19.2979C91.7174 19.5691 92.2088 19.5512 92.6108 19.2442L94.0425 20.2174C93.5813 20.7006 93.0361 20.987 92.4097 21.0751C91.782 21.1645 91.1075 21.0393 90.3834 20.702C89.9153 20.4845 89.5203 20.2161 89.1968 19.8995C88.8733 19.5828 88.6324 19.2277 88.4741 18.8367C88.3144 18.4458 88.2429 18.0287 88.258 17.584C88.2732 17.1394 88.3901 16.6837 88.6076 16.2157C88.8209 15.7573 89.0991 15.3705 89.4391 15.0566C89.7792 14.7428 90.1563 14.5074 90.5735 14.3532C90.9892 14.1976 91.4269 14.1302 91.884 14.1508C92.3424 14.1715 92.7952 14.2857 93.2453 14.4964C93.7312 14.7221 94.1222 15.0016 94.4182 15.3333C94.7155 15.6651 94.9276 16.0216 95.0556 16.4043C95.1837 16.787 95.2263 17.1848 95.1837 17.6006C95.141 18.0149 95.0266 18.421 94.8408 18.8188L94.5697 19.4011L90.3201 17.4202C90.1617 17.8291 90.1645 18.2021 90.3311 18.5366C90.4949 18.8698 90.7634 19.1244 91.1351 19.2979ZM92.5708 15.8895C92.1798 15.7077 91.8398 15.6775 91.5507 15.8C91.2616 15.9225 91.0208 16.1331 90.8281 16.4305L93.1971 17.5345C93.3196 17.2261 93.3389 16.9178 93.2549 16.6108C93.171 16.3038 92.9425 16.0629 92.5708 15.8895Z" fill="white"/>
<path id="Vector_11" d="M100.519 21.1811C100.427 20.998 100.317 20.8425 100.189 20.7172C100.061 20.5919 99.901 20.4694 99.7111 20.351C99.3394 20.1184 98.9718 20.0413 98.6084 20.1184C98.245 20.1955 97.9132 20.4735 97.6145 20.9526L95.9901 23.5543L94.2061 22.4407L97.6393 16.9385L99.4233 18.0521L98.797 19.0556C99.0999 18.8092 99.4564 18.6551 99.8666 18.5959C100.277 18.5367 100.672 18.6248 101.052 18.8615C101.217 18.9648 101.352 19.0804 101.455 19.2084C101.558 19.3365 101.627 19.4562 101.66 19.5691L100.519 21.1811Z" fill="white"/>
<path id="Vector_12" d="M56.3535 130.061L54.2789 129.715L55.734 120.985L57.8085 121.33L57.6158 122.483C57.8429 122.126 58.1582 121.852 58.5601 121.662C58.9621 121.472 59.4411 121.424 59.9987 121.518C60.4695 121.596 60.8673 121.754 61.1935 121.991C61.5198 122.228 61.7772 122.518 61.9672 122.86C62.1572 123.203 62.2769 123.588 62.3292 124.016C62.3815 124.444 62.3678 124.894 62.2893 125.364C62.2108 125.835 62.0773 126.267 61.8887 126.659C61.7001 127.053 61.4592 127.38 61.1701 127.642C60.8797 127.905 60.5424 128.092 60.1583 128.206C59.7743 128.321 59.3462 128.337 58.8767 128.259C58.3192 128.166 57.8815 127.964 57.5635 127.654C57.2455 127.345 57.0349 126.99 56.9344 126.588L56.3535 130.061ZM57.2634 124.6C57.1767 125.119 57.2427 125.551 57.4616 125.899C57.6805 126.246 58.0054 126.457 58.4376 126.528C58.9277 126.61 59.3186 126.51 59.6132 126.228C59.9064 125.946 60.0978 125.541 60.1859 125.013C60.2726 124.494 60.2217 124.055 60.0358 123.693C59.8486 123.331 59.5113 123.109 59.0213 123.028C58.589 122.956 58.2132 123.046 57.8952 123.299C57.5772 123.552 57.3735 123.938 57.2882 124.457L57.2634 124.6Z" fill="white"/>
<path id="Vector_13" d="M65.7501 122.228L65.3564 128.716L63.2571 128.588L63.6508 122.1L65.7501 122.228ZM66.0791 119.951C66.057 120.32 65.9111 120.624 65.6427 120.861C65.3743 121.099 65.0604 121.206 64.7011 121.184C64.5263 121.173 64.3625 121.129 64.211 121.052C64.0596 120.975 63.9289 120.875 63.8201 120.751C63.7114 120.627 63.626 120.482 63.5682 120.319C63.5104 120.153 63.487 119.98 63.498 119.795C63.509 119.621 63.553 119.457 63.6301 119.305C63.7072 119.154 63.8077 119.023 63.9316 118.914C64.0555 118.804 64.1973 118.72 64.357 118.662C64.5166 118.605 64.6846 118.58 64.8594 118.591C65.0342 118.602 65.1994 118.646 65.3564 118.723C65.5133 118.802 65.6454 118.902 65.7556 119.026C65.8657 119.15 65.9497 119.292 66.0075 119.451C66.0653 119.608 66.0901 119.776 66.0791 119.951Z" fill="white"/>
<path id="Vector_14" d="M70.2799 127.305C70.6103 127.294 70.8801 127.201 71.0893 127.029C71.2972 126.857 71.45 126.612 71.5463 126.297L73.307 126.499C73.2409 126.833 73.1267 127.142 72.9656 127.429C72.8045 127.715 72.5994 127.963 72.3475 128.175C72.097 128.387 71.8024 128.556 71.4665 128.683C71.1292 128.809 70.7479 128.881 70.3198 128.896C69.8132 128.913 69.3438 128.846 68.9102 128.695C68.4765 128.545 68.098 128.326 67.7772 128.04C67.4551 127.753 67.2004 127.404 67.0105 126.992C66.8205 126.579 66.7173 126.115 66.6994 125.6C66.6815 125.095 66.7544 124.627 66.9141 124.198C67.0752 123.768 67.3051 123.401 67.6065 123.092C67.908 122.785 68.27 122.542 68.6927 122.361C69.1153 122.181 69.5792 122.083 70.0858 122.065C70.5524 122.049 70.9682 122.103 71.333 122.225C71.6978 122.348 72.0157 122.525 72.2869 122.758C72.5581 122.99 72.7798 123.263 72.9505 123.577C73.1225 123.891 73.2437 124.232 73.3139 124.6L71.5697 124.864C71.3756 124.033 70.9035 123.631 70.1546 123.655C69.7361 123.669 69.4057 123.829 69.1621 124.132C68.9184 124.435 68.8083 124.9 68.8303 125.528C68.8523 126.155 68.9941 126.612 69.2571 126.897C69.52 127.184 69.8614 127.32 70.2799 127.305Z" fill="white"/>
<path id="Vector_15" d="M77.0341 128.106L74.9596 128.455L73.4302 119.382L75.5047 119.033L76.3541 124.074L78.3763 121.304L80.839 120.888L78.5732 123.877L82.0174 127.266L79.6703 127.661L77.2117 125.291L76.6817 126.016L77.0341 128.106Z" fill="white"/>
<path id="Vector_16" d="M80.0743 74.9382V51.9753C79.9256 52.5149 79.693 53.0394 79.3695 53.5322L69.3163 68.7876V91.9721C69.4526 91.3127 69.71 90.6657 70.1037 90.0683L80.0743 74.9382Z" fill="#BFCEFF"/>
<path id="Vector_17" d="M52.2336 74.8143V52.0483C51.9721 52.9225 51.4944 53.7443 50.7979 54.4271C47.8575 57.8176 44.7409 60.4235 41.4756 62.2461V91.6114C41.6243 91.0801 41.8555 90.5625 42.1749 90.0765L52.2336 74.8143Z" fill="#BFCEFF"/>
<path id="Vector_18" d="M50.9042 46.5777C48.7664 44.3655 45.2396 44.3035 43.026 46.4414L42.8705 46.5914C42.7452 46.7126 42.6254 46.8392 42.5112 46.9727C38.8673 51.2236 35.1216 53.6299 31.3773 54.1269C28.3268 54.5316 26.1821 57.3316 26.5868 60.3807C26.9585 63.1821 29.351 65.2208 32.1028 65.2208C32.3464 65.2208 32.5942 65.2043 32.842 65.1712C35.8182 64.7775 38.6994 63.7933 41.4746 62.246C44.7399 60.4248 47.8565 57.8175 50.7969 54.427C51.4934 53.7442 51.9711 52.9224 52.2326 52.0482C52.7902 50.1816 52.3538 48.0781 50.9042 46.5777Z" fill="white"/>
<path id="Vector_19" d="M105.74 45.9419C103.215 44.2776 99.8189 44.9769 98.156 47.5002L80.0745 74.9384L70.1039 90.0698C69.7102 90.6673 69.4542 91.3129 69.3165 91.9737C68.876 94.1046 69.735 96.3843 71.6622 97.6548C72.59 98.266 73.6362 98.5593 74.6701 98.5593C76.45 98.5593 78.1941 97.6934 79.2472 96.0965L107.299 53.5269C108.962 51.0009 108.264 47.6049 105.74 45.9419Z" fill="white"/>
<path id="Vector_20" d="M77.8092 45.9485C75.2845 44.2842 71.8886 44.9822 70.2257 47.5068L52.2309 74.8142L42.1722 90.0764C41.8528 90.5623 41.6215 91.0799 41.4729 91.6113C40.8465 93.8441 41.6918 96.3165 43.7319 97.6614C44.6597 98.2726 45.7059 98.5658 46.7397 98.5658C47.673 98.5658 48.594 98.3222 49.413 97.8651C49.5672 97.7798 49.72 97.6903 49.8659 97.5898C49.8797 97.5802 49.8921 97.5692 49.9045 97.5609C50.5914 97.086 51.1641 96.4569 51.5674 95.7218L69.3144 68.7875L79.3676 53.5322C79.6924 53.0407 79.9237 52.5149 80.0724 51.9752C80.6877 49.7493 79.841 47.288 77.8092 45.9485Z" fill="white"/>
<path id="Vector_21" d="M51.1568 122.656C50.9352 122.588 50.7136 122.517 50.4933 122.446C50.2731 122.374 50.0528 122.301 49.8326 122.227C49.6123 122.153 49.3934 122.077 49.1759 122C48.9571 121.923 48.7396 121.844 48.5234 121.766C48.3059 121.686 48.0898 121.606 47.8737 121.523C47.6576 121.441 47.4428 121.358 47.2281 121.273C47.0133 121.189 46.7999 121.102 46.5866 121.015C46.3732 120.929 46.1612 120.839 45.9492 120.75C45.7372 120.66 45.5252 120.569 45.3146 120.477C45.104 120.385 44.8934 120.291 44.6841 120.196C44.4749 120.101 44.2656 120.006 44.0578 119.909C43.8499 119.811 43.6421 119.713 43.4356 119.614C43.2291 119.515 43.0226 119.414 42.8175 119.311C42.6124 119.209 42.4073 119.106 42.2035 119.002C41.9998 118.897 41.796 118.792 41.5951 118.685C41.3927 118.578 41.1917 118.47 40.9907 118.361C40.7898 118.253 40.5902 118.143 40.3906 118.031C40.1909 117.92 39.9927 117.807 39.7945 117.694C39.5963 117.579 39.3994 117.465 39.2026 117.348C39.0057 117.233 38.8102 117.114 38.6161 116.996C38.422 116.877 38.2266 116.758 38.0338 116.638C37.8411 116.517 37.6484 116.396 37.4557 116.273C37.2643 116.151 37.073 116.027 36.883 115.901C36.693 115.776 36.5031 115.65 36.3145 115.523C36.1259 115.395 35.9387 115.267 35.7515 115.137C35.5642 115.008 35.3784 114.877 35.1926 114.745C35.0067 114.613 34.8223 114.481 34.6392 114.347C34.4561 114.214 34.273 114.079 34.0913 113.943C33.9096 113.806 33.7279 113.67 33.5475 113.531C33.3672 113.393 33.1882 113.253 33.0093 113.114C32.8303 112.973 32.6528 112.832 32.4766 112.69C32.3003 112.548 32.1241 112.404 31.9493 112.259C31.7745 112.114 31.5997 111.969 31.4262 111.823C31.2528 111.677 31.0807 111.528 30.9086 111.381C30.7365 111.232 30.5672 111.082 30.3965 110.932C30.2272 110.782 30.0579 110.63 29.8899 110.478C29.722 110.325 29.5554 110.172 29.3889 110.017C29.2223 109.862 29.0585 109.707 28.8933 109.55C28.7295 109.393 28.5657 109.236 28.4032 109.078C28.2408 108.919 28.0797 108.76 27.92 108.6C27.7604 108.44 27.6007 108.278 27.4424 108.117C27.2841 107.954 27.1271 107.792 26.9702 107.627C26.8133 107.463 26.6577 107.298 26.5035 107.131C26.3494 106.965 26.1952 106.798 26.0424 106.63C25.8896 106.462 25.7382 106.294 25.5881 106.124C25.4381 105.954 25.288 105.784 25.1393 105.611C24.9907 105.439 24.8434 105.267 24.6975 105.094C24.5515 104.92 24.4056 104.747 24.2611 104.571C24.1165 104.396 23.9734 104.22 23.8302 104.044C23.687 103.867 23.5466 103.69 23.4062 103.511C23.2658 103.332 23.1268 103.153 22.9891 102.973C22.8515 102.792 22.7138 102.612 22.5775 102.429C22.4412 102.246 22.3063 102.064 22.1728 101.881C22.0393 101.698 21.9057 101.513 21.775 101.328C21.6428 101.142 21.512 100.956 21.3826 100.769C21.2532 100.581 21.1252 100.394 20.9972 100.206C20.8692 100.017 20.7439 99.8284 20.6186 99.6371C20.4934 99.4471 20.3695 99.2557 20.2469 99.0644C20.1244 98.873 20.0019 98.6803 19.8822 98.4862C19.761 98.2935 19.6426 98.0994 19.5242 97.9039C19.4059 97.7085 19.2888 97.513 19.1718 97.3175C19.0562 97.1207 18.9406 96.9238 18.8277 96.7256C18.7134 96.5273 18.6019 96.3291 18.4904 96.1295C18.3789 95.9299 18.2688 95.7303 18.16 95.5293C18.0513 95.3283 17.9425 95.1274 17.8365 94.925C17.7305 94.7226 17.6245 94.5203 17.5199 94.3165C17.4153 94.1128 17.3121 93.9077 17.2102 93.7026C17.1083 93.4975 17.0078 93.291 16.9073 93.0845C16.8069 92.878 16.7091 92.6701 16.6128 92.4623C16.515 92.2544 16.42 92.0452 16.325 91.8359C16.2301 91.6267 16.1365 91.4161 16.0442 91.2055C15.952 90.9948 15.8611 90.7828 15.7717 90.5709C15.6822 90.3589 15.5941 90.1469 15.506 89.9335C15.4179 89.7201 15.3325 89.5067 15.2486 89.292C15.1646 89.0772 15.0806 88.8625 14.998 88.6464C14.9154 88.4303 14.8356 88.2141 14.7557 87.9966C14.6759 87.7791 14.5974 87.5616 14.5217 87.3441C14.446 87.1266 14.3689 86.9064 14.2946 86.6875C14.2202 86.4686 14.1473 86.2484 14.0757 86.0267C14.0041 85.8065 13.9339 85.5848 13.8651 85.3632C13.7963 85.1416 13.7288 84.9186 13.6614 84.6956C13.5953 84.4726 13.5306 84.2482 13.4659 84.0252C13.4012 83.8022 13.3392 83.5764 13.2787 83.3506C13.2181 83.1249 13.1575 82.8991 13.0997 82.6734C13.0419 82.4476 12.9841 82.2205 12.929 81.992C12.8739 81.7648 12.8189 81.5363 12.7666 81.3078C12.7143 81.0793 12.6619 80.8494 12.6124 80.6209C12.5628 80.391 12.5133 80.1611 12.4665 79.9298C12.4197 79.6986 12.3729 79.4673 12.3288 79.236C12.2848 79.0048 12.2421 78.7721 12.1994 78.5395C12.1581 78.3068 12.1182 78.0742 12.0797 77.8402C12.0411 77.6061 12.0039 77.3721 11.9681 77.1381C11.9324 76.9041 11.8979 76.6687 11.8649 76.4333C11.8319 76.1979 11.8002 75.9611 11.7699 75.7257C11.7396 75.489 11.7107 75.2522 11.6846 75.0154C11.657 74.7786 11.6323 74.5405 11.6075 74.3023C11.5827 74.0642 11.5607 73.826 11.5387 73.5865C11.518 73.347 11.4974 73.1075 11.4795 72.8679C11.4616 72.6284 11.445 72.3875 11.4285 72.1466C11.4134 71.9057 11.3996 71.6648 11.3872 71.4225C11.3748 71.1802 11.3638 70.9393 11.3556 70.6971C11.3459 70.4548 11.339 70.2125 11.3322 69.9688C11.3253 69.7252 11.3212 69.4815 11.3184 69.2379C11.3156 68.9942 11.3143 68.7492 11.3143 68.5055C11.3143 68.2605 11.3156 68.0168 11.3184 67.7732C11.3212 67.5295 11.3267 67.2859 11.3322 67.0422C11.3377 66.7986 11.3459 66.5563 11.3556 66.314C11.3652 66.0717 11.3748 65.8294 11.3872 65.5885C11.3996 65.3476 11.4134 65.1054 11.4285 64.8644C11.4437 64.6235 11.4602 64.3826 11.4795 64.1431C11.4974 63.9036 11.518 63.6641 11.5387 63.4245C11.5593 63.185 11.5827 62.9469 11.6075 62.7087C11.6323 62.4706 11.657 62.2324 11.6846 61.9956C11.7121 61.7589 11.7396 61.5207 11.7699 61.2853C11.8002 61.0499 11.8319 60.8132 11.8649 60.5778C11.8979 60.3424 11.9324 60.107 11.9681 59.8729C12.0039 59.6389 12.0411 59.4035 12.0797 59.1709C12.1182 58.9369 12.1581 58.7042 12.1994 58.4716C12.2407 58.2389 12.2834 58.0063 12.3288 57.775C12.3729 57.5438 12.4197 57.3125 12.4665 57.0812C12.5133 56.85 12.5628 56.6201 12.6124 56.3902C12.6619 56.1603 12.7143 55.9318 12.7666 55.7033C12.8189 55.4747 12.8739 55.2462 12.929 55.0191C12.9841 54.792 13.0419 54.5648 13.0997 54.3377C13.1575 54.1105 13.2181 53.8848 13.2787 53.6604C13.3392 53.4346 13.4026 53.2103 13.4659 52.9859C13.5292 52.7615 13.5953 52.5385 13.6614 52.3155C13.7274 52.0925 13.7949 51.8695 13.8651 51.6478C13.9339 51.4262 14.0041 51.2046 14.0757 50.9843C14.1473 50.7641 14.2202 50.5438 14.2946 50.3236C14.3689 50.1033 14.4446 49.8844 14.5217 49.6669C14.5988 49.448 14.6773 49.2305 14.7557 49.0144C14.8342 48.7983 14.9154 48.5808 14.998 48.3647C15.0806 48.1485 15.1632 47.9338 15.2486 47.7191C15.3325 47.5043 15.4193 47.2909 15.506 47.0776C15.5927 46.8642 15.6822 46.6522 15.7717 46.4402C15.8611 46.2282 15.952 46.0162 16.0442 45.8056C16.1365 45.595 16.2301 45.3844 16.325 45.1751C16.42 44.9659 16.515 44.7566 16.6128 44.5488C16.7105 44.3409 16.8082 44.133 16.9073 43.9265C17.0065 43.7201 17.107 43.5136 17.2102 43.3085C17.3121 43.1034 17.4153 42.8982 17.5199 42.6945C17.6245 42.4908 17.7292 42.287 17.8365 42.0861C17.9439 41.8851 18.0513 41.6827 18.16 41.4817C18.2688 41.2808 18.3789 41.0811 18.4904 40.8815C18.6019 40.6819 18.7148 40.4837 18.8277 40.2855C18.9419 40.0872 19.0562 39.8904 19.1718 39.6935C19.2875 39.4967 19.4059 39.3012 19.5242 39.1071C19.6426 38.913 19.7624 38.7175 19.8822 38.5248C20.0033 38.3321 20.1244 38.1394 20.2469 37.9467C20.3695 37.7553 20.4934 37.564 20.6186 37.374C20.7439 37.184 20.8705 36.9941 20.9972 36.8055C21.1252 36.6169 21.2532 36.4297 21.3826 36.2424C21.512 36.0552 21.6428 35.8694 21.775 35.6835C21.9071 35.4977 22.0393 35.3132 22.1728 35.1302C22.3063 34.9471 22.4412 34.764 22.5775 34.5823C22.7138 34.4006 22.8501 34.2189 22.9891 34.0385C23.1281 33.8582 23.2672 33.6792 23.4062 33.5003C23.5466 33.3213 23.6884 33.1437 23.8302 32.9675C23.972 32.7913 24.1165 32.6151 24.2611 32.4403C24.4056 32.2655 24.5515 32.0906 24.6975 31.9172C24.8434 31.7437 24.992 31.5717 25.1393 31.3996C25.288 31.2275 25.4381 31.0582 25.5881 30.8875C25.7382 30.7182 25.8896 30.5489 26.0424 30.3809C26.1952 30.213 26.348 30.0464 26.5035 29.8798C26.6577 29.7133 26.8133 29.5495 26.9702 29.3843C27.1271 29.2205 27.2841 29.0566 27.4424 28.8942C27.6007 28.7318 27.7604 28.5707 27.92 28.411C28.0797 28.2513 28.2422 28.0917 28.4032 27.9334C28.5657 27.775 28.7281 27.6181 28.8933 27.4612C29.0571 27.3043 29.2223 27.1487 29.3889 26.9945C29.5554 26.8403 29.722 26.6862 29.8899 26.5334C30.0579 26.3806 30.2258 26.2291 30.3965 26.0791C30.5658 25.929 30.7365 25.779 30.9086 25.6303C31.0807 25.4817 31.2528 25.3344 31.4262 25.1884C31.5997 25.0425 31.7731 24.8966 31.9493 24.7521C32.1255 24.6075 32.3003 24.4644 32.4766 24.3212C32.6528 24.178 32.8303 24.0376 33.0093 23.8972" stroke="#BFCEFF" stroke-width="0.656487" stroke-miterlimit="10"/>
<path id="Vector_22" d="M103.026 23.8928C103.205 24.0332 103.383 24.175 103.559 24.3168C103.735 24.4586 103.911 24.6031 104.086 24.7477C104.261 24.8922 104.436 25.0381 104.609 25.184C104.783 25.33 104.955 25.4786 105.127 25.6259C105.299 25.7746 105.468 25.9246 105.639 26.0747C105.808 26.2247 105.978 26.3762 106.146 26.529C106.314 26.6818 106.48 26.8346 106.647 26.9901C106.813 27.1443 106.977 27.2999 107.142 27.4568C107.306 27.6137 107.47 27.7707 107.632 27.929C107.795 28.0873 107.956 28.247 108.116 28.4066C108.275 28.5663 108.435 28.7288 108.593 28.8898C108.752 29.0523 108.909 29.2147 109.065 29.3799C109.222 29.5437 109.378 29.7089 109.532 29.8755C109.686 30.042 109.84 30.2086 109.993 30.3765C110.146 30.5445 110.297 30.7124 110.448 30.8831C110.598 31.0524 110.748 31.2231 110.896 31.3952C111.045 31.5673 111.192 31.7394 111.338 31.9128C111.484 32.0863 111.63 32.2597 111.775 32.4359C111.919 32.6107 112.062 32.7869 112.205 32.9631C112.349 33.1393 112.489 33.3169 112.629 33.4959C112.77 33.6748 112.909 33.8538 113.047 34.0341C113.184 34.2145 113.322 34.3948 113.458 34.5779C113.594 34.7596 113.729 34.9427 113.863 35.1258C113.996 35.3088 114.13 35.4933 114.261 35.6792C114.393 35.865 114.524 36.0508 114.653 36.238C114.782 36.4253 114.91 36.6125 115.038 36.8011C115.166 36.9897 115.292 37.1796 115.417 37.3696C115.542 37.5596 115.666 37.7509 115.789 37.9423C115.911 38.1336 116.034 38.3263 116.153 38.5204C116.275 38.7132 116.393 38.9073 116.511 39.1027C116.63 39.2982 116.747 39.4937 116.864 39.6892C116.979 39.886 117.095 40.0829 117.209 40.2811C117.324 40.4793 117.435 40.6775 117.547 40.8771C117.658 41.0768 117.768 41.2764 117.877 41.4773C117.986 41.6783 118.094 41.8793 118.2 42.0817C118.308 42.284 118.412 42.4864 118.517 42.6901C118.622 42.8939 118.725 43.099 118.827 43.3041C118.929 43.5092 119.029 43.7157 119.13 43.9222C119.23 44.1287 119.328 44.3365 119.424 44.5444C119.522 44.7522 119.617 44.9615 119.712 45.1707C119.807 45.38 119.901 45.5906 119.993 45.8012C120.085 46.0118 120.176 46.2238 120.265 46.4358C120.355 46.6478 120.443 46.8598 120.531 47.0732C120.618 47.2865 120.704 47.4999 120.788 47.7147C120.872 47.9294 120.956 48.1442 121.039 48.3603C121.122 48.5764 121.201 48.7925 121.281 49.01C121.361 49.2275 121.44 49.445 121.515 49.6625C121.592 49.8814 121.668 50.1003 121.742 50.3192C121.817 50.538 121.89 50.7583 121.961 50.9799C122.033 51.2002 122.103 51.4218 122.172 51.6434C122.241 51.8651 122.308 52.0881 122.376 52.3111C122.442 52.5341 122.506 52.7585 122.571 52.9815C122.634 53.2059 122.698 53.4303 122.758 53.656C122.819 53.8818 122.879 54.1075 122.937 54.3333C122.995 54.5604 123.053 54.7862 123.108 55.0147C123.163 55.2418 123.218 55.4704 123.27 55.6989C123.323 55.9274 123.375 56.1573 123.425 56.3858C123.474 56.6143 123.524 56.8456 123.571 57.0768C123.617 57.3081 123.664 57.5394 123.708 57.7706C123.752 58.0019 123.795 58.2345 123.838 58.4672C123.879 58.6998 123.919 58.9325 123.957 59.1665C123.996 59.4005 124.033 59.6345 124.069 59.8686C124.105 60.1026 124.139 60.338 124.172 60.5734C124.205 60.8088 124.237 61.0455 124.267 61.2809C124.297 61.5163 124.326 61.7545 124.352 61.9913C124.38 62.228 124.405 62.4662 124.43 62.7043C124.454 62.9425 124.476 63.1806 124.498 63.4202C124.52 63.6597 124.54 63.8992 124.558 64.1387C124.575 64.3783 124.592 64.6192 124.608 64.8601C124.624 65.101 124.637 65.3419 124.65 65.5842C124.662 65.8264 124.673 66.0673 124.681 66.3096C124.691 66.5519 124.698 66.7942 124.705 67.0378C124.712 67.2815 124.716 67.5251 124.719 67.7688C124.721 68.0125 124.723 68.2575 124.723 68.5011C124.723 68.7462 124.721 68.9898 124.719 69.2335C124.716 69.4771 124.71 69.7208 124.705 69.9645C124.699 70.2081 124.691 70.4504 124.681 70.6927C124.672 70.935 124.662 71.1772 124.65 71.4181C124.637 71.6604 124.624 71.9013 124.608 72.1422C124.593 72.3831 124.577 72.624 124.558 72.8635C124.54 73.1031 124.519 73.3426 124.498 73.5821C124.478 73.8217 124.454 74.0598 124.43 74.298C124.405 74.5361 124.38 74.7743 124.352 75.011C124.325 75.2478 124.297 75.486 124.267 75.7213C124.237 75.9581 124.205 76.1935 124.172 76.4289C124.139 76.6643 124.105 76.8997 124.069 77.1337C124.033 77.3677 123.996 77.6032 123.957 77.8358C123.919 78.0698 123.879 78.3025 123.838 78.5351C123.796 78.7677 123.754 79.0004 123.708 79.2316C123.664 79.4629 123.617 79.6942 123.571 79.9255C123.524 80.1567 123.474 80.3866 123.425 80.6165C123.375 80.8464 123.323 81.0749 123.27 81.3034C123.218 81.5319 123.163 81.7604 123.108 81.9876C123.053 82.2147 122.995 82.4419 122.937 82.669C122.879 82.8961 122.819 83.1219 122.758 83.3463C122.698 83.572 122.634 83.7964 122.571 84.0208C122.508 84.2452 122.442 84.4682 122.376 84.6912C122.31 84.9142 122.242 85.1372 122.172 85.3588C122.103 85.5805 122.033 85.8021 121.961 86.0224C121.89 86.2426 121.817 86.4629 121.742 86.6831C121.668 86.9034 121.592 87.1223 121.515 87.3398C121.438 87.5573 121.36 87.7761 121.281 87.9923C121.201 88.2098 121.122 88.4259 121.039 88.642C120.956 88.8581 120.874 89.0729 120.788 89.2876C120.704 89.5024 120.618 89.7157 120.531 89.9291C120.444 90.1425 120.355 90.3545 120.265 90.5665C120.176 90.7785 120.085 90.9905 119.993 91.2011C119.901 91.4117 119.807 91.6223 119.712 91.8316C119.617 92.0408 119.522 92.25 119.424 92.4579C119.327 92.6658 119.229 92.8736 119.13 93.0801C119.031 93.2866 118.93 93.4931 118.827 93.6982C118.725 93.9033 118.622 94.1084 118.517 94.3122C118.412 94.5159 118.308 94.7196 118.2 94.9206C118.093 95.123 117.986 95.324 117.877 95.525C117.768 95.7259 117.658 95.9255 117.547 96.1251C117.435 96.3247 117.322 96.523 117.209 96.7212C117.096 96.9194 116.981 97.1163 116.864 97.3131C116.748 97.51 116.63 97.7055 116.511 97.8996C116.393 98.095 116.273 98.2891 116.153 98.4819C116.032 98.6746 115.911 98.8673 115.789 99.06C115.666 99.2514 115.542 99.4427 115.417 99.6327C115.292 99.8227 115.165 100.013 115.038 100.201C114.91 100.39 114.782 100.577 114.653 100.764C114.524 100.951 114.393 101.137 114.261 101.323C114.129 101.509 113.996 101.693 113.863 101.877C113.729 102.06 113.594 102.243 113.458 102.424C113.322 102.606 113.186 102.788 113.047 102.968C112.909 103.148 112.768 103.327 112.629 103.506C112.489 103.685 112.347 103.863 112.205 104.039C112.064 104.215 111.919 104.392 111.775 104.566C111.63 104.741 111.484 104.916 111.338 105.089C111.192 105.263 111.044 105.435 110.896 105.607C110.748 105.779 110.598 105.948 110.448 106.119C110.297 106.288 110.146 106.458 109.993 106.626C109.84 106.794 109.688 106.96 109.532 107.127C109.378 107.293 109.222 107.457 109.065 107.622C108.909 107.786 108.752 107.95 108.593 108.112C108.435 108.275 108.275 108.436 108.116 108.596C107.956 108.755 107.793 108.915 107.632 109.073C107.47 109.232 107.308 109.389 107.142 109.545C106.979 109.702 106.813 109.858 106.647 110.012C106.48 110.166 106.314 110.321 106.146 110.473C105.978 110.626 105.81 110.778 105.639 110.928C105.47 111.078 105.299 111.228 105.127 111.376C104.955 111.525 104.783 111.672 104.609 111.818C104.436 111.964 104.263 112.11 104.086 112.255C103.911 112.399 103.735 112.542 103.559 112.685C103.383 112.829 103.205 112.969 103.026 113.109C102.847 113.25 102.668 113.389 102.488 113.527C102.308 113.664 102.127 113.802 101.944 113.938C101.761 114.074 101.58 114.209 101.396 114.343C101.213 114.476 101.029 114.61 100.843 114.741C100.657 114.873 100.471 115.004 100.284 115.133C100.097 115.262 99.9097 115.39 99.7212 115.519C99.5326 115.647 99.344 115.772 99.1526 115.897C98.9627 116.022 98.7713 116.146 98.58 116.269C98.3886 116.391 98.1959 116.514 98.0018 116.634C97.8091 116.755 97.615 116.873 97.4195 116.991C97.224 117.11 97.0285 117.227 96.8331 117.344C96.6362 117.46 96.4394 117.575 96.2411 117.689C96.0429 117.804 95.8447 117.915 95.6451 118.027C95.4455 118.138 95.2459 118.248 95.0449 118.357C94.8439 118.466 94.6429 118.575 94.4406 118.681C94.2382 118.788 94.0358 118.893 93.8321 118.997C93.6284 119.102 93.4233 119.205 93.2182 119.307C93.013 119.409 92.8065 119.509 92.6001 119.61C92.3936 119.71 92.1857 119.808 91.9778 119.904C91.77 120.002 91.5607 120.097 91.3515 120.192C91.1423 120.287 90.9316 120.381 90.721 120.473C90.5104 120.565 90.2984 120.656 90.0864 120.745C89.8744 120.835 89.6624 120.923 89.4491 121.011C89.2357 121.098 89.0223 121.185 88.8076 121.269C88.5928 121.352 88.3781 121.436 88.1619 121.519C87.9458 121.602 87.7297 121.682 87.5122 121.761C87.2947 121.841 87.0772 121.92 86.8597 121.995C86.6422 122.071 86.4219 122.148 86.2031 122.222C85.9842 122.297 85.7639 122.37 85.5423 122.441C85.322 122.513 85.1004 122.583 84.8788 122.652" stroke="#BFCEFF" stroke-width="0.656487" stroke-miterlimit="10"/>
</g>
<defs>
<clipPath id="clip0_1_8493">
<rect width="136" height="136" fill="white" transform="translate(0.5 0.0200195)"/>
</clipPath>
</defs>
</svg>
