<svg width="158" height="48" viewBox="0 0 158 48" fill="none" xmlns="http://www.w3.org/2000/svg">
<g id="Frame">
<g id="Mask group">
<mask id="mask0_62_3987" style="mask-type:alpha" maskUnits="userSpaceOnUse" x="32" y="12" width="93" height="24">
<g id="Group">
<path id="Vector" fill-rule="evenodd" clip-rule="evenodd" d="M32.9393 12.969H124.169V35.0852H32.9393V12.969Z" fill="white"/>
</g>
</mask>
<g mask="url(#mask0_62_3987)">
<g id="Group_2">
<path id="Vector_2" fill-rule="evenodd" clip-rule="evenodd" d="M52.2911 12.969H32.9393V21.2627H38.4683V35.0852H46.762V21.2627H52.2911V12.969ZM115.876 12.969V20.1567C115.876 21.1243 115.462 21.9538 114.908 22.6449L111.729 25.8242C111.038 26.5151 110.208 26.7918 109.24 26.7918H105.785C106.891 25.5475 107.582 23.8889 107.582 22.2302V12.969H99.2888V20.1567C99.2888 21.1243 98.8744 21.9538 98.321 22.6449L95.1416 25.8242C94.4504 26.5151 93.6211 26.7918 92.6535 26.7918H90.9946V12.969H82.7012V35.0852H94.7268C96.5235 35.0852 98.321 34.3944 99.565 33.0119L103.435 29.1415V35.0852H111.314C113.112 35.0852 114.908 34.3944 116.152 33.0119L122.096 27.0682C123.478 25.8242 124.169 24.0271 124.169 22.2302V12.969H115.876ZM79.9366 35.0852H71.6428V27.8975C71.6428 26.9297 71.2282 26.1006 70.6753 25.4093L67.496 22.2302C66.8049 21.6773 65.9756 21.2627 65.008 21.2627H63.3491V35.0852H55.0557V12.969H67.0813C68.8784 12.969 70.6753 13.6601 71.9193 15.0423L77.8632 20.9862C79.2455 22.2302 79.9366 24.0271 79.9366 25.8242V35.0852Z" fill="#C1C1C1"/>
</g>
</g>
</g>
</g>
</svg>
