<svg width="158" height="48" viewBox="0 0 158 48" fill="none" xmlns="http://www.w3.org/2000/svg">
<g id="Frame">
<path id="Vector" fill-rule="evenodd" clip-rule="evenodd" d="M139.652 18.7211V13.2402H127.926V33.1641H139.652V27.6737H133.963V25.353H137.576V20.8248H133.963V18.7211H139.652ZM71.6543 25.3718H71.5977L71.1449 23.7304L69.7299 18.7211H72.2203L73.8618 13.2308H61.2207L68.4658 33.1547H74.9561L75.7391 31.0226C75.7391 31.0226 79.2107 21.6078 81.1068 16.476V33.1547H92.8328V27.6643H87.1538V25.3435H90.7574V20.806H87.1538V18.7117H92.8328V13.2214H75.3146L71.6543 25.3718ZM100.55 22.1833V18.4759C101.427 18.4759 102.502 18.74 102.823 19.7023C102.851 19.7872 102.87 19.8815 102.898 19.9759C102.898 19.9853 102.898 20.0041 102.908 20.0135C102.917 20.1079 102.936 20.2211 102.936 20.3343C102.936 21.8154 101.587 22.1833 100.55 22.1833ZM108.974 19.9759C108.974 15.6741 105.795 13.2308 101.286 13.2308H94.2385V33.1547H100.568V28.051L104.191 33.1547H111.332L106.201 25.5134C108.049 24.504 108.974 22.6644 108.974 19.9759ZM47.391 33.1641H59.117V27.6737H53.438V25.353H57.051V20.806H53.438V18.7117H59.117V13.2308H47.391V33.1641ZM39.6649 20.806H36.7027V18.7022H38.1932V13.2308H30.3822V33.1641H36.7027V25.6266H39.6649V33.1641H46.0043V13.2308H39.6649V20.806ZM18.9014 13.2308V18.7117H22.6466V33.1641H28.9766V13.2308H18.9014Z" fill="#C1C1C1"/>
<path id="Vector_2" fill-rule="evenodd" clip-rule="evenodd" d="M126.709 28.985V20.8626H117.766V25.3906H121.096V27.0039C120.842 27.2302 120.294 27.3529 119.728 27.3529C117.408 27.3529 115.691 25.5228 115.691 23.287C115.691 21.0513 117.361 19.0702 119.681 19.0702C121.086 19.0702 124.416 19.0797 124.416 19.0797V13.1742H122.898C120.068 13.1742 117.248 12.9478 114.653 14.2874C112.606 15.3439 110.983 17.1363 110.125 19.2683C109.625 20.523 109.37 21.8814 109.37 23.2304C109.37 28.8811 113.804 33.6451 119.549 33.6451C122.398 33.6451 125.181 32.5792 126.699 31.249C126.709 29.8716 126.709 29.6642 126.709 28.985Z" fill="#C1C1C1"/>
</g>
</svg>
