<svg width="160" height="160" viewBox="0 0 160 160" fill="none" xmlns="http://www.w3.org/2000/svg">
<g clip-path="url(#clip0_323_1242)">
<mask id="mask0_323_1242" style="mask-type:luminance" maskUnits="userSpaceOnUse" x="0" y="0" width="160" height="160">
<path d="M80 160C124.182 160 160 124.183 160 79.9994C160 35.8171 124.184 0.000549316 80 0.000549316C35.8179 0.000549316 0 35.8171 0 79.9994C0 124.182 35.8164 160 80 160Z" fill="white"/>
</mask>
<g mask="url(#mask0_323_1242)">
<path d="M0 0.000549316H160V160H0V0.000549316Z" fill="#EDEDED"/>
</g>
<mask id="mask1_323_1242" style="mask-type:luminance" maskUnits="userSpaceOnUse" x="0" y="0" width="160" height="160">
<path d="M80 160C124.182 160 160 124.183 160 79.9994C160 35.8171 124.184 0.000549316 80 0.000549316C35.8179 0.000549316 0 35.8171 0 79.9994C0 124.182 35.8164 160 80 160Z" fill="white"/>
</mask>
<g mask="url(#mask1_323_1242)">
<path fill-rule="evenodd" clip-rule="evenodd" d="M19.9431 42.5819C18.0548 41.7148 20.0751 36.0912 21.7737 37.9751C22.5207 38.8037 23.8206 42.1031 21.747 42.7464C20.834 43.0295 20.2144 42.7064 19.9431 42.5819Z" fill="#3B6B74"/>
<path fill-rule="evenodd" clip-rule="evenodd" d="M30.5086 45.7198C28.6202 44.8527 30.6405 39.2291 32.3391 41.113C33.0847 41.9416 34.3861 45.241 32.3124 45.8843C31.3994 46.1674 30.7798 45.8443 30.5086 45.7198Z" fill="#3B6B74"/>
<path fill-rule="evenodd" clip-rule="evenodd" d="M38.2664 47.58C36.5618 46.3927 39.5485 41.2153 40.8855 43.3719C41.4724 44.3191 42.1676 47.7978 40.0124 48.0632C39.0653 48.1803 38.5124 47.7519 38.2664 47.58Z" fill="#3B6B74"/>
<path fill-rule="evenodd" clip-rule="evenodd" d="M46.7237 51.3344C45.4312 49.7084 49.7741 45.6041 50.4382 48.0528C50.7302 49.1289 50.3982 52.6595 48.2578 52.2979C47.3166 52.1378 46.9105 51.5686 46.7237 51.3344Z" fill="#3B6B74"/>
<path fill-rule="evenodd" clip-rule="evenodd" d="M55.6276 60.8963C54.3366 59.2703 58.678 55.166 59.342 57.6132C59.634 58.6893 59.302 62.2199 57.1632 61.8583C56.222 61.6982 55.8144 61.1305 55.6291 60.8963H55.6276Z" fill="#3B6B74"/>
<path fill-rule="evenodd" clip-rule="evenodd" d="M83.5453 133.025C83.5379 132.792 61.5061 118.365 61.6766 118.146C59.975 117.07 58.18 116.02 56.5081 114.937C48.0609 109.469 40.7876 104.336 38.2115 101.566C32.0484 96.3957 33.3795 96.6343 29.5049 87.2296C23.5583 72.7971 14.8206 60.5124 17.2514 47.74C17.5982 45.9154 17.6427 44.2968 20.9451 42.9465C24.1793 41.6229 23.4086 44.4658 29.0203 45.7998C31.878 46.2904 33.8538 46.8715 35.6339 47.5711C37.5801 48.3359 41.462 45.4559 43.3281 49.7781C43.6142 50.5281 43.3711 51.3641 44.1404 51.8043C46.2348 53.002 46.0332 50.5681 47.6533 50.7401C48.2847 50.8068 49.1963 51.2707 50.6281 52.5039C51.8005 53.5118 53.0901 56.7698 54.9073 60.422C57.5901 61.2283 60.5323 61.1794 61.7062 64.1691C62.9039 67.218 61.8678 71.7877 63.0832 75.2428C64.3135 78.7423 66.4093 79.8733 70.8219 82.4553C73.6915 84.1347 75.4524 87.3704 80.7483 87.9099C87.1293 88.5591 92.449 79.4494 93.1694 79.1677C96.7252 77.7715 99.7534 74.3372 104.036 73.3974C121.52 69.557 138.733 72.1612 144.232 82.2715C151.642 80.7671 155.915 75.7601 166.886 70.2358C168.637 107.455 155.732 127.337 137.301 147.888C130.355 138.362 110.259 140.305 83.5468 133.027L83.5453 133.025Z" fill="#8DBAB1"/>
<path fill-rule="evenodd" clip-rule="evenodd" d="M76.9317 86.4396C79.1283 87.4712 84.4762 87.5498 86.5558 85.9075C87.6496 85.0433 89.6714 81.0665 96.7979 76.2552C111.639 66.2353 137.129 74.7255 137.827 75.3214C138.936 76.2685 114.485 68.4438 99.795 75.8046C93.3117 79.0521 89.077 85.9415 86.4238 87.4934C84.6437 88.5354 81.6926 88.9208 79.8042 88.0671C78.9846 87.6965 78.9905 87.6461 78.1056 87.4193L80.0147 89.7079C80.5542 91.0048 82.2069 90.6728 83.5291 91.1086C81.7474 93.2 78.6837 89.1832 77.4579 88.03C75.9697 86.6293 74.5631 85.5221 72.8734 84.3763C68.7691 81.6431 63.6006 79.4998 61.9375 74.9879C60.9711 72.3673 60.6065 69.2783 60.5561 65.0317C60.5072 60.8963 54.9933 63.0945 53.6356 60.216C51.2418 55.1408 50.6978 51.0588 46.0496 52.8552C43.306 53.9165 43.2007 47.0242 39.8583 48.7539C35.88 51.665 35.4428 47.5222 33.5722 46.8493C31.2051 45.7984 30.5663 47.4584 28.2659 47.4066C26.9437 47.2198 26.5939 46.1319 25.0746 45.5701C22.5682 44.6437 20.6087 44.3606 19.4748 44.9624C17.5613 45.9807 16.3251 47.9061 17.8933 56.4408C19.2836 61.0194 21.5395 67.6716 22.5964 70.3678C24.9472 76.3708 28.0361 83.8308 30.7189 89.3433C31.6928 91.3309 32.1137 92.8902 32.7229 93.9471C36.298 100.144 35.6903 99.5884 47.2531 108.402C52.6499 112.515 59.2888 116.948 62.2992 118.305C63.4094 119.133 66.233 121.007 67.3373 121.11C67.9331 121.662 68.446 121.887 69.15 122.302L70.9628 123.234L75.9401 126.399C79.0661 128.573 86.1882 123.598 86.5365 123.74C86.6165 123.772 86.661 123.701 86.7262 123.689C85.5301 124.837 83.4357 126.033 82.0024 126.657C79.8072 127.613 79.2024 127.275 77.4905 127.697C79.2351 128.75 83.0014 126.658 84.9727 126.282C83.4876 127.617 81.8201 127.647 80.4164 128.274C81.5117 128.55 84.5874 127.912 85.8235 127.715C84.9461 128.261 83.3823 128.582 82.4559 128.75C81.0271 129.008 79.9747 128.879 78.9964 129.068C80.6535 130.173 81.7667 131.102 83.5765 131.197C88.2855 131.443 92.6432 129.642 96.6808 126.715C97.1626 126.455 97.5405 126.271 97.9274 125.717C97.8918 126.148 98.3098 125.766 97.3893 126.544L91.4871 130.217C88.33 131.68 86.0577 131.233 84.574 131.608C87.0138 132.645 95.3364 130.079 97.9555 129.181C95.8434 130.447 93.331 131.301 91.0751 131.84C87.3191 132.737 87.6748 132.63 84.1886 132.429C87.9283 134.766 93.0227 134.23 96.9298 132.821L98.5944 132.329C98.667 132.363 98.713 132.313 98.7722 132.312C96.7698 134.164 93.6037 134.676 91.3671 134.842C90.9624 134.871 113.021 137.987 117.387 139.766C115.898 139.828 91.3937 137.185 88.2544 135.924C85.6175 134.865 82.2128 133.526 80.9559 132.515C61.0008 120.847 48.6064 111.861 39.1987 103.678C36.2684 101.128 33.0712 98.6902 31.1473 94.3072C27.6152 86.2573 23.3953 78.0146 20.7036 69.4681C20.7895 68.8485 18.9931 64.2328 18.8048 63.3687C16.6037 58.9146 14.3908 49.8819 16.9387 43.3097C20.5628 39.4811 23.2975 41.8793 25.3815 43.5394C26.6458 44.5488 27.7856 45.9377 29.4101 45.0454C32.1048 43.5646 32.9052 44.7667 36.1602 46.3631C37.0792 46.8137 38.6533 46.3334 40.2704 46.6788C41.1805 46.873 42.6093 47.2124 42.9221 48.3033C44.5466 53.9669 46.5461 48.7006 49.3134 51.4797C52.2897 53.8706 52.8233 56.586 55.0719 59.3667C57.685 60.969 60.2507 60.6058 61.3254 61.9843C62.7216 63.7763 63.5724 66.1968 63.3367 74.3016C63.5739 76.4479 66.5176 79.6954 68.8536 80.9227C75.5132 84.4237 72.6318 83.7745 76.9302 86.4366L76.9317 86.4396Z" fill="#102B30"/>
<path fill-rule="evenodd" clip-rule="evenodd" d="M38.514 58.3602C38.9898 59.8365 38.4132 61.5722 38.557 63.2545C39.1203 68.1533 41.769 73.473 43.1356 77.6989L39.3796 73.0165C35.9913 67.6731 35.1301 61.9294 35.0975 61.0579C34.7492 58.922 36.6094 57.6991 38.5155 58.3602H38.514Z" fill="#77A5A1"/>
<path fill-rule="evenodd" clip-rule="evenodd" d="M58.8265 77.561C57.8378 76.4538 56.5868 73.974 55.8131 72.5644C55.0409 71.1578 53.114 68.2274 54.3843 66.8119C55.2217 65.8781 56.366 66.674 56.7113 67.7071C57.0389 68.6899 57.1575 70.2017 57.2998 71.2586C57.6674 73.9532 58.7746 76.3856 58.865 76.937C59.0473 78.059 58.9436 77.266 58.8265 77.5595V77.561Z" fill="#77A5A1"/>
<path fill-rule="evenodd" clip-rule="evenodd" d="M29.4489 54.2767C26.6401 52.7396 26.2458 54.5198 25.8826 55.7426C24.4375 60.3197 31.9212 77.5862 37.7775 80.5833C37.9613 80.776 38.1332 80.6426 38.4741 80.985L38.1955 80.3091C38.0873 80.0526 38.1317 80.1104 37.9316 79.8466C37.7745 79.6376 37.7879 79.6984 37.6144 79.5294C31.8175 73.8169 31.1401 56.4941 29.4474 54.2767H29.4489Z" fill="#77A5A1"/>
<path fill-rule="evenodd" clip-rule="evenodd" d="M48.5751 61.9442C49.0509 63.4205 48.4743 65.1562 48.6181 66.8386C48.9501 70.7353 51.3261 74.8752 52.4852 78.1998L51.0059 75.9765C50.0677 74.3446 45.2934 65.4734 45.1571 64.6434C44.8088 62.5075 46.6689 61.2847 48.5751 61.9457V61.9442Z" fill="#77A5A1"/>
<path fill-rule="evenodd" clip-rule="evenodd" d="M89.9443 50.7297L91.4488 49.9456L100.551 68.1206L99.0348 68.9166L89.9443 50.7297Z" fill="#3B6B74"/>
<path fill-rule="evenodd" clip-rule="evenodd" d="M112.092 39.5581L113.764 39.2543L118.519 66.9645L116.835 67.2699L112.092 39.5581Z" fill="#3B6B74"/>
<path fill-rule="evenodd" clip-rule="evenodd" d="M139.7 44.196L141.378 44.6244L137.257 64.3351L135.569 63.9082L139.7 44.196Z" fill="#3B6B74"/>
<path fill-rule="evenodd" clip-rule="evenodd" d="M139.602 91.8438C139.602 91.8438 129.514 99.9649 121.256 100.214C113.008 100.454 108.943 101.234 108.943 101.234C108.943 101.234 116.976 104.125 122.317 102.864C127.65 101.595 133.803 99.4179 139.603 91.8438H139.602Z" fill="#3B6B74"/>
</g>
</g>
<defs>
<clipPath id="clip0_323_1242">
<rect width="160" height="160" fill="white"/>
</clipPath>
</defs>
</svg>
