<svg width="30" height="30" viewBox="0 0 30 30" fill="none" xmlns="http://www.w3.org/2000/svg">
<g id="android">
<path id="Vector" d="M18.7195 3.77355L19.9192 1.60906C19.9346 1.58129 19.9444 1.55076 19.948 1.51922C19.9516 1.48767 19.9489 1.45573 19.9402 1.42521C19.9314 1.39468 19.9168 1.36619 19.897 1.34134C19.8772 1.31649 19.8528 1.29578 19.825 1.28038C19.7689 1.24929 19.7028 1.24175 19.6411 1.25942C19.5795 1.2771 19.5274 1.31853 19.4963 1.37461L18.2833 3.56309C17.2482 3.10935 16.1304 2.87509 15.0003 2.87509C13.8702 2.87509 12.7523 3.10935 11.7173 3.56309L10.5042 1.37461C10.4731 1.31853 10.421 1.2771 10.3594 1.25942C10.2977 1.24175 10.2316 1.24929 10.1755 1.28038C10.1195 1.31147 10.078 1.36357 10.0603 1.42521C10.0427 1.48685 10.0502 1.55298 10.0813 1.60906L11.2811 3.77356C10.139 4.33652 9.17404 5.20315 8.492 6.27838C7.80997 7.3536 7.43722 8.5959 7.41466 9.869H22.5859C22.5634 8.5959 22.1906 7.3536 21.5086 6.27837C20.8265 5.20314 19.8615 4.33651 18.7195 3.77355ZM11.4992 7.09305C11.3739 7.09305 11.2514 7.0559 11.1472 6.98629C11.043 6.91668 10.9618 6.81774 10.9139 6.70198C10.8659 6.58622 10.8534 6.45885 10.8778 6.33596C10.9023 6.21307 10.9626 6.10019 11.0512 6.0116C11.1398 5.923 11.2527 5.86267 11.3756 5.83822C11.4984 5.81378 11.6258 5.82632 11.7416 5.87427C11.8573 5.92222 11.9563 6.00342 12.0259 6.1076C12.0955 6.21177 12.1327 6.33426 12.1327 6.45955C12.1325 6.62751 12.0657 6.78853 11.9469 6.90729C11.8281 7.02606 11.6671 7.09286 11.4992 7.09305ZM18.5014 7.09305C18.3761 7.09305 18.2536 7.0559 18.1494 6.98629C18.0452 6.91668 17.964 6.81774 17.9161 6.70198C17.8682 6.58622 17.8556 6.45885 17.88 6.33596C17.9045 6.21307 17.9648 6.10019 18.0534 6.0116C18.142 5.923 18.2549 5.86267 18.3778 5.83822C18.5007 5.81378 18.628 5.82632 18.7438 5.87427C18.8596 5.92222 18.9585 6.00342 19.0281 6.1076C19.0977 6.21177 19.1349 6.33426 19.1349 6.45955C19.1347 6.62751 19.0679 6.78853 18.9491 6.90729C18.8304 7.02606 18.6693 7.09286 18.5014 7.09305ZM7.41455 21.4643C7.41455 21.9507 7.60777 22.4171 7.95169 22.7611C8.29562 23.105 8.76208 23.2982 9.24846 23.2982H10.4655V27.0494C10.4649 27.2731 10.5084 27.4947 10.5936 27.7016C10.6788 27.9085 10.8039 28.0965 10.9619 28.2549C11.1199 28.4133 11.3076 28.5389 11.5142 28.6247C11.7208 28.7104 11.9423 28.7546 12.166 28.7546C12.3897 28.7546 12.6113 28.7104 12.8179 28.6247C13.0245 28.5389 13.2122 28.4133 13.3701 28.2549C13.5281 28.0965 13.6533 27.9085 13.7385 27.7016C13.8237 27.4947 13.8672 27.2731 13.8666 27.0494V23.2982H16.1339V27.0494C16.1333 27.2731 16.1769 27.4947 16.262 27.7016C16.3472 27.9085 16.4724 28.0965 16.6304 28.2549C16.7884 28.4133 16.976 28.5389 17.1826 28.6247C17.3893 28.7104 17.6108 28.7546 17.8345 28.7546C18.0582 28.7546 18.2797 28.7104 18.4863 28.6247C18.693 28.5389 18.8806 28.4133 19.0386 28.2549C19.1966 28.0965 19.3218 27.9085 19.4069 27.7016C19.4921 27.4947 19.5357 27.2731 19.5351 27.0494V23.2982H20.7521C21.2385 23.2982 21.705 23.105 22.0489 22.7611C22.3928 22.4171 22.586 21.9507 22.586 21.4643V10.4691H7.41455V21.4643ZM5.08045 10.1774C4.62959 10.1779 4.19734 10.3572 3.87853 10.676C3.55973 10.9948 3.3804 11.4271 3.37989 11.8779V18.9635C3.37928 19.1872 3.42282 19.4089 3.50801 19.6157C3.5932 19.8226 3.71837 20.0106 3.87634 20.169C4.03431 20.3274 4.22199 20.4531 4.42861 20.5388C4.63523 20.6246 4.85675 20.6687 5.08046 20.6687C5.30417 20.6687 5.52568 20.6246 5.7323 20.5388C5.93893 20.4531 6.1266 20.3274 6.28457 20.169C6.44255 20.0106 6.56771 19.8226 6.6529 19.6157C6.73809 19.4089 6.78163 19.1872 6.78103 18.9635V11.8779C6.78052 11.4271 6.60119 10.9948 6.28238 10.676C5.96357 10.3572 5.53132 10.1779 5.08045 10.1774ZM24.9201 10.1774C24.4692 10.1779 24.037 10.3572 23.7182 10.676C23.3993 10.9948 23.22 11.4271 23.2195 11.8779V18.9635C23.2189 19.1872 23.2624 19.4089 23.3476 19.6157C23.4328 19.8226 23.558 20.0106 23.716 20.169C23.8739 20.3274 24.0616 20.4531 24.2682 20.5388C24.4748 20.6246 24.6964 20.6687 24.9201 20.6687C25.1438 20.6687 25.3653 20.6246 25.5719 20.5388C25.7785 20.4531 25.9662 20.3274 26.1242 20.169C26.2822 20.0106 26.4073 19.8226 26.4925 19.6157C26.5777 19.4089 26.6212 19.1872 26.6206 18.9635V11.8779C26.6201 11.4271 26.4408 10.9948 26.122 10.676C25.8032 10.3572 25.3709 10.1779 24.9201 10.1774Z" fill="black"/>
</g>
</svg>
