<svg width="30" height="30" viewBox="0 0 30 30" fill="none" xmlns="http://www.w3.org/2000/svg">
<g id="ios-1 1">
<path id="Vector" d="M28.1222 9.09377C28.1808 7.834 28.005 6.57131 27.6037 5.37306C26.9591 3.84377 25.6642 2.68361 24.0763 2.209C23.0392 1.95119 21.9728 1.83693 20.9035 1.87502H9.09389C8.02749 1.83693 6.95815 1.95119 5.92104 2.209C4.33315 2.68361 3.03823 3.84377 2.3937 5.37306C1.99526 6.57131 1.81655 7.83107 1.87514 9.09377V20.9033C1.81948 22.166 1.99526 23.4258 2.3937 24.624C3.03823 26.1533 4.33315 27.3135 5.92104 27.7881C6.95815 28.0459 8.02456 28.1602 9.09389 28.1221H20.9035C21.9699 28.1602 23.0392 28.0459 24.0763 27.7881C25.6642 27.3135 26.9591 26.1533 27.6037 24.624C28.0021 23.4258 28.1808 22.166 28.1222 20.9033V9.09377ZM7.0812 19.9219H6.10561V14.0918H7.0812V19.9219ZM6.59194 13.1074C6.25795 13.1045 5.98842 12.832 5.99135 12.4951C5.99428 12.1612 6.26674 11.8916 6.60366 11.8945C6.93471 11.8975 7.20424 12.167 7.20424 12.501C7.20131 12.8379 6.92885 13.1104 6.59194 13.1074ZM12.4542 20.0684C9.87905 20.0684 8.256 18.2285 8.256 15.3018C8.256 12.375 9.87612 10.5293 12.4542 10.5293C15.0324 10.5293 16.6583 12.375 16.6583 15.3018C16.6583 18.2285 15.0382 20.0684 12.4542 20.0684ZM20.9562 20.0684C19.0226 20.0684 17.6632 19.002 17.5665 17.4082H18.4455C18.5421 18.5186 19.5851 19.2715 21.0353 19.2715C22.421 19.2715 23.4142 18.5156 23.4142 17.4785C23.4142 16.6143 22.8165 16.1016 21.4455 15.7559L20.297 15.46C18.5861 15.0235 17.8244 14.2998 17.8244 13.0811C17.8244 11.5869 19.1691 10.5235 20.9884 10.5235C22.7931 10.5235 24.1056 11.5899 24.1613 13.0547H23.2824C23.2003 12.0117 22.2746 11.3174 20.9621 11.3174C19.6818 11.3174 18.7326 12.0293 18.7326 13.0459C18.7326 13.8399 19.3068 14.3086 20.6662 14.6543L21.6681 14.9121C23.5255 15.3809 24.3078 16.0928 24.3078 17.3789C24.3107 19.0049 23.0011 20.0684 20.9562 20.0684ZM12.4542 11.3408C10.4298 11.3408 9.15542 12.8731 9.15542 15.3018C9.15542 17.7305 10.4298 19.2539 12.4542 19.2539C14.4787 19.2539 15.7619 17.7217 15.7619 15.3018C15.7619 12.8819 14.4816 11.3408 12.4542 11.3408Z" fill="black"/>
</g>
</svg>
